<svg xmlns="http://www.w3.org/2000/svg" xmlns:xlink="http://www.w3.org/1999/xlink" viewBox="0 0 400 362.416"><defs><style>
      .cls-1 {
        fill: #b5e9f6;
      }

      .cls-2 {
        fill: #fff;
      }

      .cls-3 {
        clip-path: url(#clip-path);
      }

      .cls-4 {
        clip-path: url(#clip-path-2);
      }

      .cls-5 {
        fill: #2a2b35;
      }

      .cls-6 {
        fill: #bf3943;
      }

      .cls-7 {
        fill: #e5b185;
      }

      .cls-8 {
        fill: #da916a;
      }

      .cls-9 {
        fill: #23bde6;
      }

      .cls-10 {
        fill: #4d4d4d;
      }

      .cls-11 {
        fill: none;
        stroke: #707070;
        opacity: 0.33;
      }
    </style><clipPath id="clip-path"><path id="Path_2333" data-name="Path 2333" class="cls-1" d="M0,0V113.829c0,38.767,89.549,70.193,200,70.193S400,152.6,400,113.829V0Z"></path></clipPath><clipPath id="clip-path-2"><path id="Path_3198" data-name="Path 3198" class="cls-1" d="M0,0V113.829c0,38.767,89.549,70.193,200,70.193S400,152.6,400,113.829V0Z" transform="translate(-8144 -4367)"></path></clipPath></defs><g id="Group_1302" data-name="Group 1302" transform="translate(5044 6785)"><g id="Group_1300" data-name="Group 1300" transform="translate(1960 -2418)"><rect id="Rectangle_214" data-name="Rectangle 214" class="cls-2" width="400" height="362.416" transform="translate(-7004 -4367)"></rect><g id="Group_1167" data-name="Group 1167" transform="translate(-425 -206.257)"><g id="Group_885" data-name="Group 885" class="cls-3" transform="translate(-6579 -4160.743)"><path id="Path_2332" data-name="Path 2332" class="cls-1" d="M0,0V113.829c0,38.767,89.549,70.193,200,70.193S400,152.6,400,113.829V0Z"></path></g></g><g id="Mask_Group_20" data-name="Mask Group 20" class="cls-4" transform="translate(1140)"><g id="Group_1219" data-name="Group 1219" transform="translate(-8012.743 -4359.234)"><path id="Path_641" data-name="Path 641" class="cls-5" d="M83.754,207.678H62.46a14.371,14.371,0,0,1-14.33-14.33V94.24A14.371,14.371,0,0,1,62.46,79.91H99.369a20.658,20.658,0,0,1,20.6,20.6v70.96A36.317,36.317,0,0,1,83.754,207.678Z" transform="translate(-3.315 -5.774)"></path><g id="Group_187" data-name="Group 187" transform="translate(0 370.808)"><path id="Path_642" data-name="Path 642" class="cls-6" d="M52.915,414.024c-1.946,7.309-14.237,9.749-18.427,10.624s-9.265,5.168-12.384,7.412-10.438,4.385-16.481,3.026c-3.082-.7-4.544-3.166-5.233-5.41-.112-.354-.2-.7-.27-1.024a5.034,5.034,0,0,1,.27-3.035v-.009A5.078,5.078,0,0,1,1.667,423.8c3.184-2.868,9.488-8.408,11.853-9.488,3.222-1.462,10.047-8.78,10.829-12.188a3.677,3.677,0,0,1,3.669-3.222,63.893,63.893,0,0,0,9.8,1.182c7.477.261,9.8-1.555,9.8-1.555a71.144,71.144,0,0,0,3.948,8.846,13.549,13.549,0,0,1,.95,2.123A7.43,7.43,0,0,1,52.915,414.024Z" transform="translate(0 -398.53)"></path><path id="Path_643" data-name="Path 643" class="cls-5" d="M52.944,414.836C51,422.145,38.707,424.585,34.517,425.46s-9.265,5.168-12.384,7.412S11.7,437.257,5.653,435.9c-3.082-.7-4.544-3.166-5.233-5.41,4.618,7.17,13.808,3.268,18.585.922s9.758-7.216,14.041-8.194a44.6,44.6,0,0,0,13.557-4.87c3.52-1.946,5.177-5.559,5.931-8.026A7.371,7.371,0,0,1,52.944,414.836Z" transform="translate(-0.029 -399.342)"></path></g><path id="Path_644" data-name="Path 644" class="cls-5" d="M26.008,227.29s-6.546,37.533-4.5,46.6,2.1,20.578,1.732,29.544-1.387,15.605,0,19.7,1.192,18.92,2.942,24.963-1.564,10.14,0,14.432,3.9,7.8,3.119,8.976-4.684,3.119-2.533,8.389,2.691,7.216,2.691,7.216,7.4,4.823,19.544,0a31.3,31.3,0,0,1,2.142-7.8c1.564-3.315.391-7.412-.978-16a134.612,134.612,0,0,1-1.76-24.377,103.485,103.485,0,0,1,1.266-13.7,54.955,54.955,0,0,0,2.207-13.213c.233-7.021.819-8.585,2.179-12.1s1.946-3.51,2.728-8.976,1.369-11.9,2.924-12.291,3.315.782,6.043,10.335,4.209,27.887,6.1,32.179.754,9.162,2.393,13.259,3.007,6.043,2.616,7.607.13,14.628.065,20.475.466,9.162.009,15.8,2.458,8.361,2.458,9.646-4.292,8.3-.978,13.762c0,0,3.9,5.27,4.488,7.607,0,0,11.7,2.924,14.041-3.119,0,0,.587-7.216,2.533-11.9s2.924-6.63,2.728-11.9.438-12.672.028-29.842S99.287,328.6,98.9,323.912s-1.173-6.63-1.369-8.389,1.173-.587,1.76-4.879-.587-10.922,1.173-16,1.7-10.726,1.927-13.259,2.756-6.825,2.756-14.237-2.337-4.684,0-13.259-1.2-23.986-1.2-23.986C75.525,238.1,49.891,234.953,26.008,227.29Z" transform="translate(-1.454 -15.926)"></path><g id="Group_188" data-name="Group 188" transform="translate(76.935 385.873)"><path id="Path_645" data-name="Path 645" class="cls-6" d="M107.369,441.172c-.587,6.536-3.417,12.384-7.8,14.237s-10.577.782-13.38-2.048S82.313,444.2,82.7,440.1c.279-2.924,1.4-3.706,1.844-6.6.037-.279.056-.438.056-.438a24.111,24.111,0,0,0,.047-4.367c-.075-1.052-.149-2-.233-2.859v-.009c-.5-5.149-1.089-6.918.307-8.259a13.629,13.629,0,0,1,1.462,2.412s2.467-3.874,8.315-3.725c5.67.14,6.583,2.914,6.639,3.082v.009s.512-3.7.661-4.637a7.171,7.171,0,0,1,2.989,5.27c.289,3.594-.484,5.251-.2,5.978.019.046.056.13.093.242.242.624.8,2.17,1.369,4.2v.028c.065.233.121.456.186.7v.009A31.291,31.291,0,0,1,107.369,441.172Z" transform="translate(-82.626 -414.71)"></path><path id="Path_646" data-name="Path 646" class="cls-5" d="M107.369,442.388c-.587,6.536-3.417,12.384-7.8,14.237s-10.577.782-13.38-2.048-3.873-9.162-3.482-13.259c.279-2.924,1.4-3.706,1.844-6.6-.223,1.713-.987,8.045-.484,10.894.587,3.315,2.421,9.1,6.155,9.535l1.788-1.313,2.672.074,1.723,1.648s7.17-.866,9.218-10.131c1.574-7.123.987-11.443.633-13.063A31.467,31.467,0,0,1,107.369,442.388Z" transform="translate(-82.626 -415.926)"></path></g><path id="Path_647" data-name="Path 647" class="cls-7" d="M28.923,144.268l-5.987,21.695s-6.853,8.24-17.03,2h0q-.824-.5-1.676-1.145s3.5-16.909,7.961-26.658a28.067,28.067,0,0,1,2.1-3.892C16.037,139.892,21.949,142.238,28.923,144.268Z" transform="translate(-0.291 -9.656)"></path><path id="Path_648" data-name="Path 648" class="cls-8" d="M29.047,144.268,23.06,165.963s-6.853,8.24-17.03,2c8.976-1.862,13.548-18.771,11.509-22.328-1.527-2.644-3.957-4.032-5.233-5.475a28.066,28.066,0,0,1,2.1-3.892C16.161,139.892,22.073,142.238,29.047,144.268Z" transform="translate(-0.415 -9.656)"></path><path id="Path_649" data-name="Path 649" class="cls-6" d="M130.58,139.952c-3.659,10.382-26.472,10.382-26.472,10.382l-1.974-4L100.84,143.7s3.315,34.917,2.924,39.4,2.337,17.16,0,22.431,0,17.16,0,17.16c-2.533,3.706-23.79,14.628-47.2,14.041s-31.788-15.605-31.788-15.605.736-4.1,1.387-8.985c.41-3.082.8-6.481.95-9.348.391-7.412,3.119-7.412,4.488-11.89s-1.76-2.151-.2-14.628-1.955-35.494-1.955-35.494c-12.477.2-17.552-8.38-17.552-8.38l1.4-3.166L26.975,98.219A9.14,9.14,0,0,1,32.7,93.163l14.758-4.423,5.782-1.732L81.994,85.64s1.685.41,4.237,1.052c2.877.717,6.853,1.723,10.773,2.747h.009c6.676,1.732,13.2,3.52,13.827,4,1.313,1.024,3.706,3.119,7.021,10.382,2.458,5.382,4.535,15.5,4.535,15.5s2.43,5.931,3.659,8.92a47.558,47.558,0,0,0,3.073,6.732c.019.037.047.074.065.121C130.822,138.118,130.58,139.952,130.58,139.952Z" transform="translate(-0.82 -6.168)"></path><path id="Path_650" data-name="Path 650" class="cls-5" d="M137.256,143.611c-3.659,10.382-26.472,10.382-26.472,10.382l-1.974-4c2.318-.112,20.578-1.341,27.049-11.229C137.5,141.777,137.256,143.611,137.256,143.611Z" transform="translate(-7.495 -9.828)"></path><path id="Path_651" data-name="Path 651" class="cls-5" d="M29.452,141.091V144c-12.477.2-17.552-8.38-17.552-8.38l1.4-3.166C15.708,135,22.152,141.035,29.452,141.091Z" transform="translate(-0.82 -9.393)"></path><path id="Path_652" data-name="Path 652" class="cls-5" d="M89.009,86.682c-.13,2.132-5.568,12.812-17.663,14.9-10.68,1.834-20.559,1.853-18.762-13.548L56.029,87,84.782,85.63S86.458,86.04,89.009,86.682Z" transform="translate(-3.608 -6.168)"></path><circle id="Ellipse_22" data-name="Ellipse 22" class="cls-5" cx="17.365" cy="17.365" r="17.365" transform="translate(55.038 16.174)"></circle><circle id="Ellipse_23" data-name="Ellipse 23" class="cls-5" cx="8.259" cy="8.259" r="8.259" transform="translate(70.104 48.735)"></circle><circle id="Ellipse_24" data-name="Ellipse 24" class="cls-5" cx="8.036" cy="8.036" r="8.036" transform="translate(32.803 19.582)"></circle><circle id="Ellipse_25" data-name="Ellipse 25" class="cls-5" cx="8.036" cy="8.036" r="8.036" transform="translate(35.718 30.029)"></circle><g id="Group_189" data-name="Group 189" transform="translate(39.231 14.256)"><path id="Path_653" data-name="Path 653" class="cls-7" d="M91.232,56.644c-2.84,9.153-7.887,7.57-7.887,7.57C81.772,79.354,85.552,84.4,85.552,84.4c-8.259,9.907-18.138,11.443-23.976,11.322a28.351,28.351,0,0,1-3.78-.335,1.3,1.3,0,0,1-1.071-1.462C57.954,84.559,52.6,75.462,52.6,75.462c29.833-4.218,28.529-25.755,28.529-25.755l2.207-1.574C88.392,44.978,94.072,47.5,91.232,56.644Z" transform="translate(-42.855 -17.752)"></path><path id="Path_654" data-name="Path 654" class="cls-7" d="M75.809,64.7C68.518,72.926,57.54,75.077,50.957,73.55c-.158-.037-.317-.074-.466-.121h0a10.507,10.507,0,0,1-2.6-1.043,6.772,6.772,0,0,1-.661-.438,11.821,11.821,0,0,1-2.961-3.622c-2.309-4.06-2.328-8.371-1.965-12.989L43.2,45.1v-.074l-.307-5.792L42.316,28.4c.652-.531,1.3-1.024,1.965-1.48C60.026,16,78.788,25.877,78.788,25.877S86.805,52.311,75.809,64.7Z" transform="translate(-42.134 -16.026)"></path><path id="Path_655" data-name="Path 655" class="cls-8" d="M51.546,77.355a1.145,1.145,0,0,1-.466-.121h0a2.907,2.907,0,0,1-.4-.214Z" transform="translate(-42.723 -19.831)"></path><path id="Path_656" data-name="Path 656" class="cls-2" d="M65.464,59.86H47s-.382,8.631,9.237,8.631C65.464,68.491,65.464,59.86,65.464,59.86Z" transform="translate(-42.469 -18.649)"></path><path id="Path_657" data-name="Path 657" class="cls-5" d="M51.5,43.213a1.668,1.668,0,1,1-1.881-1.425A1.675,1.675,0,0,1,51.5,43.213Z" transform="translate(-42.551 -17.403)"></path><path id="Path_658" data-name="Path 658" class="cls-5" d="M70.494,42.783a1.668,1.668,0,1,1-1.881-1.425A1.675,1.675,0,0,1,70.494,42.783Z" transform="translate(-43.859 -17.373)"></path><path id="Path_659" data-name="Path 659" class="cls-5" d="M62.75,35.912l.093,2.551a10.258,10.258,0,0,1,6.648.251c3.315,1.4,3.538,2.067,3.538,2.067l.838-1.48S70.674,34.115,62.75,35.912Z" transform="translate(-43.554 -16.973)"></path><path id="Path_660" data-name="Path 660" class="cls-5" d="M75.54,24.257s.391,5.931,5.894,8.455c0,0,.4,11.024-1.285,16.695h3.6l2.011-18.455S80.121,20.393,75.54,24.257Z" transform="translate(-44.435 -16.138)"></path><path id="Path_661" data-name="Path 661" class="cls-5" d="M77.263,24.771s-15.429-2.942-19.414-.94c-5.54,2.784-5.419-1.834-13.6,2.588A16.529,16.529,0,0,1,42.5,31.867L42.3,28l5.466-7.253,8.78-3.259,9.032-1.574L74.61,15.6Z" transform="translate(-42.145 -15.6)"></path><path id="Path_662" data-name="Path 662" class="cls-8" d="M78.569,64.87s-.261,12.691-11.751,18.362a9.714,9.714,0,0,0-4.525,4.432,14.161,14.161,0,0,0-.726,9.3,28.452,28.452,0,0,1-3.836-.344,1.235,1.235,0,0,1-1.015-1.4C57.973,85.839,52.6,76.7,52.6,76.7A25.212,25.212,0,0,0,78.569,64.87Z" transform="translate(-42.855 -18.994)"></path><path id="Path_663" data-name="Path 663" class="cls-8" d="M90.427,51.84s-5.978-.261-3.948,8.1C86.488,59.931,86.069,53.888,90.427,51.84Z" transform="translate(-45.16 -18.096)"></path><path id="Path_664" data-name="Path 664" class="cls-8" d="M86.71,57.64s.894-2.691,3.054-1.536c0,0-.438-1.471-2.7-1.108Z" transform="translate(-45.204 -18.31)"></path><path id="Path_665" data-name="Path 665" class="cls-8" d="M58.471,52.452S58.4,50.04,54.449,50.04c-3.52,0-4.479,2.412-4.479,2.412Z" transform="translate(-42.674 -17.972)"></path><path id="Path_666" data-name="Path 666" class="cls-5" d="M43.86,39.952l.708,1.75a7.067,7.067,0,0,1,4.46-2.719,6.421,6.421,0,0,1,3.482.121l.047-2.393A7.336,7.336,0,0,0,43.86,39.952Z" transform="translate(-42.253 -17.028)"></path><path id="Path_667" data-name="Path 667" class="cls-8" d="M51.61,70.01s.549.708,4.637.9a16.57,16.57,0,0,0,6.611-.857S56.47,76.221,51.61,70.01Z" transform="translate(-42.787 -19.348)"></path></g><circle id="Ellipse_26" data-name="Ellipse 26" class="cls-5" cx="8.036" cy="8.036" r="8.036" transform="translate(51.267 0.504)"></circle><path id="Path_668" data-name="Path 668" class="cls-5" d="M82.971,12.1A8.036,8.036,0,1,1,74.936,4.06,8.037,8.037,0,0,1,82.971,12.1Z" transform="translate(-4.608 -0.549)"></path><circle id="Ellipse_27" data-name="Ellipse 27" class="cls-5" cx="8.036" cy="8.036" r="8.036" transform="translate(69.359 10.802)"></circle><circle id="Ellipse_28" data-name="Ellipse 28" class="cls-5" cx="11.816" cy="11.816" r="11.816" transform="translate(29.723 5.191) rotate(-22.644)"></circle><path id="Path_669" data-name="Path 669" class="cls-5" d="M55.961,24.786a8.036,8.036,0,1,1-8.036-8.036A8.037,8.037,0,0,1,55.961,24.786Z" transform="translate(-2.748 -1.423)"></path><circle id="Ellipse_29" data-name="Ellipse 29" class="cls-5" cx="5.67" cy="5.67" r="5.67" transform="translate(48.008 15.197)"></circle><path id="Path_670" data-name="Path 670" class="cls-5" d="M90.567,86.486a66.177,66.177,0,0,0-6.089,38.073c3.38,25.6,23.045,38.734,23.045,38.734s5.391-8.408-1.723-19.619c0,0-9.609-10.335-10.922-24.814s8.166-29.172,8.166-29.172S99.85,82.324,90.567,86.486Z" transform="translate(-5.779 -6.139)"></path><path id="Path_671" data-name="Path 671" class="cls-5" d="M54.1,87.08s-9.991-1.75-18.762,7.319c-7.579,7.84-18.678,35.075-3.268,61.733l-.68-15.224S29.721,128.058,34.46,111.8c4.609-15.829,20.308-21.127,20.308-21.127A33.033,33.033,0,0,0,54.1,87.08Z" transform="translate(-1.676 -6.258)"></path><path id="Path_672" data-name="Path 672" class="cls-7" d="M144.353,176.589c-2.2,6-2.2,9.507-5.847,10.093s-5.708-2.337-9.8-3.073c-3.166-.568-8.576-4.8-16.9-11.117-.512-.391-2.868-1.788-4.488-2.737-.456-.27-.857-.5-1.136-.661s-.438-.261-.438-.261l2.775-10.969.531-2.337a35.781,35.781,0,0,1,3.7.447,12.6,12.6,0,0,1-.838-2.672c3.063-1.611,6.108-3.333,9.507-4.832,1.127-.5,2.291-.978,3.5-1.415a46.961,46.961,0,0,1,4.991-1.508A63.731,63.731,0,0,1,136.355,144l.689,1.937,3.734,10.512c.587,1.592,1.164,3.1,1.667,4.339C144.651,166.207,146.551,170.593,144.353,176.589Z" transform="translate(-7.284 -10.189)"></path><path id="Path_673" data-name="Path 673" class="cls-8" d="M131.718,155.975c3.948,5.13,2.412,9.246,2.412,9.246-2.412-5.968-8.194-5.67-11.7-6.76s-9.227-2.477-9.227-2.477a12.6,12.6,0,0,1-.838-2.672c3.063-1.611,6.108-3.333,9.507-4.832.009-.009.019-.009.028-.019.493-.223,1-.428,1.5-.633a1.563,1.563,0,0,1,.186-.075c.587-.233,1.183-.466,1.788-.689a46.966,46.966,0,0,1,4.991-1.508,63.744,63.744,0,0,1,6.453-1.546l.689,1.937s-12.244.289-8.911,5.819C129.539,153.079,130.6,154.513,131.718,155.975Z" transform="translate(-7.74 -10.189)"></path><path id="Path_674" data-name="Path 674" class="cls-8" d="M126.208,147.28c-.605.223-1.2.447-1.788.689C125.007,147.727,125.6,147.494,126.208,147.28Z" transform="translate(-8.571 -10.415)"></path><path id="Path_675" data-name="Path 675" class="cls-8" d="M107.356,171.336c-.456-.27-.857-.5-1.136-.661a8.69,8.69,0,0,0,1.9-3.715A7.508,7.508,0,0,1,107.356,171.336Z" transform="translate(-7.317 -11.77)"></path><path id="Path_676" data-name="Path 676" class="cls-7" d="M107.548,154.524l-2.44,13.455a87.765,87.765,0,0,1-9.4-.484c-4.1-.512-9.609-3.026-9.833-4.628-.2-1.471.577-1.657.717-1.676h.019a5.365,5.365,0,0,1-1.034-.559h0a3.288,3.288,0,0,1-1.676-3.175c.3-2.048.922-2.318,1.155-2.346h.009a.191.191,0,0,1,.084,0,2.274,2.274,0,0,1-.689-.708,3.257,3.257,0,0,1-.2-2.8c.8-2.561,1.685-2.272,1.685-2.272a7.145,7.145,0,0,1-.047-.717c-.028-1.08.121-3.091,1.434-3.818,1.732-.968,7.086-.829,9.348-.382.14.028.27.056.382.084a7.536,7.536,0,0,0,2.048-3.51,20.7,20.7,0,0,0-.726-4.032c-.54-2.868-.68-6.276,2.849-7.449,0,0,1.76-.736,1.611,2.71s.8,4.246,1.387,7.17,1.248,4.758,1.024,7.682S107.548,154.524,107.548,154.524Z" transform="translate(-5.777 -9.186)"></path><path id="Path_677" data-name="Path 677" class="cls-8" d="M98.944,145.379l-1.3-.4c.14.028.27.056.382.084a7.536,7.536,0,0,0,2.048-3.51,20.7,20.7,0,0,0-.726-4.032h0a20.239,20.239,0,0,1,1.751,4.59C101.439,143.684,98.944,145.379,98.944,145.379Z" transform="translate(-6.726 -9.742)"></path><path id="Path_678" data-name="Path 678" class="cls-8" d="M91.6,151.528a21.492,21.492,0,0,0-5.5-.782,7.153,7.153,0,0,1-.047-.717C89.812,149.871,91.506,151.435,91.6,151.528Z" transform="translate(-5.928 -10.603)"></path><path id="Path_679" data-name="Path 679" class="cls-8" d="M85.234,157.01H85.15A.211.211,0,0,1,85.234,157.01Z" transform="translate(-5.866 -11.085)"></path><path id="Path_680" data-name="Path 680" class="cls-8" d="M90.766,157.925c-1.294-.708-5.577-.978-5.577-.978a2.274,2.274,0,0,1-.689-.708C89.593,156.324,90.766,157.925,90.766,157.925Z" transform="translate(-5.821 -11.032)"></path><path id="Path_681" data-name="Path 681" class="cls-8" d="M90.169,164.41a10.907,10.907,0,0,0-3.436-.922,5.365,5.365,0,0,1-1.034-.559C88.884,162.883,90.095,164.317,90.169,164.41Z" transform="translate(-5.903 -11.493)"></path><path id="Path_682" data-name="Path 682" class="cls-7" d="M19.7,162.824l4.814,12.8a88.692,88.692,0,0,0,9.162-2.17c3.939-1.238,8.911-4.693,8.836-6.322-.065-1.49-.866-1.527-1.006-1.527h-.019a5.242,5.242,0,0,0,.912-.736h0a3.3,3.3,0,0,0,1.08-3.426c-.661-1.965-1.322-2.114-1.555-2.095h-.009a.16.16,0,0,0-.084.019,2.083,2.083,0,0,0,.549-.819,3.235,3.235,0,0,0-.317-2.793c-1.248-2.374-2.058-1.927-2.058-1.927s-.019-.289-.084-.708c-.168-1.071-.67-3.017-2.1-3.5-1.881-.642-7.114.456-9.265,1.3-.13.047-.251.1-.363.149a7.556,7.556,0,0,1-2.644-3.082,21.13,21.13,0,0,1-.009-4.1c.019-2.914-.456-6.294-4.134-6.816,0,0-1.862-.4-1.1,2.952s-.028,4.32-.084,7.3-.372,4.9.372,7.738S19.7,162.824,19.7,162.824Z" transform="translate(-1.357 -9.711)"></path><path id="Path_683" data-name="Path 683" class="cls-8" d="M27.73,152.073l1.21-.633c-.13.047-.251.1-.363.149a7.556,7.556,0,0,1-2.644-3.082,21.129,21.129,0,0,1-.009-4.1h0a20.237,20.237,0,0,0-.894,4.833C24.965,150.853,27.73,152.073,27.73,152.073Z" transform="translate(-1.724 -10.217)"></path><path id="Path_684" data-name="Path 684" class="cls-8" d="M35.86,156.778a21.515,21.515,0,0,1,5.27-1.751s-.019-.289-.084-.708C37.322,154.841,35.934,156.676,35.86,156.778Z" transform="translate(-2.47 -10.9)"></path><path id="Path_685" data-name="Path 685" class="cls-8" d="M43.48,161.029c.028-.009.056-.009.084-.019A.615.615,0,0,0,43.48,161.029Z" transform="translate(-2.995 -11.36)"></path><path id="Path_686" data-name="Path 686" class="cls-8" d="M37.77,162.935c1.145-.922,5.317-1.955,5.317-1.955a2.084,2.084,0,0,0,.549-.819C38.645,161.138,37.77,162.935,37.77,162.935Z" transform="translate(-2.602 -11.302)"></path><path id="Path_687" data-name="Path 687" class="cls-8" d="M39.66,169.2a10.981,10.981,0,0,1,3.212-1.527,5.242,5.242,0,0,0,.912-.736C40.647,167.471,39.716,169.1,39.66,169.2Z" transform="translate(-2.732 -11.769)"></path><path id="Path_688" data-name="Path 688" class="cls-7" d="M23.348,177.321a8.8,8.8,0,0,1-.736,1,18.354,18.354,0,0,1-8.361,5.484c-8.687,2.914-12.43-7.9-11.266-12.831s6.732-5.019,7.17-5.307,9.134-4.013,9.134-4.013l4.06,15.671Z" transform="translate(-0.191 -11.404)"></path><path id="Path_689" data-name="Path 689" class="cls-8" d="M24.759,178.185s0,.1-.5.717a12.2,12.2,0,0,1-1-4.7c.894,2.263,1.434,3.836,1.5,3.985Z" transform="translate(-1.602 -12.269)"></path></g></g></g><g id="Group_1301" data-name="Group 1301" transform="translate(-202 -4)"><path id="Path_3303" data-name="Path 3303" class="cls-9" d="M6.724,16.267H3.349L2.663,19H.141l3.6-12.8h2.6L9.94,19H7.418Zm-2.865-2H6.214L5.063,9.745H5.01Zm11.057,2.241a.923.923,0,0,0-.316-.7,5.326,5.326,0,0,0-1.213-.725,6.4,6.4,0,0,1-2.149-1.213,2.308,2.308,0,0,1-.716-1.758,2.567,2.567,0,0,1,.918-1.982,3.508,3.508,0,0,1,2.43-.822,3.636,3.636,0,0,1,2.522.844,2.661,2.661,0,0,1,.905,2.153l-.026.053H14.862a1.628,1.628,0,0,0-.246-.949.86.86,0,0,0-.756-.352.948.948,0,0,0-.686.272.939.939,0,0,0,0,1.34,5.665,5.665,0,0,0,1.222.708,5.923,5.923,0,0,1,2.215,1.208,2.6,2.6,0,0,1-.246,3.819,3.944,3.944,0,0,1-2.54.773,3.515,3.515,0,0,1-2.6-.958,2.829,2.829,0,0,1-.914-2.162l.018-.053h2.285a1.551,1.551,0,0,0,.352,1.09,1.247,1.247,0,0,0,.923.334,1.081,1.081,0,0,0,.765-.246A.88.88,0,0,0,14.915,16.513Zm7.8,0a.923.923,0,0,0-.316-.7,5.326,5.326,0,0,0-1.213-.725,6.4,6.4,0,0,1-2.149-1.213,2.308,2.308,0,0,1-.716-1.758,2.567,2.567,0,0,1,.918-1.982,3.508,3.508,0,0,1,2.43-.822,3.636,3.636,0,0,1,2.522.844,2.661,2.661,0,0,1,.905,2.153l-.026.053H22.667a1.628,1.628,0,0,0-.246-.949.86.86,0,0,0-.756-.352.948.948,0,0,0-.686.272.939.939,0,0,0,0,1.34,5.665,5.665,0,0,0,1.222.708,5.923,5.923,0,0,1,2.215,1.208,2.6,2.6,0,0,1-.246,3.819,3.944,3.944,0,0,1-2.54.773,3.515,3.515,0,0,1-2.6-.958,2.829,2.829,0,0,1-.914-2.162l.018-.053h2.285a1.551,1.551,0,0,0,.352,1.09,1.247,1.247,0,0,0,.923.334,1.081,1.081,0,0,0,.765-.246A.88.88,0,0,0,22.72,16.513ZM31.21,17.9a2.807,2.807,0,0,1-.936.954,2.37,2.37,0,0,1-1.244.33,2.342,2.342,0,0,1-1.991-.962,5.013,5.013,0,0,1-.716-2.984V9.49h2.5v5.772a3.269,3.269,0,0,0,.246,1.469.786.786,0,0,0,.729.458,1.619,1.619,0,0,0,.725-.154,1.454,1.454,0,0,0,.532-.453V9.49h2.5V19h-2.2Zm8.411-6.135-.94-.026a1.065,1.065,0,0,0-.655.193,1.229,1.229,0,0,0-.4.545V19h-2.5V9.49h2.329l.1,1.274.044.018a2.594,2.594,0,0,1,.637-1.077,1.336,1.336,0,0,1,.954-.391,2.221,2.221,0,0,1,.356.031,2.418,2.418,0,0,1,.33.075Zm4.8,7.418a3.631,3.631,0,0,1-2.848-1.178,4.286,4.286,0,0,1-1.055-2.971V13.7a4.909,4.909,0,0,1,.98-3.155,3.274,3.274,0,0,1,2.711-1.23,3.151,3.151,0,0,1,2.584,1.116,4.66,4.66,0,0,1,.914,3.041V15H43v.035a2.628,2.628,0,0,0,.426,1.547,1.469,1.469,0,0,0,1.288.606,3.437,3.437,0,0,0,1.143-.158,6.01,6.01,0,0,0,1.046-.527l.633,1.591a3.77,3.77,0,0,1-1.314.782A5.115,5.115,0,0,1,44.42,19.185Zm-.211-7.875a.927.927,0,0,0-.879.547,3.55,3.55,0,0,0-.316,1.474h2.241v-.353a2.536,2.536,0,0,0-.246-1.231A.848.848,0,0,0,44.209,11.31ZM3.472,34.4V39H.967V26.2H5.414a4.034,4.034,0,0,1,3.023,1.133A4.063,4.063,0,0,1,9.545,30.3a4.051,4.051,0,0,1-1.112,2.972A4.046,4.046,0,0,1,5.414,34.4Zm0-2H5.414a1.409,1.409,0,0,0,1.222-.59,2.512,2.512,0,0,0,.422-1.5A2.609,2.609,0,0,0,6.64,28.8a1.4,1.4,0,0,0-1.226-.6H3.472Zm11.1,6.776a3.631,3.631,0,0,1-2.848-1.178,4.286,4.286,0,0,1-1.055-2.971V33.7a4.909,4.909,0,0,1,.98-3.155,3.274,3.274,0,0,1,2.711-1.23,3.151,3.151,0,0,1,2.584,1.116,4.66,4.66,0,0,1,.914,3.041V35h-4.7v.035a2.628,2.628,0,0,0,.426,1.547,1.469,1.469,0,0,0,1.288.606,3.437,3.437,0,0,0,1.143-.158A6.01,6.01,0,0,0,17.06,36.5l.633,1.591a3.77,3.77,0,0,1-1.314.782A5.115,5.115,0,0,1,14.572,39.185Zm-.211-7.875a.927.927,0,0,0-.879.547,3.55,3.55,0,0,0-.316,1.474h2.241v-.353a2.536,2.536,0,0,0-.246-1.231A.848.848,0,0,0,14.361,31.31Zm9.246.457-.94-.026a1.065,1.065,0,0,0-.655.193,1.229,1.229,0,0,0-.4.545V39h-2.5V29.49h2.329l.1,1.274.044.018a2.594,2.594,0,0,1,.637-1.077,1.336,1.336,0,0,1,.954-.391,2.221,2.221,0,0,1,.356.031,2.418,2.418,0,0,1,.33.075Zm5.405,4.746a.923.923,0,0,0-.316-.7,5.326,5.326,0,0,0-1.213-.725,6.4,6.4,0,0,1-2.149-1.213,2.308,2.308,0,0,1-.716-1.758,2.567,2.567,0,0,1,.918-1.982,3.508,3.508,0,0,1,2.43-.822,3.636,3.636,0,0,1,2.522.844,2.661,2.661,0,0,1,.905,2.153l-.026.053H28.96a1.628,1.628,0,0,0-.246-.949.86.86,0,0,0-.756-.352.948.948,0,0,0-.686.272.939.939,0,0,0,0,1.34,5.665,5.665,0,0,0,1.222.708,5.923,5.923,0,0,1,2.215,1.208,2.6,2.6,0,0,1-.246,3.819,3.944,3.944,0,0,1-2.54.773,3.515,3.515,0,0,1-2.6-.958,2.829,2.829,0,0,1-.914-2.162l.018-.053H26.71a1.551,1.551,0,0,0,.352,1.09,1.247,1.247,0,0,0,.923.334,1.081,1.081,0,0,0,.765-.246A.88.88,0,0,0,29.013,36.513Zm3.366-2.848a4.728,4.728,0,0,1,1.015-3.133,3.5,3.5,0,0,1,2.843-1.217,3.511,3.511,0,0,1,2.848,1.217,4.715,4.715,0,0,1,1.02,3.133v1.178a4.689,4.689,0,0,1-1.02,3.138,3.518,3.518,0,0,1-2.839,1.2,3.526,3.526,0,0,1-2.852-1.2,4.7,4.7,0,0,1-1.015-3.138Zm2.487,1.174a3.97,3.97,0,0,0,.308,1.725,1.1,1.1,0,0,0,1.072.625,1.082,1.082,0,0,0,1.05-.629,3.926,3.926,0,0,0,.312-1.721V33.66a3.937,3.937,0,0,0-.312-1.712,1.2,1.2,0,0,0-2.118,0,3.942,3.942,0,0,0-.312,1.708Zm8.842-5.349.105,1.31a3.169,3.169,0,0,1,.971-1.094,2.324,2.324,0,0,1,3.138.523A4.841,4.841,0,0,1,48.6,33.1V39H46.1V33.1a2.551,2.551,0,0,0-.277-1.386.97.97,0,0,0-.857-.4,1.137,1.137,0,0,0-.615.176,1.5,1.5,0,0,0-.475.484V39h-2.5V29.49ZM54.8,39a4.378,4.378,0,0,1-.316-1.09,2.973,2.973,0,0,1-.857.927,2.021,2.021,0,0,1-1.173.347,2.431,2.431,0,0,1-1.885-.773,2.941,2.941,0,0,1-.708-2.065,2.707,2.707,0,0,1,.9-2.171,4.013,4.013,0,0,1,2.676-.773h.94v-.773a1.912,1.912,0,0,0-.25-1.068.844.844,0,0,0-.751-.374.723.723,0,0,0-.633.3,1.5,1.5,0,0,0-.211.87l-2.417-.009-.026-.053a2.607,2.607,0,0,1,.918-2.109,3.636,3.636,0,0,1,2.536-.87,3.393,3.393,0,0,1,2.413.866,3.208,3.208,0,0,1,.927,2.465V36.5a8.331,8.331,0,0,0,.1,1.31,7.135,7.135,0,0,0,.3,1.2Zm-1.626-1.7a1.286,1.286,0,0,0,.7-.2,1.5,1.5,0,0,0,.505-.519V34.834h-.94a.909.909,0,0,0-.826.4,1.817,1.817,0,0,0-.255,1,1.273,1.273,0,0,0,.22.773A.7.7,0,0,0,53.174,37.3Zm7.9,1.7h-2.5V25.289h2.5Z" transform="translate(-4597 -6552.32)"></path><path id="Path_3304" data-name="Path 3304" class="cls-10" d="M5.175,56.4a1.334,1.334,0,0,0-.3-.919,3.063,3.063,0,0,0-1.06-.667,7,7,0,0,1-2.328-1.227,2.436,2.436,0,0,1-.776-1.924,2.5,2.5,0,0,1,.9-1.993,3.427,3.427,0,0,1,2.3-.769,3.187,3.187,0,0,1,2.311.858,2.793,2.793,0,0,1,.861,2.164l-.014.041H5.188a1.71,1.71,0,0,0-.342-1.107,1.168,1.168,0,0,0-.964-.424,1.171,1.171,0,0,0-.906.352,1.255,1.255,0,0,0-.325.885,1.03,1.03,0,0,0,.362.81,5.106,5.106,0,0,0,1.258.708A5.294,5.294,0,0,1,6.4,54.4a2.727,2.727,0,0,1,.714,1.986,2.512,2.512,0,0,1-.861,2.023,3.419,3.419,0,0,1-2.29.731A3.835,3.835,0,0,1,1.5,58.313,2.783,2.783,0,0,1,.492,55.931l.014-.041H2.4a1.867,1.867,0,0,0,.39,1.326,1.565,1.565,0,0,0,1.176.4,1.172,1.172,0,0,0,.913-.328A1.274,1.274,0,0,0,5.175,56.4Zm5.2,2.6H8.436V49.047H10.37Zm8.579,0H17.015l-3.042-6.364-.041.014V59H11.983V49.047h1.948L16.974,55.4l.041-.014V49.047h1.935Zm6.535-3.575V59H23.536V49.047H27a3.192,3.192,0,1,1,0,6.378Zm0-1.552H27a1.1,1.1,0,0,0,.95-.459,1.954,1.954,0,0,0,.328-1.165,2.029,2.029,0,0,0-.325-1.182A1.086,1.086,0,0,0,27,50.6H25.484Zm9.5,3H32.361L31.828,59H29.866l2.8-9.953h2.023L37.488,59H35.526Zm-2.229-1.552H34.59l-.9-3.521h-.041Zm12.018,2.2a3.575,3.575,0,0,1-1.21,1.131,3.889,3.889,0,0,1-2.044.489,3.293,3.293,0,0,1-3.534-3.6V52.506a3.619,3.619,0,0,1,.933-2.659,3.32,3.32,0,0,1,2.471-.943,3.417,3.417,0,0,1,2.481.809,3.2,3.2,0,0,1,.861,2.318l-.014.041H42.9a1.863,1.863,0,0,0-.373-1.23,1.385,1.385,0,0,0-1.077-.387,1.35,1.35,0,0,0-1.114.5,2.418,2.418,0,0,0-.4,1.529v3.052a2.442,2.442,0,0,0,.407,1.55,1.436,1.436,0,0,0,1.186.5,1.8,1.8,0,0,0,.858-.157,1.222,1.222,0,0,0,.455-.465V55.186H41.521V53.818h3.254Zm8.176-2.1A3.774,3.774,0,0,1,52,58.159a3.733,3.733,0,0,1-5.052,0,3.79,3.79,0,0,1-.943-2.734V52.636a3.817,3.817,0,0,1,.943-2.738,3.3,3.3,0,0,1,2.516-.995,3.349,3.349,0,0,1,2.529.995,3.784,3.784,0,0,1,.957,2.738Zm-1.935-2.81A2.733,2.733,0,0,0,50.62,51a1.339,1.339,0,0,0-1.155-.545A1.314,1.314,0,0,0,48.316,51a2.805,2.805,0,0,0-.383,1.618v2.811a2.781,2.781,0,0,0,.39,1.625,1.488,1.488,0,0,0,2.3,0,2.744,2.744,0,0,0,.4-1.625ZM57.285,59V49.047h3.008a3.194,3.194,0,0,1,2.529,1.159,4.409,4.409,0,0,1,1,2.984v1.675a4.4,4.4,0,0,1-1,2.98A3.2,3.2,0,0,1,60.293,59Zm1.948-8.4v6.85h.95a1.4,1.4,0,0,0,1.254-.708,3.52,3.52,0,0,0,.441-1.878v-1.69a3.487,3.487,0,0,0-.441-1.868,1.4,1.4,0,0,0-1.254-.7Zm11.211,4.033H67.1v2.816h3.931V59H65.153V49.047h5.865V50.6H67.1V53.08h3.343ZM5.229,76.874H2.6L2.071,79H.109l2.8-9.953H4.936L7.731,79H5.77ZM3,75.322H4.833l-.9-3.521H3.9Zm10.828-.458H10.452V79H8.5V69.047h5.92V70.6H10.452v2.714h3.377ZM17.486,79H15.552V69.047h1.935Zm3.562-1.552h3.637V79H19.1V69.047h1.948ZM27.692,79H25.758V69.047h1.935Zm6.214-2.126H31.281L30.748,79H28.786l2.8-9.953h2.023L36.408,79H34.446Zm-2.229-1.552H33.51l-.9-3.521h-.041Zm11.669.472.021.041a3.421,3.421,0,0,1-.779,2.475,3.077,3.077,0,0,1-2.338.834,3.288,3.288,0,0,1-2.468-.947,3.685,3.685,0,0,1-.923-2.683V72.54a3.777,3.777,0,0,1,.892-2.683,3.115,3.115,0,0,1,2.389-.954,3.163,3.163,0,0,1,2.4.848,3.591,3.591,0,0,1,.837,2.509l-.021.041H41.48a2.323,2.323,0,0,0-.267-1.413,1.228,1.228,0,0,0-1.073-.432,1.141,1.141,0,0,0-1,.513,2.788,2.788,0,0,0-.349,1.553v2.99a2.674,2.674,0,0,0,.373,1.567,1.263,1.263,0,0,0,1.09.513,1.1,1.1,0,0,0,.981-.407,2.43,2.43,0,0,0,.243-1.391ZM46.58,79H44.646V69.047H46.58ZM54.9,75.425a3.774,3.774,0,0,1-.95,2.734,3.733,3.733,0,0,1-5.052,0,3.79,3.79,0,0,1-.943-2.734V72.636A3.817,3.817,0,0,1,48.9,69.9a3.3,3.3,0,0,1,2.516-.995,3.349,3.349,0,0,1,2.529.995,3.784,3.784,0,0,1,.957,2.738Zm-1.935-2.81a2.733,2.733,0,0,0-.4-1.615,1.339,1.339,0,0,0-1.155-.545A1.314,1.314,0,0,0,50.265,71a2.805,2.805,0,0,0-.383,1.618v2.811a2.781,2.781,0,0,0,.39,1.625,1.488,1.488,0,0,0,2.3,0,2.744,2.744,0,0,0,.4-1.625Zm-1.319-6.241h2.044l.021.041-1.7,1.777-1.565,0ZM63.13,79H61.2l-3.042-6.364-.041.014V79H56.164V69.047h1.948L61.154,75.4l.041-.014V69.047H63.13Z" transform="translate(-4597 -6552.32)"></path></g><path id="Path_3305" data-name="Path 3305" class="cls-9" d="M43.928,0H4.833V-6.46L23.974-31.63a63.169,63.169,0,0,0,6.484-10.855A21.1,21.1,0,0,0,32.3-50.818a15.949,15.949,0,0,0-2.321-9.007,7.284,7.284,0,0,0-6.388-3.482,8.605,8.605,0,0,0-7.68,3.854q-2.56,3.854-2.56,10.5H4.02l-.1-.239a21.944,21.944,0,0,1,5.12-15.265q5.312-6.221,14.547-6.221,8.518,0,13.47,5.383t4.953,14.236a25.216,25.216,0,0,1-3.039,11.8,81.341,81.341,0,0,1-8.829,12.992L16.987-7.369h26.94ZM64.64-6.364q5.312,0,8.589-4.925t3.278-14.2V-28.9a14.416,14.416,0,0,1-4.929,5.212,12.051,12.051,0,0,1-6.364,1.769,15.641,15.641,0,0,1-13.183-6.436q-4.857-6.436-4.857-17.442,0-10.671,5.479-17.777t13.566-7.106a17.631,17.631,0,0,1,14.523,6.891q5.479,6.891,5.479,19.858v18.184q0,12.729-6.029,19.739A19.568,19.568,0,0,1,64.64,1,28,28,0,0,1,58.419.263,26.69,26.69,0,0,1,52.39-1.866l1.292-7.082a20.027,20.027,0,0,0,5.144,1.986A26.056,26.056,0,0,0,64.64-6.364Zm1.579-22.921a9.7,9.7,0,0,0,6.34-2.129,13.3,13.3,0,0,0,3.948-5.479V-44.98q0-9-2.68-13.662t-7.465-4.666q-4.067,0-6.771,5.024a25.892,25.892,0,0,0-2.7,12.394q0,7.369,2.464,11.987T66.219-29.285Z" transform="translate(-4951 -6477.32)"></path><path id="Path_3306" data-name="Path 3306" class="cls-9" d="M5,0H2.007V-2.974H5ZM12.57-1.948A3.039,3.039,0,0,0,15.2-3.456a7.841,7.841,0,0,0,1-4.346V-8.846a4.413,4.413,0,0,1-1.509,1.6,3.689,3.689,0,0,1-1.948.542A4.788,4.788,0,0,1,8.71-8.679a8.664,8.664,0,0,1-1.487-5.339A8.648,8.648,0,0,1,8.9-19.46a5.066,5.066,0,0,1,4.153-2.175A5.4,5.4,0,0,1,17.5-19.526a9.579,9.579,0,0,1,1.677,6.079v5.566A8.986,8.986,0,0,1,17.33-1.838,5.99,5.99,0,0,1,12.57.308a8.571,8.571,0,0,1-1.9-.227A8.17,8.17,0,0,1,8.82-.571l.4-2.168a6.131,6.131,0,0,0,1.575.608A7.976,7.976,0,0,0,12.57-1.948Zm.483-7.017a2.97,2.97,0,0,0,1.941-.652A4.072,4.072,0,0,0,16.2-11.294V-13.77a8.55,8.55,0,0,0-.82-4.182A2.529,2.529,0,0,0,13.1-19.38a2.406,2.406,0,0,0-2.073,1.538,7.926,7.926,0,0,0-.828,3.794,7.776,7.776,0,0,0,.754,3.669A2.315,2.315,0,0,0,13.053-8.965Zm19.733.718A10.762,10.762,0,0,1,31.2-1.9a5.042,5.042,0,0,1-4.314,2.2A5.088,5.088,0,0,1,22.539-1.9a10.693,10.693,0,0,1-1.6-6.343v-4.819a10.771,10.771,0,0,1,1.6-6.343,5.046,5.046,0,0,1,4.321-2.227,5.065,5.065,0,0,1,4.329,2.227,10.734,10.734,0,0,1,1.6,6.343Zm-2.959-5.264a9.818,9.818,0,0,0-.769-4.387,2.4,2.4,0,0,0-2.2-1.482,2.369,2.369,0,0,0-2.19,1.489,9.992,9.992,0,0,0-.754,4.38v5.664a9.917,9.917,0,0,0,.769,4.4,2.4,2.4,0,0,0,2.2,1.5,2.374,2.374,0,0,0,2.183-1.489,9.993,9.993,0,0,0,.762-4.409Z" transform="translate(-4861 -6524.32)"></path><path id="Path_3307" data-name="Path 3307" class="cls-9" d="M17.338-7.885a5.3,5.3,0,0,0-1.246-3.631,10.237,10.237,0,0,0-4.361-2.492,17.651,17.651,0,0,1-6.854-3.53A7.429,7.429,0,0,1,2.492-23.3a7.766,7.766,0,0,1,2.653-6.062,9.851,9.851,0,0,1,6.821-2.371,9.293,9.293,0,0,1,6.993,2.739,8.851,8.851,0,0,1,2.567,6.606l-.043.129H17.295a6.789,6.789,0,0,0-1.407-4.452,4.841,4.841,0,0,0-3.964-1.714A4.853,4.853,0,0,0,8.175-27a5.153,5.153,0,0,0-1.321,3.642,4.482,4.482,0,0,0,1.418,3.362,12.842,12.842,0,0,0,4.684,2.481,15.223,15.223,0,0,1,6.51,3.635A8.2,8.2,0,0,1,21.7-7.916a7.621,7.621,0,0,1-2.643,6.109A10.311,10.311,0,0,1,12.117.451,11.42,11.42,0,0,1,4.8-2.03,8.15,8.15,0,0,1,1.783-9.023l.043-.129H6.016A6.136,6.136,0,0,0,7.7-4.4a6.288,6.288,0,0,0,4.415,1.542,5.23,5.23,0,0,0,3.835-1.364A4.907,4.907,0,0,0,17.338-7.885Zm9.405,10.57H23.327L33.682-31.281H37.1Z" transform="translate(-4988 -6510.32)"></path><line id="Line_39" data-name="Line 39" class="cls-11" y2="91" transform="translate(-4814.5 -6555.5)"></line></g></svg>