<svg xmlns="http://www.w3.org/2000/svg" xmlns:xlink="http://www.w3.org/1999/xlink" id="Capa_1" x="0px" y="0px" viewBox="0 0 1366 610.44" style="enable-background:new 0 0 1366 610.44;" xml:space="preserve">
<style type="text/css">
	.st0{fill:#E20000;}
</style>
<path class="st0" d="M1324.57,266.81c10.83,3.54,19.63,9.68,28.42,16.61c-4.7-22.79-19.98-37.72-38.91-38.02  c-16.56-0.26-35.69,13.66-39.03,28.46c5-2.79,22.84-10.19,31.68-9.3c-2.47,9.81-4.77,20.42-7.37,28.44  c-18.64,57.52-57.22,97.88-109.92,125.37c-76.75,40.03-158.07,44.83-241.72,29.78c-35.43-6.38-69.89-16.22-103.34-29.63l-2.26,2.37  c16.1,14.81,31.39,30.65,48.45,44.26c73.28,58.49,155.1,88.64,250.05,71.78c74.8-13.28,129.27-53.37,159.72-123.9  c18.53-42.92,24.93-88.15,24.24-134.6C1324.53,275.5,1324.57,272.57,1324.57,266.81z M64.39,223.5h22.77  c3.95,4.73,7.91,10.01,11.87,15.82c3.95,5.82,7.96,11.97,12.02,18.48s8.01,13.21,11.87,20.11c3.86,6.9,7.67,13.7,11.43,20.4h51.56  c-3.55-7.49-7.39-15.12-11.53-22.91c-4.14-7.78-8.43-15.27-12.86-22.47c-4.44-7.2-8.92-14.09-13.45-20.7  c-4.54-6.6-8.87-12.46-13.01-17.59c12.42-5.13,21.93-12.17,28.53-21.14c6.6-8.97,9.91-20.65,9.91-35.03c0-23.06-8.18-40.06-24.54-51  c-16.36-10.94-39.92-16.41-70.66-16.41c-8.48,0-18.09,0.4-28.83,1.18c-10.75,0.79-21.14,2.17-31.19,4.14V298.3h46.12V223.5z   M64.39,131.25c2.37-0.19,4.88-0.39,7.54-0.59c2.66-0.19,5.66-0.3,9.02-0.3c14.78,0,25.97,2.12,33.56,6.36  c7.59,4.24,11.38,11.38,11.38,21.44c0,10.45-3.75,17.84-11.24,22.17c-7.49,4.34-19.91,6.5-37.25,6.5H64.39V131.25z M994.69,178.26  c2.76-0.39,5.91-0.74,9.46-1.03c3.55-0.3,6.9-0.44,10.05-0.44c10.25,0,17.24,2.96,20.99,8.87c3.74,5.91,5.62,15.97,5.62,30.16v82.49  h44.06v-87.81c0-10.64-1.09-20.3-3.25-28.98c-2.17-8.67-5.82-16.16-10.94-22.47c-5.13-6.31-12.07-11.19-20.84-14.63  c-8.77-3.45-19.76-5.17-32.97-5.17c-13.01,0-25.43,0.94-37.25,2.81c-11.83,1.88-21.49,3.89-28.98,6.06v150.2h44.06V178.26z   M212.17,279.82c6.7,7.2,14.73,12.77,24.1,16.7c9.36,3.94,19.76,5.91,31.19,5.91c11.63,0,22.12-1.97,31.49-5.91  c9.36-3.94,17.39-9.51,24.1-16.7c6.7-7.19,11.83-15.86,15.37-26.02c3.55-10.15,5.32-21.33,5.32-33.56c0-12.22-1.88-23.36-5.62-33.41  c-3.75-10.05-8.97-18.63-15.67-25.72c-6.7-7.1-14.74-12.61-24.1-16.56c-9.36-3.94-19.66-5.91-30.9-5.91  c-11.04,0-21.24,1.97-30.6,5.91c-9.36,3.95-17.45,9.46-24.25,16.56c-6.8,7.1-12.12,15.67-15.97,25.72  c-3.84,10.05-5.77,21.19-5.77,33.41c0,12.22,1.87,23.41,5.62,33.56C200.24,263.96,205.47,272.63,212.17,279.82z M244.1,188.17  c5.52-7.79,13.3-11.68,23.36-11.68c10.05,0,17.78,3.89,23.21,11.68c5.42,7.79,8.13,18.48,8.13,32.08c0,13.6-2.71,24.39-8.13,32.37  c-5.42,7.98-13.16,11.97-23.21,11.97c-10.05,0-17.84-3.99-23.36-11.97c-5.52-7.98-8.28-18.77-8.28-32.37  C235.83,206.65,238.58,195.96,244.1,188.17z M532.77,116.91c5.22,4.63,11.38,6.95,18.48,6.95c7.1,0,13.25-2.32,18.48-6.95  c5.22-4.63,7.84-10.99,7.84-19.07c0-8.08-2.62-14.44-7.84-19.07c-5.22-4.63-11.38-6.95-18.48-6.95c-7.1,0-13.26,2.32-18.48,6.95  c-5.22,4.63-7.83,10.99-7.83,19.07C524.93,105.92,527.54,112.28,532.77,116.91z M1129.16,283.37c4.73,5.81,11.04,10.35,18.92,13.6  c7.88,3.25,17.84,4.88,29.86,4.88c9.46,0,17.44-0.79,23.95-2.37c6.5-1.58,12.42-3.45,17.74-5.62l-6.21-34.3  c-4.14,1.58-8.72,2.81-13.75,3.7c-5.03,0.89-9.9,1.33-14.63,1.33c-9.86,0-16.41-2.76-19.66-8.28c-3.25-5.52-4.88-12.91-4.88-22.18  v-54.7h52.93v-36.66h-52.93V96.95l-44.05,7.1v130.69c0,10.05,0.93,19.22,2.81,27.5C1121.13,270.51,1124.43,277.56,1129.16,283.37z   M529.37,298.3h44.06V142.78h-44.06V298.3z M512.87,142.78h-45.56c-1.98,7.69-4.31,16.02-6.98,24.98  c-2.67,8.97-5.44,18.04-8.31,27.2c-2.87,9.16-5.79,18.09-8.75,26.76c-2.97,8.68-5.74,16.56-8.31,23.65  c-2.77-7.1-5.59-14.98-8.47-23.65c-2.87-8.67-5.74-17.59-8.61-26.76c-2.87-9.17-5.65-18.23-8.32-27.2c-2.67-8.97-5-17.3-6.98-24.98  h-46.72c9.29,31.15,19.14,59.92,29.52,86.34c10.39,26.42,20.63,49.48,30.72,69.19h36.56c10.08-19.71,20.31-42.77,30.69-69.19  C493.74,202.7,503.57,173.93,512.87,142.78z M872.76,301.55c5.52-0.59,10.69-1.33,15.52-2.22c4.83-0.89,9.21-1.92,13.16-3.1  c3.94-1.18,7.1-2.37,9.46-3.55l-5.91-35.77c-4.93,2.17-11.29,3.99-19.07,5.47c-7.79,1.48-15.72,2.22-23.8,2.22  c-12.62,0-22.67-2.66-30.16-7.98c-7.49-5.32-11.73-12.52-12.71-21.58h99.94c0.19-2.37,0.39-5.07,0.59-8.13  c0.19-3.06,0.3-5.86,0.3-8.43c0-26.21-6.41-46.07-19.22-59.58c-12.81-13.5-30.26-20.25-52.33-20.25c-9.46,0-18.68,1.77-27.65,5.32  c-8.97,3.55-16.9,8.77-23.8,15.67c-6.9,6.9-12.47,15.52-16.7,25.87c-4.24,10.35-6.36,22.42-6.36,36.22  c0,11.43,1.63,22.08,4.88,31.93c3.25,9.86,8.28,18.39,15.08,25.58c6.8,7.2,15.37,12.86,25.72,17c10.35,4.14,22.52,6.21,36.52,6.21  C861.72,302.44,867.24,302.15,872.76,301.55z M822.05,193.78c1.28-3.64,3.1-6.85,5.47-9.61c2.37-2.76,5.32-4.98,8.87-6.65  c3.55-1.67,7.78-2.51,12.71-2.51c5.12,0,9.41,0.89,12.86,2.66c3.45,1.77,6.31,4.04,8.57,6.8c2.26,2.76,3.94,5.91,5.03,9.46  c1.08,3.55,1.72,7.2,1.92,10.94h-58.25C819.83,201.13,820.77,197.43,822.05,193.78z M699.38,146.33c-4.93-2.17-9.81-3.84-14.64-5.03  c-4.83-1.18-10.3-1.77-16.41-1.77c-11.04,0-20.84,1.88-29.42,5.62c-8.57,3.74-15.82,9.16-21.73,16.26  c-5.91,7.1-10.45,15.72-13.6,25.87c-3.16,10.15-4.73,21.54-4.73,34.15c0,12.42,1.82,23.61,5.47,33.56  c3.64,9.95,8.92,18.43,15.82,25.43c6.9,7,15.37,12.37,25.43,16.11c10.05,3.74,21.48,5.62,34.3,5.62c5.32,0,10.89-0.25,16.7-0.74  c5.81-0.49,11.53-1.14,17.15-1.92c5.62-0.79,10.98-1.73,16.11-2.81c5.12-1.08,9.65-2.22,13.6-3.4V68.86l-44.05,7.1V146.33z   M699.38,263.12c-2.17,0.4-4.93,0.74-8.28,1.03c-3.35,0.3-7,0.44-10.94,0.44c-12.02,0-21.09-4.14-27.2-12.42  c-6.11-8.28-9.17-19.22-9.17-32.82c0-28.38,10.44-42.58,31.34-42.58c4.53,0,9.02,0.59,13.45,1.77c4.44,1.18,8.03,2.66,10.79,4.43  V263.12z M576.75,404.54h8.99v-38.39h-8.99V404.54z M653.96,365.72c-3.16,0-6.16,0.41-8.99,1.22c-2.83,0.81-5.25,1.99-7.26,3.52  l3.52,6.54c1.44-1.2,3.2-2.13,5.28-2.8c2.09-0.67,4.21-1.01,6.36-1.01c3.16,0,5.55,0.72,7.15,2.16c1.61,1.44,2.41,3.5,2.41,6.18  v0.58h-9.92c-5.51,0-9.55,1.04-12.11,3.13c-2.56,2.08-3.85,4.85-3.85,8.3c0,2.2,0.59,4.18,1.76,5.93c1.17,1.75,2.84,3.12,5,4.1  c2.16,0.98,4.67,1.47,7.55,1.47c2.88,0,5.33-0.44,7.37-1.33c2.04-0.89,3.61-2.17,4.71-3.85v4.67h8.48v-22.5  c0-5.46-1.5-9.55-4.49-12.26C663.94,367.07,659.61,365.72,653.96,365.72z M662.44,392.53c-0.72,1.92-1.95,3.39-3.7,4.42  c-1.75,1.03-3.75,1.55-6,1.55c-2.3,0-4.1-0.48-5.39-1.44c-1.29-0.96-1.94-2.25-1.94-3.88c0-3.4,2.59-5.1,7.76-5.1h9.27V392.53z   M556.41,371.25c-1.53-1.87-3.44-3.26-5.71-4.17c-2.28-0.91-4.81-1.37-7.58-1.37c-3.64,0-6.94,0.77-9.89,2.3  c-2.95,1.53-5.27,3.7-6.97,6.51c-1.7,2.8-2.55,6.03-2.55,9.67c0,3.64,0.85,6.88,2.55,9.71c1.7,2.83,4.03,5.02,6.97,6.58  c2.95,1.56,6.24,2.34,9.89,2.34c2.63,0,5.06-0.43,7.26-1.29c2.2-0.86,4.07-2.13,5.61-3.81v2.01c0,3.93-0.98,6.85-2.95,8.77  c-1.97,1.92-5.06,2.88-9.27,2.88c-2.64,0-5.24-0.42-7.8-1.26c-2.56-0.84-4.68-1.95-6.36-3.34l-4.03,6.76  c2.16,1.77,4.89,3.13,8.2,4.06c3.31,0.93,6.8,1.4,10.5,1.4c13.8,0,20.7-6.76,20.7-20.27v-32.57h-8.55V371.25z M552.85,392.14  c-2.18,2.04-4.97,3.05-8.37,3.05c-3.45,0-6.27-1.02-8.45-3.05c-2.18-2.04-3.27-4.68-3.27-7.94c0-3.21,1.09-5.82,3.27-7.84  c2.18-2.01,5-3.02,8.45-3.02c3.4,0,6.19,1.01,8.37,3.02c2.18,2.01,3.27,4.63,3.27,7.84C556.12,387.45,555.03,390.1,552.85,392.14z   M356.7,365.72c-2.83,0-5.37,0.46-7.62,1.37c-2.25,0.91-4.12,2.25-5.61,4.03v-4.96h-8.55v38.39h8.99v-19.41  c0-3.74,0.96-6.6,2.88-8.59c1.92-1.99,4.53-2.98,7.84-2.98c2.92,0,5.18,0.85,6.76,2.55c1.58,1.7,2.37,4.23,2.37,7.58v20.85h8.99v-22  c0-5.56-1.46-9.75-4.39-12.58C365.43,367.13,361.54,365.72,356.7,365.72z M615.07,373.34c1.96,0,3.77,0.44,5.43,1.33  c1.65,0.89,3.03,2.22,4.13,3.99l6.9-4.03c-1.44-2.88-3.58-5.08-6.43-6.61c-2.85-1.53-6.17-2.3-9.96-2.3  c-4.03,0-7.61,0.84-10.75,2.52c-3.14,1.68-5.6,4-7.37,6.97c-1.77,2.97-2.66,6.35-2.66,10.14c0,3.79,0.89,7.18,2.66,10.17  c1.77,3,4.24,5.33,7.4,7.01c3.16,1.68,6.73,2.52,10.71,2.52c3.74,0,7.03-0.78,9.88-2.34c2.85-1.56,5.02-3.77,6.51-6.65l-6.9-4.03  c-1.1,1.77-2.48,3.1-4.13,3.99c-1.65,0.89-3.46,1.33-5.43,1.33c-3.4,0-6.19-1.09-8.37-3.27c-2.18-2.18-3.27-5.09-3.27-8.73  c0-3.64,1.1-6.55,3.31-8.73C608.93,374.43,611.71,373.34,615.07,373.34z M581.28,349.04c-1.63,0-3,0.52-4.1,1.55  c-1.1,1.03-1.65,2.31-1.65,3.85s0.55,2.82,1.65,3.85c1.1,1.03,2.47,1.55,4.1,1.55c1.68,0,3.05-0.54,4.13-1.62  c1.08-1.08,1.62-2.41,1.62-3.99c0-1.49-0.55-2.72-1.65-3.7C584.27,349.53,582.91,349.04,581.28,349.04z M52.37,381.89  c1.84-2.73,2.77-5.99,2.77-9.78c0-3.69-0.86-6.88-2.59-9.56c-1.73-2.68-4.21-4.75-7.44-6.18s-7.03-2.16-11.39-2.16h-20.7v50.32h9.35  v-14.67h11.36c0.86,0,1.51-0.02,1.94-0.07l10.28,14.74H56L44.43,388C47.88,386.66,50.52,384.62,52.37,381.89z M42.56,379.56  c-2.11,1.75-5.2,2.62-9.27,2.62H22.36v-20.06h10.93c4.07,0,7.16,0.86,9.27,2.59c2.11,1.73,3.16,4.19,3.16,7.41  S44.66,377.81,42.56,379.56z M508.32,368.23c-3.12-1.68-6.64-2.52-10.57-2.52c-3.88,0-7.38,0.84-10.5,2.52  c-3.12,1.68-5.55,4-7.3,6.97c-1.75,2.97-2.62,6.35-2.62,10.14c0,3.79,0.87,7.18,2.62,10.17c1.75,3,4.18,5.33,7.3,7.01  c3.11,1.68,6.61,2.52,10.5,2.52c3.93,0,7.45-0.84,10.57-2.52c3.11-1.68,5.55-4.01,7.3-7.01c1.75-2.99,2.62-6.39,2.62-10.17  c0-3.79-0.88-7.16-2.62-10.14C513.86,372.23,511.43,369.91,508.32,368.23z M505.94,394.04c-2.16,2.21-4.89,3.31-8.2,3.31  c-3.31,0-6.03-1.1-8.16-3.31c-2.13-2.2-3.2-5.1-3.2-8.7c0-3.59,1.07-6.49,3.2-8.7c2.13-2.2,4.85-3.31,8.16-3.31  c3.31,0,6.04,1.1,8.2,3.31c2.16,2.2,3.23,5.1,3.23,8.7C509.18,388.94,508.1,391.84,505.94,394.04z M267.78,370.89  c-1.49-1.73-3.28-3.02-5.39-3.88c-2.11-0.86-4.43-1.29-6.97-1.29c-3.69,0-7.01,0.82-9.96,2.44c-2.95,1.63-5.26,3.93-6.94,6.9  c-1.68,2.97-2.52,6.4-2.52,10.28c0,3.88,0.84,7.32,2.52,10.32c1.68,3,3.99,5.31,6.94,6.94c2.95,1.63,6.27,2.44,9.96,2.44  c2.63,0,5.04-0.46,7.22-1.37c2.18-0.91,4.01-2.28,5.5-4.1v4.96h8.63V351.2h-8.99V370.89z M266.41,391.67  c-1.01,1.82-2.37,3.22-4.1,4.21c-1.73,0.98-3.67,1.47-5.82,1.47c-2.16,0-4.1-0.49-5.82-1.47c-1.73-0.98-3.09-2.38-4.1-4.21  c-1.01-1.82-1.51-3.93-1.51-6.33c0-2.4,0.5-4.5,1.51-6.33c1.01-1.82,2.37-3.22,4.1-4.21c1.73-0.98,3.67-1.47,5.82-1.47  c2.16,0,4.1,0.49,5.82,1.47c1.72,0.98,3.09,2.38,4.1,4.21c1.01,1.82,1.51,3.93,1.51,6.33C267.92,387.74,267.42,389.85,266.41,391.67  z M399.69,397.64c-1.73,0-3.04-0.49-3.95-1.47c-0.91-0.98-1.37-2.41-1.37-4.28v-18.26h10.28v-7.19h-10.28v-8.77h-8.99v8.77h-6.33  v7.19h6.33v18.48c0,4.22,1.15,7.43,3.45,9.63c2.3,2.2,5.56,3.31,9.78,3.31c1.68,0,3.27-0.22,4.78-0.65  c1.51-0.43,2.79-1.08,3.85-1.94l-2.52-6.4C403.38,397.11,401.71,397.64,399.69,397.64z M316.38,368.23  c-3.12-1.68-6.64-2.52-10.57-2.52c-3.88,0-7.38,0.84-10.5,2.52c-3.12,1.68-5.55,4-7.3,6.97c-1.75,2.97-2.62,6.35-2.62,10.14  c0,3.79,0.87,7.18,2.62,10.17c1.75,3,4.18,5.33,7.3,7.01c3.11,1.68,6.61,2.52,10.5,2.52c3.93,0,7.45-0.84,10.57-2.52  c3.11-1.68,5.55-4.01,7.3-7.01c1.75-2.99,2.62-6.39,2.62-10.17c0-3.79-0.88-7.16-2.62-10.14  C321.92,372.23,319.49,369.91,316.38,368.23z M314,394.04c-2.16,2.21-4.89,3.31-8.2,3.31c-3.31,0-6.03-1.1-8.16-3.31  c-2.13-2.2-3.2-5.1-3.2-8.7c0-3.59,1.07-6.49,3.2-8.7c2.13-2.2,4.85-3.31,8.16-3.31c3.31,0,6.04,1.1,8.2,3.31  c2.16,2.2,3.23,5.1,3.23,8.7C317.24,388.94,316.16,391.84,314,394.04z M441.17,368.23c-3.12-1.68-6.64-2.52-10.57-2.52  c-3.88,0-7.38,0.84-10.5,2.52c-3.12,1.68-5.55,4-7.3,6.97c-1.75,2.97-2.62,6.35-2.62,10.14c0,3.79,0.87,7.18,2.62,10.17  c1.75,3,4.18,5.33,7.3,7.01c3.11,1.68,6.61,2.52,10.5,2.52c3.93,0,7.45-0.84,10.57-2.52c3.11-1.68,5.55-4.01,7.3-7.01  c1.75-2.99,2.62-6.39,2.62-10.17c0-3.79-0.88-7.16-2.62-10.14C446.72,372.23,444.29,369.91,441.17,368.23z M438.8,394.04  c-2.16,2.21-4.89,3.31-8.2,3.31c-3.31,0-6.03-1.1-8.16-3.31c-2.13-2.2-3.2-5.1-3.2-8.7c0-3.59,1.07-6.49,3.2-8.7  c2.13-2.2,4.85-3.31,8.16-3.31c3.31,0,6.04,1.1,8.2,3.31c2.16,2.2,3.23,5.1,3.23,8.7C442.04,388.94,440.96,391.84,438.8,394.04z   M91.4,368.2c-2.95-1.65-6.29-2.48-10.03-2.48c-3.79,0-7.19,0.84-10.21,2.52c-3.02,1.68-5.38,4.01-7.08,7.01  c-1.7,3-2.55,6.36-2.55,10.1c0,3.79,0.87,7.18,2.62,10.17c1.75,3,4.23,5.33,7.44,7.01c3.21,1.68,6.92,2.52,11.14,2.52  c3.31,0,6.28-0.53,8.91-1.58c2.63-1.05,4.82-2.61,6.54-4.67l-4.82-5.54c-2.73,2.78-6.21,4.17-10.42,4.17c-3.31,0-6.07-0.83-8.3-2.48  c-2.23-1.65-3.61-3.89-4.13-6.72h30.12c0.1-1.15,0.14-2.04,0.14-2.66c0-3.93-0.83-7.39-2.48-10.39  C96.65,372.18,94.35,369.85,91.4,368.2z M70.45,382.25c0.43-2.83,1.64-5.09,3.63-6.79c1.99-1.7,4.42-2.55,7.3-2.55  c2.92,0,5.37,0.86,7.33,2.59c1.96,1.73,3.14,3.98,3.52,6.76H70.45z M459.72,404.54h8.99V351.2h-8.99V404.54z M138.02,370.89  c-1.49-1.73-3.28-3.02-5.39-3.88c-2.11-0.86-4.43-1.29-6.97-1.29c-3.69,0-7.01,0.82-9.96,2.44c-2.95,1.63-5.26,3.93-6.94,6.9  c-1.68,2.97-2.52,6.4-2.52,10.28c0,3.88,0.84,7.32,2.52,10.32c1.68,3,3.99,5.31,6.94,6.94c2.95,1.63,6.27,2.44,9.96,2.44  c2.63,0,5.04-0.46,7.22-1.37c2.18-0.91,4.01-2.28,5.5-4.1v4.96h8.63V351.2h-8.99V370.89z M136.66,391.67  c-1.01,1.82-2.37,3.22-4.1,4.21c-1.73,0.98-3.67,1.47-5.82,1.47c-2.16,0-4.1-0.49-5.82-1.47c-1.73-0.98-3.09-2.38-4.1-4.21  c-1.01-1.82-1.51-3.93-1.51-6.33c0-2.4,0.5-4.5,1.51-6.33c1.01-1.82,2.37-3.22,4.1-4.21c1.73-0.98,3.67-1.47,5.82-1.47  c2.16,0,4.1,0.49,5.82,1.47c1.72,0.98,3.09,2.38,4.1,4.21c1.01,1.82,1.51,3.93,1.51,6.33C138.17,387.74,137.66,389.85,136.66,391.67  z M216.88,356.84c-4.12-2.23-8.75-3.34-13.87-3.34c-5.13,0-9.75,1.11-13.87,3.34c-4.12,2.23-7.36,5.32-9.71,9.27  c-2.35,3.95-3.52,8.37-3.52,13.26s1.17,9.31,3.52,13.26c2.35,3.95,5.58,7.05,9.71,9.27c4.12,2.23,8.75,3.34,13.87,3.34  c5.13,0,9.75-1.11,13.87-3.34c4.12-2.23,7.36-5.31,9.7-9.24c2.35-3.93,3.52-8.36,3.52-13.3c0-4.94-1.17-9.37-3.52-13.3  C224.24,362.15,221,359.07,216.88,356.84z M218.39,388.47c-1.53,2.71-3.64,4.82-6.33,6.33c-2.68,1.51-5.7,2.26-9.06,2.26  c-3.36,0-6.37-0.75-9.06-2.26c-2.69-1.51-4.79-3.62-6.33-6.33c-1.53-2.71-2.3-5.74-2.3-9.09c0-3.35,0.77-6.39,2.3-9.09  s3.64-4.82,6.33-6.33c2.68-1.51,5.7-2.26,9.06-2.26c3.35,0,6.37,0.75,9.06,2.26c2.68,1.51,4.79,3.62,6.33,6.33  c1.53,2.71,2.3,5.74,2.3,9.09C220.69,382.73,219.93,385.76,218.39,388.47z"></path>
</svg>