<svg xmlns="http://www.w3.org/2000/svg" xmlns:xlink="http://www.w3.org/1999/xlink" viewBox="0 0 395 395"><defs><style>
      .cls-1 {
        fill: #4d4d4d;
      }

      .cls-2 {
        clip-path: url(#clip-path);
      }

      .cls-3 {
        fill: #b5e9f6;
      }

      .cls-4 {
        fill: #2a2b35;
      }

      .cls-5 {
        fill: #bf3943;
      }

      .cls-6 {
        fill: #e5b185;
      }

      .cls-7 {
        fill: #da916a;
      }

      .cls-8 {
        fill: #fff;
      }
    </style><clipPath id="clip-path"><rect id="Rectangle_235" data-name="Rectangle 235" class="cls-1" width="395" height="395" transform="translate(-2596 -4699)"></rect></clipPath></defs><g id="Mask_Group_24" data-name="Mask Group 24" class="cls-2" transform="translate(2596 4699)"><g id="Group_1239" data-name="Group 1239" transform="translate(-2537 -4683.903)"><ellipse id="Ellipse_119" data-name="Ellipse 119" class="cls-3" cx="138.597" cy="138.597" rx="138.597" ry="138.597" transform="translate(0 42.481)"></ellipse><g id="Group_1235" data-name="Group 1235" transform="translate(89.416 0)"><path id="Path_641" data-name="Path 641" class="cls-4" d="M78.945,190.429H60.525a12.431,12.431,0,0,1-12.4-12.4V92.305a12.431,12.431,0,0,1,12.4-12.4H92.452a17.869,17.869,0,0,1,17.816,17.816v61.381A31.414,31.414,0,0,1,78.945,190.429Z" transform="translate(-9.366 -12.402)"></path><g id="Group_187" data-name="Group 187" transform="translate(0 324.13)"><path id="Path_642" data-name="Path 642" class="cls-5" d="M45.772,411.932c-1.683,6.323-12.315,8.433-15.939,9.19s-8.014,4.47-10.712,6.411-9.029,3.793-14.256,2.618a6.283,6.283,0,0,1-4.526-4.68c-.1-.306-.169-.6-.234-.886a4.355,4.355,0,0,1,.234-2.626v-.008a4.393,4.393,0,0,1,1.1-1.563c2.755-2.481,8.207-7.273,10.253-8.207,2.787-1.264,8.69-7.6,9.367-10.543a3.181,3.181,0,0,1,3.173-2.787,55.262,55.262,0,0,0,8.473,1.023c6.467.225,8.481-1.345,8.481-1.345a61.54,61.54,0,0,0,3.415,7.651,11.718,11.718,0,0,1,.822,1.836A6.427,6.427,0,0,1,45.772,411.932Z" transform="translate(0 -398.53)"></path><path id="Path_643" data-name="Path 643" class="cls-4" d="M45.854,414.226c-1.683,6.323-12.315,8.433-15.939,9.19s-8.014,4.47-10.712,6.411-9.029,3.794-14.256,2.618a6.283,6.283,0,0,1-4.526-4.68c3.995,6.2,11.944,2.827,16.076.8s8.441-6.242,12.146-7.088a38.583,38.583,0,0,0,11.727-4.212A11.655,11.655,0,0,0,45.5,410.32,6.376,6.376,0,0,1,45.854,414.226Z" transform="translate(-0.082 -400.824)"></path></g><path id="Path_644" data-name="Path 644" class="cls-4" d="M25.347,227.29s-5.662,32.466-3.89,40.311,1.82,17.8,1.5,25.556-1.2,13.5,0,17.043,1.031,16.366,2.545,21.593-1.353,8.771,0,12.484,3.375,6.749,2.7,7.764-4.051,2.7-2.191,7.257,2.328,6.242,2.328,6.242,6.4,4.172,16.906,0a27.073,27.073,0,0,1,1.852-6.749c1.353-2.867.338-6.411-.846-13.837a116.44,116.44,0,0,1-1.522-21.086,89.513,89.513,0,0,1,1.1-11.848,47.536,47.536,0,0,0,1.909-11.429c.2-6.073.709-7.426,1.885-10.462s1.683-3.036,2.36-7.764,1.184-10.293,2.529-10.632,2.867.677,5.227,8.94,3.64,24.122,5.275,27.835.652,7.925,2.07,11.469,2.6,5.227,2.263,6.58.113,12.653.056,17.711.4,7.925.008,13.668,2.126,7.233,2.126,8.344-3.713,7.176-.846,11.9c0,0,3.375,4.559,3.882,6.58,0,0,10.124,2.529,12.146-2.7,0,0,.507-6.242,2.191-10.293s2.529-5.735,2.36-10.293.379-10.962.024-25.814-2.553-20.748-2.891-24.8a70.083,70.083,0,0,0-1.184-7.257c-.169-1.522,1.015-.507,1.522-4.22s-.507-9.448,1.015-13.837,1.474-9.278,1.667-11.469,2.384-5.9,2.384-12.315-2.022-4.051,0-11.469-1.039-20.748-1.039-20.748C68.179,236.641,46.006,233.919,25.347,227.29Z" transform="translate(-4.109 -41.08)"></path><g id="Group_188" data-name="Group 188" transform="translate(66.548 337.161)"><path id="Path_645" data-name="Path 645" class="cls-5" d="M104.029,437.6c-.507,5.654-2.956,10.712-6.749,12.315s-9.15.677-11.574-1.772-3.351-7.925-3.012-11.469c.242-2.529,1.208-3.206,1.595-5.71.032-.242.048-.378.048-.378a20.857,20.857,0,0,0,.04-3.777c-.064-.91-.129-1.732-.2-2.473v-.008c-.435-4.454-.942-5.984.266-7.144a11.786,11.786,0,0,1,1.265,2.086,8.276,8.276,0,0,1,7.192-3.222c4.9.121,5.694,2.521,5.743,2.666v.008s.443-3.2.572-4.011a6.2,6.2,0,0,1,2.585,4.559c.25,3.109-.419,4.543-.169,5.171.016.04.048.113.081.209.209.54.693,1.877,1.184,3.632v.024c.056.2.1.395.161.6v.008A27.067,27.067,0,0,1,104.029,437.6Z" transform="translate(-82.626 -414.71)"></path><path id="Path_646" data-name="Path 646" class="cls-4" d="M104.029,441.034c-.507,5.654-2.956,10.712-6.749,12.315s-9.15.677-11.574-1.772-3.351-7.925-3.012-11.469c.242-2.529,1.208-3.206,1.595-5.71-.193,1.482-.854,6.959-.419,9.423.507,2.867,2.094,7.869,5.324,8.248l1.546-1.136,2.312.064,1.49,1.425s6.2-.749,7.974-8.763c1.361-6.161.854-9.9.548-11.3A27.22,27.22,0,0,1,104.029,441.034Z" transform="translate(-82.626 -418.144)"></path></g><path id="Path_647" data-name="Path 647" class="cls-6" d="M25.59,143.189l-5.179,18.766s-5.928,7.128-14.731,1.732h0q-.713-.435-1.45-.991s3.028-14.626,6.886-23.059a24.279,24.279,0,0,1,1.82-3.367C14.443,139.4,19.557,141.433,25.59,143.189Z" transform="translate(-0.823 -23.369)"></path><path id="Path_648" data-name="Path 648" class="cls-7" d="M25.94,143.189l-5.179,18.766s-5.928,7.128-14.731,1.732c7.764-1.611,11.719-16.237,9.955-19.314-1.321-2.287-3.423-3.487-4.526-4.736a24.279,24.279,0,0,1,1.82-3.367C14.793,139.4,19.907,141.433,25.94,143.189Z" transform="translate(-1.174 -23.369)"></path><path id="Path_649" data-name="Path 649" class="cls-5" d="M114.558,132.62c-3.165,8.98-22.9,8.98-22.9,8.98l-1.707-3.463-1.12-2.271s2.867,30.2,2.529,34.077,2.022,14.844,0,19.4,0,14.844,0,14.844c-2.191,3.206-20.578,12.653-40.827,12.146s-27.5-13.5-27.5-13.5.636-3.544,1.2-7.772c.354-2.666.693-5.606.822-8.086.338-6.411,2.7-6.411,3.882-10.285s-1.522-1.86-.169-12.653-1.691-30.7-1.691-30.7c-10.793.169-15.182-7.249-15.182-7.249l1.208-2.738L24.94,96.521a7.906,7.906,0,0,1,4.953-4.373l12.766-3.826,5-1.5L72.532,85.64s1.458.354,3.665.91c2.489.62,5.928,1.49,9.319,2.376h.008c5.775,1.5,11.421,3.044,11.96,3.463,1.136.886,3.206,2.7,6.073,8.98,2.126,4.655,3.922,13.41,3.922,13.41s2.1,5.131,3.165,7.716a41.139,41.139,0,0,0,2.658,5.823c.016.032.04.064.056.1A7.688,7.688,0,0,1,114.558,132.62Z" transform="translate(-2.316 -13.517)"></path><path id="Path_650" data-name="Path 650" class="cls-4" d="M133.415,142.956c-3.165,8.98-22.9,8.98-22.9,8.98l-1.707-3.463c2.005-.1,17.8-1.16,23.4-9.713A7.662,7.662,0,0,1,133.415,142.956Z" transform="translate(-21.173 -23.854)"></path><path id="Path_651" data-name="Path 651" class="cls-4" d="M27.082,139.924v2.513c-10.793.169-15.182-7.249-15.182-7.249l1.208-2.738C15.194,134.657,20.768,139.876,27.082,139.924Z" transform="translate(-2.316 -22.626)"></path><path id="Path_652" data-name="Path 652" class="cls-4" d="M84.063,86.54c-.113,1.844-4.816,11.083-15.279,12.887-9.238,1.587-17.784,1.6-16.229-11.719l2.98-.894L80.407,85.63S81.857,85.984,84.063,86.54Z" transform="translate(-10.191 -13.515)"></path><ellipse id="Ellipse_22" data-name="Ellipse 22" class="cls-4" cx="15.021" cy="15.021" rx="15.021" ry="15.021" transform="translate(47.608 17.37)"></ellipse><ellipse id="Ellipse_23" data-name="Ellipse 23" class="cls-4" cx="7.144" cy="7.144" rx="7.144" ry="7.144" transform="translate(60.639 45.536)"></ellipse><ellipse id="Ellipse_24" data-name="Ellipse 24" class="cls-4" cx="6.951" cy="6.951" rx="6.951" ry="6.951" transform="translate(28.374 20.318)"></ellipse><ellipse id="Ellipse_25" data-name="Ellipse 25" class="cls-4" cx="6.951" cy="6.951" rx="6.951" ry="6.951" transform="translate(30.895 29.355)"></ellipse><g id="Group_189" data-name="Group 189" transform="translate(33.935 15.711)"><path id="Path_653" data-name="Path 653" class="cls-6" d="M86.017,55.321c-2.457,7.917-6.822,6.548-6.822,6.548C77.834,74.965,81.1,79.33,81.1,79.33a25.775,25.775,0,0,1-20.74,9.794,24.52,24.52,0,0,1-3.27-.29,1.121,1.121,0,0,1-.926-1.265C57.231,79.467,52.6,71.6,52.6,71.6,78.406,67.95,77.278,49.32,77.278,49.32l1.909-1.361C83.56,45.229,88.473,47.411,86.017,55.321Z" transform="translate(-44.17 -21.678)"></path><path id="Path_654" data-name="Path 654" class="cls-6" d="M71.263,58.91c-6.306,7.112-15.8,8.972-21.5,7.651-.137-.032-.274-.064-.4-.1h0a9.089,9.089,0,0,1-2.247-.9,5.859,5.859,0,0,1-.572-.379,10.225,10.225,0,0,1-2.561-3.133c-2-3.512-2.014-7.241-1.7-11.236l.773-8.86v-.064l-.266-5.01-.5-9.367c.564-.459,1.128-.886,1.7-1.281,13.62-9.448,29.849-.9,29.849-.9S80.775,48.19,71.263,58.91Z" transform="translate(-42.134 -16.802)"></path><path id="Path_655" data-name="Path 655" class="cls-7" d="M51.429,77.31a.991.991,0,0,1-.4-.1h0a2.511,2.511,0,0,1-.346-.185Z" transform="translate(-43.797 -27.551)"></path><path id="Path_656" data-name="Path 656" class="cls-8" d="M62.971,59.86H47s-.33,7.466,7.99,7.466C62.971,67.326,62.971,59.86,62.971,59.86Z" transform="translate(-43.08 -24.212)"></path><path id="Path_657" data-name="Path 657" class="cls-4" d="M51.056,43.019a1.443,1.443,0,1,1-1.627-1.232A1.449,1.449,0,0,1,51.056,43.019Z" transform="translate(-43.311 -20.693)"></path><path id="Path_658" data-name="Path 658" class="cls-4" d="M70.046,42.589a1.443,1.443,0,1,1-1.627-1.232A1.449,1.449,0,0,1,70.046,42.589Z" transform="translate(-47.006 -20.609)"></path><path id="Path_659" data-name="Path 659" class="cls-4" d="M62.75,35.861l.081,2.207a8.873,8.873,0,0,1,5.751.217c2.867,1.208,3.061,1.788,3.061,1.788l.725-1.281S69.6,34.306,62.75,35.861Z" transform="translate(-46.145 -19.479)"></path><path id="Path_660" data-name="Path 660" class="cls-4" d="M75.54,24.142a9.19,9.19,0,0,0,5.1,7.313s.346,9.536-1.111,14.441h3.117l1.74-15.963S79.5,20.8,75.54,24.142Z" transform="translate(-48.634 -17.119)"></path><path id="Path_661" data-name="Path 661" class="cls-4" d="M72.543,23.533S59.2,20.988,55.75,22.72c-4.792,2.408-4.688-1.587-11.767,2.239a14.3,14.3,0,0,1-1.506,4.712L42.3,26.328l4.728-6.274,7.6-2.819,7.813-1.361,7.813-.274Z" transform="translate(-42.166 -15.6)"></path><path id="Path_662" data-name="Path 662" class="cls-7" d="M75.063,64.87S74.838,75.848,64.9,80.753a8.4,8.4,0,0,0-3.914,3.834,12.249,12.249,0,0,0-.628,8.046,24.609,24.609,0,0,1-3.318-.3,1.068,1.068,0,0,1-.878-1.208c1.087-8.119-3.56-16.02-3.56-16.02A21.808,21.808,0,0,0,75.063,64.87Z" transform="translate(-44.17 -25.187)"></path><path id="Path_663" data-name="Path 663" class="cls-7" d="M89.837,51.84s-5.171-.226-3.415,7.007C86.43,58.839,86.068,53.612,89.837,51.84Z" transform="translate(-50.681 -22.652)"></path><path id="Path_664" data-name="Path 664" class="cls-7" d="M86.71,57.275s.773-2.328,2.642-1.329c0,0-.379-1.273-2.336-.958Z" transform="translate(-50.808 -23.255)"></path><path id="Path_665" data-name="Path 665" class="cls-7" d="M57.323,52.126s-.064-2.086-3.479-2.086c-3.044,0-3.874,2.086-3.874,2.086Z" transform="translate(-43.659 -22.301)"></path><path id="Path_666" data-name="Path 666" class="cls-4" d="M43.86,39.463l.612,1.514a6.113,6.113,0,0,1,3.858-2.352,5.554,5.554,0,0,1,3.012.1l.04-2.07A6.345,6.345,0,0,0,43.86,39.463Z" transform="translate(-42.47 -19.634)"></path><path id="Path_667" data-name="Path 667" class="cls-7" d="M51.61,70.01s.475.612,4.011.781a14.332,14.332,0,0,0,5.718-.741S55.814,75.382,51.61,70.01Z" transform="translate(-43.978 -26.187)"></path></g><ellipse id="Ellipse_26" data-name="Ellipse 26" class="cls-4" cx="6.951" cy="6.951" rx="6.951" ry="6.951" transform="translate(44.346 3.815)"></ellipse><path id="Path_668" data-name="Path 668" class="cls-4" d="M80.8,11.011A6.951,6.951,0,1,1,73.851,4.06,6.952,6.952,0,0,1,80.8,11.011Z" transform="translate(-13.018 2.357)"></path><ellipse id="Ellipse_27" data-name="Ellipse 27" class="cls-4" cx="6.951" cy="6.951" rx="6.951" ry="6.951" transform="translate(59.995 12.723)"></ellipse><ellipse id="Ellipse_28" data-name="Ellipse 28" class="cls-4" cx="10.221" cy="10.221" rx="10.221" ry="10.221" transform="translate(25.71 7.87) rotate(-22.644)"></ellipse><path id="Path_669" data-name="Path 669" class="cls-4" d="M53.792,23.7a6.951,6.951,0,1,1-6.951-6.951A6.952,6.952,0,0,1,53.792,23.7Z" transform="translate(-7.762 -0.112)"></path><ellipse id="Ellipse_29" data-name="Ellipse 29" class="cls-4" cx="4.905" cy="4.905" rx="4.905" ry="4.905" transform="translate(41.527 16.525)"></ellipse><path id="Path_670" data-name="Path 670" class="cls-4" d="M89.666,86.314A57.243,57.243,0,0,0,84.4,119.247c2.924,22.141,19.934,33.505,19.934,33.505s4.663-7.273-1.49-16.97c0,0-8.312-8.94-9.448-21.464s7.064-25.234,7.064-25.234S97.7,82.713,89.666,86.314Z" transform="translate(-16.325 -13.434)"></path><path id="Path_671" data-name="Path 671" class="cls-4" d="M50.079,87.062s-8.642-1.514-16.229,6.331c-6.556,6.782-16.157,30.34-2.827,53.4l-.588-13.169a67.877,67.877,0,0,1,2.658-25.177c3.987-13.692,17.566-18.275,17.566-18.275A28.573,28.573,0,0,0,50.079,87.062Z" transform="translate(-4.734 -13.771)"></path><path id="Path_672" data-name="Path 672" class="cls-6" d="M139.141,172.19c-1.9,5.187-1.9,8.223-5.058,8.731s-4.937-2.022-8.481-2.658c-2.738-.491-7.418-4.148-14.618-9.617-.443-.338-2.481-1.546-3.882-2.368-.395-.234-.741-.435-.983-.572s-.379-.226-.379-.226l2.4-9.488.459-2.022a30.952,30.952,0,0,1,3.2.387,10.9,10.9,0,0,1-.725-2.312c2.65-1.393,5.284-2.883,8.223-4.18.975-.435,1.981-.846,3.028-1.224a40.631,40.631,0,0,1,4.317-1.3A55.136,55.136,0,0,1,132.222,144l.6,1.675,3.23,9.093c.507,1.377,1.007,2.682,1.442,3.753C139.4,163.209,141.041,167,139.141,172.19Z" transform="translate(-20.576 -24.873)"></path><path id="Path_673" data-name="Path 673" class="cls-7" d="M129.1,154.36c3.415,4.438,2.086,8,2.086,8-2.086-5.163-7.088-4.9-10.124-5.847s-7.982-2.142-7.982-2.142a10.9,10.9,0,0,1-.725-2.312c2.65-1.393,5.284-2.883,8.223-4.18.008-.008.016-.008.024-.016.427-.193.862-.371,1.3-.548a1.348,1.348,0,0,1,.161-.064c.507-.2,1.023-.4,1.546-.6a40.633,40.633,0,0,1,4.317-1.3,55.133,55.133,0,0,1,5.582-1.337l.6,1.675s-10.591.25-7.708,5.034C127.22,151.855,128.138,153.1,129.1,154.36Z" transform="translate(-21.864 -24.875)"></path><path id="Path_674" data-name="Path 674" class="cls-7" d="M125.966,147.28c-.524.193-1.039.387-1.546.6C124.927,147.667,125.443,147.465,125.966,147.28Z" transform="translate(-24.21 -25.511)"></path><path id="Path_675" data-name="Path 675" class="cls-7" d="M107.2,170.745c-.395-.234-.741-.435-.983-.572a7.517,7.517,0,0,0,1.643-3.214A6.5,6.5,0,0,1,107.2,170.745Z" transform="translate(-20.669 -29.341)"></path><path id="Path_676" data-name="Path 676" class="cls-6" d="M104.351,151.138l-2.11,11.638a75.921,75.921,0,0,1-8.135-.419c-3.544-.443-8.312-2.618-8.505-4-.177-1.273.5-1.434.62-1.45h.016a4.641,4.641,0,0,1-.894-.483h0a2.844,2.844,0,0,1-1.45-2.746c.258-1.772.8-2.005,1-2.03H84.9a.166.166,0,0,1,.073,0,1.967,1.967,0,0,1-.6-.612,2.817,2.817,0,0,1-.169-2.424c.693-2.215,1.458-1.965,1.458-1.965a6.18,6.18,0,0,1-.04-.62c-.024-.934.1-2.674,1.24-3.3,1.5-.838,6.129-.717,8.086-.33.121.024.234.048.33.072a6.519,6.519,0,0,0,1.772-3.036,17.91,17.91,0,0,0-.628-3.487c-.467-2.481-.588-5.428,2.465-6.443,0,0,1.522-.636,1.393,2.344s.693,3.673,1.2,6.2,1.079,4.116.886,6.645S104.351,151.138,104.351,151.138Z" transform="translate(-16.319 -22.04)"></path><path id="Path_677" data-name="Path 677" class="cls-7" d="M98.768,144.318l-1.128-.346c.121.024.234.048.33.072a6.519,6.519,0,0,0,1.772-3.036,17.911,17.911,0,0,0-.628-3.487h0a17.507,17.507,0,0,1,1.514,3.971C100.926,142.852,98.768,144.318,98.768,144.318Z" transform="translate(-18.999 -23.612)"></path><path id="Path_678" data-name="Path 678" class="cls-7" d="M90.85,151.324a18.59,18.59,0,0,0-4.76-.677,6.183,6.183,0,0,1-.04-.62C89.3,149.891,90.77,151.244,90.85,151.324Z" transform="translate(-16.744 -26.044)"></path><path id="Path_679" data-name="Path 679" class="cls-7" d="M85.222,157.009H85.15A.182.182,0,0,1,85.222,157.009Z" transform="translate(-16.569 -27.404)"></path><path id="Path_680" data-name="Path 680" class="cls-7" d="M89.92,157.7c-1.12-.612-4.824-.846-4.824-.846a1.967,1.967,0,0,1-.6-.612C88.906,156.313,89.92,157.7,89.92,157.7Z" transform="translate(-16.443 -27.255)"></path><path id="Path_681" data-name="Path 681" class="cls-7" d="M89.566,164.21a9.434,9.434,0,0,0-2.972-.8,4.641,4.641,0,0,1-.894-.483C88.455,162.889,89.5,164.13,89.566,164.21Z" transform="translate(-16.676 -28.556)"></path><path id="Path_682" data-name="Path 682" class="cls-6" d="M19.7,159.347l4.164,11.074a76.723,76.723,0,0,0,7.925-1.877c3.407-1.071,7.708-4.059,7.643-5.469-.056-1.289-.749-1.321-.87-1.321h-.016a4.534,4.534,0,0,0,.789-.636h0a2.855,2.855,0,0,0,.934-2.964c-.572-1.7-1.144-1.828-1.345-1.812h-.008a.139.139,0,0,0-.072.016,1.8,1.8,0,0,0,.475-.709,2.8,2.8,0,0,0-.274-2.416c-1.079-2.054-1.78-1.667-1.78-1.667s-.016-.25-.072-.612c-.145-.926-.58-2.61-1.812-3.028-1.627-.556-6.153.395-8.014,1.128-.113.04-.217.089-.314.129a6.536,6.536,0,0,1-2.287-2.666,18.277,18.277,0,0,1-.008-3.544c.016-2.521-.395-5.445-3.576-5.9,0,0-1.611-.346-.95,2.553s-.024,3.737-.072,6.314-.322,4.236.322,6.693S19.7,159.347,19.7,159.347Z" transform="translate(-3.834 -23.524)"></path><path id="Path_683" data-name="Path 683" class="cls-7" d="M27.365,151.039l1.047-.548c-.113.04-.217.089-.314.129a6.536,6.536,0,0,1-2.287-2.666,18.277,18.277,0,0,1-.008-3.544h0a17.5,17.5,0,0,0-.773,4.18C24.973,149.983,27.365,151.039,27.365,151.039Z" transform="translate(-4.871 -24.953)"></path><path id="Path_684" data-name="Path 684" class="cls-7" d="M35.86,156.446a18.61,18.61,0,0,1,4.559-1.514s-.016-.25-.072-.612C37.125,154.771,35.924,156.358,35.86,156.446Z" transform="translate(-6.978 -26.881)"></path><path id="Path_685" data-name="Path 685" class="cls-7" d="M43.48,161.026c.024-.008.048-.008.072-.016A.537.537,0,0,0,43.48,161.026Z" transform="translate(-8.461 -28.183)"></path><path id="Path_686" data-name="Path 686" class="cls-7" d="M37.77,162.56c.991-.8,4.6-1.691,4.6-1.691a1.8,1.8,0,0,0,.475-.709C38.527,161.006,37.77,162.56,37.77,162.56Z" transform="translate(-7.35 -28.018)"></path><path id="Path_687" data-name="Path 687" class="cls-7" d="M39.66,168.9a9.5,9.5,0,0,1,2.779-1.321,4.533,4.533,0,0,0,.789-.636C40.514,167.4,39.708,168.809,39.66,168.9Z" transform="translate(-7.718 -29.337)"></path><path id="Path_688" data-name="Path 688" class="cls-6" d="M20.571,175.205a7.617,7.617,0,0,1-.636.862,15.876,15.876,0,0,1-7.233,4.744c-7.515,2.521-10.752-6.83-9.746-11.1s5.823-4.341,6.2-4.591,7.9-3.471,7.9-3.471l3.512,13.555Z" transform="translate(-0.541 -28.308)"></path><path id="Path_689" data-name="Path 689" class="cls-7" d="M24.557,177.647s0,.089-.435.62a10.553,10.553,0,0,1-.862-4.067c.773,1.957,1.24,3.318,1.3,3.447Z" transform="translate(-4.526 -30.75)"></path></g></g></g></svg>