<svg xmlns="http://www.w3.org/2000/svg" viewBox="0 0 308.109 287.669"><defs><style>
      .cls-1 {
        fill: #4a3535;
      }

      .cls-2 {
        fill: #9dc5c3;
      }

      .cls-3 {
        fill: #f8c399;
      }

      .cls-4 {
        fill: #9ec5e6;
      }

      .cls-5 {
        fill: #23195f;
      }

      .cls-6 {
        fill: #81aecc;
      }

      .cls-7 {
        fill: #e5b187;
      }

      .cls-8 {
        fill: #7bd7a6;
      }

      .cls-9 {
        fill: #d9664f;
      }

      .cls-10 {
        fill: #65b48b;
      }

      .cls-11 {
        fill: #382a2a;
      }

      .cls-12 {
        fill: #dca96c;
      }

      .cls-13 {
        fill: #b74848;
      }

      .cls-14 {
        fill: #edfeff;
      }
    </style></defs><g id="Group_1291" data-name="Group 1291" transform="translate(0 0.004)"><path id="Path_1360" data-name="Path 1360" class="cls-1" d="M105.32,7.854S61.4-14.778,29.847,16.776C5.245,41.39-2.816,108.085,13.1,133.287s10.474,52.451,6,74.169S137.9,200.582,137.9,200.582s-16.957-29.362-11.662-45.629S147.4,119.577,148.092,97.6C148.757,76.062,137.9,11.115,105.32,7.854Z" transform="translate(1.486 0)"></path><path id="Path_1361" data-name="Path 1361" class="cls-2" d="M22.533,91.52S9.841,36.682,47.291,16.92c0,0-29.31,31.136-15.183,74.6Z" transform="translate(6.229 5.152)"></path><path id="Path_1362" data-name="Path 1362" class="cls-3" d="M191.39,159.1l5.453-8.048s-.274-13.2,6-17.453,9.274-13.749,11.74-12.144,3,7.892-2.452,13.344c0,0,13.644-2.452,18.014-5.726s9.744-14.466,11.831-13.644-1.187,9.548-4.735,14.192c0,0,5.452-4.161,7.644-6.992s3.2,5.544-2.909,10.631c0,0,5.361-4.187,7-3.913s-.822,6.548-5.453,9.274c0,0,5.009-3.574,6.144-2.191s-3.418,7.37-8.87,10.37-11.74,6.809-22.645,8.466c-6.757,1.017-6.809-.417-9.548,3.822s-8.192,12.275-8.192,12.275Z" transform="translate(58.263 35.127)"></path><path id="Path_1363" data-name="Path 1363" class="cls-4" d="M106.052,192.061s67.752,54.8,77.313,54.8c23.049,0,61.034-85.322,61.034-85.322l-23.832-16.279s-34.893,56.494-38.076,57.681-68.508-68.9-68.508-68.9L90.79,170.772Z" transform="translate(27.638 40.806)"></path><path id="Path_1364" data-name="Path 1364" class="cls-4" d="M0,208.491a40.957,40.957,0,0,0,38.272,26.323H41.65L56.351,201,14.583,146.14S4.9,177.433,0,208.491Z" transform="translate(0 44.489)"></path><path id="Path_1365" data-name="Path 1365" class="cls-5" d="M52.948,122.235S14.937,144.528,11.18,153.554c0,0,17.4,46.229,27.054,88.688H142.874s5.844-55.621-4.683-104.484c0,0-29.689-14.531-46.972-15.536S52.948,122.235,52.948,122.235Z" transform="translate(3.403 37.075)"></path><path id="Path_1366" data-name="Path 1366" class="cls-6" d="M46.9,149.57S68.7,207.826,91.629,230c0,0,19.945-43.542,7.892-90.2Z" transform="translate(14.277 42.559)"></path><path id="Path_1367" data-name="Path 1367" class="cls-4" d="M56.745,112.859s-9.77,1.5-16.54,15.405-7.135,51.864-7.135,51.864S65.42,161.37,88.7,171.884c0,0,13.892-18.431,42.824-13.931,0,0-26.688-40.959-49.229-45.094S56.745,112.859,56.745,112.859Z" transform="translate(10.067 33.798)"></path><path id="Path_1368" data-name="Path 1368" class="cls-7" d="M89.053,105.245s-7.944,7.983-7.135,17.205,7.944,14.818,7.944,14.818,4.279,21.432-4.239,42.054c0,0-39.172-22.514-42.433-42.054,0,0,11.127-20.349,3.522-44.22C40.438,73.248,89.053,105.245,89.053,105.245Z" transform="translate(13.148 26.359)"></path><path id="Path_1369" data-name="Path 1369" class="cls-3" d="M117.03,56.095s2.439,33.954-.73,45.2-24.9,40.059-33.954,40.059c-11.975,0-39.824-21.014-46.411-31.267s-2.57-39.6-2.57-39.6S92.611,60.491,94.32,30.45C94.32,30.437,117.03,42.659,117.03,56.095Z" transform="translate(9.786 9.271)"></path><path id="Path_1370" data-name="Path 1370" class="cls-8" d="M66.662,111.411l-15.418-2.57A28.09,28.09,0,0,1,30.2,92.627L28.56,88.975l1.187-.535,1.644,3.652A26.8,26.8,0,0,0,51.453,107.55l15.418,2.57Z" transform="translate(8.694 26.924)"></path><path id="Path_1371" data-name="Path 1371" class="cls-9" d="M64.522,92.6,61.17,90.556s12.9-2.27,14.14-1.526a2.344,2.344,0,0,0,3.065-.157c.991-.757,9.7.6,9.7.6L78.036,96Z" transform="translate(18.621 26.986)"></path><path id="Path_1372" data-name="Path 1372" class="cls-10" d="M41.677,80.886c-2.113-9.131-8.257-15.21-13.7-13.553l-2.87.874.143.744c-3.548,3.3-5.009,10.474-3.274,17.923,1.565,6.744,5.322,11.8,9.379,13.344l.261,1.33,4.07-1.109C41.116,98.77,43.8,90.03,41.677,80.886Z" transform="translate(6.469 20.416)"></path><ellipse id="Ellipse_52" data-name="Ellipse 52" class="cls-8" cx="10.266" cy="17.01" rx="10.266" ry="17.01" transform="translate(22.115 90.411) rotate(-10.929)"></ellipse><path id="Path_1373" data-name="Path 1373" class="cls-10" d="M34.951,81.213c1.344,5.779-.352,11.322-3.809,12.366s-7.331-2.8-8.674-8.583.352-11.322,3.809-12.366S33.607,75.434,34.951,81.213Z" transform="translate(6.699 22.059)"></path><path id="Path_1374" data-name="Path 1374" class="cls-6" d="M206.092,182.229c6.822-13.227,11.309-23.31,11.309-23.31L193.57,142.64s-6.5,10.514-14.14,22.566A307.024,307.024,0,0,0,206.092,182.229Z" transform="translate(54.622 43.424)"></path><ellipse id="Ellipse_53" data-name="Ellipse 53" class="cls-11" cx="3.626" cy="4.8" rx="3.626" ry="4.8" transform="translate(65.912 84.332)"></ellipse><ellipse id="Ellipse_54" data-name="Ellipse 54" class="cls-11" cx="3.626" cy="4.8" rx="3.626" ry="4.8" transform="translate(104.732 82.036)"></ellipse><path id="Path_1375" data-name="Path 1375" class="cls-12" d="M76.794,72.33s2.413,10.188,1.67,11.492-3.144,2.231-3.144,2.231,7.774-.926,6.848-3.339S76.794,72.33,76.794,72.33Z" transform="translate(22.929 22.02)"></path><path id="Path_1376" data-name="Path 1376" class="cls-1" d="M61.17,90.363S77.175,91.55,88.093,89.28c0,0-6.861,19.253-13.462,19.945S61.17,90.363,61.17,90.363Z" transform="translate(18.621 27.18)"></path><path id="Path_1377" data-name="Path 1377" class="cls-13" d="M65.423,96.13c-.561,0-1.122.026-1.683.052,2.609,5.335,6.4,11.348,10.109,10.97,2.831-.287,5.713-4,8.074-8.153A46.178,46.178,0,0,0,65.423,96.13Z" transform="translate(19.404 29.265)"></path><path id="Path_1378" data-name="Path 1378" class="cls-14" d="M61.95,90.37l1.6,3.118s14.609,1.6,21.666-.913l1.37-3.1C77.447,91.1,65.472,90.579,61.95,90.37Z" transform="translate(18.859 27.238)"></path><path id="Path_1379" data-name="Path 1379" class="cls-1" d="M46.21,64.071s5.257-12.888,17.062-5.257C63.272,58.814,50.228,58.644,46.21,64.071Z" transform="translate(14.067 17.17)"></path><path id="Path_1380" data-name="Path 1380" class="cls-1" d="M96.549,62.08S90.535,49.532,79.2,57.867C79.2,57.854,92.205,56.915,96.549,62.08Z" transform="translate(24.11 16.747)"></path><path id="Path_1381" data-name="Path 1381" class="cls-8" d="M61.55,108.26H56.685a2.628,2.628,0,0,1-2.635-2.635h0a2.628,2.628,0,0,1,2.635-2.635H61.55a2.628,2.628,0,0,1,2.635,2.635h0A2.628,2.628,0,0,1,61.55,108.26Z" transform="translate(16.454 31.353)"></path><path id="Path_1382" data-name="Path 1382" class="cls-6" d="M163.351,187.572s-9.222,9-9.574,14.557c0,0-1.552-10.983,5.179-17.649Z" transform="translate(46.765 56.161)"></path><path id="Path_1383" data-name="Path 1383" class="cls-5" d="M82.125,172.954c.209,2.857-.757,5.244-2.152,5.348s-2.687-2.126-2.9-4.983.757-5.244,2.152-5.348S81.929,170.1,82.125,172.954Z" transform="translate(23.455 51.134)"></path><path id="Path_1384" data-name="Path 1384" class="cls-5" d="M83.731,195.379c0,2.857-1.135,5.179-2.531,5.179s-2.531-2.322-2.531-5.179S79.8,190.2,81.2,190.2,83.731,192.522,83.731,195.379Z" transform="translate(23.949 57.902)"></path></g></svg>