<svg xmlns="http://www.w3.org/2000/svg" xmlns:xlink="http://www.w3.org/1999/xlink" id="Capa_1" x="0px" y="0px" viewBox="0 0 786 449" style="enable-background:new 0 0 786 449;" xml:space="preserve">
<style type="text/css">
	.st0{fill:#23BDE6;}
	.st1{fill:#FFFFFF;}
</style>
<g>
	<g>
		<g>
			<path class="st0" d="M249.73,340.09c0,5.29,0.9,9.81,2.71,13.55c1.81,3.74,4.32,6.81,7.55,9.19c3.22,2.39,6.93,4.13,11.13,5.23     c4.19,1.1,8.74,1.65,13.65,1.65c5.29,0,9.8-0.61,13.55-1.84c3.74-1.22,6.77-2.81,9.1-4.74c2.32-1.94,4-4.16,5.03-6.68     c1.03-2.52,1.55-5.06,1.55-7.64c0-5.29-1.2-9.19-3.58-11.71c-2.39-2.52-5-4.29-7.84-5.32c-4.9-1.8-10.61-3.51-17.13-5.13     c-6.52-1.61-14.55-3.71-24.1-6.29c-5.94-1.55-10.87-3.58-14.81-6.1c-3.94-2.52-7.06-5.32-9.39-8.42     c-2.32-3.1-3.97-6.39-4.94-9.87s-1.45-7.03-1.45-10.65c0-6.97,1.45-13,4.36-18.1c2.9-5.1,6.74-9.32,11.52-12.68     c4.77-3.35,10.19-5.84,16.26-7.45c6.06-1.61,12.19-2.42,18.39-2.42c7.22,0,14.03,0.94,20.42,2.81c6.39,1.87,12,4.68,16.84,8.42     c4.84,3.74,8.68,8.36,11.52,13.84c2.84,5.49,4.26,11.84,4.26,19.07h-24.19c-0.65-8.9-3.68-15.19-9.1-18.87     c-5.42-3.68-12.32-5.51-20.71-5.51c-2.84,0-5.74,0.29-8.71,0.87c-2.97,0.58-5.68,1.55-8.13,2.9c-2.45,1.36-4.48,3.19-6.1,5.52     c-1.61,2.32-2.42,5.23-2.42,8.71c0,4.9,1.52,8.74,4.55,11.52c3.03,2.78,7,4.87,11.9,6.29c0.51,0.13,2.55,0.68,6.1,1.64     c3.55,0.97,7.52,2.03,11.9,3.19c4.39,1.16,8.68,2.29,12.87,3.39c4.19,1.1,7.19,1.91,9,2.42c4.52,1.42,8.45,3.36,11.81,5.81     c3.35,2.45,6.16,5.26,8.42,8.42c2.26,3.16,3.93,6.55,5.03,10.16c1.09,3.61,1.65,7.23,1.65,10.84c0,7.74-1.58,14.36-4.74,19.84     c-3.16,5.49-7.32,9.97-12.48,13.45c-5.16,3.48-11.03,6.03-17.61,7.64c-6.58,1.61-13.29,2.42-20.13,2.42     c-7.87,0-15.29-0.97-22.26-2.9c-6.97-1.94-13.03-4.9-18.19-8.9c-5.16-4-9.29-9.13-12.39-15.39c-3.1-6.26-4.71-13.65-4.84-22.16     H249.73z"></path>
			<path class="st0" d="M249.39,342.03c-0.13,8.52-1.74,15.9-4.84,22.16c-3.1,6.26-7.22,11.39-12.39,15.39     c-5.16,4-11.23,6.97-18.19,8.9c-6.97,1.94-14.39,2.9-22.26,2.9c-6.84,0-13.55-0.81-20.13-2.42c-6.58-1.61-12.45-4.16-17.61-7.64     c-5.16-3.48-9.32-7.97-12.48-13.45c-3.16-5.48-4.74-12.1-4.74-19.84c0-3.61,0.55-7.22,1.65-10.84c1.1-3.61,2.78-7,5.03-10.16     c2.26-3.16,5.07-5.97,8.42-8.42c3.36-2.45,7.29-4.39,11.81-5.81c1.81-0.51,4.81-1.32,9-2.42c4.19-1.09,8.49-2.23,12.87-3.39     c4.39-1.16,8.36-2.23,11.9-3.19c3.55-0.97,5.58-1.52,6.1-1.64c4.91-1.42,8.87-3.51,11.9-6.29c3.03-2.77,4.55-6.61,4.55-11.52     c0-3.48-0.8-6.39-2.42-8.71c-1.61-2.32-3.64-4.16-6.1-5.52c-2.45-1.35-5.16-2.32-8.13-2.9c-2.97-0.58-5.87-0.87-8.71-0.87     c-8.39,0-15.29,1.84-20.71,5.51c-5.42,3.68-8.45,9.97-9.1,18.87h-24.19c0-7.22,1.42-13.58,4.26-19.07     c2.84-5.48,6.68-10.09,11.52-13.84c4.84-3.74,10.45-6.55,16.84-8.42c6.39-1.87,13.19-2.81,20.42-2.81     c6.19,0,12.32,0.81,18.39,2.42c6.07,1.62,11.49,4.1,16.26,7.45c4.78,3.36,8.61,7.58,11.52,12.68c2.9,5.1,4.36,11.13,4.36,18.1     c0,3.61-0.48,7.16-1.45,10.65c-0.97,3.48-2.61,6.77-4.94,9.87c-2.32,3.1-5.45,5.9-9.39,8.42c-3.93,2.52-8.87,4.55-14.81,6.1     c-9.55,2.58-17.58,4.68-24.1,6.29c-6.51,1.61-12.22,3.32-17.13,5.13c-2.84,1.04-5.45,2.81-7.84,5.32     c-2.39,2.52-3.58,6.42-3.58,11.71c0,2.58,0.52,5.13,1.55,7.64c1.03,2.52,2.71,4.74,5.03,6.68c2.32,1.94,5.36,3.52,9.1,4.74     c3.74,1.23,8.26,1.84,13.55,1.84c4.9,0,9.45-0.55,13.65-1.65c4.19-1.09,7.91-2.84,11.13-5.23c3.23-2.39,5.74-5.45,7.55-9.19     c1.81-3.74,2.71-8.26,2.71-13.55H249.39z"></path>
		</g>
	</g>
	<g>
		<path class="st1" d="M53.23,247.96h25.74l53.23,138.2h-25.94L93.3,349.57H38.14l-12.97,36.58H0.2L53.23,247.96z M44.72,331.18    h42.19L66.2,271.76h-0.58L44.72,331.18z"></path>
		<path class="st1" d="M351.18,247.96h24.19v80.52c0,4.65,0.22,9.36,0.68,14.13c0.45,4.77,1.74,9.07,3.87,12.87    c2.13,3.81,5.35,6.94,9.68,9.39c4.32,2.45,10.42,3.68,18.29,3.68c7.87,0,13.97-1.22,18.29-3.68c4.32-2.45,7.55-5.58,9.68-9.39    c2.13-3.8,3.42-8.1,3.87-12.87c0.45-4.77,0.68-9.48,0.68-14.13v-80.52h24.19v88.45c0,8.9-1.36,16.64-4.06,23.23    c-2.71,6.58-6.55,12.1-11.52,16.55c-4.97,4.45-10.94,7.78-17.9,9.97c-6.97,2.19-14.71,3.29-23.23,3.29    c-8.52,0-16.26-1.1-23.23-3.29c-6.97-2.19-12.94-5.52-17.9-9.97c-4.97-4.45-8.81-9.97-11.52-16.55    c-2.71-6.58-4.06-14.32-4.06-23.23V247.96z"></path>
		<path class="st1" d="M484.43,247.96h66c15.22,0,26.64,3.29,34.26,9.87c7.61,6.58,11.42,15.74,11.42,27.48    c0,6.58-0.97,12.03-2.9,16.36c-1.94,4.33-4.19,7.81-6.77,10.45c-2.58,2.65-5.13,4.55-7.65,5.71c-2.52,1.16-4.35,1.94-5.52,2.32    v0.39c2.06,0.26,4.29,0.9,6.68,1.94c2.39,1.03,4.61,2.68,6.68,4.93c2.06,2.26,3.77,5.2,5.13,8.81c1.36,3.61,2.03,8.13,2.03,13.55    c0,8.13,0.61,15.52,1.84,22.16c1.22,6.65,3.13,11.39,5.71,14.23h-25.94c-1.81-2.97-2.87-6.26-3.19-9.87    c-0.32-3.61-0.48-7.1-0.48-10.45c0-6.32-0.39-11.77-1.16-16.35c-0.77-4.58-2.2-8.39-4.26-11.42c-2.07-3.03-4.87-5.26-8.42-6.68    c-3.55-1.42-8.1-2.13-13.65-2.13h-35.61v56.9h-24.19V247.96z M508.62,310.86h39.68c7.74,0,13.61-1.84,17.61-5.52    c4-3.68,6-9.19,6-16.55c0-4.39-0.65-7.97-1.94-10.74c-1.29-2.77-3.07-4.93-5.32-6.48c-2.26-1.55-4.84-2.58-7.74-3.1    c-2.9-0.51-5.9-0.77-9-0.77h-39.29V310.86z"></path>
		<path class="st1" d="M612.64,247.96h99.49v20.9h-75.29v36.19h69.68v19.74h-69.68v40.45h76.65v20.9H612.64V247.96z"></path>
	</g>
	<g>
		<path class="st1" d="M143.11,424.95c1.27,0.98,2.03,2.67,2.28,5.07h-2.93c-0.18-1.1-0.59-2.02-1.22-2.75    c-0.63-0.73-1.66-1.1-3.06-1.1c-1.92,0-3.29,0.94-4.12,2.81c-0.54,1.21-0.8,2.71-0.8,4.5c0,1.79,0.38,3.3,1.14,4.53    c0.76,1.23,1.95,1.84,3.58,1.84c1.25,0,2.24-0.38,2.97-1.14c0.73-0.76,1.23-1.8,1.51-3.13h2.93c-0.33,2.38-1.17,4.11-2.51,5.21    c-1.34,1.1-3.05,1.65-5.14,1.65c-2.34,0-4.21-0.86-5.61-2.57c-1.4-1.71-2.09-3.85-2.09-6.42c0-3.15,0.76-5.59,2.29-7.35    c1.53-1.75,3.47-2.63,5.84-2.63C140.2,423.47,141.84,423.97,143.11,424.95z"></path>
		<path class="st1" d="M164.81,425.78c1.58,1.54,2.38,3.8,2.38,6.79c0,2.89-0.7,5.27-2.09,7.16c-1.4,1.88-3.56,2.83-6.5,2.83    c-2.45,0-4.39-0.83-5.83-2.5c-1.44-1.67-2.16-3.9-2.16-6.71c0-3.01,0.76-5.41,2.28-7.19s3.56-2.67,6.11-2.67    C161.29,423.47,163.23,424.24,164.81,425.78z M162.94,437.69c0.73-1.51,1.1-3.19,1.1-5.04c0-1.67-0.27-3.03-0.79-4.08    c-0.84-1.65-2.28-2.47-4.33-2.47c-1.82,0-3.14,0.7-3.97,2.11c-0.83,1.4-1.24,3.1-1.24,5.08c0,1.91,0.41,3.49,1.24,4.76    c0.83,1.27,2.14,1.91,3.94,1.91C160.86,439.96,162.21,439.2,162.94,437.69z"></path>
		<path class="st1" d="M174.06,417.25h2.93v8.92c0.66-0.86,1.45-1.51,2.37-1.97c0.92-0.45,1.92-0.68,2.99-0.68    c2.24,0,4.06,0.77,5.45,2.3c1.39,1.53,2.09,3.8,2.09,6.78c0,2.83-0.69,5.19-2.07,7.06c-1.38,1.87-3.29,2.81-5.73,2.81    c-1.37,0-2.52-0.33-3.46-0.99c-0.56-0.39-1.16-1.01-1.8-1.87v2.29h-2.78V417.25z M185.58,437.88c0.81-1.29,1.22-3,1.22-5.12    c0-1.88-0.41-3.45-1.22-4.68c-0.81-1.24-2.01-1.86-3.58-1.86c-1.38,0-2.58,0.51-3.62,1.52c-1.04,1.02-1.55,2.69-1.55,5.02    c0,1.68,0.21,3.05,0.64,4.1c0.79,1.97,2.28,2.96,4.45,2.96C183.55,439.82,184.77,439.17,185.58,437.88z"></path>
		<path class="st1" d="M207.87,424.49c1.19,0.6,2.09,1.37,2.71,2.32c0.6,0.9,1,1.96,1.2,3.16c0.18,0.83,0.27,2.14,0.27,3.95h-13.03    c0.06,1.82,0.48,3.29,1.28,4.39c0.8,1.1,2.03,1.65,3.7,1.65c1.56,0,2.81-0.52,3.73-1.56c0.52-0.6,0.89-1.31,1.11-2.1h2.96    c-0.08,0.66-0.34,1.39-0.78,2.2c-0.44,0.81-0.93,1.47-1.47,1.98c-0.91,0.89-2.03,1.49-3.37,1.81c-0.72,0.18-1.53,0.27-2.44,0.27    c-2.22,0-4.1-0.81-5.64-2.43c-1.54-1.62-2.31-3.9-2.31-6.82c0-2.88,0.78-5.21,2.33-7.01c1.55-1.8,3.58-2.69,6.09-2.69    C205.46,423.59,206.68,423.89,207.87,424.49z M208.95,431.52c-0.12-1.31-0.4-2.35-0.85-3.13c-0.82-1.45-2.18-2.18-4.1-2.18    c-1.37,0-2.52,0.5-3.45,1.5c-0.93,1-1.42,2.27-1.48,3.81H208.95z"></path>
		<path class="st1" d="M219.37,423.99h2.86v3.1c0.23-0.6,0.81-1.34,1.72-2.2c0.91-0.86,1.97-1.3,3.16-1.3    c0.06,0,0.15,0.01,0.28,0.02c0.13,0.01,0.36,0.03,0.69,0.07v3.18c-0.18-0.03-0.34-0.06-0.49-0.07c-0.15-0.01-0.32-0.02-0.49-0.02    c-1.52,0-2.68,0.49-3.5,1.46c-0.81,0.98-1.22,2.1-1.22,3.37v10.31h-3.01V423.99z"></path>
		<path class="st1" d="M234.72,418.99h3.05v5h2.86v2.46h-2.86v11.7c0,0.63,0.21,1.04,0.64,1.26c0.23,0.12,0.62,0.18,1.17,0.18    c0.14,0,0.3,0,0.47-0.01c0.17-0.01,0.36-0.03,0.59-0.06v2.39c-0.35,0.1-0.71,0.17-1.08,0.22c-0.37,0.04-0.78,0.07-1.21,0.07    c-1.41,0-2.36-0.36-2.86-1.08c-0.5-0.72-0.75-1.65-0.75-2.8v-11.86h-2.43v-2.46h2.43V418.99z"></path>
		<path class="st1" d="M250.08,423.99v11.9c0,0.91,0.14,1.66,0.42,2.24c0.52,1.07,1.49,1.61,2.92,1.61c2.04,0,3.43-0.94,4.17-2.81    c0.4-1,0.6-2.38,0.6-4.13v-8.8h3.01v17.92h-2.84l0.03-2.64c-0.38,0.68-0.86,1.26-1.43,1.72c-1.13,0.94-2.5,1.41-4.1,1.41    c-2.51,0-4.21-0.85-5.12-2.56c-0.49-0.91-0.74-2.14-0.74-3.66v-12.18H250.08z"></path>
		<path class="st1" d="M269.64,423.99h2.86v3.1c0.23-0.6,0.81-1.34,1.72-2.2c0.91-0.86,1.97-1.3,3.16-1.3    c0.06,0,0.15,0.01,0.28,0.02c0.13,0.01,0.36,0.03,0.69,0.07v3.18c-0.18-0.03-0.34-0.06-0.49-0.07c-0.15-0.01-0.32-0.02-0.49-0.02    c-1.52,0-2.68,0.49-3.5,1.46c-0.81,0.98-1.22,2.1-1.22,3.37v10.31h-3.01V423.99z"></path>
		<path class="st1" d="M294,431.07c0.69-0.09,1.15-0.38,1.39-0.87c0.13-0.27,0.2-0.65,0.2-1.16c0-1.03-0.36-1.78-1.09-2.24    c-0.73-0.46-1.77-0.7-3.13-0.7c-1.57,0-2.68,0.43-3.34,1.28c-0.37,0.47-0.61,1.17-0.72,2.1h-2.81c0.06-2.21,0.77-3.76,2.15-4.62    c1.38-0.87,2.97-1.3,4.79-1.3c2.11,0,3.82,0.4,5.13,1.2c1.3,0.8,1.96,2.05,1.96,3.75v10.32c0,0.31,0.06,0.56,0.19,0.75    c0.13,0.19,0.4,0.28,0.81,0.28c0.13,0,0.28-0.01,0.45-0.03c0.17-0.02,0.35-0.04,0.54-0.07V442c-0.47,0.13-0.83,0.22-1.07,0.25    c-0.25,0.03-0.58,0.05-1,0.05c-1.04,0-1.79-0.37-2.26-1.1c-0.25-0.39-0.42-0.94-0.52-1.66c-0.61,0.8-1.49,1.5-2.64,2.09    c-1.15,0.59-2.42,0.89-3.8,0.89c-1.66,0-3.02-0.5-4.07-1.51c-1.05-1.01-1.58-2.27-1.58-3.79c0-1.66,0.52-2.95,1.56-3.86    c1.04-0.91,2.4-1.48,4.08-1.69L294,431.07z M287.66,439.2c0.64,0.5,1.39,0.75,2.26,0.75c1.06,0,2.09-0.24,3.08-0.74    c1.67-0.81,2.51-2.14,2.51-3.99v-2.42c-0.37,0.23-0.84,0.43-1.42,0.59c-0.58,0.16-1.15,0.27-1.7,0.34l-1.82,0.23    c-1.09,0.14-1.91,0.37-2.46,0.68c-0.93,0.52-1.4,1.36-1.4,2.5C286.7,438.02,287.02,438.7,287.66,439.2z"></path>
		<path class="st1" d="M329.67,424.55c0.53,0.33,1.14,0.92,1.82,1.76v-9.05h2.89v24.66h-2.71v-2.49c-0.7,1.1-1.53,1.9-2.48,2.39    c-0.96,0.49-2.05,0.74-3.28,0.74c-1.99,0-3.71-0.84-5.17-2.52c-1.46-1.68-2.18-3.91-2.18-6.7c0-2.61,0.66-4.87,1.99-6.78    c1.33-1.91,3.23-2.87,5.69-2.87C327.6,423.67,328.75,423.97,329.67,424.55z M322.95,437.98c0.81,1.29,2.11,1.94,3.9,1.94    c1.39,0,2.53-0.6,3.42-1.8c0.89-1.2,1.34-2.92,1.34-5.16c0-2.26-0.46-3.94-1.38-5.03c-0.92-1.09-2.06-1.63-3.41-1.63    c-1.51,0-2.73,0.58-3.67,1.74c-0.94,1.16-1.41,2.87-1.41,5.12C321.73,435.08,322.14,436.69,322.95,437.98z"></path>
		<path class="st1" d="M353.38,424.49c1.19,0.6,2.09,1.37,2.71,2.32c0.6,0.9,1,1.96,1.2,3.16c0.18,0.83,0.27,2.14,0.27,3.95h-13.03    c0.06,1.82,0.48,3.29,1.28,4.39s2.03,1.65,3.7,1.65c1.56,0,2.81-0.52,3.73-1.56c0.52-0.6,0.89-1.31,1.11-2.1h2.96    c-0.08,0.66-0.34,1.39-0.78,2.2c-0.44,0.81-0.93,1.47-1.47,1.98c-0.91,0.89-2.03,1.49-3.37,1.81c-0.72,0.18-1.53,0.27-2.44,0.27    c-2.22,0-4.1-0.81-5.64-2.43c-1.54-1.62-2.31-3.9-2.31-6.82c0-2.88,0.78-5.21,2.33-7.01c1.55-1.8,3.58-2.69,6.09-2.69    C350.97,423.59,352.19,423.89,353.38,424.49z M354.46,431.52c-0.12-1.31-0.4-2.35-0.85-3.13c-0.82-1.45-2.18-2.18-4.1-2.18    c-1.37,0-2.52,0.5-3.45,1.5c-0.93,1-1.42,2.27-1.48,3.81H354.46z"></path>
		<path class="st1" d="M364.79,423.99h2.86v2.54c0.85-1.05,1.75-1.8,2.69-2.26c0.95-0.46,2-0.69,3.16-0.69    c2.54,0,4.26,0.89,5.15,2.66c0.49,0.97,0.74,2.36,0.74,4.17v11.49h-3.06v-11.29c0-1.09-0.16-1.97-0.49-2.64    c-0.54-1.12-1.51-1.67-2.91-1.67c-0.71,0-1.3,0.07-1.76,0.22c-0.83,0.25-1.55,0.74-2.18,1.47c-0.5,0.59-0.83,1.2-0.98,1.83    c-0.15,0.63-0.23,1.53-0.23,2.7v9.39h-3.01V423.99z"></path>
		<path class="st1" d="M387.88,418.99h3.05v5h2.86v2.46h-2.86v11.7c0,0.63,0.21,1.04,0.64,1.26c0.23,0.12,0.62,0.18,1.17,0.18    c0.14,0,0.3,0,0.47-0.01c0.17-0.01,0.36-0.03,0.59-0.06v2.39c-0.35,0.1-0.71,0.17-1.08,0.22c-0.37,0.04-0.78,0.07-1.21,0.07    c-1.41,0-2.36-0.36-2.86-1.08c-0.5-0.72-0.75-1.65-0.75-2.8v-11.86h-2.43v-2.46h2.43V418.99z"></path>
		<path class="st1" d="M409.83,431.07c0.69-0.09,1.15-0.38,1.39-0.87c0.13-0.27,0.2-0.65,0.2-1.16c0-1.03-0.36-1.78-1.09-2.24    c-0.73-0.46-1.77-0.7-3.13-0.7c-1.57,0-2.68,0.43-3.34,1.28c-0.37,0.47-0.61,1.17-0.72,2.1h-2.81c0.06-2.21,0.77-3.76,2.15-4.62    c1.38-0.87,2.97-1.3,4.79-1.3c2.11,0,3.82,0.4,5.13,1.2c1.3,0.8,1.96,2.05,1.96,3.75v10.32c0,0.31,0.06,0.56,0.19,0.75    c0.13,0.19,0.4,0.28,0.81,0.28c0.13,0,0.28-0.01,0.45-0.03c0.17-0.02,0.35-0.04,0.54-0.07V442c-0.47,0.13-0.83,0.22-1.07,0.25    c-0.25,0.03-0.58,0.05-1,0.05c-1.04,0-1.79-0.37-2.26-1.1c-0.25-0.39-0.42-0.94-0.52-1.66c-0.61,0.8-1.49,1.5-2.64,2.09    c-1.15,0.59-2.42,0.89-3.8,0.89c-1.66,0-3.02-0.5-4.07-1.51c-1.05-1.01-1.58-2.27-1.58-3.79c0-1.66,0.52-2.95,1.56-3.86    c1.04-0.91,2.4-1.48,4.08-1.69L409.83,431.07z M403.49,439.2c0.64,0.5,1.39,0.75,2.26,0.75c1.06,0,2.09-0.24,3.08-0.74    c1.67-0.81,2.51-2.14,2.51-3.99v-2.42c-0.37,0.23-0.84,0.43-1.42,0.59c-0.58,0.16-1.15,0.27-1.7,0.34l-1.82,0.23    c-1.09,0.14-1.91,0.37-2.46,0.68c-0.93,0.52-1.4,1.36-1.4,2.5C402.54,438.02,402.85,438.7,403.49,439.2z"></path>
		<path class="st1" d="M422.79,417.33h3.01v24.58h-3.01V417.33z"></path>
		<path class="st1" d="M446.7,417.33h3.06v3.41h-3.06V417.33z M446.7,424.08h3.06v17.84h-3.06V424.08z"></path>
		<path class="st1" d="M457.74,423.99h2.86v2.54c0.85-1.05,1.75-1.8,2.69-2.26c0.95-0.46,2-0.69,3.16-0.69    c2.54,0,4.26,0.89,5.15,2.66c0.49,0.97,0.74,2.36,0.74,4.17v11.49h-3.06v-11.29c0-1.09-0.16-1.97-0.49-2.64    c-0.54-1.12-1.51-1.67-2.91-1.67c-0.71,0-1.3,0.07-1.76,0.22c-0.83,0.25-1.55,0.74-2.18,1.47c-0.5,0.59-0.83,1.2-0.98,1.83    s-0.23,1.53-0.23,2.7v9.39h-3.01V423.99z"></path>
		<path class="st1" d="M480.83,418.99h3.05v5h2.86v2.46h-2.86v11.7c0,0.63,0.21,1.04,0.64,1.26c0.23,0.12,0.62,0.18,1.17,0.18    c0.14,0,0.3,0,0.47-0.01c0.17-0.01,0.36-0.03,0.59-0.06v2.39c-0.35,0.1-0.71,0.17-1.08,0.22c-0.37,0.04-0.78,0.07-1.21,0.07    c-1.41,0-2.36-0.36-2.86-1.08c-0.5-0.72-0.75-1.65-0.75-2.8v-11.86h-2.43v-2.46h2.43V418.99z"></path>
		<path class="st1" d="M504.24,424.49c1.19,0.6,2.09,1.37,2.71,2.32c0.6,0.9,1,1.96,1.2,3.16c0.18,0.83,0.27,2.14,0.27,3.95h-13.03    c0.06,1.82,0.48,3.29,1.28,4.39s2.03,1.65,3.7,1.65c1.56,0,2.81-0.52,3.73-1.56c0.52-0.6,0.89-1.31,1.11-2.1h2.96    c-0.08,0.66-0.34,1.39-0.78,2.2c-0.44,0.81-0.93,1.47-1.47,1.98c-0.91,0.89-2.03,1.49-3.37,1.81c-0.72,0.18-1.53,0.27-2.44,0.27    c-2.22,0-4.1-0.81-5.64-2.43c-1.54-1.62-2.31-3.9-2.31-6.82c0-2.88,0.78-5.21,2.33-7.01c1.55-1.8,3.58-2.69,6.09-2.69    C501.83,423.59,503.05,423.89,504.24,424.49z M505.32,431.52c-0.12-1.31-0.4-2.35-0.85-3.13c-0.82-1.45-2.18-2.18-4.1-2.18    c-1.37,0-2.52,0.5-3.45,1.5c-0.93,1-1.42,2.27-1.48,3.81H505.32z"></path>
		<path class="st1" d="M525.62,424.71c0.57,0.39,1.14,0.96,1.73,1.71v-2.26h2.78v16.3c0,2.28-0.33,4.07-1,5.39    c-1.25,2.43-3.6,3.65-7.05,3.65c-1.92,0-3.54-0.43-4.85-1.3c-1.31-0.86-2.04-2.22-2.2-4.06h3.06c0.14,0.8,0.43,1.42,0.87,1.86    c0.68,0.67,1.74,1,3.19,1c2.3,0,3.8-0.81,4.51-2.44c0.42-0.96,0.62-2.67,0.58-5.14c-0.6,0.91-1.32,1.6-2.17,2.04    c-0.84,0.45-1.96,0.67-3.35,0.67c-1.93,0-3.62-0.69-5.07-2.07c-1.45-1.38-2.17-3.66-2.17-6.84c0-3,0.73-5.34,2.19-7.03    c1.46-1.68,3.23-2.53,5.29-2.53C523.35,423.67,524.57,424.02,525.62,424.71z M525.99,427.94c-0.91-1.07-2.07-1.61-3.48-1.61    c-2.11,0-3.55,0.99-4.33,2.98c-0.41,1.06-0.62,2.45-0.62,4.17c0,2.02,0.41,3.56,1.22,4.61c0.82,1.05,1.91,1.58,3.29,1.58    c2.15,0,3.67-0.98,4.54-2.93c0.49-1.1,0.73-2.39,0.73-3.86C527.35,430.66,526.9,429.01,525.99,427.94z"></path>
		<path class="st1" d="M538.22,423.99h2.86v3.1c0.23-0.6,0.81-1.34,1.72-2.2c0.91-0.86,1.97-1.3,3.16-1.3    c0.06,0,0.15,0.01,0.28,0.02c0.13,0.01,0.36,0.03,0.69,0.07v3.18c-0.18-0.03-0.34-0.06-0.49-0.07c-0.15-0.01-0.32-0.02-0.49-0.02    c-1.52,0-2.68,0.49-3.5,1.46c-0.81,0.98-1.22,2.1-1.22,3.37v10.31h-3.01V423.99z"></path>
		<path class="st1" d="M562.58,431.07c0.69-0.09,1.15-0.38,1.39-0.87c0.13-0.27,0.2-0.65,0.2-1.16c0-1.03-0.36-1.78-1.09-2.24    c-0.73-0.46-1.77-0.7-3.13-0.7c-1.57,0-2.68,0.43-3.34,1.28c-0.37,0.47-0.61,1.17-0.72,2.1h-2.81c0.06-2.21,0.77-3.76,2.15-4.62    c1.38-0.87,2.97-1.3,4.79-1.3c2.11,0,3.82,0.4,5.13,1.2c1.3,0.8,1.96,2.05,1.96,3.75v10.32c0,0.31,0.06,0.56,0.19,0.75    c0.13,0.19,0.4,0.28,0.81,0.28c0.13,0,0.28-0.01,0.45-0.03c0.17-0.02,0.35-0.04,0.54-0.07V442c-0.47,0.13-0.83,0.22-1.07,0.25    c-0.25,0.03-0.58,0.05-1,0.05c-1.04,0-1.79-0.37-2.26-1.1c-0.25-0.39-0.42-0.94-0.52-1.66c-0.61,0.8-1.49,1.5-2.64,2.09    c-1.15,0.59-2.42,0.89-3.8,0.89c-1.66,0-3.02-0.5-4.07-1.51c-1.05-1.01-1.58-2.27-1.58-3.79c0-1.66,0.52-2.95,1.56-3.86    c1.04-0.91,2.4-1.48,4.08-1.69L562.58,431.07z M556.24,439.2c0.64,0.5,1.39,0.75,2.26,0.75c1.06,0,2.09-0.24,3.08-0.74    c1.67-0.81,2.51-2.14,2.51-3.99v-2.42c-0.37,0.23-0.84,0.43-1.42,0.59c-0.58,0.16-1.15,0.27-1.7,0.34l-1.82,0.23    c-1.09,0.14-1.91,0.37-2.46,0.68c-0.93,0.52-1.4,1.36-1.4,2.5C555.29,438.02,555.6,438.7,556.24,439.2z"></path>
		<path class="st1" d="M575.55,417.33h3.01v24.58h-3.01V417.33z"></path>
	</g>
	<g>
		<g>
			<path class="st1" d="M757.85,245.81c1.01,0,2.02,0,3.03,0c0.11,0.02,0.22,0.06,0.33,0.06c1.75,0.1,3.48,0.4,5.17,0.87     c5.93,1.67,10.73,5,14.38,9.97c2.69,3.67,4.29,7.77,4.85,12.29c0.07,0.58,0.13,1.16,0.2,1.74c0,1.01,0,2.02,0,3.03     c-0.02,0.11-0.05,0.22-0.07,0.33c-0.2,1.35-0.3,2.72-0.6,4.04c-1.45,6.27-4.77,11.36-9.89,15.25c-3.85,2.92-8.2,4.61-12.99,5.15     c-2.51,0.28-5.01,0.19-7.5-0.25c-4.35-0.77-8.28-2.5-11.72-5.26c-5.82-4.67-9.17-10.73-9.97-18.18     c-0.31-2.87-0.12-5.73,0.54-8.54c1.32-5.65,4.19-10.38,8.59-14.16c4-3.43,8.63-5.48,13.87-6.14     C756.64,245.94,757.24,245.88,757.85,245.81z M759.35,294.29c12.16,0,22.03-9.86,22.04-22.01c0.01-12.17-9.84-22.06-21.98-22.07     c-12.22-0.01-22.09,9.83-22.09,22.02C737.32,284.42,747.18,294.29,759.35,294.29z"></path>
			<path class="st1" d="M761.75,274.18c0.05,0.04,0.1,0.08,0.16,0.1c1.39,0.58,2.41,1.6,3.33,2.75c1.65,2.04,2.98,4.29,4.37,6.5     c0.62,0.99,1.24,1.98,1.85,2.97c0.06,0.09,0.11,0.19,0.19,0.32c-0.13,0.01-0.23,0.02-0.33,0.02c-1.64,0-3.28-0.01-4.92,0.01     c-0.26,0-0.38-0.09-0.5-0.3c-1.39-2.43-2.76-4.89-4.22-7.28c-0.64-1.05-1.47-1.99-2.27-2.93c-0.74-0.86-1.73-1.37-2.88-1.45     c-1.36-0.09-2.72-0.1-4.12-0.15c0,4.06,0,8.06,0,12.08c-1.54,0-3.04,0-4.56,0c0-9.46,0-18.92,0-28.41c1.02,0,2.03-0.01,3.04,0     c2.94,0.02,5.87,0.03,8.81,0.07c1.65,0.02,3.3,0.14,4.89,0.65c2.7,0.88,4.35,2.8,4.94,5.51c0.96,4.43-2.12,8.08-5.56,9.05     C763.24,273.9,762.5,274.02,761.75,274.18z M752.42,270.88c0.53,0,1.02,0.01,1.52,0c2.29-0.04,4.59,0.1,6.87-0.21     c0.83-0.12,1.65-0.31,2.35-0.8c2.45-1.72,2.23-5.61-0.55-6.9c-1.09-0.51-2.25-0.61-3.42-0.63c-1.89-0.03-3.78-0.04-5.67-0.06     c-0.36,0-0.72,0-1.09,0C752.42,265.17,752.42,268.01,752.42,270.88z"></path>
		</g>
	</g>
	<g>
		<g>
			<g>
				<g>
					<path class="st0" d="M263.95,220.72c-19.24-24.8-46.4-39.81-80.21-39.81c-39.22,0-80.08,17.84-98.16,49.67       c0,0,38.56-170.91,244.83-193.7C330.4,36.88,265.12,82.82,263.95,220.72"></path>
					<path class="st0" d="M449.73,220.14c19.24-24.8,46.4-39.81,80.21-39.81c39.22,0,80.08,17.84,98.16,49.67       c0,0-38.56-170.91-244.83-193.7C383.28,36.3,448.56,82.24,449.73,220.14"></path>
					<path class="st0" d="M442.59,222.4c-50.54-56.97-124.75-53.76-169.45-1.46c0,0-4.67-121.24,61.94-184.64       c0,0,21.04-1.46,42.95-0.29C378.02,36,451.94,105.54,442.59,222.4z"></path>
				</g>
				<g>
					<path class="st0" d="M363.62,30.38c-5.04,0-8.92,0-13.79,0c1.45-10.07-3.99-20.5,6.36-30.45       C368.29,9.46,361.09,20.33,363.62,30.38z"></path>
				</g>
			</g>
		</g>
	</g>
</g>
</svg>