<svg xmlns="http://www.w3.org/2000/svg" xmlns:xlink="http://www.w3.org/1999/xlink" viewBox="0 0 157.046 157.046"><defs><style>
      .cls-1 {
        fill: #fff;
      }

      .cls-2 {
        clip-path: url(#clip-path);
      }

      .cls-3 {
        fill: #f6b47b;
      }

      .cls-4 {
        fill: #734a3e;
      }

      .cls-5 {
        fill: #5e342e;
      }

      .cls-6 {
        fill: #e2a071;
      }

      .cls-7 {
        fill: #fdc88e;
      }

      .cls-8 {
        fill: #623f33;
      }

      .cls-9 {
        fill: #43a0c5;
      }

      .cls-10 {
        fill: #2c8cb3;
      }

      .cls-11 {
        fill: #1179a2;
      }

      .cls-12 {
        fill: #ffd7a3;
      }

      .cls-13 {
        fill: #8db9e2;
      }

      .cls-14 {
        fill: #6aa2de;
      }

      .cls-15 {
        fill: #4e87bb;
      }

      .cls-16 {
        fill: #9d6e48;
      }

      .cls-17 {
        fill: #8d5f3d;
      }

      .cls-18 {
        fill: #ffe1b2;
      }

      .cls-19 {
        fill: #e4b07b;
      }

      .cls-20 {
        fill: #ff8c51;
      }

      .cls-21 {
        fill: #ffc84a;
      }

      .cls-22 {
        fill: #d2b4ef;
      }

      .cls-23 {
        fill: #b99ed8;
      }
    </style><clipPath id="clip-path"><rect id="Rectangle_239" data-name="Rectangle 239" class="cls-1" width="157.046" height="157.046" transform="translate(-6595 -3474.046)"></rect></clipPath></defs><g id="Mask_Group_26" data-name="Mask Group 26" class="cls-2" transform="translate(6595 3474.046)"><g id="Group_1278" data-name="Group 1278" transform="translate(-422 249.21)"><g id="chico" transform="translate(-6169 -3667.113)"><path id="Path_3222" data-name="Path 3222" class="cls-3" d="M141.645,173.345l-.158-1.421a1.024,1.024,0,0,0-1.131-.905l-.089.01L138.739,158.8a6.96,6.96,0,0,0-4.7-5.739l-11.254-3.751q-.339.764-.748,1.491l-2.335-.778a3.479,3.479,0,0,1-2.379-3.3v-5.611l7.494-3.123a10.438,10.438,0,0,0,6.424-9.635v-1.74a5.219,5.219,0,1,0,0-10.438V112.7a8.7,8.7,0,0,0-8.7-8.7H91.222a8.7,8.7,0,0,0-8.7,8.7v3.479a5.219,5.219,0,0,0,0,10.438v1.74a10.439,10.439,0,0,0,6.424,9.635l7.494,3.123v5.611a3.479,3.479,0,0,1-2.379,3.3l-2.335.778q-.408-.726-.748-1.49l-11.254,3.751a6.959,6.959,0,0,0-4.7,5.739l-1.528,12.225-.089-.01a1.024,1.024,0,0,0-1.131.905l-.158,1.421a1.024,1.024,0,0,0,.9,1.131l2.545.283v4.049a3.479,3.479,0,0,0,3.479,3.479h55.671a3.479,3.479,0,0,0,3.479-3.479v-4.049l2.545-.283A1.024,1.024,0,0,0,141.645,173.345Z" transform="translate(-72.108 -81.384)"></path><path id="Path_3223" data-name="Path 3223" class="cls-4" d="M143.667,12.224c0-.015,0-.03,0-.045a8.645,8.645,0,0,0-12.457-7.813,7.686,7.686,0,0,0-9.185-1.833,5.188,5.188,0,0,0-9.165.475,6.934,6.934,0,0,0-10.425,3.066A3.463,3.463,0,0,0,96.7,8.7S88,8.626,88,19.137c0,4.9,3.479,19.137,3.479,19.137h55.671a100.073,100.073,0,0,0,1.74-19.137C148.891,16.123,146.09,13.731,143.667,12.224Z" transform="translate(-84.544)"></path><path id="Path_3224" data-name="Path 3224" class="cls-5" d="M116.553,27.733a8.65,8.65,0,0,1,.07-17.2A8.564,8.564,0,0,1,119.077.24a5.105,5.105,0,0,0-1.5-.24,5.207,5.207,0,0,0-4.711,3.008,6.934,6.934,0,0,0-10.425,3.066A3.463,3.463,0,0,0,96.7,8.7S88,8.626,88,19.137c0,4.9,3.479,19.137,3.479,19.137h25.009Z" transform="translate(-84.544 0)"></path><path id="Path_3225" data-name="Path 3225" class="cls-6" d="M198.6,274H177.726v5.756a3.449,3.449,0,0,1-1.743,2.97C190.574,285.281,198.6,274,198.6,274Z" transform="translate(-153.393 -214.415)"></path><path id="Path_3226" data-name="Path 3226" class="cls-7" d="M149.932,116.178V112.7a8.7,8.7,0,0,0-8.7-8.7H109.918a8.7,8.7,0,0,0-8.7,8.7v3.479a5.219,5.219,0,1,0,0,10.438v1.74a10.439,10.439,0,0,0,6.424,9.635l11.241,4.684a17.4,17.4,0,0,0,6.691,1.338h0a17.4,17.4,0,0,0,6.691-1.338l11.242-4.684a10.438,10.438,0,0,0,6.424-9.635v-1.74a5.219,5.219,0,1,0,0-10.438Z" transform="translate(-90.804 -81.384)"></path><path id="Path_3227" data-name="Path 3227" class="cls-8" d="M169.74,173.219h0a1.745,1.745,0,0,1-1.74-1.74v-1.74a1.745,1.745,0,0,1,1.74-1.74h0a1.745,1.745,0,0,1,1.74,1.74v1.74A1.745,1.745,0,0,1,169.74,173.219Z" transform="translate(-147.146 -131.466)"></path><path id="Path_3228" data-name="Path 3228" class="cls-8" d="M281.74,173.219h0a1.745,1.745,0,0,1-1.74-1.74v-1.74a1.745,1.745,0,0,1,1.74-1.74h0a1.745,1.745,0,0,1,1.74,1.74v1.74A1.745,1.745,0,0,1,281.74,173.219Z" transform="translate(-234.79 -131.466)"></path><g id="Group_1246" data-name="Group 1246" transform="translate(26.072 48.712)"><path id="Path_3229" data-name="Path 3229" class="cls-6" d="M200.7,229.266a14.491,14.491,0,0,1-7.937-2.089,1.739,1.739,0,1,1,1.957-2.876,12.779,12.779,0,0,0,11.961,0,1.739,1.739,0,1,1,1.957,2.876A14.49,14.49,0,0,1,200.7,229.266Z" transform="translate(-191.999 -223.998)"></path></g><path id="Path_3230" data-name="Path 3230" class="cls-3" d="M110.353,135.016a8.156,8.156,0,0,1-2.174-5.573V104.806a8.7,8.7,0,0,0-6.959,8.523v3.479a5.219,5.219,0,1,0,0,10.438v1.74a10.438,10.438,0,0,0,6.424,9.635l11.241,4.684a17.431,17.431,0,0,0,1.68.6A72.6,72.6,0,0,1,110.353,135.016Z" transform="translate(-90.805 -82.014)"></path><path id="Path_3231" data-name="Path 3231" class="cls-9" d="M143.262,321.862a6.96,6.96,0,0,0-4.7-5.739L127.3,312.372l-10.682,6.878-3.479,3.479h-3.479l-3.479-3.479L95.5,312.372l-11.254,3.751a6.959,6.959,0,0,0-4.7,5.739L77.889,335.1l14.377,1.548v8.7H130.54v-8.7h14.57Z" transform="translate(-76.632 -244.442)"></path><path id="Path_3232" data-name="Path 3232" class="cls-10" d="M91.682,359.712v-3.937a6.96,6.96,0,0,0-1.7-4.557l-9.573-11.05a6.944,6.944,0,0,0-1.45,3.445L77.143,358.15C79.91,358.316,87.27,359.179,91.682,359.712Z" transform="translate(-76.048 -266.193)"></path><path id="Path_3233" data-name="Path 3233" class="cls-11" d="M87.741,413.751,73.4,412.158a1.024,1.024,0,0,0-1.131.9l-.158,1.421a1.024,1.024,0,0,0,.9,1.131l14.723,1.636Z" transform="translate(-72.107 -322.523)"></path><path id="Path_3234" data-name="Path 3234" class="cls-10" d="M320,359.712v-3.937a6.96,6.96,0,0,1,1.7-4.557l9.573-11.05a6.945,6.945,0,0,1,1.45,3.445l1.817,14.537C331.772,358.316,324.412,359.179,320,359.712Z" transform="translate(-266.092 -266.193)"></path><path id="Path_3235" data-name="Path 3235" class="cls-11" d="M320,413.751l14.339-1.593a1.025,1.025,0,0,1,1.131.9l.158,1.421a1.024,1.024,0,0,1-.9,1.131L320,417.251Z" transform="translate(-266.092 -322.523)"></path><path id="Path_3236" data-name="Path 3236" class="cls-10" d="M158.184,299.868l5.994,8.991-5.219,6.959L152,301.9l3.772-2.514A1.74,1.74,0,0,1,158.184,299.868Z" transform="translate(-134.626 -234.051)"></path><path id="Path_3237" data-name="Path 3237" class="cls-10" d="M261.994,299.868,256,308.859l5.219,6.959,6.959-13.918-3.772-2.514A1.739,1.739,0,0,0,261.994,299.868Z" transform="translate(-216.009 -234.051)"></path><path id="Path_3238" data-name="Path 3238" class="cls-10" d="M225.74,373.918h0a1.74,1.74,0,0,1-1.74-1.74V360h3.479v12.178A1.74,1.74,0,0,1,225.74,373.918Z" transform="translate(-190.968 -281.712)"></path><path id="Path_3239" data-name="Path 3239" class="cls-4" d="M191.144,46.959a6.022,6.022,0,0,0-2.718.667,8.662,8.662,0,0,0-15.859-3.69,6.02,6.02,0,0,0-4.6,0,8.708,8.708,0,1,0-.981,10.748,6.019,6.019,0,0,0,6.563,0,8.6,8.6,0,0,0,11.937.579,6.084,6.084,0,1,0,5.659-8.3Z" transform="translate(-134.626 -31.301)"></path><circle id="Ellipse_123" data-name="Ellipse 123" class="cls-5" cx="8.264" cy="8.264" r="8.264" transform="translate(10.633 9.786)"></circle></g><g id="Group_1276" data-name="Group 1276" transform="translate(-6107.212 -3660.408)"><g id="chica" transform="translate(0)"><path id="Path_3240" data-name="Path 3240" class="cls-12" d="M142.31,154.181,142,153.12a1.071,1.071,0,0,0-1.163-.762l-1.083-8.121a8.12,8.12,0,0,0-4.418-6.19l-3.5-1.749a1.026,1.026,0,0,0-1.385.49l-6.993-2.573a3.248,3.248,0,0,1-2.221-3.082V125.9l7-2.915a9.744,9.744,0,0,0,6-8.995v-1.624a4.872,4.872,0,1,0,0-9.745V99.369c0-4.485-3.636-11.369-8.121-11.369H96.878c-4.485,0-8.121,6.884-8.121,11.369v3.248a4.872,4.872,0,1,0,0,9.745v1.624a9.745,9.745,0,0,0,6,9l7,2.915v5.238a3.248,3.248,0,0,1-2.221,3.082l-6.855,2.522a1.019,1.019,0,0,0-1.356-.442l-3.19,1.6a8.292,8.292,0,0,0-4.731,6.347l-1.083,8.121a1.071,1.071,0,0,0-1.163.762l-.31,1.061a1.072,1.072,0,0,0,.728,1.329l2.314.675v4.9a3.248,3.248,0,0,0,3.248,3.248h48.724a3.248,3.248,0,0,0,3.248-3.248v-4.853l2.477-.722A1.072,1.072,0,0,0,142.31,154.181Z" transform="translate(-67.644 -70.135)"></path><path id="Path_3241" data-name="Path 3241" class="cls-7" d="M197.311,274H177.822v5.374a3.247,3.247,0,0,1-1.574,2.781C189.835,284.5,197.311,274,197.311,274Z" transform="translate(-143.715 -218.371)"></path><g id="Group_1247" data-name="Group 1247" transform="translate(14.432 66.053)"><path id="Path_3242" data-name="Path 3242" class="cls-13" d="M146.064,343.14l-1.3-9.729a8.12,8.12,0,0,0-4.418-6.19l-3.5-1.749a1.035,1.035,0,0,0-1.458.683,19.492,19.492,0,0,1-37.611-.006,1.03,1.03,0,0,0-1.451-.679l-3.19,1.6a8.292,8.292,0,0,0-4.731,6.347l-1.322,9.914c4.291,1.478,11.635,3.685,11.635,3.685v6.5h35.731v-6.5Z" transform="translate(-87.087 -325.36)"></path></g><g id="Group_1248" data-name="Group 1248" transform="translate(14.466 71.69)"><path id="Path_3243" data-name="Path 3243" class="cls-14" d="M98.818,368.642a9.726,9.726,0,0,0-1.909-5.35l-7.625-10.166a7.915,7.915,0,0,0-.74,2.413l-1.287,9.656Z" transform="translate(-87.257 -353.125)"></path></g><g id="Group_1249" data-name="Group 1249" transform="translate(13.155 82.214)"><path id="Path_3244" data-name="Path 3244" class="cls-15" d="M80.842,406.8a1.071,1.071,0,0,0,.728,1.329l12.14,3.541v-1.214a9.707,9.707,0,0,0-.3-2.256l-10.934-3.189a1.071,1.071,0,0,0-1.329.728Z" transform="translate(-80.799 -404.965)"></path></g><g id="Group_1250" data-name="Group 1250" transform="translate(61.838 71.69)"><path id="Path_3245" data-name="Path 3245" class="cls-14" d="M320.6,368.642a9.727,9.727,0,0,1,1.909-5.35l7.625-10.166a7.914,7.914,0,0,1,.74,2.413l1.287,9.656Z" transform="translate(-320.598 -353.125)"></path></g><g id="Group_1251" data-name="Group 1251" transform="translate(61.798 82.214)"><path id="Path_3246" data-name="Path 3246" class="cls-15" d="M333.269,406.8a1.072,1.072,0,0,1-.728,1.329l-12.14,3.541v-1.214a9.708,9.708,0,0,1,.3-2.256l10.934-3.189a1.071,1.071,0,0,1,1.329.728Z" transform="translate(-320.4 -404.965)"></path></g><g id="Group_1252" data-name="Group 1252" transform="translate(0 29.234)"><path id="Path_3247" data-name="Path 3247" class="cls-16" d="M33.865,144c-4.872,0-14.617,1.827-14.617,16.241S16,192.724,16,192.724,32.241,191,32.241,171.61c0-18.068,3.248-21.114,3.248-21.114Z" transform="translate(-16 -144)"></path></g><g id="Group_1253" data-name="Group 1253" transform="translate(0 30.858)"><path id="Path_3248" data-name="Path 3248" class="cls-17" d="M32.241,177.986c0-18.068,3.248-21.114,3.248-21.114L32.241,152c-1.878.254-9.065.305-8.121,12.993.947,12.722,5.684,25.58-8.121,34.107C16,199.1,32.241,197.379,32.241,177.986Z" transform="translate(-16 -152)"></path></g><g id="Group_1254" data-name="Group 1254" transform="translate(14.617 27.61)"><path id="Path_3249" data-name="Path 3249" class="cls-14" d="M93.172,142.641l-2.021-5.57a1.624,1.624,0,0,0-3.054,1.108l2.021,5.57a1.624,1.624,0,1,0,3.054-1.108Z" transform="translate(-88 -136)"></path></g><g id="Group_1255" data-name="Group 1255" transform="translate(68.213 29.234)"><path id="Path_3250" data-name="Path 3250" class="cls-16" d="M353.624,144c4.872,0,14.617,1.827,14.617,16.241s3.248,32.482,3.248,32.482S355.248,191,355.248,171.61c0-18.068-3.248-21.114-3.248-21.114Z" transform="translate(-352 -144)"></path></g><g id="Group_1256" data-name="Group 1256" transform="translate(68.213 30.858)"><path id="Path_3251" data-name="Path 3251" class="cls-17" d="M355.248,177.986c0-18.068-3.248-21.114-3.248-21.114L355.248,152c1.878.254,9.065.305,8.121,12.993-.947,12.722-5.684,25.58,8.121,34.107C371.49,199.1,355.248,197.379,355.248,177.986Z" transform="translate(-352 -152)"></path></g><g id="Group_1257" data-name="Group 1257" transform="translate(67.816 27.61)"><path id="Path_3252" data-name="Path 3252" class="cls-14" d="M350.141,142.641l2.021-5.57a1.624,1.624,0,0,1,3.054,1.108l-2.021,5.57a1.624,1.624,0,1,1-3.054-1.108Z" transform="translate(-350.043 -136)"></path></g><path id="Path_3253" data-name="Path 3253" class="cls-18" d="M146.348,102.617V99.369c0-4.485-3.636-11.369-8.121-11.369H108.993c-4.485,0-8.121,6.884-8.121,11.369v3.247a4.872,4.872,0,1,0,0,9.745v1.625a9.745,9.745,0,0,0,6,9l10.494,4.373a16.24,16.24,0,0,0,6.247,1.249h0a16.243,16.243,0,0,0,6.247-1.249l10.495-4.373a9.744,9.744,0,0,0,6-8.995v-1.624a4.872,4.872,0,1,0,0-9.745Z" transform="translate(-79.759 -70.135)"></path><g id="Group_1258" data-name="Group 1258" transform="translate(30.858 34.107)"><path id="Path_3254" data-name="Path 3254" class="cls-8" d="M169.624,172.872h0A1.629,1.629,0,0,1,168,171.248v-1.624A1.629,1.629,0,0,1,169.624,168h0a1.629,1.629,0,0,1,1.624,1.624v1.624A1.629,1.629,0,0,1,169.624,172.872Z" transform="translate(-168 -168)"></path></g><g id="Group_1259" data-name="Group 1259" transform="translate(53.596 34.107)"><path id="Path_3255" data-name="Path 3255" class="cls-8" d="M281.624,172.872h0A1.629,1.629,0,0,1,280,171.248v-1.624A1.629,1.629,0,0,1,281.624,168h0a1.629,1.629,0,0,1,1.624,1.624v1.624A1.629,1.629,0,0,1,281.624,172.872Z" transform="translate(-280 -168)"></path></g><g id="Group_1261" data-name="Group 1261" transform="translate(35.73 45.475)"><g id="Group_1260" data-name="Group 1260" transform="translate(0)"><path id="Path_3256" data-name="Path 3256" class="cls-19" d="M200.12,228.916a13.528,13.528,0,0,1-7.41-1.95,1.624,1.624,0,1,1,1.827-2.685,11.93,11.93,0,0,0,11.166,0,1.624,1.624,0,0,1,1.827,2.685A13.527,13.527,0,0,1,200.12,228.916Z" transform="translate(-191.999 -223.998)"></path></g></g><path id="Path_3257" data-name="Path 3257" class="cls-12" d="M122.2,87c-.281,8.779-21.326,14.821-21.326,14.821a4.872,4.872,0,1,0,0,9.745v1.624a9.745,9.745,0,0,0,6,9l10.494,4.373a16.26,16.26,0,0,0,1.569.558,67.785,67.785,0,0,1-9.534-8.3,7.613,7.613,0,0,1-2.029-5.2v-9.077c4.649-1.623,17.7-6.953,17.865-15.711.013-.664,0-1.271-.025-1.828Z" transform="translate(-79.759 -69.334)"></path><path id="Path_3258" data-name="Path 3258" class="cls-16" d="M131.674,0c-5.278,0-8.121,1.624-8.121,1.624S120.711,0,115.433,0,90.123,10.162,97.567,33.712c0,0,25.986-4.613,25.986-15.846,0,11.233,25.986,15.846,25.986,15.846C156.983,10.162,136.952,0,131.674,0Z" transform="translate(-79.702)"></path><g id="Group_1262" data-name="Group 1262" transform="translate(16.227)"><path id="Path_3259" data-name="Path 3259" class="cls-17" d="M123.554,1.625h0S120.711,0,115.433,0,90.124,10.162,97.568,33.712c0,0,3.146-.56,7.246-1.76C100.225,10.835,118.517,1.641,123.554,1.625Z" transform="translate(-95.929)"></path></g><g id="Group_1263" data-name="Group 1263" transform="translate(42.227 89.327)"><circle id="Ellipse_124" data-name="Ellipse 124" class="cls-20" cx="1.624" cy="1.624" r="1.624"></circle></g><g id="Group_1264" data-name="Group 1264" transform="translate(29.234 89.327)"><circle id="Ellipse_125" data-name="Ellipse 125" class="cls-20" cx="1.624" cy="1.624" r="1.624"></circle></g><g id="Group_1265" data-name="Group 1265" transform="translate(55.22 89.327)"><circle id="Ellipse_126" data-name="Ellipse 126" class="cls-20" cx="1.624" cy="1.624" r="1.624"></circle></g><g id="Group_1266" data-name="Group 1266" transform="translate(48.724 89.327)"><circle id="Ellipse_127" data-name="Ellipse 127" class="cls-21" cx="1.624" cy="1.624" r="1.624"></circle></g><g id="Group_1267" data-name="Group 1267" transform="translate(35.731 89.327)"><circle id="Ellipse_128" data-name="Ellipse 128" class="cls-21" cx="1.624" cy="1.624" r="1.624"></circle></g><g id="Group_1268" data-name="Group 1268" transform="translate(45.475 84.454)"><circle id="Ellipse_129" data-name="Ellipse 129" class="cls-21" cx="1.624" cy="1.624" r="1.624"></circle></g><g id="Group_1269" data-name="Group 1269" transform="translate(32.482 84.454)"><circle id="Ellipse_130" data-name="Ellipse 130" class="cls-21" cx="1.624" cy="1.624" r="1.624" transform="translate(0)"></circle></g><g id="Group_1270" data-name="Group 1270" transform="translate(58.468 84.454)"><circle id="Ellipse_131" data-name="Ellipse 131" class="cls-21" cx="1.624" cy="1.624" r="1.624"></circle></g><g id="Group_1271" data-name="Group 1271" transform="translate(25.986 84.454)"><circle id="Ellipse_132" data-name="Ellipse 132" class="cls-20" cx="1.624" cy="1.624" r="1.624"></circle></g><g id="Group_1272" data-name="Group 1272" transform="translate(51.972 84.454)"><circle id="Ellipse_133" data-name="Ellipse 133" class="cls-20" cx="1.624" cy="1.624" r="1.624"></circle></g><g id="Group_1273" data-name="Group 1273" transform="translate(38.979 84.454)"><circle id="Ellipse_134" data-name="Ellipse 134" class="cls-20" cx="1.624" cy="1.624" r="1.624"></circle></g></g><g id="Group_1275" data-name="Group 1275" transform="translate(64.254 20.053)"><g id="Group_1274" data-name="Group 1274" transform="translate(0)"><path id="Path_3260" data-name="Path 3260" class="cls-22" d="M123.322,69.3l-2.047,2.809a1.742,1.742,0,0,1-3-.32l-1.511-3.407-.256-.576-2.989-2.179-.627-.067-3.7-.395a1.742,1.742,0,0,1-1.224-2.758l2.046-2.809a1.743,1.743,0,0,1,3,.32l1.511,3.407.256.576,2.988,2.179.628.067,3.7.4A1.741,1.741,0,0,1,123.322,69.3Z" transform="translate(-107.627 -58.878)"></path><path id="Path_3261" data-name="Path 3261" class="cls-23" d="M161.367,102.409a2.767,2.767,0,0,1-1.63,2.235l-.256-.576-2.989-2.179-.627-.067a2.766,2.766,0,0,1,1.63-2.235l.256.576,2.988,2.179Z" transform="translate(-150.6 -95.144)"></path><circle id="Ellipse_135" data-name="Ellipse 135" class="cls-22" cx="2.136" cy="2.136" r="2.136" transform="translate(5.88 4.837)"></circle><path id="Path_3262" data-name="Path 3262" class="cls-23" d="M162.508,105.323a2.135,2.135,0,0,1,1.633-2.074,2.136,2.136,0,1,0,0,4.147A2.135,2.135,0,0,1,162.508,105.323Z" transform="translate(-155.622 -98.351)"></path></g></g></g></g></g></svg>