<svg xmlns="http://www.w3.org/2000/svg" xmlns:xlink="http://www.w3.org/1999/xlink" viewBox="0 0 157.046 157.046"><defs><style>
      .cls-1 {
        fill: #fff;
      }

      .cls-2 {
        clip-path: url(#clip-path);
      }

      .cls-3 {
        fill: #d59f63;
      }

      .cls-4 {
        fill: #cd915a;
      }

      .cls-5 {
        fill: #fad7a5;
      }

      .cls-6 {
        fill: #f0c891;
      }

      .cls-7 {
        fill: #ffe1b4;
      }

      .cls-8 {
        fill: #fad098;
      }

      .cls-9 {
        fill: #d7af7d;
      }

      .cls-10 {
        fill: #64463c;
      }

      .cls-11 {
        fill: #ff507d;
      }

      .cls-12 {
        fill: #d23c69;
      }

      .cls-13 {
        fill: #b48764;
      }

      .cls-14 {
        fill: #966d50;
      }

      .cls-15 {
        fill: #00aaf0;
      }

      .cls-16 {
        fill: #0096dc;
      }

      .cls-17 {
        fill: #c39772;
      }

      .cls-18 {
        fill: #553732;
      }

      .cls-19 {
        fill: #e6af78;
      }

      .cls-20 {
        fill: #d29b6e;
      }

      .cls-21 {
        fill: #f0c087;
      }

      .cls-22 {
        fill: #ffdc64;
      }

      .cls-23 {
        fill: #ffc850;
      }
    </style><clipPath id="clip-path"><rect id="Rectangle_206" data-name="Rectangle 206" class="cls-1" width="157.046" height="157.046"></rect></clipPath></defs><g id="Mask_Group_1" data-name="Mask Group 1" class="cls-2"><g id="familia" transform="translate(1.765 15.881)"><path id="Path_1472" data-name="Path 1472" class="cls-3" d="M314.438,57.379h0A29.292,29.292,0,0,1,343.73,86.671h0a302.125,302.125,0,0,0,2.663,37.28A94.057,94.057,0,0,1,314.439,134.6a94.065,94.065,0,0,1-31.955-10.651,302.135,302.135,0,0,0,2.663-37.28h0a29.291,29.291,0,0,1,29.291-29.292Z" transform="translate(-197.271 -46.727)"></path><path id="Path_1473" data-name="Path 1473" class="cls-4" d="M303.785,84.008V76.019A18.642,18.642,0,0,1,318.8,57.738a29.36,29.36,0,0,0-4.359-.359h0a29.292,29.292,0,0,0-29.292,29.292,302.132,302.132,0,0,1-2.663,37.28A94.058,94.058,0,0,0,314.437,134.6V94.66Z" transform="translate(-197.27 -46.727)"></path><path id="Path_1474" data-name="Path 1474" class="cls-5" d="M334.366,291.2l-18.26-7.3a5.326,5.326,0,0,1-3.348-4.945v-9.709h-21.3v9.709a5.326,5.326,0,0,1-3.348,4.945l-18.26,7.3a7.989,7.989,0,0,0-5.022,7.417v10.569a2.663,2.663,0,0,0,2.663,2.663h0v23.966h66.573a2.663,2.663,0,0,0,2.663-2.663v-21.3h0a2.663,2.663,0,0,0,2.663-2.663V298.616A7.989,7.989,0,0,0,334.366,291.2Z" transform="translate(-184.94 -194.681)"></path><g id="Group_483" data-name="Group 483" transform="translate(106.515 74.562)"><path id="Path_1475" data-name="Path 1475" class="cls-6" d="M472.348,401.655v7.989h-2.663a2.663,2.663,0,0,0-2.663,2.663v15.978h-7.989V401.655h13.315Z" transform="translate(-427.078 -361.712)"></path><path id="Path_1476" data-name="Path 1476" class="cls-6" d="M353.1,277.86a28.9,28.9,0,0,0,21.3,0v-8.617H353.1v8.617Z" transform="translate(-353.102 -269.243)"></path></g><path id="Path_1477" data-name="Path 1477" class="cls-7" d="M332.932,184.656h0a23.966,23.966,0,0,1-23.966-23.966v-8.21a2.653,2.653,0,0,1,2.258-2.612c6.114-.95,9.075-5.662,10.309-8.434a1.571,1.571,0,0,1,2.391-.621c11.282,8.512,32.975,2.143,32.975,19.877h0A23.966,23.966,0,0,1,332.932,184.656Z" transform="translate(-215.765 -104.769)"></path><path id="Path_1478" data-name="Path 1478" class="cls-8" d="M322.279,161.16V141.166a1.532,1.532,0,0,0-.748.739c-1.234,2.772-4.2,7.484-10.309,8.434a2.653,2.653,0,0,0-2.258,2.612v8.21a23.926,23.926,0,0,0,30.623,23.009A23.962,23.962,0,0,1,322.279,161.16Z" transform="translate(-215.764 -105.239)"></path><path id="Path_1479" data-name="Path 1479" class="cls-9" d="M369.919,233.093a9.548,9.548,0,0,1-7.393-3.648,2.662,2.662,0,1,1,4.135-3.355,4.083,4.083,0,0,0,6.517,0,2.662,2.662,0,1,1,4.135,3.355A9.547,9.547,0,0,1,369.919,233.093Z" transform="translate(-252.752 -163.858)"></path><g id="Group_484" data-name="Group 484" transform="translate(103.853 47.932)"><path id="Path_1480" data-name="Path 1480" class="cls-10" d="M417.559,188.953a2.663,2.663,0,0,1-2.663-2.663v-2.663a2.663,2.663,0,0,1,5.326,0v2.663A2.662,2.662,0,0,1,417.559,188.953Z" transform="translate(-393.593 -180.964)"></path><path id="Path_1481" data-name="Path 1481" class="cls-10" d="M346.938,188.953a2.662,2.662,0,0,1-2.663-2.663v-2.663a2.663,2.663,0,1,1,5.326,0v2.663A2.662,2.662,0,0,1,346.938,188.953Z" transform="translate(-344.275 -180.964)"></path></g><path id="Path_1482" data-name="Path 1482" class="cls-11" d="M334.367,331.512l-11.359-4.543a21.3,21.3,0,0,1-41.8,0l-11.359,4.543a7.989,7.989,0,0,0-5.022,7.417v37.2h61.247V352.162h10.651a2.663,2.663,0,0,0,2.663-2.663V338.93A7.989,7.989,0,0,0,334.367,331.512Z" transform="translate(-184.941 -234.994)"></path><g id="Group_485" data-name="Group 485" transform="translate(91.268 91.975)"><path id="Path_1483" data-name="Path 1483" class="cls-12" d="M349.356,326.969a21.3,21.3,0,0,1-41.8,0l-5,2a26.6,26.6,0,0,0,51.8,0Z" transform="translate(-302.556 -326.969)"></path><path id="Path_1484" data-name="Path 1484" class="cls-12" d="M467.862,367.015a5.326,5.326,0,0,1,1.56-3.766l10.543-10.543a7.963,7.963,0,0,1,1.211,4.2v10.569a2.663,2.663,0,0,1-2.663,2.663H467.862v-3.12Z" transform="translate(-417.996 -344.942)"></path></g><path id="Path_1485" data-name="Path 1485" class="cls-13" d="M24.8,409.79H11.49a2.663,2.663,0,0,1-2.663-2.663V375.172H24.8Z" transform="translate(-6.164 -268.656)"></path><g id="Group_486" data-name="Group 486" transform="translate(2.663 106.516)"><path id="Path_1486" data-name="Path 1486" class="cls-14" d="M8.828,392.828v5.326h5.326a2.663,2.663,0,0,1,2.663,2.663v21.3h7.989V392.828H8.828Z" transform="translate(-8.828 -387.502)"></path><rect id="Rectangle_131" data-name="Rectangle 131" class="cls-14" width="15.978" height="34.618" transform="translate(58.582)"></rect></g><path id="Path_1487" data-name="Path 1487" class="cls-15" d="M74,266.8l-23.405-6.383h-21.3L5.887,266.8A7.989,7.989,0,0,0,0,274.5v23.19a2.663,2.663,0,0,0,2.663,2.663H15.977v29.292H63.91V294.365H79.887V274.5A7.989,7.989,0,0,0,74,266.8Z" transform="translate(0 -188.515)"></path><path id="Path_1488" data-name="Path 1488" class="cls-16" d="M94.239,260.414h-21.3L62.5,263.261a21.279,21.279,0,0,0,42.182,0Z" transform="translate(-43.644 -188.516)"></path><path id="Path_1489" data-name="Path 1489" class="cls-13" d="M88.276,229.517v9.32a13.314,13.314,0,0,0,26.629,0v-9.32Z" transform="translate(-61.647 -166.939)"></path><path id="Path_1490" data-name="Path 1490" class="cls-14" d="M88.276,235.612a29.1,29.1,0,0,0,26.629,0v-6.1H88.276Z" transform="translate(-61.647 -166.939)"></path><path id="Path_1491" data-name="Path 1491" class="cls-17" d="M88.569,91.012V75.034H40.637V91.012a5.326,5.326,0,0,0,0,10.651,23.966,23.966,0,1,0,47.932,0,5.326,5.326,0,1,0,0-10.651Z" transform="translate(-24.659 -59.056)"></path><path id="Path_1492" data-name="Path 1492" class="cls-13" d="M53.951,101.663V75.034H40.637V91.012a5.326,5.326,0,0,0,0,10.651A23.926,23.926,0,0,0,71.26,124.672,23.962,23.962,0,0,1,53.951,101.663Z" transform="translate(-24.659 -59.056)"></path><path id="Path_1493" data-name="Path 1493" class="cls-14" d="M113.919,188.957a9.548,9.548,0,0,1-7.393-3.649,2.662,2.662,0,1,1,4.135-3.355,4.083,4.083,0,0,0,6.517,0,2.662,2.662,0,1,1,4.135,3.355A9.547,9.547,0,0,1,113.919,188.957Z" transform="translate(-73.976 -133.036)"></path><g id="Group_487" data-name="Group 487" transform="translate(26.629 34.617)"><path id="Path_1494" data-name="Path 1494" class="cls-18" d="M90.938,144.815a2.662,2.662,0,0,1-2.663-2.663v-2.663a2.663,2.663,0,1,1,5.326,0v2.663A2.662,2.662,0,0,1,90.938,144.815Z" transform="translate(-88.275 -136.826)"></path><path id="Path_1495" data-name="Path 1495" class="cls-18" d="M161.559,144.815a2.662,2.662,0,0,1-2.663-2.663v-2.663a2.663,2.663,0,1,1,5.326,0v2.663A2.662,2.662,0,0,1,161.559,144.815Z" transform="translate(-137.593 -136.826)"></path></g><path id="Path_1496" data-name="Path 1496" class="cls-10" d="M88.692,51.488A4.484,4.484,0,0,0,93.839,54.1a5.154,5.154,0,0,1,.894-.078,5.271,5.271,0,0,1,2.663.739V38.046A10.605,10.605,0,0,0,91.944,28.8a7.97,7.97,0,0,0-7.862-6.734h-21.3a18.64,18.64,0,0,0-18.64,18.64V54.761a5.27,5.27,0,0,1,2.663-.739,5.16,5.16,0,0,1,1,.1,4.922,4.922,0,0,0,5.84-3.485h0l.655-2.619A2.649,2.649,0,0,1,56.792,46c4.954-.134,18.033-.791,26.95-4.018A2.658,2.658,0,0,1,87.3,44.028l1,5.982A7.8,7.8,0,0,0,88.692,51.488Z" transform="translate(-30.824 -22.068)"></path><path id="Path_1497" data-name="Path 1497" class="cls-18" d="M60.115,38.046A15.977,15.977,0,0,1,76.093,22.068H62.778a18.64,18.64,0,0,0-18.64,18.64V54.761a5.27,5.27,0,0,1,2.663-.739,5.157,5.157,0,0,1,1,.1,4.922,4.922,0,0,0,5.84-3.485l.655-2.619A2.649,2.649,0,0,1,56.792,46c.874-.024,2.011-.065,3.324-.132V38.046Z" transform="translate(-30.824 -22.068)"></path><path id="Path_1498" data-name="Path 1498" class="cls-16" d="M0,294.775v23.19a2.663,2.663,0,0,0,2.663,2.663H15.977v-8.746a13.315,13.315,0,0,0-2.8-8.174l-11.1-14.267A7.955,7.955,0,0,0,0,294.775Z" transform="translate(0 -208.786)"></path><path id="Path_1499" data-name="Path 1499" class="cls-19" d="M227.85,413.149l-8.694-2.9a2.663,2.663,0,0,1-1.821-2.526v-6.069H201.358v6.069a2.662,2.662,0,0,1-1.821,2.526l-8.694,2.9a7.989,7.989,0,0,0-5.462,7.579v4.894a2.663,2.663,0,0,0,2.663,2.663H230.65a2.663,2.663,0,0,0,2.663-2.663v-4.894A7.99,7.99,0,0,0,227.85,413.149Z" transform="translate(-129.46 -287.151)"></path><path id="Path_1500" data-name="Path 1500" class="cls-20" d="M238.184,401.655v6.069a2.6,2.6,0,0,1-.07.439,22.757,22.757,0,0,0,7.325,1.47c.244.007.49.011.733.011a23.8,23.8,0,0,0,8.067-1.426,2.6,2.6,0,0,1-.078-.493v-6.069Z" transform="translate(-166.285 -287.15)"></path><path id="Path_1501" data-name="Path 1501" class="cls-10" d="M209.346,216.276h0a23.966,23.966,0,0,0-23.966,23.966v7.989h47.932v-7.989A23.966,23.966,0,0,0,209.346,216.276Z" transform="translate(-129.459 -157.692)"></path><path id="Path_1502" data-name="Path 1502" class="cls-18" d="M217.334,217.669a23.913,23.913,0,0,0-31.955,22.573v7.989h15.977v-7.989A23.955,23.955,0,0,1,217.334,217.669Z" transform="translate(-129.458 -157.692)"></path><path id="Path_1503" data-name="Path 1503" class="cls-21" d="M227.986,287.07v-2.306a5.293,5.293,0,0,0-7.651-4.705,77.254,77.254,0,0,1-29.63,7.011,5.326,5.326,0,1,0,0,10.651V299.6c0,10.206,7.865,19.107,18.067,19.413a18.64,18.64,0,0,0,19.214-18.631v-2.663a5.326,5.326,0,1,0,0-10.651Z" transform="translate(-129.459 -201.857)"></path><path id="Path_1504" data-name="Path 1504" class="cls-22" d="M241.962,201l-14.121,6.052L213.719,201a1.331,1.331,0,0,0-1.856,1.224v11.939a1.331,1.331,0,0,0,1.856,1.224l14.121-6.052,14.121,6.052a1.331,1.331,0,0,0,1.856-1.224V202.228A1.332,1.332,0,0,0,241.962,201Z" transform="translate(-147.953 -146.951)"></path><path id="Path_1505" data-name="Path 1505" class="cls-19" d="M201.357,315.29V300.863a70.053,70.053,0,0,1-10.652,1.113,5.326,5.326,0,0,0,0,10.651v1.881c0,10.207,7.865,19.107,18.067,19.413a18.654,18.654,0,0,0,5.9-.773A18.641,18.641,0,0,1,201.357,315.29Z" transform="translate(-129.459 -216.763)"></path><path id="Path_1506" data-name="Path 1506" class="cls-20" d="M246.333,365.509a9.548,9.548,0,0,1-7.393-3.648,2.662,2.662,0,1,1,4.135-3.355,4.083,4.083,0,0,0,6.517,0,2.662,2.662,0,1,1,4.135,3.355A9.548,9.548,0,0,1,246.333,365.509Z" transform="translate(-166.446 -256.33)"></path><g id="Group_488" data-name="Group 488" transform="translate(69.235 90.572)"><path id="Path_1507" data-name="Path 1507" class="cls-18" d="M232.181,327.61a2.637,2.637,0,1,1,1.89-.772A2.8,2.8,0,0,1,232.181,327.61Z" transform="translate(-229.518 -322.318)"></path><path id="Path_1508" data-name="Path 1508" class="cls-18" d="M285.146,327.61a2.8,2.8,0,0,1-1.89-.772,2.489,2.489,0,0,1-.559-.879,2.508,2.508,0,0,1,0-2.024,2.476,2.476,0,0,1,.559-.878,2.787,2.787,0,0,1,3.781,0,2.729,2.729,0,0,1,.559.878,2.662,2.662,0,0,1,.213,1.013,2.637,2.637,0,0,1-2.663,2.663Z" transform="translate(-266.506 -322.318)"></path></g><path id="Path_1509" data-name="Path 1509" class="cls-22" d="M227.85,436.406l-4.342-1.447a15.964,15.964,0,0,1-28.322,0l-4.342,1.447a7.989,7.989,0,0,0-5.462,7.579v4.894a2.663,2.663,0,0,0,2.663,2.663H230.65a2.663,2.663,0,0,0,2.663-2.663v-4.894A7.99,7.99,0,0,0,227.85,436.406Z" transform="translate(-129.46 -310.408)"></path><circle id="Ellipse_56" data-name="Ellipse 56" class="cls-23" cx="3.994" cy="3.994" r="3.994" transform="translate(75.893 57.252)"></circle></g></g></svg>