<svg xmlns="http://www.w3.org/2000/svg" xmlns:xlink="http://www.w3.org/1999/xlink" viewBox="0 0 395 395"><defs><style>
      .cls-1 {
        fill: #4d4d4d;
      }

      .cls-2 {
        clip-path: url(#clip-path);
      }

      .cls-3 {
        fill: #ffb9b2;
      }

      .cls-4 {
        fill: #4f5984;
      }

      .cls-5 {
        fill: #7c8e9f;
      }

      .cls-6 {
        fill: #cf887c;
      }

      .cls-7 {
        fill: #e4b284;
      }

      .cls-8 {
        fill: #e6ad86;
      }

      .cls-9 {
        fill: #41444b;
      }

      .cls-10 {
        fill: #393b43;
      }

      .cls-11 {
        fill: #ddd7dc;
      }

      .cls-12 {
        fill: #8ea3b8;
      }

      .cls-13, .cls-14 {
        fill: #fbf3f9;
      }

      .cls-13 {
        opacity: 0.28;
      }

      .cls-15 {
        fill: #3e2b24;
      }

      .cls-16 {
        fill: #63493e;
      }

      .cls-17, .cls-21, .cls-23, .cls-25 {
        fill: none;
        stroke-miterlimit: 10;
      }

      .cls-17 {
        stroke: #3e2b24;
      }

      .cls-18 {
        fill: #414858;
      }

      .cls-19 {
        fill: #353c4a;
      }

      .cls-20 {
        fill: #2d3341;
      }

      .cls-21 {
        stroke: #eecb6c;
      }

      .cls-21, .cls-23 {
        stroke-linecap: round;
        stroke-linejoin: round;
      }

      .cls-22 {
        fill: #b27879;
      }

      .cls-23 {
        stroke: #c36942;
        stroke-width: 4px;
      }

      .cls-24 {
        fill: #75392c;
      }

      .cls-25 {
        stroke: #7d2e40;
      }

      .cls-26 {
        fill: #7d2e40;
      }

      .cls-27 {
        fill: #b26760;
      }

      .cls-28 {
        fill: #eaeaec;
      }

      .cls-29 {
        fill: #e7bba5;
      }

      .cls-30 {
        fill: #cecdcd;
      }
    </style><clipPath id="clip-path"><rect id="Rectangle_234" data-name="Rectangle 234" class="cls-1" width="395" height="395" transform="translate(-3344 -4699)"></rect></clipPath></defs><g id="Mask_Group_23" data-name="Mask Group 23" class="cls-2" transform="translate(3344 4699)"><g id="Group_1236" data-name="Group 1236" transform="translate(-3286 -4668.483)"><ellipse id="Ellipse_118" data-name="Ellipse 118" class="cls-3" cx="138.597" cy="138.597" rx="138.597" ry="138.597" transform="translate(0 27.061)"></ellipse><g id="Group_1234" data-name="Group 1234" transform="translate(8.105 0)"><path id="Path_560" data-name="Path 560" class="cls-4" d="M165.12,89.21c7.32,1.492,12.51,6.259,25.144,14.41s50.579,22.168,56.246,21.922,6,4.475,6,4.475l-3.176,16.916s-32.148-12.149-53.87-18.985-30.334-15.863-30.334-15.863V89.21Z" transform="translate(-38.156 -20.619)"></path><path id="Path_561" data-name="Path 561" class="cls-5" d="M178.815,107.7c-21.93,0-24.059,11.242-31.872,17.885-11.449,9.734-17.9,12.418-21.322,12.972-4.152.677-30.572,2.991-41.091,1.1,0,0,2.091,8.473-.031,13.21,0,0,28.442,7.428,48.449,5.39,10.542-1.076,27.458-16.309,27.458-16.309s0-.054-.008-.154c3.945-2.553,8.966-6.09,11.349-8.489C182.591,122.386,184.475,107.7,178.815,107.7Z" transform="translate(-19.526 -24.892)"></path><path id="Path_562" data-name="Path 562" class="cls-6" d="M254.174,307.759c-1.146-4.86.6-22.629.6-22.629L236.3,287.222a42.581,42.581,0,0,0-.154,14.248C237.343,309.866,254.174,307.759,254.174,307.759Z" transform="translate(-54.456 -65.893)"></path><path id="Path_563" data-name="Path 563" class="cls-6" d="M207.034,307.759c-1.146-4.86.6-22.629.6-22.629l-18.469,2.091a42.582,42.582,0,0,0-.154,14.248C190.21,309.866,207.034,307.759,207.034,307.759Z" transform="translate(-43.562 -65.893)"></path><path id="Path_564" data-name="Path 564" class="cls-7" d="M229.576,89.13l.523,11a70.786,70.786,0,0,0,11.541,2.445s6.505,41.245-27.381,44.013c-25.774,2.1-12.064-40.976-12.064-40.976l9.727-6.551,2.022-8.65Z" transform="translate(-45.882 -20.601)"></path><path id="Path_565" data-name="Path 565" class="cls-6" d="M215.71,98.316l2.2-7.92,15.632-1.276.454,9.781C230.758,99.869,221.185,100.9,215.71,98.316Z" transform="translate(-49.847 -20.598)"></path><g id="Group_178" data-name="Group 178" transform="translate(131.222 235.961)"><path id="Path_566" data-name="Path 566" class="cls-8" d="M208.546,312.785l-7.612-5.905c-.961,2.722-3.4,4.613-5.229,6.828-2.461,15.893,3.106,45.181.023,66.534l11.019,7.651s1.638-21.36,4.483-39.891C214.452,327.118,208.546,312.785,208.546,312.785Z" transform="translate(-176.297 -306.88)"></path><path id="Path_567" data-name="Path 567" class="cls-8" d="M180.81,420.316l-1.73-4.637,9.212-6.12a8.692,8.692,0,0,0,3.752-7.259l11.549,6.213,1.2,4.383-1.346,2.945-8.074,1.023Z" transform="translate(-172.604 -328.93)"></path><path id="Path_568" data-name="Path 568" class="cls-9" d="M177.126,417.546s8.02.846,13.94-.254c7.113-1.323,10.749-2.914,10.98-4.183a5.535,5.535,0,0,0-.408-2.73A2.139,2.139,0,0,1,203.308,412c.531,1.523,1.23,8.343.7,10.819s-11.9,1.407-14.971,2.168l-14.379.292c-1.061.008-5.605,0-3.406-3.1C172.351,420.66,177.126,417.546,177.126,417.546Z" transform="translate(-170.658 -330.797)"></path></g><path id="Path_569" data-name="Path 569" class="cls-6" d="M209.71,320.68l-15.97,9.35c.454,3.222,1.184,8.85,1.584,12.495,1.922,1.192,13.625,6.513,15.532,6.928C211.679,338.673,210.971,325.609,209.71,320.68Z" transform="translate(-44.77 -74.108)"></path><g id="Group_179" data-name="Group 179" transform="translate(169.437 235.961)"><path id="Path_570" data-name="Path 570" class="cls-8" d="M258.246,312.785l-7.612-5.905c-.961,2.722-3.4,4.613-5.229,6.828-2.461,15.893,3.106,45.181.023,66.534l11.019,7.651s1.638-21.36,4.483-39.891C264.144,327.118,258.246,312.785,258.246,312.785Z" transform="translate(-225.997 -306.88)"></path><path id="Path_571" data-name="Path 571" class="cls-8" d="M230.51,420.316l-1.73-4.637,9.212-6.12a8.692,8.692,0,0,0,3.752-7.259l11.549,6.213,1.2,4.383-1.346,2.945-8.074,1.023Z" transform="translate(-222.305 -328.93)"></path><path id="Path_572" data-name="Path 572" class="cls-9" d="M226.826,417.546s8.02.846,13.94-.254c7.113-1.323,10.749-2.914,10.98-4.183a5.535,5.535,0,0,0-.407-2.73A2.14,2.14,0,0,1,253.008,412c.531,1.523,1.23,8.343.7,10.819s-11.9,1.407-14.971,2.168l-14.379.292c-1.061.008-5.605,0-3.406-3.1C222.051,420.66,226.826,417.546,226.826,417.546Z" transform="translate(-220.358 -330.797)"></path></g><path id="Path_573" data-name="Path 573" class="cls-6" d="M259.41,320.68l-15.97,9.35c.454,3.222.9,11.242,1.3,14.879,1.922,1.192,5.083,2,10.319,3.16q3.426.761,6.3,1.384C262.171,338.673,260.671,325.609,259.41,320.68Z" transform="translate(-56.255 -74.108)"></path><path id="Path_574" data-name="Path 574" class="cls-9" d="M189.447,209.73s33.225,7.9,61.567,2.791c0,0,9.3,53.855.231,101.943-.446,6.167-23.99,11.634-65.035-2Z" transform="translate(-43.03 -48.469)"></path><path id="Path_575" data-name="Path 575" class="cls-10" d="M211.124,210.34l-19.584,22.5s14.063,2.73,31.256,5.513a106.66,106.66,0,0,0,32.456,0l-5.036-20.815Z" transform="translate(-44.262 -48.61)"></path><path id="Path_576" data-name="Path 576" class="cls-11" d="M188.965,204.366c7.443,4.521,44.7,12.587,66.373-.338-.438-7.635-7.9-27.789-10.073-33.048-5.19-12.549-.523-18.123,1.038-30.664s2.391-26.666,2.391-26.666c-5.39-4.829-21.322-10.219-21.322-10.219s3.176,9.658-10.734,10.419c-6.228.338-5.206.085-6.951-2.353-4.575-6.405-1.507-7.9-1.507-7.9s-16.37,4.191-18.07,6.351-2.806,13.31-3.329,24.928C186.274,146.212,192.579,178.938,188.965,204.366Z" transform="translate(-43.155 -23.905)"></path><path id="Path_577" data-name="Path 577" class="cls-12" d="M200.7,106.06s-4.444,10.373-3.237,25.244,2.407,65.627,2.407,65.627-.6,11.149-15.632,13.471c0,0-1.169-55.946-.338-71.771.976-18.569-2.622-25.628,1.653-28.188C186.677,109.766,194.128,106.337,200.7,106.06Z" transform="translate(-42.382 -24.513)"></path><path id="Path_578" data-name="Path 578" class="cls-7" d="M366.981,50.325A16.072,16.072,0,0,1,362.6,53.7a46.153,46.153,0,0,0,4.613-5.636c1.869-2.668,1.522-4.206.4-3.891s-1.323,1-3.968,3.629a37.193,37.193,0,0,1-3.906,2.983s1.061-1.853,2.6-4.1a22.181,22.181,0,0,0,2.814-5.167c.869-2.091.046-2.614-1.315-2.1s-1.269,1.722-3.56,4.983a23.916,23.916,0,0,1-3.129,3.937s1.622-3.106,2.491-5.2,1.553-3.445.323-4.221-2.053.884-3.16,3.168a48.741,48.741,0,0,1-4.514,6.851c-2.038,2.845-3.745,2.453-3.745,2.453a8.917,8.917,0,0,1,.4-3.891c.7-2.545-2.153-2.4-3.045-.092a37.094,37.094,0,0,0-1.891,9.742c-.038,2.007-.884,6.436-.446,8.028-3.875,4.267-8.466,7.681-12.441,11.088C324.66,81.8,318.447,87.848,311.457,91.4c-8.75,4.444-18.4,5.475-25.5,7.2l1.407,16.839s11.78-2.368,27.535-11.849,15.894-12.01,24.182-20.115a179.211,179.211,0,0,0,13.372-15.309c1.569-1.261,3.583-2.153,5.467-3.829,2.637-2.353,4.337-6,6.136-7.774A61.128,61.128,0,0,0,368.449,52C370.441,49.587,368.949,48.126,366.981,50.325Z" transform="translate(-66.08 -8.954)"></path><path id="Path_579" data-name="Path 579" class="cls-12" d="M343.941,81.608s-4.675,5.4-15.548,15.855q-4.083,3.956-9.388,8.843c-7.774,7.182-23.675,15.194-23.675,15.194s-9.873,4.567-13.049,5.767a27.378,27.378,0,0,1-11.8,1.922c.054,1.161.092,2.276.092,3.345v72.132a104.737,104.737,0,0,1-14.317-.423s-.015-.008-.023,0a16.153,16.153,0,0,1-2.461-.507c-4.483-1.392-9.335-6.044-8.95-16.263.277-7.551.138-33.863.354-53.309.077-6.913.192-12.956.392-16.97.746-15.34,0-18.592-1.845-19.377,0,0,2.245-1.515,9.7,1.153h.015c.4-.038.823-.062,1.276-.069,8.966-.192,27.058,5.39,32.779,2.922,10.311-4.444,17.208-6.751,22.422-9.681,3.66-2.061,19.961-13.817,23.89-18.992C333.8,73.142,338.766,81.193,343.941,81.608Z" transform="translate(-56.319 -16.908)"></path><rect id="Rectangle_22" data-name="Rectangle 22" class="cls-5" width="14.34" height="4.244" transform="translate(194.036 151.941)"></rect><rect id="Rectangle_23" data-name="Rectangle 23" class="cls-5" width="11.711" height="4.244" transform="translate(142.496 151.941)"></rect><path id="Path_580" data-name="Path 580" class="cls-5" d="M250.353,125.475c-4.6,11.349-2.822,29.426-5.836,26.651.077-6.913.846-23.5,1.038-27.512.746-15.34,0-18.592-1.845-19.377C243.71,105.229,258.965,104.191,250.353,125.475Z" transform="translate(-56.317 -24.32)"></path><path id="Path_581" data-name="Path 581" class="cls-5" d="M197.148,126.313c4.6,11.349.592,29.711,3.606,26.935-.077-6.913,1.384-23.783,1.184-27.8-.746-15.34,0-18.592,1.845-19.377C203.792,106.068,188.536,105.03,197.148,126.313Z" transform="translate(-44.949 -24.513)"></path><rect id="Rectangle_24" data-name="Rectangle 24" class="cls-13" width="7.228" height="99.913" transform="translate(169.454 87.914)"></rect><path id="Path_582" data-name="Path 582" class="cls-14" d="M223.95,113.065s9.258-.838,13.256-9.435c0,0,9.2,4.1,1.261,13.21S223.95,113.065,223.95,113.065Z" transform="translate(-51.751 -23.951)"></path><path id="Path_583" data-name="Path 583" class="cls-14" d="M221.107,112s-8.558-3.406-6.836-9.973c0,0-8.8,6.059-4.237,13.725C215.617,125.105,221.107,112,221.107,112Z" transform="translate(-48.232 -23.582)"></path><ellipse id="Ellipse_20" data-name="Ellipse 20" class="cls-14" cx="2.084" cy="2.084" rx="2.084" ry="2.084" transform="matrix(0.948, -0.318, 0.318, 0.948, 171.826, 94.834)"></ellipse><path id="Path_584" data-name="Path 584" class="cls-14" d="M225.712,150.833A2.083,2.083,0,1,1,227.5,148.5,2.085,2.085,0,0,1,225.712,150.833Z" transform="translate(-51.614 -33.901)"></path><path id="Path_585" data-name="Path 585" class="cls-14" d="M224.892,175.173a2.083,2.083,0,1,1,1.792-2.338A2.085,2.085,0,0,1,224.892,175.173Z" transform="translate(-51.424 -39.525)"></path><path id="Path_586" data-name="Path 586" class="cls-14" d="M224.062,199.523a2.083,2.083,0,1,1,1.792-2.338A2.085,2.085,0,0,1,224.062,199.523Z" transform="translate(-51.232 -45.152)"></path><path id="Path_587" data-name="Path 587" class="cls-14" d="M223.232,223.863a2.083,2.083,0,1,1,1.792-2.338A2.085,2.085,0,0,1,223.232,223.863Z" transform="translate(-51.04 -50.777)"></path><path id="Path_588" data-name="Path 588" class="cls-5" d="M331.375,104.78q-4.094,3.945-9.381,8.827c-7.781,7.182-23.683,15.2-23.683,15.2s-9.873,4.567-13.048,5.767a27.427,27.427,0,0,1-11.811,1.922c.061,1.153.1,2.268.1,3.337v72.132a104.728,104.728,0,0,1-14.317-.423s-.015-.015-.023,0c-.861-.315-1.73-.577-2.622-.815,4.183-1.669,7.136-5.6,8.712-9.827,1.561-4.229,1.907-8.8,2.245-13.287,1.492-20,2.837-40.3-1.084-59.975,6.436,1.138,13-.454,19.346-2.045,6.436-1.607,12.918-3.229,19.015-5.828a126.354,126.354,0,0,0,15.463-8.335C323.986,109.209,327.669,106.987,331.375,104.78Z" transform="translate(-59.293 -24.217)"></path><g id="Group_180" data-name="Group 180" transform="translate(105.985 302.895)"><path id="Path_589" data-name="Path 589" class="cls-11" d="M138.078,393.93c2.576.208,5.167.369,7.766.5a55.549,55.549,0,0,0,5.928.861c-.361,3.445-.669,6.582-.753,8.85-.261,6.766.953,7.243.953,7.243l-14.071-.861c-.069-.469-.154-7.059.169-11.757C138.162,397.375,138.116,395.745,138.078,393.93Z" transform="translate(-137.836 -393.93)"></path></g><g id="Group_181" data-name="Group 181" transform="translate(103.535 312.637)"><path id="Path_590" data-name="Path 590" class="cls-15" d="M163.8,421.26c.431,0,9.681,3.3,9.681,3.3v3.03H134.65v-3.03Z" transform="translate(-134.65 -409.988)"></path><path id="Path_591" data-name="Path 591" class="cls-16" d="M156,406.6c-.146.554,3.276,2.891,9.25,5.913s8.089,4.813,8.227,8.666H134.65V410.037s.146-1.376,4.129,0S156,406.6,156,406.6Z" transform="translate(-134.65 -406.6)"></path></g><path id="Path_592" data-name="Path 592" class="cls-17" d="M165.281,410.181a.208.208,0,0,0,.208-.161,4.919,4.919,0,0,0-2.484-.4,4.034,4.034,0,0,0-2.791,1.884,9.557,9.557,0,0,0-1.084,3.022" transform="translate(-36.772 -94.653)"></path><path id="Path_593" data-name="Path 593" class="cls-17" d="M170.271,412.521a.208.208,0,0,0,.208-.161,4.919,4.919,0,0,0-2.484-.4,4.034,4.034,0,0,0-2.791,1.884,9.559,9.559,0,0,0-1.084,3.022" transform="translate(-37.925 -95.194)"></path><path id="Path_594" data-name="Path 594" class="cls-17" d="M175.261,414.871a.208.208,0,0,0,.208-.161,4.919,4.919,0,0,0-2.484-.4,4.034,4.034,0,0,0-2.791,1.884,9.557,9.557,0,0,0-1.084,3.022" transform="translate(-39.078 -95.737)"></path><g id="Group_182" data-name="Group 182" transform="translate(77.046 302.895)"><path id="Path_595" data-name="Path 595" class="cls-11" d="M114.094,393.93c-2.576.208-5.167.369-7.766.5a55.551,55.551,0,0,1-5.928.861c.361,3.445.669,6.582.754,8.85.261,6.766-.953,7.243-.953,7.243l14.071-.861c.069-.469.154-7.059-.169-11.757C114.01,397.375,114.056,395.745,114.094,393.93Z" transform="translate(-100.2 -393.93)"></path></g><path id="Path_596" data-name="Path 596" class="cls-18" d="M118.4,254.554c.046.469.415,3.952.961,9.042.554-9.189,1.545-29.273,2.276-38.446-20.492,2.822-40.1-.531-40.1-.531-.361,9.419,8.62,140.166,8.62,140.166l22.314-.238C110.948,329.946,115,254.5,115,254.5,118.137,255.284,118.391,254.746,118.4,254.554Z" transform="translate(-18.839 -51.91)"></path><path id="Path_597" data-name="Path 597" class="cls-19" d="M108.97,235.008c4.26.961,10.111-2.4,13.418,1.13.3-8.274-1.03-7.351-.761-10.68C102,227.711,81.55,224.62,81.55,224.62c.308,2.222.1,4.221.277,6.013C91.461,230.372,99.127,232.794,108.97,235.008Z" transform="translate(-18.845 -51.91)"></path><path id="Path_598" data-name="Path 598" class="cls-18" d="M161.639,224.62A151.156,151.156,0,0,1,127.36,225.8c.092,5.744-.684,22.229-1.061,28.027-.023.346-.046.692-.069,1.046a14.51,14.51,0,0,0,1.945-.377s4.052,75.446,2.53,110.047l22.314.238C153.019,364.786,162,234.039,161.639,224.62Z" transform="translate(-29.169 -51.91)"></path><path id="Path_599" data-name="Path 599" class="cls-19" d="M123.6,235.008c.807.323,16.293.523,25.666-1.423,4.906-1.015,8.373,1.153,11.449-2.522.269-1.9-.008-4.052.323-6.444a180.441,180.441,0,0,1-34.271,1.353C126.783,227.7,123.692,230.21,123.6,235.008Z" transform="translate(-28.562 -51.91)"></path><path id="Path_600" data-name="Path 600" class="cls-20" d="M125.659,255.021c-.946-2.13-2.115-14.955-2.737-17.239a27.659,27.659,0,0,1-.807-6.836.288.288,0,0,0-.577,0c-.392,4.344.784,21.022,3.7,24.4C125.444,255.59,125.767,255.274,125.659,255.021Z" transform="translate(-28.068 -53.307)"></path><path id="Path_601" data-name="Path 601" class="cls-16" d="M82.5,218.54s.223,1.784,21.783,2.868c22.375,1.123,40.622-.677,46.412-2.437l.569,6.52s-2.322,2.6-38.077,2.284c-23.567-.208-31.879-2.245-31.879-2.245S82.6,220.87,82.5,218.54Z" transform="translate(-18.789 -50.505)"></path><path id="Path_602" data-name="Path 602" class="cls-21" d="M125.529,229.506l-7.112-.338a1.377,1.377,0,0,1-1.207-1.492l.192-5.19a1.353,1.353,0,0,1,1.315-1.376l7.112.338a1.377,1.377,0,0,1,1.207,1.492l-.192,5.19A1.343,1.343,0,0,1,125.529,229.506Z" transform="translate(-27.085 -51.099)"></path><path id="Path_603" data-name="Path 603" class="cls-18" d="M145.823,229.091,143.17,229l.423-8.189,2.661.085Z" transform="translate(-33.084 -51.03)"></path><path id="Path_604" data-name="Path 604" class="cls-18" d="M102.633,229.091,99.98,229l.423-8.189,2.66.085Z" transform="translate(-23.104 -51.03)"></path><path id="Path_605" data-name="Path 605" class="cls-18" d="M169.2,227l-2.591.584-1.669-8.028,2.591-.592Z" transform="translate(-38.115 -50.602)"></path><path id="Path_606" data-name="Path 606" class="cls-18" d="M88.13,227.981l-2.66-.092L85.9,219.7l2.66.085Z" transform="translate(-19.75 -50.773)"></path><line id="Line_11" data-name="Line 11" class="cls-21" x2="4.244" y2="0.438" transform="translate(89.056 173.725)"></line><path id="Path_607" data-name="Path 607" class="cls-20" d="M168.779,239.671a30.249,30.249,0,0,1-6.244-1.884c-1.822-.853-3.091-2.145-4.783-3.083-.115-.069-.231.062-.177.146.846,1.53,3.1,2.745,4.867,3.552a16.1,16.1,0,0,0,6.29,1.561A.148.148,0,1,0,168.779,239.671Z" transform="translate(-36.41 -54.236)"></path><path id="Path_608" data-name="Path 608" class="cls-20" d="M95.313,233.21c-.015-.461-1.23-1.053-1.361-.607a5.464,5.464,0,0,1-3.706,3.96c-1.876.623-4.652.062-6.5.584-.377.108-.077.546.415.761a10.266,10.266,0,0,0,8-.277C94.152,236.747,95.383,235.263,95.313,233.21Z" transform="translate(-19.314 -53.718)"></path><g id="Group_183" data-name="Group 183" transform="translate(53.186 312.637)"><path id="Path_609" data-name="Path 609" class="cls-15" d="M79.25,421.26c-.446,0-10.08,3.3-10.08,3.3v3.03h40.445v-3.03Z" transform="translate(-69.17 -409.988)"></path><path id="Path_610" data-name="Path 610" class="cls-16" d="M87.378,406.6c.146.554-3.406,2.891-9.635,5.913s-8.42,4.813-8.573,8.666h40.445V410.037s-.146-1.376-4.3,0S87.378,406.6,87.378,406.6Z" transform="translate(-69.17 -406.6)"></path></g><path id="Path_611" data-name="Path 611" class="cls-17" d="M93.527,410.181a.182.182,0,0,1-.177-.161,3.785,3.785,0,0,1,2.161-.4,3.539,3.539,0,0,1,2.422,1.884,10.308,10.308,0,0,1,.938,3.022" transform="translate(-21.571 -94.653)"></path><path id="Path_612" data-name="Path 612" class="cls-17" d="M89.207,412.521a.182.182,0,0,1-.177-.161,3.785,3.785,0,0,1,2.161-.4,3.539,3.539,0,0,1,2.422,1.884,10.31,10.31,0,0,1,.938,3.022" transform="translate(-20.573 -95.194)"></path><path id="Path_613" data-name="Path 613" class="cls-17" d="M84.877,414.871a.182.182,0,0,1-.177-.161,3.785,3.785,0,0,1,2.161-.4,3.539,3.539,0,0,1,2.422,1.884,10.309,10.309,0,0,1,.938,3.022" transform="translate(-19.573 -95.737)"></path><g id="Group_184" data-name="Group 184" transform="translate(86.342 51.529)"><rect id="Rectangle_25" data-name="Rectangle 25" class="cls-7" width="19.361" height="19.8" transform="translate(20.064 25.071) rotate(178.39)"></rect><path id="Path_614" data-name="Path 614" class="cls-22" d="M112.651,80.1a17.466,17.466,0,0,0,9.573,2.7A16.554,16.554,0,0,0,132,79.553l-.354-12.533-19.354.546Z" transform="translate(-112.29 -67.02)"></path></g><path id="Path_615" data-name="Path 615" class="cls-7" d="M135.283,89.9s-1.061-.431-11.526-1.069c-9.95-.615-11.672.185-23.444.761,0,0-7.089,36.647,16.662,33.34C153.644,117.829,135.283,89.9,135.283,89.9Z" transform="translate(-22.951 -20.481)"></path><path id="Path_616" data-name="Path 616" class="cls-11" d="M107.7,91.6l.469-2.991-9.873,1.5L96.33,102.935l13.087,18.046,6.882,17.57,9.988-12.31,11.6-9.012,4.667-14.463L139.9,91.124,134.261,89.9l-4.168-.308-11.526,13.072Z" transform="translate(-22.26 -20.48)"></path><path id="Path_617" data-name="Path 617" class="cls-11" d="M106.69,107.816l7.958-3.114,5.475,2.153-1.1,16.816h5.859l-1.638-16.816,4.014-2.153,7.466-1.453-2.807-6.259L121.284,104.6l-7.235-5.559-7.359,2.4Z" transform="translate(-24.654 -22.417)"></path><path id="Path_618" data-name="Path 618" class="cls-4" d="M148.393,183.309s.277,4.913-.285,6.128-7.266,3.16-21.291,4c-14.01.83-47.927-.577-49.042-2.1s-1.107-5.252-1.945-6.167S69.51,176.4,68.4,164.7c-.946-9.934.915-52.1,2.353-66.773.254-2.645,7.558-5.336,13.687-7A54.161,54.161,0,0,1,94.43,89.04s3.437,22.914,18.831,32.371c0,0,20.269-15.071,15.655-32.971,0,0,13.033.454,14.971.6,4.314.323,4.36,11.872,6.213,27.719.215,1.822.684,5.144,1.253,9.35.961,7.1,2.176,16.747,2.868,26.182C155.336,167.308,150.892,179.864,148.393,183.309Z" transform="translate(-15.747 -20.441)"></path><path id="Path_619" data-name="Path 619" class="cls-14" d="M125.67,101.834,136.15,85.01l5.221,4.06-1.292,14.363-8.435-5.206Z" transform="translate(-29.04 -19.648)"></path><path id="Path_620" data-name="Path 620" class="cls-14" d="M120.3,102.684,109.823,85.86l-5.213,4.068,1.284,14.356,8.435-5.206Z" transform="translate(-24.173 -19.845)"></path><path id="Path_621" data-name="Path 621" class="cls-23" d="M4.26,374.463,6.7,231.591a9.274,9.274,0,0,1,9.658-8.873h0a9.274,9.274,0,0,1,8.873,9.658l-.169,4.006" transform="translate(-0.984 -51.469)"></path><path id="Path_622" data-name="Path 622" class="cls-24" d="M3.037,424.611h0a3.172,3.172,0,0,1-3-3.66l.807-5.121,5.129.215.369,5.175A3.187,3.187,0,0,1,3.037,424.611Z" transform="translate(0 -96.096)"></path><g id="Group_185" data-name="Group 185" transform="translate(2.669 155.909)"><path id="Path_623" data-name="Path 623" class="cls-7" d="M18.295,202.77s-2.322,7.789-8.466,9.719-6.751,6.39-6.2,10.665S7.7,227.3,7.845,225.561c0,0,.807,2.045,2.437,1.238a5.6,5.6,0,0,0,1.569-1.938,3.6,3.6,0,0,0,2.714,1.538c1.561-.108,1.192-1.7,1.192-1.7s.208,1.169,2.783.569c.646-.154,1.184.138,1.238-2.883.023-1.2,1.584-1.4,2.591-2.222,1.53-1.253,6.843-7.958,6.843-7.958Z" transform="translate(-3.471 -202.77)"></path></g><path id="Path_624" data-name="Path 624" class="cls-11" d="M148.393,186.161s.277,4.913-.285,6.128-7.266,3.16-21.291,4c-14.01.83-47.927-.577-49.042-2.1s-1.107-5.252-1.945-6.167-6.32-8.773-7.428-20.469c-.946-9.934.915-52.1,2.353-66.773,5.106,2.007,5.044,5.536,6.836,10.426,4.506,12.257,2.322,30.226.869,42.652-1.215,10.357-.861,21.3,3.937,30.541a7.964,7.964,0,0,0,1.745,2.461,9.031,9.031,0,0,0,3.552,1.622A116.443,116.443,0,0,0,129.47,192.4c3.122-.277,6.321-.707,9.073-2.207,6.321-3.483,8.4-11.426,9.611-18.539a208.645,208.645,0,0,0,3.2-42.683c.961,7.1,2.176,16.747,2.868,26.182C155.336,170.159,150.892,182.716,148.393,186.161Z" transform="translate(-15.747 -23.293)"></path><path id="Path_625" data-name="Path 625" class="cls-4" d="M66.458,94.676c-19.677,8.666-19.4,28.112-21.837,38.077-2.668,10.888-6.628,17.785-8.658,23.406-1.422,3.96-13.141,21.407-17.593,26.143,0,0,12.2,5.575,13.464,10.611,0,0,9-5.782,22.1-25.859,5.79-8.873,11.388-29.834,11.388-29.834s2.868-10.5,3.522-13.825C73.424,100.243,71.641,92.392,66.458,94.676Z" transform="translate(-4.245 -21.795)"></path><path id="Path_626" data-name="Path 626" class="cls-11" d="M102.574,156.2l-5.1-9.258L92.37,156.2l5.106,8.835Z" transform="translate(-21.345 -33.96)"></path><path id="Path_627" data-name="Path 627" class="cls-11" d="M117.314,156.2l-5.1-9.258L107.11,156.2l5.106,8.835Z" transform="translate(-24.751 -33.96)"></path><path id="Path_628" data-name="Path 628" class="cls-11" d="M132.064,156.2l-5.106-9.258-5.1,9.258,5.1,8.835Z" transform="translate(-28.16 -33.96)"></path><path id="Path_629" data-name="Path 629" class="cls-11" d="M146.8,156.2l-5.1-9.258L136.6,156.2l5.106,8.835Z" transform="translate(-31.566 -33.96)"></path><path id="Path_630" data-name="Path 630" class="cls-11" d="M161.544,156.2l-5.1-9.258L151.34,156.2l5.106,8.835Z" transform="translate(-34.972 -33.96)"></path><path id="XMLID_43_" class="cls-7" d="M281.285,171.017c.146,5.836.977,12.395-4.329,13.648-3.775.892-5.436,1.361-5.636.454a4.524,4.524,0,0,1,.023-2.537,1.843,1.843,0,0,1-1.561-2.076c.2-1.807,1.23-1.576,1.23-1.576s-2.66-.361-1.776-2.33c.454-1.007,3.13-1.323,3.13-1.323s-2.214-.538-1.5-2.361,5.544-3.329,5.544-3.329a17.326,17.326,0,0,0,.092-5.628C276.5,163.951,281.1,163.582,281.285,171.017Z" transform="translate(-62.174 -37.891)"></path><path id="XMLID_42_" class="cls-7" d="M95.627,44.212s-1.469-7.166-5.136-5.544-1.538,15.863,6.759,15.563c0,0,1.63-.723.707-5.021C97.026,44.9,95.627,44.212,95.627,44.212Z" transform="translate(-20.511 -8.884)"></path><g id="XMLID_39_" transform="translate(69.758 31.866)"><path id="XMLID_41_" class="cls-22" d="M95.949,47.563a23.944,23.944,0,0,1-2.783-4.913c-1.238-3.176-3.975.338-1.33,5.967,1.6,3.391,2.814,2.768,2.814,2.768S93.081,49,93.258,48.478C93.412,48.047,95.949,47.563,95.949,47.563Z" transform="translate(-90.722 -41.448)"></path><path id="XMLID_40_" class="cls-25" d="M95.311,52.159s-2.33-1.73-1.576-3.214a2.266,2.266,0,0,1,2.553-1.007A18.689,18.689,0,0,0,94.281,44.8" transform="translate(-91.384 -42.223)"></path></g><path id="XMLID_38_" class="cls-7" d="M146.729,40.821s.523-7.3,4.375-6.167,3.591,15.524-4.675,16.309c0,0-1.707-.5-1.353-4.89S146.729,40.821,146.729,40.821Z" transform="translate(-33.513 -7.985)"></path><g id="XMLID_35_" transform="translate(113.692 28.871)"><path id="XMLID_37_" class="cls-22" d="M147.86,44.133a24.173,24.173,0,0,0,2.122-5.236c.815-3.306,3.991-.177,2.1,5.744-1.138,3.575-2.43,3.114-2.43,3.114s1.246-2.568,1-3.06C150.436,44.279,147.86,44.133,147.86,44.133Z" transform="translate(-147.86 -37.553)"></path><path id="XMLID_36_" class="cls-25" d="M149.725,48.585s2.091-2.022,1.146-3.391a2.274,2.274,0,0,0-2.66-.669,18.567,18.567,0,0,1,1.584-3.376" transform="translate(-147.941 -38.384)"></path></g><path id="XMLID_34_" class="cls-7" d="M134.207,11.639C131.085-.571,110.855-4.278,98.16,7.594c-4.083,3.814-2.076,17.47-2.268,20.584-.323,5.252-.277,16.109,1.738,23.037,2.361,8.12,9.227,9.765,14.84,12.341a14.247,14.247,0,0,0,12.487-.5c5.182-2.922,11.465-5.6,12.464-14.44C138.728,37.182,136.114,19.074,134.207,11.639Z" transform="translate(-22.083 -0.086)"></path><path id="XMLID_33_" class="cls-26" d="M124.464,57.421c.077.161-.108.408-.408.554s-.615.131-.692-.023.108-.408.408-.554S124.387,57.259,124.464,57.421Z" transform="translate(-28.503 -13.243)"></path><path id="XMLID_32_" class="cls-22" d="M124.691,42.82s-1.607,8.843,3.66,10.657A30.1,30.1,0,0,1,124.691,42.82Z" transform="translate(-28.76 -9.899)"></path><path id="XMLID_31_" class="cls-25" d="M125.21,46.19a14.971,14.971,0,0,0,3.345,7.735,5.016,5.016,0,0,1-3.168,3.06" transform="translate(-28.934 -10.678)"></path><path id="XMLID_30_" class="cls-25" d="M127.034,33.67a9.926,9.926,0,0,0-2.214,4.667" transform="translate(-28.844 -7.785)"></path><path id="XMLID_29_" class="cls-27" d="M110.88,48.2a3.567,3.567,0,0,0,2.445-.8S113.033,50.153,110.88,48.2Z" transform="translate(-25.622 -10.957)"></path><path id="XMLID_28_" class="cls-27" d="M135,46.13a5.123,5.123,0,0,0,2.138.2S135.984,48.329,135,46.13Z" transform="translate(-31.196 -10.664)"></path><path id="XMLID_27_" class="cls-28" d="M114.553,32.782s.83-2.384.062-3.452a52.013,52.013,0,0,0-11.2,3.56s-.592.431.484.038S111.062,31.5,114.553,32.782Z" transform="translate(-23.859 -6.782)"></path><path id="XMLID_26_" class="cls-28" d="M127.8,32.137s-.738-2.284-.115-3.437a56.018,56.018,0,0,1,11.172,2.091s.638.346-.477.1S131.091,30.407,127.8,32.137Z" transform="translate(-29.448 -6.636)"></path><path id="XMLID_25_" class="cls-29" d="M103.92,43.13c1.738-2.238,7.7-3.975,11.218-1.076,0,0-2.176-3.845-6.221-3.529S103.92,43.13,103.92,43.13Z" transform="translate(-24.014 -8.902)"></path><path id="XMLID_24_" class="cls-29" d="M139.755,40.784c-2.015-1.991-8.158-2.945-11.265.4,0,0,1.661-4.091,5.705-4.306S139.755,40.784,139.755,40.784Z" transform="translate(-29.692 -8.524)"></path><path id="XMLID_23_" class="cls-28" d="M128.909,4.084c-2.868-2.7-9.05-4.444-15.578-4.014A24.133,24.133,0,0,0,98.368,6.083c-7.335,6.851-5.159,17.024-5.306,18.862-.169,2.1.408,2.953,1.246,5.49a28.289,28.289,0,0,1,1.061,5.859s2.614,10.134,2.022,6.313c-2.484-16.032-.846-19.115-.408-21.63,1.407-8.151-3.5-9.012.561-13.448s7.066,3.145,14.617,6.982c1.745.884,5.229,1.169,6.69-1.007,3.622-5.405,7.159-10.35,8.735-8.612s5.329,4.083,2.93,11.019c-.83,2.414,3.845,7.312,4.983,24.705.254,3.86.377-6.959.377-6.959a28.154,28.154,0,0,1,.284-5.944c.5-2.622.961-3.545.523-5.605C136.283,20.285,136.214,10.966,128.909,4.084Z" transform="translate(-21.46 -0.005)"></path><path id="Path_631" data-name="Path 631" class="cls-28" d="M123.365,61.165c-2.368.085-4.544-.231-6.936,1.661a34.515,34.515,0,0,0-4.229,4.029s1.807.815,4.829-.315a20.116,20.116,0,0,1,6.62-1.023,15.712,15.712,0,0,1,6.39-.123c4.206.584,6.067-.684,6.067-.684s-2.176-1.461-4.752-2.868C128.786,60.45,123.365,61.165,123.365,61.165Z" transform="translate(-25.927 -14.096)"></path><path id="Path_632" data-name="Path 632" class="cls-26" d="M119.61,68.389a38.8,38.8,0,0,0,9.273-.869,4.951,4.951,0,0,0,2.56-1.23s-1.745,4.068-8.058,2.953A24.481,24.481,0,0,1,119.61,68.389Z" transform="translate(-27.64 -15.323)"></path><path id="Path_633" data-name="Path 633" class="cls-30" d="M250.527,84.671a9.9,9.9,0,1,1-8.135-11.4A9.9,9.9,0,0,1,250.527,84.671Z" transform="translate(-53.345 -16.903)"></path><path id="Path_634" data-name="Path 634" class="cls-30" d="M248.4,61.187,243.09,80.095c6.982-1.315,11.4-5.413,14.563-14.294a25.319,25.319,0,0,0,.492-16.07s-3.429,2.86-5.1,4.59Z" transform="translate(-56.174 -11.496)"></path><path id="Path_635" data-name="Path 635" class="cls-28" d="M225.39,29.467c-.623-1.169,1.646-4.137.569-4.344C209.6,22.024,203.376,31,201.984,40.532a31.08,31.08,0,0,0,1.7,14.979l11.572-17.739Z" transform="translate(-46.609 -5.665)"></path><path id="Path_636" data-name="Path 636" class="cls-7" d="M217.895,84.382c-12.356-1.161-16.493-12.949-14.948-22.96l3.06-20.215a7.47,7.47,0,0,1,8.52-6.244L243.4,39.431l-4.583,29.626C237.279,79.068,227.983,85.327,217.895,84.382Z" transform="translate(-46.826 -8.063)"></path><path id="Path_637" data-name="Path 637" class="cls-6" d="M249.1,74.484h0l2.145-13.864h0a5.671,5.671,0,0,1,4.737,6.467l-.415,2.668A5.67,5.67,0,0,1,249.1,74.484Z" transform="translate(-57.563 -14.012)"></path><path id="Path_638" data-name="Path 638" class="cls-30" d="M217.848,32.153C216.087,37,215.8,38.081,210.182,41.1s-5.682,11.98-6.567,13.94a30.376,30.376,0,0,1-1.169-10.942c.454-6.236,2.822-10.757,6.928-13.041s11.088-2.783,11.088-2.783Z" transform="translate(-46.764 -6.537)"></path><path id="Path_639" data-name="Path 639" class="cls-28" d="M221.8,27.727c-2.883,1.361-1.876,7.251,2.045,11.857,3.66,4.3,12.364,8.666,13.825,13.218s7.758,11.526,7.758,11.526.154-5.905,2.56-8.843c1.884-2.3,4.529,1.845,5.567-3.768a26.045,26.045,0,0,0-.961-12.626C249.968,31.825,238.434,19.876,221.8,27.727Z" transform="translate(-50.872 -5.817)"></path><path id="Path_640" data-name="Path 640" class="cls-26" d="M226.73,82.773a14.054,14.054,0,0,1-5.013.338,12.555,12.555,0,0,1-4.437-1.661l.6.807c.169.538.292,2.422,4.068,2.691C225.607,85.2,226.73,82.773,226.73,82.773Z" transform="translate(-50.21 -18.826)"></path><path id="XMLID_22_" class="cls-7" d="M249.145,65.257s1.8-6.574,5.113-4.844.477,14.848-7.22,14.063c0,0-1.469-.769-.354-4.713S249.145,65.257,249.145,65.257Z" transform="translate(-56.908 -13.897)"></path><path id="XMLID_21_" class="cls-29" d="M249.96,68.374a22.451,22.451,0,0,0,2.883-4.4c1.338-2.876,3.675.561.877,5.628-1.692,3.06-2.783,2.407-2.783,2.407s1.6-2.122,1.469-2.622C252.29,68.981,249.96,68.374,249.96,68.374Z" transform="translate(-57.761 -14.546)"></path><path id="XMLID_20_" class="cls-25" d="M251.034,72.7s2.276-1.469,1.661-2.891a2.121,2.121,0,0,0-2.314-1.092,17.464,17.464,0,0,1,2.061-2.8" transform="translate(-57.858 -15.237)"></path><g id="XMLID_15_" transform="translate(150.653 40.665)"><path id="XMLID_19_" class="cls-7" d="M202.235,58.965s-.046-6.82-3.691-6.005-4.283,14.225,3.36,15.448c0,0,1.622-.361,1.553-4.467S202.235,58.965,202.235,58.965Z" transform="translate(-195.928 -52.892)"></path><g id="XMLID_16_" transform="translate(1.399 2.156)"><path id="XMLID_18_" class="cls-22" d="M202.055,62.012a22.433,22.433,0,0,1-1.653-5c-.554-3.129-3.7-.408-2.3,5.213.846,3.391,2.068,3.045,2.068,3.045s-1-2.468-.746-2.907C199.641,61.989,202.055,62.012,202.055,62.012Z" transform="translate(-197.748 -55.695)"></path><path id="XMLID_17_" class="cls-25" d="M200.567,66.073s-1.822-2.007-.861-3.222a2.12,2.12,0,0,1,2.514-.461,17.112,17.112,0,0,0-1.269-3.229" transform="translate(-198.135 -56.496)"></path></g></g><path id="XMLID_14_" class="cls-22" d="M223.8,62.25s.961,8.32-4.044,9.688A28.087,28.087,0,0,0,223.8,62.25Z" transform="translate(-50.783 -14.389)"></path><path id="XMLID_13_" class="cls-25" d="M223.323,65.35a13.964,13.964,0,0,1-3.583,6.989,4.683,4.683,0,0,0,2.76,3.037" transform="translate(-50.778 -15.105)"></path><path id="XMLID_12_" class="cls-25" d="M222.84,53.57a9.259,9.259,0,0,1,1.776,4.475" transform="translate(-51.494 -12.383)"></path><path id="XMLID_11_" class="cls-27" d="M236.92,68.042a3.315,3.315,0,0,1-2.23-.892C234.7,67.158,234.805,69.734,236.92,68.042Z" transform="translate(-54.233 -15.521)"></path><path id="XMLID_6_" class="cls-27" d="M214.7,64.71a4.8,4.8,0,0,1-2,.054S213.653,66.694,214.7,64.71Z" transform="translate(-49.151 -14.957)"></path><path id="XMLID_5_" class="cls-28" d="M231.828,53.334s-.63-2.268.154-3.214a48.349,48.349,0,0,1,10.2,3.983s.523.431-.454.008S235.157,52.35,231.828,53.334Z" transform="translate(-53.516 -11.586)"></path><path id="XMLID_3_" class="cls-28" d="M219.56,52.131s.823-2.076.315-3.191a52.171,52.171,0,0,0-10.519,1.269s-.615.284.438.123S216.6,50.324,219.56,52.131Z" transform="translate(-48.337 -11.313)"></path><path id="XMLID_2_" class="cls-29" d="M241.185,63.706c-1.484-2.184-6.92-4.168-10.365-1.676,0,0,2.261-3.445,6-2.907S241.185,63.706,241.185,63.706Z" transform="translate(-53.338 -13.653)"></path><path id="XMLID_1_" class="cls-29" d="M207.99,59.338c1.992-1.73,7.766-2.245,10.45,1.053,0,0-1.3-3.906-5.044-4.352S207.99,59.338,207.99,59.338Z" transform="translate(-48.063 -12.945)"></path></g></g></g></svg>