<svg xmlns="http://www.w3.org/2000/svg" xmlns:xlink="http://www.w3.org/1999/xlink" viewBox="0 0 395 395"><defs><style>
      .cls-1 {
        fill: #4d4d4d;
      }

      .cls-2 {
        clip-path: url(#clip-path);
      }

      .cls-3 {
        fill: #c6eba9;
      }

      .cls-4 {
        fill: #386e76;
      }

      .cls-19, .cls-5, .cls-7 {
        fill: #f8c399;
      }

      .cls-6 {
        fill: #7a534e;
      }

      .cls-10, .cls-27, .cls-30, .cls-7 {
        opacity: 0.3;
      }

      .cls-8 {
        fill: #609f8a;
      }

      .cls-9 {
        fill: #f39963;
      }

      .cls-10, .cls-11 {
        fill: #3b4b56;
      }

      .cls-12 {
        fill: #65625b;
      }

      .cls-13 {
        fill: #7ac4ab;
      }

      .cls-14 {
        fill: #faf8f9;
      }

      .cls-15 {
        fill: #f0f0f1;
      }

      .cls-16 {
        fill: #f25534;
      }

      .cls-17 {
        fill: #5f4840;
      }

      .cls-18 {
        fill: #3e1913;
      }

      .cls-19 {
        opacity: 0.5;
      }

      .cls-20 {
        fill: #551d0e;
      }

      .cls-21 {
        fill: #ed6d6e;
      }

      .cls-22 {
        fill: #f6f6f6;
      }

      .cls-23, .cls-30 {
        fill: #253745;
      }

      .cls-24 {
        fill: #f2b78f;
      }

      .cls-25 {
        fill: #93153a;
      }

      .cls-26 {
        fill: #af1d47;
      }

      .cls-27, .cls-28 {
        fill: #c14126;
      }

      .cls-29 {
        fill: #ec6d6e;
      }
    </style><clipPath id="clip-path"><rect id="Rectangle_232" data-name="Rectangle 232" class="cls-1" width="395" height="395" transform="translate(-4575 -4699)"></rect></clipPath></defs><g id="Mask_Group_21" data-name="Mask Group 21" class="cls-2" transform="translate(4575 4699)"><g id="Group_1238" data-name="Group 1238" transform="translate(-4516 -4683.903)"><ellipse id="Ellipse_117" data-name="Ellipse 117" class="cls-3" cx="138.597" cy="138.597" rx="138.597" ry="138.597" transform="translate(0 42.48)"></ellipse><g id="XMLID_4_" transform="translate(46.199 0)"><g id="XMLID_68_" transform="translate(0 0)"><path id="XMLID_121_" class="cls-4" d="M52.9,455.054a6.646,6.646,0,0,1-2.889,4.9c-2.889,2.167-10.536,3.864-11.571,5.182s1.444,3.484,3.179,3.961,12.628-.849,18.9-2.45,5.4-3.015,5.3-4.519-1.444-7.066-1.348-8.577Z" transform="translate(-9.752 -115.855)"></path><path id="XMLID_120_" class="cls-5" d="M60.65,452.718s1.966,4.713,4.564,4.8a4.492,4.492,0,0,0,4.4-5.837C68.751,448.1,60.65,452.718,60.65,452.718Z" transform="translate(-15.489 -115.03)"></path><path id="XMLID_119_" class="cls-4" d="M114.038,452.88a6.718,6.718,0,0,0,3.991,4.095c3.336,1.444,11.169,1.333,12.494,2.375s-.566,3.723-2.144,4.579-12.479,2.077-18.957,1.958-5.971-1.69-6.239-3.172-.3-7.2-.752-8.644Z" transform="translate(-26.161 -115.684)"></path><path id="XMLID_118_" class="cls-5" d="M111.815,451.228s-.774,5.033-3.284,5.718a4.547,4.547,0,0,1-5.681-4.668C102.828,448.6,111.815,451.228,111.815,451.228Z" transform="translate(-26.268 -115.029)"></path><path id="XMLID_117_" class="cls-6" d="M99.7,400.921c-5.011,1.5-14.072,1.884-14.072,1.884s-5.592-26.76-7.907-39.194S75.788,323.478,75.4,311.6s-4.438-44.845-5.785-43.9-5.011,56.907-4.05,64.063,2.509,21.481,1.735,33.729-1.095,36.119-1.095,36.119c-3.723,2.129-14.78,2-14.78,2-.774-23.111-5.919-79.639-9.516-107.783A228.552,228.552,0,0,1,40.13,255.8v-.007c.216-4.162.5-6.426.5-6.426l59.059-1.824a39.44,39.44,0,0,1,.8,6.068c1.37,20.453-3.835,68.552-5.033,93.8A228.077,228.077,0,0,0,99.7,400.921Z" transform="translate(-10.188 -63.233)"></path><path id="XMLID_116_" class="cls-5" d="M59.723,103.34s14.363,1.474,18.22,1.668l-3.566,8.853s-15.04-1.7-16.582-3.3S59.723,103.34,59.723,103.34Z" transform="translate(-14.659 -26.399)"></path><path id="Path_466" data-name="Path 466" class="cls-7" d="M66.33,104.21a96.642,96.642,0,0,1-8.51,6.448.772.772,0,0,0,.089.127c1.541,1.6,16.582,3.3,16.582,3.3l3.566-8.86C75.943,105.118,70.664,104.627,66.33,104.21Z" transform="translate(-14.766 -26.622)"></path><path id="XMLID_115_" class="cls-8" d="M38.3,96.86a140.917,140.917,0,0,1,17.162,2.9,53.359,53.359,0,0,1,0,11.183,51.375,51.375,0,0,1-9.7-1.5Z" transform="translate(-9.78 -24.744)"></path><path id="XMLID_114_" class="cls-9" d="M37.61,186.018l7.58,12.941,12.859-6.47L52.9,176.1Z" transform="translate(-9.604 -44.985)"></path><path id="XMLID_113_" class="cls-10" d="M100.575,253.611c-30.55,11.727-55.239,4.05-60.355,2.2V255.8c.216-4.162.5-6.426.5-6.426l59.059-1.824A39.192,39.192,0,0,1,100.575,253.611Z" transform="translate(-10.27 -63.235)"></path><path id="XMLID_112_" class="cls-11" d="M98.227,140.388l2.182,14.072s-.074.558-.2,1.541c-.365,2.859-1.117,9.3-1.511,15.934a78.452,78.452,0,0,0,.171,14.929c1.541,9.985,3.082,28.45,3.082,28.45-35.091,14.132-63.05,0-63.05,0,.387-9.233,4.438-35.047,9.255-50.69a32.584,32.584,0,0,0,1.31-8.979,61.585,61.585,0,0,0-.611-9.382c-1.534-11.511-5.361-22.464-4.363-26.1,1.3-4.75,12.613-7.505,18.875-9.1,1.571,4.654,4.572,11.3,14.675,11.98,9.017.618,13.134-7.714,14.348-10.811,5.3,2.323,11.623,5.413,11.623,5.413C96.165,123.68,98.227,140.388,98.227,140.388Z" transform="translate(-9.933 -28.371)"></path><path id="XMLID_111_" class="cls-5" d="M100.783,107.4c-1.214,3.09-5.331,11.429-14.348,10.811-10.1-.685-13.1-7.334-14.675-11.98,1.191-.3,2.2-.566,2.919-.789a2.943,2.943,0,0,0,.447-.179c1.794-.923,2.479-3.708,2.7-6.47a37.2,37.2,0,0,0-.171-6.694H93.769a43.015,43.015,0,0,0-.03,6.694c.246,3.03.99,6.113,2.874,6.88.127.045.253.1.395.149C98.1,106.247,99.406,106.8,100.783,107.4Z" transform="translate(-18.327 -23.528)"></path><path id="XMLID_110_" class="cls-12" d="M10.3,162.915a19.98,19.98,0,0,0-4.05,9.419C5.192,178.454,18.11,179.5,18.11,179.5s27.139-1.459,34.317-6.939l-8.19-9.076L15.7,162.26Z" transform="translate(-1.577 -41.45)"></path><path id="XMLID_109_" class="cls-13" d="M30.972,96.628s4.944.6,6.634.864c0,0,7.118,19.061,9.046,51.6,0,0-28.025,4.646-36.893-3.641-1.154-.946,4.788-23.335,4.3-31.659s-.864-11.906-.864-11.906a54.6,54.6,0,0,1,8.481-5.934Z" transform="translate(-2.451 -24.512)"></path><path id="XMLID_108_" class="cls-14" d="M100.783,111.917c-1.214,3.09-5.331,11.429-14.348,10.811-10.1-.685-13.1-7.334-14.675-11.98,1.191-.3,2.2-.566,2.919-.789a2.943,2.943,0,0,0,.447-.179c.692,2.569,2.993,8.764,9.106,9.069,7.371.365,11.109-2.911,12.769-8.51C98.1,110.763,99.406,111.314,100.783,111.917Z" transform="translate(-18.327 -28.044)"></path><g id="XMLID_103_" transform="translate(37.016 130.237)"><path id="XMLID_107_" class="cls-7" d="M87.236,217.866c-1.869,1.631-8.361,1.884-10.99,2.189s-4.311,1.072-6.82.752-1.541-5.018-1.668-6.716c-.089-1.236-5.182-6.753-9.181-11.824a46.761,46.761,0,0,1-3.678-5.2c-3.217-5.584-3.023-9.166-3.5-11.511a5.783,5.783,0,0,0-1.69-3.291l11.3-4.289c1.422,2.368,5.331,15.01,6.872,19.917.089.29.186.6.283.9,1.593,4.922,4.229,12.032,5.435,12.97,1.288,1.013,11.124,1.072,13.626.186S89.09,216.236,87.236,217.866Z" transform="translate(-49.71 -175.702)"></path><path id="XMLID_106_" class="cls-5" d="M88.616,214.8c-1.869,1.631-8.361,1.884-10.99,2.2s-4.311,1.072-6.82.752-1.541-5.018-1.668-6.716c-.089-1.236-5.182-6.753-9.18-11.824a46.765,46.765,0,0,1-3.678-5.2c-3.217-5.584-3.023-9.166-3.5-11.511a5.783,5.783,0,0,0-1.69-3.291l11.3-4.289c1.422,2.368,5.331,15.011,6.872,19.91.1.3.186.6.283.908,1.593,4.922,4.229,12.032,5.435,12.97,1.288,1.013,11.124,1.072,13.626.186S90.47,213.168,88.616,214.8Z" transform="translate(-50.063 -174.92)"></path><path id="XMLID_105_" class="cls-15" d="M91.658,221.938c-1.869,1.631-8.362,1.884-10.99,2.2s-4.311,1.072-6.82.752c-2.472-.305-1.571-4.884-1.668-6.642v-.074C72.091,216.935,67,211.418,63,206.347c2.122-.521,6.8-1.787,9.583-3.477,1.593,4.922,4.229,12.032,5.435,12.97a2.131,2.131,0,0,0,.715.3c2.643.715,10.685.678,12.911-.1C94.16,215.155,93.512,220.308,91.658,221.938Z" transform="translate(-53.105 -182.059)"></path><path id="XMLID_104_" class="cls-16" d="M94.779,226.418c-1.869,1.631-8.361,1.884-10.99,2.2s-4.311,1.072-6.82.752c-2.472-.305-1.571-4.884-1.668-6.642,1.541.149,4.594.112,6.56-2.115,2.643.715,10.685.678,12.911-.1C97.281,219.635,96.633,224.787,94.779,226.418Z" transform="translate(-56.226 -186.539)"></path></g><path id="XMLID_102_" class="cls-7" d="M9.293,163.69s-6.18,7.788-6.083,10.893,4.631,7.535,10.893,8.2,15.949,1.683,20.245.946,7.327-1.981,7.52-4.237-2.025-5.867-2.606-7.595a2.66,2.66,0,0,0-4.147-1.162c-1.541,1.035-8.674,2.546-8.674,2.546a11.711,11.711,0,0,0,.871-3.112c-.1-.752-1.928-1.7-3.179.1s-4.817,4.8-5.688,5.837-6.843-.685-8.771-2.978S6.977,167.368,9.293,163.69Z" transform="translate(-0.816 -41.815)"></path><path id="Path_467" data-name="Path 467" class="cls-5" d="M32.632,184.82a8.181,8.181,0,0,0,4.05-1.4c2.345-1.78,3.768-5.688,1.623-8.108A6.852,6.852,0,0,0,36.05,173.6c-1.325-.529-2.889-.261-4.274-.186-1.519.082-3.038.216-4.549.417-.6.082-1.191.164-1.772.29l-.737.156a11.478,11.478,0,0,0,.864-3.112c-.1-.752-1.928-1.7-3.179.1s-4.817,4.8-5.688,5.837-6.843-.685-8.771-2.978-1.37-6.85.946-10.521c0,0-7.5,8.89-7.408,11.995s4.631,7.535,10.893,8.2c2.956.313,5.919.618,8.883.856a82.447,82.447,0,0,0,8.682.32C30.793,184.954,31.717,184.924,32.632,184.82Z" transform="translate(-0.374 -41.792)"></path><path id="XMLID_101_" class="cls-8" d="M26.484,122.652a30.545,30.545,0,0,1-12.628,3.954s-3.708-9.7-4.266-15.077a7.446,7.446,0,0,1,3.589-7.632c.544-.454,6.463,1.318,8.577,5.651A115.563,115.563,0,0,1,26.484,122.652Z" transform="translate(-2.431 -26.524)"></path><path id="XMLID_100_" class="cls-5" d="M35.708,97.369c-.432.946-8.533,2.494-10.558,0-.96-1.2-1.8-4.013-2.412-6.627-.663-2.859-1.057-5.473-1.057-5.473l13.372,4.75s.313,1.876.544,3.745A11.684,11.684,0,0,1,35.708,97.369Z" transform="translate(-5.534 -21.784)"></path><path id="XMLID_99_" class="cls-7" d="M101.1,103.339c-2.338.141-.834,5.7.037,7.87s3.857,2.263,5.011,1.7,3.276-2.889,3.179-3.47S103.879,103.167,101.1,103.339Z" transform="translate(-25.503 -26.398)"></path><path id="XMLID_98_" class="cls-5" d="M101.311,103.337c-1.511.134.022,4.869.893,7.036s3.857,2.264,5.011,1.7,3.276-2.889,3.179-3.47S104.088,103.084,101.311,103.337Z" transform="translate(-25.712 -26.396)"></path><path id="XMLID_97_" class="cls-7" d="M35.586,93.766a16.289,16.289,0,0,1-3.209.141c-2.844-.156-6.47-.6-9.65-3.164-.663-2.859-1.057-5.473-1.057-5.473l13.372,4.75C35.05,90.02,35.363,91.9,35.586,93.766Z" transform="translate(-5.532 -21.784)"></path><path id="XMLID_96_" class="cls-5" d="M36.776,50.214s2.383,5.741,1.876,18.674c-.447,11.593-8.22,12.769-12.695,12.948-4.527.186-10.543-1.847-15.055-7.505-1.556.737-7.051-2.241-5.9-7.989,1.139-5.711,5.711-2.822,5.711-2.822l-4.222-9.88L30.075,42.88Z" transform="translate(-1.235 -10.956)"></path><path id="XMLID_95_" class="cls-17" d="M27.7,50.508s-5.026,9.553-17.832,9.553c0,0,1.631,5.018-.38,6.12,0,0-5.2-2.144-5.9,1.467A15.141,15.141,0,0,1,.23,55.5C1.548,48.468,3.975,43.9,11.793,41.968a36.932,36.932,0,0,1,15.9.141s13.41.7,10.61,18.123C38.307,60.24,30.735,55.862,27.7,50.508Z" transform="translate(0.004 -10.513)"></path><path id="XMLID_94_" class="cls-17" d="M21.5,69.163a6.038,6.038,0,0,1,.692-.99A6.152,6.152,0,0,1,24.337,66.5a4.157,4.157,0,0,1,1.467-.432,2.225,2.225,0,0,1,.707.045,2,2,0,0,1,.611.171,2.6,2.6,0,0,1,.8.469,2.444,2.444,0,0,1,.261.231l-.045.089s-.134.007-.35,0a3.529,3.529,0,0,1-.372-.022c-.141-.015-.305.007-.469-.007a3.167,3.167,0,0,0-.529.007c-.186.015-.372,0-.566.03a4.627,4.627,0,0,0-1.251.149,5.255,5.255,0,0,0-1.206.514,8.508,8.508,0,0,0-.975.663,6.657,6.657,0,0,0-.849.8Z" transform="translate(-5.489 -16.875)"></path><path id="XMLID_93_" class="cls-17" d="M46.322,68.711a3.578,3.578,0,0,0-.514-.789c-.089-.112-.2-.216-.313-.335a2.158,2.158,0,0,0-.387-.343c-.149-.1-.3-.216-.454-.328a4.193,4.193,0,0,0-.506-.283c-.171-.089-.35-.186-.521-.275a5.083,5.083,0,0,0-.544-.171,2.636,2.636,0,0,0-.529-.067,1.942,1.942,0,0,0-.477.06,2.888,2.888,0,0,0-.938.335l.007.1a3.84,3.84,0,0,0,.871.4c.127.045.261.067.4.112a2.653,2.653,0,0,0,.432.134,3.341,3.341,0,0,0,.484.045c.164.022.328.074.491.112a3.707,3.707,0,0,1,.491.141c.156.067.305.134.454.2a2.145,2.145,0,0,1,.41.223c.127.074.261.141.365.216a4.98,4.98,0,0,1,.685.573Z" transform="translate(-10.505 -16.892)"></path><path id="XMLID_92_" class="cls-18" d="M28.217,72a1.609,1.609,0,1,1-1.608-1.571A1.589,1.589,0,0,1,28.217,72Z" transform="translate(-6.383 -17.993)"></path><ellipse id="XMLID_91_" class="cls-18" cx="1.474" cy="1.444" rx="1.474" ry="1.444" transform="translate(30.977 52.34)"></ellipse><path id="XMLID_90_" class="cls-19" d="M37.92,75.65a3.646,3.646,0,0,1,.789.216,2.782,2.782,0,0,1,.372.179,2.576,2.576,0,0,1,.387.3,1.91,1.91,0,0,1,.313.469l.082.3c.007.074.037.06.022.2v.357l-.1.335a1.546,1.546,0,0,1-.32.544,1.6,1.6,0,0,1-.462.305,1.235,1.235,0,0,1-.477.112,1.054,1.054,0,0,1-.41-.037.746.746,0,0,1-.29-.127.863.863,0,0,1-.2-.179l.037-.089s.082-.03.216-.074a1.427,1.427,0,0,0,.2-.112,2.319,2.319,0,0,0,.223-.149,5.274,5.274,0,0,0,.439-.387c.052-.067.164-.141.2-.194l.1-.089.067-.231.03-.112c.007.067,0-.022,0-.03V77a1.5,1.5,0,0,0-.112-.32,2.392,2.392,0,0,0-.484-.536,3.264,3.264,0,0,0-.64-.424Z" transform="translate(-9.609 -19.326)"></path><path id="XMLID_89_" class="cls-7" d="M95.753,98.774a18.858,18.858,0,0,1-8.838,1.817,17.242,17.242,0,0,1-7.073-1.817,37.2,37.2,0,0,0-.171-6.694H95.782A43.01,43.01,0,0,0,95.753,98.774Z" transform="translate(-20.347 -23.523)"></path><path id="XMLID_88_" class="cls-5" d="M85.029,11.078C71.366,10.311,59.87,22.165,59.1,42.514c0,0-1.444-2.263-2.889,0s.387,10.647,2.792,9.9c0,0,6.4,21.905,22.605,22.568s24.057-19.835,24.057-19.835a2.268,2.268,0,0,0,2.606-.663c1.348-1.318,5.108-11.116,0-9.419C108.267,45.06,114.052,12.716,85.029,11.078Z" transform="translate(-14.225 -2.824)"></path><path id="XMLID_87_" class="cls-18" d="M67.677,6.911c-1.251.469-3.663,0-5.495,2.45S56.941,27.8,58.259,38.7a3.661,3.661,0,0,1,1.415,1s2.465-11.518,6.649-17.177c.834-1.132,4.05-1.444,7.2,1.631s15.427,5.525,19.664,3.835c1.8-.819-1.735-2.889-1.8-4.676.127-.849,10.35-.223,14.973,3.425,1.095.879,2.442,11.809,2.472,15.517a4.6,4.6,0,0,1,1.281-.179s1.757-19.217,0-28.651c-.611-3.269-4.981-5.4-6.776-4.147,0,0-8.354-13.067-24.936-8.168A33.246,33.246,0,0,0,67.677,6.911Z" transform="translate(-14.802 -0.004)"></path><path id="XMLID_86_" class="cls-19" d="M87.393,61.274a7.527,7.527,0,0,0-.953,1.415,5.663,5.663,0,0,0-.551,1.571,4.362,4.362,0,0,0-.06.879,4.114,4.114,0,0,0,.141.856l.171.395.231.41c.171.223.305.343.469.536.156.156.305.3.462.432a2.823,2.823,0,0,0,.536.335,5.8,5.8,0,0,0,1.08.4c.313.082.491.127.491.127l.052.171a2.02,2.02,0,0,1-.447.335,2.845,2.845,0,0,1-1.444.365,2.807,2.807,0,0,1-1.057-.208,2.868,2.868,0,0,1-1.035-.7,4.026,4.026,0,0,1-.372-.536,4.638,4.638,0,0,1-.268-.611l-.156-.558-.1-.611a5.149,5.149,0,0,1,.007-1.221,4.985,4.985,0,0,1,.305-1.1,5.643,5.643,0,0,1,1.035-1.623,6.155,6.155,0,0,1,1.363-1.191Z" transform="translate(-21.593 -15.62)"></path><path id="XMLID_85_" class="cls-18" d="M78.9,50.4a2.156,2.156,0,1,1-2.152-2.107A2.134,2.134,0,0,1,78.9,50.4Z" transform="translate(-19.049 -12.338)"></path><path id="XMLID_84_" class="cls-18" d="M102.21,52.667a2.16,2.16,0,1,0,2.159-2.107A2.136,2.136,0,0,0,102.21,52.667Z" transform="translate(-26.105 -12.918)"></path><g id="XMLID_80_" transform="translate(58.02 56.994)"><path id="XMLID_83_" class="cls-20" d="M95.335,77.116a16.062,16.062,0,0,1-4.922,6.589,7.221,7.221,0,0,1-4.8,1.392A7.046,7.046,0,0,1,81.2,83.125,12.832,12.832,0,0,1,77.92,76.55s.469.141,1.3.335a37.936,37.936,0,0,0,14.7.529C94.4,77.324,94.866,77.228,95.335,77.116Z" transform="translate(-77.92 -76.55)"></path><path id="XMLID_82_" class="cls-21" d="M91.538,85.61A7.221,7.221,0,0,1,86.743,87a7.046,7.046,0,0,1-4.423-1.973,9.014,9.014,0,0,1,5.428-.938A6.908,6.908,0,0,1,91.538,85.61Z" transform="translate(-79.044 -78.454)"></path><path id="XMLID_81_" class="cls-22" d="M94.368,77.519c-.171.6-.454,1.3-.856,1.482-3.812,1.645-12.293.424-13.157,0-.544-.261-.67-1.288-.685-2.01A37.935,37.935,0,0,0,94.368,77.519Z" transform="translate(-78.367 -76.662)"></path></g><g id="XMLID_76_" transform="translate(24.939 61.617)"><path id="XMLID_79_" class="cls-20" d="M39.625,82.954a5.64,5.64,0,0,1-1.735,2.323,2.555,2.555,0,0,1-1.69.491,2.5,2.5,0,0,1-1.556-.692A4.534,4.534,0,0,1,33.49,82.76s.164.052.462.119a13.46,13.46,0,0,0,5.175.186C39.29,83.028,39.454,82.991,39.625,82.954Z" transform="translate(-33.49 -82.76)"></path><path id="XMLID_78_" class="cls-21" d="M38.286,85.948a2.555,2.555,0,0,1-1.69.491,2.5,2.5,0,0,1-1.556-.692,3.175,3.175,0,0,1,1.914-.328A2.375,2.375,0,0,1,38.286,85.948Z" transform="translate(-33.886 -83.431)"></path><path id="XMLID_77_" class="cls-22" d="M39.285,83.1c-.06.208-.164.454-.305.521a9.667,9.667,0,0,1-4.631,0c-.186-.089-.238-.454-.238-.707A13.449,13.449,0,0,0,39.285,83.1Z" transform="translate(-33.648 -82.798)"></path></g><path id="XMLID_75_" class="cls-7" d="M98.632,167.77c-.365,2.859-1.117,9.3-1.511,15.934-4.073,3.924-8.637,7.431-12.077,7.595-7.967.38-28.018-19.47-32.128-21.98a18.183,18.183,0,0,0-5.018-1.9c-3.3-.819-6.917-1.348-9.9-3.127a11.4,11.4,0,0,1-3.827-3.686,9.636,9.636,0,0,1-1.444-3.477l14.556.9,5.629.357a17.442,17.442,0,0,0,3.157,2.837c7.557,5.718,25.092,15.621,28.078,15C87.746,175.469,95.2,165.8,95.2,165.8Z" transform="translate(-8.357 -40.139)"></path><path id="XMLID_74_" class="cls-5" d="M105.343,168.6s-14.013,18.339-21.98,18.711-28.018-19.47-32.136-21.98-10.282-2.263-14.906-5.026a11.4,11.4,0,0,1-3.827-3.686,9.636,9.636,0,0,1-1.444-3.477L51.228,154.4a17.552,17.552,0,0,0,3.164,2.837c7.557,5.718,25.084,15.621,28.078,15,3.6-.752,11.057-10.424,11.057-10.424Z" transform="translate(-7.928 -39.12)"></path><path id="XMLID_73_" class="cls-7" d="M54.385,157.245c-3.894-.275-14.5,1.467-21.347-.432a4.241,4.241,0,0,1-.544-.186,9.636,9.636,0,0,1-1.444-3.477l20.178,1.258A17.442,17.442,0,0,0,54.385,157.245Z" transform="translate(-7.928 -39.122)"></path><path id="XMLID_72_" class="cls-5" d="M16.63,131.122s5.592,15.077,12.725,17.051,18.316.5,21.8.469c8.116-.06,12.68-3.835,12.613-5.681s-5.979-.439-5.979-.439,1.69-3.5-1.832-2.427c-4.244,1.3-14.646,1.861-21.444.35s-8.54-14.884-8.54-14.884Z" transform="translate(-4.245 -32.075)"></path><path id="XMLID_71_" class="cls-23" d="M122.493,119.91s4.884,2.226,6.91,9.2-2.316,34.012-2.316,34.012-12.337-3.671-15.807-12.062c0,0,3.44-5.808,5.428-8.414C116.708,142.649,114.333,126.73,122.493,119.91Z" transform="translate(-28.421 -30.632)"></path><path id="XMLID_70_" class="cls-18" d="M111.52,48.349a8.5,8.5,0,0,0-1.415-1.683,9.975,9.975,0,0,0-.819-.692,5.367,5.367,0,0,0-1-.685c-.372-.208-.752-.417-1.139-.64a9.788,9.788,0,0,0-1.251-.514c-.432-.164-.864-.328-1.288-.491-.432-.112-.871-.179-1.3-.246a6.884,6.884,0,0,0-1.236-.015,5.1,5.1,0,0,0-1.08.261A7.088,7.088,0,0,0,98.9,44.671l.037.246a8.665,8.665,0,0,0,2.137.685c.305.074.625.074.96.149a5.984,5.984,0,0,0,1.042.186c.365,0,.745.007,1.139-.03.387.015.767.082,1.169.127a7.516,7.516,0,0,1,1.169.2c.38.112.752.231,1.109.335a6.521,6.521,0,0,1,1.013.4,8.694,8.694,0,0,1,.908.41,11.026,11.026,0,0,1,1.742,1.132Z" transform="translate(-25.259 -11.079)"></path><path id="XMLID_69_" class="cls-18" d="M68.11,43.564a8.073,8.073,0,0,1,1.757-1.31,10.434,10.434,0,0,1,.96-.491,6,6,0,0,1,1.124-.447c.41-.119.826-.238,1.251-.365a9.942,9.942,0,0,1,1.333-.216c.454-.067.916-.127,1.363-.186.447-.015.893.03,1.325.052a6.645,6.645,0,0,1,1.206.268,5,5,0,0,1,1,.5,7.1,7.1,0,0,1,1.8,1.474l-.1.231a8.746,8.746,0,0,1-2.234.186c-.313,0-.633-.067-.968-.074a5.069,5.069,0,0,1-1.057-.06,9.3,9.3,0,0,1-1.1-.29c-.38-.074-.767-.1-1.162-.141a7.961,7.961,0,0,0-1.184-.074c-.395.022-.782.052-1.154.074a6.848,6.848,0,0,0-1.08.156,8.374,8.374,0,0,0-.975.194,10.7,10.7,0,0,0-1.951.707Z" transform="translate(-17.394 -10.36)"></path></g><g id="Group_175" data-name="Group 175" transform="translate(88.526 25.659)"><g id="Group_174" data-name="Group 174" transform="translate(24.562 234.669)"><g id="XMLID_63_"><path id="XMLID_67_" class="cls-5" d="M168.618,356.723c-.007,2.263-.059,5.16-.208,8.853-.484,12.337-3.373,35.144-3.76,42.582a118.569,118.569,0,0,0,.209,16.462c.067.916.141,1.876.223,2.9.045.558.089,1.139.141,1.742.06.715.089,1.385.1,2.01.164,7.535-2.874,8.257-6.18,8.257-3.574,0-5.115-1.7-4.05-5.182a25.526,25.526,0,0,0,.611-2.509c.99-4.981,1.936-14.817.03-28.39-2.316-16.455-2.7-26.626-2.316-33.543a63.107,63.107,0,0,0-.045-10.052,37.07,37.07,0,0,0-1.5-7.282L168.4,349.65A57.4,57.4,0,0,1,168.618,356.723Z" transform="translate(-151.88 -349.643)"></path><path id="XMLID_66_" class="cls-24" d="M203.3,359.468a215,215,0,0,1-11.6,27.266c-4.371,8.295-12.248,31.034-13.023,34.89s1.966,9.084,4.281,11.392c.2.2.4.409.6.611,2.01,2.115,3.4,4.162.938,4.735-6.046,1.132-10.156-.38-12.218-3.544-.856-1.325-1.943-2.375-2.755-3.552-1.124-1.623-1.727-3.484-.469-6.656,0-.007.007-.007.007-.015.29-.737.588-1.534.879-2.4,1.876-5.584,3.812-14.355,6.6-32.068,2.9-18.376,9.069-27.542,10.856-31.227a5.859,5.859,0,0,0,.432-1.057c.774-2.762-.9-8.2-.9-8.2l18,.908C205.394,351.963,204.664,355.3,203.3,359.468Z" transform="translate(-156.089 -349.64)"></path><path id="XMLID_65_" class="cls-25" d="M184.511,463.262c-6.046,1.132-10.156-.38-12.218-3.544s-5.4-4.75-3.217-10.223c.29-.737.588-1.534.879-2.4,1.05,2.867,3.842,10.409,5.361,11.586,1.638,1.266,6.128,1.124,8.25-.149C185.583,460.634,186.968,462.689,184.511,463.262Z" transform="translate(-156.091 -374.532)"></path><path id="XMLID_64_" class="cls-26" d="M160.147,466.25c-3.574,0-5.115-1.705-4.05-5.182a25.547,25.547,0,0,0,.611-2.509,6.518,6.518,0,0,0,.8,2.889c.841.752,6.455.506,7.647-1.072.715-.953.893-3.931.923-6.135.045.558.089,1.139.141,1.742C166.982,465.4,163.713,466.25,160.147,466.25Z" transform="translate(-152.872 -376.358)"></path></g><path id="XMLID_62_" class="cls-27" d="M168.412,349.65a61.285,61.285,0,0,1,.208,7.066c-3.961.752-7.23,2.494-10.238,3.038a18,18,0,0,1-5,.1,37.071,37.071,0,0,0-1.5-7.282Z" transform="translate(-151.883 -349.643)"></path></g><path id="Path_468" data-name="Path 468" class="cls-28" d="M200.279,291c-3.663-9.8-6.939-48.806-11.764-65.946s-11.451-25.263-11.451-33.937c0-.209,0-.424.007-.64-7.624.469-22.866,1.206-30.408.194C146.6,194.017,136.4,234.1,133.7,242.309c-5.919,17.981-14.4,65.909-14.787,68.7s4.631.916,12.338,1.474,13.5,2.829,18.7,1.884S161.137,308.9,170.2,312.1s16.969,3.581,22.367,1.318,11.764-.305,15.427-2.42S203.942,300.8,200.279,291Z" transform="translate(-118.892 -74.316)"></path><path id="XMLID_61_" class="cls-17" d="M188.527,61.861c-.089,8.19-.581,20.163-.752,32.977a18.19,18.19,0,0,1-3.365,10.632c-2.033-.588-4.542-1.065-6.865-1.631-3.217-.789-25.39.975-25.784-.566-3.083,1.117-6.2,1.7-8.764,3.015-.03.015-.06.03-.1.052-.149.082-.29.164-.447.246-.06.037-.127.067-.186.1a5.454,5.454,0,0,0-.67.439q-.168.112-.335.246a11.706,11.706,0,0,0-2.345,2.68c-.015.007-.015.007-.015.015-.365.544-.7,1.124-1.027,1.735-.223-.5-.462-1.005-.7-1.526-4.691-10.364-1.377-28.83-2.256-44.19s5.2-23.64,9.642-26.9,7.52-1.452,7.52-1.452c2.889-2.546,8.481-3.864,16.492-3.015C185.541,36.8,188.624,53.656,188.527,61.861Z" transform="translate(-122.902 -34.465)"></path><path id="Path_469" data-name="Path 469" class="cls-5" d="M194.455,142.066c-2.465-6.723-5.488-14.266-6.642-15.949-.581-.849-2.04-1.459-3.879-2-2.033-.588-4.542-1.065-6.865-1.631-3.217-.789-6.076-1.757-6.805-3.432a14.414,14.414,0,0,1-.968-4.936,34.506,34.506,0,0,1,.268-6.053s-11.25-1.824-13.328.96c0,0,.2,1.936.223,4.214v.64a15.657,15.657,0,0,1-.722,5.271,2.177,2.177,0,0,1-.849,1.139,22.229,22.229,0,0,1-3.6,1.638c-3.083,1.117-6.2,1.7-8.764,3.015-.03.015-.06.03-.1.052-.149.082-.29.164-.447.246-.06.037-.127.067-.186.1a5.451,5.451,0,0,0-.67.439q-.168.112-.335.246a8.771,8.771,0,0,0-2.345,2.68c-.015.007-.015.007-.015.015a10.632,10.632,0,0,0-.893,2.01c-.112.328-.208.67-.3,1.035-1.065,4.229-2.889,11.422-4.475,18.592a24.968,24.968,0,0,0,12.784,4.289c.782-3.008,1.407-5.257,1.482-5.517l.007-.03c0,.015.007.022.007.037.208.7,3.559,12.136,3.812,22.352.007.328.007.655,0,1.005,7.542,1.013,22.784.268,30.408-.194.134-8.853,2.881-25.554,2.881-25.554l4.438,10.126s9.061-2.442,9.449-3.559C198.215,152.825,196.532,147.732,194.455,142.066Z" transform="translate(-122.434 -53.116)"></path><path id="XMLID_60_" class="cls-7" d="M177.362,114.122a21.354,21.354,0,0,1-2.42.514,26.581,26.581,0,0,1-3.1.283,20.729,20.729,0,0,1-7.312-1.035v-.64c-.022-2.278-.223-4.214-.223-4.214,2.077-2.785,13.328-.96,13.328-.96A34.081,34.081,0,0,0,177.362,114.122Z" transform="translate(-130.493 -53.116)"></path><path id="XMLID_59_" class="cls-5" d="M160.7,43.428c-6.195.96-23.022,5.644-16.522,24.7,0,0-1.586-2.033-2.941-.975s.045,11.116,3.983,9.635c0,0,4.3,18,20.706,17.609S186.32,77.588,186.32,77.588a2.791,2.791,0,0,0,2.9-1.377c1.072-1.78,2.182-8.875-1.653-7.118C187.563,69.093,192.254,38.528,160.7,43.428Z" transform="translate(-124.47 -36.618)"></path><path id="XMLID_58_" class="cls-17" d="M157.347,48.913s-4.512,7.818-12.315,9.9a38.139,38.139,0,0,0-1.355,8.153l-4.907-4.668s.06-18.048,12.6-22.449,29.887,1.534,33.744,7,5.182,15.993,1.951,21.079a12.076,12.076,0,0,0-.365-4.966C186.705,62.956,169.558,61.258,157.347,48.913Z" transform="translate(-123.969 -35.448)"></path><path id="XMLID_57_" class="cls-18" d="M158.91,77.367a2.156,2.156,0,1,0,2.159-2.107A2.136,2.136,0,0,0,158.91,77.367Z" transform="translate(-129.114 -44.885)"></path><path id="XMLID_56_" class="cls-18" d="M185.909,77.147a2.16,2.16,0,1,1-2.159-2.107A2.136,2.136,0,0,1,185.909,77.147Z" transform="translate(-134.907 -44.829)"></path><path id="XMLID_55_" class="cls-19" d="M174.8,83.13a4.6,4.6,0,0,1,1.095.908,4.413,4.413,0,0,1,.849,1.266,4.018,4.018,0,0,1,.261.879,4.32,4.32,0,0,1,.022.983l-.074.491c-.067.231-.074.29-.112.447a2.852,2.852,0,0,1-.514.946,2.291,2.291,0,0,1-1.72.722,2.115,2.115,0,0,1-1.154-.35,1.411,1.411,0,0,1-.342-.3l.052-.164.387-.141a4.527,4.527,0,0,0,.8-.38,2.83,2.83,0,0,0,.372-.275c.1-.1.2-.208.313-.313.119-.134.209-.2.35-.357a3.035,3.035,0,0,1,.194-.3l.134-.29a2.978,2.978,0,0,0,.127-.633,3.317,3.317,0,0,0-.03-.663,4.551,4.551,0,0,0-.387-1.214,6.224,6.224,0,0,0-.707-1.124Z" transform="translate(-132.741 -46.896)"></path><g id="XMLID_51_" transform="translate(36.691 46.13)"><path id="XMLID_54_" class="cls-20" d="M178.616,96.763a9.637,9.637,0,0,1-2.956,3.954,4.326,4.326,0,0,1-2.874.834,4.224,4.224,0,0,1-2.651-1.184,7.688,7.688,0,0,1-1.966-3.946s.283.089.782.2a22.768,22.768,0,0,0,8.816.32Q178.192,96.863,178.616,96.763Z" transform="translate(-168.17 -96.42)"></path><path id="XMLID_53_" class="cls-21" d="M176.345,101.85a4.326,4.326,0,0,1-2.874.834,4.224,4.224,0,0,1-2.651-1.184,5.372,5.372,0,0,1,3.254-.558A4.173,4.173,0,0,1,176.345,101.85Z" transform="translate(-168.847 -97.561)"></path><path id="XMLID_52_" class="cls-22" d="M178.036,97a1.536,1.536,0,0,1-.514.893c-2.286.983-7.371.253-7.892,0-.328-.156-.4-.774-.41-1.206A22.8,22.8,0,0,0,178.036,97Z" transform="translate(-168.438 -96.489)"></path></g><path id="XMLID_50_" class="cls-22" d="M179.6,145.515a2.07,2.07,0,1,1-2.07-2.025A2.052,2.052,0,0,1,179.6,145.515Z" transform="translate(-133.341 -62.314)"></path><path id="XMLID_49_" class="cls-22" d="M179.6,155.175a2.07,2.07,0,1,1-2.07-2.025A2.052,2.052,0,0,1,179.6,155.175Z" transform="translate(-133.341 -64.781)"></path><path id="XMLID_48_" class="cls-22" d="M179.6,164.025A2.07,2.07,0,1,1,177.53,162,2.052,2.052,0,0,1,179.6,164.025Z" transform="translate(-133.341 -67.042)"></path><path id="XMLID_47_" class="cls-17" d="M153.12,72.983a10.1,10.1,0,0,1,1.407-1.08A12.774,12.774,0,0,1,156.121,71c.305-.149.625-.283.953-.417.335-.112.67-.261,1.028-.35a10.5,10.5,0,0,1,1.057-.276,4.715,4.715,0,0,1,1.057-.156,4.469,4.469,0,0,1,1.005.045,5.516,5.516,0,0,1,2.115.707,3.418,3.418,0,0,1,.424.268l-.037.112s-.194.015-.5.015c-.156.007-.343,0-.551-.007s-.447.022-.7.015-.521.007-.8.022-.581.015-.893.037a11.89,11.89,0,0,0-1.958.127c-.335.037-.663.134-.99.2-.32.089-.64.179-.946.275-.6.208-1.176.424-1.646.64a13.859,13.859,0,0,0-1.541.812Z" transform="translate(-127.635 -43.487)"></path><path id="XMLID_46_" class="cls-17" d="M191.625,73.085a13.906,13.906,0,0,0-1.534-.819c-.469-.216-1.035-.439-1.646-.648-.305-.1-.625-.194-.946-.283-.328-.067-.655-.164-.99-.208a11.865,11.865,0,0,0-1.958-.134c-.313-.03-.6-.037-.894-.045s-.558-.037-.812-.03-.491-.015-.7-.022-.395.015-.551.007a4.638,4.638,0,0,1-.5-.022l-.037-.112a4.077,4.077,0,0,1,.432-.268,4.379,4.379,0,0,1,1.236-.521,6.1,6.1,0,0,1,1.884-.223,5.28,5.28,0,0,1,1.057.164,10.549,10.549,0,0,1,1.057.283c.357.089.685.238,1.028.35.328.134.655.275.953.417a11.325,11.325,0,0,1,1.586.916,10.436,10.436,0,0,1,1.407,1.087Z" transform="translate(-134.772 -43.477)"></path><path id="Path_470" data-name="Path 470" class="cls-29" d="M194.167,147.021c-2.465-6.723-5.487-14.266-6.642-15.949-.581-.849-2.04-1.459-3.879-2-2.033-.588-4.542-1.065-6.865-1.631a11.583,11.583,0,0,1-9.389,6.56,19.241,19.241,0,0,1-3.068.127,22.635,22.635,0,0,1-7.483-1.37c-4.17-1.645-5.45-4.341-5.845-5.882-4.341,1.571-9.4,1.683-12.39,5.584-4.274,5.577-5.54,13.752-6.671,20.52-.022.156-.417,1.616-.268,1.742.261.208.536.41.8.6a24.968,24.968,0,0,0,12.784,4.289c.275.015.424.015.424.015s1.05-5.51,1.057-5.532l.007-.03c0,.015.007.022.007.037C149.732,168.874,148,176.96,148,176.96a18.1,18.1,0,0,0,2.569.5c7.542,1.013,22.784.268,30.408-.194,2.792-.164,4.557-.305,4.557-.305l-1.675-25.248C189.425,150.215,192.529,148.353,194.167,147.021Z" transform="translate(-122.147 -58.071)"></path></g><g id="Group_176" data-name="Group 176" transform="translate(95.841 118.276)"><path id="Path_471" data-name="Path 471" class="cls-18" d="M226.37,187.532s-42.083-1.534-42.9,8.756c-.573,7.26-.871,16.73.931,19.254,1.34,1.884,15.718,6.292,28.606,5.718a34.5,34.5,0,0,0,10.171-1.817c.633-.223,1.243-.477,1.839-.752C227.137,217.494,226.825,192.737,226.37,187.532Z" transform="translate(-142.589 -166.16)"></path><path id="XMLID_45_" class="cls-5" d="M195,365.547s-.6,2.211-1.437,5.517c-1.243,4.929-2.993,12.285-4.036,18.353-.171,1.005-.313,1.973-.447,2.889-1.415,10.178-12.471,32.783-15.681,43.133s-3.47,12.769-3.47,12.769l-5.785-.886s4.75-18.339,6.627-27.824c1.616-8.183,4.028-21.585,5.666-32.24.261-1.712.506-3.343.722-4.877.707-4.966,1.1-8.845,1.333-11.63.283-3.455.3-5.212.3-5.212H195Z" transform="translate(-137.767 -211.65)"></path><path id="XMLID_44_" class="cls-5" d="M226.9,363.2a42.9,42.9,0,0,1-1.251,6.113c-1.452,5.681-3.872,13.782-5.748,21.012-1.065,4.14-1.958,7.989-2.39,10.938-1.541,10.551-6.173,32.917-7.974,39.7s2.323,8.414,2.323,8.414H201.45s.774-4.147,1.281-16.7c1.035-17.966,2.7-31.034,3.857-40.825.074-.685.164-1.392.231-2.122.678-6.522,1.147-14.653,1.392-19.322.112-2.331.179-3.8.179-3.8Z" transform="translate(-147.295 -211.052)"></path><path id="XMLID_43_" class="cls-27" d="M209.678,359.471c-4.259,1.2-9.717,1.035-15.889-.566a5.862,5.862,0,0,0,.432-1.057c.774-2.762-.9-8.2-.9-8.2l18,.908C211.77,351.966,211.041,355.3,209.678,359.471Z" transform="translate(-145.218 -207.591)"></path><path id="XMLID_42_" class="cls-5" d="M224.02,281.959c2.524,21.481,1.139,48.739,1.139,48.739-22.881,3.135-46.409,0-46.409,0,2.442-22.612,4.371-37.682,5.912-51.628a132.7,132.7,0,0,0,.685-19.024c-.134-3.894-.395-6.262-.395-6.262A25.747,25.747,0,0,1,174.73,251.9s2.219-6.589,3.76-10.833c1.735-5.808,4.728-8.5,7.84-9.784a15.849,15.849,0,0,1,3.581-.975c1.727-.275,3.358-.32,4.683-.439a.045.045,0,0,0,.03-.007,3.264,3.264,0,0,0,2.948-2.963,12.349,12.349,0,0,0-.186-4.7l7.84.454a6.6,6.6,0,0,0,.491,4.728,6.13,6.13,0,0,0,3.507,2.509,20.974,20.974,0,0,0,3.745.826c1.109.156,2.3.283,3.529.409.261.022.521.052.8.074,5.517.529,13.879,17.713,13.879,17.713-3.209,3.261-9.382,5.525-9.382,5.525l-2.189-3.142.007.045c.082.424.8,4.088,1.906,11.608C222.226,267.7,223.075,273.977,224.02,281.959Z" transform="translate(-140.47 -175.036)"></path><path id="XMLID_41_" class="cls-15" d="M231.2,251.553a1.3,1.3,0,0,1-.179.171,10.488,10.488,0,0,0-.864-.864l-6.939,4.251s.246.41.67,1.1c-1.229.558-2.07.864-2.07.864l-2.189-3.142s.737,3.626,1.914,11.652c-6.068.1-13.827.246-13.827.246s-13.789-3.671-15.137-3.768c-.685-.045-3.991.3-7.222.611-.082-2.539-.223-4.43-.305-5.443.015-.484.022-.908.007-1.288l-8.049-1.757s-.052.395-.156,1.1a17.374,17.374,0,0,1-2.115-.759s2.219-6.589,3.76-10.833c3.38-11.3,11.5-10.766,16.105-11.191a.045.045,0,0,0,.03-.007,10.6,10.6,0,0,0,7.811,4.117,6.436,6.436,0,0,0,6.8-4.088,38.128,38.128,0,0,0,8.079,1.31C222.832,234.369,231.2,251.553,231.2,251.553Z" transform="translate(-140.472 -177.667)"></path><path id="XMLID_40_" class="cls-30" d="M183.725,365.55H199.92s-.6,2.211-1.437,5.517c-6.567.045-11.921-.156-15.063-.305C183.71,367.307,183.725,365.55,183.725,365.55Z" transform="translate(-142.69 -211.653)"></path><path id="XMLID_39_" class="cls-30" d="M229.219,363.2a42.9,42.9,0,0,1-1.251,6.113c-6.061.625-12.025.946-17.438,1.08.112-2.331.179-3.8.179-3.8Z" transform="translate(-149.614 -211.052)"></path><path id="XMLID_38_" class="cls-23" d="M226.569,333.477c-22.881,3.135-46.409,0-46.409,0,.2-1.854.395-3.663.6-5.421.715-6.537,1.385-12.412,2.018-17.825.149-1.266.29-2.5.432-3.723.611-5.167,1.169-9.918,1.7-14.43.417-3.537.8-6.917,1.169-10.238a132.7,132.7,0,0,0,.685-19.024c-.134-3.894-.395-6.262-.395-6.262.395-8.5,1.109-18.793,1.377-22.5a15.955,15.955,0,0,1,3.581-.975c-.082,6.865,2.167,21.31,2.167,21.31,7.431,3.492,19.962,0,19.962,0,1.37-5.458,1.109-16.537.938-20.893,1.109.156,2.3.283,3.529.409.767,5.927,3.1,20.17,3.1,20.17l.007.045c.082.424.8,4.088,1.906,11.608.685,4.743,1.534,11.02,2.472,19,.328,2.733.581,5.562.782,8.414.03.432.06.856.1,1.3.365,5.458.536,10.967.611,16.06q.011.96.022,1.9C227.038,324.3,226.569,333.477,226.569,333.477Z" transform="translate(-141.857 -177.815)"></path><path id="XMLID_37_" class="cls-29" d="M215.64,269.685a2.07,2.07,0,1,1-2.07-2.025A2.052,2.052,0,0,1,215.64,269.685Z" transform="translate(-149.862 -186.648)"></path><ellipse id="XMLID_36_" class="cls-29" cx="2.07" cy="2.025" rx="2.07" ry="2.025" transform="translate(60.99 90.192)"></ellipse><path id="XMLID_35_" class="cls-11" d="M193.615,314.154s-.573,15.39-9.985,16.328c.774-6.649,1.482-12.591,2.129-18.153A20.561,20.561,0,0,1,193.615,314.154Z" transform="translate(-142.743 -198.058)"></path><path id="XMLID_34_" class="cls-11" d="M240.7,333.459c-8.257-2.07-8.786-16.12-8.786-16.12a20.955,20.955,0,0,1,8.153-1.839C240.465,321.643,240.644,327.852,240.7,333.459Z" transform="translate(-155.075 -198.868)"></path><path id="XMLID_33_" class="cls-15" d="M247.383,257.361a26.164,26.164,0,0,1-7.133,4.482c-.424-.692-.67-1.1-.67-1.1l6.939-4.252C246.795,256.743,247.085,257.034,247.383,257.361Z" transform="translate(-157.035 -183.795)"></path><path id="XMLID_32_" class="cls-7" d="M241.881,331.113a4.383,4.383,0,0,1-2.539,1.921c-1.154,0-.283-1.653.067-4.207s-.454-9.322.134-11.667a22.955,22.955,0,0,1,1.638-3.41c.03.432.06.856.1,1.3C241.635,320.511,241.814,326.02,241.881,331.113Z" transform="translate(-156.826 -198.421)"></path><path id="XMLID_31_" class="cls-5" d="M261.108,283.357c-3.1,5.2-14.541,20.327-15.256,21.019s-.246,4.683-.633,7.595-2.993,5.584-4.147,5.584-.283-1.653.067-4.207-.454-9.322.134-11.667,10.8-18.733,10.409-20.126c-.335-1.184-8.57-14.772-11-18.763a26.345,26.345,0,0,0,7.133-4.482C253.119,264.088,262.083,281.578,261.108,283.357Z" transform="translate(-157.268 -184.26)"></path><path id="XMLID_30_" class="cls-15" d="M185.778,264.675c-.052-.536-.082-.819-.082-.819a29,29,0,0,1-8.116-1.124c.1-.707.156-1.1.156-1.1l8.049,1.757C185.8,263.767,185.793,264.2,185.778,264.675Z" transform="translate(-141.198 -185.108)"></path><path id="XMLID_29_" class="cls-7" d="M185.988,348.522c-.648.186-1.921-2.07-1.921-2.07.194,3.083,1.6,4.966,1.861,6.656s-.253,2.576-2.4,2.576c-.812,0-1.72-.916-2.561-2.427.715-6.537,1.385-12.412,2.018-17.825.149-1.266.29-2.5.432-3.723a37.686,37.686,0,0,0,.1,5.889c.618,3.768,1.482,4.1,2.606,6.768C187.6,347.822,186.636,348.329,185.988,348.522Z" transform="translate(-142.064 -203.009)"></path><path id="XMLID_28_" class="cls-5" d="M184.3,328.835c-.648.186-1.921-2.07-1.921-2.07.194,3.083,1.6,4.966,1.861,6.656s-.253,2.576-2.4,2.576-4.937-6.426-5.569-13.06-1.675-16.827-1.906-29.142c-.2-10.565,1.824-26.4,2.39-30.676a28.918,28.918,0,0,0,8.116,1.124s.03.283.082.819c-.275,7.193-3.842,25.137-3.112,30.617.774,5.837-.618,18.465,0,22.233s1.482,4.1,2.606,6.768C185.906,328.128,184.945,328.649,184.3,328.835Z" transform="translate(-140.373 -185.489)"></path><path id="XMLID_27_" class="cls-15" d="M189.532,396.869c-.171,1.005-.313,1.973-.447,2.889-1.415,10.178-12.471,32.783-15.681,43.133s-3.47,12.769-3.47,12.769l-5.785-.886s4.75-18.339,6.627-27.824c1.616-8.183,4.028-21.585,5.666-32.24A74.632,74.632,0,0,0,189.532,396.869Z" transform="translate(-137.767 -219.101)"></path><path id="XMLID_26_" class="cls-15" d="M209.536,450.054c-1.8,6.783,2.323,8.414,2.323,8.414H201.45s.774-4.147,1.281-16.7c1.035-17.966,2.7-31.034,3.857-40.825.074-.685.164-1.392.231-2.122a40.247,40.247,0,0,0,13.09.611c-1.065,4.14-1.958,7.989-2.39,10.938C215.969,420.911,211.338,443.271,209.536,450.054Z" transform="translate(-147.295 -220.151)"></path><path id="XMLID_25_" class="cls-8" d="M165.283,473.749c-3.008-.678-6.076,1.6-7.133,5.562,0,0,5.882,3.3,11.377,1.035C169.527,480.339,172.416,475.35,165.283,473.749Z" transform="translate(-136.235 -239.26)"></path><path id="XMLID_24_" class="cls-8" d="M201.484,474.53a24.2,24.2,0,0,0-1.5,6.232s9.307,2.628,17.259,1.981c1.154-.1.194-6.12-5.108-5.748S202.407,477.814,201.484,474.53Z" transform="translate(-146.919 -239.49)"></path><path id="XMLID_19_" class="cls-7" d="M213.489,227.395a15.7,15.7,0,0,1-3.8.275,17.847,17.847,0,0,1-4.348-.752,12.349,12.349,0,0,0-.186-4.7l7.84.454A6.616,6.616,0,0,0,213.489,227.395Z" transform="translate(-148.24 -175.041)"></path><path id="XMLID_18_" class="cls-5" d="M199.094,167.819c-3.7,1.839-16,7.632-10.312,21.95,0,0-1.154-1.035-2.6.469s-.194,8.384,2.7,8.384c0,0,4.624,11.213,16.388,11.779s16.872-11.682,16.872-11.682,2.7.469,3.083-3.3-.864-6.314-3.083-5L226,183.641C225.988,183.648,205.736,164.52,199.094,167.819Z" transform="translate(-143.241 -161.048)"></path><path id="XMLID_17_" class="cls-18" d="M197.253,172.283s-2.8,9.24-9.158,9.523a32.8,32.8,0,0,0,.179,5.77s-3.306-.2-4.654,1.4c0,0,.99-16.544,6.009-23.737a8.616,8.616,0,0,1,7.3-3.983s3.112-3.827,12.561-1.817,15.234,7.848,16.775,18.465-2.7,10.245-2.7,10.245a1.391,1.391,0,0,0-1.928.082,28.366,28.366,0,0,0,0-7.1C221.63,181.144,202.391,181.784,197.253,172.283Z" transform="translate(-142.741 -158.856)"></path><path id="XMLID_16_" class="cls-18" d="M196.1,192.265a6.125,6.125,0,0,1,2.77-2.085,3.964,3.964,0,0,1,1.325-.29,2.118,2.118,0,0,1,.625.082,1.894,1.894,0,0,1,.536.186,2.176,2.176,0,0,1,.692.469,2.461,2.461,0,0,1,.223.223l-.045.089s-.119.007-.313.007c-.1,0-.209-.007-.335-.015s-.268.007-.417-.007c-.3-.022-.625-.007-.968-.007a4.726,4.726,0,0,0-1.117.03,6.066,6.066,0,0,0-2.048.8,5.533,5.533,0,0,0-.849.6Z" transform="translate(-145.928 -166.783)"></path><path id="XMLID_14_" class="cls-18" d="M198.2,196.745a1.772,1.772,0,1,0,1.772-1.735A1.754,1.754,0,0,0,198.2,196.745Z" transform="translate(-146.465 -168.091)"></path><path id="XMLID_13_" class="cls-18" d="M223.881,192.426a5.4,5.4,0,0,0-.8-.655,6.319,6.319,0,0,0-1.988-.938,4.471,4.471,0,0,0-1.109-.1c-.343-.022-.678-.06-.968-.06-.149,0-.29-.022-.417-.022s-.238,0-.335-.007c-.194-.007-.313-.022-.313-.022l-.037-.089a1.422,1.422,0,0,1,.238-.209,2.073,2.073,0,0,1,.722-.417,1.772,1.772,0,0,1,.544-.149,1.977,1.977,0,0,1,.633-.037,4.158,4.158,0,0,1,1.3.387,5.72,5.72,0,0,1,1.958,1.422,5.638,5.638,0,0,1,.655.856Z" transform="translate(-151.499 -166.736)"></path><path id="XMLID_11_" class="cls-19" d="M210.288,201.722a3.588,3.588,0,0,0-.328.625,2.182,2.182,0,0,0-.156.64.806.806,0,0,0,.015.328.614.614,0,0,0,.1.3l.067.134v.007h0c-.015-.03.03.074-.03-.067l.007.007.015.022.037.045.075.082c.045.06.1.112.134.171s.06.007.074.022a.871.871,0,0,0,.074.112c.022.067.089.1.134.164a2.742,2.742,0,0,0,.6.417l.037.127a.856.856,0,0,1-.179.208,1.1,1.1,0,0,1-.655.275,1.186,1.186,0,0,1-.521-.067,1.042,1.042,0,0,1-.544-.372,1.4,1.4,0,0,1-.194-.29c-.022-.067-.037-.141-.052-.208l-.022-.112-.015-.052-.007-.03-.007-.015c-.06-.141-.015-.037-.03-.074h0V204.1l-.022-.29a1.553,1.553,0,0,1,.03-.558,1.655,1.655,0,0,1,.156-.491,2.13,2.13,0,0,1,.5-.692,2.425,2.425,0,0,1,.625-.462Z" transform="translate(-149.194 -169.777)"></path><g id="XMLID_7_" transform="translate(57.26 38.088)"><path id="XMLID_10_" class="cls-20" d="M214.4,210.055a8.036,8.036,0,0,1-2.383,3.388,3.634,3.634,0,0,1-2.4.767,3.554,3.554,0,0,1-2.256-.931,6.5,6.5,0,0,1-1.742-3.269s.238.067.663.149a19.028,19.028,0,0,0,7.409.067C213.929,210.174,214.168,210.114,214.4,210.055Z" transform="translate(-205.62 -210.01)"></path><path id="XMLID_9_" class="cls-21" d="M212.614,214.367a3.634,3.634,0,0,1-2.4.767,3.553,3.553,0,0,1-2.256-.931,4.5,4.5,0,0,1,2.725-.544A3.409,3.409,0,0,1,212.614,214.367Z" transform="translate(-206.218 -210.935)"></path><path id="XMLID_8_" class="cls-22" d="M213.928,210.267c-.074.305-.208.663-.409.759-1.9.879-6.187.38-6.627.179-.276-.127-.357-.64-.372-1.005A19.013,19.013,0,0,0,213.928,210.267Z" transform="translate(-205.85 -210.059)"></path></g><path id="XMLID_6_" class="cls-18" d="M221.854,196.745a1.772,1.772,0,1,1-1.772-1.735A1.754,1.754,0,0,1,221.854,196.745Z" transform="translate(-151.602 -168.091)"></path><path id="Path_472" data-name="Path 472" class="cls-5" d="M224.308,242.025c1.422.067,2.889-3.7,3.351-3.633.655.1,1.355,2.062,1.571,2.524a19.737,19.737,0,0,0,1.847,3.879c1.534,2,4.46,3.172,6.575,1.273,3.365-3.03-.3-9.821-2.4-12.576a13.3,13.3,0,0,1-1.772-3.082,34.5,34.5,0,0,1-10.171,1.817C223.235,235.548,223.258,241.973,224.308,242.025Z" transform="translate(-152.871 -177.133)"></path><path id="Path_473" data-name="Path 473" class="cls-5" d="M157.8,223.4c.67,1.355,1.407,2.68,2.182,3.976a12.53,12.53,0,0,0,1.258,2,5.057,5.057,0,0,0,1.541.923,8.564,8.564,0,0,0,1.861.678,11.466,11.466,0,0,0,4,.2,2.968,2.968,0,0,0,2.829-3.15c-.03-2.062-1.757-3.142-2.867-4.624-2.122-2.829-2.256-4.028-2.256-4.028a6.888,6.888,0,0,1,2.889-.119c1.221.305,2.182-1.072,1.415-1.951s-2.316-1.318-3.663-1.884a15.449,15.449,0,0,0-4.75-1.5c-.581-.06-17-12.784-20.952-26.44-.7-2.055,1.6-11.786,3.239-18.108a24.968,24.968,0,0,1-12.784-4.289c-1.8,8.175-3.291,16.328-2.986,20.044.581,6.962,4.624,14.914,14.906,24.586S156.127,220.014,157.8,223.4Z" transform="translate(-128.716 -160.446)"></path></g></g></g></g></svg>