<svg xmlns="http://www.w3.org/2000/svg" xmlns:xlink="http://www.w3.org/1999/xlink" viewBox="0 0 365.94 113.363"><defs><style>
      .cls-1 {
        fill: #27d367;
      }

      .cls-2, .cls-3 {
        fill: #fff;
      }

      .cls-2 {
        font-size: 27px;
        font-family: Roboto-Regular, Roboto;
      }

      .cls-4 {
        clip-path: url(#clip-path);
      }

      .cls-5 {
        fill: #ffbd96;
      }

      .cls-14, .cls-6 {
        fill: #f2a77c;
      }

      .cls-7 {
        fill: #ebeef0;
      }

      .cls-8 {
        fill: #d2d9dc;
      }

      .cls-9 {
        fill: #262626;
      }

      .cls-10 {
        fill: #21477b;
      }

      .cls-11 {
        fill: #c7cfd4;
      }

      .cls-12 {
        fill: #dce1e4;
      }

      .cls-13 {
        fill: #7c400e;
      }

      .cls-14 {
        opacity: 0.5;
      }

      .cls-15 {
        fill: #d45366;
      }

      .cls-16 {
        fill: #a7d8f2;
      }

      .cls-17 {
        fill: #375988;
      }

      .cls-18 {
        fill: #c9e7f7;
      }

      .cls-19 {
        fill: #545454;
      }
    </style><clipPath id="clip-path"><rect id="Rectangle_150" data-name="Rectangle 150" width="130.348" height="113.363"></rect></clipPath></defs><g id="Group_1226" data-name="Group 1226" transform="translate(5396.94 3710.023)"><rect id="Rectangle_205" data-name="Rectangle 205" class="cls-1" width="365.94" height="75.289" rx="37.645" transform="translate(-5396.94 -3672.544)"></rect><text id="Consultas" class="cls-2" transform="translate(-5300.64 -3628.786)"><tspan x="0" y="0">Consultas</tspan></text><g id="whatsapp" transform="translate(-5364.614 -3661.858)"><path id="Path_3010" data-name="Path 3010" class="cls-3" d="M24.43.028A23.918,23.918,0,0,0,4.292,34.767L1.754,47.089A.931.931,0,0,0,2.88,48.182l12.074-2.861A23.911,23.911,0,1,0,24.43.028ZM38.837,37.147a18.733,18.733,0,0,1-21.57,3.531l-1.681-.838-7.4,1.754L9.741,34.03l-.828-1.622a18.737,18.737,0,0,1,3.448-21.736A18.721,18.721,0,1,1,38.837,37.147Z" transform="translate(-1.69 0)"></path><path id="Path_3011" data-name="Path 3011" class="cls-3" d="M128.23,124.127,123.6,122.8a1.726,1.726,0,0,0-1.708.45l-1.133,1.154a1.687,1.687,0,0,1-1.834.387c-2.191-.887-6.8-4.984-7.976-7.034a1.687,1.687,0,0,1,.134-1.87l.989-1.279a1.726,1.726,0,0,0,.213-1.754l-1.948-4.407a1.727,1.727,0,0,0-2.7-.618c-1.293,1.093-2.826,2.754-3.013,4.595-.329,3.245,1.063,7.335,6.325,12.247,6.079,5.674,10.948,6.424,14.117,5.656,1.8-.435,3.235-2.181,4.141-3.611A1.727,1.727,0,0,0,128.23,124.127Z" transform="translate(-92.718 -95.033)"></path></g><g id="Group_1155" data-name="Group 1155" transform="translate(-5180.046 -3710.023)"><g id="Group_687" data-name="Group 687" class="cls-4"><g id="Group_674" data-name="Group 674" transform="translate(16.269 53.06)"><path id="Path_1915" data-name="Path 1915" class="cls-5" d="M31.571,80.582c-.426-1.371-1.242-2.483-1.557-3.929s-.056-2.9-.241-4.355a5.053,5.053,0,0,0-2.224-4,.5.5,0,0,0-.361-.083.5.5,0,0,0-.315-.167,7.235,7.235,0,0,0-7.533,5.022c-1.325,4.772,2.817,8.812,4.93,12.435a.429.429,0,0,0,.463.213c1.557-.528,5.476-1.269,6.588-2.493C32.21,82.259,32.007,81.991,31.571,80.582Z" transform="translate(-17.669 -58.049)"></path><path id="Path_1916" data-name="Path 1916" class="cls-5" d="M29.755,73.226c.371-1.742,2.622-16.336-1.622-15.956-3.327.3-.862,15.058-.547,17.031a.334.334,0,0,0,.473.269.267.267,0,0,0,.185.046,2.213,2.213,0,0,0,1.158-.723.276.276,0,0,0,.074-.158,1.39,1.39,0,0,0,.222-.417C29.718,73.281,29.746,73.263,29.755,73.226Z" transform="translate(-18.207 -57.262)"></path><path id="Path_1917" data-name="Path 1917" class="cls-5" d="M26.02,68.473a.5.5,0,0,0-.028-.482,1.435,1.435,0,0,0-2.706.195,2.023,2.023,0,0,0-3.012,1.344,3.832,3.832,0,0,0-.13.843c-.834-.815-2.085.436-2.381,1.353a5.772,5.772,0,0,0,1.39,5.374,1.623,1.623,0,0,0,2.919-.852,4.167,4.167,0,0,0,.065-.584,1.621,1.621,0,0,0,2.585-.778,2.5,2.5,0,0,0,.056-1.047,1.126,1.126,0,0,0,.25,0c.176-.019.25-.111.4-.185a3.666,3.666,0,0,1,1.51-.482.579.579,0,0,0,.51-.63C27.252,71.475,26.974,69.381,26.02,68.473Z" transform="translate(-17.557 -57.986)"></path><path id="Path_1918" data-name="Path 1918" class="cls-6" d="M28.548,73.7c-.259-1.084-.936-2.131-1.279-3.188a7.952,7.952,0,0,0-1.158-2.474c-.213-.3.185,1.733.621,2.761.482,1.14,2.048,4.114-.343,4.114a2.163,2.163,0,0,1-.241-.037c.028-.315-.371-.612-.649-.4-.046.037-.093.083-.139.12a4.546,4.546,0,0,1-1.538-2.873,25.291,25.291,0,0,1-.38-3.475,8.015,8.015,0,0,0,.352,5.013,7.4,7.4,0,0,0,1.214,1.649c-.232.2-.612.723-.89.843-1.325.556-2.307-.519-2.808-1.575a7.315,7.315,0,0,1-.686-2.14,9.062,9.062,0,0,0-.324-1.612,11.16,11.16,0,0,0,.083,2.437A5.406,5.406,0,0,0,21.8,75.812a2.25,2.25,0,0,0,.528.343,1.948,1.948,0,0,1-2.863,1.121c-.056-.037-.046-.028.009.019a2.03,2.03,0,0,0,3.391-.927,2.685,2.685,0,0,0,2.956-.751,1.387,1.387,0,0,0,.667.185C28.057,75.8,28.928,75.312,28.548,73.7Z" transform="translate(-17.695 -58.051)"></path><path id="Path_1919" data-name="Path 1919" class="cls-5" d="M31.322,75.375c-1.149-1.436-3.373-2.418-5.069-1.742-1.483.593-1.52,2.289-.584,3.438a4.242,4.242,0,0,0,2.215,1.269c.612.139,1.362-.056,1.918.278a4.442,4.442,0,0,1,1.316,2.02.353.353,0,0,0,.222.195A6.234,6.234,0,0,0,31.8,82.6a.451.451,0,0,0,.862-.222C32.379,80.184,32.787,77.209,31.322,75.375Z" transform="translate(-18.106 -58.447)"></path><path id="Path_1920" data-name="Path 1920" class="cls-6" d="M29.44,78.555a.167.167,0,0,0-.037-.315c-.788-.139-3.317-.3-3.9-1.807a1.819,1.819,0,0,1,.306-2.205c1.242-1.019,2.641-.584,4.262.037l.148.074V74.08c-1.668-1.316-4.772-1.214-5.7.593a2.726,2.726,0,0,0,.51,2.993C26.077,78.861,28.5,78.907,29.44,78.555Z" transform="translate(-18.05 -58.431)"></path></g><path id="Path_1921" data-name="Path 1921" class="cls-7" d="M66.989,60.93c-7.432.788-11.74,6.913-15.271,12.917-1.946,3.308-3.215,6.3-4.837,9.757a19.865,19.865,0,0,1-4.114,5.643C39.7,92,36.856,87.468,35.438,84.975c-.769-1.353-1.659-3.327-2.465-4.559a.345.345,0,0,0-.519-.056,32.129,32.129,0,0,1-8.377,4.262c-.436.148-.259.732-.176.945a39.15,39.15,0,0,0,11.963,15.984c4.3,3.345,8.562,2.15,12.584-1.158,3.234-2.65,6.366-5.393,9.433-8.228,1.612-1.483,3.79-3.364,4.55-5.513,1.084-3.086.426-7.265,1.112-10.563A93.118,93.118,0,0,1,67.86,61.958.79.79,0,0,0,66.989,60.93Z" transform="translate(-1.746 -4.471)"></path><path id="Path_1922" data-name="Path 1922" class="cls-8" d="M59.361,80.785c-.056-.491-.714-.343-.788.056a43.538,43.538,0,0,0-.426,8.923,49.155,49.155,0,0,0,.167,5.717c.436-.4.88-.788,1.316-1.186-.009-1.7-.176-3.41-.167-5.078A75.28,75.28,0,0,0,59.361,80.785Z" transform="translate(-4.264 -5.905)"></path><path id="Path_1923" data-name="Path 1923" class="cls-7" d="M120.625,100.922a75.689,75.689,0,0,0-5.106-17.235c-3.855-9.35-7.849-19.033-18.282-22.5-.315-.1-.528.259-.436.519-8.025,5.282,2.993,17.3,5.569,22.267,2.974,5.745,6.125,11.648,7.839,17.9a18,18,0,0,0,2.381,5.977c1.14,1.557,3.336,2.289,4.207,3.957a.6.6,0,0,0,.825.25c.009,0,.019-.009.028-.009s.019-.009.028-.019a.434.434,0,0,0,.158-.083C121.283,109.178,121.255,104.99,120.625,100.922Z" transform="translate(-6.892 -4.489)"></path><path id="Path_1924" data-name="Path 1924" class="cls-8" d="M104.866,77.045c-.111-.269-.593-.259-.556.083.334,3.021,1.112,5.986,1.52,9.007.232,1.761.306,3.586.556,5.365.38.778.751,1.557,1.121,2.344a24.041,24.041,0,0,0-.435-7.274A43.921,43.921,0,0,0,104.866,77.045Z" transform="translate(-7.654 -5.64)"></path><g id="Group_675" data-name="Group 675" transform="translate(50.38 142.56)"><path id="Path_1925" data-name="Path 1925" class="cls-9" d="M77.072,210.389c-.148-1.307-.38-1.594-1.473-2.1-2.789-1.3-7.9-.417-11.092-.093a.33.33,0,0,0-.25-.028c-3.568.862-9.961,4.022-9.887,8.451.083,5.106,8.164,3.317,11.11,2.715C69.641,218.469,77.749,216.143,77.072,210.389Z" transform="translate(-54.369 -157.794)"></path><path id="Path_1926" data-name="Path 1926" class="cls-10" d="M79.841,155.055c-.009-.278-.6-.454-.88-.473-5.486-.482-10.99-.621-16.485-.732-.788-.019-.862.936-.371,1.362-.556,12.445.065,25.047.167,37.51.028,3.039-.028,6.1.074,9.137.037,1.029-.232,2.567.593,3.373,2.928,2.882,11.11,1.909,14.687,1.408a.669.669,0,0,0,.593-.556A372.433,372.433,0,0,0,79.841,155.055Z" transform="translate(-54.914 -153.85)"></path></g><g id="Group_676" data-name="Group 676" transform="translate(78.511 142.551)"><path id="Path_1927" data-name="Path 1927" class="cls-9" d="M99.349,219.321c2.947.6,11.027,2.391,11.11-2.715.074-4.429-6.32-7.589-9.887-8.451a.379.379,0,0,0-.25.028c-3.2-.324-8.3-1.2-11.092.093-1.093.51-1.325.8-1.473,2.1C87.062,216.143,95.17,218.469,99.349,219.321Z" transform="translate(-84.948 -157.784)"></path><path id="Path_1928" data-name="Path 1928" class="cls-10" d="M86.917,206.074a.689.689,0,0,0,.593.556c3.577.5,11.759,1.473,14.687-1.408.825-.815.556-2.344.593-3.373.1-3.039.046-6.1.074-9.136.1-12.454.723-25.056.167-37.51.491-.417.426-1.371-.371-1.362-5.5.111-11.008.25-16.485.732-.278.028-1.251.352-1.26.63A371.73,371.73,0,0,0,86.917,206.074Z" transform="translate(-84.729 -153.84)"></path></g><g id="Group_679" data-name="Group 679" transform="translate(52.261 56.56)"><path id="Path_1929" data-name="Path 1929" class="cls-7" d="M104.144,102.2c-.8-13.677-.908-30-10.3-41.04a.4.4,0,0,0-.621.065.5.5,0,0,0-.778.213c-2.168,5.152-8.4,5.384-13.241,4.9-4.5-.454-6.755-2.178-10.165-4.856-.009-.009-.019,0-.028-.009a.361.361,0,0,0-.528-.25C55.9,68.87,59.185,85.836,59.231,98.151c.065,17.458-.269,34.906-.491,52.363-.009.751,21.905,3.651,47.054.9C106.313,135.021,105.09,118.537,104.144,102.2Z" transform="translate(-56.572 -61.039)"></path><g id="Group_678" data-name="Group 678" transform="translate(0 26.27)"><g id="Group_677" data-name="Group 677" transform="translate(24.457)"><path id="Path_1930" data-name="Path 1930" class="cls-8" d="M83.606,89.6a.319.319,0,0,0-.621.111c.945,10.471.028,21.451-.019,31.968-.046,11-.315,22.017-.074,33.006.009.565.853.51.871-.037.38-11.3.232-22.637.315-33.942q.056-8.256.148-16.512C84.273,99.435,84.9,94.245,83.606,89.6Z" transform="translate(-82.793 -89.389)"></path><path id="Path_1931" data-name="Path 1931" class="cls-11" d="M87.823,120.03a2,2,0,0,0-1.325.584,1.876,1.876,0,0,0-.537,2.011,1.993,1.993,0,0,0,1.622,1.075,1.736,1.736,0,0,0,1.964-1.566,2.085,2.085,0,0,0-.908-1.872A1.4,1.4,0,0,0,87.823,120.03Z" transform="translate(-83.017 -91.637)"></path><path id="Path_1932" data-name="Path 1932" class="cls-11" d="M88.153,105.44a2,2,0,0,0-1.325.584,1.876,1.876,0,0,0-.537,2.011,1.993,1.993,0,0,0,1.622,1.075,1.736,1.736,0,0,0,1.964-1.566,2.085,2.085,0,0,0-.908-1.872A1.477,1.477,0,0,0,88.153,105.44Z" transform="translate(-83.041 -90.567)"></path><path id="Path_1933" data-name="Path 1933" class="cls-11" d="M88.323,90.86A2,2,0,0,0,87,91.444a1.876,1.876,0,0,0-.537,2.011,1.993,1.993,0,0,0,1.622,1.075,1.736,1.736,0,0,0,1.964-1.566,2.085,2.085,0,0,0-.908-1.872A1.405,1.405,0,0,0,88.323,90.86Z" transform="translate(-83.054 -89.497)"></path><path id="Path_1934" data-name="Path 1934" class="cls-11" d="M87.983,134.61a2,2,0,0,0-1.325.584,1.876,1.876,0,0,0-.537,2.011,1.993,1.993,0,0,0,1.622,1.075,1.736,1.736,0,0,0,1.964-1.566,2.085,2.085,0,0,0-.908-1.872A1.368,1.368,0,0,0,87.983,134.61Z" transform="translate(-83.029 -92.707)"></path></g><path id="Path_1935" data-name="Path 1935" class="cls-12" d="M109.578,126.173a.582.582,0,0,0-.658-.593c-5.059.259-14.372-1.019-14.409-.51-.352,6.236-.287,18.152,7.422,19.3C110.839,145.688,109.6,131.788,109.578,126.173Z" transform="translate(-59.188 -91.998)"></path><path id="Path_1936" data-name="Path 1936" class="cls-12" d="M64.109,144.362c7.709-1.149,7.774-13.065,7.422-19.3-.028-.51-9.34.769-14.409.51a.577.577,0,0,0-.658.593C56.456,131.788,55.2,145.687,64.109,144.362Z" transform="translate(-56.4 -91.998)"></path></g></g><g id="Group_680" data-name="Group 680" transform="translate(68.25 48.532)"><path id="Path_1937" data-name="Path 1937" class="cls-6" d="M90.135,57.689a13.468,13.468,0,0,1-.76-4.957.345.345,0,0,0-.5-.315,19.834,19.834,0,0,1-12.519,1.64c-.491-.083-1.325-.417-1.631.185a.548.548,0,0,0,.287.751c.065.019.139.028.176.074a.213.213,0,0,1,.037.13,6.708,6.708,0,0,1-.426,2.659,10.433,10.433,0,0,1-1.047,2.372c-.278.5.1.945.352,1.455,1.14,2.372,4.605,6.282,7.608,5.958,2.669-.287,6.792-3.679,8.423-5.606a10.852,10.852,0,0,0,1.066-1.3C91.479,59.922,90.709,59.422,90.135,57.689Z" transform="translate(-73.655 -52.375)"></path></g><path id="Path_1938" data-name="Path 1938" class="cls-5" d="M103.385,35.172c-1.927-1.01-4.5.287-5.754,1.825a.034.034,0,0,0-.009.028c-1.168.917-1.362,3.725-.287,4.642,1.686,1.436,4.893.213,6.106-1.279C104.654,38.878,105.562,36.311,103.385,35.172Z" transform="translate(-7.09 -2.555)"></path><path id="Path_1939" data-name="Path 1939" class="cls-5" d="M59.9,40.388c1.2,1.492,4.42,2.715,6.106,1.279,1.066-.908.88-3.725-.287-4.642A.034.034,0,0,1,65.709,37c-1.251-1.547-3.827-2.835-5.754-1.825C57.768,36.311,58.676,38.878,59.9,40.388Z" transform="translate(-4.302 -2.555)"></path><path id="Path_1940" data-name="Path 1940" class="cls-5" d="M88.219,9.343c-9.535-2.539-22.48,1.7-25.881,12.018a.466.466,0,0,0,.825.408c.093-.139.195-.269.3-.408C61.875,32.453,62.635,47.7,74.56,53c11.249,5,19.246-4.188,22.332-14.14C99.56,30.22,99.736,12.4,88.219,9.343Z" transform="translate(-4.572 -0.633)"></path><path id="Path_1941" data-name="Path 1941" class="cls-13" d="M99.87,19.807c-.834-3.225-2.873-7.32-6.2-8.451a4.2,4.2,0,0,0-.815-2.233c-2.669-4.179-11.2-4-15.234-3.076-7.441,1.714-13.2,7.107-17.383,13.26a.437.437,0,0,0-.065.158.4.4,0,0,0,.222.649c.491.111,1,.2,1.52.3a16.878,16.878,0,0,0-.352,11.018,25.149,25.149,0,0,0,1.362,3.6c.009-.009.028-.009.037-.028,2.817-4.068,3.327-9.313,2.493-14.168,9.248.649,20.756-1.77,27.02-8.108a32.341,32.341,0,0,1,1.724,5.1c.436,2.344.213,4.8.408,7.181a17.825,17.825,0,0,0,2.706,8.71.4.4,0,0,0,.723-.046C99.786,29.166,101.111,24.6,99.87,19.807Z" transform="translate(-4.409 -0.404)"></path><path id="Path_1942" data-name="Path 1942" class="cls-14" d="M82.376,40.976c-2.891,1.232-5.152.074-3.364-2a16.906,16.906,0,0,0,2.048-2.567c.927-1.937.5-4.281.185-6.31-.037-.213-.4-.213-.389.019.111,3,.056,5.606-2.15,7.9-.732.76-1.863,1.668-1.492,2.882.612,1.955,4.318,1.751,5.486.6A.313.313,0,0,0,82.376,40.976Z" transform="translate(-5.661 -2.197)"></path><g id="Group_681" data-name="Group 681" transform="translate(71.041 40.94)"><path id="Path_1943" data-name="Path 1943" class="cls-13" d="M86.5,44.189c-.63-.1-2.307.945-3.28,1.371a13.722,13.722,0,0,1-6.1,1.01c-.343-.009-.482.38-.454.676a5.306,5.306,0,0,0,3.456,4.114,5.687,5.687,0,0,0,5-.723,6.571,6.571,0,0,0,1.918-2.057C87.78,47.331,88.345,44.5,86.5,44.189Z" transform="translate(-76.666 -44.183)"></path><path id="Path_1944" data-name="Path 1944" class="cls-15" d="M85.431,51.014a6.248,6.248,0,0,0,1.677-1.7,8.632,8.632,0,0,0-1.853.12A7.59,7.59,0,0,0,80.9,51.866,5.733,5.733,0,0,0,85.431,51.014Z" transform="translate(-76.977 -44.558)"></path><path id="Path_1945" data-name="Path 1945" class="cls-3" d="M83.312,46.849c1.2-.371,3.16-1.01,4.059-2.168a1.318,1.318,0,0,0-.862-.491c-.63-.1-2.307.945-3.28,1.371a13.722,13.722,0,0,1-6.1,1.01.383.383,0,0,0-.361.213C78.679,47.711,81.4,47.433,83.312,46.849Z" transform="translate(-76.674 -44.183)"></path></g><path id="Path_1946" data-name="Path 1946" class="cls-13" d="M90.178,25.3a5.945,5.945,0,0,0-4.049.9c-.639.38-.046,1.251.575,1.075a6.749,6.749,0,0,1,3.41-.009c.843.222,1.7.769,2.585.575a.44.44,0,0,0,.38-.473C92.985,26,91.327,25.462,90.178,25.3Z" transform="translate(-6.3 -1.852)"></path><path id="Path_1947" data-name="Path 1947" class="cls-13" d="M75,26.14A4.932,4.932,0,0,0,71,25.779c-1.158.4-2.446,1.279-2.483,2.622a.339.339,0,0,0,.5.306c.871-.352,1.566-1.01,2.474-1.307a4.907,4.907,0,0,1,2.965-.065C75.155,27.567,75.674,26.5,75,26.14Z" transform="translate(-5.028 -1.872)"></path><g id="Group_683" data-name="Group 683" transform="translate(79.811 27.82)"><path id="Path_1948" data-name="Path 1948" class="cls-3" d="M88.836,30.029c-3.076.213-4.142,7.543.111,7.385C93.219,37.248,92.6,29.77,88.836,30.029Z" transform="translate(-86.131 -30.023)"></path><g id="Group_682" data-name="Group 682" transform="translate(1.001 1.855)"><path id="Path_1949" data-name="Path 1949" class="cls-13" d="M88.35,32.178c-2.02.908-1.177,4.957,1.158,4.327A1.947,1.947,0,0,0,90.8,34.559c.019-1.223-.834-2.965-2.317-2.437C88.433,32.141,88.4,32.159,88.35,32.178Z" transform="translate(-87.212 -32.025)"></path><path id="Path_1950" data-name="Path 1950" class="cls-3" d="M89.816,33.5c-.778,0-.713,1.2.056,1.2S90.595,33.5,89.816,33.5Z" transform="translate(-87.362 -32.133)"></path></g></g><g id="Group_685" data-name="Group 685" transform="translate(65.374 28.283)"><path id="Path_1951" data-name="Path 1951" class="cls-3" d="M73.256,30.529c-3.076.213-4.142,7.543.111,7.385C77.639,37.748,77.018,30.261,73.256,30.529Z" transform="translate(-70.551 -30.522)"></path><g id="Group_684" data-name="Group 684" transform="translate(1.112 1.735)"><path id="Path_1952" data-name="Path 1952" class="cls-13" d="M72.89,32.548c-2.02.908-1.177,4.957,1.158,4.327a1.947,1.947,0,0,0,1.288-1.946c.019-1.223-.834-2.965-2.317-2.437C72.983,32.511,72.936,32.529,72.89,32.548Z" transform="translate(-71.752 -32.395)"></path><path id="Path_1953" data-name="Path 1953" class="cls-3" d="M74.366,33.87c-.778,0-.714,1.2.056,1.2S75.135,33.87,74.366,33.87Z" transform="translate(-71.903 -32.503)"></path></g></g><g id="Group_686" data-name="Group 686" transform="translate(65.761 53.774)"><path id="Path_1954" data-name="Path 1954" class="cls-16" d="M92.4,65.251c-1.01-1.121-8.321,2.094-9.831,2.011-2.3-.12-4.318,1.093-6.2,2.27-.028.019-.046.046-.074.065-.3.074-2.845,1.659-2.669,1.983,1.964,3.669,6.421,11.453,8.627,14.983.25.408,2.215-3.225,2.493-3.706,1.418-2.5,4.883-6.579,5.912-9.266C91.133,72.368,93.385,66.335,92.4,65.251Z" transform="translate(-71.163 -58.544)"></path><path id="Path_1955" data-name="Path 1955" class="cls-17" d="M86.489,76.658a29.848,29.848,0,0,0-2.724-5.374,1.022,1.022,0,0,0-1.594-.334c-.13-.259-.436-.371-.584-.037-.8,1.844-2.437,4.828-2.307,7.005.083,1.39,1.26,3.308,1.779,4.466.695,1.547,1.427,3.058,2.168,4.568.139.287.426.111.51-.13.806-2.2,1.464-4.411,2.066-6.718C86.044,79.169,86.729,77.7,86.489,76.658Z" transform="translate(-71.578 -58.961)"></path><path id="Path_1956" data-name="Path 1956" class="cls-10" d="M84.1,67.594c-1.594-.361-3.086-.334-4.281.825a.443.443,0,0,0-.436.38c-.241,1.64.426,3.484,2.215,3.808a2.962,2.962,0,0,0,3.744-2.066C85.78,69.271,85.548,67.918,84.1,67.594Z" transform="translate(-71.582 -58.719)"></path><path id="Path_1957" data-name="Path 1957" class="cls-18" d="M91.528,58.123a.393.393,0,0,0-.547.046A91.058,91.058,0,0,1,82.929,66.7c-.176.167,1.7,2.372,2.576,3.308.5.528,1.529,2.029,2.307,2.15,1.242.195,1.946-1.464,2.493-2.326a25.041,25.041,0,0,0,3.456-7.654C94.178,60.273,92.8,59.429,91.528,58.123Z" transform="translate(-71.845 -58.032)"></path><path id="Path_1958" data-name="Path 1958" class="cls-18" d="M71.044,62.441a25,25,0,0,0,3.54,7.608c.547.871,1.168,2.576,2.409,2.372.778-.12,1.807-1.622,2.307-2.15a16.323,16.323,0,0,0,2.307-2.993c.028-.046.4-.436.222-.6a87.339,87.339,0,0,1-8.006-8.247.393.393,0,0,0-.547-.046C72.008,59.68,70.627,60.523,71.044,62.441Z" transform="translate(-70.968 -58.051)"></path></g><path id="Path_1959" data-name="Path 1959" class="cls-11" d="M95.854,61.371c-.862-1.742-4.235-1.992-3.9-1.853,1.168,5.541-4.114,13.7-6.607,18.338-1.418,2.641-2.419,4.9-3.484,7.181-1.066-2.279-2.076-4.54-3.484-7.181-2.483-4.633-7.765-12.8-6.607-18.338.334-.139-3.039.111-3.9,1.853-1.557,3.141-1.269,9.3-1.2,12.695a.522.522,0,0,0,.778.426c5.133-2.474,1.344-.074,1.77,2.428.1.621,6.913,7.024,11.36,10.758.454.38.88.732,1.279,1.047.4-.315.825-.667,1.279-1.047,4.457-3.734,11.258-10.147,11.36-10.758.426-2.5-3.364-4.9,1.77-2.428a.52.52,0,0,0,.778-.426C97.123,70.683,97.4,64.512,95.854,61.371Z" transform="translate(-4.887 -4.365)"></path><path id="Path_1960" data-name="Path 1960" class="cls-5" d="M104.437,99.652h0c0-.185,2.131.51,1.946.436-2.854-1-5.541-4-7.172-5.421-.825-.714-2.4-1.909-3.225-.584-.871,1.4,1.659,3.058,2.641,3.836a16.863,16.863,0,0,0,2.854,1.844,3.909,3.909,0,0,0,2.456.426.492.492,0,0,0,.4-.213A.246.246,0,0,0,104.437,99.652Z" transform="translate(-7.03 -6.86)"></path><path id="Path_1961" data-name="Path 1961" class="cls-19" d="M95.275,82.42a.613.613,0,0,0-.575-.778c-8.96-.556-18.5-1.158-27.391.324-.38.065-.408.5-.371.825,1.353,11.907,1.232,23.027,2.743,33.4.074.5,26.557.713,26.576.037C96.545,105.262,97.518,93.2,95.275,82.42Z" transform="translate(-4.911 -5.946)"></path><path id="Path_1962" data-name="Path 1962" class="cls-5" d="M105.857,100.319c-.8-.927-2.937-1.668-4-1.974-1.77-.5-1.863-.723-3.549-.315a20.183,20.183,0,0,0-9.359-3.4c-.222-.009-.6-.019-.649.269-.259,1.427,4.077,3.734,6.227,5.245-.371-.167-8.719-1.362-8.655.176.056,1.381,6.709,2.456,8.312,2.835-3.623.028-6.635.315-7.265.973-.13.139-.241.4-.1.556.741.88,6.292.908,7.367,1.01-.991.3-4.781,1.112-4.615,2.029a.477.477,0,0,0,.324.361,14.823,14.823,0,0,0,4.661.139c2.65-.111,5.152-.361,7.682.38,2.215.649,2.094.649,3.067-1.612C106.024,105.323,107.238,101.932,105.857,100.319Z" transform="translate(-6.301 -6.944)"></path><path id="Path_1963" data-name="Path 1963" class="cls-8" d="M118.75,104.58a8.26,8.26,0,0,0-2.076-1.853,31.878,31.878,0,0,0-6.764-2.437c.148.38.278.769.417,1.158a34.324,34.324,0,0,1,5.68,2.474,11.127,11.127,0,0,1,2.539,1.742,7.924,7.924,0,0,0,1.316,1.307A6.847,6.847,0,0,0,118.75,104.58Z" transform="translate(-8.065 -7.359)"></path><path id="Path_1964" data-name="Path 1964" class="cls-7" d="M105.589,99.46c.213,2.456-.871,8.284-2.279,10.545,3.317,4.068,14.4,10.332,17.319,2.6C123.835,104.121,111.65,101.628,105.589,99.46Z" transform="translate(-7.581 -7.298)"></path></g></g></g></svg>