<svg xmlns="http://www.w3.org/2000/svg" xmlns:xlink="http://www.w3.org/1999/xlink" viewBox="0 0 460 460"><defs><style>
      .cls-1 {
        fill: #67e42b;
      }

      .cls-2 {
        clip-path: url(#clip-path);
      }

      .cls-3 {
        fill: #ffb125;
      }

      .cls-4 {
        fill: #a7e842;
      }

      .cls-5 {
        fill: #a8e83a;
      }

      .cls-6 {
        fill: #7d0;
      }

      .cls-7 {
        fill: #73cc00;
      }

      .cls-8 {
        fill: #b6fa4c;
      }

      .cls-9 {
        fill: #ff901d;
      }

      .cls-10 {
        fill: #ff6d3a;
      }

      .cls-11 {
        fill: #ed5729;
      }

      .cls-12 {
        fill: #f2f2f2;
      }
    </style><clipPath id="clip-path"><rect id="Rectangle_242" data-name="Rectangle 242" class="cls-1" width="460" height="460" transform="translate(-4113 -8060)"></rect></clipPath></defs><g id="Mask_Group_28" data-name="Mask Group 28" class="cls-2" transform="translate(4113 8060)"><g id="cartera_1_" data-name="cartera (1)" transform="translate(-4006.841 -7949.589)"><path id="Path_3284" data-name="Path 3284" class="cls-3" d="M223.666,175.275H36.1a8.384,8.384,0,0,0-8.384,8.384v22.522H232.05V183.659A8.385,8.385,0,0,0,223.666,175.275Z" transform="translate(-10.369 -93.342)"></path><path id="Path_3285" data-name="Path 3285" class="cls-4" d="M165.961,56.147,148.975,228.106a7.859,7.859,0,0,1-8.594,7.049l-86.067-8.5a7.859,7.859,0,0,1-7.049-8.594L64.251,46.1a7.859,7.859,0,0,1,8.594-7.049l86.067,8.5A7.859,7.859,0,0,1,165.961,56.147Z" transform="translate(-20.762 -20.776)"></path><path id="Path_3286" data-name="Path 3286" class="cls-5" d="M176.572,47.552l-86.067-8.5A7.859,7.859,0,0,0,81.911,46.1L80.387,61.526a7.816,7.816,0,0,1,4.323-.817l86.067,8.5a7.859,7.859,0,0,1,7.049,8.594L162.364,234.338a7.845,7.845,0,0,0,4.271-6.232L183.621,56.147A7.859,7.859,0,0,0,176.572,47.552Z" transform="translate(-38.421 -20.775)"></path><path id="Path_3287" data-name="Path 3287" class="cls-6" d="M89.018,88.859,76.627,214.308a4.749,4.749,0,0,0,2.2,4.5,23.047,23.047,0,0,1,9.283,11.211,4.744,4.744,0,0,0,3.964,2.99l44.617,4.407a4.742,4.742,0,0,0,4.473-2.156,23.048,23.048,0,0,1,11.3-9.178A4.748,4.748,0,0,0,155.5,222.1L167.888,96.65a4.749,4.749,0,0,0-2.2-4.5,23.047,23.047,0,0,1-9.283-11.211,4.745,4.745,0,0,0-3.964-2.99l-44.617-4.407a4.742,4.742,0,0,0-4.473,2.156,23.048,23.048,0,0,1-11.3,9.178A4.749,4.749,0,0,0,89.018,88.859Z" transform="translate(-36.406 -39.152)"></path><path id="Path_3288" data-name="Path 3288" class="cls-7" d="M179.3,92.15a23.047,23.047,0,0,1-9.283-11.211,4.744,4.744,0,0,0-3.964-2.99l-44.617-4.407A4.743,4.743,0,0,0,116.96,75.7a23.048,23.048,0,0,1-11.3,9.178,4.748,4.748,0,0,0-3.037,3.983l-.472,4.775,57.811,5.532a4.743,4.743,0,0,1,3.964,2.99,23.049,23.049,0,0,0,9.283,11.211,4.749,4.749,0,0,1,2.2,4.5l-10.748,108.8c.461-.209.927-.408,1.4-.588A4.748,4.748,0,0,0,169.1,222.1L181.5,96.65A4.749,4.749,0,0,0,179.3,92.15Z" transform="translate(-50.013 -39.152)"></path><path id="Path_3289" data-name="Path 3289" class="cls-4" d="M248.71,60.991,151.4,203.782a7.86,7.86,0,0,1-10.921,2.069l-71.469-48.7a7.86,7.86,0,0,1-2.069-10.921L164.252,3.434a7.86,7.86,0,0,1,10.921-2.069l71.469,48.7A7.859,7.859,0,0,1,248.71,60.991Z" transform="translate(-30.534 0)"></path><path id="Path_3290" data-name="Path 3290" class="cls-5" d="M334.348,50.07l-71.469-48.7a7.859,7.859,0,0,0-10.921,2.069l-8.323,12.214a7.857,7.857,0,0,1,2.082,1.007l71.469,48.7a7.86,7.86,0,0,1,2.069,10.921L230.27,206.858a7.861,7.861,0,0,0,8.838-3.076L336.417,60.99A7.86,7.86,0,0,0,334.348,50.07Z" transform="translate(-118.241 0)"></path><path id="Path_3291" data-name="Path 3291" class="cls-6" d="M186.979,56.484l-70.99,104.17a4.749,4.749,0,0,0-.226,5,23.044,23.044,0,0,1,2.775,14.289,4.743,4.743,0,0,0,2.047,4.524l37.049,25.248a4.743,4.743,0,0,0,4.959.251,23.05,23.05,0,0,1,14.313-2.643,4.749,4.749,0,0,0,4.574-2.04l70.99-104.17a4.747,4.747,0,0,0,.226-5,23.043,23.043,0,0,1-2.775-14.288,4.743,4.743,0,0,0-2.047-4.524L210.826,52.051a4.743,4.743,0,0,0-4.959-.251,23.05,23.05,0,0,1-14.313,2.643A4.746,4.746,0,0,0,186.979,56.484Z" transform="translate(-56.938 -27.276)"></path><path id="Path_3292" data-name="Path 3292" class="cls-7" d="M318.271,96.112A23.047,23.047,0,0,1,315.5,81.824a4.744,4.744,0,0,0-2.047-4.524L276.4,52.051a4.744,4.744,0,0,0-4.959-.251,23.046,23.046,0,0,1-14.313,2.643,4.749,4.749,0,0,0-4.574,2.04l-2.959,4.341,46.3,31.212a4.743,4.743,0,0,1,2.047,4.524,23.05,23.05,0,0,0,2.775,14.288,4.748,4.748,0,0,1-.226,5l-62.2,91.279a22.943,22.943,0,0,1,4.192.195,4.748,4.748,0,0,0,4.574-2.04l70.989-104.17A4.748,4.748,0,0,0,318.271,96.112Z" transform="translate(-122.512 -27.277)"></path><circle id="Ellipse_136" data-name="Ellipse 136" class="cls-8" cx="25.425" cy="25.425" r="25.425" transform="translate(112.74 68.533)"></circle><path id="Path_3293" data-name="Path 3293" class="cls-3" d="M216.2,348.12H20.333A12.092,12.092,0,0,1,8.241,336.028V216.363a12.092,12.092,0,0,1,12.092-12.092H216.2a12.092,12.092,0,0,1,12.092,12.092V336.028A12.092,12.092,0,0,1,216.2,348.12Z" transform="translate(0 -108.784)"></path><path id="Path_3294" data-name="Path 3294" class="cls-9" d="M428.06,204.271h-22a12.092,12.092,0,0,1,12.092,12.092V336.028a12.092,12.092,0,0,1-12.092,12.092h22a12.092,12.092,0,0,0,12.092-12.092V216.363A12.092,12.092,0,0,0,428.06,204.271Z" transform="translate(-211.859 -108.784)"></path><path id="Path_3295" data-name="Path 3295" class="cls-10" d="M417.831,308.688H373.746A23.114,23.114,0,0,0,350.632,331.8h0a23.114,23.114,0,0,0,23.114,23.114h44.085a4.381,4.381,0,0,0,4.381-4.381V313.069A4.381,4.381,0,0,0,417.831,308.688Z" transform="translate(-182.339 -164.391)"></path><path id="Path_3296" data-name="Path 3296" class="cls-11" d="M417.83,308.688H395.754a4.381,4.381,0,0,1,4.381,4.381v31.558a4.672,4.672,0,0,1-4.672,4.672H373.745a23.113,23.113,0,0,1-22.938-20.306,23.08,23.08,0,0,0,22.938,25.923H417.83a4.381,4.381,0,0,0,4.381-4.381V313.069A4.381,4.381,0,0,0,417.83,308.688Z" transform="translate(-182.339 -164.391)"></path><path id="Path_3297" data-name="Path 3297" class="cls-10" d="M216.2,204.271H20.333A12.092,12.092,0,0,0,8.241,216.363v13.251H228.294V216.363A12.092,12.092,0,0,0,216.2,204.271Z" transform="translate(0 -108.784)"></path><path id="Path_3298" data-name="Path 3298" class="cls-11" d="M438.088,209.6a12.167,12.167,0,0,0-1.477-1.789l-.02-.019a12.131,12.131,0,0,0-1.77-1.458q-.241-.163-.491-.315c-.247-.15-.5-.289-.761-.422q-.251-.129-.509-.246a12.04,12.04,0,0,0-5-1.083h-22a12.092,12.092,0,0,1,12.091,12.092v13.251h22V216.362a12.038,12.038,0,0,0-1.459-5.764Q438.415,210.085,438.088,209.6Z" transform="translate(-211.86 -108.784)"></path><path id="Path_3299" data-name="Path 3299" class="cls-10" d="M20.333,483.127H216.2a12.092,12.092,0,0,0,12.092-12.092V457.784H8.241v13.251A12.092,12.092,0,0,0,20.333,483.127Z" transform="translate(0 -243.792)"></path><path id="Path_3300" data-name="Path 3300" class="cls-11" d="M206.3,457.784v13.272a2.039,2.039,0,0,1-2.054,2.008H20.333A12.092,12.092,0,0,1,8.241,460.972v10.063a12.092,12.092,0,0,0,12.092,12.093H216.2c.239,0,.475-.009.711-.022.073,0,.146-.011.219-.017.164-.013.327-.028.489-.047l.241-.03c.161-.022.321-.048.48-.076.071-.013.142-.024.212-.038.225-.044.448-.093.668-.15h0c.1-.025.191-.054.287-.081a12.085,12.085,0,0,0,1.4-.488q.271-.115.536-.242t.521-.267h0q.513-.279,1-.6h0c.274-.185.538-.383.794-.589l.036-.029q.391-.316.753-.663h0q.427-.408.813-.855h0a12.158,12.158,0,0,0,1.1-1.488l.027-.042c.121-.195.237-.392.347-.594v0h0a12.022,12.022,0,0,0,.753-1.686c.024-.066.045-.134.068-.2q.076-.224.144-.451.034-.116.066-.232.062-.229.115-.461c.016-.071.034-.141.049-.212.047-.223.09-.448.125-.675,0,0,0,0,0,0v0c.041-.266.069-.535.092-.806.006-.069.011-.137.016-.206.019-.273.031-.549.031-.827h0V457.784Z" transform="translate(0 -243.792)"></path><circle id="Ellipse_137" data-name="Ellipse 137" class="cls-12" cx="10.732" cy="10.732" r="10.732" transform="translate(181.498 156.681)"></circle></g></g></svg>