<svg xmlns="http://www.w3.org/2000/svg" xmlns:xlink="http://www.w3.org/1999/xlink" viewBox="0 0 460 460"><defs><style>
      .cls-1 {
        fill: #67e42b;
      }

      .cls-2 {
        clip-path: url(#clip-path);
      }

      .cls-3 {
        fill: #23bde6;
      }

      .cls-4 {
        fill: #27028a;
      }

      .cls-5 {
        fill: #210372;
      }

      .cls-6 {
        fill: #f0f0ed;
      }

      .cls-7 {
        fill: #d8d8cc;
      }

      .cls-8 {
        fill: #51e3fb;
      }

      .cls-9 {
        fill: #78eafb;
      }
    </style><clipPath id="clip-path"><rect id="Rectangle_243" data-name="Rectangle 243" class="cls-1" width="460" height="460" transform="translate(-3525 -8060)"></rect></clipPath></defs><g id="Group_1297" data-name="Group 1297" transform="translate(3209 8060)"><g id="Mask_Group_29" data-name="Mask Group 29" class="cls-2" transform="translate(316)"><g id="diente" transform="translate(-3458.585 -7971.951)"><path id="Path_3270" data-name="Path 3270" class="cls-3" d="M276.7,18.3a4.442,4.442,0,0,0-4.561.22c-4.8,3.2-22.771,7.122-46.078,5.376C211.2,22.78,183.725,18.363,166.664,1.3a4.444,4.444,0,0,0-6.284,0c-17.062,17.062-44.536,21.479-59.395,22.593C77.679,25.642,59.71,21.72,54.907,18.519A4.443,4.443,0,0,0,48,22.215V142.181c0,19.088,6.067,38.473,18.032,57.617,9.442,15.107,22.569,30.106,39.016,44.58a314.752,314.752,0,0,0,56.426,39.484,4.442,4.442,0,0,0,4.1,0A314.77,314.77,0,0,0,222,244.378c16.447-14.474,29.574-29.472,39.016-44.58,11.965-19.144,18.032-38.529,18.032-57.617V22.215A4.442,4.442,0,0,0,276.7,18.3Z" transform="translate(0 0)"></path><path id="Path_3271" data-name="Path 3271" class="cls-4" d="M274,60.257a4.436,4.436,0,0,0-3.489-1.08,159.135,159.135,0,0,1-18.893,1.151c-13.039,0-46.1-1.809-71.414-18.57a4.445,4.445,0,0,0-4.905,0c-25.316,16.759-58.375,18.569-71.414,18.57A159.125,159.125,0,0,1,84.99,59.178,4.486,4.486,0,0,0,80,63.588V160.42c0,36.126,27.449,68,50.476,88.377a311.546,311.546,0,0,0,45.006,32.739,4.48,4.48,0,0,0,4.556,0,310.725,310.725,0,0,0,44.446-32.263c23.273-20.481,51.016-52.521,51.016-88.854V63.587A4.443,4.443,0,0,0,274,60.257Z" transform="translate(-14.227 -18.238)"></path><path id="Path_3272" data-name="Path 3272" class="cls-5" d="M148.248,258.293c-23.027-20.377-50.476-52.25-50.476-88.377V74.71c-3.594-.143-8.039-.435-12.783-1.024A4.486,4.486,0,0,0,80,78.1v96.832c0,36.126,27.449,68,50.476,88.377a311.546,311.546,0,0,0,45.006,32.739,4.481,4.481,0,0,0,4.556,0c2.779-1.658,6.388-3.883,10.564-6.619A310.512,310.512,0,0,1,148.248,258.293Z" transform="translate(-14.227 -32.746)"></path><path id="Path_3273" data-name="Path 3273" class="cls-6" d="M255.027,184.822c5.246-5.954,13.175-14.952,13.175-36.164a32.066,32.066,0,0,0-10.879-24.169c-7.046-6.3-16.846-9.77-27.6-9.77a33.345,33.345,0,0,0-22.62,9.331,33.558,33.558,0,0,0-22.758-9.331c-10.751,0-20.553,3.47-27.6,9.77a32.066,32.066,0,0,0-10.879,24.169c0,21.212,7.928,30.21,13.175,36.164,4.2,4.772,5.621,6.379,3.106,11.913-9.646,21.222-4.245,48.893,3.363,60.708,2.92,4.534,6.2,6.834,9.757,6.834,5.292,0,7.55-5.577,8.292-7.409a99.2,99.2,0,0,0,3.492-11.808c4.3-16.8,8.773-30.7,19.981-30.7s15.68,13.9,19.981,30.7a99.282,99.282,0,0,0,3.492,11.808c.742,1.833,3,7.409,8.292,7.409,3.555,0,6.838-2.3,9.758-6.834,7.608-11.816,13.009-39.486,3.363-60.708C249.406,191.2,250.823,189.593,255.027,184.822Z" transform="translate(-43.514 -51.004)"></path><g id="Group_1294" data-name="Group 1294" transform="translate(102.356 63.715)"><path id="Path_3274" data-name="Path 3274" class="cls-7" d="M245.4,124.05c-.333-.309-8.955,11.375-13.4,11.375,4.443,0,12.856,1,15.412-2.638,8.886-12.635,20.873-17.819,28.642-17.392h0a47.711,47.711,0,0,0-8.036-.674A33.342,33.342,0,0,0,245.4,124.05Z" transform="translate(-184.163 -114.719)"></path><path id="Path_3275" data-name="Path 3275" class="cls-7" d="M299.592,336.631a99.2,99.2,0,0,1-3.492-11.808c-4.3-16.8-8.772-30.7-19.981-30.7a11.635,11.635,0,0,0-7.185,2.392c6.227,4.672,9.561,15.669,12.8,28.306a99.267,99.267,0,0,0,3.492,11.808c.742,1.833,3,7.409,8.292,7.409,2.753,0,5.341-1.385,7.726-4.113A19.2,19.2,0,0,1,299.592,336.631Z" transform="translate(-200.584 -194.483)"></path><path id="Path_3276" data-name="Path 3276" class="cls-7" d="M179.881,257.443c-7.608-11.816-13.009-39.486-3.363-60.708,2.515-5.533,1.1-7.141-3.106-11.913-5.246-5.954-13.175-14.952-13.175-36.164a32.066,32.066,0,0,1,10.879-24.169,39.015,39.015,0,0,1,19.591-9.1,30.968,30.968,0,0,0-6.362-.669c-10.751,0-20.553,3.47-27.6,9.77a32.066,32.066,0,0,0-10.879,24.169c0,21.212,7.928,30.21,13.175,36.164,4.2,4.772,5.621,6.379,3.106,11.913-9.646,21.222-4.245,48.893,3.363,60.708,2.92,4.534,6.2,6.834,9.758,6.834,3.23,0,5.328-2.077,6.643-4.113A23.411,23.411,0,0,1,179.881,257.443Z" transform="translate(-145.869 -114.719)"></path></g></g></g><g id="Group_1296" data-name="Group 1296" transform="translate(16 2.583)"><path id="Path_3301" data-name="Path 3301" class="cls-8" d="M359.61,78.977c-6.967,0-12.635-7.557-12.635-16.846a2.106,2.106,0,1,0-4.212,0c0,9.289-5.668,16.846-12.635,16.846a2.106,2.106,0,1,0,0,4.212c6.967,0,12.635,7.557,12.635,16.846a2.106,2.106,0,1,0,4.212,0c0-9.289,5.668-16.846,12.635-16.846a2.106,2.106,0,1,0,0-4.212Z" transform="translate(-3288.309 -7982.645)"></path><g id="Group_1295" data-name="Group 1295" transform="translate(-2977.132 -7895.244)"><path id="Path_3268" data-name="Path 3268" class="cls-9" d="M287.195,178.753c-4.566,0-8.423-5.786-8.423-12.635a2.106,2.106,0,1,0-4.212,0c0,6.849-3.857,12.635-8.423,12.635a2.106,2.106,0,0,0,0,4.212c4.566,0,8.423,5.786,8.423,12.635a2.106,2.106,0,0,0,4.212,0c0-6.849,3.857-12.635,8.423-12.635a2.106,2.106,0,0,0,0-4.212Z" transform="translate(-264.031 -164.012)"></path><path id="Path_3269" data-name="Path 3269" class="cls-9" d="M407.18,226.747c-4.566,0-8.423-5.786-8.423-12.635a2.106,2.106,0,1,0-4.212,0c0,6.849-3.857,12.635-8.423,12.635a2.106,2.106,0,0,0,0,4.212c4.566,0,8.423,5.786,8.423,12.635a2.106,2.106,0,1,0,4.212,0c0-6.849,3.857-12.635,8.423-12.635a2.106,2.106,0,0,0,0-4.212Z" transform="translate(-352.429 -199.371)"></path></g></g></g></svg>