<svg xmlns="http://www.w3.org/2000/svg" xmlns:xlink="http://www.w3.org/1999/xlink" id="Capa_1" x="0px" y="0px" viewBox="0 0 400 362.42" style="enable-background:new 0 0 400 362.42;" xml:space="preserve">
<style type="text/css">
	.st0{fill:#FFFFFF;}
	.st1{clip-path:url(#SVGID_2_);}
	.st2{fill:#FFB9B2;}
	.st3{clip-path:url(#SVGID_4_);}
	.st4{fill-rule:evenodd;clip-rule:evenodd;fill:#E8BF96;}
	.st5{fill-rule:evenodd;clip-rule:evenodd;fill:#D5813F;}
	.st6{fill-rule:evenodd;clip-rule:evenodd;fill:#D5801E;}
	.st7{fill-rule:evenodd;clip-rule:evenodd;fill:#57997B;}
	.st8{fill-rule:evenodd;clip-rule:evenodd;fill:#D6AA80;}
	.st9{fill-rule:evenodd;clip-rule:evenodd;fill:#FFFFFF;}
	.st10{fill-rule:evenodd;clip-rule:evenodd;fill:#513B30;}
	.st11{fill-rule:evenodd;clip-rule:evenodd;fill:#3F3D3C;}
	.st12{fill-rule:evenodd;clip-rule:evenodd;fill:#AB6B27;}
	.st13{fill-rule:evenodd;clip-rule:evenodd;fill:#604952;}
	.st14{fill-rule:evenodd;clip-rule:evenodd;fill:#B4403D;}
	.st15{fill-rule:evenodd;clip-rule:evenodd;fill:#BA7B39;}
	.st16{fill-rule:evenodd;clip-rule:evenodd;fill:#CF6D6C;}
	.st17{fill-rule:evenodd;clip-rule:evenodd;fill:#E0A887;}
	.st18{fill-rule:evenodd;clip-rule:evenodd;fill:#80736B;}
	.st19{fill-rule:evenodd;clip-rule:evenodd;fill:#8A4D39;}
	.st20{fill-rule:evenodd;clip-rule:evenodd;fill:#E4B480;}
	.st21{fill-rule:evenodd;clip-rule:evenodd;fill:#E5E3E2;}
	.st22{fill-rule:evenodd;clip-rule:evenodd;fill:#E0A884;}
	.st23{fill-rule:evenodd;clip-rule:evenodd;fill:#FDFAD9;}
	.st24{fill-rule:evenodd;clip-rule:evenodd;fill:#C1721F;}
	.st25{fill-rule:evenodd;clip-rule:evenodd;fill:#373434;}
	.st26{fill-rule:evenodd;clip-rule:evenodd;fill:#EFF0F0;}
	.st27{fill-rule:evenodd;clip-rule:evenodd;fill:#4E8970;}
	.st28{fill-rule:evenodd;clip-rule:evenodd;fill:#4A352B;}
	.st29{fill-rule:evenodd;clip-rule:evenodd;fill:#A66328;}
	.st30{fill-rule:evenodd;clip-rule:evenodd;fill:#71635C;}
	.st31{enable-background:new    ;}
	.st32{fill:#F2857A;}
	.st33{fill:#4D4D4D;}
	.st34{opacity:0.33;fill:none;stroke:#707070;enable-background:new    ;}
</style>
<g id="Group_1289" transform="translate(5892 6210)">
	<g id="Group_1284" transform="translate(652 -1843)">
		<rect id="Rectangle_214" x="-6544" y="-4367" class="st0" width="400" height="362.42"></rect>
		<g id="Group_1167" transform="translate(35 -206.257)">
			<g id="Group_1166" transform="translate(-6579 -4160.743)">
				<g>
					<defs>
						<path id="SVGID_1_" d="M0,0v113.83c0,38.77,89.55,70.19,200,70.19s200-31.42,200-70.19V0H0z"></path>
					</defs>
					<clipPath id="SVGID_2_">
						<use xlink:href="#SVGID_1_" style="overflow:visible;"></use>
					</clipPath>
					<g id="Group_885" class="st1">
						<path id="Path_2332" class="st2" d="M0,0v113.83c0,38.77,89.55,70.19,200,70.19s200-31.42,200-70.19V0H0z"></path>
					</g>
				</g>
				<g>
					<defs>
						<path id="SVGID_3_" d="M0,0v113.83c0,38.77,89.55,70.19,200,70.19s200-31.42,200-70.19V0H0z"></path>
					</defs>
					<clipPath id="SVGID_4_">
						<use xlink:href="#SVGID_3_" style="overflow:visible;"></use>
					</clipPath>
					<g id="Group_887" class="st3">
						<path id="Path_2334" class="st4" d="M239.43,236.51c0.08,1.53,3.34,52.62,3.34,52.62s-10.65,6.25-9.64,6.32        c0.54,0.04,4.67,1.91,8.4,1.82c2.18-0.16,4.27-0.9,6.07-2.14l0.31-58.72L239.43,236.51z"></path>
						<path id="Path_2335" class="st5" d="M242.36,295.89c-0.12-0.35,0.07-6.91-5.18-5.42s-9.43,8.34-4.05,9.61        s14.66-4.28,14.66-4.61s0.37-0.3-0.18-2.85C246.24,294.69,244.88,295.99,242.36,295.89z"></path>
						<path id="Path_2336" class="st6" d="M193.26,108.51c0-1.53,6.49-17.51,6.49-17.51l37.32,41.47c0,0,0.07,12.26-6.96,8.77        S193.26,108.51,193.26,108.51z"></path>
						<path id="Path_2337" class="st4" d="M261.84,236.25c-0.08,1.53-3.34,52.62-3.34,52.62s10.65,6.25,9.64,6.32        c-0.54,0.04-4.67,1.91-8.4,1.82c-2.18-0.16-4.27-0.9-6.07-2.14l-0.31-58.72L261.84,236.25z"></path>
						<path id="Path_2338" class="st5" d="M258.91,295.62c0.12-0.35-0.07-6.91,5.18-5.42s9.43,8.34,4.05,9.61        s-14.66-4.28-14.66-4.61s-0.37-0.3,0.18-2.85C255.02,294.43,256.37,295.73,258.91,295.62z"></path>
						<path id="Path_2339" class="st7" d="M249.06,113.41c0,0-25.75-1.71-27.19,8.46c-5.72,40.01-9.73,111.11-8.67,121.28        c0.43,4.14,18.76,6.97,37.72,7.43c18.97-0.47,37.29-3.3,37.72-7.43c1.06-10.18-2.95-81.28-8.67-121.28        c-1.45-10.16-27.19-8.46-27.19-8.46l-1.86,0.12L249.06,113.41z"></path>
						<path id="Path_2340" class="st4" d="M230.53,131.29c-0.67-1.66-9.01-11.69-9.01-11.69c-16.98,36.25-24.34,60.4,19.01,81.22        l0.04-4.11C209.2,173.34,216.53,153.11,230.53,131.29z"></path>
						<path id="Path_2341" class="st8" d="M231.93,196.26c-5.2-5.2-17.17-18.11-17.95-27.45c-1-11.96,3.74-23.73,3.74-23.73        l-4.33-6.61C204.43,162.32,204.99,180.38,231.93,196.26z"></path>
						<path id="Path_2342" class="st7" d="M225.48,149.75c0,0-15.35-3.08-15.58-5.84s3.4-17.11,7.38-21.68s11.48-6.8,11.48-6.8        s4.45,8.4,3.98,16.36S225.48,149.75,225.48,149.75z"></path>
						<path id="Path_2343" class="st4" d="M240.59,196.72c0.49-0.15,3.7-0.86,3.7-0.86s7.81-0.29,7.28,0.63s-3.46,1.91-3.46,1.91        s7.73,4.44,6.54,5.63s-6.21,1.15-8.85,0.15s-6.24-4.15-6.24-4.15L240.59,196.72z"></path>
						<path id="Path_2344" class="st4" d="M261.33,196.68c-0.49-0.15-3.7-0.86-3.7-0.86s-7.81-0.29-7.28,0.63s3.46,1.91,3.46,1.91        s-7.73,4.44-6.54,5.63s6.21,1.15,8.85,0.15s6.24-4.15,6.24-4.15L261.33,196.68z"></path>
						<path id="Path_2345" class="st4" d="M271.36,131.27c0.67-1.66,9.01-11.69,9.01-11.69c16.98,36.25,24.34,60.4-19.01,81.22        l-0.04-4.11C292.7,173.32,285.37,153.08,271.36,131.27z"></path>
						<path id="Path_2346" class="st7" d="M276.44,149.7c0,0,15.35-3.08,15.58-5.84s-3.4-17.11-7.38-21.68s-11.48-6.8-11.48-6.8        s-4.45,8.4-3.98,16.36S276.44,149.7,276.44,149.7z"></path>
						<path id="Path_2347" class="st9" d="M228.93,115.78c-1.15,2.04-0.82,7,6.33,7.77c0,0-2.93,4.14-0.88,5.66s5.92-0.33,5.92-0.33        s-0.7,4.91,2.35,5.5s5.68-2.18,5.68-2.18s1.48,2.99,2.52,3.51c1.03-0.51,2.52-3.51,2.52-3.51s2.64,2.78,5.68,2.18        s2.35-5.5,2.35-5.5s3.86,1.86,5.92,0.33s-0.88-5.66-0.88-5.66c7.15-0.76,7.3-4.85,6.33-7.77c-1.05-3.15-20.13-2.36-21.05-2.3        c-0.29,0.02-0.6,2.24-0.85,4.76c-0.26-2.52-0.56-4.74-0.85-4.76C249.06,113.41,230.58,112.85,228.93,115.78z"></path>
						<path id="Path_2348" class="st10" d="M148.03,285.88c-0.88,0.71-4.18,3.32-4.18,3.32s-12.81,7.14-12.4,8.61        s14.81-0.68,15.23-1.12c0.31-0.31,0.64-0.59,0.99-0.85l0.98,0.54l3.83-0.77l-0.31-7.73L148.03,285.88z"></path>
						<path id="Path_2349" class="st10" d="M192.64,285.88c0.88,0.71,4.18,3.32,4.18,3.32s12.81,7.14,12.4,8.61        s-14.82-0.68-15.23-1.12c-0.31-0.31-0.64-0.59-0.99-0.85l-0.98,0.54l-3.83-0.77l0.31-7.73L192.64,285.88z"></path>
						<path id="Path_2350" class="st11" d="M153.74,172.79c-2.81,1.98-11.97,11.65-11.97,11.65l1.88,104.87l9.23,0.59        c0,0,0.8-82.88,20.01-82.77s14.37,83.31,14.37,83.31s9.72,0.38,9.43-1.34s9.51-103.59,9.51-103.59l-22.94-12.14L153.74,172.79        z"></path>
						<path id="Path_2351" class="st4" d="M110.28,184.67c-0.7,2.35-1.05,8.71-0.82,11.55s2.75,6.04,3.86,5.28s1.11-3.59,2.17-3.7        s1.17,2.88,2.17,0.71s-2.17-11.79-2.17-11.79L110.28,184.67z"></path>
						<path id="Path_2352" class="st6" d="M159.9,113.04c-2.04-3.61-10.62-19.81-10.62-19.81c-29.14,25.39-51.84,37.02-39.56,94.82        l5.91-0.99C111.83,154.33,127.03,126.48,159.9,113.04z"></path>
						<path id="Path_2353" class="st6" d="M200.99,85.84c-0.83,11.26,4.48,57.2,5.47,106.79c0.11,5.55-66.86,6.67-66.31-1.09        c2.14-29.71,7.39-108.12,10.14-107.99L200.99,85.84z"></path>
						<path id="Path_2354" class="st12" d="M157.53,93.26c-1.71,1.18-5.67,4.84-5.67,4.84l22.17,44.76L201.1,95.5        c0,0-16.8-2.05-20.74-2.85s-21.17-0.16-21.17-0.16L157.53,93.26z"></path>
						<path id="Path_2355" class="st13" d="M155.52,93.42c0,1.53,18.96,46.67,18.96,46.67l22.82-49.81L155.52,93.42z"></path>
						<path id="Path_2356" class="st4" d="M204.73,50.7c10.57-8.23,17.23,2.18,8.11,8.92c-5.18,3.81-8.79,1.87-9.01,1.08        S204.73,50.7,204.73,50.7z"></path>
						<path id="Path_2357" class="st4" d="M147.87,51.29c-10.57-8.23-17.23,2.18-8.11,8.92c5.18,3.82,8.79,1.87,9.01,1.08        S147.87,51.29,147.87,51.29z"></path>
						<path id="Path_2358" class="st9" d="M143.62,41.06c0.35,2.07,3.98,10.03,3.63,21.58s-2.35,18.8-2,18.63s2-0.76,1.76-0.44        s-0.41,4.52,0.12,8.99s1.59,6.98,1.59,6.64s1.46-1.9,1.46-1.9c2.62,2.78,5.44,5.36,8.43,7.73c5.74,4.68,6.91,4.79,6.91,4.79        l-0.35-3.49c2.48,1.26,4.49,3.28,5.74,5.77c1.65,3.82,2.11,5.34,2.35,4.68s5.39-6.32,5.39-6.32s0.7,4.47,1.4,3.26        s6.5-2.4,11.6-7.41s6.56-7.9,6.62-7.3s-0.12,3.05,0.29,2.34c3.05-3.3,5.35-7.22,6.74-11.49c2.46-7.46-0.29-15.2-0.29-15.2        s1.94,2.51,1.7,1.9s-0.64-14.1-0.53-22.94s1.88-13.51,1.88-13.51c0.42-2.05,0.67-4.12,0.76-6.21        c0.33-3.13-0.03-6.29-1.05-9.26c-0.15,1.31-0.41,2.6-0.76,3.87c0.12-0.82,0.29-1.63-2.64-4.95s-4.1-3.76-4.1-3.76        s1.46,4.85,1.34,4.36s-8.91-5.45-18.75-9.15s-24.54,5.61-31.51,7.19s-10.19,0.71-9.61,1.09s5.33,1.8,3.81,2.01        s-6.79-0.17-6.44,0s5.98,8.06,5.51,8.71c-0.47,0.65-3.69,4.52-3.51,5.56S143.62,41.06,143.62,41.06z"></path>
						<path id="Path_2359" class="st4" d="M150.53,81.31c-2.06,9.88,9.55,11.41,25.31,12.81c15.76-1.4,27.36-2.92,25.31-12.81        c-2.08-10,1.76-37.3,3.63-44.56c0,0-14.55-1.13-28.94-2.03c-14.38,0.9-28.94,2.03-28.94,2.03        C148.78,44.01,152.61,71.31,150.53,81.31z"></path>
						<path id="Path_2360" class="st9" d="M202.32,29.08c0.82,1.19,2.46,7.68,2.46,7.68s0.12,0.82-6.44,5.89s-11.18,6.31-11.18,6.31        l5.04-6.75c0,0-2.93,3.38-12.36,4.91s-14.11,0.27-13.47,0.49s6.74-5.61,6.74-5.61s-9.08,2.4-13.06,3.43s-5.63,1.03-5.1,0.87        s3.81-5.66,3.81-5.66l-7.79,2.18l-4.05-6.04c0,0,24.25-8.27,25.55-8.17C173.73,28.69,202.32,29.08,202.32,29.08z"></path>
						<path id="Path_2361" class="st9" d="M149.6,72.6c0.18-1.42,0.99-5.07,0.99-5.07c2.33,2.61,5.13,4.75,8.26,6.32        c6.2,3.14,4.53-0.37,8.38-1.86c2.3-0.89,17.08-0.33,18.86,0.27c2.24,0.75,3.2,4.05,4.63,3.62c4.1-1.23,8.7-3.68,13.23-5.8        c0.24,18.21-2.73,28.51-25.6,26.42c-18.51-1.69-27.59-4.3-29.29-8.28C147.37,84.26,149.6,72.6,149.6,72.6z"></path>
						<path id="Path_2362" class="st14" d="M185.24,74.45c0.19,0.7,0.28,1.43,0.28,2.15c-0.12,4.89-4.17,8.75-9.06,8.64        c-4.72-0.11-8.52-3.91-8.64-8.64c0-0.73,0.1-1.45,0.28-2.15H185.24z"></path>
						<path id="Path_2363" class="st11" d="M162.55,59.58c2.71,0.32,5.16-1.62,5.48-4.33c0.32-2.71-1.62-5.16-4.33-5.48        s-5.16,1.62-5.48,4.33c-0.02,0.19-0.03,0.38-0.03,0.58C158.05,57.23,159.99,59.42,162.55,59.58z"></path>
						<path id="Path_2364" class="st9" d="M164.56,55.83c0.7,0,1.28-0.8,1.28-1.78s-0.57-1.78-1.28-1.78s-1.28,0.8-1.28,1.78        S163.86,55.83,164.56,55.83z"></path>
						<path id="Path_2365" class="st9" d="M168.41,52.29c-5.15-0.58-9.52-0.49-13.02,0.55c-2.88,0.86-3.01-1.11-0.05-3.11        s9.52-2.15,13.53-1.78S172.06,53.04,168.41,52.29z"></path>
						<path id="Path_2366" class="st11" d="M189.25,60.23c2.71,0.32,5.16-1.62,5.48-4.33c0.32-2.71-1.62-5.16-4.33-5.48        s-5.16,1.62-5.48,4.33c-0.02,0.19-0.03,0.38-0.03,0.58C184.75,57.88,186.7,60.07,189.25,60.23z"></path>
						<path id="Path_2367" class="st9" d="M191.27,56.49c0.7,0,1.28-0.8,1.28-1.78s-0.57-1.78-1.28-1.78s-1.28,0.8-1.28,1.78        S190.57,56.49,191.27,56.49z"></path>
						<path id="Path_2368" class="st9" d="M184.7,52.45c5.15-0.58,9.52-0.49,13.02,0.55c2.88,0.86,3.01-1.11,0.05-3.11        s-9.52-2.15-13.53-1.78S181.06,53.2,184.7,52.45z"></path>
						<path id="Path_2369" class="st15" d="M144.65,52.26c-1.05-0.65-4.26-2.79-5.61-0.94s0.73,5.66,3.16,7.43        c2.43,1.77,3.78,0.06,2.49-1.47c-0.91-0.82-0.98-2.21-0.17-3.12c0.1-0.12,0.22-0.22,0.35-0.31        C145.7,53.14,144.65,52.26,144.65,52.26z"></path>
						<path id="Path_2370" class="st9" d="M184.21,74.45h-2.18v3.25h1.12c0.56,0.02,1.03-0.42,1.05-0.98V74.45z M179.26,74.45h-10.4        v2.28c0.02,0.56,0.49,1,1.05,0.98h9.34L179.26,74.45L179.26,74.45z"></path>
						<path id="Path_2371" class="st16" d="M183.84,81.67c-4.59-1.9-9.75-1.9-14.34,0c2.98,3.96,8.6,4.76,12.56,1.78        C182.73,82.94,183.33,82.34,183.84,81.67z"></path>
						<path id="Path_2372" class="st17" d="M167.44,65.47c1.57,7.58,12.26,7.27,13.47,0.21c0.6-3.51-4.04-14.38-4.04-14.38        C174.52,65.58,167,63.3,167.44,65.47z"></path>
						<path id="Path_2373" class="st18" d="M113.48,199.53l7.44,98.33l1.7,0.06c0,0-5.61-97.85-5.86-99.66        C116.24,194.49,113.24,196.33,113.48,199.53z"></path>
						<path id="Path_2374" class="st19" d="M174.29,51.76c-0.2,0.01-0.39,0-0.59,0c-0.07,0.6-0.11,1.16-0.22,1.71        c-0.98,5.22-3.53,10.59-9.35,12.33c-2.86,0.85-5.92,0.78-8.75-0.2c-3.42-0.97-6.15-3.57-7.28-6.94        c-0.76-2.02-1.34-4.11-1.74-6.23c-0.08-0.87-0.69-1.6-1.52-1.85c-0.28-0.06-0.48-0.3-0.48-0.59        c-0.03-0.72-0.05-1.45-0.07-2.16c-0.01-0.33,0.19-0.48,0.5-0.53c0.43-0.08,0.85-0.17,1.28-0.24c2.87-0.49,5.77-0.81,8.68-0.95        c4.88-0.23,9.77,0.15,14.56,1.13c1.63,0.19,3.09,1.09,4,2.45c0.09,0.19,0.29,0.3,0.5,0.29c1.62-0.04,3.02-0.04,4.63,0        c0.21,0.02,0.41-0.1,0.5-0.29c0.91-1.36,2.37-2.26,4-2.45c4.79-0.98,9.68-1.36,14.56-1.13c2.91,0.14,5.8,0.46,8.67,0.95        c0.43,0.08,0.85,0.17,1.28,0.24c0.32,0.06,0.51,0.21,0.5,0.53c-0.02,0.72-0.04,1.45-0.07,2.16c0,0.29-0.2,0.53-0.48,0.59        c-0.84,0.25-1.44,0.98-1.52,1.85c-0.39,2.12-0.97,4.21-1.74,6.23c-1.14,3.37-3.86,5.97-7.28,6.94        c-2.82,0.97-5.88,1.04-8.75,0.2c-5.82-1.74-8.37-7.11-9.35-12.33c-0.1-0.55-0.14-1.1-0.22-1.71h-0.59        C176.68,51.72,175.58,51.72,174.29,51.76L174.29,51.76z M181.22,52.72L181.22,52.72c-0.1,1.04-0.04,2.09,0.18,3.11        c0.81,4.02,2.55,7.38,7.11,8.61c2.59,0.71,5.34,0.66,7.9-0.15c5.61-1.72,7.64-7.69,7.04-12.71c-0.28-1.85-1.75-3.3-3.61-3.55        c-0.77-0.1-1.54-0.25-2.31-0.3c-3.8-0.22-9.71-0.18-13.14,1.17C182.68,49.43,181.43,50.93,181.22,52.72L181.22,52.72z         M171.05,52.72L171.05,52.72c-0.21-1.79-1.46-3.29-3.19-3.81c-3.43-1.35-9.34-1.39-13.14-1.17c-0.77,0.05-1.54,0.19-2.31,0.3        c-1.86,0.26-3.32,1.7-3.61,3.55c-0.6,5.03,1.43,11,7.04,12.71c2.57,0.8,5.31,0.86,7.9,0.15c4.55-1.23,6.3-4.58,7.11-8.61        C171.09,54.82,171.15,53.76,171.05,52.72L171.05,52.72z"></path>
						<path id="Path_2375" class="st20" d="M250.67,125.41c4,0,7.26-5.19,7.26-11.55s-3.26-11.55-7.26-11.55s-7.26,5.19-7.26,11.55        S246.68,125.41,250.67,125.41z"></path>
						<path id="Path_2376" class="st15" d="M207.95,51.65c1.05-0.65,4.26-2.79,5.61-0.94s-0.73,5.66-3.16,7.43s-3.78,0.06-2.49-1.47        c0.91-0.82,0.98-2.21,0.17-3.12c-0.1-0.12-0.22-0.22-0.35-0.31C206.92,52.53,207.95,51.65,207.95,51.65z"></path>
						<g id="Group_886" transform="translate(205.921 26.75)">
							<path id="Path_2377" class="st21" d="M29.3,0.43c7.19-1.96,15.22,2.94,17.92,10.94s-0.91,16.09-8.1,18.06         S23.91,26.49,21.2,18.49S22.12,2.4,29.3,0.43z"></path>
							<path id="Path_2378" class="st9" d="M14.02,68.88C8.56,64.29,4.83,57.97,3.47,50.97C1.36,39.89-0.46,34.54,6.36,26.39         s19.09-10.29,25.98-9.03c9.25,1.69,30.07,0.53,34.76,3.29c6.3,3.71,11.4,8.15,11.71,18.18s-4.72,20.89-4.72,20.89         L14.02,68.88z"></path>
							<path id="Path_2379" class="st4" d="M71.36,46.02c9.54-9.25,17.39,0.42,9.12,8.03c-4.69,4.32-8.51,2.75-8.83,1.99         S71.36,46.02,71.36,46.02z"></path>
							<path id="Path_2380" class="st15" d="M74.67,46.64c0.97-0.76,3.91-3.21,5.47-1.5s-0.06,5.71-2.27,7.71s-3.75,0.44-2.65-1.21         c0.81-0.92,0.72-2.32-0.2-3.13c-0.12-0.1-0.24-0.19-0.38-0.27C73.74,47.62,74.67,46.64,74.67,46.64z"></path>
							<path id="Path_2381" class="st4" d="M12.16,51.59c-11.47-7.1-16.88,3.93-7.02,9.68c5.59,3.27,8.95,0.96,9.08,0.16         S12.16,51.59,12.16,51.59z"></path>
							<path id="Path_2382" class="st15" d="M9.07,52.86c-1.12-0.54-4.56-2.34-5.69-0.36s1.39,5.56,4.02,7.07s3.76-0.33,2.3-1.72         c-1-0.7-1.24-2.07-0.55-3.07c0.09-0.13,0.2-0.25,0.31-0.36C10.21,53.64,9.07,52.86,9.07,52.86z"></path>
							<path id="Path_2383" class="st4" d="M46.21,86.5c45.05-4.61,20.73-31.03,25.29-56.17c0,0-15.99,0.58-31.76,1.35         c-15.59,2.43-31.32,5.1-31.32,5.1C18.84,60.7,0.28,91.19,46.21,86.5z"></path>
							<path id="Path_2384" class="st9" d="M45.38,33.11c7.84,11.37,23.66,16.14,26.32,13.47C89.89,28.34,59.18,4.16,38.65,17.63         C6.88,9.87-7.9,39.38,9.08,52.87C14.9,57.5,35.24,42.04,45.38,33.11z"></path>
							<path id="Path_2385" class="st11" d="M26.26,50.46c2.57-0.1,4.75,1.87,4.91,4.43c0.45,2.48-1.2,4.85-3.68,5.3         c-0.03,0-0.05,0.01-0.08,0.01c-2.57,0.1-4.75-1.87-4.91-4.43c-0.45-2.48,1.21-4.86,3.69-5.3         C26.22,50.47,26.24,50.46,26.26,50.46z"></path>
							<path id="Path_2386" class="st9" d="M28.55,52.73c0.7-0.07,1.36,0.66,1.48,1.64s-0.36,1.83-1.06,1.9s-1.36-0.66-1.48-1.64         S27.85,52.8,28.55,52.73z"></path>
							<path id="Path_2387" class="st9" d="M32.09,48.28c-4.35,0.11-8.67,0.64-12.91,1.6c-2.81,0.72-3.06-0.25-0.23-1.54         s9.34-2.03,13.35-2.27S35.76,48.28,32.09,48.28z"></path>
							<path id="Path_2388" class="st11" d="M57.34,47.02c-2.49,0.4-4.18,2.75-3.78,5.23c0,0.03,0.01,0.06,0.01,0.09         c0.17,2.56,2.35,4.53,4.92,4.43c2.49-0.4,4.18-2.75,3.77-5.24c0-0.03-0.01-0.05-0.01-0.08         C62.09,48.89,59.91,46.92,57.34,47.02z"></path>
							<path id="Path_2389" class="st9" d="M55.63,49.7c-0.7,0.07-1.18,0.92-1.06,1.9s0.78,1.72,1.48,1.64s1.18-0.92,1.06-1.9         S56.34,49.63,55.63,49.7z"></path>
							<path id="Path_2390" class="st9" d="M52.02,46.87c4.28-0.78,8.63-1.13,12.98-1.04c2.91,0.14,2.93-0.86-0.13-1.55         s-9.59-0.09-13.56,0.49S48.44,47.6,52.02,46.87z"></path>
							<path id="Path_2391" class="st14" d="M51.77,68.64c1.6,4.11-0.43,8.74-4.54,10.34c-0.72,0.28-1.47,0.45-2.24,0.52         c-4.51,0.5-8.58-2.7-9.18-7.19c-0.08-0.68-0.07-1.36,0.02-2.03L51.77,68.64z"></path>
							<path id="Path_2392" class="st9" d="M50.83,68.73l-1.5,0.15l-0.52,0.06l-2.58,0.26l-1.76,0.18l-7.9,0.81l0.25,2.12         c0.08,0.52,0.56,0.88,1.08,0.81l6.93-0.71l1.76-0.18l2.58-0.26l0.52-0.06l0.52-0.06c0.52-0.04,0.91-0.48,0.87-1         c0-0.01,0-0.01,0-0.02L50.83,68.73z"></path>
							<path id="Path_2393" class="st16" d="M51.27,75.48c-2.2-0.74-4.53-0.97-6.83-0.64c-2.3,0.15-4.53,0.84-6.51,2.01         c1.81,1.94,4.42,2.92,7.06,2.65C47.61,79.24,49.95,77.75,51.27,75.48z"></path>
							<path id="Path_2394" class="st17" d="M36.85,63.8c2.21,6.67,11.8,5.4,12.14-1.04c0.17-3.21-5.16-12.56-5.16-12.56         C43.22,63.24,36.21,61.88,36.85,63.8z"></path>
							<path id="Path_2395" class="st22" d="M25,62.63c3.97-0.41,7.3,0.19,7.43,1.32s-2.98,2.39-6.95,2.79s-7.3-0.19-7.43-1.32         S21.03,63.04,25,62.63z"></path>
							<path id="Path_2396" class="st22" d="M60.34,58.26c3.97-0.41,7.3,0.19,7.43,1.32s-2.98,2.39-6.95,2.79s-7.3-0.19-7.43-1.32         S56.37,58.66,60.34,58.26z"></path>
							<path id="Path_2397" class="st23" d="M10.06,60.44c1.55-0.21,2.99,0.86,3.23,2.41c0.13,1.53-1,2.87-2.53,3         c-0.02,0-0.04,0-0.06,0c-1.55,0.21-2.99-0.86-3.23-2.41c-0.13-1.52,0.99-2.86,2.51-2.99C10.01,60.44,10.03,60.44,10.06,60.44         z"></path>
							<path id="Path_2398" class="st23" d="M74.94,54.16c1.55-0.21,2.99,0.86,3.23,2.41c0.13,1.53-1,2.87-2.53,3         c-0.02,0-0.04,0-0.06,0c-1.55,0.21-2.99-0.86-3.23-2.41c-0.13-1.53,1-2.87,2.53-3C74.9,54.16,74.92,54.16,74.94,54.16z"></path>
						</g>
						<path id="Path_2399" class="st11" d="M174.06,151.06c1.14-0.08,2-1.08,1.92-2.22c-0.08-1.14-1.08-2-2.22-1.92        c-1.08,0.08-1.92,0.98-1.92,2.07C171.88,150.17,172.88,151.1,174.06,151.06z"></path>
						<path id="Path_2400" class="st11" d="M174.06,168.65c1.14-0.08,2-1.08,1.92-2.22c-0.08-1.14-1.08-2-2.22-1.92        c-1.08,0.08-1.92,0.98-1.92,2.07C171.88,167.76,172.88,168.69,174.06,168.65z"></path>
						<path id="Path_2401" class="st11" d="M174.06,185.22c1.14-0.08,2-1.08,1.92-2.22c-0.08-1.14-1.08-2-2.22-1.92        c-1.08,0.08-1.92,0.98-1.92,2.07C171.88,184.33,172.88,185.25,174.06,185.22z"></path>
						<path id="Path_2402" class="st24" d="M115.96,149.58c-4.68,15.47-4.26,35.62-4.26,35.62s-0.73,0.52-1.78,1.24        c-0.15,0.1-0.3,0.21-0.46,0.32c0.09,0.42,0.17,0.84,0.26,1.26l5.9-0.99h0.01c-3.19-27.47,7.03-51.53,29.86-66.49        c0.24-2.83,0.48-5.57,0.72-8.2c-1.98,2.8-3.96,5.65-4.24,6.18C141.37,119.63,120.64,134.12,115.96,149.58z"></path>
						<path id="Path_2403" class="st24" d="M145.49,120.56c-2.1,24.46-4.17,54.87-5.33,70.98c-0.06,0.79,0.59,1.49,1.8,2.1        c7.15,3.63,34,4.17,50.72,2.61c-7.72-1.11-30.05-3.75-33.84-7.55c-2.38-2.38-3.46-9.39-4.01-15.9        c-0.53-6.3-0.56-12.12-0.79-12.76c-0.47-1.31,8.91-5.01,9.84-4.36c0.67,0.47-6.56-25.11-10.7-39.58        c-1.63-5.69-2.77-9.66-2.77-9.66s-2.09,2.93-4.19,5.91C145.97,114.99,145.73,117.73,145.49,120.56z"></path>
						<path id="Path_2404" class="st25" d="M192.68,196.24c-16.72,1.56-43.58,1.02-50.72-2.61l1.71,95.69l2.53,0.16l1.05-0.54        c0,0,0.03-0.89,0.08-2.47c0.45-13.62,2.85-79.04,7.88-82.94c5.63-4.36,38.78-6.32,40.06-6.75        C195.52,196.68,194.5,196.5,192.68,196.24z"></path>
						<path id="Path_2405" class="st4" d="M264.96,115c2.02,1.08,7.03,0.47,7.03,0.47s-1.14,1.28,1.31,4.24        c2.46,2.97,7.35,5.06,9.08,3.22s1.94-4.09-0.64-6.89s-9.29-3.76-10.25-3.57C270.2,112.72,262.96,113.91,264.96,115z"></path>
						<path id="Path_2406" class="st25" d="M172.9,207.14c19.21,0.11,14.37,83.31,14.37,83.31s0.43,0.02,1.11,0.03        c0.87,0.01,2.16,0.02,3.46-0.04c0.07-1.17,0.18-2.63,0.31-4.32c1.63-21.45,6.33-80.51-18.35-79.45        c-1.02,0.08-2.02,0.35-2.96,0.77C171.51,207.24,172.2,207.13,172.9,207.14z"></path>
						<path id="Path_2407" class="st24" d="M197.23,120.88c0,0,5.24,33.59,8.78,56.01c-0.82-22.3-2.33-43.12-3.49-59.46        c-0.15-2.06-0.29-4.05-0.42-5.96c-1.39-1.29-2.66-2.7-3.81-4.21c0-0.3-0.22,2.52-0.46,5.67        C197.54,116.67,197.23,120.88,197.23,120.88z"></path>
						<path id="Path_2408" class="st24" d="M202.52,117.43c3.46,3.28,7.51,7.09,11.47,10.69c0.79-2.12,1.89-4.1,3.28-5.89        c1.81-1.94,3.97-3.53,6.37-4.68l-1.73-1.92c-0.46,0.09-0.92,0.2-1.37,0.35c-5.15,1.63-6.68,5.01-6.79,6.1        c-0.08,0.74-7.09-5.97-11.65-10.61C202.24,113.37,202.38,115.37,202.52,117.43z"></path>
						<path id="Path_2409" class="st26" d="M162.36,31.58c-3.68-0.06-6.35-0.08-6.6-0.05c-0.88,0.11,10.72-4.41,11.36-4.58        s-10.89,0.06-14.29-0.82s-13.73-3.57-13.73-3.57l0.02,0.02c0.35,0.17,5.98,8.06,5.51,8.71l2.28,5.45l4.05,6.04l7.79-2.18        c0,0-2.64,4.42-3.56,5.46c0.74-0.04,1.48-0.05,2.23-0.05c0.72-0.14,1.6-0.35,2.62-0.61c3.98-1.03,13.06-3.43,13.06-3.43        s-3.57,3.41-5.53,4.92c0.59,0.1,1.17,0.21,1.76,0.33c0.69,0.13,1.37,0.34,2.01,0.64c2.85-0.04,5.69-0.3,8.51-0.76        c9.43-1.53,12.36-4.91,12.36-4.91l-3.06,4.1c0.55-0.06,1.1-0.1,1.65-0.14c2.46-2.76,5.53-6.22,5.7-6.51        c0.29-0.49-20.21,6.27-20.21,6.27s9.26-6.13,15.42-10.14c2.72-1.77,4.84-3.13,5.27-3.37c0.82-0.45-4.99,1.4-10.25,3.02        c-3.77,1.17-7.25,2.21-7.79,2.21c-0.64,0,1.17-1.23,3.25-2.52c2.11-1.31,4.48-2.66,4.84-2.83        C187.48,32.07,171.68,31.72,162.36,31.58z"></path>
						<path id="Path_2410" class="st26" d="M149.41,73.69l-2.04-11.44l-0.1-0.58c0,0.21-0.01,0.41-0.01,0.61        c0,0.11-0.01,0.23-0.01,0.35c-0.35,11.55-2.35,18.8-2,18.63s2-0.76,1.76-0.44s-0.41,4.52,0.12,8.99        c0.17,1.53,0.45,3.04,0.83,4.53c0.02,0.09,0.05,0.19,0.07,0.27c0.37,1.35,0.68,2.01,0.68,1.84c0.36-0.65,0.81-1.24,1.33-1.76        c0.08-0.08,0.13-0.14,0.13-0.14s0.86,0.98,2.65,2.68c1.37,1.31,3.29,3.03,5.79,5.07c0.12,0.1,0.24,0.2,0.35,0.29        c5.44,4.4,6.56,4.5,6.56,4.5l-0.35-3.49c2.48,1.26,4.49,3.28,5.74,5.77c1.65,3.82,2.11,5.34,2.35,4.68s5.39-6.32,5.39-6.32        s0.7,4.47,1.4,3.26c0.66-1.14,5.91-2.27,10.79-6.65c0.27-0.24,0.54-0.49,0.8-0.76c1.99-1.94,3.85-4.02,5.56-6.21        c0.74-0.95,1.03-1.34,1.06-1.09c0.06,0.6-0.12,3.05,0.29,2.34c0.2-0.35,1.24-1.33,2.54-3.13c0.37-0.51,0.75-1.08,1.15-1.73        c1.27-2.09,2.3-4.32,3.05-6.64c0.19-0.57,0.35-1.14,0.48-1.73c-1.05,0.67-2.23-2.2-3.23-3.27c-0.04,0.05-1.73,7.33-1.77,7.37        c-0.31,0.52-0.65,1.01-1.02,1.48c-0.61,0.78-1.32,1.49-2.1,2.1c-0.45,0.64-0.94,1.23-1.48,1.79        c-0.55,0.58-0.15-13.46-0.76-12.95c-1.69,6.79-4.4,13.28-8.02,19.26l0.99-12.51c-3.25,8.06-7.61,14.04-9.31,15.78        c-1.08-1.42-2.06-2.91-2.93-4.47c-0.12-0.65-2.11,4.14-2.11,4.14s-3.05-1.63-6.91-6.54c-0.65-0.83-1.22-1.73-1.7-2.68        c-0.35-0.68-0.67-1.38-0.94-2.1c-0.01-0.03-0.03-0.07-0.04-0.09c-0.05-0.13-0.1-0.27-0.15-0.4c-0.9-2.48-1.52-5.06-1.85-7.69        l-4.8,5.56l-1.37-6.41l-2.12-9.93l-3.07,3.02l-0.91,0.9L149.41,73.69z"></path>
						<path id="Path_2411" class="st27" d="M221.26,148.79c-5.85,15.52-3.54,30.89,19.34,47.93c0.49-0.15,3.7-0.86,3.7-0.86        c2.19-0.1,4.39-0.04,6.58,0.18c2.24-0.26,4.5-0.33,6.76-0.22c0,0,3.21,0.71,3.7,0.86c22.87-17.03,25.17-32.4,19.31-47.94        c-2.39,0.59-4.19,0.95-4.19,0.95s-0.57-0.84-1.39-2.23c-0.57,0.31-1.08,0.58-1.43,0.76c-1.44,0.75,6.21,2.61,6.21,2.61        s1.4,16.34-3.63,26.26s-15.7,17.54-15.7,17.54s-13.47-0.33-20.62-3.05s-8.56-11.11-9.96-17.32s3.86-10.24,3.86-10.24        s-9.39-3.81-10.54-10.03c-0.2-1.56-0.1-3.15,0.29-4.67C222.88,149.18,222.1,149,221.26,148.79z"></path>
						<path id="Path_2412" class="st27" d="M211.06,145.26c2.43,1.28,5,2.25,7.67,2.88c0.87,0.24,1.73,0.46,2.52,0.65        c0.85,0.21,1.63,0.39,2.28,0.54c0.87-3.46,2.04-6.84,3.51-10.09c1.48-3.47,2.82-6.23,2.79-6.84        c-0.04-0.71-2.25,2.29-4.47,5.53c-2.33,3.38-4.69,7.02-4.69,7.02c-0.53-0.12-1.05-0.29-1.54-0.51        c-1.65-0.69-3.09-1.79-4.19-3.2c-0.67-0.88-0.84-2.71-0.72-4.9c0.17-2.4,0.51-4.78,1.02-7.13c0.41-2.4,1.1-4.75,2.06-7        c-0.06,0.07-0.12,0.14-0.18,0.21s-0.15,0.19-0.24,0.31c-1.17,1.67-2.13,3.47-2.86,5.37c-2.48,6-4.27,13.82-4.1,15.78        C209.93,144.35,210.36,144.81,211.06,145.26z"></path>
						<path id="Path_2413" class="st27" d="M279.18,145.24c0,0-2.36,1.29-4.13,2.24c0.82,1.39,1.39,2.23,1.39,2.23        s1.8-0.36,4.19-0.95c0.77-0.19,1.6-0.4,2.46-0.63c2.69-0.64,5.29-1.61,7.74-2.89c0.71-0.46,1.15-0.91,1.19-1.36        c0.01-0.89-0.08-1.77-0.25-2.64c-0.68,0.2-1.37,0.39-2.06,0.57c-1.77,0.54-3.59,0.91-5.44,1.11c-0.74-0.18-1.39-0.6-1.86-1.2        c-3.45-3.51-8.97-13.46-8.97-13.46L279.18,145.24z"></path>
						<path id="Path_2414" class="st27" d="M240.54,200.83c-11.7-5.62-19.7-11.47-24.82-17.75c-2.09,28.48-3.14,54.25-2.53,60.08        c0.35,3.35,12.43,5.85,27.09,6.92c2.46,0.18,4.99,0.32,7.55,0.42c1.02,0.04,2.06,0.08,3.09,0.09        c0.84-0.02,1.68-0.05,2.53-0.08c2.55-0.09,5.08-0.22,7.52-0.4c5.46-0.35,10.89-1,16.27-1.96c-3.68-0.63-8.2-1.45-13.7-2.54        c-0.76-0.15-1.52-0.3-2.26-0.45c-2.81-0.57-5.43-1.12-7.87-1.65c-1.97-0.43-3.81-0.85-5.53-1.26c-3.16-0.75-5.9-1.45-8.21-2.1        c-5.72-1.61-8.85-2.92-9.27-3.8c-0.82-1.74,5.04-5.99,6.33-6.32s-4.33-5.77-6.79-10.57s-4.68-16.34-4.68-16.34        s28.46,8.06,41,1.19s15.28-16.4,15.28-16.4c-4.93,4.47-11.55,8.74-20.16,12.87c-1.59,1.34-3.35,2.46-5.25,3.33        c-1.36,0.46-2.79,0.71-4.22,0.73c-2.05,0.18-4.11-0.06-6.07-0.69C243.92,203.31,242.14,202.18,240.54,200.83z"></path>
						<path id="Path_2415" class="st26" d="M241.52,59.07c-5.13,4.63-15.96,13.63-24.21,15.1c-2.32,0.45-4.7,0.47-7.03,0.07        c0.36,0.62,0.76,1.21,1.19,1.78c1.02,1.34,2.2,2.54,3.52,3.58c0,0,0.04,0.03,0.1,0.07c1.03,0.66,2.27,0.92,3.48,0.74        c12.58-2.57,22.84-11.86,32.72-20.58c6.72,9.75,19.57,15.58,25.98,13.73c0.09-0.05,0.17-0.11,0.25-0.18l0.09-0.08        c0.84-0.84,1.61-1.73,2.31-2.69c1.01-1.36,1.81-2.87,2.38-4.47c-1.29,0.4-2.61,0.67-3.94,0.83c-0.44,0.05-0.93,0.07-1.46,0.09        c-5.13,0.13-14.07-1.34-18.69-6.63c-0.68-0.77-1.26-1.62-1.74-2.54c-2.65-5.13-0.67-10.31-0.37-11.24        c0.12-0.39-1.54,1.33-3.79,3.75c-1.21,1.31-2.61,2.81-3.99,4.3c-1.25,1.35-2.5,2.69-3.6,3.84c-1.1,1.24-2.29,2.4-3.56,3.47        c-0.93,0.56,0.27-1.38,1.47-3.14c0.91-1.33,1.83-2.58,1.83-2.58S243.36,57.42,241.52,59.07z"></path>
						<path id="Path_2416" class="st8" d="M219.17,94.92c1.29,9.86,4.95,17.35,19.61,18.62h0.05c1.42,0.12,2.95,0.19,4.58,0.19        c1.96,0,4.07-0.08,6.36-0.27h0.03c0.76-0.06,1.54-0.13,2.33-0.21c2.07-0.21,3.99-0.47,5.76-0.76        c12.76-2.15,18.55-6.54,20.81-12.34c-1,0.88-2.14,1.9-3.38,3.03c-4.27,3.89-10.66,6.85-17.53,8.28        c-4.69,1.02-9.52,1.23-14.28,0.63c-9.51-1.31-17.72-6.42-20.09-16.99c-0.65-3.05-0.84-6.19-0.58-9.3        c0.14-2.01,1.82-5.21,3.08-7.37c-2.17,1.12-7.75,2.02-7.85,2.03s0.18,0.72,0.06,0.73c0.18,2.37,0.31,4.72,0.45,6.99        c0.25,0.28,0.44,0.62,0.55,0.98c0.04,0.15,0.07,0.3,0.09,0.45c0.07,0.61-0.08,1.22-0.41,1.73        C218.9,92.55,219.02,93.75,219.17,94.92z"></path>
						<path id="Path_2417" class="st8" d="M218.57,88.18c-0.16-2.51-0.29-5.09-0.51-7.72c-1.04,0.08-2.09-0.19-2.96-0.76        c0.26,0.21,0.9,0.85,0.31,1.48c-0.9,0.82-0.96,2.22-0.13,3.12c0.11,0.12,0.23,0.22,0.36,0.32c1.46,1.38,0.32,3.23-2.3,1.72        c-0.52-0.31-1.01-0.66-1.46-1.06c-1.99-1.75-3.47-4.4-2.56-6.01c0.09-0.15,0.19-0.29,0.31-0.41c1.34-1.29,4.33,0.27,5.38,0.77        c-1.32-1.04-2.5-2.25-3.52-3.58c-0.8-0.03-1.59,0.08-2.35,0.33c-1.28,0.4-2.32,1.34-2.84,2.57c-0.46,1.18-0.48,2.5-0.06,3.69        c0.9,2.33,2.62,4.25,4.84,5.4c0.76,0.45,1.57,0.84,2.41,1.14c0.06-0.21,0.15-0.4,0.26-0.59c0.48-0.79,1.31-1.3,2.24-1.38        C216.95,87.09,217.92,87.45,218.57,88.18z"></path>
						<path id="Path_2418" class="st28" d="M138.69,296c-0.41-0.33,10.26-6.3,10.77-6.31l-3.28-0.21l-2.53-0.16        c-1.62,0.9-12.58,7.14-12.2,8.5c0.29,1.06,7.87,0.23,12.23-0.47C141.49,296.79,138.91,296.16,138.69,296z"></path>
						<path id="Path_2419" class="st28" d="M188.39,290.48l-0.21,5.15l3.83,0.77l0.98-0.54c0.35,0.25,0.69,0.54,0.99,0.85        c0.36,0.38,11.74,2.13,14.59,1.48c0.4-0.23,0.63-0.36,0.63-0.36l-10.78-4.54l-6.97,0.27l0.38-3.11        C190.54,290.49,189.26,290.49,188.39,290.48z"></path>
						<path id="Path_2420" class="st8" d="M244.91,290c0.47-0.11-2.23-36.6-2.23-36.6l5.13-0.35l0.01-2.54        c-2.56-0.1-5.09-0.24-7.55-0.42c0.99,15.61,2.49,39.06,2.49,39.06s-1.09,0.64-2.56,1.52c0.45,0.27,0.83,0.65,1.1,1.1        c0.02,0.02,0.04,0.05,0.05,0.08C241.35,291.85,244.44,290.11,244.91,290z"></path>
						<path id="Path_2421" class="st29" d="M237.18,290.47c-5.25,1.49-9.43,8.34-4.05,9.61c0.78,0.18,1.59,0.23,2.39,0.17        c-0.71-0.37-1.38-0.83-1.97-1.37c-0.7-0.77-0.55-1.94,0.29-3.22c0.91-1.28,2.07-2.36,3.4-3.19c0.19-0.13,0.38-0.24,0.55-0.35        c2.49-1.45,3.33-0.65,3.53-0.37c-0.27-0.45-0.65-0.83-1.1-1.1C239.28,290.17,238.18,290.11,237.18,290.47z"></path>
						<path id="Path_2422" class="st29" d="M253.66,292.36c-0.55,2.57-0.18,2.53-0.18,2.85c1.95,1.41,4.1,2.53,6.37,3.33        c-0.54-0.56-1.14-1.17-1.65-1.72c-0.43-0.46-0.84-0.94-1.21-1.45C255.56,294.78,254.39,293.71,253.66,292.36z"></path>
						<path id="Path_2423" class="st8" d="M253.66,292.36c0.73,1.36,1.9,2.42,3.32,3.02c-0.71-1-1.18-2.15-1.37-3.37        c-0.38-1.88,0.26-32.99,0.45-41.6l-2.62,0.11L253.66,292.36z"></path>
						<path id="Path_2424" class="st27" d="M281.7,158.66c0-0.87-1.4-9.18-1.64-8.5s1.11,4.25-5.33,8.23s-11.18,4.47-8.85,4.95        s9.55,1.42,9.55,1.42c1.48,2.34,2.19,5.08,2,7.85c-0.35,4.52-2.35,7.79-1.23,6.64s4.74-10.84,5.22-14.6        C281.69,162.66,281.79,160.66,281.7,158.66z"></path>
						<path id="Path_2425" class="st30" d="M113.61,201.24l7.31,96.62l1.04,0.04l-6.79-99.96l-0.12-1.74        c-0.87,0.24-1.71,1.59-1.57,3.34L113.61,201.24z"></path>
					</g>
				</g>
			</g>
		</g>
	</g>
	<g class="st31">
		<path class="st32" d="M-5639.94-5965.08h-4.49l-0.87,2.76h-2.59l4.4-12.8h2.63l4.39,12.8h-2.59L-5639.94-5965.08z     M-5643.8-5967.09h3.23l-1.58-5.03h-0.05L-5643.8-5967.09z"></path>
		<path class="st32" d="M-5630.35-5964.94c0-0.28-0.14-0.52-0.41-0.73c-0.27-0.21-0.78-0.39-1.52-0.54    c-1.13-0.23-1.97-0.57-2.54-1.02c-0.57-0.45-0.86-1.06-0.86-1.83c0-0.82,0.34-1.52,1.03-2.09c0.69-0.57,1.61-0.86,2.76-0.86    c1.21,0,2.18,0.29,2.9,0.85c0.72,0.57,1.06,1.29,1.03,2.15l-0.02,0.05h-2.48c0-0.38-0.12-0.69-0.36-0.93    c-0.24-0.24-0.6-0.36-1.07-0.36c-0.42,0-0.74,0.1-0.98,0.3c-0.24,0.2-0.36,0.46-0.36,0.76c0,0.29,0.13,0.53,0.37,0.72    c0.25,0.19,0.75,0.36,1.52,0.5c1.17,0.23,2.04,0.58,2.61,1.03c0.57,0.46,0.85,1.08,0.85,1.88c0,0.86-0.37,1.55-1.1,2.1    c-0.73,0.54-1.7,0.81-2.9,0.81c-1.27,0-2.27-0.32-3-0.96c-0.73-0.64-1.08-1.37-1.05-2.19l0.02-0.05h2.35    c0.02,0.51,0.18,0.88,0.5,1.11s0.73,0.34,1.24,0.34c0.47,0,0.84-0.09,1.09-0.28C-5630.48-5964.36-5630.35-5964.62-5630.35-5964.94    z"></path>
		<path class="st32" d="M-5621.07-5964.94c0-0.28-0.14-0.52-0.41-0.73c-0.27-0.21-0.78-0.39-1.52-0.54    c-1.13-0.23-1.97-0.57-2.54-1.02c-0.57-0.45-0.86-1.06-0.86-1.83c0-0.82,0.34-1.52,1.03-2.09c0.69-0.57,1.61-0.86,2.76-0.86    c1.21,0,2.18,0.29,2.9,0.85c0.72,0.57,1.06,1.29,1.03,2.15l-0.02,0.05h-2.48c0-0.38-0.12-0.69-0.36-0.93    c-0.24-0.24-0.6-0.36-1.07-0.36c-0.42,0-0.74,0.1-0.98,0.3c-0.24,0.2-0.36,0.46-0.36,0.76c0,0.29,0.13,0.53,0.37,0.72    c0.25,0.19,0.75,0.36,1.52,0.5c1.17,0.23,2.04,0.58,2.61,1.03c0.57,0.46,0.85,1.08,0.85,1.88c0,0.86-0.37,1.55-1.1,2.1    c-0.73,0.54-1.7,0.81-2.9,0.81c-1.27,0-2.27-0.32-3-0.96c-0.73-0.64-1.08-1.37-1.05-2.19l0.02-0.05h2.35    c0.02,0.51,0.18,0.88,0.5,1.11s0.73,0.34,1.24,0.34c0.47,0,0.84-0.09,1.09-0.28C-5621.2-5964.36-5621.07-5964.62-5621.07-5964.94z    "></path>
		<path class="st32" d="M-5611.12-5963.69c-0.29,0.5-0.67,0.88-1.12,1.15s-0.97,0.4-1.56,0.4c-1,0-1.79-0.32-2.35-0.96    c-0.56-0.64-0.85-1.64-0.85-2.99v-5.74h2.56v5.77c0,0.69,0.12,1.19,0.35,1.49s0.58,0.45,1.04,0.45c0.41,0,0.76-0.07,1.05-0.2    c0.29-0.13,0.53-0.33,0.72-0.59v-6.93h2.57v9.51h-2.19L-5611.12-5963.69z"></path>
		<path class="st32" d="M-5601.77-5969.62l-0.94-0.03c-0.38,0-0.69,0.08-0.94,0.24s-0.43,0.38-0.56,0.67v6.42h-2.56v-9.51h2.38    l0.11,1.41c0.22-0.5,0.51-0.88,0.87-1.16c0.35-0.28,0.76-0.42,1.23-0.42c0.13,0,0.25,0.01,0.36,0.03    c0.11,0.02,0.22,0.04,0.33,0.07L-5601.77-5969.62z"></path>
		<path class="st32" d="M-5596.26-5962.13c-1.37,0-2.47-0.44-3.29-1.32s-1.23-2-1.23-3.35v-0.35c0-1.41,0.39-2.57,1.17-3.49    c0.78-0.91,1.82-1.37,3.12-1.36c1.28,0,2.28,0.39,2.99,1.16s1.06,1.82,1.06,3.14v1.4h-5.68l-0.02,0.05    c0.05,0.63,0.26,1.14,0.63,1.54c0.37,0.4,0.88,0.6,1.52,0.6c0.57,0,1.04-0.06,1.42-0.17c0.38-0.11,0.79-0.29,1.23-0.54l0.69,1.58    c-0.39,0.32-0.89,0.58-1.52,0.79S-5595.49-5962.13-5596.26-5962.13z M-5596.49-5970.03c-0.47,0-0.85,0.18-1.13,0.54    s-0.45,0.84-0.51,1.43l0.03,0.04h3.15v-0.23c0-0.54-0.13-0.98-0.38-1.31C-5595.59-5969.87-5595.97-5970.03-5596.49-5970.03z"></path>
	</g>
	<g class="st31">
		<path class="st32" d="M-5639.94-5945.08h-4.49l-0.87,2.76h-2.59l4.4-12.8h2.63l4.39,12.8h-2.59L-5639.94-5945.08z     M-5643.8-5947.09h3.23l-1.58-5.03h-0.05L-5643.8-5947.09z"></path>
		<path class="st32" d="M-5635.89-5947c0-1.5,0.32-2.71,0.97-3.63c0.65-0.92,1.56-1.38,2.74-1.38c0.47,0,0.9,0.1,1.28,0.31    s0.71,0.5,1,0.88v-5.21h2.58v13.71h-2.21l-0.21-1.16c-0.3,0.44-0.65,0.77-1.06,1c-0.41,0.23-0.88,0.34-1.4,0.34    c-1.17,0-2.07-0.43-2.72-1.28c-0.65-0.86-0.97-1.99-0.97-3.39V-5947z M-5633.33-5946.81c0,0.84,0.14,1.49,0.42,1.97    s0.74,0.72,1.37,0.72c0.37,0,0.69-0.07,0.97-0.22s0.5-0.37,0.68-0.66v-4.08c-0.18-0.3-0.4-0.54-0.67-0.7    c-0.27-0.17-0.59-0.25-0.95-0.25c-0.63,0-1.08,0.28-1.38,0.84c-0.29,0.56-0.43,1.29-0.43,2.19V-5946.81z"></path>
		<path class="st32" d="M-5619.52-5943.69c-0.29,0.5-0.67,0.88-1.12,1.15s-0.97,0.4-1.56,0.4c-1,0-1.79-0.32-2.35-0.96    c-0.56-0.64-0.85-1.64-0.85-2.99v-5.74h2.56v5.77c0,0.69,0.12,1.19,0.35,1.49s0.58,0.45,1.04,0.45c0.41,0,0.76-0.07,1.05-0.2    c0.29-0.13,0.53-0.33,0.72-0.59v-6.93h2.57v9.51h-2.19L-5619.52-5943.69z"></path>
		<path class="st32" d="M-5612.47-5942.32h-2.57v-13.71h2.57V-5942.32z"></path>
		<path class="st32" d="M-5607.32-5954.16v2.33h1.6v1.8h-1.6v4.84c0,0.37,0.08,0.63,0.23,0.79s0.36,0.24,0.62,0.24    c0.13,0,0.25-0.01,0.35-0.02c0.1-0.01,0.21-0.04,0.34-0.07l0.22,1.86c-0.26,0.09-0.51,0.15-0.76,0.2    c-0.25,0.04-0.51,0.07-0.8,0.07c-0.88,0-1.57-0.24-2.04-0.73c-0.48-0.49-0.72-1.26-0.72-2.31v-4.85h-1.39v-1.8h1.39v-2.33    H-5607.32z"></path>
		<path class="st32" d="M-5604.48-5947.16c0-1.42,0.4-2.58,1.19-3.49c0.79-0.9,1.89-1.36,3.29-1.36c1.41,0,2.51,0.45,3.3,1.35    s1.2,2.07,1.2,3.49v0.18c0,1.43-0.4,2.6-1.19,3.49c-0.79,0.9-1.89,1.35-3.29,1.35c-1.41,0-2.51-0.45-3.3-1.35    c-0.79-0.9-1.19-2.06-1.19-3.49V-5947.16z M-5601.92-5946.98c0,0.87,0.15,1.56,0.46,2.08s0.8,0.79,1.48,0.79    c0.66,0,1.15-0.26,1.45-0.79c0.31-0.53,0.46-1.22,0.46-2.08v-0.18c0-0.84-0.16-1.53-0.47-2.06c-0.31-0.53-0.8-0.8-1.47-0.8    c-0.66,0-1.15,0.27-1.45,0.8c-0.31,0.54-0.46,1.22-0.46,2.06V-5946.98z"></path>
		<path class="st32" d="M-5585.88-5955.12l3.26,9.43h0.05l3.29-9.43h3.36v12.8h-2.57v-3.81l0.25-5.65l-0.05-0.01l-3.43,9.47h-1.72    l-3.41-9.44l-0.05,0.01l0.25,5.62v3.81h-2.57v-12.8H-5585.88z"></path>
		<path class="st32" d="M-5568.15-5942.32c-0.09-0.22-0.17-0.45-0.24-0.69c-0.07-0.24-0.12-0.49-0.15-0.74    c-0.26,0.46-0.61,0.85-1.04,1.15c-0.43,0.3-0.94,0.46-1.54,0.46c-1,0-1.76-0.26-2.3-0.77c-0.54-0.51-0.81-1.21-0.81-2.1    c0-0.93,0.36-1.65,1.08-2.17c0.72-0.51,1.76-0.77,3.14-0.77h1.43v-0.76c0-0.46-0.12-0.81-0.36-1.06s-0.59-0.38-1.06-0.38    c-0.42,0-0.74,0.1-0.96,0.3c-0.22,0.2-0.34,0.48-0.34,0.84l-2.48-0.01l-0.01-0.05c-0.04-0.8,0.31-1.49,1.05-2.08    c0.74-0.58,1.71-0.88,2.91-0.88c1.14,0,2.06,0.29,2.77,0.87c0.71,0.58,1.06,1.4,1.06,2.47v3.93c0,0.45,0.03,0.87,0.1,1.26    c0.07,0.39,0.17,0.78,0.32,1.17H-5568.15z M-5570.5-5944.03c0.45,0,0.85-0.11,1.2-0.33s0.59-0.48,0.71-0.77v-1.35h-1.43    c-0.54,0-0.96,0.14-1.24,0.41c-0.28,0.27-0.42,0.6-0.42,0.99c0,0.32,0.11,0.57,0.32,0.76S-5570.86-5944.03-5570.5-5944.03z"></path>
		<path class="st32" d="M-5560.79-5946.31l0.11,0.53h0.05l1.82-6.05h2.76l-3.86,10.93c-0.27,0.68-0.64,1.25-1.1,1.72    c-0.46,0.46-1.16,0.7-2.08,0.7c-0.22,0-0.42-0.02-0.6-0.05c-0.18-0.04-0.41-0.09-0.67-0.15l0.3-1.87    c0.08,0.01,0.16,0.02,0.25,0.04s0.17,0.02,0.24,0.02c0.42,0,0.75-0.11,0.98-0.31c0.23-0.21,0.4-0.47,0.53-0.78l0.3-0.74l-3.38-9.5    h2.76L-5560.79-5946.31z"></path>
		<path class="st32" d="M-5555.57-5947.16c0-1.42,0.4-2.58,1.19-3.49c0.79-0.9,1.89-1.36,3.29-1.36c1.41,0,2.51,0.45,3.3,1.35    s1.2,2.07,1.2,3.49v0.18c0,1.43-0.4,2.6-1.19,3.49c-0.79,0.9-1.89,1.35-3.29,1.35c-1.41,0-2.51-0.45-3.3-1.35    c-0.79-0.9-1.19-2.06-1.19-3.49V-5947.16z M-5553.01-5946.98c0,0.87,0.15,1.56,0.46,2.08s0.8,0.79,1.48,0.79    c0.66,0,1.15-0.26,1.46-0.79c0.31-0.53,0.46-1.22,0.46-2.08v-0.18c0-0.84-0.16-1.53-0.47-2.06c-0.31-0.53-0.8-0.8-1.47-0.8    c-0.66,0-1.15,0.27-1.46,0.8c-0.31,0.54-0.46,1.22-0.46,2.06V-5946.98z"></path>
		<path class="st32" d="M-5540.01-5949.62l-0.94-0.03c-0.38,0-0.69,0.08-0.94,0.24s-0.43,0.38-0.56,0.67v6.42h-2.56v-9.51h2.38    l0.11,1.41c0.22-0.5,0.51-0.88,0.87-1.16c0.36-0.28,0.76-0.42,1.23-0.42c0.13,0,0.25,0.01,0.36,0.03    c0.11,0.02,0.22,0.04,0.33,0.07L-5540.01-5949.62z"></path>
	</g>
	<g class="st31">
		<path class="st33" d="M-5641.7-5924.92c0-0.38-0.14-0.69-0.41-0.92c-0.27-0.23-0.75-0.45-1.43-0.66    c-1.19-0.34-2.08-0.75-2.69-1.22c-0.61-0.47-0.91-1.11-0.91-1.93c0-0.82,0.35-1.48,1.04-2c0.69-0.52,1.58-0.78,2.66-0.78    c1.09,0,1.98,0.29,2.67,0.87c0.69,0.58,1.02,1.3,1,2.15l-0.01,0.04h-1.93c0-0.46-0.15-0.83-0.46-1.12    c-0.31-0.28-0.74-0.43-1.3-0.43c-0.53,0-0.95,0.12-1.24,0.36c-0.29,0.24-0.44,0.54-0.44,0.91c0,0.34,0.16,0.62,0.47,0.83    c0.31,0.22,0.85,0.45,1.62,0.69c1.1,0.31,1.93,0.71,2.5,1.21c0.56,0.5,0.85,1.16,0.85,1.97c0,0.85-0.34,1.53-1.01,2.02    c-0.67,0.49-1.56,0.74-2.66,0.74c-1.08,0-2.03-0.28-2.84-0.84s-1.2-1.34-1.18-2.35l0.01-0.04h1.94c0,0.59,0.18,1.03,0.54,1.3    c0.36,0.28,0.87,0.41,1.51,0.41c0.54,0,0.96-0.11,1.24-0.33C-5641.84-5924.25-5641.7-5924.54-5641.7-5924.92z"></path>
		<path class="st33" d="M-5636.07-5922.32h-2v-9.95h2V-5922.32z"></path>
		<path class="st33" d="M-5626.04-5922.32h-1.99l-4.02-6.8l-0.04,0.01v6.79h-2v-9.95h2l4.02,6.79l0.04-0.01v-6.79h1.99V-5922.32z"></path>
		<path class="st33" d="M-5618.69-5925.93v3.61h-2v-9.95h3.96c1.14,0,2.04,0.29,2.7,0.88c0.66,0.58,0.98,1.35,0.98,2.3    c0,0.95-0.33,1.72-0.98,2.3c-0.66,0.58-1.56,0.87-2.7,0.87H-5618.69z M-5618.69-5927.47h1.97c0.56,0,0.98-0.15,1.26-0.46    s0.43-0.69,0.43-1.16c0-0.48-0.14-0.88-0.43-1.19c-0.28-0.31-0.71-0.47-1.27-0.47h-1.97V-5927.47z"></path>
		<path class="st33" d="M-5607.37-5924.47h-3.49l-0.68,2.15h-2.02l3.42-9.95h2.04l3.41,9.95h-2.02L-5607.37-5924.47z     M-5610.38-5926.03h2.51l-1.23-3.91h-0.04L-5610.38-5926.03z"></path>
		<path class="st33" d="M-5596.11-5923.68c-0.3,0.39-0.76,0.74-1.38,1.04c-0.63,0.31-1.42,0.46-2.38,0.46    c-1.22,0-2.21-0.38-2.98-1.13c-0.77-0.76-1.16-1.74-1.16-2.95v-2.08c0-1.2,0.37-2.18,1.11-2.94c0.74-0.76,1.69-1.14,2.86-1.14    c1.21,0,2.14,0.29,2.79,0.88c0.64,0.59,0.97,1.37,0.99,2.33l-0.01,0.04h-1.88c-0.04-0.53-0.21-0.95-0.51-1.26    c-0.3-0.31-0.74-0.46-1.32-0.46c-0.61,0-1.1,0.24-1.48,0.71s-0.56,1.08-0.56,1.82v2.09c0,0.76,0.19,1.37,0.58,1.84    c0.39,0.47,0.91,0.71,1.57,0.71c0.46,0,0.84-0.05,1.12-0.14s0.5-0.21,0.64-0.35v-1.84h-1.76v-1.38h3.76V-5923.68z"></path>
		<path class="st33" d="M-5586.39-5926.4c0,1.22-0.39,2.23-1.16,3.03c-0.77,0.8-1.78,1.2-3.01,1.2c-1.23,0-2.22-0.4-2.99-1.2    c-0.77-0.8-1.15-1.81-1.15-3.03v-1.79c0-1.22,0.38-2.23,1.14-3.03c0.76-0.8,1.76-1.2,2.98-1.2c1.23,0,2.24,0.4,3.01,1.2    c0.77,0.8,1.16,1.81,1.16,3.03V-5926.4z M-5588.38-5928.2c0-0.78-0.19-1.41-0.58-1.91s-0.92-0.75-1.6-0.75s-1.21,0.25-1.58,0.74    c-0.37,0.5-0.56,1.13-0.56,1.91v1.81c0,0.79,0.19,1.43,0.57,1.93s0.9,0.75,1.58,0.75c0.68,0,1.22-0.25,1.6-0.75    s0.57-1.14,0.57-1.93V-5928.2z"></path>
		<path class="st33" d="M-5581.34-5922.32v-9.95h3.42c1.22,0,2.22,0.39,3.01,1.17s1.18,1.77,1.18,2.99v1.65    c0,1.22-0.39,2.22-1.18,2.99c-0.79,0.77-1.79,1.16-3.01,1.16H-5581.34z M-5579.35-5930.73v6.88h1.32c0.71,0,1.28-0.24,1.68-0.72    s0.61-1.11,0.61-1.89v-1.66c0-0.77-0.2-1.4-0.61-1.88s-0.97-0.72-1.68-0.72H-5579.35z"></path>
		<path class="st33" d="M-5566.05-5926.7h-4.12v2.84h4.82v1.54h-6.82v-9.95h6.8v1.54h-4.81v2.5h4.12V-5926.7z"></path>
	</g>
	<g class="st31">
		<path class="st33" d="M-5641.73-5904.47h-3.49l-0.68,2.15h-2.02l3.42-9.95h2.04l3.41,9.95h-2.02L-5641.73-5904.47z     M-5644.73-5906.03h2.51l-1.23-3.91h-0.04L-5644.73-5906.03z"></path>
		<path class="st33" d="M-5631.94-5906.46h-4.17v4.13h-2v-9.95h6.86v1.54h-4.87v2.74h4.17V-5906.46z"></path>
		<path class="st33" d="M-5627.91-5902.32h-2v-9.95h2V-5902.32z"></path>
		<path class="st33" d="M-5623.92-5903.86h4.43v1.54h-6.43v-9.95h2V-5903.86z"></path>
		<path class="st33" d="M-5616.23-5902.32h-2v-9.95h2V-5902.32z"></path>
		<path class="st33" d="M-5608.9-5904.47h-3.49l-0.68,2.15h-2.02l3.42-9.95h2.04l3.41,9.95h-2.02L-5608.9-5904.47z M-5611.9-5906.03    h2.51l-1.23-3.91h-0.04L-5611.9-5906.03z"></path>
		<path class="st33" d="M-5597.76-5905.71l0.01,0.04c0.02,1.07-0.31,1.92-0.98,2.55c-0.67,0.63-1.61,0.94-2.8,0.94    c-1.2,0-2.17-0.38-2.92-1.16c-0.75-0.77-1.12-1.76-1.12-2.97v-1.98c0-1.21,0.36-2.2,1.09-2.97c0.73-0.78,1.68-1.16,2.84-1.16    c1.23,0,2.19,0.31,2.88,0.95c0.69,0.63,1.03,1.49,1.01,2.58l-0.01,0.04h-1.94c0-0.66-0.16-1.16-0.47-1.51    c-0.31-0.35-0.8-0.52-1.47-0.52c-0.6,0-1.07,0.24-1.42,0.73c-0.35,0.48-0.53,1.1-0.53,1.85v1.99c0,0.76,0.18,1.38,0.55,1.87    s0.87,0.73,1.5,0.73c0.63,0,1.09-0.17,1.38-0.5c0.3-0.34,0.45-0.83,0.45-1.49H-5597.76z"></path>
		<path class="st33" d="M-5594.21-5902.32h-2v-9.95h2V-5902.32z"></path>
		<path class="st33" d="M-5584.21-5906.4c0,1.22-0.39,2.23-1.16,3.03c-0.77,0.8-1.78,1.2-3.01,1.2c-1.23,0-2.22-0.4-2.99-1.2    c-0.77-0.8-1.15-1.81-1.15-3.03v-1.79c0-1.22,0.38-2.23,1.14-3.03c0.76-0.8,1.76-1.2,2.98-1.2c1.23,0,2.24,0.4,3.01,1.2    c0.77,0.8,1.16,1.81,1.16,3.03V-5906.4z M-5586.21-5908.2c0-0.78-0.19-1.41-0.58-1.91s-0.92-0.75-1.6-0.75s-1.21,0.25-1.58,0.74    c-0.37,0.5-0.56,1.13-0.56,1.91v1.81c0,0.79,0.19,1.43,0.57,1.93s0.9,0.75,1.58,0.75c0.68,0,1.22-0.25,1.6-0.75    s0.57-1.14,0.57-1.93V-5908.2z M-5588.02-5914.95h2.11l0.01,0.04l-1.89,1.78h-1.59L-5588.02-5914.95z"></path>
		<path class="st33" d="M-5574.61-5902.32h-1.99l-4.02-6.8l-0.04,0.01v6.79h-2v-9.95h2l4.02,6.79l0.04-0.01v-6.79h1.99V-5902.32z"></path>
	</g>
	<g class="st31">
		<path class="st32" d="M-5783.73-5941.46h6.65c3.22,0,5.57-1.08,7.06-3.24s2.23-5.08,2.23-8.77c0-3.78-0.77-6.75-2.32-8.91    c-1.55-2.16-3.8-3.24-6.77-3.24c-2.71,0-4.94,1.09-6.68,3.26c-1.74,2.17-2.61,5.03-2.61,8.56h-9.24l-0.14-0.29    c-0.13-5.39,1.56-9.89,5.07-13.49c3.51-3.6,7.97-5.41,13.4-5.41c5.74,0,10.34,1.71,13.78,5.15c3.45,3.43,5.17,8.28,5.17,14.53    c0,3.1-0.81,6.06-2.44,8.88c-1.63,2.82-3.94,4.97-6.94,6.44c3.51,1.31,6.11,3.42,7.8,6.34c1.69,2.92,2.54,6.29,2.54,10.12    c0,6.31-1.86,11.26-5.57,14.85c-3.72,3.59-8.48,5.38-14.28,5.38c-5.42,0-10.01-1.71-13.76-5.14c-3.75-3.43-5.56-8.21-5.43-14.33    l0.14-0.29h9.28c0,3.67,0.91,6.65,2.73,8.95s4.21,3.45,7.18,3.45c3.13,0,5.57-1.11,7.35-3.32c1.77-2.21,2.66-5.36,2.66-9.43    c0-4.33-0.85-7.52-2.54-9.58c-1.69-2.05-4.24-3.08-7.66-3.08h-6.65V-5941.46z"></path>
		<path class="st32" d="M-5735.36-5908.68c3.54,0,6.4-1.64,8.59-4.92c2.18-3.28,3.28-8.02,3.28-14.2v-3.41    c-1.34,2.29-2.98,4.03-4.93,5.21c-1.95,1.18-4.07,1.77-6.36,1.77c-5.55,0-9.95-2.14-13.18-6.44c-3.24-4.29-4.86-10.1-4.86-17.44    c0-7.11,1.83-13.04,5.48-17.78c3.65-4.74,8.17-7.11,13.57-7.11c6.03,0,10.87,2.3,14.52,6.89c3.65,4.59,5.48,11.21,5.48,19.86    v18.18c0,8.49-2.01,15.07-6.03,19.74c-4.02,4.67-9.2,7.01-15.55,7.01c-1.98,0-4.05-0.25-6.22-0.74c-2.17-0.49-4.18-1.2-6.03-2.13    l1.29-7.08c1.69,0.93,3.4,1.59,5.14,1.98C-5739.44-5908.88-5737.5-5908.68-5735.36-5908.68z M-5733.78-5931.61    c2.49,0,4.6-0.71,6.34-2.13c1.74-1.42,3.05-3.25,3.95-5.48v-8.09c0-6-0.89-10.55-2.68-13.66c-1.79-3.11-4.28-4.66-7.46-4.66    c-2.71,0-4.97,1.67-6.77,5.02c-1.8,3.35-2.7,7.48-2.7,12.39s0.82,8.91,2.46,11.99    C-5739.01-5933.14-5736.72-5931.61-5733.78-5931.61z"></path>
	</g>
	<g class="st31">
		<path class="st32" d="M-5705-5949.32h-2.99v-2.97h2.99V-5949.32z"></path>
		<path class="st32" d="M-5697.4-5951.27c1.08,0,1.96-0.5,2.63-1.51s1-2.45,1-4.35v-1.04c-0.41,0.7-0.91,1.23-1.51,1.6    s-1.25,0.54-1.95,0.54c-1.7,0-3.04-0.66-4.04-1.97c-0.99-1.31-1.49-3.09-1.49-5.34c0-2.18,0.56-3.99,1.68-5.44    c1.12-1.45,2.5-2.17,4.15-2.17c1.85,0,3.33,0.7,4.45,2.11s1.68,3.43,1.68,6.08v5.57c0,2.6-0.62,4.61-1.85,6.04    c-1.23,1.43-2.82,2.15-4.76,2.15c-0.61,0-1.24-0.08-1.9-0.23c-0.66-0.15-1.28-0.37-1.85-0.65l0.4-2.17    c0.52,0.28,1.04,0.49,1.57,0.61C-5698.65-5951.33-5698.05-5951.27-5697.4-5951.27z M-5696.92-5958.29c0.76,0,1.41-0.22,1.94-0.65    c0.53-0.43,0.94-0.99,1.21-1.68v-2.48c0-1.84-0.27-3.23-0.82-4.18c-0.55-0.95-1.31-1.43-2.29-1.43c-0.83,0-1.52,0.51-2.07,1.54    s-0.83,2.29-0.83,3.79s0.25,2.73,0.75,3.67C-5698.52-5958.76-5697.82-5958.29-5696.92-5958.29z"></path>
		<path class="st32" d="M-5677.15-5957.57c0,2.76-0.53,4.88-1.59,6.35c-1.06,1.47-2.5,2.21-4.31,2.21c-1.83,0-3.27-0.74-4.34-2.21    c-1.07-1.47-1.6-3.59-1.6-6.34v-4.82c0-2.74,0.53-4.86,1.6-6.34s2.5-2.23,4.32-2.23s3.26,0.74,4.33,2.23    c1.07,1.48,1.6,3.6,1.6,6.34V-5957.57z M-5680.11-5962.83c0-1.94-0.26-3.4-0.77-4.39c-0.51-0.99-1.25-1.48-2.2-1.48    s-1.69,0.5-2.19,1.49c-0.5,0.99-0.75,2.45-0.75,4.38v5.66c0,1.94,0.26,3.4,0.77,4.4c0.51,1,1.25,1.5,2.2,1.5    c0.95,0,1.67-0.5,2.18-1.49c0.51-0.99,0.76-2.46,0.76-4.41V-5962.83z"></path>
	</g>
	<g class="st31">
		<path class="st32" d="M-5819.66-5943.21c0-1.47-0.42-2.69-1.25-3.63c-0.83-0.95-2.28-1.78-4.36-2.49    c-2.98-0.9-5.26-2.08-6.85-3.53c-1.59-1.45-2.38-3.37-2.38-5.76c0-2.46,0.88-4.48,2.65-6.06c1.77-1.58,4.04-2.37,6.82-2.37    c2.89,0,5.22,0.91,6.99,2.74c1.77,1.83,2.62,4.03,2.57,6.61l-0.04,0.13h-4.19c0-1.82-0.47-3.31-1.41-4.45    c-0.94-1.14-2.26-1.71-3.96-1.71c-1.62,0-2.87,0.48-3.75,1.43s-1.32,2.17-1.32,3.64c0,1.33,0.47,2.45,1.42,3.36    s2.51,1.74,4.68,2.48c2.85,0.89,5.02,2.1,6.51,3.63c1.49,1.54,2.23,3.52,2.23,5.96c0,2.57-0.88,4.6-2.64,6.11    s-4.08,2.26-6.94,2.26c-2.79,0-5.23-0.83-7.32-2.48s-3.09-3.99-3.02-6.99l0.04-0.13h4.19c0,2.14,0.56,3.73,1.69,4.75    c1.12,1.03,2.6,1.54,4.42,1.54c1.63,0,2.91-0.45,3.83-1.36S-5819.66-5941.67-5819.66-5943.21z"></path>
		<path class="st32" d="M-5810.26-5932.63h-3.42l10.36-33.97h3.42L-5810.26-5932.63z"></path>
	</g>
	<line id="Line_35" class="st34" x1="-5663.5" y1="-5980.5" x2="-5663.5" y2="-5889.5"></line>
</g>
</svg>