<svg xmlns="http://www.w3.org/2000/svg" xmlns:xlink="http://www.w3.org/1999/xlink" id="Capa_1" x="0px" y="0px" viewBox="0 0 400 362.42" style="enable-background:new 0 0 400 362.42;" xml:space="preserve">
<style type="text/css">
	.st0{fill:#FFFFFF;}
	.st1{clip-path:url(#SVGID_2_);}
	.st2{fill:#FFDD81;}
	.st3{clip-path:url(#SVGID_4_);}
	.st4{fill:#8BB367;}
	.st5{fill:#80A4D6;}
	.st6{fill:#C79972;}
	.st7{fill:#DBA97D;}
	.st8{opacity:0.5;}
	.st9{opacity:0.5;fill:#DE9A77;enable-background:new    ;}
	.st10{fill:#332517;}
	.st11{fill:#9B332C;}
	.st12{fill:#C06568;}
	.st13{fill:#3A2432;}
	.st14{fill:#503523;}
	.st15{fill:#F2D142;}
	.st16{fill:#D4D4D4;}
	.st17{fill:#779958;}
	.st18{fill:#EDC721;}
	.st19{fill:#ECC19E;}
	.st20{fill:#ECCEB6;}
	.st21{fill:#DBAE98;}
	.st22{opacity:0.5;fill:#ECB59F;enable-background:new    ;}
	.st23{fill:#467A8B;}
	.st24{fill:#D63D2C;}
	.st25{fill:#6E91B8;}
	.st26{fill:#B3B3B3;}
	.st27{fill:#E6DCC0;}
	.st28{fill:#C0735B;}
	.st29{fill:#DA7840;}
	.st30{fill:#888743;}
	.st31{fill:#354A9E;}
	.st32{fill:#C0674B;}
	.st33{fill:#822523;}
	.st34{fill:#E58494;}
	.st35{fill:#A24E39;}
	.st36{opacity:0.5;fill:#A24E39;enable-background:new    ;}
	.st37{fill:#4F3522;}
	.st38{fill:#343439;}
	.st39{fill:#43434A;}
	.st40{fill:#DBAC81;}
	.st41{fill:#E7BA91;}
	.st42{fill:#D9A16F;}
	.st43{opacity:0.5;fill:#E2846F;enable-background:new    ;}
	.st44{fill:#BA3F3F;}
	.st45{fill:#CD8170;}
	.st46{enable-background:new    ;}
	.st47{fill:#F9B600;}
	.st48{fill:#4D4D4D;}
	.st49{opacity:0.33;fill:none;stroke:#707070;enable-background:new    ;}
</style>
<g id="Group_1290" transform="translate(5468 6210)">
	<g id="Group_1285" transform="translate(121 -1843)">
		<rect id="Rectangle_216" x="-5589" y="-4367" class="st0" width="400" height="362.42"></rect>
		<g id="Group_1173" transform="translate(-371 332.742)">
			<g id="Group_1171" transform="translate(-5218 -4699.742)">
				<g>
					<defs>
						<path id="SVGID_1_" d="M0,0v113.83c0,38.77,89.55,70.19,200,70.19s200-31.42,200-70.19V0H0z"></path>
					</defs>
					<clipPath id="SVGID_2_">
						<use xlink:href="#SVGID_1_" style="overflow:visible;"></use>
					</clipPath>
					<g id="Group_893" class="st1">
						<path id="Path_2427" class="st2" d="M0,0v113.83c0,38.77,89.55,70.19,200,70.19s200-31.42,200-70.19V0H0z"></path>
					</g>
				</g>
				<g>
					<defs>
						<path id="SVGID_3_" d="M0,0v113.83c0,38.77,89.55,70.19,200,70.19s200-31.42,200-70.19V0H0z"></path>
					</defs>
					<clipPath id="SVGID_4_">
						<use xlink:href="#SVGID_3_" style="overflow:visible;"></use>
					</clipPath>
					<g id="Group_1004" class="st3">
						<g id="Group_894" transform="translate(315.518 149.701)">
							<path id="Path_2429" class="st4" d="M18.74,0.66c-4.73-0.48-9.6-1.11-13.79-0.18c-4.88,1.08-4.33,4.13-4.42,8.2         C0.41,13.69-0.1,18.69,0.02,23.7c0.11,4.51,1.49,9.32,2.24,13.83c0.8,4.84,9.88,4.51,10.15-0.51         c0.19-3.59-0.47-7.33-0.68-10.91c-0.13-1.86-0.08-3.72,0.13-5.57c0.07-0.59,0.78-5.54,1.36-5.56c0.47-0.02,0.94-0.03,1.42,0         c0.41,5.51,1.82,10.96,1.94,16.48c0.09,4.11-0.98,9.93,5.59,9.1c2.91-0.37,4.17-0.91,4.31-3.74         c0.41-8.4,2.79-17.08,1.21-25.48c-0.65-3.45-1.46-6.81-1.8-10.31C23.5,1.07,21.11,0.94,18.74,0.66z"></path>
						</g>
						<path id="Path_2430" class="st5" d="M333.12,119.42h-8.18l-0.54,0.89c0,0,0.27,0.63,0.28,0.66s8.8-0.3,8.8-0.3v-0.6        L333.12,119.42z"></path>
						<g id="Group_895" transform="translate(283.194 88.428)">
							<path id="Path_2431" class="st6" d="M1.11,2.51c3.26-4.48,8.65-2.3,11.29,1.36c1.98,2.74,2.85,8.68-1.36,10.12         c-2.63,0.9-6.54-0.66-8.39-2.44C0.2,9.18-1.04,5.48,1.11,2.51z"></path>
						</g>
						<g id="Group_896" transform="translate(361.697 89.788)">
							<path id="Path_2432" class="st6" d="M13.19,2.66C10.11-1.92,4.63,0.08,1.85,3.65c-2.09,2.68-3.18,8.57,0.97,10.16         c2.6,0.99,6.56-0.45,8.48-2.15C13.85,9.36,15.23,5.7,13.19,2.66z"></path>
						</g>
						<path id="Path_2433" class="st7" d="M366.44,59.46c-4.26-8.04-15.94-9.38-24.52-10.26c-13.91-1.44-26.93-2.51-39.94,3.83        c-15.61,7.6-8.35,30.27-8.6,43.24c-0.23,12,9.8,15.97,18.17,17.71s13.87,3.01,13.39,5.81s-2.87,10.58,3.79,10.69h0.2        c0.07,0,0.13,0.01,0.2,0.01c6.67,0.11,4.86-7.85,3.94-10.7c-0.87-2.71,5.3-3.76,13.71-5.22c7.76-1.34,16.73-5.33,18.66-13.23        c1.05-3.13,1.2-10.85,1.2-10.85c0.57-9.02,3.97-21.55,0.24-30.12C366.74,60.05,366.6,59.76,366.44,59.46z"></path>
						<g id="Group_897" transform="translate(326.457 96.18)" class="st8">
							<path id="Path_2434" class="st7" d="M4.82,2.22c-0.53,0.27-1.11,0.43-1.7,0.46C2.48,2.65,1.86,2.49,1.29,2.21         c-0.74-0.3-1.71-0.73-1.1-1.64c0.37-0.54,1.09-0.4,1.65-0.26c0.65,0.22,1.34,0.3,2.03,0.24C4.49,0.32,5.13,0.14,5.77,0         c0.84-0.04,0.94,1.01,0.5,1.48C5.85,1.81,5.37,2.05,4.86,2.2C4.85,2.22,4.83,2.22,4.82,2.22z"></path>
						</g>
						<path id="Path_2435" class="st9" d="M314.15,98.63c0.68-2.75-2.34-5.75-6.76-6.71s-8.57,0.49-9.25,3.25s2.34,5.75,6.76,6.71        S313.46,101.39,314.15,98.63z"></path>
						<path id="Path_2436" class="st9" d="M314.99,98.82c0.51-2.03-2.67-4.47-7.08-5.42s-8.42-0.07-8.93,1.96s2.67,4.47,7.08,5.42        S314.48,100.85,314.99,98.82z"></path>
						<path id="Path_2437" class="st9" d="M313.71,98.54c0.74-2.97-2.53-6.2-7.3-7.24s-9.24,0.54-9.98,3.51s2.53,6.2,7.3,7.24        S312.97,101.51,313.71,98.54z"></path>
						<path id="Path_2438" class="st9" d="M316.01,99.03c0.68-2.75-3.14-5.92-8.55-7.09s-10.34,0.11-11.03,2.86s3.14,5.92,8.55,7.09        S315.32,101.79,316.01,99.03z"></path>
						<path id="Path_2439" class="st9" d="M346.61,99.17c-0.58-2.77,2.56-5.67,7.02-6.47s8.54,0.78,9.12,3.55s-2.56,5.67-7.02,6.47        S347.19,101.95,346.61,99.17z"></path>
						<path id="Path_2440" class="st9" d="M345.77,99.34c-0.43-2.05,2.84-4.38,7.29-5.18s8.42,0.21,8.85,2.26s-2.84,4.38-7.29,5.18        S346.2,101.39,345.77,99.34z"></path>
						<path id="Path_2441" class="st9" d="M347.06,99.1c-0.62-2.99,2.77-6.12,7.57-6.99s9.22,0.85,9.84,3.83s-2.77,6.12-7.57,6.99        S347.68,102.08,347.06,99.1z"></path>
						<path id="Path_2442" class="st9" d="M344.74,99.52c-0.58-2.77,3.37-5.81,8.82-6.8s10.33,0.46,10.91,3.23s-3.37,5.81-8.82,6.8        S345.33,102.29,344.74,99.52z"></path>
						<g id="Group_898" transform="translate(307.062 88.535)">
							<path id="Path_2443" class="st10" d="M2.36,5.87c3.21,0.26,3.65-5.15,0.68-5.79C-0.96-0.79-0.82,5.61,2.36,5.87z"></path>
						</g>
						<g id="Group_899" transform="translate(347.254 89.221)">
							<path id="Path_2444" class="st10" d="M2.43,5.87c3.22,0.2,3.52-5.22,0.53-5.8C-1.05-0.72-0.75,5.68,2.43,5.87z"></path>
						</g>
						<g id="Group_900" transform="translate(322.522 102.351)">
							<path id="Path_2445" class="st11" d="M7.21,4.54C5.21,4.5,2.07,4,0.7,2.47c-1.22-1.36-0.84-2.31,1.17-2.45         c2.89-0.2,5.21,1.67,8.3,1.19c1.12-0.17,3.42-0.85,3.04,0.97C12.82,4.02,8.77,4.55,7.21,4.54z"></path>
						</g>
						<g id="Group_901" transform="translate(323.3 102.878)">
							<path id="Path_2446" class="st12" d="M8.93,0.73C9.05,0.78,9.18,0.84,9.3,0.91c0.63,0.67,1.16,1.43,1.58,2.25         C9.46,3.71,7.95,4,6.43,4C4.47,3.96,1.41,3.47,0,2c1.29-1.1,2.88-1.8,4.56-2C5.96,0.52,7.44,0.77,8.93,0.73z"></path>
						</g>
						<g id="Group_902" transform="translate(323.511 102.351)">
							<path id="Path_2447" class="st0" d="M11.08,2.26C9.89,2.57,1.29,2.33,0.34,1.38c-0.31-0.33-0.42-0.79-0.3-1.22         C0.32,0.08,0.6,0.03,0.88,0.02c2.89-0.2,5.21,1.67,8.3,1.19c0.83-0.23,1.69-0.29,2.54-0.19C11.77,1.55,11.67,2.11,11.08,2.26         z"></path>
						</g>
						<g id="Group_903" transform="translate(304.233 73.73)">
							<path id="Path_2448" class="st13" d="M7.7,2.4C7.69-2.44,1.04,1.1,0,3.68C0.51,3.45,7.7,1.43,7.7,2.4z"></path>
						</g>
						<g id="Group_904" transform="translate(346.077 74.216)">
							<path id="Path_2449" class="st13" d="M0.26,3.1c-1.76-4.56,5.8-3.31,7.72-1.21C7.41,1.83-0.09,2.19,0.26,3.1z"></path>
						</g>
						<g id="Group_905" transform="translate(291.038 43.529)">
							<path id="Path_2450" class="st14" d="M4.51,28.03c0.33-0.74,0.71-1.49,1.13-2.27c6.56-12.29,23.85-13.48,37.17-13.63         c7.56-0.08,13.59,0.56,20.47,3.05c-7.71,4.99,3.34,11.31,8.55,11.19c-0.41,5.64,0.08,10.77,2.81,15.99         c-1.95,1.68-4.21,8.32-0.26,5.32c0-0.18-0.01-0.18-0.01-0.01c-0.13,0.85-0.2,1.7-0.21,2.56c7.46-2.03,5.6-24,4.57-28.95         C73.91-2.09,41.18-2.04,21.66,2.09C11.57,4.23,3.33,9.81,0.89,19.58c-1.09,4.38-0.92,9.03-0.79,13.48         C0.17,35.48-1,49.94,3.67,50.42c3.03,0.32,1.61-4.14,0.1-5.04c4.52-1.6,0.38-5.39-0.29-8.07C2.67,34.2,3.04,30.9,4.51,28.03z         "></path>
						</g>
						<g id="Group_906" transform="translate(314.914 120.295)">
							<path id="Path_2451" class="st15" d="M18.95,0.86c-0.08-0.3-0.22-0.58-0.4-0.83c-0.04-0.04-0.04-0.04,0,0.01         c2.63,1.65,3.5,5.07,4.4,7.71c4.27,12.55,4.04,26.66,5.24,29.58c0.17,0.43,0.83,1.19,0.92,1.57         c0.59,2.57-2.31,1.96-4.45,2.11c-5.98,0.39-12.46,1.98-18.45,1.2c-1.48-0.2-5.33-0.66-6.07-2.04         c-0.39-0.73,0.15-0.91,0.21-1.6c0.09-1.18,0.4-2.37,0.54-3.55c0.67-5.9,0.45-11.88,1.29-17.78         C3.06,11.07,4.75,5.01,9.03,0.11c0.33,5.1,1.57,5.94,6.48,5.83c1.26-0.03,2.92-0.01,3.55-1.18         C19.41,3.48,19.37,2.12,18.95,0.86z"></path>
						</g>
						<g id="Group_907" transform="translate(314.638 189.806)">
							<path id="Path_2452" class="st5" d="M12.93,0c-0.19,1.21-1.74,1.72-2.85,1.98C8.21,2.43,4.37,2.42,4.09,0         c-0.64,0.72-1.2,1.52-1.65,2.38C1.9,3.24,1.37,4.1,0.92,4.99C0.3,5.89-0.01,6.97,0.02,8.06C0.1,8.59-0.02,9.31,0.32,9.78         c0.42,0.38,0.94,0.64,1.49,0.76c2.25,0.58,4.6,0.7,6.9,0.37c0.81,0.03,1.61-0.15,2.33-0.51c0.52-0.35,0.94-0.83,1.21-1.4         c0.86-1.89,2.14-4.73,1.49-6.81C13.57,1.62,13.58,0.31,12.93,0z"></path>
						</g>
						<path id="Path_2453" class="st0" d="M325.66,200.11c-0.73,1.5-2.69,1.18-4.11,1.15c-1.89-0.05-3.89,0.28-5.67-0.53        c-2.01-0.92-0.37-3.1,0.97-3.74c1.86-0.77,3.94-0.85,5.86-0.21C323.99,197.2,326.41,198.57,325.66,200.11z"></path>
						<path id="Path_2454" class="st16" d="M314.7,199.13c0,0,0.65,1.28,4.88,1.34s5.83-0.27,6.54-0.99        c0.98-0.99,2.25-5.45,2.42-6.94c0.08,0.74,0.08,1.49,0,2.23c-0.15,0.74-1.02,5.98-2.52,6.56c-2.05,0.65-4.2,0.9-6.34,0.74        c-2.31-0.15-4.52-0.89-4.83-1.53C314.58,200.12,314.53,199.59,314.7,199.13z"></path>
						<path id="Path_2455" class="st16" d="M317.82,192.11c2.42-1.46,6.2,0.07,7.79,1.05c0.25,0.16-0.33,1.15-0.63,1.04        c-1.09-0.38-2.23-0.59-3.39-0.63c1.21,0.01,2.4,0.35,3.43,0.99c0.15,0.1-0.21,0.7-0.38,0.63c-1.05-0.42-2.16-0.62-3.29-0.62        c-1.3-0.03-2.66,0.28-3.94,0.25c-0.55-0.01,0.18-1.05,0.35-1.21c0.38-0.34,0.82-0.6,1.3-0.77c-0.53,0.05-1.04,0.23-1.5,0.5        C317.01,193.7,317.37,192.38,317.82,192.11z"></path>
						<g id="Group_908" transform="translate(331.471 189.535)">
							<path id="Path_2456" class="st5" d="M0.99,0c0.19,1.21,1.74,1.72,2.85,1.98c1.88,0.45,5.72,0.44,6-1.98         c0.64,0.72,1.2,1.52,1.65,2.38c0.53,0.86,1.06,1.72,1.52,2.61c0.61,0.9,0.93,1.98,0.89,3.07c-0.07,0.53,0.05,1.25-0.29,1.72         c-0.42,0.38-0.94,0.64-1.49,0.76c-2.25,0.58-4.6,0.7-6.9,0.37c-0.81,0.03-1.61-0.15-2.33-0.51C2.36,10.05,1.94,9.57,1.67,9         C0.81,7.11-0.46,4.27,0.18,2.19C0.35,1.62,0.35,0.31,0.99,0z"></path>
						</g>
						<path id="Path_2457" class="st0" d="M334.37,199.84c0.73,1.5,2.69,1.18,4.11,1.15c1.89-0.06,3.89,0.28,5.67-0.53        c2.01-0.92,0.37-3.1-0.97-3.74c-1.86-0.77-3.94-0.85-5.86-0.21C336.04,196.93,333.62,198.29,334.37,199.84z"></path>
						<path id="Path_2458" class="st16" d="M345.33,198.85c0,0-0.65,1.28-4.88,1.34s-5.83-0.27-6.54-0.99        c-0.98-0.99-2.25-5.45-2.42-6.94c-0.08,0.74-0.08,1.49,0,2.23c0.15,0.74,1.02,5.98,2.52,6.56c2.05,0.65,4.2,0.9,6.34,0.74        c2.31-0.15,4.52-0.89,4.83-1.53C345.46,199.84,345.51,199.32,345.33,198.85z"></path>
						<path id="Path_2459" class="st16" d="M341.9,191.86c-0.4-0.32-0.89-0.52-1.39-0.59c-1.5-0.11-3.01,0.14-4.39,0.73        c-0.7,0.26-1.39,0.57-2.06,0.92c-0.29,0.16-0.07,1.18,0.26,1.07c1.12-0.38,2.29-0.59,3.47-0.63        c-1.27,0.04-2.51,0.38-3.62,1.01c-0.18,0.1-0.03,0.72,0.16,0.64c1.2-0.42,2.46-0.68,3.73-0.76c1.45-0.21,2.91-0.27,4.37-0.18        c0.73,0.07,0.48-0.48-0.06-0.59c-0.3-0.01-0.58-0.14-0.79-0.35c0.07,0.07,0.65-0.23,0.71-0.32c0.15-0.2,0.06-0.39-0.07-0.58        C342.14,192.08,342.03,191.96,341.9,191.86z"></path>
						<path id="Path_2460" class="st7" d="M324.93,119.78c0,0,1.05,7.74,4.1,7.74c0.67-0.21,1.28-0.6,1.74-1.13        c1.8-2.01,2.3-6.62,2.3-6.62S330.12,117.95,324.93,119.78z"></path>
						<g id="Group_909" transform="translate(317.151 186.74)">
							<path id="Path_2461" class="st17" d="M2.46,1.12c1.52,0.44,3.1,0.58,4.67,0.41C7.8,1.45,8.46,1.29,9.09,1.03         c0.52-0.23,0.87-0.76,1.37-0.95c0.6-0.24,0.8,0.09,0.83,0.61c0.02,0.29-0.16,0.53-0.15,0.8c0.01,0.35,0.26,0.63,0.26,0.98         c0,0.52-1.13,1.74-1.57,2.03C8.4,5.41,6.69,5.77,5.01,5.52C3.29,5.28,0.85,5.06,0.53,3.15c-0.1-0.58-1.02-2.28-0.18-2.66         c0.41-0.19,0.62,0.1,0.96,0.24C1.69,0.87,2.07,1.01,2.46,1.12z"></path>
						</g>
						<g id="Group_910" transform="translate(331.525 186.74)">
							<path id="Path_2462" class="st17" d="M8.95,1.12c-1.52,0.44-3.1,0.58-4.67,0.41C3.6,1.45,2.94,1.29,2.32,1.03         C1.79,0.8,1.44,0.28,0.94,0.08c-0.6-0.24-0.8,0.09-0.83,0.61c-0.02,0.29,0.16,0.53,0.15,0.8C0.25,1.83,0,2.12,0,2.47         C0,2.99,1.13,4.2,1.57,4.5C3,5.41,4.72,5.77,6.4,5.52c1.71-0.23,4.15-0.46,4.47-2.37c0.1-0.58,1.02-2.28,0.18-2.66         c-0.41-0.19-0.62,0.1-0.96,0.24C9.72,0.87,9.34,1.01,8.95,1.12z"></path>
						</g>
						<g id="Group_911" transform="translate(360.138 45.416)">
							<path id="Path_2463" class="st14" d="M8.52,17.73C3.62,16.1,1,12.14,0.23,7.58c-0.28-1.7-0.99-9.15,3.04-7.28         c2.5,1.17,1.74,6.03,3,7.89c2.75-2.56,5.5,0.93,3.5,3.26C15.51,13.31,15.51,20.05,8.52,17.73z"></path>
						</g>
						<g id="Group_912" transform="translate(280.672 15.966)">
							<path id="Path_2464" class="st14" d="M69.73,16.86c-1.63-2.89-4.37-4.99-7.58-5.82c-6.35-1.73-12.55,0.92-12.12,7.49         c-1.14-3.89-2.42-7.88-4.8-11.28C33.07-10.02,3.18,6.86,19.21,23.45c-4.4-2.47-8.73-5.96-14.21-3.74         c-5.07,2.04-5.77,7.53-4.35,12.02c1.06,3.42,3.04,5.4,5.28,8.13c5.74,7.01,5.02,12.19,3.65,20.42         c-0.56,3.4-1.6,9.01,1.98,11.31c3.11-5.88,0.28-12.4,3.47-18.44c5.72-10.85,16.93-14.63,29.15-15.21         c12.76-0.61,28.23-0.55,37.76,8.8c1.87,1.83,2.71,4.2,5.51,5.05c0.91,0.28-3.57-8.47-3.88-9.02c-2.5-4.5-5.78-8.6-8.23-13.1         C73.07,25.55,72.16,20.88,69.73,16.86z"></path>
						</g>
						<path id="Path_2465" class="st5" d="M324.77,120.13c0,0,0.46,5.33,4.35,7.45l-3.86-0.48l-2.13-2.27l1.11-0.99l-1.67-0.55        l1-2.99l1.36-0.89C324.98,119.66,324.92,119.92,324.77,120.13z"></path>
						<path id="Path_2466" class="st5" d="M333.28,120.13c0,0-0.46,5.33-4.35,7.45l4.67-1.3l1.18-2.52l-0.57-0.34l0.88-0.45        l-0.53-2.24l-1.44-1.32C333.07,119.66,333.13,119.92,333.28,120.13z"></path>
						<path id="Path_2467" class="st5" d="M328.05,126.85l0.87,0.73l1.43-1.05l-0.1,0.69l-1.32,1.12l-1.05-0.9L328.05,126.85z"></path>
						<g id="Group_913" transform="translate(335.911 144.839)">
							<path id="Path_2468" class="st7" d="M0.45,6.14C0.55,6,0.68,5.88,0.82,5.78C2.01,5.13,3.1,4.33,4.08,3.39         c0.59-0.72,1.06-1.53,1.4-2.4c0.32-0.75,0.6-1.47,1.45-0.59c0.41,0.43,0.25,0.99,0.53,1.46c0.34,0.59,1.21,0.79,1.74,1.19         c1.58,1.19,0.95,3.44-0.24,4.58c-1.1,1.05-3.01,3.1-4.78,2.01c-0.44,0.43-1.77,0.9-2.06,0.05C1.05,9.82,0.11,8.7,0.99,7.86         C-0.35,7.97-0.11,6.84,0.45,6.14z"></path>
						</g>
						<path id="Path_2469" class="st5" d="M354.18,138.01c0.26-0.78,0.16-1.64-0.26-2.34c-1.29-2.09-3.81-3.96-5.77-5.53        c-2.44-1.97-4.83-3.98-7.42-5.79c-1.8-1.25-3.37-2.62-5.76-2.69c-0.47,2.84,1.86,5.75,4.01,8.06        c1.06,1.14,2.14,2.29,3.19,3.43c0.56,0.63,4.29,3.75,4,4.24c-1.22,2.03-8.09,9.24-8.55,10.76s-0.28,0.88,1.08,1.26        c2,0.56,6.07,1.97,7.09,3.26c0.54-1.59,5.35-8.25,6.24-10.23C352.88,141.03,353.6,139.54,354.18,138.01z"></path>
						<g id="Group_914" transform="translate(312.237 144.698)">
							<path id="Path_2470" class="st7" d="M9.54,6.7C9.45,6.55,9.34,6.42,9.22,6.3c-1.1-0.77-2.1-1.68-2.96-2.71         c-0.5-0.78-0.87-1.63-1.11-2.53C4.91,0.3,4.72-0.46,3.77,0.34C3.31,0.73,3.4,1.3,3.07,1.74C2.66,2.28,1.77,2.4,1.2,2.75         c-1.71,1.02-1.36,3.32-0.31,4.58c0.97,1.17,2.63,3.4,4.51,2.5c0.38,0.48,1.65,1.08,2.04,0.26C8.5,10.32,9.56,9.3,8.8,8.38         C10.12,8.61,10.01,7.45,9.54,6.7z"></path>
						</g>
						<path id="Path_2471" class="st5" d="M304.52,138.81c-0.25-1.09,0.01-2.23,0.71-3.1c1.54-1.73,3.23-3.37,4.8-5.05        c1.7-1.81,9.45-8.82,12.89-9.04c0.58,2.82-1.63,5.8-3.69,8.19c-1.02,1.18-2.05,2.35-3.05,3.54c-0.54,0.64-4.13,3.9-3.83,4.37        c1.3,1.99,7.31,9.16,7.83,10.68s0.32,0.87-1.03,1.3c-1.98,0.63-4.85,1.97-5.81,3.29c0.24-0.34-4.93-6.59-5.41-7.22        C306.83,144.27,304.9,141.34,304.52,138.81z"></path>
						<ellipse id="Ellipse_91" class="st0" cx="310.41" cy="90.92" rx="0.91" ry="0.85"></ellipse>
						<ellipse id="Ellipse_92" class="st0" cx="350.68" cy="90.99" rx="0.91" ry="0.85"></ellipse>
						<g id="Group_915" transform="translate(25.218 41.249)">
							<path id="Path_2472" class="st18" d="M76.39,79.98c0.87-1.24,1.54-2.61,1.99-4.06c2.69,1.67,2.06,5.2,2.18,7.84         c5.27-2.16,8.77-7.22,8.94-12.91c-0.01-5.78-4.27-10.83-3.11-16.78c0.66-3.39,2.95-6.05,3.96-9.29         c3.28-10.49-4.48-28.43-12.68-35.29C63.27-2.56,46.6-1.38,28.42,3.42C13.95,7.26-6.17,22.64,1.81,39.32         c4.34,9.08,3.96,12.07-0.4,21C-1.61,66.5,0.48,74.6,5.43,79.43c1.11-2.04,3.63-3.61,5.81-4.64         c-0.27,4.61,2.47,8.87,6.78,10.53c0.93-2.79,2.82-5.16,5.33-6.7c0.77,4.46,5.43,8.01,9.67,9.63         c0.69-2.55,3.48-5.21,5.63-6.76c4.38,3.37,4.61,8.36,9.86,3.68c1.63-1.46,2.11-3.44,4.29-2.66c1.57,0.57,2.81,4.35,2.82,5.74         c2.16-0.98,4.08-2.42,5.63-4.23c0.86-0.91,3.14-5.5,4.42-5.55c2.96-0.11,3.07,5.85,2.77,7.52         C71.43,85.56,74.42,82.87,76.39,79.98z"></path>
						</g>
						<g id="Group_916" transform="translate(24.137 87.486)">
							<path id="Path_2473" class="st19" d="M1.11,2.51c3.26-4.48,8.65-2.3,11.29,1.36c1.98,2.74,2.85,8.68-1.36,10.12         c-2.63,0.9-6.54-0.66-8.39-2.44C0.2,9.17-1.05,5.47,1.11,2.51z"></path>
						</g>
						<g id="Group_917" transform="translate(102.64 88.846)">
							<path id="Path_2474" class="st19" d="M13.19,2.66C10.11-1.92,4.63,0.08,1.85,3.65c-2.09,2.68-3.18,8.57,0.97,10.16         c2.6,0.99,6.56-0.45,8.47-2.15C13.85,9.35,15.23,5.69,13.19,2.66z"></path>
						</g>
						<path id="Path_2475" class="st20" d="M107.38,58.51c-4.26-8.04-15.94-9.38-24.52-10.26c-13.91-1.44-26.93-2.51-39.94,3.83        c-15.61,7.6-8.35,30.27-8.6,43.24c-0.23,12,9.8,15.97,18.16,17.71s13.87,3.01,13.39,5.81s-2.87,10.58,3.79,10.69h0.2        c0.07,0,0.13,0.01,0.2,0.01c6.67,0.11,4.86-7.85,3.94-10.7c-0.87-2.71,5.3-3.76,13.71-5.22c7.76-1.34,16.73-5.33,18.66-13.23        c1.05-3.13,1.2-10.85,1.2-10.85c0.57-9.02,3.97-21.55,0.24-30.12C107.69,59.12,107.54,58.81,107.38,58.51z"></path>
						<g id="Group_918" transform="translate(67.861 94.389)">
							<path id="Path_2476" class="st21" d="M4.82,2.22c-0.53,0.27-1.11,0.43-1.7,0.46C2.48,2.65,1.86,2.49,1.29,2.21         c-0.74-0.3-1.71-0.73-1.1-1.64c0.37-0.54,1.09-0.4,1.65-0.26c0.65,0.22,1.34,0.3,2.03,0.24C4.49,0.32,5.13,0.14,5.77,0         c0.84-0.04,0.94,1.01,0.5,1.48C5.85,1.81,5.37,2.05,4.86,2.2C4.84,2.2,4.84,2.21,4.82,2.22z"></path>
						</g>
						<path id="Path_2477" class="st22" d="M55.1,97.69c0.68-2.75-2.34-5.75-6.76-6.71s-8.57,0.49-9.25,3.25s2.34,5.75,6.76,6.71        S54.42,100.43,55.1,97.69z"></path>
						<path id="Path_3020" class="st22" d="M39.92,94.41c0.51-2.04,4.51-2.92,8.93-1.96s7.6,3.38,7.09,5.42s-4.51,2.91-8.93,1.96        C42.59,98.88,39.41,96.45,39.92,94.41z"></path>
						<path id="Path_2478" class="st22" d="M54.65,97.59c0.74-2.97-2.53-6.2-7.3-7.24s-9.24,0.54-9.98,3.51s2.53,6.2,7.3,7.24        S53.91,100.56,54.65,97.59z"></path>
						<path id="Path_2479" class="st22" d="M56.95,98.08c0.68-2.75-3.14-5.92-8.55-7.09s-10.34,0.11-11.03,2.86s3.14,5.92,8.55,7.09        S56.26,100.84,56.95,98.08z"></path>
						<path id="Path_2480" class="st22" d="M87.56,98.23c-0.58-2.77,2.56-5.67,7.02-6.47s8.54,0.78,9.12,3.55s-2.56,5.67-7.02,6.47        S88.13,101,87.56,98.23z"></path>
						<path id="Path_2481" class="st22" d="M86.71,98.38c-0.43-2.05,2.84-4.38,7.29-5.18s8.42,0.21,8.85,2.26s-2.84,4.38-7.29,5.18        S87.14,100.43,86.71,98.38z"></path>
						<path id="Path_3021" class="st22" d="M95.58,91.17c4.81-0.87,9.21,0.85,9.84,3.83c0.63,2.99-2.76,6.12-7.57,6.99        c-4.81,0.87-9.21-0.85-9.84-3.83C87.38,95.17,90.77,92.04,95.58,91.17z"></path>
						<path id="Path_2482" class="st22" d="M85.69,98.57c-0.58-2.77,3.37-5.81,8.82-6.8s10.33,0.46,10.91,3.23s-3.37,5.81-8.82,6.8        S86.27,101.34,85.69,98.57z"></path>
						<g id="Group_919" transform="translate(47.17 87.625)">
							<path id="Path_2483" class="st23" d="M3.05,5.8C6.25,5.48,5.55,0.09,2.5,0C-1.59-0.13-0.12,6.13,3.05,5.8z"></path>
						</g>
						<g id="Group_920" transform="translate(88.123 88.306)">
							<path id="Path_2484" class="st23" d="M3.05,5.8C6.25,5.48,5.55,0.1,2.5,0C-1.59-0.13-0.12,6.13,3.05,5.8z"></path>
						</g>
						<g id="Group_922" transform="translate(61.074 99.306)">
							<g id="Group_921">
								<path id="Path_2485" class="st20" d="M0.06,0.32C2.62,2.2,5.38,4.5,8.8,4.72c3.61,0.08,7.12-1.18,9.85-3.54          c0.22-0.2,0.05-1.04-0.26-0.76c-2.8,2.74-6.75,3.95-10.6,3.24C4.86,3.07,2.7,1.26,0.1,0.01C-0.03-0.06-0.02,0.26,0.06,0.32          L0.06,0.32z"></path>
							</g>
						</g>
						<g id="Group_924" transform="translate(46.784 71.931)">
							<g id="Group_923">
								<path id="Path_2486" class="st13" d="M7.59,1.84c-1.1-1.58-3.11-2.23-4.92-1.6c-1.72,0.51-2.82,2.2-2.6,3.98          C0.12,4.5,0.43,5.19,0.82,4.76C1.24,4.3,1.25,3.67,1.7,3.2c0.48-0.47,1.08-0.79,1.74-0.91c1.31-0.25,2.67-0.05,3.85,0.58          C7.75,3.1,7.73,2.04,7.59,1.84L7.59,1.84z"></path>
							</g>
						</g>
						<g id="Group_926" transform="translate(87.212 72.603)">
							<g id="Group_925">
								<path id="Path_2487" class="st13" d="M0.41,2.74c1.25-0.61,2.68-0.75,4.02-0.4C5.04,2.5,5.59,2.83,6.01,3.3          c0.4,0.49,0.42,1.08,0.8,1.59c0.27,0.36,0.61-0.12,0.68-0.35C7.99,2.87,6.75,1,5.1,0.32C3.33-0.41,1.29,0.14,0.12,1.66          C-0.04,1.86-0.12,2.97,0.41,2.74L0.41,2.74z"></path>
							</g>
						</g>
						<g id="Group_927" transform="translate(31.838 42.577)">
							<path id="Path_2488" class="st18" d="M11.78,30.77c-1.59-4.81-1.56-10.01,0.07-14.8c-0.07,3.6,1.11,9.02,3.86,11.87         c2.54,2.44,4.71,0.88,8.16,0.34c9.8-1.83,19.83-2.07,29.7-0.71c0.41-1.1,0.72-2.23,0.92-3.39c0.83,1.61,0.79,3.41,1.41,4.63         c1.54-1.37,1.79-3.57,2.04-5.36c1.24,2.43,0.36,3.81,2.91,5.25c1.71,0.83,4.07,0.67,6,1.5c1.49-2.53,2.56-5.28,3.17-8.15         c1.21,4.02,3.51,7.66,4.5,11.68c0.99,4.42-2.58,10.96,1.23,14.03c4.21-6.74,4.66-18.73,3.09-26.36         C74.03-2.08,41.3-2.04,21.78,2.1C11.69,4.23,3.45,9.81,1.01,19.59c-1.09,4.38-0.92,9.03-0.79,13.48         c0.13,4.3-1.26,9.46,1.67,13.22c3.06-3.45,4.58-8,4.2-12.6c-0.3-4.83-2.48-9.77-0.13-14.47C5.62,19.9,6.83,25,7.14,25.78         C8.17,27.86,9.78,29.59,11.78,30.77z"></path>
						</g>
						<g id="Group_929" transform="translate(104.422 77.153)">
							<g id="Group_928">
								<path id="Path_2489" class="st24" d="M2.25,6.76C3.2,5.91,4.36,5.31,5.61,5.04C6.74,4.73,8.24,4.65,9.1,3.89          c0.95-0.84,0.86-3.15-0.41-3.72c-1.12-0.5-3.08,0.25-4.17,0.68c-1.38,0.5-2.68,1.19-3.87,2.04          C-0.86,4.05,0.52,8.36,2.25,6.76L2.25,6.76z"></path>
							</g>
						</g>
						<g id="Group_931" transform="translate(29.014 77.162)">
							<g id="Group_930">
								<path id="Path_2490" class="st24" d="M8.98,2.85C7.79,2,6.49,1.32,5.11,0.83c-1.1-0.44-3.03-1.17-4.16-0.65          c-1.29,0.6-1.15,2.93-0.22,3.73c0.85,0.74,2.39,0.83,3.51,1.13c1.25,0.29,2.4,0.89,3.35,1.74C8.41,7.54,9.31,6.67,9.6,5.92          C10.01,4.86,9.76,3.67,8.98,2.85z"></path>
							</g>
						</g>
						<g id="Group_932" transform="translate(58.399 159.078)">
							<path id="Path_2491" class="st20" d="M9.59,3.95C8.61,1.39,5.81-1.22,2.96,0.62C-0.74,2.99,0,11.87,0.19,15.59         c0.15,2.91,0.75,5.9,1.19,8.8c0.35,2.28-0.33,6.14,1.14,8.11c1.18,1.58,4.51,2.08,6.11,0.76c1.93-1.6,1.39-4.08,1.2-6.15         c-0.49-4.04-0.64-8.12-0.46-12.19C9.63,11.24,10.98,7.63,9.59,3.95z"></path>
						</g>
						<g id="Group_933" transform="translate(72.401 159.158)">
							<path id="Path_2492" class="st20" d="M0.93,15.31c-0.05-2.49-0.56-4.91-0.86-7.42C-0.3,5.64,0.51,3.35,2.22,1.82         c1.41-1.35,4.17-2.56,6.14-1.29c2.27,1.46,2.26,4.78,2.24,7.05c-0.02,2.83,0.21,5.5,0.06,8.33         c-0.18,3.54-0.82,6.9-1.03,10.45c-0.1,1.66,0.54,4.29-0.51,5.76c-1.22,1.71-4.79,2.41-6.44,1.04c-1.45-1.2-1.01-3.04-1.1-4.7         C1.34,24.12,1.01,19.6,0.93,15.31z"></path>
						</g>
						<g id="Group_934" transform="translate(53.139 149.24)">
							<path id="Path_2493" class="st24" d="M22,0.79c-5.5-0.22-11.1-1.3-16.59-0.5C4.98,1.49,0.05,16.85,0,16.82         c9.62,4.24,20.73,3.29,30.64,1.42c1.6-0.31,3.17-0.76,4.69-1.35c-0.61-5.52-4.11-10.55-5.48-15.9         C27.24,0.96,24.61,0.9,22,0.79z"></path>
						</g>
						<g id="Group_935" transform="translate(53.741 119.853)">
							<path id="Path_2494" class="st5" d="M5,8.32c0.26-2.89,2.45-8.62,6.64-8.31c-0.21,0.89-0.24,1.81-0.1,2.71         c0.23,3.39,2.5,2.79,6.07,2.71c5.17-0.12,3.47-1.8,3.14-4.98c5.11-0.28,5.98,7.86,7.01,11.06c2.11,6.5,5.58,20.65,6.36,24         c-2.39,1.53-10.7,1.86-13.5,1.89C15.2,37.49,1.9,35.97,0,36.23C1.44,30.3,4.51,13.77,5,8.32z"></path>
						</g>
						<path id="Path_2495" class="st25" d="M65.11,119.69c0,0-3.72,6.81,4.85,6.75s4.83-6.75,4.83-6.75S71.27,117.5,65.11,119.69z"></path>
						<g id="Group_936" transform="translate(78.22 125.702)">
							<path id="Path_2496" class="st20" d="M1.72,8.27c-1.01-1.74-2.76-5.76-0.9-7.48c3.4-3.17,5.63,4.16,6.55,5.99         c1.49,2.96,3.71,6.23,3.78,9.58c0.03,1.43-1.44,2.48-3.19,1.8c-2.58-1.01-3.26-3.05-4.27-5.3C3.11,11.29,2.46,9.76,1.72,8.27         z"></path>
						</g>
						<g id="Group_937" transform="translate(55.888 135.206)">
							<path id="Path_2497" class="st20" d="M3.44,0.09C2.08,0.31,0.93,1.22,0.4,2.49c-1.72,3.56,2.5,2.16,4.64,2.39         c2.33,0.24,4.2,1.26,6.35,1.91C13.9,7.55,24.02,9.1,26.38,9.37c1.87,0.21,9.26,0.06,6.45-3.51         c-2.18-2.74-7.05-2.89-10.36-2.88c-2.78,0.03-5.57-0.15-8.32-0.54C11.13,1.97,6.65-0.49,3.44,0.09z"></path>
						</g>
						<g id="Group_938" transform="translate(75.879 120.095)">
							<path id="Path_2498" class="st25" d="M3.82,14.4C-3.22-4.34,0.94-0.45,4.62,2.44c1.26,0.99,7.58,6.96,7.35,7.03         C8.57,10.61,6.77,13.07,3.82,14.4z"></path>
						</g>
						<g id="Group_939" transform="translate(48.547 126.931)">
							<path id="Path_2499" class="st20" d="M10.18,8.17c1.2-1.64,3.65-5.27,2-7.16c-3.03-3.48-6.6,3.08-7.72,4.81         c-1.81,2.8-3.93,5.59-4.38,8.91c-0.19,1.42-0.12,3.53,2.06,2.86c2.66-0.81,4.05-3.24,5.32-5.36         C8.28,10.82,9.2,9.47,10.18,8.17z"></path>
						</g>
						<g id="Group_940" transform="translate(55.89 135.2)">
							<path id="Path_2500" class="st20" d="M3.44,0.09C2.08,0.32,0.93,1.22,0.4,2.49C0.17,2.97-0.2,3.98,0.14,4.47         c0.29,0.42,1.03,0.45,1.5,0.49c1.47,0.1,3.04-0.07,4.51-0.12c1.22,0.04,2.42-0.26,3.47-0.89c0.66-0.63,0.7-1.66,0.1-2.34         c-0.76-0.7-1.73-1.14-2.76-1.26C5.82,0.02,4.62-0.07,3.44,0.09z"></path>
						</g>
						<g id="Group_941" transform="translate(48.703 134.482)">
							<path id="Path_2501" class="st20" d="M29.47,0.04c1.37,0.14,2.58,0.97,3.2,2.2c1.97,3.45-2.34,2.31-4.46,2.67         c-2.31,0.38-4.1,1.51-6.2,2.3c-2.45,0.91-12.44,3.09-14.76,3.5C5.4,11.03-2.09,11.2,0.56,7.6C2.64,4.79,7.4,4.28,10.69,4.09         c2.78-0.14,5.54-0.49,8.27-1.05C21.93,2.4,26.22-0.35,29.47,0.04z"></path>
						</g>
						<g id="Group_942" transform="translate(53.134 120.623)">
							<path id="Path_2502" class="st25" d="M6.9,13.35C14.72-3.64,9.32-0.59,6.21,2.11C4.02,4.19,1.95,6.4,0.01,8.71         C2.87,9.79,4.41,12.1,6.9,13.35z"></path>
						</g>
						<g id="Group_943" transform="translate(58.927 186.944)">
							<path id="Path_2503" class="st0" d="M1.54,0.81C1.6,0.86,1.66,0.9,1.72,0.94C2.29,1.35,2.96,1.58,3.66,1.6         C5.04,1.71,6.43,1.48,7.7,0.93c0.63-0.27,2.72-1.87,2.38-0.14C9.97,1.32,9.59,1.76,9.44,2.28C9.28,2.84,9.46,3.1,8.86,3.48         C7.95,4.1,6.94,4.55,5.87,4.81C4.57,5.05,2.2,5,1.18,4.03C0.56,3.44,0.87,2.6,0.73,1.92c-0.09-0.46-1.09-1-0.59-1.49         C0.5,0.05,1.15,0.52,1.54,0.81z"></path>
						</g>
						<g id="Group_944" transform="translate(55.581 188.854)">
							<path id="Path_2504" class="st5" d="M12.93,0c-0.19,1.21-1.75,1.72-2.85,1.98C8.21,2.43,4.37,2.42,4.09,0         c-0.64,0.72-1.2,1.52-1.65,2.38C1.9,3.24,1.37,4.1,0.92,4.99C0.3,5.89-0.01,6.97,0.02,8.06c0.07,0.53-0.05,1.25,0.29,1.72         c0.42,0.38,0.94,0.64,1.49,0.76c2.25,0.58,4.6,0.7,6.9,0.37c0.81,0.03,1.61-0.15,2.33-0.51c0.52-0.35,0.94-0.83,1.21-1.4         c0.86-1.89,2.14-4.73,1.49-6.81C13.57,1.62,13.58,0.32,12.93,0z"></path>
						</g>
						<path id="Path_2505" class="st26" d="M55.65,197.86c0,0,0.65,1.22,4.88,1.28s5.83-0.26,6.54-0.94        c0.98-0.94,2.25-5.19,2.42-6.6c0.08,0.7,0.08,1.41,0,2.12c-0.15,0.7-1.02,5.69-2.52,6.24c-2.05,0.62-4.2,0.86-6.34,0.7        c-2.31-0.15-4.52-0.84-4.83-1.46C55.52,198.8,55.46,198.3,55.65,197.86z"></path>
						<g id="Group_946" transform="translate(58.654 190.643)">
							<g id="Group_945">
								<path id="Path_2506" class="st27" d="M0.35,4.07c1.27-0.35,2.61-0.38,3.9-0.1c1.08,0.19,2.09,0.69,3.16,0.82          c0.72,0.09,0.46-1.62,0.32-1.91C6.6,0.43,2.66,0.71,0.36,1.25c0.05,0.56,0.1,1.13,0.15,1.69C2.22,2.17,6.59,1.23,7.89,3          c0.48,0.65,0.89-1.38,0.46-1.9C6.67-0.96,2.29,0.35,0.26,1.29c-0.42,0.19-0.31,1.8,0.15,1.69c2.03-0.49,5.62-0.65,6.62,1.5          C7.14,3.84,7.24,3.2,7.35,2.56C4.77,2.43,2.62,1.82,0.18,3.05C-0.09,3.2-0.03,4.21,0.35,4.07L0.35,4.07z"></path>
							</g>
						</g>
						<g id="Group_947" transform="translate(72.962 186.944)">
							<path id="Path_2507" class="st0" d="M8.57,0.81C8.52,0.86,8.46,0.9,8.39,0.94C7.83,1.35,7.15,1.58,6.46,1.6         C5.07,1.71,3.69,1.48,2.41,0.93C1.78,0.66-0.3-0.93,0.04,0.79c0.11,0.53,0.49,0.97,0.64,1.49C0.84,2.84,0.66,3.1,1.26,3.48         C2.17,4.1,3.18,4.55,4.25,4.81C5.55,5.05,7.92,5,8.93,4.03C9.56,3.44,9.25,2.6,9.39,1.92c0.09-0.46,1.09-1,0.59-1.49         C9.61,0.05,8.96,0.52,8.57,0.81z"></path>
						</g>
						<g id="Group_948" transform="translate(72.504 188.854)">
							<path id="Path_2508" class="st5" d="M0.99,0c0.19,1.21,1.75,1.72,2.85,1.98c1.88,0.45,5.72,0.44,6-1.98         c0.64,0.72,1.2,1.52,1.65,2.38c0.53,0.86,1.06,1.72,1.51,2.61c0.61,0.9,0.93,1.98,0.89,3.07c-0.07,0.53,0.05,1.25-0.29,1.72         c-0.42,0.38-0.94,0.64-1.49,0.76c-2.25,0.58-4.6,0.7-6.9,0.37c-0.81,0.03-1.61-0.15-2.33-0.51C2.36,10.05,1.95,9.57,1.67,9         C0.81,7.11-0.46,4.27,0.18,2.19C0.35,1.62,0.34,0.32,0.99,0z"></path>
						</g>
						<path id="Path_2509" class="st26" d="M86.35,197.86c0,0-0.65,1.22-4.88,1.28s-5.83-0.26-6.54-0.94        c-0.98-0.94-2.25-5.19-2.42-6.6c-0.08,0.7-0.08,1.41,0,2.12c0.15,0.7,1.02,5.69,2.52,6.24c2.05,0.62,4.2,0.86,6.34,0.7        c2.31-0.15,4.52-0.84,4.83-1.46C86.49,198.8,86.54,198.29,86.35,197.86z"></path>
						<g id="Group_950" transform="translate(74.754 190.646)">
							<g id="Group_949">
								<path id="Path_2510" class="st27" d="M8.37,3.04c-2.41-1.21-4.63-0.62-7.2-0.49c0.14,0.63,0.28,1.26,0.42,1.89          c1-2.15,4.61-1.98,6.62-1.48c0.46,0.11,0.47-1.51,0.06-1.7C6.23,0.33,1.85-0.96,0.17,1.1c-0.42,0.51,0.06,2.57,0.56,1.88          c1.3-1.76,5.7-0.8,7.38-0.05c0.02-0.57,0.04-1.13,0.06-1.7C5.86,0.7,1.96,0.44,0.81,2.89C0.67,3.2,0.53,4.87,1.24,4.78          C2.31,4.65,3.3,4.13,4.38,3.96C5.67,3.68,7,3.72,8.28,4.06C8.66,4.19,8.67,3.18,8.37,3.04L8.37,3.04z"></path>
							</g>
						</g>
						<path id="Path_2511" class="st20" d="M65.87,118.83c0,0-3.13,6.56,4.07,6.5s4.06-6.5,4.06-6.5S71.06,117,65.87,118.83z"></path>
						<ellipse id="Ellipse_95" class="st0" cx="50.21" cy="89.28" rx="1.01" ry="0.94"></ellipse>
						<ellipse id="Ellipse_96" class="st0" cx="91.18" cy="89.72" rx="1.01" ry="0.94"></ellipse>
						<path id="Path_2512" class="st28" d="M166.71,127.36c-0.17,0.13-0.33,0.28-0.48,0.43c2.04,3.25,4.95,5.81,7.49,8.68        c1.86,2.08,5.13,4.4,2.63,7.05c-3.01,3.15-6.26,6.05-9.72,8.69c-0.98,0.73-6,3.29-5.36,4.51c0.5,0.96,2.69,1.18,3.75,1.17        c3.32-0.06,5.53-2.04,7.96-3.81c3.47-2.5,6.52-5.46,9.74-8.2c4.93-4.21,2.78-6.89,0.88-10.06c-1.21-2.02-2.97-3.54-4.26-5.51        c-1.22-2.15-2.71-4.13-4.42-5.9c-1.33-1.22-1.47-0.77-3.06,0.07C170.06,125.28,168.34,126.25,166.71,127.36z"></path>
						<path id="Path_2513" class="st28" d="M149.38,122.62c-3.11,3.25-7.3,5-11.12,7.5c-3.45,2.26-4.36,4.74-7.72,2.5        c-3.75-2.55-7.29-5.39-10.6-8.49c-0.89-0.87-4.08-5.37-5.5-4.69c-1.12,0.53-1.32,2.58-1.27,3.57        c0.16,3.09,2.59,5.02,4.74,7.17c3.07,3.07,6.66,5.72,10.01,8.54c5.13,4.32,8.27,2.14,11.97,0.16c4.32-2.3,8.2-6.36,11.51-8.57        C153.47,128.92,150.89,121.03,149.38,122.62L149.38,122.62z"></path>
						<g id="Group_951" transform="translate(138.132 120.736)">
							<path id="Path_2514" class="st29" d="M7.8,14.94c-0.87-0.11-1.68-1.4-2.28-1.92c-0.91-0.85-1.89-1.63-2.92-2.33         c-0.64-0.41-2.14-0.59-2.49-1.31c-0.91-2.01,3.53-4.54,4.81-5.61c2.53-2.09,6.06-4.19,9.62-3.7         c2.62,0.35,1.51,2.17,0.62,3.84c-1.02,2.22-2.28,4.33-3.74,6.29C10.98,10.69,8.4,15.01,7.8,14.94z"></path>
						</g>
						<g id="Group_952" transform="translate(163.086 120.664)">
							<path id="Path_2515" class="st29" d="M8.89,13.46c1.75-1.3,3.59-2.47,5.51-3.52c0.34-0.24,1.31-0.82,1.45-1.17         c0.53-1.46-2.51-4.01-3.53-4.88C9.78,1.72,5.12-0.58,1.55,0.13C-2.31,0.91,2.12,8.18,3.3,9.7c0.31,0.39,3.86,5.53,4.47,4.83         C8.12,14.14,8.49,13.78,8.89,13.46z"></path>
						</g>
						<g id="Group_953" transform="translate(161.578 188.77)">
							<path id="Path_2516" class="st30" d="M0.92,0.1c0.2,1.21,1.77,1.7,2.88,1.95C5.68,2.48,9.51,2.43,9.78,0         c0.66,0.72,1.23,1.51,1.7,2.36c0.55,0.85,1.08,1.71,1.55,2.59c0.63,0.9,0.95,1.97,0.93,3.06c-0.06,0.53,0.07,1.25-0.27,1.72         c-0.42,0.38-0.92,0.65-1.47,0.78c-2.24,0.6-4.59,0.76-6.89,0.46c-0.81,0.04-1.61-0.13-2.34-0.49         C2.46,10.14,2.04,9.66,1.76,9.1c-0.89-1.88-2.21-4.71-1.6-6.79C0.31,1.73,0.28,0.43,0.92,0.1z"></path>
						</g>
						<path id="Path_2517" class="st0" d="M164.55,199.15c0.75,1.49,2.71,1.16,4.12,1.1c1.89-0.07,3.9,0.23,5.66-0.6        c2-0.94,0.33-3.11-1.02-3.73c-1.87-0.75-3.95-0.8-5.86-0.14C166.18,196.23,163.78,197.62,164.55,199.15z"></path>
						<path id="Path_2518" class="st16" d="M175.5,198.03c0,0-0.64,1.29-4.85,1.4s-5.83-0.21-6.55-0.91c-1-0.98-2.33-5.42-2.52-6.91        c-0.07,0.74-0.06,1.49,0.03,2.23c0.16,0.73,1.1,5.97,2.62,6.53c2.05,0.63,4.21,0.85,6.35,0.65c2.31-0.19,4.51-0.94,4.81-1.59        C175.65,199.01,175.69,198.49,175.5,198.03z"></path>
						<path id="Path_2519" class="st27" d="M171.97,191.08c-0.41-0.31-0.89-0.51-1.4-0.58c-1.5-0.09-3.01,0.18-4.38,0.78        c-0.7,0.28-1.38,0.59-2.04,0.94c-0.29,0.16-0.05,1.18,0.27,1.06c1.12-0.39,2.28-0.62,3.46-0.68        c-1.27,0.06-2.51,0.42-3.61,1.04c-0.18,0.1-0.02,0.72,0.16,0.64c1.2-0.43,2.45-0.7,3.72-0.81c1.45-0.23,2.91-0.31,4.37-0.23        c0.73,0.06,0.47-0.49-0.06-0.59c-0.3-0.01-0.58-0.14-0.79-0.35c0.07,0.07,0.65-0.24,0.7-0.33c0.11-0.19,0.08-0.43-0.08-0.58        C172.19,191.29,172.09,191.18,171.97,191.08z"></path>
						<g id="Group_954" transform="translate(140.024 186.558)">
							<path id="Path_2520" class="st0" d="M19.35,5.84c0.02,0.08,0.05,0.17,0.07,0.25c0.91,3.72-4.21,4.55-6.99,4.79         c-0.83,0.07-1.68,0.09-2.52,0.17c-3.31,0.35-6.64,0.16-9.89-0.56c-0.24-0.06,1.24-2.68,1.43-2.91         c0.58-0.85,1.38-1.52,2.32-1.95c1.57-0.62,4.15-0.64,4.71-2.5c1.24,0.9,2.74,0.27,3.87-0.47c1.2-0.58,2.2-1.51,2.88-2.66         c0.03-0.06,1.51,1.76,1.63,1.93c0.5,0.68,1.06,1.32,1.54,2.01C18.82,4.53,19.13,5.17,19.35,5.84z"></path>
						</g>
						<g id="Group_955" transform="translate(139.228 192.968)">
							<path id="Path_2521" class="st0" d="M5.66,4.58c-1.9-0.1-3.78-0.33-5.65-0.69C0.01,3.84,0,3.82,0,3.77         C0.05,1.89,1.2,0.79,2.74,0C4.92,0.37,6.08,2.09,5.66,4.58z"></path>
						</g>
						<g id="Group_956" transform="translate(156.755 191.765)">
							<path id="Path_2522" class="st0" d="M2.64,0c0.01,0.22,0.04,0.44,0.08,0.66C2.99,1.61,3.07,2.6,2.94,3.58         c-0.86,0.35-1.76,0.63-2.69,0.9c-0.68-1.71,0.17-3.65,1.88-4.33C2.3,0.09,2.47,0.04,2.64,0z"></path>
						</g>
						<g id="Group_957" transform="translate(141.966 189.069)">
							<path id="Path_2523" class="st30" d="M16.69,2.98c-0.25,0.15-0.48,0.33-0.68,0.54c-0.34,0.27-0.63,0.6-0.86,0.96         c-0.43,0.84-0.47,1.83-0.1,2.7C11.17,8.46,7.11,9.09,3.03,9.04C3.46,6.55,2.18,4.27,0,3.89c0.47-0.24,0.95-0.45,1.44-0.63         c1.73-0.65,3.89-1.1,4.98-2.56c0.99,0.86,3.5,0.83,4.74,0.91c0.89,0.12,1.8,0.11,2.69-0.04c0.34-0.08,2.13-1.09,1.6-1.58         c0.3,0.23,0.6,0.48,0.87,0.74c0.26,0.29,0.44,0.63,0.7,0.91c0.2,0.34,0.34,0.71,0.43,1.1C17.18,2.76,16.92,2.84,16.69,2.98z"></path>
						</g>
						<g id="Group_958" transform="translate(139.228 195.347)">
							<path id="Path_2524" class="st26" d="M20.48,0c-0.09,0.5,0.03,1.8-0.47,2.09c-3.93,2.26-9.8,2.62-14.04,2.41         c-0.5-0.03-5.93-0.29-5.94-1.2C0.02,2.51,0.05,1.93,0,1.38c3.24,1.11,6.95,1.03,10.57,0.77C13.97,1.95,17.31,1.22,20.48,0z"></path>
						</g>
						<path id="Path_2525" class="st27" d="M147.29,190.59c0.73,0.47,1.47,1.13,1.55,1.73c0.05,0.35-0.22,0.63-0.73,0.71        c-0.1,0.01-0.19,0.02-0.29,0.01c-0.14,0.22-0.39,0.33-0.65,0.3c-0.5,0-0.96-0.27-1.19-0.71c-0.01-0.02-0.01-0.04-0.02-0.06        s0-0.01-0.01-0.01c-0.03-0.05-0.07-0.1-0.12-0.15c-0.01-0.01-0.01-0.02-0.02-0.03c-0.01-0.01-0.02-0.02-0.02-0.03        c-0.1-0.1-0.2-0.19-0.31-0.27l-0.02-0.02c-0.02-0.02-0.05-0.03-0.07-0.04c-0.07-0.05-0.15-0.09-0.23-0.14        c-0.48-0.26-0.62-0.73-0.37-0.99c0.27-0.2,0.63-0.25,0.94-0.13C146.15,190.37,146.79,190.3,147.29,190.59z"></path>
						<g id="Group_959" transform="translate(145.456 149.136)">
							<path id="Path_2526" class="st31" d="M18.28,0.55C13.55,0.13,8.66-0.44,4.49,0.54C-0.37,1.69,0.22,4.73,0.18,8.8         c-0.06,6.59-0.61,12.87,0.57,19.42c0.45,2.48,1.32,5.21,0.9,7.75c-0.09,0.56-0.57,1.04-0.54,1.61         c0.22,0.95,0.48,1.89,0.8,2.82c0.26,1.48,0.26,1.5,1.92,1.82c4.53,0.89,10.16,0.47,8.87-5.07         c-1.35-5.79-2.75-14.19-0.36-19.92c0.62-1.49,0.71-0.49,2.21-1.11c-0.62,0.27,1.42,6.4,1.57,7.04         c0.7,3.26,0.19,7.19,0.12,10.53c-0.01,0.65-0.05,4.94,0.68,5.24c-0.49-0.21-0.09,2.38,0.2,2.69         c0.66,0.52,1.45,0.86,2.29,0.98c2.03,0.51,4.18,0.2,5.99-0.87c1.92-1.15,1.4-2.2,1.62-4.11c0.29-2.64-0.62-5.32-0.18-7.94         c0.35-2.28,0.5-4.58,0.46-6.88c0-1.7-0.27-22.03-1.84-21.97C23.05,0.9,20.66,0.8,18.28,0.55z"></path>
						</g>
						<g id="Group_960" transform="translate(111.885 88.317)">
							<path id="Path_2527" class="st32" d="M1.06,2.57c3.19-4.51,8.62-2.41,11.3,1.22c2.02,2.72,2.97,8.64-1.22,10.13         c-2.62,0.93-6.55-0.59-8.42-2.34C0.24,9.24-1.05,5.56,1.06,2.57z"></path>
						</g>
						<g id="Group_961" transform="translate(190.441 88.678)">
							<path id="Path_2528" class="st32" d="M13.1,2.6C9.95-1.94,4.51,0.12,1.77,3.73c-2.05,2.71-3.06,8.61,1.11,10.14         c2.61,0.96,6.56-0.52,8.45-2.27C13.86,9.28,15.19,5.61,13.1,2.6z"></path>
						</g>
						<g id="Group_962" transform="translate(120.302 47.526)">
							<path id="Path_2529" class="st28" d="M74.33,10.87c-4.38-7.99-16.07-9.18-24.66-9.96C35.73-0.36,22.71-1.28,9.78,5.23         c-15.5,7.8-7.91,30.37-7.98,43.34c-0.06,12,10.03,15.85,18.42,17.48s13.91,2.85,13.47,5.64s-2.72,10.61,3.94,10.64h0.4         c6.67,0.03,4.74-7.91,3.79-10.75c-0.91-2.7,5.25-3.82,13.64-5.39c7.74-1.45,16.65-5.53,18.46-13.46         c1.01-3.13,1.05-10.86,1.05-10.86c0.44-9.03,3.66-21.59-0.19-30.12C74.63,11.45,74.48,11.16,74.33,10.87z"></path>
						</g>
						<g id="Group_964" transform="translate(151.06 101.497)">
							<g id="Group_963">
								<path id="Path_2530" class="st33" d="M7.33,6.63c-1.41,0.05-2.8-0.24-4.07-0.85C1.72,5.02-0.76,3.04,0.22,1.2          C1-0.26,2.88,0.83,4.01,1.27C5.9,2,7.61,2.38,9.56,1.56c1.44-0.61,3.56-2.53,5.07-0.95c1.96,2.02-2.54,4.81-4.13,5.41          C9.49,6.4,8.41,6.61,7.33,6.63z"></path>
							</g>
						</g>
						<g id="Group_966" transform="translate(152.869 104.135)">
							<g id="Group_965">
								<path id="Path_2531" class="st34" d="M0,2.21c0.45,0.35,0.93,0.66,1.43,0.92C2.7,3.75,4.1,4.05,5.51,3.99          C6.6,3.97,7.67,3.76,8.7,3.38c0.75-0.31,1.46-0.69,2.12-1.16C7.82-0.74,3-0.74,0,2.21z"></path>
							</g>
						</g>
						<g id="Group_967" transform="translate(151.783 101.507)">
							<path id="Path_2532" class="st0" d="M0.74,3.3c1.41,0.47,3.84,0.53,7.49,0.41s4.72-0.17,4.85-1.08         c0.01-0.88-0.07-1.75-0.25-2.61C11.5-0.17,9.97,1.08,8.86,1.55C6.89,2.37,5.2,1.99,3.31,1.26c-0.9-0.35-2.29-1.11-3.2-0.67         C-0.08,1.65-0.12,3.02,0.74,3.3z"></path>
						</g>
						<g id="Group_968" transform="translate(155.637 94.687)">
							<path id="Path_2533" class="st35" d="M4.83,2.23C4.3,2.51,3.72,2.67,3.13,2.71C2.5,2.69,1.87,2.54,1.31,2.26         C0.56,1.97-0.43,1.55,0.18,0.64c0.36-0.54,1.09-0.42,1.65-0.28c0.65,0.21,1.34,0.29,2.03,0.21C4.48,0.33,5.11,0.14,5.75,0         C6.59-0.05,6.7,1,6.27,1.48C5.85,1.8,5.38,2.05,4.87,2.21C4.86,2.21,4.84,2.22,4.83,2.23z"></path>
						</g>
						<path id="Path_2534" class="st36" d="M142.9,98.21c0.65-2.76-2.43-5.72-6.86-6.62s-8.56,0.61-9.2,3.36s2.43,5.72,6.86,6.62        S142.26,100.97,142.9,98.21z"></path>
						<path id="Path_2535" class="st36" d="M143.74,98.38c0.48-2.04-2.73-4.43-7.16-5.34s-8.41,0.03-8.9,2.07s2.73,4.43,7.16,5.34        S143.26,100.42,143.74,98.38z"></path>
						<path id="Path_3022" class="st36" d="M125.12,94.6c0.7-2.97,5.14-4.6,9.93-3.63c4.78,0.97,8.1,4.17,7.4,7.14        c-0.7,2.97-5.14,4.6-9.93,3.63C127.74,100.77,124.42,97.57,125.12,94.6z"></path>
						<path id="Path_2536" class="st36" d="M144.75,98.59c0.65-2.76-3.22-5.89-8.65-6.99s-10.34,0.24-10.98,2.99        s3.22,5.89,8.65,6.99S144.11,101.35,144.75,98.59z"></path>
						<path id="Path_2537" class="st36" d="M175.37,98.35c-0.62-2.76,2.48-5.7,6.92-6.56s8.55,0.68,9.17,3.44s-2.48,5.7-6.92,6.56        S175.99,101.12,175.37,98.35z"></path>
						<path id="Path_2538" class="st36" d="M174.52,98.52c-0.46-2.05,2.77-4.4,7.21-5.27s8.41,0.1,8.88,2.14s-2.77,4.4-7.21,5.27        S174.99,100.57,174.52,98.52z"></path>
						<path id="Path_2539" class="st36" d="M175.82,98.27c-0.67-2.99,2.68-6.15,7.47-7.08s9.23,0.74,9.89,3.71s-2.68,6.15-7.47,7.08        S176.48,101.25,175.82,98.27z"></path>
						<path id="Path_2540" class="st36" d="M173.51,98.72c-0.62-2.76,3.28-5.86,8.72-6.91s10.34,0.34,10.95,3.1        s-3.28,5.86-8.72,6.91S174.12,101.48,173.51,98.72z"></path>
						<g id="Group_969" transform="translate(134.939 88.145)">
							<path id="Path_2541" class="st10" d="M1.56,5.76c3.03,1.03,4.96-4.1,2.26-5.44C0.2-1.47-1.43,4.75,1.56,5.76z"></path>
						</g>
						<g id="Group_970" transform="translate(175.823 88.4)">
							<path id="Path_2542" class="st10" d="M3.1,5.79C6.3,5.43,5.52,0.06,2.47,0C-1.63-0.08-0.07,6.16,3.1,5.79z"></path>
						</g>
						<g id="Group_971" transform="translate(132.678 73.364)">
							<path id="Path_2543" class="st37" d="M7.69,2.38C7.61-2.46,1.02,1.17,0,3.75C0.51,3.51,7.67,1.4,7.69,2.38z"></path>
						</g>
						<g id="Group_972" transform="translate(174.495 73.362)">
							<path id="Path_2544" class="st37" d="M0.28,3.14c-1.82-4.54,5.75-3.39,7.7-1.31C7.42,1.77-0.08,2.22,0.28,3.14z"></path>
						</g>
						<g id="Group_973" transform="translate(115.571 39.727)">
							<path id="Path_2545" class="st14" d="M9.68,33.53c4,1.52,6.42-3.72,3.46-6c1.77-0.98,2.13-3.1,0.88-4.25         c2.48,0.6,5.27,0.96,6.46-1.66c-0.23,3.56,5.6,3.8,7.7,1.81c-1.13,3.91,4.19,5.36,6.27,2.24c0.99,2.76,4.62,3.26,6.77,1.32         c0.43,2.04,3.66,2.5,4.81,0.68c0.01,3.85,6.65,3.89,7.24,0.04c-0.01-0.17-0.02-0.17-0.02,0c1.36,3.27,7.12,2.29,7.29-0.91         c0.62,2.07,4.64,3.74,5.48,0.99c-0.01-0.17-0.01-0.17-0.01,0c0.24,2.42,3.18,2.87,5.18,1.81c-1.85,2.15,0.95,4.6,2.14,2.04         c-0.01-0.17-0.01-0.17-0.01,0c0.11,1.27,1.02,2.33,2.27,2.62c-1.68,1.18-1.8,3.47,0.26,4.35c-2.52,1.47-0.79,4.44,1.26,2.8         c-1.59,1.3-0.63,3.01,1.18,3.41c-2.08,0.71-2.97,4-0.09,4.42c0.08,0.67,0.25,1.33,0.49,1.96c2.01-0.65,7.11-4.83,4.37-6.88         c2.16-1.1,3.36-4.36,1.17-5.88c1.8-1.53,3.48-4.95,0.6-6.27c0.99-1.87,1.92-4.93-1.01-5.56c1.16-1.96,1.63-5.26-1.14-6.03         c2.17-2.16,1.42-6.01-2.32-5.77c1.74-0.11-4.8-5.19-4.68-5.1c-2.61-1.92-4.21-4.51-8.16-3.33c-0.54-2.44-4.21-4.56-6.32-2.53         c-1-2.12-3.53-3.03-5.66-2.03c-0.19,0.09-0.37,0.19-0.54,0.31c-1.3-1.91-3.91-2.41-5.82-1.11c-0.09,0.06-0.17,0.12-0.26,0.19         c-1.89-1.5-6.35-1.88-7.43,0.61c0.09-0.21-6.73-2.32-7.57,0.99c-2.23-1.62-7.22-1.9-6.77,1.75c-2.39-0.92-7.8-1.59-7.11,2.18         c0.16,0.08,0.19,0.08,0.08-0.01c-2.81-1.28-6.22-0.86-6.24,2.65c0.15,0.04,0.2-0.02,0.16-0.16         c-2.42-0.34-5.62,0.19-5.53,2.82C5.65,12,0.67,15.86,3.86,18.35c-2.31,0.41-3.32,3.21-1.18,4.41         c-2.47,0.77-3.72,4.57-0.62,5.17c-1.09,1.97-3.56,4.94-0.2,6.4c-2.02,1.56-3.03,4.79,0.31,5.39         c-1.26,1.55-1.34,3.79,0.81,4.4c-3.05-0.87,1.54,4.51,1.33,4.25c0.87,1.08,1.6,2.87,2.46,3.87c3.16,3.69,3.19-0.75,1.2-3.63         c2.46-1.27,3.68-4.89,0.4-6.18c0.99-0.43,1.44-1.59,1.01-2.58c-0.17-0.38-0.45-0.7-0.82-0.91         C11.41,38.59,12.33,34.77,9.68,33.53z"></path>
						</g>
						<g id="Group_974" transform="translate(144.518 119.128)">
							<path id="Path_2546" class="st24" d="M18.7,1.08c2.07,1.9,2.88,4.51,3.8,7.12c1.94,5.8,3.27,11.78,3.96,17.85         c0.69,5.22,2.13,10.35,2.67,15.56c-7.02,5.21-20.75,1.41-29.05,1.27c-0.41-8.19,0.73-16.79,1.76-24.95         C2.37,12.7,4.01,7.65,6.66,3.12c0.37-0.64,0.81-1.24,1.29-1.8C8.25,1,8.99,0.1,9.45,0.04c-0.49,2.01-0.19,3.96,2.3,4.51         c1.94,0.43,5.19,0.02,6-1.99C18,1.72,17.94,0.81,17.57,0C17.98,0.32,18.36,0.69,18.7,1.08z"></path>
						</g>
						<path id="Path_2547" class="st29" d="M153.99,119.09c0,0-0.7,2.59,0.79,3.59s6.51,0.59,7.02-0.69        c0.31-0.92,0.42-1.9,0.31-2.86l0.52,0.46c0,0,0.97,3.82-0.66,4.58c-2.25,0.88-4.71,1.04-7.05,0.46        c-2.03-0.67-2.61-4.07-1.59-5.09L153.99,119.09z"></path>
						<g id="Group_975" transform="translate(103.72 113.596)">
							<path id="Path_2548" class="st28" d="M17.5,3.9c0.53-1.14,1.02-2.32-0.53-2.6C14.35,0.82,14.28,5.67,12.7,5         c-2.01-0.85-4.82-6.78-7.45-4.47c-1.93,1.69,3.3,5.36,4.19,6.41C7.84,6.15,3.27,1.33,1.19,4.1c-1.39,1.85,4.23,4.02,6.4,5.56         C6.13,9.63,0.09,6.23,0,9.29c-0.04,1.32,1.14,2.01,2.36,2.29c1.41,0.34,2.89,0.34,4.3,0.69l0,0         c-1.31,0.29-3.96,0.05-4.55,1.52c-0.27,0.7,0.05,1.49,0.73,1.81c0.82,0.21,1.68,0.14,2.46-0.19c0.95-0.22,1.94-0.23,2.9-0.03         c0.89,0.21,1.67,0.75,2.58,0.9c1.23,0.22,2.49-0.06,3.51-0.76c1.54-1.07,3.73-2.34,4.1-4.23c0.39-1.99-1.42-3.76-1.47-5.74         C17,4.97,17.2,4.41,17.5,3.9z"></path>
						</g>
						<g id="Group_976" transform="translate(163.536 146.86)">
							<path id="Path_2549" class="st28" d="M10.37,7.18c0.13-0.17,0.23-0.36,0.29-0.57c0.62-1.96-1.76-5.45-3.63-6.26         C4.88-0.58,3.58,0.49,1.78,1.7C1.12,2.15-0.2,2.81,0.02,3.75c0.23,0.98,1.4,0.75,1.99,0.19c-0.48,0.5-1.24,0.79-1.27,1.56         C0.73,6.18,1.28,6.74,1.97,6.74c0.07,0,0.14-0.01,0.21-0.02c-1,1.33,0.96,1.3,1.71,1.37c-0.34,0.54,0.15,1,0.74,0.97         C5.7,9.02,6.61,7.5,7.83,7.36C8.82,7.25,9.79,7.87,10.37,7.18z"></path>
						</g>
						<ellipse id="Ellipse_98" class="st0" cx="138.45" cy="90.18" rx="0.95" ry="0.89"></ellipse>
						<ellipse id="Ellipse_99" class="st0" cx="179" cy="90.18" rx="0.95" ry="0.89"></ellipse>
						<g id="Group_977" transform="translate(199.2 41.117)">
							<path id="Path_2550" class="st38" d="M90.32,76.96c-1.27-4.96-2.65-9.97-4.31-14.83c-1.43-4.22-0.77-6.92,0.03-11.32         c1.98-10.14,0.94-20.63-3-30.18C79.29,11.77,76.59,8.37,67.25,4.1C46.65-5.32,11.43,1.71,2.61,23.11         c-3.93,9.55-0.2,19.79,0.93,29.51c1.2,9.66,0.58,19.46-1.82,28.89c-1.99,7.38-3.9,15.48,4.32,20.29         c3.55,2.07,7.07,3.11,10.68,0.4c2.72,7.07,11.55,2.41,15.21-1.38c2.56,2.21,5.79,5.11,9.35,5.51         c4.08,0.47,6.09-2.79,8.89-2.79c2.88,0,4.78,3.01,8.48,2.5c2.92-0.4,6.33-3.61,8.52-5.21c4.45,5.31,12.25,2.23,15.61-2.45         C94.59,100.73,93.42,89.02,90.32,76.96z"></path>
						</g>
						<g id="Group_978" transform="translate(260.588 98.093)">
							<path id="Path_2551" class="st39" d="M21.11,37.4c4.99-3.02-0.25-8.59-0.5-12.31c-3.25,5.35-6.24,10.45-3,16.49         c-7.24-1.16-8.24-10.68-8.5-16.26c-2.75,1.86-4.99,7.2-2.75,10.45c-4.24-4.88-6.99-8.59-6.24-15.33         C0.87,14.4,2.37,9.29,2.37,3.02c4.74,6.27,8.24,11.15,10.74,18.58c3-7.43-0.5-14.17,0.25-21.6c2.41,2.94,4.2,6.34,5.25,9.99         c-0.09-3.03,0.08-6.06,0.5-9.06C18.79,2.7,34.87,42.82,21.11,37.4z"></path>
						</g>
						<g id="Group_979" transform="translate(204.514 99.949)">
							<path id="Path_2552" class="st39" d="M7,37.86c-7.26,1.19-6.92-8.66-6.16-12.77C2.44,16.49,7.99,8.94,7.99,0         c0.5,6.04,2.5,12.31,2.75,18.58c3.74,0.23,4.99-4.41,6.99-6.74c0.75,6.03-7.99,27.87,5.25,28.11         c-4.74,9.29-13.49-6.97-14.23-10.68c-2.25,1.86-2.5,6.04-0.5,8.36C4,38.78,0.25,34.84,0,31.13"></path>
						</g>
						<g id="Group_980" transform="translate(196.572 87.794)">
							<path id="Path_2553" class="st40" d="M1.11,2.51c3.26-4.48,8.65-2.3,11.29,1.36c1.98,2.74,2.85,8.68-1.36,10.12         c-2.63,0.9-6.54-0.66-8.38-2.44C0.19,9.17-1.04,5.48,1.11,2.51z"></path>
						</g>
						<g id="Group_981" transform="translate(275.078 89.154)">
							<path id="Path_2554" class="st40" d="M13.19,2.66C10.11-1.92,4.63,0.08,1.85,3.65c-2.09,2.68-3.18,8.57,0.97,10.16         c2.6,0.99,6.56-0.45,8.48-2.15C13.85,9.35,15.23,5.69,13.19,2.66z"></path>
						</g>
						<path id="Path_2555" class="st41" d="M279.82,58.82c-4.26-8.04-15.94-9.38-24.52-10.26c-13.91-1.44-26.93-2.51-39.94,3.83        c-15.61,7.6-8.35,30.27-8.6,43.24c-0.23,12,9.8,15.97,18.16,17.71s13.87,3.01,13.39,5.81s-2.87,10.58,3.79,10.69h0.2        c0.07,0,0.13,0,0.2,0.01c6.67,0.11,4.87-7.85,3.94-10.7c-0.87-2.71,5.3-3.76,13.71-5.22c7.76-1.34,16.73-5.33,18.66-13.23        c1.05-3.13,1.2-10.85,1.2-10.85c0.57-9.02,3.97-21.55,0.24-30.12C280.12,59.42,279.97,59.12,279.82,58.82z"></path>
						<g id="Group_982" transform="translate(239.536 95.116)">
							<path id="Path_2556" class="st42" d="M4.82,2.21c-0.53,0.27-1.11,0.43-1.7,0.46C2.48,2.64,1.86,2.48,1.29,2.2         c-0.74-0.3-1.71-0.73-1.1-1.64c0.37-0.54,1.09-0.4,1.65-0.25c0.65,0.22,1.34,0.3,2.03,0.24C4.49,0.32,5.13,0.14,5.77,0         c0.84-0.04,0.94,1.01,0.5,1.48C5.85,1.81,5.37,2.05,4.86,2.2C4.85,2.2,4.84,2.21,4.82,2.21z"></path>
						</g>
						<path id="Path_2557" class="st43" d="M227.53,98c0.68-2.75-2.34-5.75-6.76-6.71s-8.57,0.49-9.25,3.25s2.34,5.75,6.76,6.71        S226.84,100.74,227.53,98z"></path>
						<path id="Path_3023" class="st43" d="M212.35,94.72c0.51-2.04,4.51-2.92,8.93-1.96c4.42,0.95,7.6,3.38,7.09,5.42        c-0.51,2.04-4.51,2.91-8.93,1.96C215.03,99.18,211.84,96.75,212.35,94.72z"></path>
						<path id="Path_2558" class="st43" d="M227.09,97.91c0.74-2.97-2.53-6.2-7.3-7.24s-9.24,0.54-9.98,3.51s2.53,6.2,7.3,7.24        S226.35,100.86,227.09,97.91z"></path>
						<path id="Path_2559" class="st43" d="M229.39,98.4c0.68-2.75-3.14-5.92-8.55-7.09s-10.34,0.11-11.03,2.86s3.14,5.92,8.55,7.09        S228.7,101.14,229.39,98.4z"></path>
						<path id="Path_2560" class="st43" d="M259.99,98.54c-0.58-2.77,2.56-5.67,7.02-6.47s8.54,0.78,9.12,3.55s-2.56,5.67-7.02,6.47        S260.57,101.31,259.99,98.54z"></path>
						<path id="Path_2561" class="st43" d="M259.15,98.69c-0.43-2.05,2.84-4.38,7.29-5.18s8.42,0.21,8.85,2.26s-2.84,4.38-7.29,5.18        S259.58,100.74,259.15,98.69z"></path>
						<path id="Path_2562" class="st43" d="M260.44,98.46c-0.62-2.99,2.77-6.12,7.57-6.99s9.22,0.85,9.84,3.83s-2.77,6.12-7.57,6.99        S261.06,101.45,260.44,98.46z"></path>
						<path id="Path_2563" class="st43" d="M258.12,98.88c-0.58-2.77,3.37-5.81,8.82-6.8s10.33,0.46,10.91,3.23s-3.37,5.81-8.82,6.8        S258.71,101.65,258.12,98.88z"></path>
						<g id="Group_983" transform="translate(219.695 87.873)">
							<path id="Path_2564" d="M1.97,5.85c3.15,0.62,4.27-4.71,1.4-5.68C-0.48-1.12-1.15,5.25,1.97,5.85z"></path>
						</g>
						<g id="Group_984" transform="translate(260.638 88.574)">
							<path id="Path_2565" d="M2.36,5.87C5.57,6.13,6,0.72,3.03,0.08C-0.97-0.78-0.82,5.62,2.36,5.87z"></path>
						</g>
						<g id="Group_986" transform="translate(232.811 98.186)">
							<g id="Group_985">
								<path id="Path_2566" class="st41" d="M0.01,0.25C2.33,6.56,11.05,6.34,16.5,4.14c0.29-0.12,0.18-1-0.15-0.86          C10.96,5.63,3.27,5.69,0.13,0.05C0.04-0.11-0.02,0.18,0.01,0.25L0.01,0.25z"></path>
							</g>
						</g>
						<g id="Group_987" transform="translate(201.385 42.885)">
							<path id="Path_2567" class="st38" d="M16.54,34.78c10.45-4.34,21.27-2.71,32.42-5.55c7.27-1.86,13.91-2.46,17.37-9.93         c-2.34,5.04,2.65,11.32,5.39,15.19c4.2,5.91,3.72,9.73,5.08,16.35c0.33-0.69,1.09-1.5,1.44-2.29         c-0.1,0.83-0.01,1.84-0.14,2.65c3.36-10.55,5.96-18.72,3.65-29.91C76.93-2.09,44.2-2.04,24.68,2.09         C4.67,6.33-6.08,28.19,3.61,45.08c2.89-2.67,5.1-6.07,8.84-8.26C13.76,36.04,15.13,35.37,16.54,34.78z"></path>
						</g>
						<path id="Path_2568" class="st38" d="M226.25,78.3c-1.12-1.34-2.93-1.88-4.59-1.36c-1.55,0.41-2.63,1.8-2.64,3.4        c0.01,0.24,0.3,0.93,0.56,0.42c0.65-1.31,1.12-2.19,2.78-2.52c1.31-0.22,2.65,0.06,3.75,0.79        C226.39,79.23,226.36,78.42,226.25,78.3L226.25,78.3z"></path>
						<path id="Path_2569" class="st38" d="M259.59,79.6c1.06-0.62,2.3-0.87,3.52-0.71c1.67,0.18,2.33,1.25,2.88,2.55        c0.2,0.46,0.54,0.26,0.58-0.16c0.39-3.7-4.83-5.04-7.17-2.42C259.27,79,259.28,79.77,259.59,79.6L259.59,79.6z"></path>
						<g id="Group_988" transform="translate(230.836 159.386)">
							<path id="Path_2570" class="st41" d="M9.59,3.95C8.61,1.39,5.82-1.22,2.96,0.62C-0.74,2.99,0,11.87,0.19,15.59         c0.15,2.91,0.75,5.9,1.19,8.8c0.35,2.28-0.33,6.14,1.14,8.11c1.18,1.58,4.51,2.08,6.11,0.76c1.93-1.6,1.39-4.08,1.2-6.15         c-0.49-4.04-0.64-8.12-0.46-12.19C9.63,11.25,10.98,7.64,9.59,3.95z"></path>
						</g>
						<g id="Group_989" transform="translate(244.838 159.466)">
							<path id="Path_2571" class="st41" d="M0.93,15.31c-0.05-2.49-0.56-4.91-0.86-7.42C-0.3,5.64,0.51,3.35,2.22,1.82         C3.64,0.47,6.4-0.73,8.36,0.54c2.27,1.46,2.26,4.78,2.24,7.05c-0.02,2.83,0.21,5.5,0.06,8.33c-0.18,3.54-0.82,6.9-1.03,10.45         c-0.1,1.66,0.54,4.29-0.51,5.76c-1.22,1.71-4.79,2.41-6.44,1.04c-1.45-1.2-1.01-3.04-1.1-4.7         C1.34,24.12,1.01,19.6,0.93,15.31z"></path>
						</g>
						<g id="Group_990" transform="translate(231.365 187.252)">
							<path id="Path_2572" class="st0" d="M1.54,0.81C1.6,0.86,1.66,0.9,1.72,0.94C2.29,1.35,2.96,1.58,3.66,1.6         C5.04,1.71,6.43,1.48,7.7,0.93c0.63-0.27,2.72-1.87,2.38-0.14C9.97,1.32,9.59,1.76,9.44,2.28C9.28,2.84,9.46,3.1,8.86,3.48         C7.95,4.1,6.94,4.55,5.87,4.81C4.57,5.05,2.2,5,1.18,4.03C0.56,3.44,0.87,2.6,0.73,1.92c-0.09-0.46-1.09-1-0.59-1.49         C0.5,0.06,1.15,0.52,1.54,0.81z"></path>
						</g>
						<g id="Group_991" transform="translate(228.018 189.088)">
							<path id="Path_2573" class="st14" d="M12.93,0c-0.19,1.21-1.74,1.72-2.85,1.98C8.21,2.43,4.37,2.42,4.09,0         c-0.64,0.72-1.2,1.52-1.65,2.38C1.9,3.24,1.37,4.1,0.92,4.99C0.3,5.89-0.01,6.97,0.02,8.06c0.07,0.53-0.05,1.25,0.29,1.72         c0.42,0.38,0.94,0.64,1.49,0.76c2.25,0.58,4.6,0.7,6.9,0.37c0.81,0.03,1.61-0.15,2.33-0.51c0.52-0.35,0.94-0.83,1.21-1.4         c0.86-1.89,2.14-4.73,1.49-6.81C13.57,1.62,13.58,0.31,12.93,0z"></path>
						</g>
						<path id="Path_2574" class="st16" d="M228.08,198.16c0,0,0.65,1.22,4.88,1.28s5.83-0.26,6.54-0.94        c0.98-0.94,2.25-5.19,2.42-6.6c0.08,0.7,0.08,1.41,0,2.12c-0.15,0.7-1.02,5.69-2.52,6.24c-2.05,0.62-4.2,0.86-6.34,0.7        c-2.31-0.15-4.52-0.84-4.84-1.46C227.95,199.11,227.89,198.6,228.08,198.16z"></path>
						<g id="Group_992" transform="translate(245.399 187.252)">
							<path id="Path_2575" class="st0" d="M8.57,0.81C8.52,0.86,8.46,0.9,8.39,0.94C7.83,1.35,7.15,1.58,6.46,1.6         C5.07,1.71,3.69,1.48,2.41,0.93C1.78,0.66-0.3-0.93,0.04,0.79c0.11,0.53,0.49,0.97,0.64,1.49C0.84,2.84,0.66,3.1,1.26,3.48         C2.17,4.1,3.18,4.55,4.25,4.81C5.55,5.05,7.92,5,8.93,4.03C9.56,3.44,9.25,2.6,9.39,1.92c0.09-0.46,1.09-1,0.59-1.49         C9.61,0.06,8.96,0.52,8.57,0.81z"></path>
						</g>
						<g id="Group_993" transform="translate(244.941 189.172)">
							<path id="Path_2576" class="st14" d="M0.99,0c0.19,1.21,1.74,1.72,2.85,1.98c1.88,0.45,5.72,0.44,6-1.98         c0.64,0.72,1.2,1.52,1.65,2.38c0.53,0.86,1.06,1.72,1.52,2.61c0.61,0.9,0.93,1.98,0.89,3.07c-0.07,0.53,0.05,1.25-0.29,1.72         c-0.42,0.38-0.94,0.64-1.49,0.76c-2.25,0.58-4.6,0.7-6.9,0.37c-0.81,0.03-1.61-0.15-2.33-0.51C2.36,10.05,1.94,9.57,1.67,9         C0.81,7.11-0.46,4.27,0.18,2.19C0.36,1.61,0.34,0.31,0.99,0z"></path>
						</g>
						<path id="Path_2577" class="st16" d="M258.79,198.16c0,0-0.65,1.22-4.87,1.28c-4.22,0.06-5.83-0.26-6.54-0.94        c-0.98-0.94-2.25-5.19-2.42-6.6c-0.08,0.7-0.08,1.41,0,2.12c0.15,0.7,1.02,5.69,2.52,6.24c2.05,0.62,4.2,0.86,6.34,0.7        c2.31-0.15,4.52-0.84,4.83-1.46C258.93,199.11,258.98,198.6,258.79,198.16z"></path>
						<path id="Path_2578" class="st27" d="M231.39,192.43c-0.31,0.14-0.23,1.38,0.11,1.3c1.17-0.29,2.37-0.38,3.57-0.27        c-1.3-0.13-2.6,0.11-3.77,0.68c-0.19,0.1-0.13,0.84,0.07,0.78c1.12-0.33,2.29-0.42,3.45-0.26c1.27,0.14,2.43,0.68,3.68,0.83        c0.53,0.07,0.33-1.25,0.23-1.46c-0.2-0.43-0.5-0.8-0.88-1.08c0.47,0.13,0.9,0.41,1.2,0.79c0.37,0.49,0.64-1.07,0.34-1.46        C237.76,190.24,233.39,191.53,231.39,192.43z"></path>
						<path id="Path_2579" class="st27" d="M255.54,194.13c-1.12-0.55-2.37-0.79-3.62-0.68c1.16-0.09,2.34,0,3.47,0.28        c0.33,0.08,0.36-1.16,0.04-1.3c-2.01-0.91-6.37-2.17-8-0.14c-0.3,0.37,0.03,1.95,0.41,1.44c0.29-0.36,0.68-0.63,1.12-0.76        c-0.37,0.28-0.67,0.65-0.87,1.07c-0.1,0.22-0.22,1.5,0.31,1.45c1.07-0.12,2.07-0.6,3.15-0.76c1.3-0.25,2.64-0.19,3.91,0.18        C255.75,194.98,255.75,194.24,255.54,194.13z"></path>
						<g id="Group_994" transform="translate(231.448 120.516)">
							<path id="Path_2580" class="st41" d="M4.11,0.23c1.43,2.54,1.5,5.62,0.17,8.22c-0.48,0.9-1.43,2.57-2.7,2.64         c-2.33,0.14-1.49-3.22-1.15-5.02S3.21-1.16,4.11,0.23z"></path>
						</g>
						<g id="Group_995" transform="translate(248.039 120.472)">
							<path id="Path_2581" class="st41" d="M1.21,0.21C-0.28,2.85-0.4,6.04,0.87,8.79c0.48,0.9,1.42,2.64,2.7,2.64         c2.31,0,1.49-3.22,1.15-5.02S2.11-1.18,1.21,0.21z"></path>
						</g>
						<g id="Group_996" transform="translate(226.974 119.54)">
							<path id="Path_2582" class="st44" d="M31.07,36.86c-0.15-0.58-0.34-1.16-0.56-1.72c-1.02-2.72-1.68-5.55-1.97-8.44         c-0.39-3.64-1.11-7.23-1.57-10.88c-0.1-0.81-1.11-5.37-0.71-5.73c-0.66,0.6-1.68,0.58-2.3-0.07         c-2.08-1.98-1.74-6.59-1.13-9.05c-0.94-0.29-2.22-1.1-3.21-0.95c0.1,0.77,0.63,1.77,0.23,2.53c-0.3,0.49-0.74,0.87-1.27,1.09         c-1.62,0.83-3.49,1.04-5.26,0.62c-2.2-0.5-2.43-2.29-2.07-4.26C10.04,0.06,8.87,0.44,7.86,1.1c2.13,2.32,1.37,7.44-1.02,9.37         c-0.64,0.58-1.58,0.72-2.36,0.34c0.3,0.13-0.52,8.9-0.54,9.68c-0.03,3.57-0.37,7.13-0.99,10.64         c-0.96,5-0.31,10.52-2.28,15.31c-0.69,1.7-1.44,3.05,1.08,3.87c2.61,0.85,5.81-0.36,8.48-0.54c3.22-0.21,6.44-0.35,9.49,0.82         c4.48,1.72,8.87-0.77,13.04-2.32c0.56-0.21,1.11-0.41,1.67-0.62c-0.36-1.93-1.37-3.62-2.03-5.44         C31.78,40.45,31.55,38.64,31.07,36.86z"></path>
						</g>
						<g id="Group_997" transform="translate(249.921 121.236)">
							<path id="Path_2583" class="st41" d="M10.94,14.86c-0.02-0.05-0.05-0.1-0.07-0.15C9.15,11.19,7.6,7.4,5.37,4.15         c-0.5-0.74-4.76-5.91-5.21-3.53c-0.82,4.51,1.57,7.77,2.65,10.6c2.51,6.51,8.28,12.98,7.17,20.28         c-0.17,1.03-0.43,2.03-0.78,3.01c-0.24,0.7-1.55,1.73-1.21,2.54c0.54,1.33,2.52,0.01,2.93-0.73c0.28-0.5,0.42-1.24,0.94-1.59         c0.62-0.41,1.05,0.34,1.43,0.65c0.69,0.56,1.35,1.16,1.98,1.79c0.37,0.47,0.83,0.85,1.36,1.11c0.57,0.2,1.19-0.11,1.38-0.67         c0.01-0.04,0.02-0.08,0.03-0.12c0.2-0.72-0.34-1.18-0.85-1.62c-0.68-0.58-1.45-1.18-2.08-1.8c1.02,0.66,2,1.37,2.94,2.13         c0.53,0.49,1.08,1.04,1.83,0.5c0.34-0.24,0.77-0.73,0.62-1.16c-0.19-0.53-0.99-0.98-1.43-1.3c-0.93-0.66-1.9-1.27-2.86-1.88         c0.75,0.45,1.53,0.84,2.34,1.18c0.78,0.34,2.03,1.12,2.62,0.08c0.45-0.8-0.41-1.06-1.09-1.32c-0.89-0.38-1.8-0.68-2.74-0.91         c0.68-0.1,1.38,0.04,2.06-0.07c1.67-0.28,0.57-1.56-0.72-1.37c-1.33,0.15-2.66,0.18-3.99,0.09c0.05-1.26,0.01-2.52-0.1-3.77         C14.05,22.28,12.82,18.42,10.94,14.86z"></path>
						</g>
						<g id="Group_998" transform="translate(213.947 121.237)">
							<path id="Path_2584" class="st41" d="M12.7,22.79c1.65-3.96,4.18-7.56,5.73-11.57c1.08-2.83,3.47-6.09,2.65-10.6         c-0.43-2.39-4.7,2.8-5.21,3.53c-2.23,3.25-3.77,7.04-5.5,10.56c-0.02,0.05-0.05,0.1-0.07,0.15         c-1.89,3.56-3.12,7.43-3.64,11.43c-0.27,1.67-0.44,3.36-0.51,5.05l-0.4,0.06c-1.47,0.22-2.91,0.6-4.29,1.13         c-0.48,0.2-0.9,0.47-1.36,0.67c-0.27,0.82,0.02,1.73,1.06,1.41c-0.93,0.65-0.59,2.66,0.81,2c-0.23,0.11-0.19,0.65-0.11,0.82         c0.12,0.22,0.31,0.4,0.54,0.5c0.44,0.2,0.95,0.16,1.35-0.1c-0.21,0.47,0.3,0.86,0.73,0.99c0.55,0.09,1.11-0.04,1.57-0.37         c1.16-0.93,2.05-3.26,3.99-2.52c1.14,0.44,1.52,2.1,3.05,1.51c1.86-0.72-0.75-2.33-1.54-2.84c0.22,0.14,0.18-2.11-0.04-2.43         c-0.11-0.14-0.23-0.28-0.36-0.39c-0.2-0.96-0.25-1.95-0.14-2.92C11.33,26.77,11.9,24.73,12.7,22.79z"></path>
						</g>
						<g id="Group_999" transform="translate(203.31 45.643)">
							<path id="Path_2585" class="st39" d="M50.18,1.33C40.9-1.4,29.91,0.38,21.14,3.86c-4.14,1.63-7.96,3.96-11.3,6.9         c-1.94,1.6-3.72,3.38-5.32,5.32c-1.29,1.68-1.89,4.97-3.28,6.31c3.6-3.44,10.52-6.37,15.68-6.38         C10.53,19.99,2.47,23.9,0,31.27c3.37-3.25,7.59-5.48,12.17-6.45c-2.98,3.08-6.14,5.63-7.99,9.63         c4.41-3.19,9.24-5.74,14.36-7.58c11.52-4.17,26.38-1.71,35.62-10.69c-6.49,1.86-12.74-1.62-19.23-0.7         c1.11-0.16,4.29-3.36,5.7-4.01c2.3-1.07,4.82-1.68,7.13-2.71c-3.9-1.23-10.15-2.58-14.04-0.51         C37.99,4.4,44.46,1.28,50.18,1.33z"></path>
						</g>
						<g id="Group_1000" transform="translate(269.95 52.582)">
							<path id="Path_2586" class="st39" d="M10.74,28.33c-1.61-2.63-5.76-2.86-7.51-6.32C1.16,17.93,0.14,13.4,0.25,8.82         c1.27,1.82,2.68,3.53,4.24,5.11C4.49,8.82,2.49,4.41,0,0c6.49,5.11,8.99,12.55,10.49,19.97c-1.19-1-2.54-1.78-3.99-2.32         C6.5,21.36,8.75,25.07,10.74,28.33z"></path>
						</g>
						<path id="Path_2587" class="st44" d="M206.47,89.22c0,0-13.99-22.67,7.76-36.39s45.56-9.1,53.76-4.22s17.53,14.89,12.87,41.13        c0,0,12.22-23.94-6.71-39.61s-46.58-10.03-62.6-0.08S197.67,79.65,206.47,89.22z"></path>
						<g id="Group_1001" transform="translate(259.639 39.605)">
							<path id="Path_2588" class="st45" d="M0,5.02c3.59-2.11,10.79,4.27,11.73,5.75c2.88-2,1.65-11.6-0.42-10.71         C7.27,1.79,3.65,2.88,0,5.02z"></path>
						</g>
						<g id="Group_1002" transform="translate(272.788 48.695)">
							<path id="Path_2589" class="st45" d="M9.73,12.36C10.24,8.45,1.7,5.02,0,4.84c0.69-3.26,9.83-6.25,9.83-4.12         C9.84,4.86,10.26,8.36,9.73,12.36z"></path>
						</g>
						<g id="Group_1003" transform="translate(267.06 46.794)">
							<path id="Path_2590" class="st45" d="M2.71,0.46C0.46,1.68-0.78,3.4,0.54,5.67C0.9,6.29,5.22,9.98,5.69,9.73         C8,8.56,11.69,7.26,9.85,4.33C8.35,1.98,5.38-1.2,2.71,0.46z"></path>
						</g>
						<ellipse id="Ellipse_101" class="st0" cx="223.2" cy="90.04" rx="0.98" ry="0.91"></ellipse>
						<ellipse id="Ellipse_102" class="st0" cx="263.94" cy="90.57" rx="0.98" ry="0.91"></ellipse>
					</g>
				</g>
			</g>
		</g>
	</g>
	<g class="st46">
		<path class="st47" d="M-5215.94-5965.08h-4.49l-0.87,2.76h-2.59l4.4-12.8h2.63l4.39,12.8h-2.59L-5215.94-5965.08z     M-5219.8-5967.09h3.23l-1.58-5.03h-0.05L-5219.8-5967.09z"></path>
		<path class="st47" d="M-5206.35-5964.94c0-0.28-0.14-0.52-0.41-0.73c-0.27-0.21-0.78-0.39-1.52-0.54    c-1.13-0.23-1.97-0.57-2.54-1.02c-0.57-0.45-0.86-1.06-0.86-1.83c0-0.82,0.34-1.52,1.03-2.09c0.69-0.57,1.61-0.86,2.76-0.86    c1.21,0,2.18,0.29,2.9,0.85c0.72,0.57,1.06,1.29,1.03,2.15l-0.02,0.05h-2.48c0-0.38-0.12-0.69-0.36-0.93    c-0.24-0.24-0.6-0.36-1.07-0.36c-0.42,0-0.74,0.1-0.98,0.3c-0.24,0.2-0.36,0.46-0.36,0.76c0,0.29,0.13,0.53,0.37,0.72    c0.25,0.19,0.75,0.36,1.52,0.5c1.17,0.23,2.04,0.58,2.61,1.03c0.57,0.46,0.85,1.08,0.85,1.88c0,0.86-0.37,1.55-1.1,2.1    c-0.73,0.54-1.7,0.81-2.9,0.81c-1.27,0-2.27-0.32-3-0.96c-0.73-0.64-1.08-1.37-1.05-2.19l0.02-0.05h2.35    c0.02,0.51,0.18,0.88,0.5,1.11s0.73,0.34,1.24,0.34c0.47,0,0.84-0.09,1.09-0.28C-5206.48-5964.36-5206.35-5964.62-5206.35-5964.94    z"></path>
		<path class="st47" d="M-5197.07-5964.94c0-0.28-0.14-0.52-0.41-0.73c-0.27-0.21-0.78-0.39-1.52-0.54    c-1.13-0.23-1.97-0.57-2.54-1.02c-0.57-0.45-0.86-1.06-0.86-1.83c0-0.82,0.34-1.52,1.03-2.09c0.69-0.57,1.61-0.86,2.76-0.86    c1.21,0,2.18,0.29,2.9,0.85c0.72,0.57,1.06,1.29,1.03,2.15l-0.02,0.05h-2.48c0-0.38-0.12-0.69-0.36-0.93    c-0.24-0.24-0.6-0.36-1.07-0.36c-0.42,0-0.74,0.1-0.98,0.3c-0.24,0.2-0.36,0.46-0.36,0.76c0,0.29,0.13,0.53,0.37,0.72    c0.25,0.19,0.75,0.36,1.52,0.5c1.17,0.23,2.04,0.58,2.61,1.03c0.57,0.46,0.85,1.08,0.85,1.88c0,0.86-0.37,1.55-1.1,2.1    c-0.73,0.54-1.7,0.81-2.9,0.81c-1.27,0-2.27-0.32-3-0.96c-0.73-0.64-1.08-1.37-1.05-2.19l0.02-0.05h2.35    c0.02,0.51,0.18,0.88,0.5,1.11s0.73,0.34,1.24,0.34c0.47,0,0.84-0.09,1.09-0.28C-5197.2-5964.36-5197.07-5964.62-5197.07-5964.94z    "></path>
		<path class="st47" d="M-5187.12-5963.69c-0.29,0.5-0.67,0.88-1.12,1.15s-0.97,0.4-1.56,0.4c-1,0-1.79-0.32-2.35-0.96    c-0.56-0.64-0.85-1.64-0.85-2.99v-5.74h2.56v5.77c0,0.69,0.12,1.19,0.35,1.49s0.58,0.45,1.04,0.45c0.41,0,0.76-0.07,1.05-0.2    c0.29-0.13,0.53-0.33,0.72-0.59v-6.93h2.57v9.51h-2.19L-5187.12-5963.69z"></path>
		<path class="st47" d="M-5177.77-5969.62l-0.94-0.03c-0.38,0-0.69,0.08-0.94,0.24s-0.43,0.38-0.56,0.67v6.42h-2.56v-9.51h2.38    l0.11,1.41c0.22-0.5,0.51-0.88,0.87-1.16c0.35-0.28,0.76-0.42,1.23-0.42c0.13,0,0.25,0.01,0.36,0.03    c0.11,0.02,0.22,0.04,0.33,0.07L-5177.77-5969.62z"></path>
		<path class="st47" d="M-5172.26-5962.13c-1.37,0-2.47-0.44-3.29-1.32s-1.23-2-1.23-3.35v-0.35c0-1.41,0.39-2.57,1.17-3.49    c0.78-0.91,1.82-1.37,3.12-1.36c1.28,0,2.28,0.39,2.99,1.16s1.06,1.82,1.06,3.14v1.4h-5.68l-0.02,0.05    c0.05,0.63,0.26,1.14,0.63,1.54c0.37,0.4,0.88,0.6,1.52,0.6c0.57,0,1.04-0.06,1.42-0.17c0.38-0.11,0.79-0.29,1.23-0.54l0.69,1.58    c-0.39,0.32-0.89,0.58-1.52,0.79S-5171.49-5962.13-5172.26-5962.13z M-5172.49-5970.03c-0.47,0-0.85,0.18-1.13,0.54    s-0.45,0.84-0.51,1.43l0.03,0.04h3.15v-0.23c0-0.54-0.13-0.98-0.38-1.31C-5171.59-5969.87-5171.97-5970.03-5172.49-5970.03z"></path>
	</g>
	<g class="st46">
		<path class="st47" d="M-5220.08-5942.32h-2.57v-12.8h2.57V-5942.32z"></path>
		<path class="st47" d="M-5215.39-5951.83l0.11,1.36c0.32-0.49,0.71-0.87,1.17-1.13s0.98-0.4,1.56-0.4c0.96,0,1.71,0.3,2.25,0.91    s0.81,1.55,0.81,2.84v5.94h-2.58v-5.95c0-0.64-0.13-1.09-0.39-1.36s-0.65-0.4-1.17-0.4c-0.34,0-0.64,0.07-0.91,0.21    c-0.27,0.14-0.5,0.33-0.68,0.59v6.91h-2.57v-9.51H-5215.39z"></path>
		<path class="st47" d="M-5206.91-5942.32v-7.71h-1.42v-1.8h1.42v-1.05c0-1.07,0.31-1.89,0.92-2.46c0.62-0.58,1.48-0.87,2.59-0.87    c0.22,0,0.44,0.02,0.66,0.05c0.23,0.03,0.47,0.08,0.74,0.14l-0.22,1.91c-0.14-0.02-0.28-0.04-0.41-0.06    c-0.13-0.02-0.29-0.03-0.46-0.03c-0.42,0-0.73,0.11-0.94,0.34c-0.21,0.23-0.32,0.56-0.32,0.98v1.05h1.89v1.8h-1.89v7.71H-5206.91z    "></path>
		<path class="st47" d="M-5195.56-5942.32c-0.09-0.22-0.17-0.45-0.24-0.69c-0.07-0.24-0.12-0.49-0.14-0.74    c-0.26,0.46-0.61,0.85-1.04,1.15c-0.43,0.3-0.95,0.46-1.54,0.46c-1,0-1.76-0.26-2.3-0.77c-0.54-0.51-0.81-1.21-0.81-2.1    c0-0.93,0.36-1.65,1.08-2.17c0.72-0.51,1.77-0.77,3.14-0.77h1.43v-0.76c0-0.46-0.12-0.81-0.36-1.06s-0.59-0.38-1.06-0.38    c-0.42,0-0.74,0.1-0.96,0.3c-0.23,0.2-0.34,0.48-0.34,0.84l-2.48-0.01l-0.01-0.05c-0.04-0.8,0.31-1.49,1.05-2.08    c0.74-0.58,1.71-0.88,2.91-0.88c1.14,0,2.06,0.29,2.77,0.87c0.71,0.58,1.06,1.4,1.06,2.47v3.93c0,0.45,0.03,0.87,0.1,1.26    c0.07,0.39,0.17,0.78,0.32,1.17H-5195.56z M-5197.91-5944.03c0.45,0,0.85-0.11,1.2-0.33s0.59-0.48,0.71-0.77v-1.35h-1.43    c-0.54,0-0.96,0.14-1.24,0.41c-0.28,0.27-0.42,0.6-0.42,0.99c0,0.32,0.11,0.57,0.32,0.76S-5198.27-5944.03-5197.91-5944.03z"></path>
		<path class="st47" d="M-5189.13-5951.83l0.11,1.36c0.32-0.49,0.71-0.87,1.17-1.13s0.98-0.4,1.56-0.4c0.96,0,1.71,0.3,2.25,0.91    s0.81,1.55,0.81,2.84v5.94h-2.58v-5.95c0-0.64-0.13-1.09-0.39-1.36s-0.65-0.4-1.17-0.4c-0.34,0-0.64,0.07-0.91,0.21    c-0.27,0.14-0.5,0.33-0.68,0.59v6.91h-2.57v-9.51H-5189.13z"></path>
		<path class="st47" d="M-5178.26-5954.16v2.33h1.6v1.8h-1.6v4.84c0,0.37,0.08,0.63,0.23,0.79s0.36,0.24,0.62,0.24    c0.13,0,0.25-0.01,0.35-0.02c0.1-0.01,0.21-0.04,0.34-0.07l0.22,1.86c-0.26,0.09-0.51,0.15-0.76,0.2    c-0.25,0.04-0.51,0.07-0.8,0.07c-0.88,0-1.57-0.24-2.04-0.73c-0.48-0.49-0.72-1.26-0.72-2.31v-4.85h-1.39v-1.8h1.39v-2.33    H-5178.26z"></path>
		<path class="st47" d="M-5172.33-5954.11h-2.57v-1.93h2.57V-5954.11z M-5172.33-5942.32h-2.57v-9.51h2.57V-5942.32z"></path>
		<path class="st47" d="M-5167.52-5942.32h-2.57v-13.71h2.57V-5942.32z"></path>
	</g>
	<g class="st46">
		<path class="st48" d="M-5217.7-5924.92c0-0.38-0.14-0.69-0.41-0.92c-0.27-0.23-0.75-0.45-1.43-0.66    c-1.19-0.34-2.08-0.75-2.69-1.22c-0.61-0.47-0.91-1.11-0.91-1.93c0-0.82,0.35-1.48,1.04-2c0.69-0.52,1.58-0.78,2.66-0.78    c1.09,0,1.98,0.29,2.67,0.87c0.69,0.58,1.02,1.3,1,2.15l-0.01,0.04h-1.93c0-0.46-0.15-0.83-0.46-1.12    c-0.31-0.28-0.74-0.43-1.3-0.43c-0.53,0-0.95,0.12-1.24,0.36c-0.29,0.24-0.44,0.54-0.44,0.91c0,0.34,0.16,0.62,0.47,0.83    c0.31,0.22,0.85,0.45,1.62,0.69c1.1,0.31,1.93,0.71,2.5,1.21c0.56,0.5,0.85,1.16,0.85,1.97c0,0.85-0.34,1.53-1.01,2.02    c-0.67,0.49-1.56,0.74-2.66,0.74c-1.08,0-2.03-0.28-2.84-0.84s-1.2-1.34-1.18-2.35l0.01-0.04h1.94c0,0.59,0.18,1.03,0.54,1.3    c0.36,0.28,0.87,0.41,1.51,0.41c0.54,0,0.96-0.11,1.24-0.33C-5217.84-5924.25-5217.7-5924.54-5217.7-5924.92z"></path>
		<path class="st48" d="M-5212.07-5922.32h-2v-9.95h2V-5922.32z"></path>
		<path class="st48" d="M-5202.04-5922.32h-1.99l-4.02-6.8l-0.04,0.01v6.79h-2v-9.95h2l4.02,6.79l0.04-0.01v-6.79h1.99V-5922.32z"></path>
		<path class="st48" d="M-5194.69-5925.93v3.61h-2v-9.95h3.96c1.14,0,2.04,0.29,2.7,0.88c0.66,0.58,0.98,1.35,0.98,2.3    c0,0.95-0.33,1.72-0.98,2.3c-0.66,0.58-1.56,0.87-2.7,0.87H-5194.69z M-5194.69-5927.47h1.97c0.56,0,0.98-0.15,1.26-0.46    s0.43-0.69,0.43-1.16c0-0.48-0.14-0.88-0.43-1.19c-0.28-0.31-0.71-0.47-1.27-0.47h-1.97V-5927.47z"></path>
		<path class="st48" d="M-5183.37-5924.47h-3.49l-0.68,2.15h-2.02l3.42-9.95h2.04l3.41,9.95h-2.02L-5183.37-5924.47z     M-5186.38-5926.03h2.51l-1.23-3.91h-0.04L-5186.38-5926.03z"></path>
		<path class="st48" d="M-5172.11-5923.68c-0.3,0.39-0.76,0.74-1.38,1.04c-0.63,0.31-1.42,0.46-2.38,0.46    c-1.22,0-2.21-0.38-2.98-1.13c-0.77-0.76-1.16-1.74-1.16-2.95v-2.08c0-1.2,0.37-2.18,1.11-2.94c0.74-0.76,1.69-1.14,2.86-1.14    c1.21,0,2.14,0.29,2.79,0.88c0.64,0.59,0.97,1.37,0.99,2.33l-0.01,0.04h-1.88c-0.04-0.53-0.21-0.95-0.51-1.26    c-0.3-0.31-0.74-0.46-1.32-0.46c-0.61,0-1.1,0.24-1.48,0.71s-0.56,1.08-0.56,1.82v2.09c0,0.76,0.19,1.37,0.58,1.84    c0.39,0.47,0.91,0.71,1.57,0.71c0.46,0,0.84-0.05,1.12-0.14s0.5-0.21,0.64-0.35v-1.84h-1.76v-1.38h3.76V-5923.68z"></path>
		<path class="st48" d="M-5162.39-5926.4c0,1.22-0.39,2.23-1.16,3.03c-0.77,0.8-1.78,1.2-3.01,1.2c-1.23,0-2.22-0.4-2.99-1.2    c-0.77-0.8-1.15-1.81-1.15-3.03v-1.79c0-1.22,0.38-2.23,1.14-3.03c0.76-0.8,1.76-1.2,2.98-1.2c1.23,0,2.24,0.4,3.01,1.2    c0.77,0.8,1.16,1.81,1.16,3.03V-5926.4z M-5164.38-5928.2c0-0.78-0.19-1.41-0.58-1.91s-0.92-0.75-1.6-0.75s-1.21,0.25-1.58,0.74    c-0.37,0.5-0.56,1.13-0.56,1.91v1.81c0,0.79,0.19,1.43,0.57,1.93s0.9,0.75,1.58,0.75c0.68,0,1.22-0.25,1.6-0.75    s0.57-1.14,0.57-1.93V-5928.2z"></path>
		<path class="st48" d="M-5157.34-5922.32v-9.95h3.42c1.22,0,2.22,0.39,3.01,1.17s1.18,1.77,1.18,2.99v1.65    c0,1.22-0.39,2.22-1.18,2.99c-0.79,0.77-1.79,1.16-3.01,1.16H-5157.34z M-5155.35-5930.73v6.88h1.32c0.71,0,1.28-0.24,1.68-0.72    s0.61-1.11,0.61-1.89v-1.66c0-0.77-0.2-1.4-0.61-1.88s-0.97-0.72-1.68-0.72H-5155.35z"></path>
		<path class="st48" d="M-5142.05-5926.7h-4.12v2.84h4.82v1.54h-6.82v-9.95h6.8v1.54h-4.81v2.5h4.12V-5926.7z"></path>
	</g>
	<g class="st46">
		<path class="st48" d="M-5217.73-5904.47h-3.49l-0.68,2.15h-2.02l3.42-9.95h2.04l3.41,9.95h-2.02L-5217.73-5904.47z     M-5220.73-5906.03h2.51l-1.23-3.91h-0.04L-5220.73-5906.03z"></path>
		<path class="st48" d="M-5207.94-5906.46h-4.17v4.13h-2v-9.95h6.86v1.54h-4.87v2.74h4.17V-5906.46z"></path>
		<path class="st48" d="M-5203.91-5902.32h-2v-9.95h2V-5902.32z"></path>
		<path class="st48" d="M-5199.92-5903.86h4.43v1.54h-6.43v-9.95h2V-5903.86z"></path>
		<path class="st48" d="M-5192.23-5902.32h-2v-9.95h2V-5902.32z"></path>
		<path class="st48" d="M-5184.9-5904.47h-3.49l-0.68,2.15h-2.02l3.42-9.95h2.04l3.41,9.95h-2.02L-5184.9-5904.47z M-5187.9-5906.03    h2.51l-1.23-3.91h-0.04L-5187.9-5906.03z"></path>
		<path class="st48" d="M-5173.76-5905.71l0.01,0.04c0.02,1.07-0.31,1.92-0.98,2.55c-0.67,0.63-1.61,0.94-2.8,0.94    c-1.2,0-2.17-0.38-2.92-1.16c-0.75-0.77-1.12-1.76-1.12-2.97v-1.98c0-1.21,0.36-2.2,1.09-2.97c0.73-0.78,1.68-1.16,2.84-1.16    c1.23,0,2.19,0.31,2.88,0.95c0.69,0.63,1.03,1.49,1.01,2.58l-0.01,0.04h-1.94c0-0.66-0.16-1.16-0.47-1.51    c-0.31-0.35-0.8-0.52-1.47-0.52c-0.6,0-1.07,0.24-1.42,0.73c-0.35,0.48-0.53,1.1-0.53,1.85v1.99c0,0.76,0.18,1.38,0.55,1.87    s0.87,0.73,1.5,0.73c0.63,0,1.09-0.17,1.38-0.5c0.3-0.34,0.45-0.83,0.45-1.49H-5173.76z"></path>
		<path class="st48" d="M-5170.21-5902.32h-2v-9.95h2V-5902.32z"></path>
		<path class="st48" d="M-5160.21-5906.4c0,1.22-0.39,2.23-1.16,3.03c-0.77,0.8-1.78,1.2-3.01,1.2c-1.23,0-2.22-0.4-2.99-1.2    c-0.77-0.8-1.15-1.81-1.15-3.03v-1.79c0-1.22,0.38-2.23,1.14-3.03c0.76-0.8,1.76-1.2,2.98-1.2c1.23,0,2.24,0.4,3.01,1.2    c0.77,0.8,1.16,1.81,1.16,3.03V-5906.4z M-5162.21-5908.2c0-0.78-0.19-1.41-0.58-1.91s-0.92-0.75-1.6-0.75s-1.21,0.25-1.58,0.74    c-0.37,0.5-0.56,1.13-0.56,1.91v1.81c0,0.79,0.19,1.43,0.57,1.93s0.9,0.75,1.58,0.75c0.68,0,1.22-0.25,1.6-0.75    s0.57-1.14,0.57-1.93V-5908.2z M-5164.02-5914.95h2.11l0.01,0.04l-1.89,1.78h-1.59L-5164.02-5914.95z"></path>
		<path class="st48" d="M-5150.61-5902.32h-1.99l-4.02-6.8l-0.04,0.01v6.79h-2v-9.95h2l4.02,6.79l0.04-0.01v-6.79h1.99V-5902.32z"></path>
	</g>
	<g class="st46">
		<path class="st47" d="M-5332.07-5902.32h-39.09v-6.46l19.14-25.17c3.09-4.37,5.26-7.99,6.48-10.86c1.23-2.87,1.84-5.64,1.84-8.33    c0-3.68-0.77-6.68-2.32-9.01c-1.55-2.32-3.68-3.48-6.39-3.48c-3.41,0-5.97,1.29-7.68,3.85c-1.71,2.57-2.56,6.07-2.56,10.5h-9.33    l-0.1-0.24c-0.13-6.03,1.58-11.12,5.12-15.26s8.39-6.22,14.55-6.22c5.68,0,10.17,1.79,13.47,5.38c3.3,3.59,4.95,8.33,4.95,14.24    c0,3.99-1.01,7.92-3.04,11.79c-2.03,3.88-4.97,8.21-8.83,12.99l-13.16,18.9h26.94V-5902.32z"></path>
		<path class="st47" d="M-5311.36-5908.68c3.54,0,6.4-1.64,8.59-4.92c2.18-3.28,3.28-8.02,3.28-14.2v-3.41    c-1.34,2.29-2.98,4.03-4.93,5.21c-1.95,1.18-4.07,1.77-6.36,1.77c-5.55,0-9.95-2.14-13.18-6.44c-3.24-4.29-4.86-10.1-4.86-17.44    c0-7.11,1.83-13.04,5.48-17.78c3.65-4.74,8.17-7.11,13.57-7.11c6.03,0,10.87,2.3,14.52,6.89c3.65,4.59,5.48,11.21,5.48,19.86    v18.18c0,8.49-2.01,15.07-6.03,19.74c-4.02,4.67-9.2,7.01-15.55,7.01c-1.98,0-4.05-0.25-6.22-0.74c-2.17-0.49-4.18-1.2-6.03-2.13    l1.29-7.08c1.69,0.93,3.4,1.59,5.14,1.98C-5315.44-5908.88-5313.5-5908.68-5311.36-5908.68z M-5309.78-5931.61    c2.49,0,4.6-0.71,6.34-2.13c1.74-1.42,3.05-3.25,3.95-5.48v-8.09c0-6-0.89-10.55-2.68-13.66c-1.79-3.11-4.28-4.66-7.46-4.66    c-2.71,0-4.97,1.67-6.77,5.02c-1.8,3.35-2.7,7.48-2.7,12.39s0.82,8.91,2.46,11.99    C-5315.01-5933.14-5312.72-5931.61-5309.78-5931.61z"></path>
	</g>
	<g class="st46">
		<path class="st47" d="M-5281-5949.32h-2.99v-2.97h2.99V-5949.32z"></path>
		<path class="st47" d="M-5273.4-5951.27c1.08,0,1.96-0.5,2.63-1.51s1-2.45,1-4.35v-1.04c-0.41,0.7-0.91,1.23-1.51,1.6    s-1.25,0.54-1.95,0.54c-1.7,0-3.04-0.66-4.04-1.97c-0.99-1.31-1.49-3.09-1.49-5.34c0-2.18,0.56-3.99,1.68-5.44    c1.12-1.45,2.5-2.17,4.15-2.17c1.85,0,3.33,0.7,4.45,2.11s1.68,3.43,1.68,6.08v5.57c0,2.6-0.62,4.61-1.85,6.04    c-1.23,1.43-2.82,2.15-4.76,2.15c-0.61,0-1.24-0.08-1.9-0.23c-0.66-0.15-1.28-0.37-1.85-0.65l0.4-2.17    c0.52,0.28,1.04,0.49,1.57,0.61C-5274.65-5951.33-5274.05-5951.27-5273.4-5951.27z M-5272.92-5958.29c0.76,0,1.41-0.22,1.94-0.65    c0.53-0.43,0.94-0.99,1.21-1.68v-2.48c0-1.84-0.27-3.23-0.82-4.18c-0.55-0.95-1.31-1.43-2.29-1.43c-0.83,0-1.52,0.51-2.07,1.54    s-0.83,2.29-0.83,3.79s0.25,2.73,0.75,3.67C-5274.52-5958.76-5273.82-5958.29-5272.92-5958.29z"></path>
		<path class="st47" d="M-5253.15-5957.57c0,2.76-0.53,4.88-1.59,6.35c-1.06,1.47-2.5,2.21-4.31,2.21c-1.83,0-3.27-0.74-4.34-2.21    c-1.07-1.47-1.6-3.59-1.6-6.34v-4.82c0-2.74,0.53-4.86,1.6-6.34s2.5-2.23,4.32-2.23s3.26,0.74,4.33,2.23    c1.07,1.48,1.6,3.6,1.6,6.34V-5957.57z M-5256.11-5962.83c0-1.94-0.26-3.4-0.77-4.39c-0.51-0.99-1.25-1.48-2.2-1.48    s-1.69,0.5-2.19,1.49c-0.5,0.99-0.75,2.45-0.75,4.38v5.66c0,1.94,0.26,3.4,0.77,4.4c0.51,1,1.25,1.5,2.2,1.5    c0.95,0,1.67-0.5,2.18-1.49c0.51-0.99,0.76-2.46,0.76-4.41V-5962.83z"></path>
	</g>
	<g class="st46">
		<path class="st47" d="M-5395.66-5943.21c0-1.47-0.42-2.69-1.25-3.63c-0.83-0.95-2.28-1.78-4.36-2.49    c-2.98-0.9-5.26-2.08-6.85-3.53c-1.59-1.45-2.38-3.37-2.38-5.76c0-2.46,0.88-4.48,2.65-6.06c1.77-1.58,4.04-2.37,6.82-2.37    c2.89,0,5.22,0.91,6.99,2.74c1.77,1.83,2.62,4.03,2.57,6.61l-0.04,0.13h-4.19c0-1.82-0.47-3.31-1.41-4.45    c-0.94-1.14-2.26-1.71-3.96-1.71c-1.62,0-2.87,0.48-3.75,1.43s-1.32,2.17-1.32,3.64c0,1.33,0.47,2.45,1.42,3.36    s2.51,1.74,4.68,2.48c2.85,0.89,5.02,2.1,6.51,3.63c1.49,1.54,2.23,3.52,2.23,5.96c0,2.57-0.88,4.6-2.64,6.11    s-4.08,2.26-6.94,2.26c-2.79,0-5.23-0.83-7.32-2.48s-3.09-3.99-3.02-6.99l0.04-0.13h4.19c0,2.14,0.56,3.73,1.69,4.75    c1.12,1.03,2.6,1.54,4.42,1.54c1.63,0,2.91-0.45,3.83-1.36S-5395.66-5941.67-5395.66-5943.21z"></path>
		<path class="st47" d="M-5386.26-5932.63h-3.42l10.36-33.97h3.42L-5386.26-5932.63z"></path>
	</g>
	<line id="Line_36" class="st49" x1="-5239.5" y1="-5980.5" x2="-5239.5" y2="-5889.5"></line>
</g>
</svg>