<svg xmlns="http://www.w3.org/2000/svg" xmlns:xlink="http://www.w3.org/1999/xlink" viewBox="0 0 157.046 157.046"><defs><style>
      .cls-1 {
        fill: #fff;
      }

      .cls-2 {
        clip-path: url(#clip-path);
      }

      .cls-3 {
        fill: #e6e6e6;
      }

      .cls-4 {
        fill: #d3d3d3;
      }

      .cls-5 {
        fill: #fd5d65;
      }

      .cls-6 {
        fill: #e54e5c;
      }

      .cls-7 {
        fill: #e0b394;
      }

      .cls-8 {
        fill: #f7cba4;
      }

      .cls-9 {
        fill: #d7e9f4;
      }

      .cls-10 {
        fill: #b6cdd8;
      }

      .cls-11 {
        fill: #ed7c58;
      }

      .cls-12 {
        fill: #4d4d4d;
      }

      .cls-13 {
        fill: #ad653d;
      }

      .cls-14 {
        fill: #965535;
      }

      .cls-15 {
        fill: gray;
      }

      .cls-16 {
        fill: #ccc;
      }
    </style><clipPath id="clip-path"><rect id="Rectangle_208" data-name="Rectangle 208" class="cls-1" width="157.046" height="157.046"></rect></clipPath></defs><g id="Mask_Group_3" data-name="Mask Group 3" class="cls-2"><g id="abuelos" transform="translate(1.765 22.939)"><path id="Path_1510" data-name="Path 1510" class="cls-3" d="M105.2,49.154c0,.235-.006.467-.018.7a14.256,14.256,0,0,1-28.478,0c-.012-.232-.018-.464-.018-.7a14.257,14.257,0,0,1,28.514,0Z" transform="translate(-53.428 -34.898)"></path><path id="Path_1511" data-name="Path 1511" class="cls-4" d="M82.339,49.153A14.26,14.26,0,0,1,93.772,35.178a14.256,14.256,0,1,0,0,27.951A14.26,14.26,0,0,1,82.339,49.153Z" transform="translate(-53.432 -34.897)"></path><path id="Path_1512" data-name="Path 1512" class="cls-5" d="M79.733,343.1v26.778H11.948V343.1A20.253,20.253,0,0,1,28.32,323.2H63.36a20.253,20.253,0,0,1,16.372,19.9Z" transform="translate(-8.324 -235.761)"></path><g id="Group_489" data-name="Group 489" transform="translate(3.623 87.437)"><path id="Path_1513" data-name="Path 1513" class="cls-6" d="M36.939,323.2H28.317a20.28,20.28,0,0,0-16.372,19.9v26.778h8.622V343.1A20.28,20.28,0,0,1,36.939,323.2Z" transform="translate(-11.945 -323.199)"></path><path id="Path_1514" data-name="Path 1514" class="cls-6" d="M97.177,324l-10.411,7.563a17.071,17.071,0,0,1-20.068,0L56.286,324a20.374,20.374,0,0,1,2.925-.8h35.04A20.361,20.361,0,0,1,97.177,324Z" transform="translate(-42.838 -323.198)"></path></g><g id="Group_490" data-name="Group 490" transform="translate(0 48.147)"><path id="Path_1515" data-name="Path 1515" class="cls-7" d="M6.621,207.516a6.937,6.937,0,0,1,.315-13.866,6.749,6.749,0,0,1,1.017.074" transform="translate(0 -193.65)"></path><path id="Path_1516" data-name="Path 1516" class="cls-7" d="M222.494,207.516a6.937,6.937,0,0,0-.315-13.866,7.131,7.131,0,0,0-1.017.074" transform="translate(-154.087 -193.65)"></path></g><path id="Path_1517" data-name="Path 1517" class="cls-8" d="M106.916,302.523v16.515a12.938,12.938,0,0,1-25.877,0V302.523Z" transform="translate(-56.461 -221.357)"></path><path id="Path_1518" data-name="Path 1518" class="cls-7" d="M106.914,302.523v12.525l-2.9,2.111a17.062,17.062,0,0,1-20.068,0l-2.9-2.111V302.523Z" transform="translate(-56.46 -221.357)"></path><path id="Path_1519" data-name="Path 1519" class="cls-8" d="M41.267,159.641l-12.2-8.867a22.5,22.5,0,0,1-9.171-20.368l2.117-21.9A29.429,29.429,0,0,1,51.3,81.9h0a29.429,29.429,0,0,1,29.293,26.6l2.117,21.9a22.5,22.5,0,0,1-9.171,20.368l-12.2,8.867A17.069,17.069,0,0,1,41.267,159.641Z" transform="translate(-13.786 -67.647)"></path><path id="Path_1520" data-name="Path 1520" class="cls-7" d="M27.49,134.74a13.582,13.582,0,0,0,3.16,9.543l12.755,15.674a10.16,10.16,0,0,0,2.239,1.992,16.952,16.952,0,0,1-4.373-2.292l-12.2-8.866A22.5,22.5,0,0,1,19.9,130.423l2.114-21.905A29.424,29.424,0,0,1,50.865,81.927c-9.216.223-19.652,8.91-20.2,18.162Z" transform="translate(-13.79 -67.664)"></path><path id="Path_1521" data-name="Path 1521" class="cls-4" d="M105.223,75.77a14.256,14.256,0,0,1-28.478,0,29.326,29.326,0,0,1,13.533-3.663c.089,0,.178,0,.268,0,.146-.006.291-.006.44-.006A29.292,29.292,0,0,1,105.223,75.77Z" transform="translate(-53.47 -60.816)"></path><path id="Path_1522" data-name="Path 1522" class="cls-3" d="M86.052,112.157c-14.06,0-21.914-14.96-21.914-14.96s-6.565,12.145-29.2,11.856a71.309,71.309,0,0,1-7.828-.55h0A29.429,29.429,0,0,1,55.7,81.913c.089,0,.178,0,.267,0,.146-.006.291-.006.44-.006A29.429,29.429,0,0,1,85.7,108.5Z" transform="translate(-18.889 -67.648)"></path><path id="Path_1523" data-name="Path 1523" class="cls-4" d="M55.966,81.923c-9.216.223-19.655,8.91-20.2,18.162l-.823,8.981a71.3,71.3,0,0,1-7.828-.55h0A29.429,29.429,0,0,1,55.7,81.926C55.788,81.923,55.877,81.923,55.966,81.923Z" transform="translate(-18.89 -67.661)"></path><g id="Group_491" data-name="Group 491" transform="translate(16.323 52.607)"><circle id="Ellipse_57" data-name="Ellipse 57" class="cls-9" cx="8.325" cy="8.325" r="8.325" transform="translate(25.737)"></circle><circle id="Ellipse_58" data-name="Ellipse 58" class="cls-9" cx="8.325" cy="8.325" r="8.325"></circle></g><g id="Group_492" data-name="Group 492" transform="translate(21.081 57.662)"><path id="Path_1524" data-name="Path 1524" class="cls-10" d="M159.713,228.59h-3.566a1.784,1.784,0,0,1,0-3.568h3.566a1.784,1.784,0,0,1,0,3.568Z" transform="translate(-128.628 -225.022)"></path><path id="Path_1525" data-name="Path 1525" class="cls-10" d="M74.858,228.59H71.292a1.784,1.784,0,0,1,0-3.568h3.566a1.784,1.784,0,1,1,0,3.568Z" transform="translate(-69.508 -225.022)"></path></g><path id="Path_1526" data-name="Path 1526" class="cls-7" d="M115.925,244.628l3.87-1.031a2.234,2.234,0,0,0,1.583-2.734l-2.638-9.9" transform="translate(-80.767 -171.5)"></path><path id="Path_1527" data-name="Path 1527" class="cls-11" d="M81.894,204.3a1.486,1.486,0,0,0-2.1-.154l-7.241,6.248a9.811,9.811,0,0,0-19.079,1.388H47.139a9.811,9.811,0,0,0-19.079-1.388l-7.241-6.248a1.486,1.486,0,0,0-1.942,2.251l8.781,7.576a9.81,9.81,0,0,0,19.481.782h6.338a9.81,9.81,0,0,0,19.481-.782L81.74,206.4A1.487,1.487,0,0,0,81.894,204.3ZM37.441,220.106a6.838,6.838,0,1,1,6.838-6.838A6.846,6.846,0,0,1,37.441,220.106Zm25.735,0a6.838,6.838,0,1,1,6.838-6.838A6.846,6.846,0,0,1,63.176,220.106Z" transform="translate(-12.793 -152.336)"></path><g id="Group_493" data-name="Group 493" transform="translate(14.918 105.786)"><path id="Path_1528" data-name="Path 1528" class="cls-6" d="M53.648,412.027h-4.46l2.23-28.327Z" transform="translate(-49.188 -383.7)"></path><path id="Path_1529" data-name="Path 1529" class="cls-6" d="M187.946,412.027h-4.459l2.23-28.327Z" transform="translate(-142.756 -383.7)"></path></g><path id="Path_1530" data-name="Path 1530" class="cls-12" d="M96.984,288.678c1.719.391,3.073.7,4.386.867a27.415,27.415,0,0,0,3.716.26,28.068,28.068,0,0,0,3.713-.265c1.312-.167,2.665-.474,4.389-.861a6.955,6.955,0,0,1-3.046,4.105,9.353,9.353,0,0,1-10.108-.006A6.983,6.983,0,0,1,96.984,288.678Z" transform="translate(-67.57 -211.711)"></path><path id="Path_1531" data-name="Path 1531" class="cls-13" d="M344.34,303.181v38.884H276.555V303.181a20.279,20.279,0,0,1,16.372-19.9h35.046a20.271,20.271,0,0,1,16.367,19.9Z" transform="translate(-192.68 -207.952)"></path><path id="Path_1532" data-name="Path 1532" class="cls-14" d="M301.546,283.279h-8.622a20.28,20.28,0,0,0-16.372,19.9v38.884h8.622V303.177A20.28,20.28,0,0,1,301.546,283.279Z" transform="translate(-192.678 -207.949)"></path><g id="Group_494" data-name="Group 494" transform="translate(80.251 36.92)"><path id="Path_1533" data-name="Path 1533" class="cls-7" d="M271.228,170.5a6.937,6.937,0,0,1,.315-13.866,6.749,6.749,0,0,1,1.017.074" transform="translate(-264.607 -156.632)"></path><path id="Path_1534" data-name="Path 1534" class="cls-7" d="M487.1,170.5a6.937,6.937,0,0,0-.315-13.866,7.142,7.142,0,0,0-1.017.074" transform="translate(-418.694 -156.632)"></path></g><path id="Path_1535" data-name="Path 1535" class="cls-8" d="M305.874,122.625l-12.2-8.867A22.5,22.5,0,0,1,284.5,93.39l2.117-21.9a29.429,29.429,0,0,1,29.293-26.6h0a29.429,29.429,0,0,1,29.293,26.6l2.117,21.9a22.5,22.5,0,0,1-9.171,20.368l-12.2,8.867A17.07,17.07,0,0,1,305.874,122.625Z" transform="translate(-198.142 -41.857)"></path><g id="Group_495" data-name="Group 495" transform="translate(86.254 3.037)"><path id="Path_1536" data-name="Path 1536" class="cls-7" d="M342.539,196.829s.9,6.161-6.685,8.391c0,0,5.355-4.839,3.122-7.73" transform="translate(-320.249 -150.755)"></path><path id="Path_1537" data-name="Path 1537" class="cls-7" d="M292.1,97.723a13.582,13.582,0,0,0,3.16,9.543l12.755,15.674a10.154,10.154,0,0,0,2.239,1.992,16.955,16.955,0,0,1-4.373-2.292l-12.2-8.866a22.5,22.5,0,0,1-9.169-20.368L286.619,71.5A29.423,29.423,0,0,1,315.473,44.91c-9.216.223-19.652,8.91-20.2,18.162Z" transform="translate(-284.401 -44.91)"></path></g><path id="Path_1538" data-name="Path 1538" class="cls-15" d="M337.229,193.936h-3.566a2.23,2.23,0,1,1,0-4.459h3.566a2.23,2.23,0,0,1,0,4.459Z" transform="translate(-230.915 -142.595)"></path><path id="Path_1539" data-name="Path 1539" class="cls-7" d="M418.635,196.829s-.9,6.161,6.685,8.391c0,0-5.355-4.839-3.122-7.73" transform="translate(-291.647 -147.718)"></path><g id="Group_496" data-name="Group 496" transform="translate(97.501 36.153)"><path id="Path_1540" data-name="Path 1540" class="cls-3" d="M420.89,160.074a1.926,1.926,0,0,1-1.366-.566,5.284,5.284,0,0,0-7.463,0,1.932,1.932,0,1,1-2.733-2.733,9.152,9.152,0,0,1,12.929,0,1.932,1.932,0,0,1-1.367,3.3Z" transform="translate(-382.292 -154.102)"></path><path id="Path_1541" data-name="Path 1541" class="cls-3" d="M333.613,160.074a1.926,1.926,0,0,1-1.366-.566,5.283,5.283,0,0,0-7.463,0,1.932,1.932,0,1,1-2.733-2.733,9.152,9.152,0,0,1,12.929,0,1.932,1.932,0,0,1-1.367,3.3Z" transform="translate(-321.485 -154.102)"></path></g><rect id="Rectangle_132" data-name="Rectangle 132" class="cls-14" width="3.568" height="47.623" transform="translate(115.984 86.489)"></rect><path id="Path_1542" data-name="Path 1542" class="cls-15" d="M424.507,193.936h-3.567a2.23,2.23,0,0,1,0-4.459h3.567a2.23,2.23,0,1,1,0,4.459Z" transform="translate(-291.723 -142.595)"></path><path id="Path_1543" data-name="Path 1543" class="cls-14" d="M358.163,277a17.3,17.3,0,0,1-.342,2.925c-.779,4.079-3.362,11.31-11.889,14.22l-1.487-4.757-9.514,11.3-9.513-11.3-1.487,4.757c-8.527-2.911-11.11-10.141-11.892-14.22A17.32,17.32,0,0,1,311.7,277c6.945,3.119,16.224,4.213,21.195-2.146a14.1,14.1,0,0,0,2.04-3.669,6.469,6.469,0,0,0,3.285,3.669c3.9,1.906,9.849.461,14.241,0a20.1,20.1,0,0,1,5.693,2.037C358.157,276.928,358.16,276.964,358.163,277Z" transform="translate(-217.165 -199.525)"></path><g id="Group_497" data-name="Group 497" transform="translate(89.294 57.963)"><path id="Path_1544" data-name="Path 1544" class="cls-3" d="M351.367,239.005a27.514,27.514,0,0,1-5.239,3.053c-8.063,3.621-19.268,4.513-23.231-5.815-2.738,7.126-8.922,8.91-15.142,8.143a28.7,28.7,0,0,1-8.092-2.328,27.517,27.517,0,0,1-5.239-3.053c6.172,0,8.651-6.6,14.972-10.566l.006-.006A18.28,18.28,0,0,1,312.185,227c3.9-1.606,6.746-1,8.687.122a5.827,5.827,0,0,1,2.031,1.968,5.979,5.979,0,0,1,2.212-2.078c1.935-1.053,4.721-1.564,8.494-.012C342.112,230.5,344.365,239.005,351.367,239.005Z" transform="translate(-294.424 -226.017)"></path><path id="Path_1545" data-name="Path 1545" class="cls-3" d="M358.163,265.553a17.3,17.3,0,0,1-.342,2.925c-.779,4.079-3.362,11.309-11.889,14.22l-1.487-4.757-9.514,11.3-9.514-11.3-.895,2.863-.592,1.894c-8.526-2.911-11.11-10.141-11.892-14.22a17.321,17.321,0,0,1-.342-2.925,29.12,29.12,0,0,0,7.162,2.191c6.526,1.071,13.2-.523,16.073-8.006C338.895,270.066,350.1,269.174,358.163,265.553Z" transform="translate(-306.459 -249.511)"></path></g><path id="Path_1546" data-name="Path 1546" class="cls-16" d="M358.163,265.551a17.3,17.3,0,0,1-.342,2.925c-8.033,3.493-18.982,4.216-22.889-5.967-3.909,10.183-14.859,9.46-22.892,5.967a17.321,17.321,0,0,1-.342-2.925c8.063,3.621,19.268,4.513,23.234-5.815C338.895,270.065,350.1,269.173,358.163,265.551Z" transform="translate(-217.165 -191.546)"></path><g id="Group_498" data-name="Group 498" transform="translate(84.615 18.868)"><path id="Path_1547" data-name="Path 1547" class="cls-3" d="M459.4,103.059a2.232,2.232,0,0,1-.386-.034l-8.528-1.487a2.23,2.23,0,0,1,.766-4.393l8.528,1.487a2.23,2.23,0,0,1-.38,4.427Z" transform="translate(-397.188 -97.111)"></path><path id="Path_1548" data-name="Path 1548" class="cls-3" d="M466.944,129.969a2.251,2.251,0,0,1-.414-.039l-7.918-1.487a2.23,2.23,0,0,1,.823-4.383l7.918,1.487a2.23,2.23,0,0,1-.409,4.422Z" transform="translate(-402.871 -115.86)"></path><path id="Path_1549" data-name="Path 1549" class="cls-3" d="M287.369,103.058a2.23,2.23,0,0,1-.38-4.427l8.528-1.487a2.23,2.23,0,0,1,.766,4.393l-8.529,1.487A2.227,2.227,0,0,1,287.369,103.058Z" transform="translate(-283.278 -97.111)"></path><path id="Path_1550" data-name="Path 1550" class="cls-3" d="M281.224,129.97a2.23,2.23,0,0,1-.409-4.422l7.918-1.487a2.23,2.23,0,1,1,.823,4.383l-7.918,1.487A2.224,2.224,0,0,1,281.224,129.97Z" transform="translate(-278.996 -115.861)"></path></g><g id="Group_499" data-name="Group 499" transform="translate(95.169 95.464)"><path id="Path_1551" data-name="Path 1551" class="cls-14" d="M318.254,388.316h-4.459l2.23-38.649Z" transform="translate(-313.795 -349.667)"></path><path id="Path_1552" data-name="Path 1552" class="cls-14" d="M452.554,388.316h-4.46l2.23-38.649Z" transform="translate(-407.363 -349.667)"></path></g><path id="Path_1553" data-name="Path 1553" class="cls-7" d="M388.325,204.753l3.87-1.031a2.234,2.234,0,0,0,1.583-2.734l-2.638-9.9" transform="translate(-270.553 -143.719)"></path><g id="Group_500" data-name="Group 500" transform="translate(122.825 101.359)"><circle id="Ellipse_59" data-name="Ellipse 59" class="cls-12" cx="2.23" cy="2.23" r="2.23"></circle><circle id="Ellipse_60" data-name="Ellipse 60" class="cls-12" cx="2.23" cy="2.23" r="2.23" transform="translate(0 10.478)"></circle><circle id="Ellipse_61" data-name="Ellipse 61" class="cls-12" cx="2.23" cy="2.23" r="2.23" transform="translate(0 21.001)"></circle></g><g id="Group_501" data-name="Group 501" transform="translate(89.294 60.385)"><path id="Path_1554" data-name="Path 1554" class="cls-16" d="M324.525,294.163l-.592,1.894c-8.527-2.911-11.11-10.141-11.892-14.22a17.321,17.321,0,0,1-.342-2.925,29.13,29.13,0,0,0,7.162,2.191,4.4,4.4,0,0,1,.166,1.225A14.517,14.517,0,0,0,324.525,294.163Z" transform="translate(-306.46 -265.292)"></path><path id="Path_1555" data-name="Path 1555" class="cls-16" d="M302.978,245.241c.746,2.491,3.107,3.957,4.778,4.709a28.7,28.7,0,0,1-8.092-2.328,27.515,27.515,0,0,1-5.239-3.053c6.172,0,8.651-6.6,14.972-10.566C309.183,234.206,301.8,241.3,302.978,245.241Z" transform="translate(-294.425 -234.003)"></path></g></g></g></svg>