<svg xmlns="http://www.w3.org/2000/svg" id="Group_1240" data-name="Group 1240" viewBox="0 0 382.266 410.022"><defs><style>
      .cls-1 {
        fill: #d0d2d3;
      }

      .cls-2 {
        fill: #bbbdbf;
      }

      .cls-3 {
        fill: #7bcdd1;
      }

      .cls-4 {
        fill: #486ca8;
      }

      .cls-5 {
        fill: #4e81ac;
      }

      .cls-6 {
        fill: #181b1d;
      }

      .cls-7 {
        fill: #6eb6b6;
      }

      .cls-8 {
        fill: #5a39b1;
      }

      .cls-9 {
        fill: #4927a2;
      }

      .cls-10 {
        fill: #f8c399;
      }

      .cls-11 {
        fill: #e8af82;
      }

      .cls-12 {
        fill: #27028a;
      }

      .cls-13 {
        fill: #1a0060;
      }

      .cls-14 {
        fill: #4f79b7;
      }

      .cls-15 {
        fill: #df9f86;
      }

      .cls-16 {
        fill: #faebd9;
      }

      .cls-17 {
        fill: #d4bea4;
      }

      .cls-18 {
        fill: #8b8684;
      }

      .cls-19 {
        fill: none;
      }

      .cls-20 {
        fill: #311f1d;
      }

      .cls-21 {
        fill: #fff;
      }

      .cls-22 {
        fill: #e8a672;
      }

      .cls-23 {
        fill: #e8a671;
      }

      .cls-24 {
        fill: #9c6958;
      }

      .cls-25 {
        fill: #52342d;
      }

      .cls-26 {
        fill: #d46172;
      }

      .cls-27 {
        fill: #684942;
      }

      .cls-28 {
        fill: #6db4b4;
      }
    </style></defs><g id="Group_430" data-name="Group 430"><path id="Path_1280" data-name="Path 1280" class="cls-1" d="M68,82.391a4.015,4.015,0,0,1-4.016-4.016V61.207H0V0H99.138V61.207H72.029V74.347h78.112V11.033a4.015,4.015,0,0,1,4.016-4.016h39.892a4.015,4.015,0,0,1,4.016,4.016V32.9h22.289a4.061,4.061,0,0,1,2.291.711l20.789,14.43a5.462,5.462,0,0,1,.421.355c14.535-11.283,17.55-11.375,28.688-1.725l-41.59,36.074S216.1,70.436,236.89,53.887c.132-.105.263-.211.408-.316L219.09,40.932H194.036a4.015,4.015,0,0,1-4.016-4.016V15.048H158.173V226.726l14.232-7.36,93.476-.408-9.453-18.84H218.156v-2.949h-.935a3.322,3.322,0,0,1-3.436-3.647,4.3,4.3,0,0,1,3.212-4.45h43.144s3.212-.145,2.989,4.055c-.132,2.5-1.382,3.463-2.357,3.818l11.783,22.026h-.026c2.91.211,8.61,1.527,8.926,8.466l12.731-15.272s-12.731-8.913-5.516-16.971,52.189-68.738,52.189-68.738,15.272-14.008,20.789,7.636L367.4,138.2l-2.528-1.8,11.375-15.654-5.688-4.476-4.41,5.727-3.581-2.278s-3.963,2.3-6.912-.132-.645-6.017-.645-6.017l14.838-16.628s3.713-3.068,7.162,0a4.324,4.324,0,0,1,.645,6.267L380.344,105l-6.135,7.425,8.057,6.912L368.218,138.78l2.344,1.672-77.23,102.692,20.789,61.1-81.891,36.5,10.414,12.152h129.5a5.674,5.674,0,1,1,0,11.349H26.977a5.674,5.674,0,1,1,0-11.349H168.995V329.708l98.874-37.759H185.979l-13.074-20.591H154.157a4.015,4.015,0,0,1-4.016-4.016v-12.85L81.18,289.843s-8.913,3.818-14.008-4.239,5.1-14.43,5.1-14.43l77.875-40.261V82.391Zm90.172,180.923H167.8l-1.764-2.778V246.317l-7.86,4.029Z"></path><path id="Path_1281" data-name="Path 1281" class="cls-2" d="M244.43,180.46s-2.725,11.507-23.922,10.6-81.456.053-81.456.053L126.11,197.97V187.727l14.456-7.267Z" transform="translate(39.923 57.128)"></path><path id="Path_1282" data-name="Path 1282" class="cls-3" d="M60.227,243.025a13.009,13.009,0,0,0,6.162-1.554l96.452-51.741h97.505a13.06,13.06,0,1,0,0-26.121h-100.8a12.946,12.946,0,0,0-6.175,1.554L54.026,218.458a13.06,13.06,0,0,0,6.2,24.567Z" transform="translate(14.923 51.794)"></path><path id="Path_1283" data-name="Path 1283" class="cls-3" d="M227.362,190.543a13.042,13.042,0,0,0,10.467-5.24l54.743-73.241a13.066,13.066,0,1,0-20.933-15.641l-54.743,73.241a13.059,13.059,0,0,0,10.467,20.881Z" transform="translate(67.839 28.863)"></path><path id="Path_1284" data-name="Path 1284" class="cls-3" d="M275.1,100.26a7.46,7.46,0,0,0,5.951-2.949L293.744,80.63A7.46,7.46,0,1,0,281.869,71.6L269.177,88.28A7.454,7.454,0,0,0,270.6,98.733,7.353,7.353,0,0,0,275.1,100.26Z" transform="translate(84.73 21.733)"></path><path id="Path_1285" data-name="Path 1285" class="cls-1" d="M137.18,191.34l17.208,30.992H244.9l-92.963,3.937Z" transform="translate(43.427 60.572)"></path><path id="Path_1286" data-name="Path 1286" class="cls-2" d="M214.686,221.74,168,239.764s43.7-11.968,60.957,8.531l31.979-14.245-4.187-12.31Z" transform="translate(53.184 70.196)"></path><path id="Path_1287" data-name="Path 1287" class="cls-2" d="M179.442,258.81l-12.692,3.16,23.106,8.979Z" transform="translate(52.788 81.931)"></path><path id="Path_1288" data-name="Path 1288" class="cls-2" d="M129.764,200H120.14l4.805,8.031h9.914Z" transform="translate(38.033 63.314)"></path><path id="Path_1289" data-name="Path 1289" class="cls-2" d="M122.071,191.43l-8.031,4.305v6.978s3.5-5.727,8.123-4.924Z" transform="translate(36.102 60.601)"></path><path id="Path_1290" data-name="Path 1290" class="cls-2" d="M208.65,150.386s.382,1.659-7.6,1.659H165.69V149.4S206.648,148.306,208.65,150.386Z" transform="translate(52.452 47.204)"></path><path id="Path_1291" data-name="Path 1291" class="cls-3" d="M166.105,152.771h43.473a5.6,5.6,0,0,0,0-11.191H166.105a5.6,5.6,0,0,0,0,11.191Z" transform="translate(50.812 44.82)"></path><path id="Path_1292" data-name="Path 1292" class="cls-2" d="M56.641,46.49H48.61V57.483a9.637,9.637,0,0,1,8.031-5.49Z" transform="translate(15.388 14.717)"></path><path id="Path_1293" data-name="Path 1293" class="cls-3" d="M217.01,35.45s-34.191,5.279-41.59,36.074Z" transform="translate(55.533 11.222)"></path><rect id="Rectangle_109" data-name="Rectangle 109" class="cls-4" width="88.21" height="50.359" transform="translate(93.547 54.941) rotate(180)"></rect><path id="Path_1294" data-name="Path 1294" class="cls-3" d="M113.058,21.448h12.376a.669.669,0,0,0,.658-.658V4.148a.669.669,0,0,0-.658-.658H113.058a.66.66,0,0,0-.658.658V20.79A.669.669,0,0,0,113.058,21.448Z" transform="translate(35.582 1.105)"></path><path id="Path_1295" data-name="Path 1295" class="cls-3" d="M113.058,71.288h12.376a.66.66,0,0,0,.658-.658V53.988a.66.66,0,0,0-.658-.658H113.058a.652.652,0,0,0-.658.658V70.63A.66.66,0,0,0,113.058,71.288Z" transform="translate(35.582 16.883)"></path><path id="Path_1296" data-name="Path 1296" class="cls-3" d="M143.548,38.641h12.376a.66.66,0,0,0,.658-.658V21.328a.669.669,0,0,0-.658-.658H143.548a.669.669,0,0,0-.658.658V37.97A.663.663,0,0,0,143.548,38.641Z" transform="translate(45.235 6.543)"></path><path id="Path_1297" data-name="Path 1297" class="cls-2" d="M202.006,268.03H128.37S175.938,277.391,202.006,268.03Z" transform="translate(40.638 84.85)"></path><path id="Path_1298" data-name="Path 1298" class="cls-4" d="M35.1,10.64s6.069,2.7,10.691.856,8.518-.777,10.045,1.988a10.916,10.916,0,0,1-.606,11.757c-3.094,4.608-2.054,6.636-2.146,9.071s-1,7.939-4.174,9.874-4.621,1.527-4.7-1.883.606-10.375-2.554-9.571-3.094,3.147-2.62,6.636-.434,9.479-4.634,4.766S29.562,37.3,30,31.8s-3.133-8.518-3.937-10.309-1.027-6,1-8.189S31.905,9.613,35.1,10.64Z" transform="translate(8.066 3.263)"></path></g><path id="Path_1299" data-name="Path 1299" class="cls-5" d="M94.389,299.206a6.01,6.01,0,0,0,5.516.711,4.193,4.193,0,0,0,2.265-1.87,6.071,6.071,0,0,0,.369-3.4,15,15,0,0,0-.7-3.66A6.074,6.074,0,0,0,99.694,288a5.433,5.433,0,0,0-4.305-.724,7.566,7.566,0,0,0-3.779,2.317c-1.514,1.659-.843,3.226-.2,5.121A8.7,8.7,0,0,0,94.389,299.206Z" transform="translate(28.711 90.894)"></path><path id="Path_1300" data-name="Path 1300" class="cls-5" d="M60.939,297.906a6.01,6.01,0,0,0,5.516.711,4.193,4.193,0,0,0,2.265-1.87,6.071,6.071,0,0,0,.369-3.4,15,15,0,0,0-.7-3.66,6.074,6.074,0,0,0-2.146-2.989,5.432,5.432,0,0,0-4.305-.724,7.566,7.566,0,0,0-3.779,2.317c-1.514,1.659-.843,3.226-.2,5.121A8.976,8.976,0,0,0,60.939,297.906Z" transform="translate(18.121 90.482)"></path><path id="Path_1301" data-name="Path 1301" class="cls-6" d="M107.393,293.348a1,1,0,0,1,.632-.145.976.976,0,0,1,.448.29c4.345,4.094,6.7,10.572,4.858,16.26a3.025,3.025,0,0,1-.922,1.554,3.418,3.418,0,0,1-1.488.527q-3.772.691-7.57,1.159a5.63,5.63,0,0,1-.658-2.607,28.922,28.922,0,0,1-6.122,4.134A28.918,28.918,0,0,1,89.83,316.3c-3.581.645-7.254,1.277-10.835.658a8.483,8.483,0,0,1-3.265-1.185,4.464,4.464,0,0,1-1.975-2.778,4.584,4.584,0,0,1,2.067-4.4,9.6,9.6,0,0,1,4.858-1.474,14.211,14.211,0,0,0,3.963-.579,13.882,13.882,0,0,0,4.016-2.949c2.752-2.449,6.069-4.4,8.229-7.465.395-.566.711-1.527,1.382-1.79.737-.3,2.08.2,2.87.237A13.838,13.838,0,0,0,107.393,293.348Z" transform="translate(23.329 92.815)"></path><path id="Path_1302" data-name="Path 1302" class="cls-6" d="M73.373,292.278a1,1,0,0,1,.632-.145.977.977,0,0,1,.448.29c4.345,4.095,6.7,10.572,4.858,16.26a3.025,3.025,0,0,1-.922,1.554,3.419,3.419,0,0,1-1.488.527q-3.772.691-7.57,1.159a5.63,5.63,0,0,1-.658-2.607,28.92,28.92,0,0,1-6.122,4.134,28.919,28.919,0,0,1-6.741,1.777c-3.581.645-7.254,1.277-10.835.658a8.482,8.482,0,0,1-3.265-1.185,4.464,4.464,0,0,1-1.975-2.778,4.584,4.584,0,0,1,2.067-4.4,9.605,9.605,0,0,1,4.858-1.475,14.211,14.211,0,0,0,3.963-.579,13.883,13.883,0,0,0,4.016-2.949c2.752-2.449,6.069-4.4,8.229-7.465.395-.566.711-1.527,1.382-1.791.737-.3,2.08.2,2.87.237A13.664,13.664,0,0,0,73.373,292.278Z" transform="translate(12.56 92.476)"></path><path id="Path_1303" data-name="Path 1303" class="cls-7" d="M108.738,111.767c-.171,0-.329-.013-.461-.013a157.093,157.093,0,0,1-25.265-3.3,11,11,0,0,1-5.253-2.2,10.9,10.9,0,0,1-2.607-4.437l-.053-.145a11.339,11.339,0,0,0-2.08-3.923,3.36,3.36,0,0,0-3.647-1.014c-1.2.579-1.7,2.093-2.12,3.594a.663.663,0,0,1-1.277-.355c.474-1.712,1.119-3.594,2.8-4.424a4.6,4.6,0,0,1,5.174,1.29A12.3,12.3,0,0,1,76.3,101.2l.053.145a9.675,9.675,0,0,0,2.251,3.923,9.9,9.9,0,0,0,4.647,1.883,156,156,0,0,0,25.041,3.278c.592.026,1.238.013,1.488-.316a1.741,1.741,0,0,0,.2-.922,19.818,19.818,0,0,0-.079-3.515l-.053-.355c-.105-.816-.2-1.33-.685-1.659a.485.485,0,0,0-.211-.092h0a.4.4,0,0,0-.237.171,2.54,2.54,0,0,0-.276.658L107.184,104a3.463,3.463,0,0,1,.474-1.04,1.715,1.715,0,0,1,1.317-.724,1.59,1.59,0,0,1,.922.316,3.25,3.25,0,0,1,1.251,2.58l.053.329a19.639,19.639,0,0,1,.092,3.765,2.783,2.783,0,0,1-.474,1.659A2.306,2.306,0,0,1,108.738,111.767Zm-.869-7.531Z" transform="translate(20.879 30.132)"></path><path id="Path_1304" data-name="Path 1304" class="cls-8" d="M92.56,327.927a38.5,38.5,0,0,0,17.3-5.674,9.239,9.239,0,0,0-.922-3.16c-22.5-45.251-14.561-124.547-14.482-125.337a9.332,9.332,0,0,0-18.564-1.935c-.369,3.463-8.6,85.459,16.339,135.593C92.336,327.572,92.455,327.743,92.56,327.927Z" transform="translate(23.522 58.078)"></path><path id="Path_1305" data-name="Path 1305" class="cls-8" d="M55.461,326.465a39.6,39.6,0,0,0,17.682-5.148,9.519,9.519,0,0,0-.369-1.672c-15.549-48.028,3.976-125.166,4.213-126.1a9.327,9.327,0,1,0-18.063-4.661c-.869,3.37-21.144,83.247-3.9,136.515A8.594,8.594,0,0,0,55.461,326.465Z" transform="translate(15.226 57.578)"></path><g id="Group_431" data-name="Group 431" transform="translate(67.698 239.474)"><path id="Path_1306" data-name="Path 1306" class="cls-9" d="M86.108,183.493A9.339,9.339,0,0,0,75.852,191.8c-.118,1.08-.987,9.729-1.382,22.658a95.23,95.23,0,0,1,18.669,1.619c.369-13.284,1.238-22.066,1.277-22.329A9.329,9.329,0,0,0,86.108,183.493Z" transform="translate(-44.123 -181.403)"></path><path id="Path_1307" data-name="Path 1307" class="cls-9" d="M69.233,182.192a9.324,9.324,0,0,0-11.362,6.7c-.342,1.3-3.594,14.14-6.451,32.467a73.344,73.344,0,0,1,19.907-5.6c2.33-13.218,4.529-21.895,4.608-22.211A9.328,9.328,0,0,0,69.233,182.192Z" transform="translate(-51.42 -181.893)"></path></g><path id="Path_1308" data-name="Path 1308" class="cls-10" d="M51.074,137.169c-7.662,0-15.43-1.488-22.171-5.661-12.165-7.531-18.34-21.737-18.353-42.222a7.467,7.467,0,0,1,7.465-7.465h0a7.467,7.467,0,0,1,7.465,7.465c.013,14.956,3.8,24.883,11.27,29.517,13.3,8.255,37.193-.3,45.29-4.305a7.46,7.46,0,0,1,6.635,13.363C87.609,128.4,69.664,137.169,51.074,137.169Z" transform="translate(3.34 25.902)"></path><g id="Group_432" data-name="Group 432" transform="translate(16.115 134.145)"><path id="Path_1309" data-name="Path 1309" class="cls-11" d="M28.368,125.154c6.741,4.174,14.509,5.661,22.171,5.661,18.59,0,36.535-8.782,37.588-9.295a7.46,7.46,0,0,0-6.636-13.363,81.918,81.918,0,0,1-11.046,4.318c-5.1,5.622-10.032,10.072-13.205,10.519,0,0-25.041,12.639-45-21.1C15.018,112.409,20.4,120.217,28.368,125.154Z" transform="translate(-12.24 -101.89)"></path></g><path id="Path_1310" data-name="Path 1310" class="cls-10" d="M27.839,69.2a5.049,5.049,0,0,0-.658-2.146,2.008,2.008,0,0,0-1.922-.974c-.948.171-1.475,1.159-1.764,2.054a11.633,11.633,0,0,0-.474,4.661A68.729,68.729,0,0,0,8.406,73.83a7.22,7.22,0,0,0-2.778.922,2.647,2.647,0,0,0-1.3,2.449,1.668,1.668,0,0,0,2.146,1.356,2.92,2.92,0,0,0-1.883,2.738A2.293,2.293,0,0,0,6.971,83.4a2.188,2.188,0,0,0-1.132,3.015,3.907,3.907,0,0,0,3.015,1.9,18.3,18.3,0,0,0,3.7-.092c.54-.039,1.238.039,1.422.54a1.392,1.392,0,0,1-.066.829,40.175,40.175,0,0,0-1.317,5.832,2.687,2.687,0,0,0,.395,2.3,2.575,2.575,0,0,0,1,.553A14.491,14.491,0,0,0,25.337,97.5c2.357-1.211,1.935-2.9,1.883-5.121-.053-2.633.118-5.279.329-7.9C27.971,79.4,28.537,74.278,27.839,69.2Z" transform="translate(1.363 20.91)"></path><path id="Path_1311" data-name="Path 1311" class="cls-12" d="M44.08,114.126l1.777,16.036s21.71-2.159,33.717-8.926,2.317-18.643-6.965-15.641C72.61,105.595,53.362,112.968,44.08,114.126Z" transform="translate(13.954 33.277)"></path><g id="Group_433" data-name="Group 433" transform="translate(61.115 138.395)"><path id="Path_1312" data-name="Path 1312" class="cls-13" d="M71.869,105.595s-4.305,1.646-9.835,3.515A77.381,77.381,0,0,1,46.42,130.017c4.858-.579,22.158-3,32.4-8.782C90.841,114.468,81.151,102.593,71.869,105.595Z" transform="translate(-46.42 -105.118)"></path></g><path id="Path_1313" data-name="Path 1313" class="cls-12" d="M62.058,121.264s-14.548,35.8-19.828,100.1c0,0,27.174,19.735,76.427,4.542,0,0-.053-50.833,8.15-84.879s-30.65-38-30.65-38S72.7,98.461,62.058,121.264Z" transform="translate(13.369 32.498)"></path><g id="Group_434" data-name="Group 434" transform="translate(105.313 160.872)"><path id="Path_1314" data-name="Path 1314" class="cls-13" d="M115.629,130.629a24.073,24.073,0,0,0-12.652-8.439s8.755,15.127,3,30.018c0,0-1.7,6.109-4.647,13.877s-12.363,9.887-16.444,15.536c-2.989,4.121-12.349,19.393,7.017,29.807a33.187,33.187,0,0,0,14.851,3.384c.224-13.574,1.435-52.294,8.1-79.955C115.208,133.368,115.432,131.985,115.629,130.629Z" transform="translate(-79.99 -122.19)"></path></g><g id="Group_435" data-name="Group 435" transform="translate(94.108 135.148)"><path id="Path_1315" data-name="Path 1315" class="cls-14" d="M105.671,109.5a49.729,49.729,0,0,0-18.787-6.478,34.588,34.588,0,0,0-15.4,1.224l7.136,22.908Z" transform="translate(-71.48 -102.652)"></path></g><path id="Path_1316" data-name="Path 1316" class="cls-15" d="M101.94,107.837a50.933,50.933,0,0,0-15.812-4.819,34.258,34.258,0,0,0-12.218.382L80.322,122C80.309,122.016,94.054,112.419,101.94,107.837Z" transform="translate(23.398 32.496)"></path><path id="Path_1317" data-name="Path 1317" class="cls-15" d="M77.842,105.373a12.3,12.3,0,0,0,.671,5.042,6.918,6.918,0,0,0,10.177,3.12,9.14,9.14,0,0,0,3.476-4.9,25.171,25.171,0,0,0,.961-6.03c.2-2.752.263-5.727-1.317-7.992a8.331,8.331,0,0,0-5.582-3.186C78.014,90.088,77.974,99.712,77.842,105.373Z" transform="translate(24.639 28.904)"></path><g id="Group_436" data-name="Group 436" transform="translate(102.561 120.197)"><path id="Path_1318" data-name="Path 1318" class="cls-11" d="M91.8,94.606a8.331,8.331,0,0,0-5.582-3.186C79.2,90.288,78.15,97.094,77.9,102.637c1.751.039,3.594-.171,5.1.026a27.148,27.148,0,0,1,9.782,3.239c.171-1.093.263-2.2.342-3.3C93.317,99.846,93.383,96.871,91.8,94.606Z" transform="translate(-77.9 -91.295)"></path></g><g id="Group_439" data-name="Group 439" transform="translate(108.123 182.121)"><path id="Path_1319" data-name="Path 1319" class="cls-16" d="M95.232,200.946s13.1-.211,20.064,6.715,14.838,7.992,19.749,4.16a21.463,21.463,0,0,0,7.965-21.789c-2.054-10.756,1.409-13.627,3.12-18.1s4.318-15.18.066-21.131-7.215-6.333-9.966-.211-6.912,19.288-12.033,15.391-3.173-8.1.382-14.061,6.53-17.537-4.74-12.231-14.048,8.65-17.537,18.972-12.257,13.047-15.1,15.667-6.5,10.1-4.5,15.615S88.649,200.327,95.232,200.946Z" transform="translate(-82.125 -138.33)"></path><g id="Group_437" data-name="Group 437" transform="translate(39.438 7.842)"><path id="Path_1320" data-name="Path 1320" class="cls-16" d="M133.329,166.291s-4.45,7.281-3.686,24.462c.8,17.945-17.168,19.591-17.563,19.617,5.056,2.515,10.006,2.264,13.482-.434a21.463,21.463,0,0,0,7.965-21.789c-2.054-10.756,1.409-13.626,3.12-18.1s4.318-15.18.066-21.131c-3.12-4.371-5.556-5.727-7.715-3.713C138.978,159.168,133.329,166.291,133.329,166.291Z" transform="translate(-112.08 -144.287)"></path></g><g id="Group_438" data-name="Group 438" transform="translate(7.512 56.335)"><path id="Path_1321" data-name="Path 1321" class="cls-16" d="M87.83,185.583a12.9,12.9,0,0,0,5.6,1.817s9.334-.145,16.431,3.976a14.5,14.5,0,0,0-3.739-3.818C99.547,182.674,94.452,176.934,87.83,185.583Z" transform="translate(-87.83 -181.119)"></path></g></g><path id="Path_1322" data-name="Path 1322" class="cls-17" d="M122.434,196.424a130.329,130.329,0,0,0,10.875-21.3c3.068-7.531,5.556-15.917,3.133-23.672a8.588,8.588,0,0,0-2.738-4.424,5.566,5.566,0,0,0-3.12-1.066,16.589,16.589,0,0,0-1.185,2.2c-2.054,4.569-4.9,13.074-8.334,15.457a73.075,73.075,0,0,1-5.056,14.653c-1.4,3.12-2.91,6.175-4.424,9.229a2.817,2.817,0,0,1-.606.908,2.7,2.7,0,0,1-1.224.527,6.422,6.422,0,0,0-3.147,1.317c-.816.816-.882,2.462.158,2.949a2.818,2.818,0,0,1,.829.382c.408.395.171,1.066-.079,1.58a48.314,48.314,0,0,1-3.858,6.7,18.663,18.663,0,0,1,4.792,3.37,26.886,26.886,0,0,0,3.423,2.883C116.3,205.219,119.591,200.887,122.434,196.424Z" transform="translate(32.816 46.206)"></path><path id="Path_1323" data-name="Path 1323" class="cls-10" d="M140,149.16c-8.834-26.094-34.139-37.3-35.218-37.772a7.465,7.465,0,0,0-5.951,13.692c.2.092,20.446,9.2,27.069,28.991,4.437,13.232,1.935,28.609-7.4,45.7a18.815,18.815,0,0,0-1.988-1.014,2.272,2.272,0,0,0-.276-.092,9.3,9.3,0,0,0-2.422-.25,5.692,5.692,0,0,0-2.831.448,1.993,1.993,0,0,0-1.04,2.422,2.189,2.189,0,0,0,1.685,1.08c.685.118,1.382.053,2.067.158,2.883.448-.606,4.582-1.382,5.753-1.527,2.3-3.226,4.49-4.792,6.767a5.529,5.529,0,0,0-.829,1.554,1.9,1.9,0,0,0,.25,1.685,1.883,1.883,0,0,0,2.107.434,4.775,4.775,0,0,0,1.8-1.4,7.537,7.537,0,0,1,1.685-1.554,29.138,29.138,0,0,0-1.751,3.515,4.3,4.3,0,0,0-.434,1.751,1.667,1.667,0,0,0,.843,1.5,1.687,1.687,0,0,0,1.659-.224,5.037,5.037,0,0,0,1.185-1.29c.592-.829,1.2-1.659,1.791-2.488a10.924,10.924,0,0,0-1.593,4.529,2.147,2.147,0,0,0,.329,1.685,1.637,1.637,0,0,0,2,.145,4.7,4.7,0,0,0,1.409-1.633c.5-.8,1.014-1.606,1.514-2.409a14.428,14.428,0,0,0-.816,4.016,1.77,1.77,0,0,0,.592,1.712,1.238,1.238,0,0,0,1.224-.079,3.668,3.668,0,0,0,.908-.9c4.476-5.727,7.478-12.428,10.414-19.09C143.084,185.708,145.849,166.421,140,149.16Z" transform="translate(29.873 35.067)"></path><path id="Path_1324" data-name="Path 1324" class="cls-11" d="M123.167,151.406c4.305,12.837,2.054,27.7-6.609,44.184.118-.211.224-.421.342-.632,17.129-31.729,6.267-49.213,6.267-49.213-3.449-6.372,4.792-12.376,6.635-13.864a68.5,68.5,0,0,0-11.625-12.692,19.554,19.554,0,0,0-6.649,2.146l-8.518,5.082C109.58,130.855,119.033,139.044,123.167,151.406Z" transform="translate(32.61 37.732)"></path><path id="Path_1325" data-name="Path 1325" class="cls-18" d="M119.758,126.892h0c-1.145-.843-2.317-1.725-3.7-1.685a2.908,2.908,0,0,0-2.607,3.581,7.093,7.093,0,0,0,2.817,4.16c.408.316.829.606,1.251.882.5.342.987.671,1.435,1.04.013.013.013.04.026.053a.363.363,0,0,0,.118.092c.066.079.2.25.316.395.224.29.434.553.632.777l-.948,1.843a.772.772,0,0,0,.066.882.545.545,0,0,0,.632.184l.211-.066a9.152,9.152,0,0,0-.237.908.466.466,0,0,0,.105.382.3.3,0,0,0,.316.118l.066-.026a8.887,8.887,0,0,0,1.185-.448,2.091,2.091,0,0,0,.935-.737,7.945,7.945,0,0,0,1.856,1.949,2.147,2.147,0,0,0,1.988.382,1.054,1.054,0,0,0,.382-.3c.553-.7.355-2.054-.527-3.607l-.092-.158c-.553-.974-1.132-1.975-.961-2.8a1.014,1.014,0,0,1,.092-.263c.2-.3.737-.145,1.132.171a7.667,7.667,0,0,1,1.251,1.461c.237.316.461.645.724.948.764.908,1.922,1.619,2.725,1.106-.105-.224-.224-.434-.342-.658-.527.369-1.409-.171-2.014-.9-.237-.276-.448-.579-.671-.882a8.464,8.464,0,0,0-1.422-1.646c-.632-.513-1.475-.724-1.87-.132a1.505,1.505,0,0,0-.184.487c-.224,1.132.474,2.343,1.08,3.41l.092.158c.263.461,1.093,2.041.527,2.765-.369.461-1.132.25-1.7-.132a7.807,7.807,0,0,1-1.935-2.133,4.835,4.835,0,0,0-1.08-1.791,3.564,3.564,0,0,0,.395-.592,3.254,3.254,0,0,1,.211-.342c.29-.369.592-.711.9-1.04a12.7,12.7,0,0,1,4.266-2.936h.013c-.145-.211-.29-.421-.421-.619a13.166,13.166,0,0,0-4.305,2.975c-.329.342-.632.7-.935,1.08a2.512,2.512,0,0,0-.25.408,3.464,3.464,0,0,1-.342.54.851.851,0,0,0-.118-.105c-.224-.29-.448-.566-.685-.829-.171-.171-.342-.342-.513-.5a18.666,18.666,0,0,1,6-5.161c-.145-.2-.29-.408-.448-.606a19.373,19.373,0,0,0-6.1,5.306c-.448-.355-.922-.685-1.382-.987-.408-.277-.816-.553-1.224-.869a6.1,6.1,0,0,1-2.462-3.542,2.475,2.475,0,0,1,1.317-2.686,2,2,0,0,1,.856-.211,5.711,5.711,0,0,1,3.318,1.554c.2.145.382.29.579.434a.258.258,0,0,0,.316.013.37.37,0,0,0,.079-.342,7.169,7.169,0,0,1-.026-4.239c-.158-.171-.329-.342-.487-.513A6.86,6.86,0,0,0,119.758,126.892Zm.8,9.782a1.062,1.062,0,0,0,.184.118c.263.369.513.764.764,1.145.145.211.276.434.421.645v.04c-.132.395-.843.711-1.409.922.092-.29.184-.579.3-.856a.425.425,0,0,0-.066-.408.334.334,0,0,0-.342-.158l-.724.211Z" transform="translate(35.9 38.89)"></path><path id="Path_1326" data-name="Path 1326" class="cls-12" d="M118.893,143.338s8.479-7.755,14.377-10.124c0,0-11.915-12.889-22.132-19.7,0,0-11.3-8.821-16.549.5,0,0-4.819,9.071,7.689,13.916C102.278,127.934,114.654,135.86,118.893,143.338Z" transform="translate(29.655 34.741)"></path><g id="Group_440" data-name="Group 440" transform="translate(139.701 233.322)"><path id="Path_1327" data-name="Path 1327" class="cls-19" d="M112.713,178.734c.276-.513.527-1.014.79-1.514-.29.527-.566,1.027-.843,1.5C112.686,178.721,112.7,178.721,112.713,178.734Z" transform="translate(-104.036 -177.22)"></path><path id="Path_1328" data-name="Path 1328" class="cls-15" d="M114.747,178.671a19.126,19.126,0,0,0-1.935-.987,2.269,2.269,0,0,0-.276-.092,9.3,9.3,0,0,0-2.422-.25,5.692,5.692,0,0,0-2.831.448,1.993,1.993,0,0,0-1.04,2.422,2.189,2.189,0,0,0,1.685,1.08c.685.118,1.382.053,2.067.158,1.751.263,1.145,1.909.224,3.41A27.872,27.872,0,0,0,114.747,178.671Z" transform="translate(-106.11 -177.183)"></path></g><rect id="Rectangle_110" data-name="Rectangle 110" class="cls-14" width="20.631" height="3.568" transform="translate(106.496 170.802) rotate(10.259)"></rect><path id="Path_1329" data-name="Path 1329" class="cls-20" d="M121.7,81.816a13.35,13.35,0,0,0,6.135,5.714c1.54.632,3.226.882,4.766,1.5-4.226,2.8-9.769,2.225-14.772,1.369.487,2.2,3.028,3.133,4.7,4.634a1.349,1.349,0,0,1,.592,1.224c-.132.5-.7.711-1.2.829a20.661,20.661,0,0,1-13.468-1.475,13.324,13.324,0,0,1-7.847-11.559,25.114,25.114,0,0,1,1.856-11.441c1.066-2.8,2.541-5.609,5-7.346s6.1-2.067,8.36-.092c2.278,2,2.291,5.2,2.686,7.965A23.561,23.561,0,0,0,121.7,81.816Z" transform="translate(31.82 20.205)"></path><path id="Path_1330" data-name="Path 1330" class="cls-20" d="M55.37,62.093a13.721,13.721,0,0,0,10.467-.606c3.16-1.7,5.385-5.319,4.832-8.861a3.015,3.015,0,0,0-.434-1.264,2.557,2.557,0,0,0-2.014-1c-3.278-.184-3.91,2.91-5.74,5.069A55.884,55.884,0,0,1,55.37,62.093Z" transform="translate(17.528 15.941)"></path><path id="Path_1331" data-name="Path 1331" class="cls-10" d="M61.347,85.4c-.987,7.149-1.87,14.943,1.856,21.131,4.608,7.662,14.456,10.019,23.29,11.454a133.762,133.762,0,0,0,15.851,1.856c4.095.171,8.347,0,12.073-1.738,4.49-2.093,7.741-6.254,9.729-10.8s2.857-9.466,3.7-14.351q1.6-9.144,3.186-18.287c1.369-7.873,2.7-16.22-.158-23.685-2.37-6.2-7.491-11.112-13.416-14.1s-12.639-4.174-19.275-4.4c-5.6-.184-11.349.329-16.391,2.738C63.809,43.863,63.677,68.628,61.347,85.4Z" transform="translate(19.149 10.274)"></path><g id="Group_441" data-name="Group 441" transform="translate(83.391 42.741)"><path id="Path_1332" data-name="Path 1332" class="cls-11" d="M129.958,51c-2.37-6.2-7.491-11.112-13.416-14.1S103.9,32.722,97.268,32.5c-5.6-.184-11.349.329-16.391,2.738C69.87,40.5,65.565,51.825,63.34,63.675c1.066-.237,2.133-.513,3.173-.75A128.657,128.657,0,0,0,86.538,56.46c.922-.382,10.677-4.5,10.533-4.963A11.05,11.05,0,0,0,110.7,58.171a8.039,8.039,0,0,0,7.689,2.712,2.839,2.839,0,0,1,2.159.039,2.354,2.354,0,0,1,.737,1.672,95.94,95.94,0,0,1,.948,16.141,34.314,34.314,0,0,1,8.11-5.266C131.6,65.965,132.671,58.092,129.958,51Z" transform="translate(-63.34 -32.464)"></path></g><path id="Path_1333" data-name="Path 1333" class="cls-21" d="M94.148,59.906a10.792,10.792,0,0,1,7.939-1.277,7.47,7.47,0,0,1,4.318,2.936,11.784,11.784,0,0,1,1.475,3.621,14.177,14.177,0,0,1,.632,4.318,1.173,1.173,0,0,1-.118.513,1.015,1.015,0,0,1-.3.276c-3.528,2.488-7.952,3.963-12.191,3.186a8.519,8.519,0,0,1-4.213-1.909C88,68.266,90.5,62.157,94.148,59.906Z" transform="translate(28.451 18.47)"></path><path id="Path_1334" data-name="Path 1334" class="cls-21" d="M79.652,57.331a9.418,9.418,0,0,0-2.422-1.04,9.248,9.248,0,0,0-4.792-.118,6.786,6.786,0,0,0-3.923,2.673,10.77,10.77,0,0,0-1.343,3.291,13.234,13.234,0,0,0-.579,3.923,1.076,1.076,0,0,0,.105.461.841.841,0,0,0,.276.25,15.024,15.024,0,0,0,11.072,2.9,7.739,7.739,0,0,0,3.831-1.738C85.234,64.928,82.956,59.385,79.652,57.331Z" transform="translate(21.079 17.7)"></path><path id="Path_1335" data-name="Path 1335" class="cls-22" d="M116.009,64.662a5.861,5.861,0,0,1,5.951,1.527,6.8,6.8,0,0,1,1.488,5.543,13.109,13.109,0,0,1-2.344,5.4,9.429,9.429,0,0,1-2.738,2.8,7.955,7.955,0,0,1-3.91,1.027,3.491,3.491,0,0,1-3.66-2.449C108.636,74.049,110.927,66.255,116.009,64.662Z" transform="translate(34.817 20.388)"></path><path id="Path_1336" data-name="Path 1336" class="cls-23" d="M77.871,80.923c-1.409,0-2.37-.092-2.488-.105a.662.662,0,0,1-.566-.474.639.639,0,0,1,.224-.7C81.795,74.38,85.165,53.723,85.2,53.512a.654.654,0,0,1,1.29.211c-.132.816-3.12,19.1-9.466,25.871,2.449.066,7.228-.105,10.124-2.054a.645.645,0,0,1,.908.184.656.656,0,0,1-.184.908C84.994,80.581,80.61,80.923,77.871,80.923Z" transform="translate(23.676 16.766)"></path><path id="Path_1337" data-name="Path 1337" class="cls-24" d="M85.855,57.9h-.04a.653.653,0,0,1-.619-.7,21.638,21.638,0,0,0-.066-3.2.662.662,0,0,1,.592-.724.672.672,0,0,1,.724.592,24.345,24.345,0,0,1,.079,3.4A.676.676,0,0,1,85.855,57.9Z" transform="translate(26.949 16.866)"></path><path id="Path_1338" data-name="Path 1338" class="cls-25" d="M89.024,49.41,88.8,55.163l29.2,6.82.645-3.621L90.959,51.2Z" transform="translate(28.111 15.642)"></path><path id="Path_1339" data-name="Path 1339" class="cls-25" d="M100.7,61.5a4.556,4.556,0,0,0-3.423-.685A4.447,4.447,0,0,0,94.45,62.9a3.81,3.81,0,0,0-.5,2.225,4.288,4.288,0,0,0,1.461,3.436,4.012,4.012,0,0,0,1.527.685,4.967,4.967,0,0,0,3.476-.434,4.34,4.34,0,0,0,2.107-2.91,4.412,4.412,0,0,0-.829-3.489A4.938,4.938,0,0,0,100.7,61.5Z" transform="translate(29.742 19.227)"></path><path id="Path_1340" data-name="Path 1340" class="cls-25" d="M78.034,58.695a4.556,4.556,0,0,0-3.423-.685,4.448,4.448,0,0,0-2.831,2.08,3.81,3.81,0,0,0-.5,2.225,4.288,4.288,0,0,0,1.461,3.436,4.012,4.012,0,0,0,1.527.685A4.967,4.967,0,0,0,77.744,66a4.339,4.339,0,0,0,2.107-2.91,4.412,4.412,0,0,0-.829-3.489A5.323,5.323,0,0,0,78.034,58.695Z" transform="translate(22.565 18.338)"></path><path id="Path_1341" data-name="Path 1341" class="cls-25" d="M86.476,50.15l-1.988,5.1L65.2,56.5l.421-4.266L83.8,51.585Z" transform="translate(20.64 15.876)"></path><path id="Path_1342" data-name="Path 1342" class="cls-25" d="M89.511,81.092a1.2,1.2,0,0,1,1.066.329,1.056,1.056,0,0,1,.158.632,6.615,6.615,0,0,1-2.278,4.687,9.945,9.945,0,0,1-6.649,2.8,8.5,8.5,0,0,1-6.53-2.91c-2.238-2.7-2.712-7.136,1.791-6.162C81.269,81.381,85.245,81.21,89.511,81.092Z" transform="translate(23.306 25.432)"></path><path id="Path_1343" data-name="Path 1343" class="cls-26" d="M81.239,83.25a3.019,3.019,0,0,0-1.369,1.224,1.7,1.7,0,0,0,.079,1.764,1.993,1.993,0,0,0,1.238.671,4.243,4.243,0,0,0,3.686-1.053,2.23,2.23,0,0,0,.513-.658,1.78,1.78,0,0,0,.026-1.488C84.755,82.223,82.4,82.684,81.239,83.25Z" transform="translate(25.218 26.183)"></path><path id="Path_1344" data-name="Path 1344" class="cls-24" d="M110.139,77.509a.686.686,0,0,1-.382-.118.657.657,0,0,1-.158-.922,34.086,34.086,0,0,1,9.756-9.216.672.672,0,0,1,.908.211.663.663,0,0,1-.211.908,32.513,32.513,0,0,0-9.374,8.861A.634.634,0,0,1,110.139,77.509Z" transform="translate(34.657 21.26)"></path><path id="Path_1345" data-name="Path 1345" class="cls-24" d="M115.866,76.614a.658.658,0,0,1-.606-.395,47.2,47.2,0,0,0-4.332-7.873.642.642,0,0,1,.171-.908.653.653,0,0,1,.908.171,48.849,48.849,0,0,1,4.463,8.084.667.667,0,0,1-.342.869A.935.935,0,0,1,115.866,76.614Z" transform="translate(35.079 21.313)"></path><path id="Path_1346" data-name="Path 1346" class="cls-25" d="M125.265,81.271a8.778,8.778,0,0,1,3.5-2.8,17.833,17.833,0,0,1,5.661-1.066,4.789,4.789,0,0,0,1.554-.3c1.185-.5,1.606-2.054,1.949-3.16a28.814,28.814,0,0,0,1-6.254,48.848,48.848,0,0,0-.053-12.244c-1.264-7.583-5.9-14.324-11.849-19.182a41.709,41.709,0,0,0-11.994-6.833,55.036,55.036,0,0,0-13.824-2.91,42.9,42.9,0,0,0-12.85.448,57.677,57.677,0,0,0-11.625,4.305c-4.5,2.054-9.269,4.305-11.915,8.492-3.91,6.188-2.4,15.378-7.992,20.091,3.963,2.515,9.111,1.7,13.679.632C82.6,57.665,94.958,53.373,103.423,44.3a24.915,24.915,0,0,0,4.766,10.783c.579.75,1.369,1.554,2.317,1.448a2.974,2.974,0,0,0,1.475-.777c1.5-1.2,3-2.409,4.5-3.607a4.781,4.781,0,0,0,1.58,5.332,4.829,4.829,0,0,0,5.569.053,2.586,2.586,0,0,1,1.435-.724c.632.026,1.066.632,1.369,1.185a16.549,16.549,0,0,1,2.12,10.6,24.365,24.365,0,0,1-4.2,10.124,39.534,39.534,0,0,0-2.462,3.476c-.263.474-.434,1.185.026,1.475,1.093.671,2.7-1.448,3.212-2.172A1.677,1.677,0,0,1,125.265,81.271Z" transform="translate(17.991 8.308)"></path><path id="Path_1347" data-name="Path 1347" class="cls-27" d="M134.32,46.713a2.261,2.261,0,0,1-.527.408,3.64,3.64,0,0,1-2.212.369,6.09,6.09,0,0,1-4.45-2.857c-.5-.829-.8-1.777-1.317-2.594a2.92,2.92,0,0,0-2.317-1.554c-2.12-.013-2.975,3.133-5.042,3.594a3.031,3.031,0,0,1-1.738-.184,5.061,5.061,0,0,1-2.844-2.673c-.645-1.475-.632-3.291-1.764-4.424a4.183,4.183,0,0,0-4.226-.619,41.013,41.013,0,0,0-4.042,1.988,5.111,5.111,0,0,1-2.738.553,2.459,2.459,0,0,1-2.08-1.659c-.369-1.435.882-3.3-.25-4.266a2.371,2.371,0,0,0-1.619-.382,13.1,13.1,0,0,0-6.6,2.093,12.055,12.055,0,0,1-3.779,2.107c-1.422.3-3.226-.566-3.226-2.014,0-1.356,1.527-2.528,1.093-3.818a1.874,1.874,0,0,0-1.777-1.132,5.616,5.616,0,0,0-2.159.54c-2.791,1.119-5.569,2.238-8.36,3.357-1.277.513-3.081.79-3.8-.224a18.214,18.214,0,0,0-5.174,4.529c1.5,1.646,4.318,1.791,6.57,1.145,2.541-.724,4.937-2.146,7.57-2.172a2.465,2.465,0,0,1,1.567.408c.856.7.645,2.067,1.119,3.068.75,1.58,2.975,1.8,4.595,1.172s2.962-1.856,4.568-2.515,3.831-.5,4.647,1.04c.2.382.3.816.487,1.211.961,1.922,3.726,1.9,5.74,1.159s4.055-1.962,6.135-1.488c3.331.764,4.305,5.082,6.978,7.215a7.757,7.757,0,0,0,7.9.645,12.612,12.612,0,0,1,2.093-.882,5.009,5.009,0,0,1,4.16,1.066,10.309,10.309,0,0,1,2.673,3.5,9.378,9.378,0,0,0,2.014,3.028,4.626,4.626,0,0,0,4.819.448c-.053-.513-.132-1.014-.211-1.527A26.914,26.914,0,0,0,134.32,46.713Z" transform="translate(20.061 9.386)"></path><path id="Path_1348" data-name="Path 1348" class="cls-3" d="M74.312,99.055a59.98,59.98,0,0,0,34.652,3.752c.54,2-.105,4.108-.8,6.069-1.08,3.015-2.436,6.122-4.95,8.11a14.079,14.079,0,0,1-6.991,2.62c-7.149.974-14.337-.948-21.289-2.9a16.16,16.16,0,0,1-5.069-2.08,10.424,10.424,0,0,1-3.963-6.912c-.448-2.752-.606-7.965,1.277-10.269C69.072,95.093,72.272,98.173,74.312,99.055Z" transform="translate(20.77 30.574)"></path><g id="Group_442" data-name="Group 442" transform="translate(86.894 133.908)"><path id="Path_1349" data-name="Path 1349" class="cls-28" d="M69.752,112.98a16.161,16.161,0,0,0,5.069,2.08c6.938,1.962,14.14,3.871,21.289,2.9a14.381,14.381,0,0,0,6.991-2.62c2.515-1.988,3.871-5.082,4.95-8.11a11.365,11.365,0,0,0,.908-5.516c-.013.013-.026.04-.039.053-1.369,1.54-2.831,3.028-4.345,4.437a23.885,23.885,0,0,1-6.728,4.74,27.411,27.411,0,0,1-8.874,1.685,44.777,44.777,0,0,1-12.02-.355,24.915,24.915,0,0,1-10.677-5.029c-.092-.066-.184-.145-.276-.224A9.992,9.992,0,0,0,69.752,112.98Z" transform="translate(-66 -101.71)"></path></g><path id="Path_1350" data-name="Path 1350" class="cls-23" d="M6.02,76.678l5.622-.3c1.87-.105,3.739-.224,5.6-.395.461-.039.922-.092,1.369-.158.224-.026.434-.079.658-.118a1.507,1.507,0,0,0,.474-.2,3.076,3.076,0,0,0,1.172-1.988c.092-.724-.5-1.251-1.317-1.554a12.053,12.053,0,0,0-2.659-.513h-.013a.2.2,0,0,1-.171-.224.21.21,0,0,1,.171-.171,8.068,8.068,0,0,1,2.91.132,5.5,5.5,0,0,1,.737.263,3.348,3.348,0,0,1,.671.487,2.142,2.142,0,0,1,.632,1.619,3.1,3.1,0,0,1-.5,1.554A3.956,3.956,0,0,1,20.3,76.3a2.269,2.269,0,0,1-.816.355c-.25.039-.5.105-.737.132q-.711.1-1.422.158c-1.883.184-3.765.237-5.648.29s-3.765.039-5.635.039a.32.32,0,0,1-.316-.316A.281.281,0,0,1,6.02,76.678Z" transform="translate(1.814 22.473)"></path><path id="Path_1351" data-name="Path 1351" class="cls-23" d="M6.375,80.514l6.122-.237c1.014-.053,2.041-.105,3.041-.184s2.028-.145,2.989-.316h.039c1.093-.158,2.251-.816,2.251-1.87a2.888,2.888,0,0,0-.369-1.554,2.488,2.488,0,0,0-1.2-1.014l-.039-.013A.361.361,0,0,1,19,74.866a.347.347,0,0,1,.448-.211,3.126,3.126,0,0,1,1.659,1.29,3.415,3.415,0,0,1,.513,2.028,2.408,2.408,0,0,1-1.053,1.87,4.49,4.49,0,0,1-1.922.75h.039a39.156,39.156,0,0,1-6.175.369c-2.054.013-4.095,0-6.135-.105A.158.158,0,0,1,6.23,80.7.167.167,0,0,1,6.375,80.514Z" transform="translate(1.972 23.627)"></path><path id="Path_1352" data-name="Path 1352" class="cls-23" d="M10.822,84.152c2.37-.369,4.753-.566,7.1-.856.276-.039.606-.079.829-.132.132-.026.329-.25.474-.461a3.923,3.923,0,0,0,.619-1.514,2.066,2.066,0,0,0-.25-1.514,2.291,2.291,0,0,0-1.33-.856h-.013a.188.188,0,0,1-.132-.237.191.191,0,0,1,.224-.132,2.694,2.694,0,0,1,1.672.935,2.554,2.554,0,0,1,.421,1.909,4.2,4.2,0,0,1-.685,1.791,1.693,1.693,0,0,1-.829.724c-.355.092-.632.118-.935.171-1.2.171-2.383.237-3.581.316s-2.383.118-3.594.105a.118.118,0,0,1-.118-.118A.189.189,0,0,1,10.822,84.152Z" transform="translate(3.384 24.833)"></path><path id="Path_1353" data-name="Path 1353" class="cls-23" d="M18.831,84.5a.379.379,0,0,1-.355-.263c-2.278-7.439.3-11.994.408-12.191a.38.38,0,0,1,.513-.132.368.368,0,0,1,.132.513c-.026.039-2.528,4.49-.342,11.6a.361.361,0,0,1-.25.461A.327.327,0,0,1,18.831,84.5Z" transform="translate(5.552 22.749)"></path><path id="Path_1354" data-name="Path 1354" class="cls-25" d="M89.981,65.326a9.525,9.525,0,0,1,3.515-5.5A10.243,10.243,0,0,1,99.842,57.9a8.558,8.558,0,0,1,6.109,2.58,9.334,9.334,0,0,1,2.383,6.069.2.2,0,0,1-.184.2.185.185,0,0,1-.184-.158v-.013a10.015,10.015,0,0,0-2.712-5.411A7.854,7.854,0,0,0,99.8,59.059a9.552,9.552,0,0,0-5.74,1.554,10.155,10.155,0,0,0-3.713,4.805l-.013.013a.185.185,0,0,1-.237.105A.18.18,0,0,1,89.981,65.326Z" transform="translate(28.484 18.329)"></path><path id="Path_1355" data-name="Path 1355" class="cls-25" d="M83.505,62.44a8.846,8.846,0,0,0-3.226-5.056A9.33,9.33,0,0,0,74.46,55.62a7.947,7.947,0,0,0-5.622,2.37,8.7,8.7,0,0,0-2.2,5.582.166.166,0,0,0,.171.171.161.161,0,0,0,.171-.145v-.013a9.293,9.293,0,0,1,2.488-4.977,7.241,7.241,0,0,1,5-1.935A8.739,8.739,0,0,1,79.753,58.1a9.479,9.479,0,0,1,3.41,4.411l.013.013a.164.164,0,0,0,.224.092A.121.121,0,0,0,83.505,62.44Z" transform="translate(21.096 17.608)"></path><g id="Group_443" data-name="Group 443" transform="translate(161.556 167.244)"><path id="Path_1356" data-name="Path 1356" class="cls-19" d="M126.87,128.926q-.316-.968-.671-1.9a11.58,11.58,0,0,0-3.489,1.159c.382.527.764,1.053,1.145,1.606a.783.783,0,0,0,.105-.053A11.659,11.659,0,0,1,126.87,128.926Z" transform="translate(-122.71 -127.03)"></path><path id="Path_1357" data-name="Path 1357" class="cls-19" d="M126.569,129.342l.237.869a1.03,1.03,0,0,0,.158.25.322.322,0,0,0,.3.053,3.842,3.842,0,0,0,.843-.355l.316-.158a4.126,4.126,0,0,0-.8.158.358.358,0,0,1-.382-.224.386.386,0,0,1,.04-.448,3.839,3.839,0,0,0,.619-.606h-.053a9.267,9.267,0,0,0-1.356.066l.013.053C126.529,129.118,126.543,129.223,126.569,129.342Z" transform="translate(-121.513 -126.445)"></path><path id="Path_1358" data-name="Path 1358" class="cls-19" d="M127.679,133.592a21.506,21.506,0,0,0-.619-3.384,6.148,6.148,0,0,1-.237-.843,3.64,3.64,0,0,1-.105-.355,12.07,12.07,0,0,0-2.817.777,58.848,58.848,0,0,1,3.384,5.714h.013C127.639,135.237,127.771,134.619,127.679,133.592Z" transform="translate(-122.333 -126.403)"></path></g><g id="Group_444" data-name="Group 444" transform="translate(136.48 234.494)"><path id="Path_1359" data-name="Path 1359" class="cls-11" d="M105.91,193.646a15,15,0,0,1,1.422-2.278c.566-.75,1.2-1.448,1.843-2.146.79-.869,1.58-1.738,2.383-2.607a7.786,7.786,0,0,0,1.935-2.91,2.693,2.693,0,0,0-.987-3.107,4.655,4.655,0,0,0-2.133-.369,3.723,3.723,0,0,1-2.422-.79,1.811,1.811,0,0,1-.566-1.33,1.8,1.8,0,0,0-.382,1.883,2.189,2.189,0,0,0,1.685,1.08c.685.118,1.382.053,2.067.158,2.883.448-.606,4.582-1.382,5.753-1.527,2.3-3.226,4.489-4.792,6.767a5.528,5.528,0,0,0-.829,1.554,1.9,1.9,0,0,0,.25,1.685,1.78,1.78,0,0,0,1.606.553h0C104.87,196.371,105.3,194.857,105.91,193.646Z" transform="translate(-103.663 -178.11)"></path></g></svg>