<svg xmlns="http://www.w3.org/2000/svg" xmlns:xlink="http://www.w3.org/1999/xlink" viewBox="0 0 395 395"><defs><style>
      .cls-1 {
        fill: #4d4d4d;
      }

      .cls-2 {
        clip-path: url(#clip-path);
      }

      .cls-3 {
        fill: #ffdd81;
      }

      .cls-4 {
        fill: #f8a47a;
      }

      .cls-5 {
        fill: #dff6f8;
      }

      .cls-6 {
        fill: #3cc4d4;
      }

      .cls-7 {
        fill: #47382a;
      }

      .cls-8 {
        fill: #2dc0d1;
      }

      .cls-9 {
        fill: #b24a28;
      }

      .cls-10 {
        fill: #e8c587;
      }

      .cls-11 {
        fill: #642c0a;
      }

      .cls-12 {
        fill: #fff;
      }

      .cls-13 {
        fill: #f2738a;
      }

      .cls-14 {
        fill: #5dcedc;
      }

      .cls-15 {
        fill: #a3e3eb;
      }

      .cls-16 {
        fill: #94dfe8;
      }

      .cls-17 {
        fill: #d18d14;
      }

      .cls-18 {
        fill: #fac3a7;
      }

      .cls-19 {
        fill: #f8c399;
      }

      .cls-20 {
        fill: #e7bba5;
      }

      .cls-21 {
        fill: #558fa5;
      }

      .cls-22 {
        fill: #8ab2c1;
      }

      .cls-23 {
        fill: #6ea0b2;
      }

      .cls-24 {
        fill: #a8c6d1;
      }

      .cls-25 {
        fill: #b4cc2a;
      }

      .cls-26 {
        fill: #f8c896;
      }

      .cls-27 {
        fill: #d3cfcc;
      }

      .cls-28 {
        fill: #edf3cc;
      }
    </style><clipPath id="clip-path"><rect id="Rectangle_233" data-name="Rectangle 233" class="cls-1" width="395" height="395" transform="translate(-3876 -4699)"></rect></clipPath></defs><g id="Mask_Group_22" data-name="Mask Group 22" class="cls-2" transform="translate(3876 4699)"><g id="Group_1237" data-name="Group 1237" transform="translate(-3844 -4641.422)"><ellipse id="Ellipse_120" data-name="Ellipse 120" class="cls-3" cx="138.597" cy="138.597" rx="138.597" ry="138.597" transform="translate(26.982)"></ellipse><g id="Group_1233" data-name="Group 1233" transform="translate(0 35.648)"><path id="Path_474" data-name="Path 474" class="cls-4" d="M174.717,172.339a68.242,68.242,0,0,0,13.165,6.393,54.262,54.262,0,0,0,12.659,3.07,12.242,12.242,0,0,0,2.3-3.07,5.26,5.26,0,0,0,.253-3.966s-7.163-1.92-12.016-5.243a72.171,72.171,0,0,1-8.439-6.773,35.489,35.489,0,0,0-6.519,5.243C174.074,170.419,174.717,172.339,174.717,172.339Z" transform="translate(-4.453 -4.159)"></path><path id="Path_475" data-name="Path 475" class="cls-5" d="M203.616,175.033a53.634,53.634,0,0,1-5.262-1.793,25,25,0,0,1-3.674,7.65,43.162,43.162,0,0,0,6.383,1.169,12.243,12.243,0,0,0,2.3-3.07A5.291,5.291,0,0,0,203.616,175.033Z" transform="translate(-4.965 -4.426)"></path><path id="Path_476" data-name="Path 476" class="cls-6" d="M207.911,175.326a11.671,11.671,0,0,1-2.66-.37,9.6,9.6,0,0,1-1.257-.439,7.383,7.383,0,0,0-.974-.458c-.3-.078-.994-.088-.975.38A9.231,9.231,0,0,1,199.511,181c-1.959-.682-4.736-1.052-4.931.78-.117,1.072,1.121,1.793,1.92,2.183,1.491.731,3.187,1.033,4.57,1.969,2.612,1.754,1.783,4.853,2.183,7.543.244,1.666.439,4.171,1.705,5.467a3.349,3.349,0,0,0,4,.263c1.627-.975,2.232-3.206,2.68-4.911A65.054,65.054,0,0,0,213,186.074a20.781,20.781,0,0,0,0-6.86c-.312-1.481-.9-2.923-2.368-3.557A7.558,7.558,0,0,0,207.911,175.326Z" transform="translate(-4.962 -4.446)"></path><path id="Path_477" data-name="Path 477" class="cls-5" d="M205.532,189a21.78,21.78,0,0,0-3.148,1.871c-.526.4.088,1.15.614.8a25.859,25.859,0,0,1,3.157-1.588c.624-.292,1.852-.692,2.056-1.423a.349.349,0,0,0-.107-.38C207.364,187.651,206.2,188.655,205.532,189Z" transform="translate(-5.156 -4.805)"></path><path id="Path_478" data-name="Path 478" class="cls-5" d="M205.07,186.253a14.931,14.931,0,0,0-2.768,1.627c-.6.341-.224,1.316.429,1s1.238-.721,1.881-1.052c.692-.351,1.491-.4,2.173-.75a.561.561,0,0,0,.341-.458C207.165,185.61,205.615,186.088,205.07,186.253Z" transform="translate(-5.152 -4.752)"></path><path id="Path_479" data-name="Path 479" class="cls-5" d="M203.521,183.7a12.044,12.044,0,0,0-2.475,2.134c-.477.507.361,1.345.867.858a12.709,12.709,0,0,1,2.076-1.676c.653-.4,1.6-.585,2.1-1.16a.293.293,0,0,0,0-.37C205.432,182.73,204.223,183.285,203.521,183.7Z" transform="translate(-5.124 -4.678)"></path><path id="Path_480" data-name="Path 480" class="cls-4" d="M135.09,173.281a148.464,148.464,0,0,0-.253,15.465c.39,6.13,1.277,15.592,1.277,15.592a19.839,19.839,0,0,0,5.5,1.4,2.547,2.547,0,0,0,2.553-1.277s-.253-17.258.9-23.4a52.267,52.267,0,0,1,2.173-8.692s-3.07-3.323-7.036-2.816A6.293,6.293,0,0,0,135.09,173.281Z" transform="translate(-3.436 -4.331)"></path><path id="Path_481" data-name="Path 481" class="cls-5" d="M144.173,198.4a16.982,16.982,0,0,1-8.673-.38c.331,3.869.633,7.055.633,7.055a19.839,19.839,0,0,0,5.5,1.4,2.547,2.547,0,0,0,2.553-1.277S144.144,202.269,144.173,198.4Z" transform="translate(-3.456 -5.058)"></path><path id="Path_482" data-name="Path 482" class="cls-6" d="M145.372,208.867a11.421,11.421,0,0,1-.643-2.6,10.053,10.053,0,0,1-.059-1.325,6.651,6.651,0,0,0,.059-1.082c-.039-.312-.283-.955-.711-.76a9.216,9.216,0,0,1-7.036.078c-.1-2.066-.78-4.785-2.553-4.288-1.033.292-1.247,1.705-1.316,2.592-.127,1.657.224,3.343-.127,4.98-.663,3.079-3.84,3.459-6.188,4.824-1.452.848-3.713,1.959-4.444,3.615a3.341,3.341,0,0,0,1.247,3.81c1.51,1.15,3.81.877,5.555.663a64.849,64.849,0,0,0,8.137-1.793,20.985,20.985,0,0,0,6.363-2.543c1.267-.838,2.388-1.92,2.417-3.528A7.327,7.327,0,0,0,145.372,208.867Z" transform="translate(-3.115 -5.079)"></path><path id="Path_483" data-name="Path 483" class="cls-5" d="M132.215,211.69a21.472,21.472,0,0,0-2.9-2.232c-.565-.341-1.033.507-.507.867a24.184,24.184,0,0,1,2.641,2.349c.507.468,1.335,1.462,2.085,1.374a.347.347,0,0,0,.312-.234C134.154,212.9,132.79,212.186,132.215,211.69Z" transform="translate(-3.279 -5.348)"></path><path id="Path_484" data-name="Path 484" class="cls-5" d="M134.609,210.235a15.154,15.154,0,0,0-2.543-1.968c-.536-.429-1.3.283-.77.77s1.13.877,1.676,1.355c.585.516.926,1.238,1.5,1.735a.567.567,0,0,0,.546.146C135.983,211.94,134.969,210.674,134.609,210.235Z" transform="translate(-3.344 -5.316)"></path><path id="Path_485" data-name="Path 485" class="cls-5" d="M136.384,207.859a11.928,11.928,0,0,0-2.9-1.51c-.643-.253-1.111.838-.478,1.121a12.975,12.975,0,0,1,2.329,1.306c.614.458,1.13,1.267,1.861,1.53a.32.32,0,0,0,.351-.146C137.992,209.272,137.037,208.356,136.384,207.859Z" transform="translate(-3.384 -5.27)"></path><path id="Path_486" data-name="Path 486" class="cls-7" d="M140.049,141.806s-4.22,10.866-5.623,17.765-.77,15.982-.77,15.982a35.722,35.722,0,0,1,9.209.127c3.84.77,6.773,1.666,6.773,1.666a51.906,51.906,0,0,1,3.576-12.016,42.072,42.072,0,0,1,3.84-6.773s3.07,6.519,7.8,10.486a41.811,41.811,0,0,0,8.692,5.749l12.142-12.785a56.961,56.961,0,0,1-6.9-12.016,21.025,21.025,0,0,1-1.277-10.866S143.5,135.793,140.049,141.806Z" transform="translate(-3.405 -3.533)"></path><path id="Path_487" data-name="Path 487" class="cls-4" d="M98.11,136.5a5.032,5.032,0,0,1,3.235-2.212,25.722,25.722,0,0,1,3.664-.341s7.669-6.139,13.039-11.246a167.443,167.443,0,0,0,12.016-13.38s3.5-1.53,5.282.936a4.882,4.882,0,0,1,.594,4.863s-5.876,7.416-10.486,12.016-9.209,8.868-10.486,10.564-1.618,5.369-2.768,7.036c-.692.994-3.878-1.4-7.289-3.109C101.52,139.9,97.856,137.179,98.11,136.5Z" transform="translate(-2.502 -2.784)"></path><path id="Path_488" data-name="Path 488" class="cls-4" d="M218.34,136.5a5.032,5.032,0,0,0-3.235-2.212,25.722,25.722,0,0,0-3.664-.341S203.771,127.8,198.4,122.7a167.443,167.443,0,0,1-12.016-13.38s-3.5-1.53-5.282.936a4.882,4.882,0,0,0-.594,4.863s5.876,7.416,10.486,12.016S200.2,136,201.481,137.695s1.618,5.369,2.768,7.036c.692.994,3.878-1.4,7.289-3.109C214.929,139.9,218.593,137.179,218.34,136.5Z" transform="translate(-4.594 -2.784)"></path><path id="Path_489" data-name="Path 489" class="cls-8" d="M140.252,38.453c-1.325-2.953-4.639-3.06-7.465-2.923a.57.57,0,0,0-.555.4c-3.966,1.452-8.127,2.407-12.1,3.849a69.432,69.432,0,0,0-11.889,5.145c-3.089,1.8-11.46,5.672-7.981,10.476,3.83,5.3,13.477,2.183,18.486,1.13,7.046-1.491,14.306-4.531,19.3-9.891C140.125,44.4,141.606,41.473,140.252,38.453Z" transform="translate(-2.536 -0.913)"></path><path id="Path_490" data-name="Path 490" class="cls-4" d="M150.843,85.32l-.253,7.8s2.426,2.173,7.669,1.92,6.393-1.666,6.393-1.666l-.643-9.209Z" transform="translate(-3.841 -2.154)"></path><path id="Path_491" data-name="Path 491" class="cls-4" d="M198.926,43.159c-.185-2.378-.624-7-3.606-7.543-2.056-.38-3.294,1.627-3.976,3.947a50.705,50.705,0,0,0-4-10.934c-3.323-7.036-11.635-16.108-26.077-20.961s-33.113,5.5-39.506,16.362c-5.2,8.848-4.872,25.035-4.561,30.745-1.959-2.144-4.853-4.356-6.88-3.372-2.4,1.16-1.735,5.321-1.267,7.348.653,2.816,2.212,6.12,5.067,7.279a4.157,4.157,0,0,0,5.067-1.13c1.783,3.976,4.941,7.435,10,12.571,8.049,8.186,29.147,12.785,45.509,2.3,9.979-6.393,14.345-17.054,16.147-25.278a5.676,5.676,0,0,0,4.96-1.277C198.8,50.857,199.2,46.706,198.926,43.159Z" transform="translate(-2.77 -0.172)"></path><path id="Path_492" data-name="Path 492" class="cls-7" d="M148.074,53.881a8.807,8.807,0,0,1,.828.76c.107.107.341.5.5.2.224-.419-.4-1.345-.6-1.705a8,8,0,0,0-1.091-1.471,7.631,7.631,0,0,0-2.982-1.949,6.93,6.93,0,0,0-4.59.01c-3.878,1.374-5.72,5.633-5.642,9.521,0,.185.234.4.419.312.273-.127.322-.848.409-1.1a15.07,15.07,0,0,1,.565-1.433,9.4,9.4,0,0,1,3.216-4.171,6.727,6.727,0,0,1,1.569-.721A8.364,8.364,0,0,1,148.074,53.881Z" transform="translate(-3.43 -1.266)"></path><path id="Path_493" data-name="Path 493" class="cls-9" d="M170.361,37.412a62.845,62.845,0,0,0,7.426.575,9.85,9.85,0,0,0,3.635-.292c2.9-1.111-1.13-3.128-2.573-3.567a20.933,20.933,0,0,0-7.64-.8c-1.491.107-4.512.5-4.21,2.115C167.233,36.69,168.968,37.2,170.361,37.412Z" transform="translate(-4.258 -0.856)"></path><path id="Path_494" data-name="Path 494" class="cls-7" d="M169.053,49.088a8.66,8.66,0,0,0-.458,1.023c-.049.146-.117.594-.37.38-.37-.3-.166-1.394-.117-1.8a7.365,7.365,0,0,1,.429-1.774,7.524,7.524,0,0,1,1.978-2.962,6.976,6.976,0,0,1,4.229-1.8c4.112-.263,7.474,2.933,8.936,6.529.068.166-.058.458-.263.448-.3-.01-.633-.653-.809-.848a14.292,14.292,0,0,0-1.082-1.091,9.408,9.408,0,0,0-4.6-2.563,6.4,6.4,0,0,0-1.725-.039A8.3,8.3,0,0,0,169.053,49.088Z" transform="translate(-4.285 -1.082)"></path><path id="Path_495" data-name="Path 495" class="cls-9" d="M145.2,40.765c-.341-1.608-3.284-.819-4.7-.341a20.9,20.9,0,0,0-6.753,3.654c-1.16.965-4.122,4.366-1.013,4.288a9.808,9.808,0,0,0,3.469-1.13,66.41,66.41,0,0,0,6.646-3.372C144.058,43.143,145.461,42,145.2,40.765Z" transform="translate(-3.35 -1.023)"></path><path id="Path_496" data-name="Path 496" class="cls-9" d="M191.078,30.622a19.332,19.332,0,0,0-3.567-6.169,13.44,13.44,0,0,0-.643-1.228,38.321,38.321,0,0,0-7.163-9.053,43.513,43.513,0,0,0-13.77-8.41c-8.634-4.58-20.114-3.5-28.533.867a39.079,39.079,0,0,0-13.867,11.8,31.234,31.234,0,0,0-4.181,8.283c-.516,1.559-1.4,3.5-1.286,5.243a4.772,4.772,0,0,0-.741.37c-2.641,1.6-3.167,4.775-3.615,7.6a15.956,15.956,0,0,0-.6,3.138,26.914,26.914,0,0,0,.292,5.457,15.736,15.736,0,0,0,3.576,8.127.566.566,0,0,0,.936-.244c1.238-3.888,3.489-7.338,4.122-11.431a27.745,27.745,0,0,0-.468-10.934,30.033,30.033,0,0,0,7.708,2.3c3.391.633,7.64,1.238,11.031.458a.627.627,0,0,0,.429-.76c-.575-2.007-2.193-3.089-3.489-4.492a32.44,32.44,0,0,0,3.781,1.871,29.109,29.109,0,0,0,6.11,1.335c2.31.283,4.609.195,6.929.292,1.7.068,3.381.361,5.038-.175a.646.646,0,0,0,.38-.926,9.408,9.408,0,0,0-2.68-2.621,14.671,14.671,0,0,1-1.988-1.978c4.989,1.93,10.369,2.124,15.758,2a.671.671,0,0,0,.575-1,21.476,21.476,0,0,0-1.481-1.988,20.516,20.516,0,0,0,4.97,1.14,37.772,37.772,0,0,0,6.695.2,25.633,25.633,0,0,0,2.787,5.126,24.754,24.754,0,0,0,6.958,7.2.692.692,0,0,0,.936-.244C193.68,38.272,192.394,34.042,191.078,30.622Z" transform="translate(-2.884 -0.079)"></path><path id="Path_497" data-name="Path 497" class="cls-10" d="M165.932,54.452c-2.027-1.345-5.077-1.1-6.89-2.651a4.3,4.3,0,0,1-.341-.38c-1.325-1.16-1.949-3.664-2.2-5.067a16.054,16.054,0,0,1-.331-4.034.412.412,0,0,0-.478.429c.136,3.43-.136,8.507,3.274,10.573,1.618.984,3.684,1.082,5.389,1.929,1.744.867,2.339,2.115,1.033,3.878-1.14,1.54-2.719,1.852-4.444,2.378-.546.166-.526,1.15.088,1.179C164.987,62.93,170.551,57.512,165.932,54.452Z" transform="translate(-3.971 -1.087)"></path><path id="Path_498" data-name="Path 498" class="cls-11" d="M141.93,69.406a95.359,95.359,0,0,0,18.535-2.816c8.946-2.436,15.728-4.989,15.728-4.989s-1.15,10.1-5.876,15.085c-3.245,3.42-11.382,5.369-18.662.643C144.356,72.6,141.93,69.406,141.93,69.406Z" transform="translate(-3.62 -1.579)"></path><path id="Path_499" data-name="Path 499" class="cls-12" d="M162.521,70.436a36.221,36.221,0,0,0,7.007-2.719,6.826,6.826,0,0,0,3.937-5.058c-2.8.965-7.426,2.485-12.854,3.966a89.591,89.591,0,0,1-13.331,2.4C150.281,73.545,158.126,71.7,162.521,70.436Z" transform="translate(-3.756 -1.606)"></path><path id="Path_500" data-name="Path 500" class="cls-13" d="M159.244,75.4c-3.352-.614-6.5.341-9.764.682.721.507,1.51,1.043,2.358,1.6A16.326,16.326,0,0,0,167.4,79.176C165.238,76.964,162.324,75.97,159.244,75.4Z" transform="translate(-3.812 -1.926)"></path><path id="Path_501" data-name="Path 501" class="cls-14" d="M178.493,8.352C171.252.8,159.266.78,149.1,1.978c-2.4-3.089-7.942-2.5-8.342,1.462-7.163,1.881-16.1,5.35-21.975,13.273-7.328,9.881-6.646,26.847-6.646,26.847s10.953-6.217,39.418-13.214,37.674-4.259,37.674-4.259A47.912,47.912,0,0,0,178.493,8.352ZM161.41,23.291a57.635,57.635,0,0,1-15.582,3.771,8.322,8.322,0,0,1-3.508-.185,3.126,3.126,0,0,1-2.222-2.5c-.156-1.8,1.686-3.079,3.333-3.8a32.685,32.685,0,0,1,7.893-2.329c2.212-.585,4.434-1.121,6.666-1.579a9.536,9.536,0,0,1,4.473-.166,3.446,3.446,0,0,1,2.67,3.216C165.016,21.537,163.106,22.628,161.41,23.291Z" transform="translate(-2.859 -0.008)"></path><path id="Path_502" data-name="Path 502" class="cls-15" d="M176.611,21.794a30.067,30.067,0,0,0-7.055-10.261,35.774,35.774,0,0,0-17.239-9.151,25.966,25.966,0,0,0-3.372-.312A31.04,31.04,0,0,0,142.29,3.7c-6.032,3.83-11,10.6-13.614,16.742a37.069,37.069,0,0,0-2.768,13.048c-.058,1.471-.078,2.992-.049,4.531.478-.166.975-.341,1.481-.516a38.132,38.132,0,0,1,2.1-15.465c3-7.874,9.19-14.666,16.294-19.129,1.394.2,2.8.273,4.229.419a24.894,24.894,0,0,1,6.334,1.608,32.223,32.223,0,0,1,11.372,6.841,30.4,30.4,0,0,1,7.036,9.5c.682,1.5,1.393,3.06,2.027,4.658.555-.049,1.091-.1,1.608-.127C177.79,24.425,177.147,23.08,176.611,21.794Z" transform="translate(-3.209 -0.061)"></path><path id="Path_503" data-name="Path 503" class="cls-16" d="M150.163,91.768a17.045,17.045,0,0,0,7.884,1.169c4.346-.429,5.876-2.553,5.876-2.553l-.166-1.705s7.582-.429,12.61,1.959,8.6,11.509,10.564,14.4a58.032,58.032,0,0,1,3.411,5.8s-4.005,3.5-6.305,5.535a20.172,20.172,0,0,1-2.553,2.134,20.472,20.472,0,0,1-3.84-3.839c-1.53-2.134-3.411-4.687-3.411-4.687s2.046,10.9,3.664,19,2.553,10.992,2.553,10.992-9.034,4.687-23.524,4.005-19.09-2.3-19.09-2.3,2.894-29.576,2.894-30.17-4.093,5.028-4.093,5.028-2.641-2.475-4.775-4.687a18.739,18.739,0,0,1-2.982-3.84s3.362-5.876,5.925-9.55,3.791-6.539,8.049-7.669a40.49,40.49,0,0,1,7.221-1.023Z" transform="translate(-3.287 -2.269)"></path><path id="Path_504" data-name="Path 504" class="cls-17" d="M251.448,21.676s-6.987-2.553-17.219,4.775S219.4,49.634,216.161,62.926,209,88.662,217.525,92.414s42.439,8.692,54.718,10.9,32.217,4.775,38.863,4.259,9.55-6.646,11.246-17.219,3.235-29.488-.682-42.274-10.222-15.855-15.514-17.9C300.884,28.146,255.365,18.772,251.448,21.676Z" transform="translate(-5.416 -0.547)"></path><path id="Path_505" data-name="Path 505" class="cls-18" d="M274.7,94.82a18.77,18.77,0,0,0-4.424-.546,22.613,22.613,0,0,1-5.71-.974.482.482,0,0,0-.575.516,43.247,43.247,0,0,0-2.134,5.253,10.018,10.018,0,0,0-.965,3.294c0,2.66,3.128,3.947,5.34,4.317,2.046.341,5.126.429,6.675-1.257,2.144-2.319,1.559-7,2.232-9.833A.64.64,0,0,0,274.7,94.82Z" transform="translate(-6.654 -2.387)"></path><path id="Path_506" data-name="Path 506" class="cls-19" d="M279.08,17.134c-3.284-.555-12.746.029-13.3.107a37.935,37.935,0,0,0-19.256,9.092C237.654,34.519,233.4,49,233.23,54.632s4.434,26.935,19.09,35.793,27.1,6.987,35.793,2.388a40.794,40.794,0,0,0,16.878-16.2c3.07-5.457,6.139-17.726,5.964-23.183s-5.8-22.667-13.468-27.617C289.819,20.886,284.1,17.982,279.08,17.134Z" transform="translate(-5.948 -0.439)"></path><path id="Path_507" data-name="Path 507" class="cls-17" d="M287.612,49.578a38.9,38.9,0,0,0,5.233,2.368,5.874,5.874,0,0,0,2.748.614c2.475-.341.166-3.245-.741-4.015a12.541,12.541,0,0,0-5.311-2.621c-1.121-.263-3.44-.633-3.742.974C285.565,48.126,286.666,49.033,287.612,49.578Z" transform="translate(-7.288 -1.173)"></path><path id="Path_508" data-name="Path 508" class="cls-7" d="M282.266,60.139a8.694,8.694,0,0,0-.76.828c-.1.117-.3.526-.477.244-.253-.4.292-1.374.468-1.744a7.757,7.757,0,0,1,3.791-3.732,6.986,6.986,0,0,1,4.58-.361c3.976,1.062,6.149,5.155,6.393,9.034.01.185-.2.419-.4.341-.283-.107-.39-.819-.5-1.062a14.017,14.017,0,0,0-.682-1.384,9.391,9.391,0,0,0-3.547-3.9,6.138,6.138,0,0,0-1.627-.585A8.349,8.349,0,0,0,282.266,60.139Z" transform="translate(-7.166 -1.414)"></path><path id="Path_509" data-name="Path 509" class="cls-17" d="M261.913,43.292c.1-1.627-2.241-1.832-3.391-1.852a12.522,12.522,0,0,0-5.789,1.267c-1.072.536-4,2.787-1.686,3.723a5.854,5.854,0,0,0,2.816.058,38.067,38.067,0,0,0,5.642-1.033C260.549,45.163,261.835,44.539,261.913,43.292Z" transform="translate(-6.381 -1.065)"></path><path id="Path_510" data-name="Path 510" class="cls-7" d="M262.008,56.971a10.863,10.863,0,0,1,.546.984c.068.136.166.585.4.351.341-.331.049-1.4-.029-1.8a7.85,7.85,0,0,0-.565-1.735,7.627,7.627,0,0,0-2.2-2.8A6.9,6.9,0,0,0,255.8,50.52c-4.122.068-7.221,3.518-8.381,7.231-.058.175.1.458.3.429.292-.039.575-.7.741-.916a14.446,14.446,0,0,1,.994-1.179,9.321,9.321,0,0,1,4.375-2.923,6.408,6.408,0,0,1,1.725-.175A8.271,8.271,0,0,1,262.008,56.971Z" transform="translate(-6.31 -1.296)"></path><path id="Path_511" data-name="Path 511" class="cls-20" d="M265.3,64.689c.585-2.6,4.726-1.267,6.159-2.943a3.878,3.878,0,0,0,.633-1.92c.214-1.286.331-2.641.468-3.966.107-1.033-.01-2.865,1.091-3.411.02-.01.029-.01.039-.019-.136,2.124-.312,4.239-.536,6.363-.137,1.345-.088,3.1-1.033,4.19-1.13,1.325-2.641.663-4.064,1.189-2.134.8-.994,2.251.195,3.167a4.756,4.756,0,0,0,4.171,1.052.572.572,0,0,1,.585.965C270.814,71.54,264.626,67.681,265.3,64.689Z" transform="translate(-6.765 -1.345)"></path><path id="Path_512" data-name="Path 512" class="cls-17" d="M233.554,52.98A50.02,50.02,0,0,0,246,40.536c4.775-7.328,8.439-21.566,8.439-21.566S240.883,24.339,235.6,32.525,233.554,52.98,233.554,52.98Z" transform="translate(-5.931 -0.492)"></path><path id="Path_513" data-name="Path 513" class="cls-17" d="M252.47,21.372s9.375-14.15,25.23-11.928,23.008,11.246,25.571,14.832A16.881,16.881,0,0,1,306,32.461s-13.633,5.964-28.981,2.553A50.538,50.538,0,0,1,252.47,21.372Z" transform="translate(-6.439 -0.243)"></path><path id="Path_514" data-name="Path 514" class="cls-17" d="M302.314,30.61a45.3,45.3,0,0,0,1.871,18.067c3.07,9.881,7.162,14.656,7.162,14.656s4.941-6.987,6.305-13.633S309.136,30.61,302.314,30.61Z" transform="translate(-7.704 -0.789)"></path><path id="Path_515" data-name="Path 515" class="cls-13" d="M253.442,2.14c-3.5-.185-5.486,1.832-5.642,5.223a37.555,37.555,0,0,0,.936,9.794c-.633-1.267-1.3-2.514-1.92-3.781a28.419,28.419,0,0,0-3.157-5.75c-2.748-3.352-6.032-1.725-8.381,1.218-2.495,3.128-3.021,6.568.37,9.238a30.969,30.969,0,0,0,6.987,3.7,23.33,23.33,0,0,0,4.161,1.433,7.617,7.617,0,0,0,3.138.292c2.134-.468,2.836-3.947,3.557-5.662C254.913,14.418,261.082,2.529,253.442,2.14Z" transform="translate(-5.949 -0.062)"></path><path id="Path_516" data-name="Path 516" class="cls-11" d="M251.99,71.97s19.3,3.2,26.594,3.576A65.23,65.23,0,0,1,289.07,76.7s-4.093,15.728-20.328,12.785S251.99,71.97,251.99,71.97Z" transform="translate(-6.427 -1.843)"></path><path id="Path_517" data-name="Path 517" class="cls-12" d="M270.541,78.921c5.5,1.023,13.224.887,14.1-2.875-1.54-.166-3.479-.331-5.857-.458-4.278-.224-12.7-1.423-18.915-2.368C261.478,77.391,266.048,78.083,270.541,78.921Z" transform="translate(-6.628 -1.875)"></path><path id="Path_518" data-name="Path 518" class="cls-13" d="M273.652,84.69a14.1,14.1,0,0,0-8.693,4.034,25.741,25.741,0,0,0,4.112,1.091c5.233.945,9.2-.049,12.181-1.832C279.2,85.986,276.946,84.553,273.652,84.69Z" transform="translate(-6.757 -2.168)"></path><path id="Path_519" data-name="Path 519" class="cls-19" d="M237.99,64.657c-.556-2.543-2.67-4.619-2.826-7.231a12.551,12.551,0,0,0-1.208-8.254c-1.608-2.768-3.937-1.091-5.038,1.2-1.813,3.762-1.491,9.326.029,13.146,1.306,3.274,5.555,5.145,7.942,1.842h0c.185,0,.37,0,.575-.01A.549.549,0,0,0,237.99,64.657Z" transform="translate(-5.807 -1.225)"></path><path id="Path_520" data-name="Path 520" class="cls-19" d="M317.7,63.3c-.2-2.855-1.842-4.687-4.6-3.07-2.729,1.6-4.882,4.473-6.666,7.016a.365.365,0,0,0-.029.37A18.028,18.028,0,0,0,305.33,71.4a13.04,13.04,0,0,0-.3,2.5.463.463,0,0,0-.058.214c-.341,4.044,4.814,4.492,7.231,2.5C315.757,73.7,318.028,67.864,317.7,63.3Z" transform="translate(-7.778 -1.529)"></path><path id="Path_521" data-name="Path 521" class="cls-19" d="M205.166,142.379c.624,1.608,2.709,2.183,4.229,2.349a13.612,13.612,0,0,0,8.829-1.9c.1.458.214.877.312,1.208.283.965.8,2.553,1.959,2.758,1.4.244,2.144-1.657,2.29-2.729a10.878,10.878,0,0,0-.906-5.243c3.459-.974,7.036-3.245,9.989-5.175,7.738-5.048,13.692-13.906,13.487-14.062a5.035,5.035,0,0,0-2.816-3.45c-.994-.585-2.046-2.846-3.07-1.793a.551.551,0,0,0-.156.487c-2.212,2.134-7.835,8.654-11.733,12.61-2.641,2.69-5.837,5.944-9.228,7.679a33.823,33.823,0,0,1-5.633,2.046,50.218,50.218,0,0,0-5.506,2.007,7.625,7.625,0,0,0-.8.4C205.429,140.167,204.649,141.063,205.166,142.379Z" transform="translate(-5.228 -2.917)"></path><path id="Path_522" data-name="Path 522" class="cls-19" d="M337.757,102.125c-1.325-.468-3.021-.039-5.194.049,1.394-.809,2.816-1.754,4.22-2.495,1.218-.643,2.768-2.046,1.978-3.362-.7-1.169-2.3-.419-3.2-.088-.848.312-3.489,1.52-4.259,1.959.507-.76,2.446-2.875,2.816-3.576.458-.877,1.939-3.021.809-3.908-1.023-.809-2.426.828-3.109,1.423a44.175,44.175,0,0,0-5.837,6.578c-.858-.653-2.923-3.343-4.005-3.284-3.021.185-.214,4.473.458,6.441a28.125,28.125,0,0,1-3.771,4.931,18.819,18.819,0,0,1-6.909,3.986,24.432,24.432,0,0,1-7.562,1.364c-2.582.019-5.711.136-8.108-.887a.383.383,0,0,0-.546.3c-2.807,1.043-4.093,4.892-4.492,7.611a.666.666,0,0,0,.458.721,10.209,10.209,0,0,0,4.19,1.939,49.557,49.557,0,0,0,5.477,1.5,17.568,17.568,0,0,0,10.632-1.842,32.226,32.226,0,0,0,9.316-7.328,58.83,58.83,0,0,0,3.742-4.629,6.2,6.2,0,0,1,3.586-2.66,21.664,21.664,0,0,0,5.194-.916c1.978-.507,3.645-.8,4.795-1.978C339.365,103.012,338.859,102.515,337.757,102.125Z" transform="translate(-7.423 -2.316)"></path><path id="Path_523" data-name="Path 523" class="cls-13" d="M303.611,25.527c.1,1.852-.429,5.369,1.423,6.529a7.6,7.6,0,0,0,3.05.789,22.944,22.944,0,0,0,4.4.058,30.788,30.788,0,0,0,7.835-1.111c4.093-1.355,4.765-4.775,3.479-8.566-1.218-3.567-3.762-6.208-7.474-3.986a28.9,28.9,0,0,0-4.921,4.337c-1.013.984-2.056,1.939-3.089,2.914a37.234,37.234,0,0,0,4.2-8.9c.994-3.245-.185-5.818-3.537-6.831C301.643,8.551,303.417,21.824,303.611,25.527Z" transform="translate(-7.735 -0.276)"></path><path id="Path_524" data-name="Path 524" class="cls-13" d="M239.27,114.8s6.9-7.991,8.624-10.1,3.07-4.726,4.22-5.048,8.946-.195,8.946-.195.127,6.646,6.139,5.564,6.841-3.771,6.841-3.771,9.073,1.277,10.866,2.3,4.668,4.346,7.864,5.691a48.386,48.386,0,0,0,4.989,1.852,93.848,93.848,0,0,0-4.151,8.439c-.828,2.368-1.023,3.128-1.023,3.128s-7.923-2.875-9.589-3.9-2.1-1.277-2.1-1.277l-.253,8.186-33.367-3.2,1.15-5.691-2.943,4.794a22.628,22.628,0,0,1-3.7-3.2A35.914,35.914,0,0,1,239.27,114.8Z" transform="translate(-6.102 -2.544)"></path><path id="Path_525" data-name="Path 525" class="cls-19" d="M243.717,163.72s0,19.6-.507,26.253.848,11.246-.682,14.832-5.8,7.5-5.8,7.5,2.729,5.457,8.01,3.576,8.692-5.457,8.692-6.3-1.53-2.387-1.023-6.987S256.5,167.14,256.5,167.14Z" transform="translate(-6.037 -4.184)"></path><path id="Path_526" data-name="Path 526" class="cls-13" d="M239.237,210.857s-1.452,1.364-.214,2.68,4.941,1.325,8.01,0A22.362,22.362,0,0,0,253,209.23a3.557,3.557,0,0,1,.848,2.475c.088,1.793-.039,6.091-8.1,8.186s-12.1.088-12.659-2.134,1.871-4.687,3.411-5.584A18.805,18.805,0,0,1,239.237,210.857Z" transform="translate(-5.943 -5.344)"></path><path id="Path_527" data-name="Path 527" class="cls-19" d="M265.41,166.505s3.07,22.16,4.941,29.654,2.894,13.126,5.8,15.855,7.669,5.623,10.9,4.6,3.576-4.6,1.189-7.669-4.941-4.775-6.987-17.044a155.5,155.5,0,0,1-1.705-25.571Z" transform="translate(-6.769 -4.25)"></path><path id="Path_528" data-name="Path 528" class="cls-13" d="M274.07,209.647s4.307,4.9,8.907,5.282,5.34-1.033,5.6-2.378a5.717,5.717,0,0,0-1.082-3.8,47.034,47.034,0,0,0,4.307,4.181c1.832,1.452,2.426,2.641,1.189,5.369s-4.346,5.194-10.525,2.3-7.241-6.646-7.63-7.8S274.07,209.647,274.07,209.647Z" transform="translate(-6.99 -5.332)"></path><path id="Path_529" data-name="Path 529" class="cls-21" d="M250.166,109.49s13.292.848,17.9,1.364,10.145,1.618,10.145,1.618-.341,5.623.935,8.01a8.558,8.558,0,0,0,2.046,2.894s-.253,10.9-.429,18.749,1.111,24.8,1.111,25.054-4.6,2.212-11.168,1.871-7.328-1.53-7.328-1.53a38.363,38.363,0,0,1-.77-6.217,52.425,52.425,0,0,0-.936-7.328s-1.871,9.121-2.212,10.9a12.844,12.844,0,0,1-.682,2.553,27.451,27.451,0,0,1-9.8-.341c-4.687-1.189-6.48-2.729-6.48-2.729a105.254,105.254,0,0,1,.507-16.7c1.023-9.209,4.346-25.736,5.116-30.083A61.288,61.288,0,0,1,250.166,109.49Z" transform="translate(-6.181 -2.8)"></path><path id="Path_530" data-name="Path 530" class="cls-22" d="M271.635,113.466c-2.261-.341-4.522-.322-6.782-.555a48.612,48.612,0,0,0-7.026-.526.416.416,0,0,0-.78.136c-.77,4.453,2.787,9.287,6.529,10.028,4.609.916,7.289-3.956,8.449-8.478A.479.479,0,0,0,271.635,113.466Zm-7.133,8.04c-3.752-.253-6.48-4.2-6.578-8.351,4.375.526,8.8.624,13.156,1.179C269.988,117.656,267.845,121.73,264.5,121.506Z" transform="translate(-6.553 -2.869)"></path><path id="Path_531" data-name="Path 531" class="cls-23" d="M260.734,99.231a5.958,5.958,0,0,0-3.752-1.111c-2.475,0-3.323,2.388-4.863,5.535s-3.5,10.057-2.982,12.951,1.618,5.282,4.093,3.323,2.514-5.779,3.021-8.761a55.7,55.7,0,0,1,1.852-8.439C259.458,99.163,260.734,99.231,260.734,99.231Z" transform="translate(-6.352 -2.51)"></path><path id="Path_532" data-name="Path 532" class="cls-23" d="M283.141,102.626s-1.764-2.134-3.9-1.618-5.535,7.582-6.217,13.721.936,8.351,3.323,8.01,2.582-10.593,3.469-13.789C281.543,102.752,283.141,102.626,283.141,102.626Z" transform="translate(-6.959 -2.582)"></path><path id="Path_533" data-name="Path 533" class="cls-22" d="M275.2,150.423a14.375,14.375,0,0,1-1.705-6.032c-.088-1.666.078-3.294-.156-4.931a29.484,29.484,0,0,1,7.455,2.387q.015-.76.029-1.549a19.077,19.077,0,0,0-5.7-1.754,85.508,85.508,0,0,0-9.54-1.491c-3.693-.331-7.406-.292-11.109-.565a47.22,47.22,0,0,0-9.774.478c-.049.263-.088.526-.136.78,1.364-.068,2.719-.156,4.073-.214a23.192,23.192,0,0,1-2.28,8.887,26.142,26.142,0,0,1-3.625,4.96c-.039.478-.068.945-.107,1.413,4.151-4.1,7.153-9.238,7.007-15.3a33.146,33.146,0,0,1,3.537.078c3.372.283,6.763.292,10.125.633,2.953.3,6.052.555,9.073,1.072a18.659,18.659,0,0,0,2.183,12.844c1.394,2.261,3.869,4.765,6.656,5.175-.029-.507-.058-1.013-.078-1.53a9.93,9.93,0,0,1-2-.828A11.076,11.076,0,0,1,275.2,150.423Z" transform="translate(-6.188 -3.487)"></path><path id="Path_534" data-name="Path 534" class="cls-22" d="M264.585,133.239c-6.149-.5-12.932-1.286-19.12-.351l-.175.965c5.876-.555,12.006-.078,17.862.4a65.65,65.65,0,0,1,17.785,3.654c.01-.429.019-.867.029-1.3-1.842-1.013-4.239-1.286-6.188-1.744A64.184,64.184,0,0,0,264.585,133.239Z" transform="translate(-6.256 -3.386)"></path><path id="Path_535" data-name="Path 535" class="cls-24" d="M254.254,113.409a1.447,1.447,0,0,0-.838-1.15,2.161,2.161,0,0,0-2.378,1.647,3.184,3.184,0,0,0,.614,2.758c.711.741,1.666.331,2.183-.409A4.047,4.047,0,0,0,254.254,113.409Z" transform="translate(-6.4 -2.87)"></path><path id="Path_536" data-name="Path 536" class="cls-24" d="M277.514,115.769a1.447,1.447,0,0,0-.838-1.15,2.161,2.161,0,0,0-2.378,1.647,3.184,3.184,0,0,0,.614,2.758c.711.741,1.666.331,2.183-.409A3.988,3.988,0,0,0,277.514,115.769Z" transform="translate(-6.994 -2.93)"></path><path id="Path_537" data-name="Path 537" class="cls-25" d="M76.86,204.586s.068,7.221,2.816,9.394,4.6,2.173,7.864,1.472,7.669-3.45,7.737-6.773-4.668-6.2-5.876-7.221-2.3-1.793-2.3-1.793a7.374,7.374,0,0,0-5.3-.127C79.228,200.63,76.606,202.54,76.86,204.586Z" transform="translate(-1.96 -5.086)"></path><path id="Path_538" data-name="Path 538" class="cls-25" d="M24.245,206.447s-3.771,3.84-5.048,7.163-.195,5.3,5.876,5.818,10.1.77,11.314-2.046a9.472,9.472,0,0,0-.322-7.474,15.705,15.705,0,0,0-1.852-3.07s-3.07-2.495-5.243-2.427S24.245,206.447,24.245,206.447Z" transform="translate(-0.477 -5.221)"></path><path id="Path_539" data-name="Path 539" class="cls-21" d="M28.853,146.56s-3.07,21.478-3.84,32.85-1.023,25.951-1.023,25.951a18.97,18.97,0,0,1,6.519,0,23.908,23.908,0,0,1,4.726,1.277s7.806-39.779,9.6-44.252c1.881-4.717,5.116-6.013,8.819-2.173s15.962,31.34,18.009,35.306,3.84,8.312,3.84,8.312a13.671,13.671,0,0,1,5.75-3.84,18.94,18.94,0,0,1,5.243-1.277s-10.612-32.47-13.419-41.163-4.346-13.292-4.346-13.292-12.659,2.816-21.478,2.3-18.408-1.277-18.408-1.277v1.277Z" transform="translate(-0.612 -3.687)"></path><path id="Path_540" data-name="Path 540" class="cls-26" d="M110.049,139.742a6.115,6.115,0,0,0-.8-.4,50.23,50.23,0,0,0-5.506-2.007,33.819,33.819,0,0,1-5.633-2.046c-3.391-1.725-6.013-4.609-8.965-6.958-2.436-1.939-4.034-4.59-6.247-6.714a.536.536,0,0,0-.156-.487c-1.023-1.052-3.157.166-4.142.75-1.627.965-3.674,2.426-4.288,4.327a.461.461,0,0,0-.078.7c3.05,3.352,6.695,5.214,10.632,7.338,3.109,1.676,6.266,3.771,9.725,4.746a10.994,10.994,0,0,0-.906,5.243c.146,1.072.9,2.972,2.29,2.729,1.16-.2,1.686-1.793,1.959-2.758.1-.331.214-.75.312-1.208a13.6,13.6,0,0,0,8.829,1.9c1.52-.156,3.606-.741,4.229-2.349C111.823,141.233,111.043,140.336,110.049,139.742Z" transform="translate(-1.89 -3.087)"></path><path id="Path_541" data-name="Path 541" class="cls-25" d="M59.587,96.31a10.821,10.821,0,0,1,6.324,2.1c2.943,2.241,7.8,9.911,11.061,14.189a86.965,86.965,0,0,0,7.094,8.049A46.583,46.583,0,0,1,78.19,125.9c-2.68,1.852-3.518,2.3-3.518,2.3s-1.725-1.023-5.818-5.564a53.689,53.689,0,0,1-5.564-6.968S56.323,105.772,59.587,96.31Z" transform="translate(-1.497 -2.464)"></path><path id="Path_542" data-name="Path 542" class="cls-26" d="M23.212,135.474a18.635,18.635,0,0,0,4.181-10.222,8.841,8.841,0,0,0-1.822-2.534c-1.286-1.189-3.791-2.339-5.36-1.043a.42.42,0,0,0-.429.214,57.866,57.866,0,0,1-5.438,8.351c-1.822,2.485-4.765,7.357-8,8.205-1.52.4-4.736-.721-5.964.5-1.189,1.179.7,2.582,1.676,3.031a.525.525,0,0,0,.088.117c1.559,1.033,3.654.468,5.408.877a9.516,9.516,0,0,1,1.91.624c.936.448,1.062.945,1.569,1.735a.374.374,0,0,0,.516.127h.019a17.328,17.328,0,0,0,6.656-4.2C19.841,139.294,21.624,137.452,23.212,135.474Z" transform="translate(0 -3.097)"></path><path id="Path_543" data-name="Path 543" class="cls-25" d="M38.553,95.517s-5.3-.828-8.439,1.978-5.175,9.141-6.841,13.867a52.2,52.2,0,0,1-4.863,9.589,21.882,21.882,0,0,0,5.564,4.6c3.84,2.368,5.243,2.68,5.243,2.68s6.013-21.283,7.611-25A23.946,23.946,0,0,0,38.553,95.517Z" transform="translate(-0.469 -2.441)"></path><path id="Path_544" data-name="Path 544" class="cls-26" d="M54.143,94.859a28.762,28.762,0,0,1,.331-4.756.447.447,0,0,0-.4-.5.38.38,0,0,0-.214-.546c-1.891-.76-4.414-.507-6.451-.594a25.922,25.922,0,0,1-2.885-.2A6.047,6.047,0,0,0,42.644,88a.393.393,0,0,0-.594.214,34.376,34.376,0,0,0-.663,4.882c-.185,1.832-.965,3.6-.887,5.447a.447.447,0,0,0,.185.341c1.238,4.054,7.679,4.064,10.856,2.982,1.277-.439,2.953-.984,3.294-2.456C55.166,97.987,54.279,96.233,54.143,94.859Z" transform="translate(-1.033 -2.251)"></path><path id="Path_545" data-name="Path 545" class="cls-19" d="M95.585,56.146c-1.842-.429-3.7.945-5.243,2.66.76-8.234-.916-19.314-5.175-26.721C79.8,22.75,78.775,19.047,70.209,18.4s-21.731-9.462-31.7-5.876S19.847,25.313,18.181,29.4c-1.072,2.651-3.109,13.38-4.005,21.351-.9-1.91-2.456-3.606-4.609-3.109-3.05.7-2.875,5.73-2.758,8.059.166,3.177,1.2,6.841,4.288,8.361a3.833,3.833,0,0,0,3.693-.019,47.445,47.445,0,0,0,4.278,12.542c4.093,7.669,13.292,10.612,29.79,12.912s22.248.9,27.227-3.2c3.674-3.011,7.689-9.082,10.573-15.231a5,5,0,0,0,4.541.341c3.109-1.247,4.619-5.048,5.408-8.03C97.105,61.545,98.314,56.789,95.585,56.146Z" transform="translate(-0.172 -0.306)"></path><path id="Path_546" data-name="Path 546" class="cls-7" d="M66.413,47.748a38.832,38.832,0,0,0,5.175,2.485,5.986,5.986,0,0,0,2.729.682c2.475-.283.244-3.235-.643-4.034a12.5,12.5,0,0,0-5.253-2.748c-1.111-.292-3.43-.711-3.762.887C64.406,46.247,65.478,47.183,66.413,47.748Z" transform="translate(-1.648 -1.126)"></path><path id="Path_547" data-name="Path 547" class="cls-7" d="M60.815,58.183a7.605,7.605,0,0,0-.78.809c-.1.117-.312.516-.487.234-.244-.409.322-1.364.507-1.735a7.968,7.968,0,0,1,1-1.53,7.509,7.509,0,0,1,2.865-2.115,6.94,6.94,0,0,1,4.59-.253c3.956,1.16,6.032,5.3,6.169,9.189.01.185-.214.409-.409.331-.273-.117-.37-.828-.468-1.072a15.162,15.162,0,0,0-.643-1.4,9.44,9.44,0,0,0-3.45-3.986,6.471,6.471,0,0,0-1.608-.624A8.342,8.342,0,0,0,60.815,58.183Z" transform="translate(-1.517 -1.368)"></path><path id="Path_548" data-name="Path 548" class="cls-7" d="M39.812,40.859c.136-1.627-2.2-1.891-3.352-1.929a12.578,12.578,0,0,0-5.818,1.13c-1.082.507-4.064,2.69-1.774,3.674a5.936,5.936,0,0,0,2.807.127,38.382,38.382,0,0,0,5.672-.9C38.408,42.691,39.7,42.107,39.812,40.859Z" transform="translate(-0.714 -1.001)"></path><path id="Path_549" data-name="Path 549" class="cls-7" d="M39.588,54.537a8.14,8.14,0,0,1,.516,1c.058.136.156.585.4.361.351-.322.088-1.4.01-1.8a7.906,7.906,0,0,0-.526-1.754A7.593,7.593,0,0,0,37.853,49.5a6.917,6.917,0,0,0-4.317-1.559c-4.122-.029-7.3,3.352-8.546,7.026-.058.175.088.458.292.439.292-.029.594-.682.76-.9.322-.4.663-.789,1.023-1.16a9.425,9.425,0,0,1,4.444-2.826,6.418,6.418,0,0,1,1.725-.136A8.313,8.313,0,0,1,39.588,54.537Z" transform="translate(-0.637 -1.231)"></path><path id="Path_550" data-name="Path 550" class="cls-27" d="M43.909,61.465c.526-2.612,4.7-1.364,6.1-3.07a3.808,3.808,0,0,0,.594-1.929c.185-1.3.273-2.651.39-3.976.088-1.033-.068-2.865,1.023-3.43.019-.01.029-.01.039-.019-.088,2.134-.224,4.239-.4,6.373-.107,1.345-.029,3.1-.945,4.22-1.111,1.345-2.631.711-4.044,1.277-2.115.838-.945,2.271.263,3.157a4.741,4.741,0,0,0,4.19.965.568.568,0,0,1,.6.945C49.561,68.189,43.295,64.466,43.909,61.465Z" transform="translate(-1.119 -1.259)"></path><path id="Path_551" data-name="Path 551" class="cls-7" d="M84.282,22.844a18.244,18.244,0,0,0-5.3-3.226l.361-.088c1.705-.409,3.927-.965,4.639-2.758a.6.6,0,0,0-.273-.663c-2.261-1.335-5.75-.585-8.215.984a14.9,14.9,0,0,0,.536-3.089c.088-1.2.224-4.58-1.062-5.428C73.709,7.749,73.036,9.9,72.8,10.722a16.929,16.929,0,0,0-.585,5.964c-4.229-3.187-13.779-9.316-25.093-9.7-15.339-.507-23.183,6.3-27.958,14.832A44.123,44.123,0,0,0,13.709,37.5a11.331,11.331,0,0,0,1.374.322c-1.394,3.42-1.442,6.977-1.4,10.6a9.584,9.584,0,0,0,.585,3.762c.516-.146,1.121-1.16,1.442-1.579a24.452,24.452,0,0,0,3.762-7.182,16.567,16.567,0,0,0,.916-5.457,21.385,21.385,0,0,0,7.63-2.349,38.819,38.819,0,0,0,11.928-9.375L37.214,36.3a41.762,41.762,0,0,0,10.222-4.6c4.259-2.894,6.139-4.259,6.139-4.259L51.217,39.382a23.276,23.276,0,0,0,14.832-8.692A120.714,120.714,0,0,0,73.27,20.652a40.32,40.32,0,0,0,4.2,21.458c6.3,12.951,12.785,18.243,12.785,18.243A38.023,38.023,0,0,0,94.007,44.5,26.21,26.21,0,0,0,84.282,22.844Z" transform="translate(-0.348 -0.185)"></path><path id="Path_552" data-name="Path 552" class="cls-11" d="M31.86,66.07s-.253,11.889,10.612,15.339,16.362-.643,19.431-3.323S67.02,69.52,67.02,69.52a45.719,45.719,0,0,1-19.938,1.92C36.6,69.91,31.86,66.07,31.86,66.07Z" transform="translate(-0.812 -1.693)"></path><path id="Path_553" data-name="Path 553" class="cls-12" d="M49.161,75.027a39.537,39.537,0,0,0,8.176.1c3.177-.341,4.911-1.91,5.652-4.395a44.446,44.446,0,0,1-15.777.77A43.458,43.458,0,0,1,36.96,68.79C37.973,73.945,44.171,74.53,49.161,75.027Z" transform="translate(-0.942 -1.762)"></path><path id="Path_554" data-name="Path 554" class="cls-13" d="M49.6,77.918a16.279,16.279,0,0,0-8.8,3.06,16.578,16.578,0,0,0,1.891.731c7.279,2.31,12.142,1.238,15.485-.536C56.48,78.483,53.761,77.557,49.6,77.918Z" transform="translate(-1.04 -1.993)"></path><path id="Path_555" data-name="Path 555" class="cls-25" d="M40.639,95.316s.507,4.541,6.013,5.048a7.492,7.492,0,0,0,7.543-4.093,19.942,19.942,0,0,1,5.944.127c2.943.575,3.323,1.345,3.323,1.345s.575,10.612,2.816,24.548,4.473,21.985,4.473,21.985-7.348,3.9-20.961,4.22-22.053-1.4-22.053-1.4-.7-16.683,1.218-27.744a167.687,167.687,0,0,1,6.558-23.865S39.811,94.936,40.639,95.316Z" transform="translate(-0.704 -2.435)"></path><path id="Path_556" data-name="Path 556" class="cls-28" d="M32.924,210.775c-2.173-2.241-7.591-2.378-9.677.058a.387.387,0,0,0,.468.6,8.7,8.7,0,0,1,4.424-1.179c1.647.01,2.885.819,4.424,1.15A.38.38,0,0,0,32.924,210.775Z" transform="translate(-0.59 -5.34)"></path><path id="Path_557" data-name="Path 557" class="cls-28" d="M30.046,206.669a8.221,8.221,0,0,0-4.161.6c-.38.166-.107.828.283.682a7.588,7.588,0,0,1,3.459-.409,5.2,5.2,0,0,1,1.871.516,5.523,5.523,0,0,0,1.277.672.258.258,0,0,0,.312-.312C32.9,207.185,31.07,206.8,30.046,206.669Z" transform="translate(-0.655 -5.278)"></path><path id="Path_558" data-name="Path 558" class="cls-28" d="M87.459,202.332c-1.062-.7-3,.01-4.054.468a6.8,6.8,0,0,0-3.187,2.631c-.244.39.361.731.6.351a6.051,6.051,0,0,1,3.489-2.446c1-.292,2.232-.117,3.148-.594A.241.241,0,0,0,87.459,202.332Z" transform="translate(-2.044 -5.161)"></path><path id="Path_559" data-name="Path 559" class="cls-28" d="M89.857,204.434c-3.05-1.121-6.958,2.037-8.459,4.434-.234.38.351.858.633.487a11.491,11.491,0,0,1,3.459-2.962,14.953,14.953,0,0,1,4.366-1.218C90.266,205.087,90.189,204.551,89.857,204.434Z" transform="translate(-2.074 -5.216)"></path></g></g></g></svg>