<svg xmlns="http://www.w3.org/2000/svg" xmlns:xlink="http://www.w3.org/1999/xlink" viewBox="0 0 460 460"><defs><style>
      .cls-1 {
        fill: #67e42b;
      }

      .cls-2 {
        clip-path: url(#clip-path);
      }

      .cls-3 {
        fill: #ff7896;
      }

      .cls-4 {
        fill: #f25f7f;
      }

      .cls-5 {
        fill: #f0f0ed;
      }

      .cls-6 {
        fill: #dfdfd9;
      }

      .cls-7 {
        fill: #51e3fb;
      }

      .cls-8 {
        fill: #78eafb;
      }
    </style><clipPath id="clip-path"><rect id="Rectangle_241" data-name="Rectangle 241" class="cls-1" width="460" height="460" transform="translate(-4733 -8060)"></rect></clipPath></defs><g id="Mask_Group_27" data-name="Mask Group 27" class="cls-2" transform="translate(4733 8060)"><g id="sonriente" transform="translate(-4690.02 -8070.888)"><path id="Path_3263" data-name="Path 3263" class="cls-3" d="M370.517,284.758c-15.161-6.5-29.178-17.627-42.734-28.388C305.264,238.492,281.98,220,251.342,220c-14.576,0-31.263,4.691-45.782,12.871-4.526,2.55-12.857,7.791-18.5,14.577-5.642-6.787-13.973-12.028-18.5-14.577C154.044,224.7,137.357,220,122.781,220c-30.638,0-53.923,18.487-76.441,36.365-13.556,10.762-27.572,21.891-42.734,28.388a5.843,5.843,0,0,0,1.078,11.085c33.7,7.223,50.505,24.655,68.291,43.111,23.934,24.836,48.683,50.517,114.086,50.517s90.152-25.682,114.086-50.517c17.787-18.457,34.587-35.889,68.291-43.111a5.844,5.844,0,0,0,1.079-11.085Z" transform="translate(-0.017 -43.107)"></path><path id="Path_3264" data-name="Path 3264" class="cls-4" d="M204.594,397.713c-65.4,0-90.152-25.682-114.086-50.517-11.283-11.708-22.175-23-37.231-31.539H.081a5.762,5.762,0,0,0,4.605,5.957c33.7,7.223,50.505,24.655,68.291,43.111,23.934,24.836,48.683,50.517,114.086,50.517s90.152-25.682,114.086-50.517l1.735-1.8C282.354,381.809,256.063,397.713,204.594,397.713Z" transform="translate(-0.02 -68.88)"></path><path id="Path_3265" data-name="Path 3265" class="cls-5" d="M187.044,292C134.47,292-2.945,309.445.048,309.45c46.749.077,85.3,20.507,110.155,27.609,26.15,7.472,46.806,13.373,76.842,13.373,30.666,0,52.467-6.415,77.709-13.843,24.851-7.313,62.539-27.062,103.444-27.148C371.177,309.436,239.631,292,187.044,292Z" transform="translate(0 -62.505)"></path><path id="Path_3266" data-name="Path 3266" class="cls-6" d="M338.194,309.25c-21.846,6.4-41.175,15.147-55.959,19.5-25.242,7.428-47.042,13.843-77.708,13.843-30.037,0-50.691-5.9-76.842-13.373-17.4-4.972-41.522-16.47-70.462-22.949C23.972,310-1.253,313.294.048,313.3,46.8,313.373,85.345,333.8,110.2,340.9c26.15,7.472,46.806,13.373,76.842,13.373,30.666,0,52.467-6.415,77.709-13.843,24.851-7.313,62.539-27.063,103.444-27.148C369.127,313.285,356.965,311.586,338.194,309.25Z" transform="translate(0 -66.35)"></path><path id="Path_3267" data-name="Path 3267" class="cls-7" d="M415.678,112.618c-19.334,0-35.062-20.971-35.062-46.749a5.844,5.844,0,0,0-11.687,0c0,25.778-15.728,46.749-35.062,46.749a5.844,5.844,0,0,0,0,11.687c19.334,0,35.062,20.971,35.062,46.749a5.844,5.844,0,0,0,11.687,0c0-25.778,15.728-46.749,35.062-46.749a5.844,5.844,0,1,0,0-11.687Z" transform="translate(-88.386 0)"></path><g id="Group_1293" data-name="Group 1293" transform="translate(192.888 135.993)"><path id="Path_3268" data-name="Path 3268" class="cls-8" d="M328.311,204.918c-12.671,0-23.375-16.056-23.375-35.062a5.844,5.844,0,0,0-11.687,0c0,19.006-10.7,35.062-23.375,35.062a5.844,5.844,0,1,0,0,11.687c12.671,0,23.375,16.056,23.375,35.062a5.844,5.844,0,0,0,11.687,0c0-19.006,10.7-35.062,23.375-35.062a5.844,5.844,0,0,0,0-11.687Z" transform="translate(-264.031 -164.012)"></path><path id="Path_3269" data-name="Path 3269" class="cls-8" d="M448.3,252.912c-12.671,0-23.375-16.056-23.375-35.062a5.844,5.844,0,1,0-11.687,0c0,19.006-10.7,35.062-23.375,35.062a5.844,5.844,0,0,0,0,11.687c12.671,0,23.375,16.056,23.375,35.062a5.844,5.844,0,1,0,11.687,0c0-19.006,10.7-35.062,23.375-35.062a5.844,5.844,0,0,0,0-11.687Z" transform="translate(-296.361 -176.944)"></path></g></g></g></svg>