<svg xmlns="http://www.w3.org/2000/svg" xmlns:xlink="http://www.w3.org/1999/xlink" viewBox="0 0 157.046 157.046"><defs><style>
      .cls-1 {
        fill: #fff;
      }

      .cls-2 {
        clip-path: url(#clip-path);
      }

      .cls-3 {
        fill: #e3aa75;
      }

      .cls-4 {
        fill: #e6646e;
      }

      .cls-5 {
        fill: #dc4655;
      }

      .cls-6 {
        fill: #d29b6e;
      }

      .cls-7 {
        fill: #f5b97d;
      }

      .cls-8 {
        fill: #5a4650;
      }

      .cls-9 {
        fill: #6e5a64;
      }

      .cls-10 {
        fill: #64505a;
      }
    </style><clipPath id="clip-path"><path id="Path_3221" data-name="Path 3221" class="cls-1" d="M0,0H157.046V157.046H0Z" transform="translate(-7056 -3474.046)"></path></clipPath></defs><g id="Mask_Group_25" data-name="Mask Group 25" class="cls-2" transform="translate(7056 3474.046)"><g id="hombre" transform="translate(-7089.248 -3455.334)"><path id="Path_3199" data-name="Path 3199" class="cls-3" d="M156.026,314.428l-23.344-6.866a6.645,6.645,0,0,1-4.77-6.375V290.655H96.9v10.533a6.645,6.645,0,0,1-4.77,6.375l-23.344,6.866a13.29,13.29,0,0,0-9.54,12.75v16.635a6.645,6.645,0,0,0,6.645,6.645h93.028a6.645,6.645,0,0,0,6.645-6.645V327.178A13.29,13.29,0,0,0,156.026,314.428Z" transform="translate(0 -212.125)"></path><path id="Path_3200" data-name="Path 3200" class="cls-4" d="M156.026,358.87,132.681,352a6.626,6.626,0,0,1-1.125-.455l-19.151,3.482-19.149-3.482a6.624,6.624,0,0,1-1.124.455L68.788,358.87a13.29,13.29,0,0,0-9.54,12.75v16.636a6.645,6.645,0,0,0,6.645,6.645h93.028a6.645,6.645,0,0,0,6.645-6.645V371.619A13.29,13.29,0,0,0,156.026,358.87Z" transform="translate(0 -256.566)"></path><path id="Path_3201" data-name="Path 3201" class="cls-5" d="M154.051,357.079l10.975,9.407a8.86,8.86,0,0,0,12.684-1.192l2.538-3.172,2.538,3.172a8.86,8.86,0,0,0,12.684,1.192l10.975-9.407a6.172,6.172,0,0,0,1.846-2.791L200.523,352a6.626,6.626,0,0,1-1.124-.455l-19.151,3.482L161.1,351.548a6.624,6.624,0,0,1-1.124.455l-7.769,2.285A6.169,6.169,0,0,0,154.051,357.079Z" transform="translate(-67.842 -256.566)"></path><path id="Path_3202" data-name="Path 3202" class="cls-6" d="M198.613,295.6a32.644,32.644,0,0,0,31.009,0v-4.943H198.613Z" transform="translate(-101.711 -212.125)"></path><path id="Path_3203" data-name="Path 3203" class="cls-7" d="M190.173,101.872h-1.107V77.507H131.477v24.364h-1.107a5.537,5.537,0,1,0,0,11.075h1.219a28.766,28.766,0,0,0,57.365,0h1.219a5.537,5.537,0,1,0,0-11.075Z" transform="translate(-47.864 -56.566)"></path><path id="Path_3204" data-name="Path 3204" class="cls-3" d="M180.206,81.937v-4.43H131.477v24.364h-.791a5.754,5.754,0,0,0-5.825,4.966,5.538,5.538,0,0,0,5.509,6.109h1.219a28.588,28.588,0,0,0,33.126,26.206,28.776,28.776,0,0,1-24.378-28.421v-15.5a8.86,8.86,0,0,1,8.86-8.86h26.579A4.429,4.429,0,0,0,180.206,81.937Z" transform="translate(-47.865 -56.566)"></path><g id="Group_1241" data-name="Group 1241" transform="translate(88.474 88.234)"><path id="Path_3205" data-name="Path 3205" class="cls-4" d="M191.351,336.8l-17.912-9.951a2.215,2.215,0,0,0-3.057.946l-2.777,5.553a1.772,1.772,0,0,0,.432,2.138l10.975,9.407a4.43,4.43,0,0,0,6.342-.6Z" transform="translate(-167.418 -326.57)"></path><path id="Path_3206" data-name="Path 3206" class="cls-4" d="M256,336.8l17.912-9.951a2.215,2.215,0,0,1,3.057.946l2.777,5.553a1.772,1.772,0,0,1-.432,2.138l-10.975,9.407a4.43,4.43,0,0,1-6.342-.6Z" transform="translate(-232.066 -326.57)"></path></g><g id="Group_1242" data-name="Group 1242" transform="translate(96.902 45.498)"><path id="Path_3207" data-name="Path 3207" class="cls-8" d="M200.828,175.042a2.214,2.214,0,0,1-2.215-2.215v-2.215a2.215,2.215,0,0,1,4.43,0v2.215A2.214,2.214,0,0,1,200.828,175.042Z" transform="translate(-198.613 -168.397)"></path><path id="Path_3208" data-name="Path 3208" class="cls-8" d="M299.2,175.042a2.214,2.214,0,0,1-2.215-2.215v-2.215a2.215,2.215,0,0,1,4.43,0v2.215A2.214,2.214,0,0,1,299.2,175.042Z" transform="translate(-270.41 -168.397)"></path></g><g id="Group_1243" data-name="Group 1243" transform="translate(94.687 38.661)"><path id="Path_3209" data-name="Path 3209" class="cls-9" d="M197.06,147.521h-4.43a2.215,2.215,0,0,1,0-4.43h4.43a2.215,2.215,0,1,1,0,4.43Z" transform="translate(-190.415 -143.091)"></path><path id="Path_3210" data-name="Path 3210" class="cls-9" d="M295.436,147.521h-4.43a2.215,2.215,0,0,1,0-4.43h4.43a2.215,2.215,0,1,1,0,4.43Z" transform="translate(-262.212 -143.091)"></path></g><path id="Path_3211" data-name="Path 3211" class="cls-1" d="M220.574,221.655a1.128,1.128,0,0,0-1.1,1.325c.719,4.265,4.858,7.535,9.857,7.535s9.137-3.27,9.857-7.535a1.128,1.128,0,0,0-1.1-1.325Z" transform="translate(-116.924 -161.768)"></path><g id="Group_1244" data-name="Group 1244" transform="translate(110.192 113.969)"><circle id="Ellipse_121" data-name="Ellipse 121" class="cls-5" cx="2.215" cy="2.215" r="2.215"></circle><circle id="Ellipse_122" data-name="Ellipse 122" class="cls-5" cx="2.215" cy="2.215" r="2.215" transform="translate(0 13.29)"></circle></g><path id="Path_3212" data-name="Path 3212" class="cls-8" d="M183.859,61.112H134.226a11.075,11.075,0,0,0-10.955,12.7L125.819,91l4.973-.614a4.43,4.43,0,0,0,3.887-4.4V74.4a4.43,4.43,0,0,1,4.43-4.43h39.869a4.43,4.43,0,0,1,4.43,4.43V85.99a4.43,4.43,0,0,0,3.887,4.4l4.973.614,2.548-17.19A11.075,11.075,0,0,0,183.859,61.112Z" transform="translate(-46.636 -44.601)"></path><path id="Path_3213" data-name="Path 3213" class="cls-10" d="M220.019,1.563A2.22,2.22,0,0,0,216.851.279c-2.307,1.288-6.6,2.948-13.376,2.948h-22.15a15.5,15.5,0,0,0-15.5,15.5h0a6.645,6.645,0,0,0,6.645,6.645H207.9C216.228,25.376,224.551,15.6,220.019,1.563Z" transform="translate(-77.778 -0.005)"></path><g id="Group_1245" data-name="Group 1245" transform="translate(72.538 118.399)"><path id="Path_3214" data-name="Path 3214" class="cls-5" d="M115.081,438.217h0v19.935h-6.645v-13.29A6.645,6.645,0,0,1,115.081,438.217Z" transform="translate(-108.436 -438.217)"></path><path id="Path_3215" data-name="Path 3215" class="cls-5" d="M378.968,438.217h0v19.935h6.645v-13.29A6.645,6.645,0,0,0,378.968,438.217Z" transform="translate(-305.875 -438.217)"></path></g><path id="Path_3220" data-name="Path 3220" class="cls-9" d="M214.62,10.943a5.845,5.845,0,0,0,5.956,5.568h30.041a11.011,11.011,0,0,1,4.453.942c2.018-4.1,2.613-9.555.562-15.9A2.215,2.215,0,0,0,252.471.271c-2.306,1.288-6.6,2.951-13.383,2.951h-22.15l-.433.255a15.41,15.41,0,0,0-1.887,7.4Z" transform="translate(-113.392 0)"></path></g></g></svg>