<svg xmlns="http://www.w3.org/2000/svg" xmlns:xlink="http://www.w3.org/1999/xlink" viewBox="0 0 448.997 466.328"><defs><style>
      .cls-1 {
        fill: #4d4d4d;
      }

      .cls-2 {
        clip-path: url(#clip-path);
      }

      .cls-3 {
        fill: #f8c399;
      }

      .cls-4 {
        fill: #e5b187;
      }

      .cls-5 {
        fill: #46361d;
      }

      .cls-6 {
        fill: #5f4d37;
      }

      .cls-7 {
        fill: #353535;
      }

      .cls-8 {
        fill: #2b2b2b;
      }

      .cls-9 {
        fill: #23bde6;
      }

      .cls-10 {
        fill: #0095bc;
      }

      .cls-11 {
        fill: #93303a;
      }

      .cls-12 {
        fill: #a23540;
      }

      .cls-13 {
        fill: #812a33;
      }

      .cls-14 {
        fill: #11757f;
      }

      .cls-15 {
        fill: #25a586;
      }

      .cls-16 {
        fill: #fefefe;
      }

      .cls-17 {
        fill: #f2f2f2;
      }

      .cls-18 {
        fill: #dbdbdb;
      }

      .cls-19 {
        fill: #052e32;
      }

      .cls-20 {
        fill: #063b40;
      }

      .cls-21 {
        fill: #eed0bc;
      }

      .cls-22 {
        fill: #e5b4a3;
      }

      .cls-23 {
        fill: #e48681;
      }

      .cls-24 {
        fill: #fb948e;
        opacity: 0.5;
      }
    </style><clipPath id="clip-path"><rect id="Rectangle_80" data-name="Rectangle 80" class="cls-1" width="448.997" height="466.328" transform="translate(-1 -1)"></rect></clipPath></defs><g id="Group_1292" data-name="Group 1292" transform="translate(1 1)"><g id="Group_427" data-name="Group 427" class="cls-2"><path id="Path_1166" data-name="Path 1166" class="cls-3" d="M131.041,125.72c-1.8,0-3.453.065-5.074.195a33.526,33.526,0,0,0-9.695,2.043,1.174,1.174,0,0,0-.308.178.837.837,0,0,0-.648,1.021c.292,1.443.551,2.9.746,4.3h0a41.334,41.334,0,0,1,.162,10.911,28.823,28.823,0,0,1-1.3,5.366c-.1.211-.146.324-.195.438a.782.782,0,0,0,.081.632c4.734,6.242,10.57,13.359,17.979,18.79a44.9,44.9,0,0,0,5.48,3.437,23.04,23.04,0,0,0,2.772,1.265,11.2,11.2,0,0,0,2.9.665,4.789,4.789,0,0,0,.681.032,9.845,9.845,0,0,0,1.735-.178,8.276,8.276,0,0,0,2.351-.843,10.553,10.553,0,0,0,1.929-1.313,13.167,13.167,0,0,0,1.864-1.913,35.3,35.3,0,0,0,4.329-7.231,74.253,74.253,0,0,0,4.3-10.619.95.95,0,0,0,.016-.373.843.843,0,0,0-.016-.762c-.308-.584-.567-1.167-.827-1.767a40.545,40.545,0,0,1-2.432-9.776v.032c-.276-2.172-.486-4.394-.665-6.55-.081-.892-.162-1.8-.243-2.691a1.323,1.323,0,0,0,.032-.746.716.716,0,0,0-.357-.421,36.634,36.634,0,0,0-4.912-1.9,38.384,38.384,0,0,0-5.172-1.167c-1.816-.292-3.632-.438-5.172-.551-1.67-.13-3.356-.243-5.026-.324-1.994-.13-3.729-.178-5.318-.178m28.55,26.7c-.162-.389-.324-.762-.486-1.151.162.357.324.713.5,1.07Z" transform="translate(71.255 78.1)"></path><path id="Path_1167" data-name="Path 1167" class="cls-4" d="M125.757,125.895a33.881,33.881,0,0,0-9.711,2.043,1.61,1.61,0,0,0-.324.178.877.877,0,0,0-.665,1.054c.292,1.394.551,2.837.746,4.3q.268,2.018.389,3.891c1.735.6,3.486,1.151,5.253,1.637a84.824,84.824,0,0,0,8.949,1.994c-.032,0-.065-.016-.113-.016a71.8,71.8,0,0,0,8.949.892,64.078,64.078,0,0,0,8.641-.324h0a59.714,59.714,0,0,0,7.393-1.281c.794-.195,1.573-.405,2.351-.616-.227-1.881-.405-3.81-.584-5.934-.081-.908-.162-1.8-.243-2.691a1.23,1.23,0,0,0,.016-.762.719.719,0,0,0-.373-.438,36.74,36.74,0,0,0-10.1-3.08c-1.8-.276-3.615-.438-5.172-.551-1.67-.13-3.356-.243-5.026-.324-2.091-.113-3.761-.162-5.3-.162-1.767,0-3.437.065-5.074.195" transform="translate(71.464 78.087)"></path><path id="Path_1168" data-name="Path 1168" class="cls-5" d="M161.089,391.166a61.774,61.774,0,0,0-7.8.454,32.7,32.7,0,0,0-7.8,1.9.788.788,0,0,0-.47,1.005c-.584,1.475-1.2,2.967-1.832,4.442-.762,1.848-1.54,3.7-2.253,5.545a54.2,54.2,0,0,0-3.275,11.462,19.565,19.565,0,0,0-.162,5.172,11.958,11.958,0,0,0,1.459,4.637,11.37,11.37,0,0,0,2.983,3.356,17.3,17.3,0,0,0,4.085,2.3,33.12,33.12,0,0,0,6.485,1.848c1.945.389,3.907.648,6.08.94l.243.032c.519.065,1.005.13,1.492.194a2.7,2.7,0,0,0,.422.065c.065.016.113.016.178.032l.259.032.259.032,1.054.146c2.043.276,3.94.5,5.853.73,5.35.616,10.295,1.07,15.061,1.394,4.539.308,8.511.454,12.143.454,1.427,0,2.87-.016,4.312-.065,2.691-.081,5.123-.276,7.441-.567a39.386,39.386,0,0,0,6.323-1.281c4.037-1.216,6.4-3.032,7.247-5.545a5.7,5.7,0,0,0,.276-2.075,5.626,5.626,0,0,0-1.151-3.08,13.779,13.779,0,0,0-2.788-2.837,36.629,36.629,0,0,0-3.859-2.626c-2.253-1.346-4.62-2.545-6.923-3.713l-1.962-.989a35.174,35.174,0,0,1-3.324-1.848c-.875-.567-1.719-1.167-2.562-1.783l-.211-.162c-1.038-.746-2.059-1.508-3.08-2.286a114.326,114.326,0,0,1-8.868-7.668c-1.3-1.248-2.61-2.594-4.021-4.1-1.216-1.3-2.416-2.594-3.567-3.94a.816.816,0,0,0-.146-.535.778.778,0,0,0-.551-.324.805.805,0,0,0-.616-.276.885.885,0,0,0-.584.211c-1.573-.081-3.161-.178-4.75-.276-3.437-.195-7-.405-10.505-.422h-.276Z" transform="translate(85.353 242.99)"></path><path id="Path_1169" data-name="Path 1169" class="cls-5" d="M115.322,390.76a76.431,76.431,0,0,0-7.8.405,78.659,78.659,0,0,0-8.641,1.346.9.9,0,0,0-.551.308.738.738,0,0,0-.178.47c-.859,1.881-1.9,3.713-2.9,5.48l-.259.454-.892,1.556c-1.167,2.059-2.351,4.118-3.486,6.209-1.751,3.226-3.1,5.917-4.215,8.5a41.36,41.36,0,0,0-2.756,8.22,14.649,14.649,0,0,0,0,7.036,8.79,8.79,0,0,0,.567,1.443,6.618,6.618,0,0,0,.908,1.362,7.973,7.973,0,0,0,2.286,1.9,15.52,15.52,0,0,0,2.578,1.151,29.386,29.386,0,0,0,3.178.957,60.641,60.641,0,0,0,7.976,1.378c2.853.34,5.836.519,9.144.584.567.016,1.151.016,1.735.016,2.562,0,5.107-.113,7.587-.308a60.282,60.282,0,0,0,8.463-1.265,25.089,25.089,0,0,0,6.566-2.335,11.277,11.277,0,0,0,2.3-1.621,9.119,9.119,0,0,0,1.945-2.724,20.544,20.544,0,0,0,1.929-8.965,53.393,53.393,0,0,0-.875-10.635,102.255,102.255,0,0,0-2.3-10.246c-.567-2.059-1.183-4.134-1.864-6.161a.8.8,0,0,0-.535-.551.973.973,0,0,0-.308-.259,33.524,33.524,0,0,0-8.333-2.724,54.956,54.956,0,0,0-9.517-.973c-.567.016-1.151,0-1.751,0" transform="translate(51.696 242.748)"></path><path id="Path_1170" data-name="Path 1170" class="cls-6" d="M135.653,415.942a100.615,100.615,0,0,1-14.413,2.108,127.768,127.768,0,0,1-14.526.227c-2.318-.1-4.653-.243-6.971-.373-2.237-.13-4.491-.259-6.728-.5a45.628,45.628,0,0,1-9.565-1.881.474.474,0,0,1,.032.146,8.664,8.664,0,0,0,.567,1.427,8.949,8.949,0,0,0,.908,1.394,8.013,8.013,0,0,0,2.3,1.9,17.563,17.563,0,0,0,2.578,1.167,28.054,28.054,0,0,0,3.178.957,62.47,62.47,0,0,0,7.993,1.394c2.886.324,5.869.519,9.16.584.567,0,1.151.016,1.735.016,2.529,0,5.091-.1,7.587-.308a59.17,59.17,0,0,0,8.479-1.281,25.249,25.249,0,0,0,6.566-2.335,11.741,11.741,0,0,0,2.3-1.621,9.134,9.134,0,0,0,1.945-2.74,12.793,12.793,0,0,0,.535-1.167c-1.216.324-2.448.632-3.664.892" transform="translate(51.841 257.838)"></path><path id="Path_1171" data-name="Path 1171" class="cls-6" d="M138.477,412.8a11.286,11.286,0,0,0,2.983,3.356,18.535,18.535,0,0,0,4.085,2.318,33.558,33.558,0,0,0,6.485,1.848c1.994.389,4.069.665,6.08.94l.243.032.681.081.811.114a1.937,1.937,0,0,0,.422.049c.049.016.113.016.195.032l.243.032.259.032,1.054.13c2.043.276,3.94.5,5.853.73,5.561.632,10.489,1.086,15.077,1.394,4.588.292,8.56.438,12.143.438,1.443,0,2.87-.016,4.312-.065,2.643-.081,5.074-.276,7.441-.567a39.378,39.378,0,0,0,6.323-1.281c4.053-1.232,6.436-3.048,7.279-5.561l.1-.292c-3.583.794-7.214,1.394-10.862,1.832a141.912,141.912,0,0,1-18.92.875,211.339,211.339,0,0,1-28.42-2.562c-8.122-1.248-16.2-2.837-24.221-4.62a5.85,5.85,0,0,0,.357.713" transform="translate(85.803 255.999)"></path><path id="Path_1172" data-name="Path 1172" class="cls-7" d="M212.332,241.586c-2.2.113-4.394.243-6.6.389-5.609.421-11.073,1.021-15.693,1.573-2.01.227-4,.486-6.015.73-3.226.389-6.42.794-9.646,1.151-4.62.519-9.63.973-15.774,1.459l-5.593.438c-3.4.259-6.825.519-10.23.811-2.643.227-5.269.47-7.912.762l-1.524.162c-1.589.162-3.178.34-4.766.5-2.529.259-5.026.519-7.474.924-.924,8.528-2.124,17.039-3.518,25.5-1.605,9.76-3.421,19.487-5.269,29.2-.957,5.074-1.929,10.165-2.87,15.239-.47,2.562-.957,5.107-1.41,7.668q-.34,1.945-.73,3.891c-.243,1.183-.5,2.367-.762,3.55-.584,2.578-1.232,5.139-1.881,7.685-1.394,15.45-3.275,31.079-5.091,46.221-1.41,11.819-2.886,24.027-4.118,36.056q-.9,8.876-1.881,17.785c-.34,2.983-.7,5.95-1.07,8.933-.195,1.492-.373,2.967-.567,4.458l-.13,1.1-.146,1.119-.081.584-.081.551q-.608,4.45-1.281,8.9c-.957,6.242-1.994,12.37-3.113,18.19a.867.867,0,0,0,.081.616.477.477,0,0,0,.243.259.812.812,0,0,0,.438.5,68.78,68.78,0,0,0,11.349,5.2,81.157,81.157,0,0,0,12.629,3.372,73.922,73.922,0,0,0,12.97,1.167,59.256,59.256,0,0,0,6.323-.34c.989-.114,1.962-.259,2.934-.422,1.281-.211,2.318-.438,3.259-.681a10.747,10.747,0,0,0,2.821-1.232.763.763,0,0,0,.324-.778c.486-1.913,1.005-3.842,1.508-5.755.989-3.745,1.994-7.62,2.918-11.446,1.41-5.836,2.513-11.867,3.534-17.558,1.994-11.057,3.826-22.827,5.431-34.953,2.724-20.557,4.9-42.784,6.825-69.939,1.005-14.072,1.848-28.225,2.691-42.7.405.032.827.032,1.248.032a43.849,43.849,0,0,0,4.88-.276c2.124-.227,4.248-.584,6.209-.924.567,10.116.908,20.46,1.054,31.565l.032-.211c.227,20.752-.276,43.319-1.637,70.993q-.438,8.827-.94,17.688c-.324,5.982-.665,11.835-1.086,17.671-.827,11.689-1.929,23.556-3.275,35.294-.195,1.637-.389,3.291-.584,4.928a.818.818,0,0,0,.519.859.72.72,0,0,0,.276.308,33.158,33.158,0,0,0,10.36,3.68,60.249,60.249,0,0,0,11.365,1.005h.616a84.769,84.769,0,0,0,11.867-.973c1.719-.259,3.486-.584,5.366-.989a41.362,41.362,0,0,0,5.982-1.735,14,14,0,0,0,3.34-1.929.638.638,0,0,0,.259-.486.8.8,0,0,0,.1-.276c6.7-31.5,9.111-63.2,10.457-87.286.357-6.339.7-13.278,1.038-21.87l.34-8.609q.219-5.739.454-11.478l.049-.892c.535-12.9,1.119-26.231,1.135-39.363.032-11.851-.389-22.324-1.3-32-.632-6.793-1.508-13.083-2.643-19.049-.811-2.8-1.621-5.626-2.4-8.447-.762-2.756-1.475-5.528-2.075-8.333-.519-2.4-.957-4.831-1.281-7.263-.032-.13-.065-.276-.1-.405a5.74,5.74,0,0,0-.794-.551,11.168,11.168,0,0,0-4.669-1.459,23.641,23.641,0,0,0-2.562-.13c-.875-.016-1.767.016-2.659.065" transform="translate(54.1 150.036)"></path><path id="Path_1173" data-name="Path 1173" class="cls-8" d="M212.351,241.564c-2.2.113-4.394.243-6.6.389-5.561.405-11.057,1.021-15.693,1.573-1.394.178-2.789.34-4.2.519l-1.816.211-.195.032c-3.259.405-6.355.778-9.452,1.119-4.669.519-9.679.989-15.774,1.459l-5.593.438-.178.016c-3.372.259-6.712.519-10.052.794-2.643.227-5.269.47-7.912.746l-1.524.178-1.183.13-.924.1c-.875.1-1.767.195-2.643.276-2.3.243-4.912.5-7.474.924-.908,8.171-2.059,16.52-3.55,25.534-1.654,10.116-3.583,20.379-5.269,29.2l-.551,2.918c-.794,4.118-1.556,8.2-2.318,12.321l-.081.438-.081.405c-.422,2.27-.843,4.539-1.248,6.825-.227,1.3-.47,2.594-.73,3.875-.243,1.183-.5,2.367-.762,3.55-.6,2.643-1.265,5.269-1.881,7.685-1.394,15.564-3.275,31.079-5.091,46.108l-.032.324-.065.438c-1.394,11.608-2.837,23.6-4.037,35.44q-.9,8.9-1.881,17.785c-.34,2.983-.7,5.95-1.07,8.933-.195,1.492-.373,2.967-.567,4.458l-.146,1.119-.146,1.119-.081.584-.081.551q-.608,4.45-1.281,8.9c-.973,6.4-2.01,12.516-3.113,18.19a.756.756,0,0,0,.1.632.615.615,0,0,0,.259.276.849.849,0,0,0,.438.5,67.241,67.241,0,0,0,7.96,3.907q1.143-5.763,2.124-11.543c.422-2.448.811-4.912,1.216-7.36s.811-4.88,1.216-7.328q1.216-7.417,2.416-14.834c1.605-10.019,3.129-20.055,4.475-30.106,0,.032-.016.065-.016.1.227-1.718.454-3.437.665-5.155,2.5-19.925,4.167-40,3.81-60.082a.551.551,0,0,1-.016-.162.412.412,0,0,1,.454-.34,93.859,93.859,0,0,0,10.424,1.508c3.356.292,6.744.422,10.1.422a191.407,191.407,0,0,0,28.047-2.5c1.021-14.267,1.864-28.679,2.675-42.606a7.293,7.293,0,0,0,1.216.081c1.492,0,3.08-.1,4.88-.276,2.108-.227,4.231-.584,6.209-.924.535,10.441.875,20.768,1.021,31.533l.1-.211c.178,21.011-.357,43.562-1.7,70.977q-.438,8.852-.94,17.688c-.357,6.55-.681,12.078-1.086,17.671-.827,11.77-1.929,23.637-3.275,35.294-.195,1.637-.389,3.291-.584,4.928a.825.825,0,0,0,.551.875.707.707,0,0,0,.276.308,33.225,33.225,0,0,0,10.376,3.7c1.767.324,3.567.584,5.464.746.195-2.027.373-4.069.551-6.1.34-3.907.681-7.8,1.005-11.705,1.751-20.395,3.437-40.822,4.3-61.282a512.825,512.825,0,0,0-.632-61.136.368.368,0,0,1-.081-.292.392.392,0,0,1,.454-.34,93.673,93.673,0,0,0,18.531,1.864,78.862,78.862,0,0,0,19.568-2.383c-.032.016-.065.016-.1.032.811-.227,1.637-.454,2.448-.713.47-11.105.875-22.454.908-33.64.032-11.835-.389-22.292-1.3-32-.632-6.825-1.508-13.051-2.643-19.033l-.519-1.832c-.632-2.2-1.265-4.41-1.881-6.631-.924-3.421-1.573-5.982-2.075-8.333-.567-2.594-.989-4.961-1.281-7.247l-.049-.211-.049-.211a7.238,7.238,0,0,0-.811-.567,11.017,11.017,0,0,0-4.685-1.475,24.553,24.553,0,0,0-2.562-.13c-.892-.032-1.783,0-2.675.049" transform="translate(54.08 150.026)"></path><path id="Path_1174" data-name="Path 1174" class="cls-9" d="M166.23,155.75c-2.416,0-4.88.113-7.263.227l-1.151.049-1.913.081c-1.151.049-2.318.081-3.469.162-1.816.114-3.648.276-5.48.486a103.176,103.176,0,0,0-11.64,2.043,70.444,70.444,0,0,0-11.3,3.7,40.5,40.5,0,0,0-9.452,5.512,30.565,30.565,0,0,0-6.371,7.117,40.246,40.246,0,0,0-4.28,8.738,60.253,60.253,0,0,0-2.594,9.889,111.23,111.23,0,0,0-1.492,21.319c.081,6.712.551,13.31,1.086,20.038l.227,3.1c.195,2.691.405,5.382.648,8.057.454,4.783,1.07,9.662,1.9,14.915,1.394,8.982,3.356,18.531,6,29.182,1.378,5.528,2.983,11.559,4.912,18.417.032.081.065.146.1.227a.882.882,0,0,0,.308.648.9.9,0,0,0,.551.178c.389,0,.73-.016,1.07-.016a86.317,86.317,0,0,1,14.818,1.832c2.529.47,4.993.924,7.458,1.3,1.184.178,2.367.324,3.567.454,1.313.146,2.643.211,3.972.292,4.021.227,8.171.34,12.321.34,5.966,0,12.159-.243,18.417-.7a153.265,153.265,0,0,0,19.39-2.562,91.893,91.893,0,0,0,18.725-5.8.926.926,0,0,0,.422-.405.817.817,0,0,0,.7-.794c-.016-2.886.1-5.8.195-8.625.1-2.351.178-4.718.195-7.085.049-4.9-.162-9.987-.6-15.564-.859-10.943-2.61-21.724-4.2-30.836-.713-4.118-1.475-8.236-2.221-12.354l-.551-3.015-.567-3.21c-.259-1.427-.5-2.853-.762-4.28-.405-2.2-.875-4.475-1.41-6.971a165.434,165.434,0,0,0-8.382-27.382,122.238,122.238,0,0,0-6.1-12.791A56.542,56.542,0,0,0,188.554,166a29.268,29.268,0,0,0-3.534-4.1,21.327,21.327,0,0,0-3.81-2.87,21.031,21.031,0,0,0-4.085-1.832,31.33,31.33,0,0,0-9.014-1.394c-.632-.032-1.248-.049-1.881-.049m48.458,147.661.1-2.578c-.032.843-.032,1.7-.032,2.545Z" transform="translate(62.005 96.755)"></path><path id="Path_1175" data-name="Path 1175" class="cls-10" d="M145.318,183.791c1.492,24.059,1.475,48.166,1.475,72.258-.016,19.2-.146,38.423-1.2,57.586,1.637-.1,3.275-.195,4.912-.324a152.991,152.991,0,0,0,19.406-2.562,91.951,91.951,0,0,0,18.725-5.8.855.855,0,0,0,.438-.422.8.8,0,0,0,.713-.811c-.016-2.886.1-5.853.195-8.463v-.162l.016-.567c.081-2.189.162-4.345.178-6.517.032-4.88-.162-9.971-.6-15.564-.875-10.927-2.61-21.708-4.2-30.836-.713-4.118-1.475-8.236-2.221-12.354l-.551-3.032-.567-3.21c-.243-1.427-.5-2.853-.762-4.28-.389-2.14-.859-4.41-1.41-6.971a166.994,166.994,0,0,0-8.382-27.382,125.587,125.587,0,0,0-6.1-12.791,49.258,49.258,0,0,0-3.453-5.658,28.694,28.694,0,0,0-3.534-4.1,22.132,22.132,0,0,0-3.826-2.886,21.132,21.132,0,0,0-4.085-1.848,29.352,29.352,0,0,0-7.749-1.329c1.167,9.338,1.994,18.676,2.578,28.031" transform="translate(88.673 96.761)"></path><path id="Path_1176" data-name="Path 1176" class="cls-10" d="M124.02,161a39.974,39.974,0,0,0-9.452,5.528,31.061,31.061,0,0,0-6.371,7.133,40.259,40.259,0,0,0-4.3,8.738,60.255,60.255,0,0,0-2.594,9.889,111.534,111.534,0,0,0-1.492,21.319c.081,6.744.567,13.326,1.086,20.038l.227,3.1.049.632c.178,2.48.373,4.961.6,7.441.454,4.734,1.07,9.614,1.881,14.915,1.41,9.046,3.372,18.6,6.015,29.2,1.394,5.626,3,11.64,4.912,18.4a.736.736,0,0,0,.1.227.817.817,0,0,0,.308.665.866.866,0,0,0,.584.178l1.07-.016a87.378,87.378,0,0,1,14.786,1.816c2.772.519,5.091.94,7.49,1.3,1.183.178,2.367.324,3.567.454,1.313.13,2.643.211,3.972.292,4.021.211,8.041.34,11.981.34-.276-2.416-.567-4.847-.892-7.263,0,.032.016.065.016.1-.924-6.906-2.043-13.8-3.275-20.671-2.27-12.5-4.912-24.934-7.571-37.369-1.346-6.274-2.675-12.532-3.923-18.822s-2.448-12.6-3.55-18.92c-2.189-12.532-4.053-25.113-5.464-37.742-.519-4.588-.956-9.192-1.346-13.8a64.851,64.851,0,0,0-8.414,2.9" transform="translate(61.999 98.215)"></path><path id="Path_1177" data-name="Path 1177" class="cls-11" d="M143.5,165.84a.635.635,0,0,0-.211.032.872.872,0,0,0-.519.405.726.726,0,0,0-.065.632l.259.843a4.011,4.011,0,0,0-.94-.324,15.2,15.2,0,0,0-3.178-.389h-.34a10.545,10.545,0,0,0-2.562.308,13.822,13.822,0,0,0-1.394.421,1.76,1.76,0,0,0-.308.13l.13-.454.065-.5a.849.849,0,0,0-.259-.6.833.833,0,0,0-.6-.243.938.938,0,0,0-.6.243.993.993,0,0,0-.243.6c-.113.94-.211,1.881-.34,2.8-.648,4.815-1.621,9.873-2.416,13.926-1.021,5.318-2.043,10.684-2.675,16.1a73.953,73.953,0,0,0-.551,7.539,42.711,42.711,0,0,0,.486,7.069,62.7,62.7,0,0,0,3.842,13.894c1.718,4.475,3.761,8.8,5.69,12.856,1.086,2.253,2.172,4.491,3.291,6.712,1.135,2.318,2.254,4.6,3.291,6.906a.763.763,0,0,0,.5.389.874.874,0,0,0,.519.178.839.839,0,0,0,.746-.422,90.018,90.018,0,0,0,5.512-12.5,106.712,106.712,0,0,0,3.81-13.5c.47-2.172.859-4.377,1.216-6.712.162-1.086.308-2.156.421-3.242.1-1.021.178-2.237.211-3.713a64.108,64.108,0,0,0-1.378-14.186,147.043,147.043,0,0,0-4.864-17.444c-.584-1.751-1.183-3.469-1.767-5.2l-.178-.486-.243-.7-.243-.73c-.827-2.416-1.654-4.847-2.448-7.279a.88.88,0,0,0-.243-.762l-.308-.973-.308-.989a.847.847,0,0,0-.811-.632" transform="translate(78.736 103.023)"></path><path id="Path_1178" data-name="Path 1178" class="cls-12" d="M139.925,155.39a12,12,0,0,0-1.735.113,14.042,14.042,0,0,0-8.9,4.847,11.572,11.572,0,0,0-2.335,4.572,9.63,9.63,0,0,0-.308,2.48,6.633,6.633,0,0,0-.405-.746.824.824,0,0,0-.713-.405.795.795,0,0,0-.7,1.216,28.6,28.6,0,0,0,3.324,4.734,19.176,19.176,0,0,0,3.68,3.291,13.292,13.292,0,0,0,7.458,2.416h.373a11.6,11.6,0,0,0,3.81-.794,12.306,12.306,0,0,0,1.767-.843,15.118,15.118,0,0,0,1.8-1.248,16.652,16.652,0,0,0,3.064-3.259,20.627,20.627,0,0,0,1.816-3.015.764.764,0,0,0,.421-.713l-.016-.178h.016l.227-.519a28.943,28.943,0,0,0,1.605-5.026.849.849,0,0,0-.567-1.005.95.95,0,0,0-.211-.032.822.822,0,0,0-.794.6c-.211.94-.486,1.9-.794,2.87a9.652,9.652,0,0,0-.648-1.832,13.126,13.126,0,0,0-3.1-4.3,12.607,12.607,0,0,0-4.491-2.659,11.766,11.766,0,0,0-3.648-.567" transform="translate(77.481 96.531)"></path><path id="Path_1179" data-name="Path 1179" class="cls-11" d="M141.218,165.872a.872.872,0,0,0-.519.405.726.726,0,0,0-.065.632l.259.827a4.012,4.012,0,0,0-.94-.324,15.206,15.206,0,0,0-3.178-.389h-.34a11.623,11.623,0,0,0-3.956.73,1.756,1.756,0,0,0-.308.13l.13-.454.049-.5a.848.848,0,0,0-.259-.6.832.832,0,0,0-.6-.243.939.939,0,0,0-.6.243.9.9,0,0,0-.243.6c-.1.94-.211,1.881-.34,2.8-.065.519-.146,1.054-.227,1.573l.195-1.265a12.854,12.854,0,0,0,5.658,1.362h.357a11.683,11.683,0,0,0,3.81-.794,14.447,14.447,0,0,0,1.767-.843,13.593,13.593,0,0,0,1.232-.827.765.765,0,0,0-.259-.519l-.292-.973-.308-.989a.886.886,0,0,0-.827-.616.606.606,0,0,0-.195.032" transform="translate(80.808 103.023)"></path><path id="Path_1180" data-name="Path 1180" class="cls-12" d="M138.2,155.532a14.122,14.122,0,0,0-8.917,4.847,11.465,11.465,0,0,0-2.335,4.572,9.594,9.594,0,0,0-.308,2.464c-.13-.259-.276-.486-.405-.746a.8.8,0,0,0-.713-.405.832.832,0,0,0-.405.1.819.819,0,0,0-.292,1.119,28.6,28.6,0,0,0,3.324,4.734,19.733,19.733,0,0,0,3.68,3.291,14.463,14.463,0,0,0,1.8,1.054v-.032a12.833,12.833,0,0,0,5.658,1.346h.357a11.683,11.683,0,0,0,3.81-.794,14.44,14.44,0,0,0,1.767-.843c.438-.259.843-.535,1.248-.827h0a.016.016,0,0,1,.016.016c.195-.146.373-.276.551-.405a16.652,16.652,0,0,0,3.064-3.259,19.8,19.8,0,0,0,1.816-3.015.763.763,0,0,0,.438-.713l-.032-.178h.016l.227-.519a30.408,30.408,0,0,0,1.621-5.026.841.841,0,0,0-.567-1.005.445.445,0,0,0-.211-.032.822.822,0,0,0-.794.6c-.211.94-.486,1.913-.794,2.87a10.932,10.932,0,0,0-.648-1.832,13.126,13.126,0,0,0-3.1-4.3,12.607,12.607,0,0,0-4.491-2.659,11.144,11.144,0,0,0-3.632-.584c-.616.049-1.2.081-1.751.162" transform="translate(77.473 96.519)"></path><path id="Path_1181" data-name="Path 1181" class="cls-13" d="M145.211,167.75c-.389.276-.811.567-1.248.827a14.574,14.574,0,0,1-1.767.843,11.512,11.512,0,0,1-3.81.794h-.357a12.906,12.906,0,0,1-5.658-1.362c-.681,4.669-1.621,9.517-2.383,13.408-1.021,5.35-2.059,10.781-2.724,16.293a73.159,73.159,0,0,0-.551,7.539,42.668,42.668,0,0,0,.486,7.085,63.114,63.114,0,0,0,3.842,13.894c1.719,4.475,3.761,8.8,5.707,12.872,1.086,2.254,2.172,4.491,3.291,6.728l.243.47c1.021,2.108,2.075,4.264,3.048,6.42a.816.816,0,0,0,.519.405.883.883,0,0,0,.535.178.812.812,0,0,0,.762-.438c.713-1.313,1.41-2.691,2.075-4.118-.794-1.427-1.573-2.853-2.335-4.3-1.2-2.27-2.367-4.588-3.437-6.923-1.086-2.432-2.075-4.88-2.967-7.393-3.275-9.338-5.869-19.017-6.6-28.923a106.085,106.085,0,0,1,2.253-29.587.461.461,0,0,1,.146-.276.449.449,0,0,1,.259-.081h.032a.146.146,0,0,1,.081.016,17.684,17.684,0,0,0,2.27.259h-.016a17.675,17.675,0,0,0,4.231-.405h.049a11.87,11.87,0,0,0,1.524-.47,12.18,12.18,0,0,0,1.248-.551h.016c.016,0,.032-.016.049-.032h0c.324-.195.648-.373.957-.6a8.015,8.015,0,0,0,.713-.584h.016c.016-.016.016-.032.049-.032a.035.035,0,0,0-.032.032l.049-.049c-.195-.551-.373-1.1-.535-1.67a.79.79,0,0,0,.016-.195c-.016-.049-.016-.081-.049-.081Zm.519,1.945h0m-1.67,1.167h0m-7.133,1.492Zm-.016,0h0Z" transform="translate(78.712 104.21)"></path><path id="Path_1182" data-name="Path 1182" class="cls-13" d="M137.382,169.69h0c-.016.016-.016.016-.032.016.032,0,.032,0,.032-.016h0" transform="translate(85.325 105.415)"></path><path id="Path_1183" data-name="Path 1183" class="cls-13" d="M135.64,170.33h0" transform="translate(84.262 105.813)"></path><path id="Path_1184" data-name="Path 1184" class="cls-9" d="M117.864,140.45a.807.807,0,0,0-.47.146.755.755,0,0,0-.227.227,15.276,15.276,0,0,0-3.015,2.951,18.348,18.348,0,0,0-2.14,3.615,24.2,24.2,0,0,0-1.443,4.183,31.257,31.257,0,0,0-.794,4.588,44.043,44.043,0,0,0,.113,9.776,50.8,50.8,0,0,0,2.043,9.533,36.767,36.767,0,0,0,3.388,7.685,21.069,21.069,0,0,0,2.172,3.032,27.8,27.8,0,0,0,5.091,4.3.96.96,0,0,0,.535.178.862.862,0,0,0,.632-.292,1.424,1.424,0,0,0,.1-.162,78.359,78.359,0,0,0,14.526-10.2,46.048,46.048,0,0,0,10.7-13.651,15.546,15.546,0,0,0,1.313,2.351,23.514,23.514,0,0,0,2.237,2.74,36.987,36.987,0,0,0,5.528,4.734c2.043,1.475,4.231,2.837,6.161,4.053l.195.113c1.848,1.167,3.761,2.367,5.577,3.648a.96.96,0,0,0,.535.178.807.807,0,0,0,.632-.292.909.909,0,0,0,.778-.519c.227-.681.438-1.362.648-2.043l.162-.535c.195-.648.389-1.313.551-1.978.357-1.378.665-2.772.94-4.248a59.937,59.937,0,0,0,.989-9.517,39.838,39.838,0,0,0-.859-9.614,22.964,22.964,0,0,0-3.534-8.317,17.592,17.592,0,0,0-2.464-2.74,15.278,15.278,0,0,0-3.194-2.156.871.871,0,0,0-.486-.308l-.162-.016a.807.807,0,0,0-.47.146.867.867,0,0,0-.357.519c-.211.73-.438,1.459-.681,2.172a79.11,79.11,0,0,1-3.615,8.625q-.851,1.8-1.8,3.55c-.551,1.038-1.1,1.978-1.654,2.837a16.3,16.3,0,0,1-2.156,2.578,9.59,9.59,0,0,1-1.9,1.313,8.5,8.5,0,0,1-1.637.584,9.748,9.748,0,0,1-1.832.162h0c-.178,0-.357,0-.519-.016a17.671,17.671,0,0,1-3.7-.762,27.938,27.938,0,0,1-6.307-3.21c-2.221-1.492-4.329-3.194-6.128-4.685l-.73-.616c-.762-.632-1.524-1.248-2.253-1.9A32.9,32.9,0,0,1,126,150.275c-1.427-1.621-2.756-3.372-4.037-5.058l-.113-.146c-1.167-1.524-2.221-2.9-3.324-4.231a.918.918,0,0,0-.519-.34l-.146-.049" transform="translate(68.058 87.25)"></path><path id="Path_1185" data-name="Path 1185" class="cls-10" d="M117.876,140.43a.834.834,0,0,0-.486.162.65.65,0,0,0-.227.243,14.261,14.261,0,0,0-3.015,2.918,20.858,20.858,0,0,0-2.156,3.632,24.2,24.2,0,0,0-1.443,4.183,29.016,29.016,0,0,0-.794,4.6,44.042,44.042,0,0,0,.113,9.776,51.031,51.031,0,0,0,2.059,9.533,36.862,36.862,0,0,0,3.388,7.685,20.516,20.516,0,0,0,2.172,3.048,26.676,26.676,0,0,0,5.107,4.3.951.951,0,0,0,.551.195.856.856,0,0,0,.649-.308l.1-.178a77.7,77.7,0,0,0,14.526-10.2,46.383,46.383,0,0,0,10.716-13.651,10.614,10.614,0,0,0,1.265,2.351,21.164,21.164,0,0,0,2.237,2.756,37.828,37.828,0,0,0,5.528,4.734c2.027,1.475,4.28,2.886,5.934,3.907l.227.146.195.13c1.751,1.1,3.713,2.318,5.561,3.648a.951.951,0,0,0,.551.195.831.831,0,0,0,.648-.308.923.923,0,0,0,.778-.535c.227-.681.438-1.346.648-2.043l.162-.535c.195-.648.389-1.313.551-1.978.357-1.394.665-2.788.957-4.264a60.849,60.849,0,0,0,.989-9.517,40.2,40.2,0,0,0-.859-9.63,23.041,23.041,0,0,0-3.534-8.3,16.348,16.348,0,0,0-2.48-2.74,14.985,14.985,0,0,0-3.21-2.156.928.928,0,0,0-.486-.324l-.178-.032h0a.874.874,0,0,0-.486.162.821.821,0,0,0-.357.519c-.211.73-.438,1.459-.681,2.172-.292.875-.632,1.783-1.005,2.707.324,1.719.7,3.437,1.038,5.155.584,2.853,1.151,5.723,1.589,8.625.227,1.492.422,2.983.551,4.491.114,1.313.195,2.643.195,3.956a25.787,25.787,0,0,1-.259,3.875,14.058,14.058,0,0,1-.794,3.048.4.4,0,0,1-.292.259.5.5,0,0,1-.308-.049,26.916,26.916,0,0,1-4.394-2.87,39.558,39.558,0,0,1-3.859-3.5,47.855,47.855,0,0,1-5.042-6.258c-.049.016-.114.032-.178.049a10.7,10.7,0,0,1-1.816.146c-.178,0-.357,0-.519-.016a12.379,12.379,0,0,1-1.637-.227c-.211.47-.422.924-.648,1.394a51.283,51.283,0,0,1-3.048,5.447A40.977,40.977,0,0,1,138.9,175.9c-.648.73-1.313,1.427-1.994,2.124-1.005,1.038-2.043,2.059-3.129,3.015a26.885,26.885,0,0,1-3.388,2.659,8.014,8.014,0,0,1-1.573.811,2.685,2.685,0,0,1-.616.178,2.184,2.184,0,0,1-.567.032,1.967,1.967,0,0,1-.843-.259,3.227,3.227,0,0,1-.584-.47,5.8,5.8,0,0,1-1.038-1.605,14.552,14.552,0,0,1-.843-2.4,49.427,49.427,0,0,1-1.248-6.712c-.34-2.724-.567-5.464-.762-8.2-.195-2.853-.34-5.723-.454-8.576-.1-2.562-.178-5.107-.276-7.668-.049-1.459-.1-2.9-.195-4.361-1.1-1.443-1.945-2.529-2.853-3.632a.942.942,0,0,0-.535-.34l-.13-.065Z" transform="translate(68.045 87.238)"></path><path id="Path_1186" data-name="Path 1186" class="cls-14" d="M135.31,154.91l.016.016C135.326,154.91,135.326,154.91,135.31,154.91Z" transform="translate(84.057 96.233)"></path><path id="Path_1187" data-name="Path 1187" class="cls-9" d="M253.242,93.45h-.1a4.018,4.018,0,0,0-2.286.908,8.063,8.063,0,0,0-1.767,2.124,20.8,20.8,0,0,0-1.524,3.129,65.463,65.463,0,0,0-2.513,8.041c-.47,1.832-.908,3.68-1.329,5.528-.227.989-.47,1.994-.7,2.967-.276,1.167-.567,2.318-.875,3.469-.324,1.135-.6,1.962-.875,2.691l-.13.276a5.745,5.745,0,0,1-.794.5,16.851,16.851,0,0,0-4.426,3.486,15.871,15.871,0,0,0-2.707,4.393,30.937,30.937,0,0,0-1.945,10.262c-.049.957-.081,1.929-.113,2.9l-.016.616c-.065,2.059-.13,4.6-.438,7.02a24.048,24.048,0,0,1-1.1,4.945.754.754,0,0,0,.065.616.823.823,0,0,0,.162.7,30.93,30.93,0,0,0,5.026,4.783,54.476,54.476,0,0,0,7.328,4.815,38.875,38.875,0,0,0,7.944,3.421,18.381,18.381,0,0,0,5.139.843,12.406,12.406,0,0,0,1.881-.146.658.658,0,0,0,.308.065.947.947,0,0,0,.616-.243c4.75-4.491,7.133-11.657,6.517-19.649a3.315,3.315,0,0,0,.924-.178,8.742,8.742,0,0,0,2.967-1.346,13.366,13.366,0,0,0,3.194-3.469,14.68,14.68,0,0,0,1.475-2.9,10.417,10.417,0,0,0,.73-3.259,6.672,6.672,0,0,0-.454-2.886,5.892,5.892,0,0,0-1.783-2.432,11.374,11.374,0,0,0,.989-4.167,8.377,8.377,0,0,0-1.605-5.3,9.392,9.392,0,0,0-2.254-2.108,6.621,6.621,0,0,0-1.362-.7,11.516,11.516,0,0,0-1.735-.535,11.813,11.813,0,0,0-2.043-.211,8.964,8.964,0,0,0-3.956.892,3.2,3.2,0,0,0-.616-.7,8.168,8.168,0,0,0-2.043-1.3l-.259-.113a30.5,30.5,0,0,0,1.3-4.069c.227-.892.438-1.783.632-2.691a65.773,65.773,0,0,0,1.119-7.474,27.025,27.025,0,0,0-.308-7.685,10.271,10.271,0,0,0-1.135-3.048,5.839,5.839,0,0,0-2.091-2.124,6.744,6.744,0,0,0-3.032-.665" transform="translate(142.612 58.053)"></path><path id="Path_1188" data-name="Path 1188" class="cls-10" d="M242.333,110.748a23.5,23.5,0,0,0-4.653,1.7c0,.016,0,.032-.016.032.178-.065.34-.113.519-.162.454-.113.892-.211,1.362-.292.648-.162,1.281-.308,1.945-.422.243-.049.5-.081.762-.113.276-.065.551-.113.843-.162a14.668,14.668,0,0,1,1.475-.178c.243-.016.5-.016.746-.016h.308a.449.449,0,0,0,.146-.016c.422-.032.859-.032,1.281-.032a12.762,12.762,0,0,1,1.362.065,13.814,13.814,0,0,1,2.432.389,8.438,8.438,0,0,1,2.2.908,9.522,9.522,0,0,1,.94.632c.081.065.162.146.243.211.016,0,.016.016.032.032a5.589,5.589,0,0,1,.875.875,4.361,4.361,0,0,1,.5.892,6.007,6.007,0,0,1,.259.924,5.936,5.936,0,0,1,.016,1.2,6.882,6.882,0,0,1-.405,1.475,8.489,8.489,0,0,1-1.054,1.767,11.643,11.643,0,0,1-1.54,1.556l-.113.113a9.6,9.6,0,0,1-1.718,1.41,10.856,10.856,0,0,1-2.14,1.038,16.225,16.225,0,0,1-2.9.746,17.257,17.257,0,0,1-3.161.195,20.461,20.461,0,0,1-2.967-.308c-.486-.081-.989-.195-1.475-.308a12,12,0,0,1-1.524-.276,13.209,13.209,0,0,1-1.556-.47c-.1-.032-.195-.081-.292-.113a.59.59,0,0,0,.259.227,18.773,18.773,0,0,0,5.188,1.718,21.448,21.448,0,0,0,5.853.259,15.2,15.2,0,0,0,5.318-1.459,13.418,13.418,0,0,0,2.124-1.41,12.126,12.126,0,0,0,1.832-1.816,8.5,8.5,0,0,0,1.832-3.875,6.307,6.307,0,0,0,.016-1.913,5.9,5.9,0,0,0-.632-1.864,6.063,6.063,0,0,0-1.216-1.508,7.788,7.788,0,0,0-2.027-1.281,3.7,3.7,0,0,0-.373-.162c-.535-.178-1.07-.34-1.605-.5a15.72,15.72,0,0,0-3.372-.405h-.438a21.554,21.554,0,0,0-5.5.7m13.31,4.377c.016.032.032.049.032.081a.273.273,0,0,0-.032-.081" transform="translate(146.03 68.364)"></path><path id="Path_1189" data-name="Path 1189" class="cls-10" d="M245.341,110.618a.772.772,0,0,0,.567.957.708.708,0,0,0,.6-.081.851.851,0,0,0,.373-.5c.016-.065.049-.13.065-.195-.5-.162-1.005-.324-1.524-.486a2.933,2.933,0,0,0-.081.308" transform="translate(152.393 68.527)"></path><path id="Path_1190" data-name="Path 1190" class="cls-15" d="M236.729,111.825l-.049.1a2.726,2.726,0,0,1,.519-.146c.454-.113.892-.211,1.346-.292.016,0,.049-.016.065-.016a4.873,4.873,0,0,0,.178-.519c-.7.292-1.378.567-2.059.875" transform="translate(147.03 68.924)"></path><path id="Path_1191" data-name="Path 1191" class="cls-10" d="M247.981,112.224a.829.829,0,0,0-.292,1.1.813.813,0,0,0,1.1.276,6.031,6.031,0,0,1,.551-.308c-.049-.1-.081-.178-.13-.276-.211-.373-.438-.746-.665-1.119-.178.113-.373.211-.567.324" transform="translate(153.807 69.515)"></path><path id="Path_1192" data-name="Path 1192" class="cls-10" d="M242.342,119.495c-.292.049-.567.081-.875.113a.9.9,0,0,0-.146.276,5.274,5.274,0,0,0-.065,3.388,4.639,4.639,0,0,0,.762,1.346,6.379,6.379,0,0,0,1.2,1.086,6.226,6.226,0,0,0,1.378.73,14.008,14.008,0,0,0,1.816.6,18.391,18.391,0,0,0,3.875.5,23.075,23.075,0,0,0,3.81-.178,15.423,15.423,0,0,0,3.194-.713,11.242,11.242,0,0,0,3.55-2.2,14.329,14.329,0,0,0,3.08-3.891A5.835,5.835,0,0,0,264.2,120c-.1.178-.211.34-.324.519a13.769,13.769,0,0,1-1.816,2.075,13.916,13.916,0,0,1-1.978,1.556,11.936,11.936,0,0,1-2.432,1.151,16.945,16.945,0,0,1-5.966.843,22.176,22.176,0,0,1-4.377-.567,11.851,11.851,0,0,1-1.962-.584h0c-.049-.016-.081-.032-.13-.049.049.016.081.032.13.049a7.116,7.116,0,0,1-1.378-.762,4.529,4.529,0,0,1-.746-.73,3.249,3.249,0,0,1-.357-.6,4.486,4.486,0,0,1-.195-.665,6.106,6.106,0,0,1-.016-.94,5.676,5.676,0,0,1,.243-1.038.782.782,0,0,0-.292-.827,2.017,2.017,0,0,1-.259.065" transform="translate(149.718 74.192)"></path><path id="Path_1193" data-name="Path 1193" class="cls-15" d="M243.68,122.86h0" transform="translate(151.379 76.323)"></path><path id="Path_1194" data-name="Path 1194" class="cls-15" d="M243.68,122.86Z" transform="translate(151.379 76.323)"></path><path id="Path_1195" data-name="Path 1195" class="cls-15" d="M243.67,122.86h0Z" transform="translate(151.373 76.323)"></path><path id="Path_1196" data-name="Path 1196" class="cls-15" d="M255.2,120.413a3.113,3.113,0,0,1-.211.276l.081.081c.195-.357.389-.73.584-1.086.016-.032.049-.081.065-.113a9.05,9.05,0,0,1-.519.843" transform="translate(158.405 74.279)"></path><path id="Path_1197" data-name="Path 1197" class="cls-10" d="M245.061,123.459a.888.888,0,0,0-.47.373,7.517,7.517,0,0,0-1.475,3.583,4.4,4.4,0,0,0,.73,2.837,6.4,6.4,0,0,0,2.367,1.994,12.386,12.386,0,0,0,3.388,1.1,17.972,17.972,0,0,0,4.069.276h.032c.648-.065,1.281-.13,1.929-.211.195-.032.389-.065.584-.113v-.049c-.243,0-.47.016-.713,0-.632,0-1.265-.065-1.881-.113a25.558,25.558,0,0,1-3.34-.519,11.064,11.064,0,0,1-3.1-1.2,5.661,5.661,0,0,1-1.2-.956,3.933,3.933,0,0,1-.405-.5,2.327,2.327,0,0,1-.292-.405,4.363,4.363,0,0,1-.259-.47l-.1-.195a.938.938,0,0,1-.081-.227c-.016-.032-.016-.049-.032-.081,0-.016-.016-.032-.016-.049V128.5h0l-.049-.243a4.162,4.162,0,0,1-.016-.778,7.281,7.281,0,0,1,.308-1.167,9.922,9.922,0,0,1,.957-1.67.8.8,0,0,0-.292-1.086.732.732,0,0,0-.405-.113.577.577,0,0,0-.243.016" transform="translate(151.019 76.681)"></path><path id="Path_1198" data-name="Path 1198" class="cls-15" d="M250.156,129.8c.535-.049,1.054-.113,1.589-.195v-.1c-.211,0-.421.016-.632,0q-.486,0-.973-.049c0,.13.016.243.016.34" transform="translate(155.392 80.423)"></path><path id="Path_1199" data-name="Path 1199" class="cls-10" d="M241.273,125.276a.712.712,0,0,0-.373.486.848.848,0,0,0,.081.6l.049.1a13.147,13.147,0,0,1,.827,2.9,15.9,15.9,0,0,1,.016,3.826,28.017,28.017,0,0,1-.551,2.87.8.8,0,0,0,.584.973.793.793,0,0,0,.973-.567,22,22,0,0,0,.713-5.431,14.52,14.52,0,0,0-.308-2.772,13.435,13.435,0,0,0-.908-2.724.8.8,0,0,0-.486-.373.814.814,0,0,0-.195-.032,1.081,1.081,0,0,0-.422.146m.6,4.215c0,.016.016.049.016.065,0-.016-.016-.049-.016-.065m0,3.81a.146.146,0,0,1-.016.081.176.176,0,0,1,.016-.081" transform="translate(149.636 77.733)"></path><path id="Path_1200" data-name="Path 1200" class="cls-16" d="M278.245,129.636a.835.835,0,0,0-.632.292.726.726,0,0,0-.357.373c-2.934,7.571-6.274,16.164-10.2,24.253-.957,1.978-1.962,3.94-2.983,5.836l-1.119,2.043c-.373.681-.746,1.362-1.119,2.059-1.556,2.853-3.08,5.642-4.88,8.317a32.721,32.721,0,0,1-5.22,6.144,17.269,17.269,0,0,1-3.34,2.286,13.207,13.207,0,0,1-2.74.973l-.162.032a15.172,15.172,0,0,1-2.837.243c-.259,0-.519,0-.778-.016-.016,0-.113,0-.113.016a.7.7,0,0,1-.081.016,32.976,32.976,0,0,1-7.441-1.621,107.981,107.981,0,0,1-16.164-7.555c-1.2-.648-2.4-1.3-3.615-1.929-1.329-.7-2.74-1.394-4.28-2.124q-3.551-1.654-7.052-3.324l-3.842-1.816Q194.161,161.7,189,159.272c-4.264-1.978-8.009-3.7-11.494-5.22a.835.835,0,0,0-.632-.292c-1.3-.551-2.562-1.1-3.826-1.637a.962.962,0,0,0-.373-.081.78.78,0,0,0-.73.438.858.858,0,0,0-.016.665.714.714,0,0,0,.389.422c.875.373,1.735.73,2.594,1.1a44.275,44.275,0,0,0-7.6,5.123,43.093,43.093,0,0,0-6.939,7.571,54.107,54.107,0,0,0-8.187,18.531,100.76,100.76,0,0,0-2.643,20.8c-.114,3.113-.114,6.517-.016,10.408l.081,2.432c.049,1.41.1,2.837.113,4.248.049,2.643.049,5.285.049,7.928-.065,9.662-.535,19.455-.973,28.955-.324,6.777-.665,13.78-.843,20.671a.79.79,0,0,0-.762.794c-.211,23.313-.065,44.049.438,63.39.13,5.3.308,10.6.486,15.888l.1,2.643c.162,4.393.308,8.8.486,13.2.5,12.808,1.086,22.551,1.881,31.63.081.957.162,1.9.259,2.837a.881.881,0,0,0,.243.584,1.144,1.144,0,0,0,.486.373c6.258,2.643,13.553,3.907,22.276,3.907q1.435,0,2.87-.049a139.373,139.373,0,0,0,25.729-3.5,126.616,126.616,0,0,0,15.272-4.167.537.537,0,0,0,.227-.162.888.888,0,0,0,.551-.389.9.9,0,0,0,.081-.632c-.292-1.589-.535-3.194-.746-4.8h0c-.308-2.335-.584-4.669-.843-7.02-.13-1.151-.259-2.318-.405-3.486q-.657-5.35-1.362-10.7c-.373-2.87-.762-5.739-1.135-8.609a.583.583,0,0,0-.032-.178q-.851-6.225-1.719-12.435c-1.881-13.391-3.972-27.382-6.4-42.784-1.962-12.435-4.183-26-6.987-42.687-2.594-15.483-5.074-31.046-6.955-42.881l-2.14-13.521c3.34,1.475,6.615,3.113,9.646,4.653,1.54.794,3.1,1.589,4.637,2.383,2.124,1.1,4.264,2.2,6.4,3.291,7.117,3.583,14.85,7.214,23.151,9.4a53.4,53.4,0,0,0,11.786,1.783c.421.016.859.016,1.281.016a38.777,38.777,0,0,0,10.473-1.443,37.812,37.812,0,0,0,11.3-5.4,49.6,49.6,0,0,0,9.192-8.414,88.35,88.35,0,0,0,7.474-10.165c2.335-3.632,4.475-7.393,6.55-11.024,4.734-8.284,9.711-17.136,13.991-26.329a157.363,157.363,0,0,0,5.95-14.591c.957-2.756,1.718-5.285,2.351-7.717a82.084,82.084,0,0,0,1.637-8.139,1.117,1.117,0,0,0-.049-.454.6.6,0,0,0,.016-.243.76.76,0,0,0-.276-.551,102.493,102.493,0,0,0-17.623-10.1,82.716,82.716,0,0,0-19.406-5.917Z" transform="translate(91.377 80.523)"></path><path id="Path_1201" data-name="Path 1201" class="cls-16" d="M132.053,150.02a.738.738,0,0,0-.324.081c-8.949,4.847-18.271,8.868-27.3,12.759-8.592,3.7-17.477,7.522-26.1,12.062a116.723,116.723,0,0,0-21.27,13.91,73.914,73.914,0,0,0-8.933,8.949c-1.313,1.573-2.594,3.242-3.875,5.123a48.919,48.919,0,0,0-3.113,5.2c-3.388,6.6-4.28,13.343-2.529,18.984a17.925,17.925,0,0,0,4.475,7.344,22.127,22.127,0,0,0,8.268,5.01,32.953,32.953,0,0,0,5.512,1.378,55.585,55.585,0,0,0,6.55.648c.957.049,1.913.065,2.87.065a62.757,62.757,0,0,0,9.954-.811,70.1,70.1,0,0,0,23.637-8.56,92.884,92.884,0,0,0,13.326-9.273c1.135-.924,2.108-1.783,2.983-2.578.973-.908,1.913-1.881,2.853-2.837l.162-.162a42.941,42.941,0,0,1,5.01-4.572c.081,8.771-.113,18.06-.6,27.561v.162h.016c-1.086,20.395-3.453,42.784-7.458,70.442-.6,4.2-1.232,8.382-1.848,12.564l-.746,5.091q-1.313,8.9-2.675,17.8c-2.091,13.586-3.956,24.853-5.885,35.489-.746,4.118-1.54,8.236-2.351,12.337a.819.819,0,0,0,.243.746.834.834,0,0,0,.584.681,185.759,185.759,0,0,0,29.068,7.522,190.681,190.681,0,0,0,29.717,2.756c.94.016,1.881.016,2.837.016,4.588,0,9.371-.178,14.251-.5,3.048-.211,5.723-.486,8.171-.859a42.062,42.062,0,0,0,7.685-1.832h.032a.852.852,0,0,0,.924-.794c0-23.589-.567-44.438-1.719-63.746-.308-5.074-.665-10.327-1.086-15.612-.405-5.382-.859-10.36-1.378-15.191a274.978,274.978,0,0,0-4.7-29.879c-.6-2.756-1.281-5.561-2.01-8.349a.832.832,0,0,0-.778-.6l-.519-1.151-.1-.292c-2.318-7.279-4.118-14.818-5.853-22.13-.454-1.929-.908-3.842-1.378-5.755-1.119-4.62-2.2-9.419-3.324-14.64l-.973-4.588c-.73-3.421-1.443-6.825-2.2-10.23-1.265-5.658-2.4-10.327-3.6-14.688-.648-2.351-1.362-4.734-2.108-7.117-.34-1.054-.681-2.124-1.054-3.178-.34-.94-.73-1.9-1.151-2.853a46.718,46.718,0,0,0-6.161-10.068,54.522,54.522,0,0,0-8.43-8.43,57.227,57.227,0,0,0-18.806-9.97c1.2-.584,2.4-1.216,3.583-1.864a.821.821,0,0,0,.405-1.07.9.9,0,0,0-.778-.5" transform="translate(23.439 93.196)"></path><path id="Path_1202" data-name="Path 1202" class="cls-17" d="M131.718,150.116c-8.933,4.847-18.141,8.8-27.042,12.646l-.259.113-.243.1c-8.479,3.648-17.234,7.425-25.842,11.948a116.619,116.619,0,0,0-21.287,13.91,73.792,73.792,0,0,0-8.933,8.933,63.517,63.517,0,0,0-3.875,5.139,49.5,49.5,0,0,0-3.113,5.2c-3.388,6.615-4.28,13.359-2.529,19a17.844,17.844,0,0,0,2.967,5.658,87.033,87.033,0,0,1,6.452-10.587,117.513,117.513,0,0,1,17.023-18.984c3.242-2.934,6.631-5.69,10.084-8.366,3.648-2.837,7.344-5.593,11.138-8.236a219.661,219.661,0,0,1,23.913-14.607c4.134-2.156,8.333-4.2,12.629-6.047,3.81-1.654,7.668-3.161,11.576-4.556a.417.417,0,0,1,.195-.081.705.705,0,0,0,.081-.016c.34-.114.681-.243,1.038-.357a.206.206,0,0,1,.1-.016.274.274,0,0,1,.162.049c.616-.178,1.216-.357,1.816-.567l2.432-.827c.454-.146.892-.292,1.346-.438-.957-.584-1.929-1.135-2.934-1.654a54.144,54.144,0,0,0-9.776-4.053c1.3-.584,2.594-1.281,3.583-1.816a.845.845,0,0,0,.422-1.119.869.869,0,0,0-.778-.519,2.152,2.152,0,0,0-.34.146" transform="translate(23.432 93.164)"></path><path id="Path_1203" data-name="Path 1203" class="cls-17" d="M98.74,215.994v.162C97.67,236.551,95.3,258.924,91.3,286.6c-.47,3.226-.94,6.436-1.427,9.662l-.438,2.918-.746,5.091q-1.313,8.9-2.675,17.785c-2.124,13.861-4,25.145-5.885,35.5-.746,4.118-1.54,8.236-2.351,12.337a.808.808,0,0,0,.243.762.881.881,0,0,0,.6.681,183.371,183.371,0,0,0,19.406,5.577c3.275-17.2,5.609-34.6,7.166-52.041q1.678-18.725,2.253-37.515c.405-12.6.519-25.21.081-37.823v.016c-.357-10-1.021-20.006-2.124-29.944-.276-2.529-.584-5.058-.924-7.571-.146-1.167-.324-2.318-.47-3.469l-.373-2.886a71.32,71.32,0,0,0-2.253-11.786,25.843,25.843,0,0,0-.875-2.448,23.59,23.59,0,0,0-1.135-2.318c.032,8.836-.178,17.866-.632,26.864" transform="translate(48.305 117.491)"></path><path id="Path_1204" data-name="Path 1204" class="cls-17" d="M289.308,139.448c-3.064,7.555-6.225,15.094-9.711,22.47a197.149,197.149,0,0,1-11.981,21.968c-2.221,3.437-4.572,6.793-7.1,10a97.389,97.389,0,0,1-7.9,8.852,62.631,62.631,0,0,1-9.468,7.83,56.487,56.487,0,0,1-11.624,5.82,64.709,64.709,0,0,1-12.808,3.21c-2.14.308-4.28.535-6.436.665-2.286.13-4.588.178-6.89.081a69.449,69.449,0,0,1-7.344-.681c-2.318-.324-4.637-.746-6.939-1.2-4.718-.94-9.387-2.027-14.121-2.87-.794-.13-1.605-.276-2.4-.389,2.772,1.3,5.5,2.659,7.879,3.875,1.556.794,3.08,1.589,4.637,2.383,2.124,1.1,4.264,2.2,6.4,3.291,7.15,3.6,14.9,7.231,23.151,9.4a53.733,53.733,0,0,0,11.8,1.8c.422.016.843.016,1.281.016a39.09,39.09,0,0,0,10.489-1.459,37.445,37.445,0,0,0,11.3-5.4,50,50,0,0,0,9.192-8.4,84.846,84.846,0,0,0,7.474-10.181c2.367-3.664,4.491-7.409,6.566-11.024,4.75-8.3,9.727-17.169,13.991-26.329a153.541,153.541,0,0,0,5.934-14.591c.957-2.789,1.735-5.318,2.367-7.717.648-2.562,1.216-5.318,1.637-8.155a.95.95,0,0,0-.065-.47.591.591,0,0,0,.032-.227.848.848,0,0,0-.292-.584c-2.562-1.816-5.172-3.5-7.8-5.042-.438,1.005-.843,2.026-1.265,3.048" transform="translate(108.459 84.734)"></path><path id="Path_1205" data-name="Path 1205" class="cls-17" d="M209.84,185.17Z" transform="translate(130.357 115.031)"></path><path id="Path_1206" data-name="Path 1206" class="cls-18" d="M142.5,140.314h-.081l.276,1.508c.049.292.113.584.146.859.47,2.87.924,5.8,1.313,8.722,2.675,20.087,3.178,41.033,3.632,59.5v.195l.049,2.27v.616c.195,8.349.422,17.817.843,27.042.049.973.1,1.945.146,2.934l.081,1.589.016.227.146,2.837c.13,2.659.243,5.318.357,7.976.178,4.653.324,9.306.47,13.975l.065,1.978c.032,1.281.081,2.545.065,3.842a.91.91,0,0,0,.875.632,1.054,1.054,0,0,0,.551-.178.882.882,0,0,0,.584-.535,133.385,133.385,0,0,0,5.577-13.2l1.248-3.388,1.248-3.372.875-2.335,1.767-4.685c1.556-4.15,3.356-9.079,4.928-14.153.389-1.281.762-2.578,1.151-3.875.276-.957.551-1.929.843-2.886l.519-1.637.146-.5c.454-1.475.892-2.951,1.329-4.426.681-2.318,1.2-4.507,1.637-6.7a34.38,34.38,0,0,0,.648-6.874.923.923,0,0,0-.308-.681.615.615,0,0,0-.195-.422c-2.9-2.659-5.772-5.561-8.544-8.625-2.545-2.8-5.074-5.9-7.522-9.16,2.253-2.156,4.653-4.734,7.1-7.6a115.813,115.813,0,0,0,7.36-9.711,76.17,76.17,0,0,0,6.015-10.408,39.873,39.873,0,0,0,3.372-10.23c.1-.584.162-1.167.227-1.751a.76.76,0,0,0-.13-.535.865.865,0,0,0-.389-.535c-1.7-.794-3.518-1.556-5.4-2.253-1.394-.519-2.8-.989-4.215-1.459l-.357-.113c-3.664-1.216-6.631-2.091-9.322-2.772a69.312,69.312,0,0,0-9.97-1.913,39.125,39.125,0,0,0-4.118-.243,24.665,24.665,0,0,0-5.058.454" transform="translate(88.474 86.883)"></path><path id="Path_1207" data-name="Path 1207" class="cls-18" d="M127.163,141.99a1,1,0,0,0-.211.016,26.371,26.371,0,0,0-5.058.648,36.137,36.137,0,0,0-3.956,1.119,67.018,67.018,0,0,0-9.225,3.972c-2.48,1.265-5.155,2.756-8.4,4.7l-.405.243c-1.232.746-2.464,1.475-3.664,2.27-1.492.973-3.08,2.108-4.718,3.356a.844.844,0,0,0-.243.6.808.808,0,0,0,.016.551c.195.551.405,1.119.649,1.654a40.733,40.733,0,0,0,5.755,9.257,83.757,83.757,0,0,0,8.4,8.836c2.934,2.691,6.128,5.334,9.533,7.9,3.015,2.221,5.966,4.231,8.8,5.982-1.67,3.729-3.372,7.263-5.107,10.441-1.9,3.486-3.988,6.939-6.209,10.246a.639.639,0,0,0-.1.486.778.778,0,0,0-.113.681,33.491,33.491,0,0,0,2.3,6.55c.94,2.027,1.994,4.053,3.21,6.161.875,1.524,1.8,3.048,2.707,4.588l.843,1.394c.5.859,1.021,1.735,1.508,2.594.681,1.183,1.362,2.367,2.075,3.534,2.626,4.377,5.528,8.706,8.268,12.743l2.27,3.34,2.01,2.934,2.562,3.794,1.524,2.237a144.279,144.279,0,0,0,8.657,11.673.864.864,0,0,0,.567.357h0a1.268,1.268,0,0,0,.178.032.8.8,0,0,0,.34.065.969.969,0,0,0,.892-.648c-.211-1.005-.389-2.027-.551-3.032-.195-.924-.405-1.848-.6-2.772L151,267.31l-.081-.373c-.827-3.826-1.654-7.652-2.448-11.478-.519-2.513-1.038-5.026-1.524-7.555l-.535-2.691c-.292-1.492-.567-3-.875-4.475-1.67-8.268-3.583-16.893-5.415-25.015l-.1-.486-.146-.584-.454-2.059c-3.94-17.493-8.4-37.3-10.441-56.921-.47-4.523-.794-8.836-.957-12.775a.827.827,0,0,0-.259-.6.759.759,0,0,0-.6-.308Z" transform="translate(56.683 88.207)"></path><path id="Path_1208" data-name="Path 1208" class="cls-17" d="M143,138.266h0c-.146,0-.211,0-.259.032a.8.8,0,0,0-.5.389.861.861,0,0,0-.1.648c.146.746.276,1.492.421,2.237h0l.032.032.276,1.508a8.647,8.647,0,0,1,.146.859c.47,2.87.924,5.8,1.313,8.722,2.675,20.087,3.178,41.033,3.632,59.5v.195l.049,2.27v.616c.195,8.349.421,17.817.859,27.042.049.973.1,1.945.146,2.934l.081,1.589.016.211.146,2.837c.13,2.659.243,5.318.357,7.976.178,4.653.324,9.306.47,13.975l.065,1.978c.032,1.054.065,2.091.065,3.145.032.859.065,1.735.081,2.594a.862.862,0,0,0,.859.843.827.827,0,0,0,.5-.178.577.577,0,0,0,.146-.065.846.846,0,0,0,.421-.486,143.207,143.207,0,0,0,5.415-13.732l1.216-3.518,1.216-3.518.859-2.432,1.718-4.864c1.492-4.28,3.226-9.371,4.8-14.737.389-1.346.746-2.675,1.119-4.021.259-1.005.535-1.994.811-3l.486-1.718.146-.519c.438-1.524.875-3.064,1.281-4.6.648-2.416,1.167-4.685,1.573-6.955a37.758,37.758,0,0,0,.632-7.133.915.915,0,0,0-.292-.681.633.633,0,0,0-.195-.438c-2.853-2.8-5.642-5.82-8.317-8.982-2.48-2.934-4.945-6.144-7.3-9.533a102.1,102.1,0,0,0,6.89-7.96,118.792,118.792,0,0,0,7.15-10.1,82.372,82.372,0,0,0,5.836-10.814,42.523,42.523,0,0,0,3.259-10.651c.1-.6.162-1.2.211-1.816a.966.966,0,0,0-.113-.535.8.8,0,0,0-.373-.535c-1.67-.843-3.437-1.621-5.253-2.351-1.362-.551-2.724-1.038-4.1-1.508l-.34-.114c-3.486-1.232-6.371-2.156-9.079-2.886a64.005,64.005,0,0,0-9.679-1.994,37.131,37.131,0,0,0-4-.243,22.6,22.6,0,0,0-4.8.486" transform="translate(88.286 85.592)"></path><path id="Path_1209" data-name="Path 1209" class="cls-17" d="M127.76,140.02a.789.789,0,0,0-.195.016,24.974,24.974,0,0,0-4.912.665,36.022,36.022,0,0,0-3.859,1.167,63.625,63.625,0,0,0-8.965,4.15c-2.318,1.248-4.912,2.8-8.171,4.88l-.389.243c-1.2.762-2.4,1.54-3.567,2.367-1.475,1.021-3.015,2.189-4.572,3.486a.856.856,0,0,0-.227.616.974.974,0,0,0,.016.567c.195.567.405,1.151.632,1.718a43.254,43.254,0,0,0,5.609,9.614,83.642,83.642,0,0,0,8.171,9.209,119.6,119.6,0,0,0,9.273,8.2c2.934,2.3,5.8,4.394,8.56,6.209-1.524,3.761-3.194,7.441-4.945,10.911-1.848,3.632-3.875,7.214-6.031,10.651a.713.713,0,0,0-.081.486.847.847,0,0,0-.113.7,37.939,37.939,0,0,0,2.237,6.825c.924,2.124,1.945,4.215,3.113,6.4.859,1.605,1.735,3.178,2.626,4.766l.811,1.443c.486.892.989,1.8,1.475,2.707.665,1.232,1.329,2.464,2.027,3.68,2.61,4.653,5.528,9.306,8.041,13.245l2.2,3.469,1.962,3.048,2.5,3.956,1.475,2.335c2.545,3.972,5.285,8.187,8.414,12.143a.9.9,0,0,0,.519.373c-.016,0-.016,0,.162.016a.754.754,0,0,0,.34.081.669.669,0,0,0,.195-.016c.065-.016.13-.049.195-.065h0c-.016-.178-.049-.357-.049-.535-.065-.324-.113-.648-.162-.973-.032-.195-.065-.373-.081-.567-.292-1.427-.567-2.837-.762-4.248-.113-.794-.211-1.589-.308-2.383-.016-.081-.032-.162-.049-.259-.049-.308-.1-.616-.13-.94l-.195-1.216c-.178-.908-.324-1.8-.438-2.707-.567-2.8-1.119-5.593-1.654-8.4-.5-2.61-1.005-5.22-1.492-7.847l-.519-2.8c-.276-1.556-.567-3.113-.843-4.669-1.718-9.127-3.745-18.774-5.366-26.507l-.13-.616-.438-2.14c-3.826-18.206-8.155-38.828-10.165-59.223-.438-4.62-.762-9.111-.924-13.31a.828.828,0,0,0-.243-.616.689.689,0,0,0-.584-.308Z" transform="translate(57.692 86.983)"></path><path id="Path_1210" data-name="Path 1210" class="cls-18" d="M107.91,166.878a34.522,34.522,0,0,0-11.349,3.388,49.53,49.53,0,0,0-10.36,6.89,68.8,68.8,0,0,0-8.965,9.257c-1.216,1.508-2.48,3.226-3.777,5.107-1.378,1.994-2.61,4.037-3.777,5.966-1.589,2.675-3.145,5.48-4.7,8.479.632.681,1.265,1.362,1.9,2.059.243.243.47.5.713.746.389.162.778.324,1.151.47.681.292,1.394.567,2.091.843a55.831,55.831,0,0,0,6.258,1.929c1.994.5,4,.908,6.047,1.248,4.394.713,8.819,1.135,13.245,1.605,9.338.989,18.66,2.059,28,2.934h.049c2.837.276,5.674.5,8.511.746,2.5.211,5.01.405,7.539.535a68.468,68.468,0,0,0,15.239-.584q1.775-.316,3.5-.778c-.957-1.7-1.848-3.437-2.691-5.2-1.248-2.626-2.432-5.285-3.632-7.944-1.248-2.74-2.513-5.464-3.972-8.106l-.049-.1c-.47-.681-.94-1.378-1.41-2.059l-.195-.292c-2.27-3.34-4.62-6.777-7.133-10.035a60.606,60.606,0,0,0-8.56-9.128,39.267,39.267,0,0,0-5.69-4.021,32.026,32.026,0,0,0-6.031-2.707,27.865,27.865,0,0,0-8.836-1.427,28.161,28.161,0,0,0-3.113.178M70.865,210.068a.057.057,0,0,0,.032.016.057.057,0,0,1-.032-.016" transform="translate(40.367 103.558)"></path><path id="Path_1211" data-name="Path 1211" class="cls-18" d="M64.44,192.18c.211.049.438.081.648.146.1.032.211.049.308.081a.686.686,0,0,1-.081-.113c-.195-.227-.373-.47-.567-.713-.1.211-.211.405-.308.6" transform="translate(40.031 119.013)"></path><path id="Path_1212" data-name="Path 1212" class="cls-16" d="M118.261,170.27a27.264,27.264,0,0,0-3.1.162,34.869,34.869,0,0,0-11.349,3.372,49.824,49.824,0,0,0-10.36,6.874,67.858,67.858,0,0,0-8.965,9.257c-1.265,1.556-2.529,3.275-3.777,5.091-1.362,1.994-2.626,4.053-3.761,5.966-2.432,4.085-4.766,8.43-7.117,13.31a280.034,280.034,0,0,0-11.4,27.82c-1.346,3.745-2.626,7.522-3.923,11.284a84.045,84.045,0,0,0-2.756,9.6,30.019,30.019,0,0,0-.665,9.922,19.221,19.221,0,0,0,.422,2.221,14.249,14.249,0,0,0,.794,2.27,12.237,12.237,0,0,0,2.594,3.761,12.586,12.586,0,0,0,1.816,1.492,11.349,11.349,0,0,0,2.318,1.232,13.122,13.122,0,0,0,4.7.811c.324,0,.648-.016.973-.032a22.812,22.812,0,0,0,5.755-1.167,36.561,36.561,0,0,0,5.674-2.432,42.294,42.294,0,0,0,4.2-2.562l1.378-.957,1.378-.973a40.824,40.824,0,0,1,6.534-3.859,11.7,11.7,0,0,1,2.675-.827,4.811,4.811,0,0,1,.681-.049,2.618,2.618,0,0,1,.5.032,2.884,2.884,0,0,1,.616.162,2.313,2.313,0,0,1,.438.243,3.7,3.7,0,0,1,.357.357,5.476,5.476,0,0,1,.389.665,6.679,6.679,0,0,1,.389,1.54,16.269,16.269,0,0,1-.049,3.534,15.725,15.725,0,0,1-.924,3.437,41.012,41.012,0,0,1-4.377,7.36c-.567.827-1.135,1.654-1.686,2.48a29.831,29.831,0,0,0-2.756,5.074,18.193,18.193,0,0,0-.843,2.626,23.851,23.851,0,0,0-.454,2.951,18.806,18.806,0,0,0,.195,5.139,13.163,13.163,0,0,0,1.556,4.248,11.664,11.664,0,0,0,2.918,3.307,15.638,15.638,0,0,0,4.231,2.3,26.259,26.259,0,0,0,6.047,1.313,38.359,38.359,0,0,0,4.62.259c1.021,0,2.027-.032,3.032-.1a69.146,69.146,0,0,0,15.045-2.87c2.626-.762,5.188-1.621,7.36-2.351,2.367-.811,4.718-1.637,7.069-2.48,4.685-1.67,8.982-3.356,13.164-5.155a132,132,0,0,0,24.513-13.553,75.584,75.584,0,0,0,9.16-7.425,66.138,66.138,0,0,0,6.955-7.993,67.186,67.186,0,0,0,5.82-9.354,53.353,53.353,0,0,0,3.923-10.116,37.529,37.529,0,0,0,1.346-10.295,27.6,27.6,0,0,0-1.945-9.873,27.033,27.033,0,0,0-2.416-4.588,28.073,28.073,0,0,0-3.486-4.248,33.322,33.322,0,0,0-7.928-5.8,73.034,73.034,0,0,0-9.014-4.021c-2.48-.94-5.026-1.816-7.506-2.643l-.6-.211a.909.909,0,0,0-.227-.486,6.45,6.45,0,0,0-.6-.713c-.227-.227-.454-.438-.681-.665l-.227-.227c-.535-.535-1.054-1.1-1.573-1.654-.957-1.054-1.945-2.221-3.015-3.55-2.756-3.469-5.285-7.214-7.749-10.814-2.3-3.388-4.7-6.906-7.263-10.2a60.526,60.526,0,0,0-8.544-9.127,40.562,40.562,0,0,0-5.69-4.021,33.052,33.052,0,0,0-6.015-2.707,28.338,28.338,0,0,0-8.8-1.378" transform="translate(31.637 105.775)"></path><path id="Path_1213" data-name="Path 1213" class="cls-16" d="M120.9,196.912a.816.816,0,0,0,.1,1.135c2.043,1.913,4.085,3.842,6.242,5.626a.81.81,0,0,0,1.119-.1.8.8,0,0,0-.1-1.119c-2.156-1.8-4.2-3.713-6.242-5.642a.686.686,0,0,0-.486-.195.835.835,0,0,0-.632.292" transform="translate(74.991 122.144)"></path><path id="Path_1214" data-name="Path 1214" class="cls-16" d="M121.57,196.32a.775.775,0,0,0-.73.843.86.86,0,0,0,.276.551,42.444,42.444,0,0,0,7.036,6.274.925.925,0,0,0,.567.195.844.844,0,0,0,.551-.292.8.8,0,0,0-.1-1.119,43.106,43.106,0,0,1-7.036-6.274.724.724,0,0,0-.519-.178h-.049" transform="translate(75.067 121.958)"></path><path id="Path_1215" data-name="Path 1215" class="cls-16" d="M120.915,196.1a.868.868,0,0,0-.34.519.776.776,0,0,0,.13.6,44.846,44.846,0,0,0,3.826,3.826c1.362,1.216,2.8,2.367,4.248,3.5a.816.816,0,0,0,1.135-.1.782.782,0,0,0-.113-1.119,63.273,63.273,0,0,1-7.539-6.744.035.035,0,0,0,.032.032c-.1-.1-.178-.211-.276-.308a.854.854,0,0,0-.5-.324c-.049,0-.1-.016-.146-.016a.652.652,0,0,0-.454.13" transform="translate(74.896 121.739)"></path><path id="Path_1216" data-name="Path 1216" class="cls-18" d="M169.6,201.06h-.016c.032.551.065,1.086.049,1.605a19.553,19.553,0,0,1-.276,2.934,31.048,31.048,0,0,1-1.767,6.1,72.4,72.4,0,0,1-6.031,11.462c-1.167,1.864-2.156,3.372-3.113,4.75-1.281,1.848-2.626,3.6-3.956,5.22a66.979,66.979,0,0,1-9.581,9.6,55.591,55.591,0,0,1-5.318,3.826c-1.021.632-2.059,1.232-3.064,1.783-1.3.681-2.221,1.151-3.113,1.54a33.134,33.134,0,0,1-3.307,1.281,23.328,23.328,0,0,1-3.307.794,18.845,18.845,0,0,1-2.967.259c-.162,0-.34,0-.5-.016-.567-.032-1.151-.065-1.718-.146-.519-.081-1.021-.162-1.524-.276a.311.311,0,0,1-.243-.276.328.328,0,0,1,.1-.34,24.427,24.427,0,0,0,3.194-3.08,13.673,13.673,0,0,0,.957-1.313,8.747,8.747,0,0,0,.648-1.216,8.034,8.034,0,0,0,.6-1.962,7.087,7.087,0,0,0,.032-1.54,5.94,5.94,0,0,0-.34-1.427,7.4,7.4,0,0,0-.908-1.686,11.466,11.466,0,0,0-1.945-2.043,18.946,18.946,0,0,0-3.972-2.383,28.554,28.554,0,0,0-6.971-2.043,26.1,26.1,0,0,0-4.037-.324h-.178c-.373,0-.73.016-1.086.032l-.276.016c-.308.016-.6.032-.908.032-.519.016-1.021.016-1.54.016h-.892c-.875,0-1.767-.032-2.643-.049l-.616-.016c-1.054-.016-2.108-.049-3.161-.049-1.783,0-3.275.065-4.7.195a17.858,17.858,0,0,0-3.907.778,5.071,5.071,0,0,0-.892.405c-.292.162-.551.34-.827.519a13.46,13.46,0,0,0-2.367,2.286,44.025,44.025,0,0,0-4.7,7.8l-.405.811c-.47.924-.924,1.848-1.427,2.756-.405.746-.843,1.492-1.3,2.221-.5.827-1.005,1.637-1.524,2.464-1.589,2.48-3.307,4.977-5.123,7.441l.227-.081.373-.259,1.362-.957,1.378-.957a43.689,43.689,0,0,1,6.534-3.859,11.335,11.335,0,0,1,2.659-.794,4.8,4.8,0,0,1,.681-.049,2.454,2.454,0,0,1,.486.032,1.962,1.962,0,0,1,1.005.389c.113.113.227.227.34.357a4.125,4.125,0,0,1,.389.632,6.752,6.752,0,0,1,.389,1.524,17.364,17.364,0,0,1-.049,3.534,15.359,15.359,0,0,1-.924,3.421,41,41,0,0,1-4.28,7.231l-.308.454-1.459,2.14a29.379,29.379,0,0,0-2.756,5.074,15.278,15.278,0,0,0-.843,2.626,25.23,25.23,0,0,0-.47,2.983,18.756,18.756,0,0,0,.195,5.139,13.234,13.234,0,0,0,1.573,4.28,11.3,11.3,0,0,0,2.934,3.323,15.328,15.328,0,0,0,4.248,2.286,25.959,25.959,0,0,0,6.063,1.329,41.322,41.322,0,0,0,4.637.276c1.005,0,2.027-.032,3.032-.1a69.605,69.605,0,0,0,15.061-2.9c2.14-.616,4.6-1.394,7.36-2.351,2.367-.811,4.718-1.637,7.069-2.464,4.62-1.637,8.933-3.323,13.164-5.155a132.253,132.253,0,0,0,24.529-13.553,77.913,77.913,0,0,0,9.176-7.425,67.7,67.7,0,0,0,12.775-17.4A52.259,52.259,0,0,0,189.2,238.4a37.374,37.374,0,0,0,1.362-10.311,27.371,27.371,0,0,0-1.962-9.906,24.474,24.474,0,0,0-2.432-4.588,27.563,27.563,0,0,0-3.486-4.264,33.868,33.868,0,0,0-7.944-5.8,56.623,56.623,0,0,0-5.139-2.464h0" transform="translate(42.696 124.903)"></path><path id="Path_1217" data-name="Path 1217" class="cls-18" d="M106.636,187.68h-.016a44.522,44.522,0,0,0,3.437,4.15,47.731,47.731,0,0,0,4.183,3.923,37.076,37.076,0,0,0,4.28,3.032,43.656,43.656,0,0,0,4.637,2.464,46.768,46.768,0,0,0,5.772,2.124c1.556.454,3.21.843,4.961,1.183a2.456,2.456,0,0,0-.6-.778,2.212,2.212,0,0,1-.276-.276l-.227-.227-.162-.162-.227-.227q-.8-.827-1.556-1.654c-.924-1.005-1.881-2.14-3.015-3.55l-.567-.73a85.125,85.125,0,0,1-8.317-3,89.229,89.229,0,0,1-12.305-6.274h0" transform="translate(66.235 116.591)"></path><path id="Path_1218" data-name="Path 1218" class="cls-7" d="M79.476,193.607A9.548,9.548,0,0,0,76.1,196.3a.812.812,0,0,0,.13,1.119.8.8,0,0,0,1.119-.13,9.41,9.41,0,0,1,.762-.843,9.525,9.525,0,0,1,1.54-1.151,7.633,7.633,0,0,1,1.524-.6,6.934,6.934,0,0,1,1.735-.178,8.358,8.358,0,0,1,1.783.292,9.674,9.674,0,0,1,1.929.843,10.958,10.958,0,0,1,2.043,1.621c-.049-.049-.1-.113-.146-.162A10.57,10.57,0,0,1,90.03,199.1a9.843,9.843,0,0,1,.811,2.01,8.125,8.125,0,0,1,.211,1.978V202.9a7.018,7.018,0,0,1-.259,1.735,9.258,9.258,0,0,1-.713,1.654,9.985,9.985,0,0,1-1.573,1.929l.146-.146c-.195.195-.389.357-.6.535a.817.817,0,0,0-.162,1.119.788.788,0,0,0,1.119.162,13.276,13.276,0,0,0,1.654-1.654,11.289,11.289,0,0,0,1.135-1.767,9.116,9.116,0,0,0,.648-1.832,8.165,8.165,0,0,0,.195-1.994,8.641,8.641,0,0,0-.811-3.486,10.628,10.628,0,0,0-2.189-3.161,9.982,9.982,0,0,0-6.469-3.064c-.146,0-.292-.016-.438-.016a8.118,8.118,0,0,0-3.259.7m.34,1.589c-.016.016-.032.016-.065.032a.084.084,0,0,0,.065-.032M90.1,199.184c.016.016.016.032.032.065-.016-.032-.032-.049-.032-.065m.016,7.036c-.016.016-.016.032-.032.049.016-.016.032-.032.032-.049m-.032.081a.016.016,0,0,1-.016.016.016.016,0,0,1,.016-.016" transform="translate(47.174 119.84)"></path><path id="Path_1219" data-name="Path 1219" class="cls-7" d="M111.132,224.617a10.432,10.432,0,0,0-3.729,2.529.8.8,0,0,0-.162.584.741.741,0,0,0,.292.535.754.754,0,0,0,.584.162.9.9,0,0,0,.535-.308.752.752,0,0,1,.113-.113,10.287,10.287,0,0,1,2.027-1.508l-.195.1a9.235,9.235,0,0,1,1.913-.762,8.086,8.086,0,0,1,1.767-.195,8.185,8.185,0,0,1,1.767.276,9.02,9.02,0,0,1,1.864.811,10.936,10.936,0,0,1,1.929,1.524,10.42,10.42,0,0,1,1.427,1.929,8.495,8.495,0,0,1,1.119,4.442v-.211a10.219,10.219,0,0,1-.292,1.978,9.493,9.493,0,0,1-.794,1.816,11.215,11.215,0,0,1-1.67,2.043l.146-.146-.146.146a.915.915,0,0,0-.308.519.8.8,0,0,0,.146.6.882.882,0,0,0,.535.324.783.783,0,0,0,.6-.146,11.681,11.681,0,0,0,1.475-1.621,10.468,10.468,0,0,0,1.119-1.881,10.136,10.136,0,0,0,.584-1.8,8.866,8.866,0,0,0,.211-1.962,9.739,9.739,0,0,0-.7-3.6,10.859,10.859,0,0,0-2.01-3.242,9.881,9.881,0,0,0-6.42-3.356c-.227-.016-.454-.032-.681-.032a9.232,9.232,0,0,0-3.048.567m10.181,5.658c.016.016.016.032.032.049-.016-.016-.016-.032-.032-.049" transform="translate(66.619 139.184)"></path><path id="Path_1220" data-name="Path 1220" class="cls-7" d="M96.8,212.132a6.123,6.123,0,0,0-1.7,1.589,4.042,4.042,0,0,0-.551,3.6,3.967,3.967,0,0,0,.957,1.6A4.856,4.856,0,0,0,96.979,220a4.5,4.5,0,0,0,1.962.373,3.938,3.938,0,0,0,.973-.162,4.594,4.594,0,0,0,.924-.373,6.6,6.6,0,0,0,2.01-1.719.818.818,0,0,0-.13-1.135.8.8,0,0,0-1.119.146c-.162.195-.324.373-.5.551a5.525,5.525,0,0,1-.924.7,4.736,4.736,0,0,1-.794.308,4.654,4.654,0,0,1-.665.081,4.81,4.81,0,0,1-.7-.1,4.3,4.3,0,0,1-.681-.292,3.631,3.631,0,0,1-.616-.5,6.048,6.048,0,0,1-.454-.616,4.331,4.331,0,0,1-.227-.584,3.609,3.609,0,0,1-.081-.584,4.375,4.375,0,0,1,.1-.665,4.659,4.659,0,0,1,.292-.648,4.407,4.407,0,0,1,.551-.681,9.026,9.026,0,0,1,.875-.681.817.817,0,0,0,.162-1.119.791.791,0,0,0-.632-.324,1.025,1.025,0,0,0-.5.162m.405,6.209c.016,0,.032.016.049.032-.016-.016-.032-.032-.049-.032" transform="translate(58.61 131.68)"></path><path id="Path_1221" data-name="Path 1221" class="cls-9" d="M95.519,220.01a.949.949,0,0,0-.357.081.592.592,0,0,0-.243-.049.862.862,0,0,0-.632.292A130.757,130.757,0,0,1,83.165,233.9c-3.875,4.231-8.041,8.349-12.354,12.24a.858.858,0,0,0-.211.632.935.935,0,0,0,.227.519,1.07,1.07,0,0,0,.081.243,13.965,13.965,0,0,0,1.005,1.589c.535.778,1.119,1.524,1.718,2.253,1.394,1.7,3.015,3.486,4.8,5.3a66.735,66.735,0,0,0,6,5.366,29.121,29.121,0,0,0,6.112,3.859,10.719,10.719,0,0,0,4.3,1.086,6.083,6.083,0,0,0,1.654-.227,4.906,4.906,0,0,0,2.335-1.508,7.646,7.646,0,0,0,1.508-2.821,18.551,18.551,0,0,0,4.3,1.767,10.74,10.74,0,0,0,2.691.373,8.68,8.68,0,0,0,1.281-.1,5.506,5.506,0,0,0,3.194-1.719,4.607,4.607,0,0,0,.875-1.459,3.438,3.438,0,0,0,.146-1.686,4.906,4.906,0,0,0-.5-1.492,8.429,8.429,0,0,0-1.086-1.605l-.373-.438a12.584,12.584,0,0,0,2.918.762,13.748,13.748,0,0,0,1.978.162,6.271,6.271,0,0,0,4.572-1.589,5.736,5.736,0,0,0,1.524-3.307,6.173,6.173,0,0,0,.081-.957,6.533,6.533,0,0,0-.049-.794,6.994,6.994,0,0,0-.567-1.881,8.586,8.586,0,0,0-1.151-1.832,15.731,15.731,0,0,0-1.718-1.864,35.937,35.937,0,0,0-4.523-3.5c-1.07-.746-2.172-1.443-3.291-2.14l-.276-.162-.405-.259-.94-.6-.162-.113c-.665-.422-1.313-.843-1.962-1.265a2.858,2.858,0,0,0,.989.113c.551,0,1.119-.016,1.67-.049a18.372,18.372,0,0,0,3.842-.681,16.714,16.714,0,0,0,1.718-.616,11.282,11.282,0,0,0,1.637-.892,6.4,6.4,0,0,0,2.2-2.367,4.928,4.928,0,0,0,.422-3.113,6.712,6.712,0,0,0-.6-1.735,7.074,7.074,0,0,0-.519-.892,9.324,9.324,0,0,0-.746-1.038,7.186,7.186,0,0,0-3.421-2.14,16.684,16.684,0,0,0-3.21-.665c-1.248-.146-2.545-.211-3.761-.243l-.843-.032a39.847,39.847,0,0,1-6.469-.6,12.45,12.45,0,0,1-2.821-.973,7,7,0,0,1-1.021-.681.7.7,0,0,0-.438-.13" transform="translate(43.857 136.675)"></path><path id="Path_1222" data-name="Path 1222" class="cls-15" d="M89.976,229.307c.211.1.438.211.648.308q2.262.827,4.572,1.508a22.129,22.129,0,0,0,2.318-.049,18.272,18.272,0,0,0,2.108-.276c-.5.016-1.005,0-1.508-.032a30.454,30.454,0,0,1-4.507-.632c-1.216-.259-2.432-.584-3.648-.924.032.016.032.065.016.1" transform="translate(55.885 142.39)"></path><path id="Path_1223" data-name="Path 1223" class="cls-15" d="M88.02,245.787c.486.227.973.47,1.459.713v-.016q-.681-.438-1.362-.924c-.032.081-.065.146-.1.227" transform="translate(54.68 152.547)"></path><path id="Path_1224" data-name="Path 1224" class="cls-10" d="M90.47,229.577c1.265.47,2.545.892,3.842,1.281-.405-.276-.811-.567-1.216-.859-.875-.195-1.751-.421-2.61-.648a1,1,0,0,0-.016.227" transform="translate(56.202 142.477)"></path><path id="Path_1225" data-name="Path 1225" class="cls-15" d="M88.113,237.333c-.032.049-.081.1-.113.146.5.535,1.005,1.07,1.524,1.605.032.032.049.065.081.081.7.6,1.41,1.183,2.156,1.735a43.547,43.547,0,0,0,3.988,2.643h0c.016,0,.032.016.049.016l-.016-.016c.016,0,.016.016.032.032h0c.875.5,1.751.973,2.659,1.427.632.227,1.265.454,1.9.616-.211-.113-.422-.227-.648-.34-1.459-.794-2.9-1.654-4.28-2.578a32.264,32.264,0,0,1-6.566-5.577.958.958,0,0,0-.227-.032.943.943,0,0,0-.535.243" transform="translate(54.667 147.285)"></path><path id="Path_1226" data-name="Path 1226" class="cls-15" d="M89,238.381a.224.224,0,0,1-.049-.065.016.016,0,0,1-.016-.016Z" transform="translate(55.251 148.037)"></path><path id="Path_1227" data-name="Path 1227" class="cls-15" d="M92.79,241.06h0" transform="translate(57.643 149.751)"></path><path id="Path_1228" data-name="Path 1228" class="cls-15" d="M92.852,241.1h0c0-.016-.016-.016-.032-.016.016,0,.016.016.032.016" transform="translate(57.662 149.764)"></path><path id="Path_1229" data-name="Path 1229" class="cls-10" d="M89.013,237.366a.772.772,0,0,0-.551.227.5.5,0,0,0-.162.243c.357.373.73.746,1.1,1.135.713.616,1.443,1.216,2.189,1.767a47.184,47.184,0,0,0,3.988,2.643H95.6c.016,0,.032.016.049.016h0c.016,0,.032,0,.032.016h0c.973.551,1.962,1.086,2.967,1.573.405.13.827.276,1.248.421a3.112,3.112,0,0,0-.227-.243c-.032-.016-.049-.032-.081-.049-1.459-.794-2.9-1.654-4.28-2.578a34.8,34.8,0,0,1-6.242-5.188h-.049Z" transform="translate(54.854 147.447)"></path><path id="Path_1230" data-name="Path 1230" class="cls-15" d="M89.011,238.381h0l-.081-.081Z" transform="translate(55.245 148.037)"></path><path id="Path_1231" data-name="Path 1231" class="cls-15" d="M92.79,241.06h0" transform="translate(57.643 149.751)"></path><path id="Path_1232" data-name="Path 1232" class="cls-15" d="M92.852,241.1h0c0-.016-.016-.016-.032-.016.016,0,.016.016.032.016" transform="translate(57.662 149.764)"></path><path id="Path_1233" data-name="Path 1233" class="cls-10" d="M82.993,240.859a.788.788,0,0,0-.243.551.88.88,0,0,0,.227.584c.405.486.794.956,1.248,1.41.405.405.843.794,1.281,1.167,1.07.924,2.2,1.783,3.356,2.594.843.584,1.718,1.151,2.626,1.654.47.227.94.47,1.41.713-.957-.616-1.9-1.265-2.788-1.962a55.583,55.583,0,0,1-7.085-6.728c0-.016-.016,0-.032.016" transform="translate(51.406 149.612)"></path><path id="Path_1234" data-name="Path 1234" class="cls-15" d="M85.159,242.449h0l-.049-.049.049.049" transform="translate(52.872 150.584)"></path><path id="Path_1235" data-name="Path 1235" class="cls-15" d="M94.092,247.112c-.016-.016-.032-.016-.032-.032.016.016.016.032.032.032" transform="translate(58.432 153.491)"></path><path id="Path_1236" data-name="Path 1236" class="cls-16" d="M62.117,182.55h-.276c-3.6.049-7.441,1.3-11.754,3.794a85.636,85.636,0,0,0-9.873,7.036l-.405.324-.73.584a.737.737,0,0,0-.227.811,29.634,29.634,0,0,0-1.2,11.786,40.161,40.161,0,0,0,3.08,11.884,67.562,67.562,0,0,0,6.08,11.268,117.171,117.171,0,0,0,7.668,10.343c2.416,2.967,4.9,5.8,7.214,8.414,3.161,3.567,6.112,6.728,9.03,9.662A137.7,137.7,0,0,0,90.8,275.543a.845.845,0,0,0,.47.146.871.871,0,0,0,.454-.13h.016a.637.637,0,0,0,.227-.049,41.8,41.8,0,0,0,9.144-5.609,61.18,61.18,0,0,0,8.511-8.2,59.681,59.681,0,0,0,6.793-9.646,37.826,37.826,0,0,0,3.988-9.841.836.836,0,0,0,.032-.178.879.879,0,0,0-.211-.6c-1.232-1.686-2.562-3.34-3.859-4.945l-.859-1.07-2.416-3.015-2.416-3.015q-4.864-6.031-9.792-12.013c-3.388-4.085-6.744-8.074-9.987-11.851-3.242-3.761-6.55-7.506-9.646-10.976a56.738,56.738,0,0,0-8.576-8.236,22.043,22.043,0,0,0-5.074-2.8,15.771,15.771,0,0,0-5.48-.956" transform="translate(23.305 113.404)"></path><path id="Path_1237" data-name="Path 1237" class="cls-17" d="M61.852,182.542c-3.6.049-7.441,1.3-11.77,3.794a86.7,86.7,0,0,0-9.776,6.955l-.5.389-.73.567a.825.825,0,0,0-.243.843,29.861,29.861,0,0,0-1.183,5.723,32.841,32.841,0,0,0-.016,6.063,40.632,40.632,0,0,0,3.08,11.9,67.113,67.113,0,0,0,6.1,11.267,117.163,117.163,0,0,0,7.668,10.343c2.48,3.032,4.929,5.836,7.214,8.414,3.08,3.469,6.031,6.631,9.03,9.679A137.383,137.383,0,0,0,90.79,275.568a.858.858,0,0,0,.486.146.93.93,0,0,0,.47-.13h.016a.572.572,0,0,0,.227-.049,40.415,40.415,0,0,0,8.528-5.139c-1.151-.859-2.3-1.735-3.421-2.626a114.543,114.543,0,0,1-19.73-20.087,106.511,106.511,0,0,1-7.393-10.976,89.272,89.272,0,0,1-5.934-12.046A64.974,64.974,0,0,1,60.3,211.724a48.677,48.677,0,0,1-.6-13.018,43.979,43.979,0,0,1,.924-5.609,29.586,29.586,0,0,1,1.573-4.977,19.087,19.087,0,0,1,2.172-3.891,5.5,5.5,0,0,1,.438-.632c.195-.259.389-.5.6-.746a15.475,15.475,0,0,0-3.275-.34h-.276Z" transform="translate(23.295 113.379)"></path><path id="Path_1238" data-name="Path 1238" class="cls-18" d="M56.234,184.107a61.185,61.185,0,0,1,6.258,4.945,98.188,98.188,0,0,1,7.036,6.955c2.075,2.075,4.085,4.2,6.1,6.355l.486.535c2.172,2.059,4.231,4.215,6.258,6.4.778.778,1.54,1.573,2.3,2.383.713.762,1.394,1.524,2.091,2.3l.227.227c.762.762,1.524,1.54,2.27,2.318a.353.353,0,0,1,.081.065l.162.195c1.167,1.216,2.335,2.448,3.5,3.68-.875-1.054-1.735-2.108-2.61-3.178-3.291-3.956-6.647-7.944-9.987-11.851-3.291-3.794-6.582-7.522-9.646-10.976a58.3,58.3,0,0,0-8.576-8.236,21.926,21.926,0,0,0-5.091-2.8,15.352,15.352,0,0,0-2.724-.746c.632.47,1.248.94,1.864,1.427" transform="translate(33.776 113.485)"></path><path id="Path_1239" data-name="Path 1239" class="cls-19" d="M93.577,34.02a.851.851,0,0,0-.73.422.946.946,0,0,0-.1.422,33.062,33.062,0,0,0-8.722,4.75,37.1,37.1,0,0,0-4.118,3.664,35.459,35.459,0,0,0-3.5,4.264,41.218,41.218,0,0,0-7.393,20.622,51.052,51.052,0,0,0-.065,5.869c.081,2.172.243,4.475.47,6.825.422,4.361,1.086,8.868,2.043,13.8a184.509,184.509,0,0,0,7.717,27.561c1.524,4.248,3.275,8.674,5.2,13.132.908,2.091,1.848,4.167,2.8,6.225.762,1.621,1.524,3.226,2.335,4.815.7,1.394,1.508,2.837,2.594,4.718,1.281,2.2,2.643,4.377,4.037,6.452a78.569,78.569,0,0,0,4.961,6.679,34.859,34.859,0,0,0,5.318,5.318,17.167,17.167,0,0,0,2.707,1.735,8.515,8.515,0,0,0,2.643.859,7.954,7.954,0,0,0,.875.065,5.838,5.838,0,0,0,1.767-.276,6.223,6.223,0,0,0,2.367-1.508,9.071,9.071,0,0,0,1.005-1.2,10.956,10.956,0,0,0,1.021-1.767,15.79,15.79,0,0,0,1.265-4.248A33.355,33.355,0,0,0,119.97,153c-.908-6.631-2.886-13.148-4.815-19.455l-.276-.924c-.778-2.545-1.508-5.123-2.253-7.685l-.5-1.783c-1.329-4.6-2.318-8.139-3.21-11.478-2.383-8.884-4.053-16.277-5.237-23.281-.859-5.2-1.475-10.295-1.8-15.142-.113-1.686-.162-3.1-.146-4.426.016-1.346.065-2.691.113-4.021l.032-.794c.227-5.966.454-12.143-.7-18.093a22.861,22.861,0,0,0-2.4-6.89,13.9,13.9,0,0,0-2.027-2.74,10.663,10.663,0,0,0-2.059-1.7c-.308-.195-.519-.324-.746-.454a.631.631,0,0,0-.373-.113" transform="translate(42.8 21.134)"></path><path id="Path_1240" data-name="Path 1240" class="cls-19" d="M92.842,86.87a.821.821,0,0,0-.778.827c.016.34.049.681.065,1.005a.748.748,0,0,0-.1.405c.113.794.259,1.573.405,2.367.195,1.346.422,2.691.73,4,.276,1.232.616,2.448,1.005,3.648a.689.689,0,0,1,.032.178.5.5,0,0,0,.1.211c.113.324.227.665.357.989.13.681.276,1.346.422,2.01a.789.789,0,0,0,.649.551c.016.049.049.1.065.146a.778.778,0,0,0,.486.357.805.805,0,0,0,.973-.584.827.827,0,0,0-.1-.616,1.637,1.637,0,0,1-.113-.243c.032.065.049.13.081.195q-.34-.754-.632-1.508c-.195-1.378-.47-2.756-.794-4.118a42.871,42.871,0,0,1-.292-5.4.81.81,0,0,0-.827-.778c-.065,0-.113.016-.178.016-.227-1.038-.486-2.075-.762-3.1a.783.783,0,0,0-.762-.567h-.032" transform="translate(57.17 53.965)"></path><path id="Path_1241" data-name="Path 1241" class="cls-19" d="M93.129,87.442a.81.81,0,0,0-.778.827c.584,7.458,2.853,14.672,5.561,21.611a.8.8,0,0,0,1.524-.486A86.374,86.374,0,0,1,94.442,92.42v.049c-.227-1.427-.405-2.837-.519-4.28a.815.815,0,0,0-.794-.778c.016.032,0,.032,0,.032" transform="translate(57.369 54.301)"></path><path id="Path_1242" data-name="Path 1242" class="cls-19" d="M174.941,53.12h-.049a26.915,26.915,0,0,0-5.934.892,15.448,15.448,0,0,0-5.139,2.562.668.668,0,0,0-.195-.016.959.959,0,0,0-.6.292.726.726,0,0,0-.195.551c.892,10.343,1.346,20.881,1.767,31.079l.016.422c.211,5.01.422,10.181.713,15.272a47.531,47.531,0,0,0,1.07,8.576,14.275,14.275,0,0,0,.519,1.686,6.822,6.822,0,0,0,.762,1.459,3.409,3.409,0,0,0,.989.94,2.336,2.336,0,0,0,1.183.308,3.246,3.246,0,0,0,1.524-.486,3.786,3.786,0,0,0,.7-.535,7.958,7.958,0,0,0,.827-.827,17.054,17.054,0,0,0,1.605-2.172,22.821,22.821,0,0,0,1.3-2.253,33.362,33.362,0,0,0,2.983-9.517,63.544,63.544,0,0,0,.843-11.024A155.884,155.884,0,0,0,178.2,71.051c-.308-2.5-.648-4.977-.973-7.474L177,61.923c-.324-2.4-.681-5.188-.94-7.976a.846.846,0,0,0-.827-.794,1.787,1.787,0,0,0-.292-.032" transform="translate(101.152 32.999)"></path><path id="Path_1243" data-name="Path 1243" class="cls-20" d="M78.035,69.377a57.109,57.109,0,0,0,.454,6c0-.032-.016-.081-.016-.113a49.728,49.728,0,0,0,1.362,6.712,51.911,51.911,0,0,0,2.124,6.144h0c.276.632.551,1.265.859,1.9-.162-2.87-.438-5.739-.811-8.576v.049c-.438-3.161-.989-6.323-1.735-9.419A66.877,66.877,0,0,0,78.148,65c-.113,1.459-.146,2.918-.113,4.377M81.99,81.472v0m-.032,6.679a.016.016,0,0,0,.016.016.016.016,0,0,1-.016-.016" transform="translate(48.469 40.379)"></path><path id="Path_1244" data-name="Path 1244" class="cls-20" d="M80.044,43.648a26.615,26.615,0,0,0-2.156,3.226,31.937,31.937,0,0,0-1.767,3.583h0a38.779,38.779,0,0,0-1.767,5.334,49.925,49.925,0,0,0-1.07,5.545c0-.032.016-.065.016-.113a67.636,67.636,0,0,0,.178,17.639v-.049a86.428,86.428,0,0,0,2.14,10.716c.357,1.329.746,2.643,1.167,3.956a78.9,78.9,0,0,1-1.492-12.791,94.1,94.1,0,0,1,.551-13.845,107.352,107.352,0,0,1,5.9-25.178c-.6.632-1.167,1.3-1.7,1.978M76.153,50.36l-.016.032Z" transform="translate(45.228 25.886)"></path><path id="Path_1245" data-name="Path 1245" class="cls-20" d="M74.84,47.09h0" transform="translate(46.492 29.253)"></path><path id="Path_1246" data-name="Path 1246" class="cls-20" d="M171.132,79.1a98.523,98.523,0,0,1-.162,10.262c-.195,2.837-.486,5.642-.892,8.463q.292-.584.535-1.167l-.049.1a32.152,32.152,0,0,0,2.124-7.944v.016a49.3,49.3,0,0,0-.081-13.018v.016a51.338,51.338,0,0,0-3.437-12.889l.032.1c-.081-.195-.162-.389-.243-.567A88.376,88.376,0,0,1,171.132,79.1m1.573,9.614a.122.122,0,0,1-.016.081.71.71,0,0,0,.016-.081" transform="translate(104.961 38.808)"></path><path id="Path_1247" data-name="Path 1247" class="cls-3" d="M178.8,37c-3.972,0-8.22.227-13,.7-4.977.486-10.408,1.248-17.1,2.383-2.513.422-5.01.875-7.506,1.329-2.318.422-4.637.811-6.955,1.216a100.427,100.427,0,0,0-19.828,5.2c-6.76,2.643-11.819,5.917-15.466,10.019A25.652,25.652,0,0,0,96.28,61.4a25.123,25.123,0,0,0-2.027,4.021,27.851,27.851,0,0,0-1.848,9.6,39.068,39.068,0,0,0,.324,5.755c.292,2.237.681,4.556,1.232,7.069,1.005,4.653,2.367,9.257,3.794,13.975l.47,1.556c1.637,5.366,3.324,10.911,4.458,16.5a25.148,25.148,0,0,0-3.129-4.345,17.817,17.817,0,0,0-4.215-3.486,11.764,11.764,0,0,0-2.318-1.038,10.345,10.345,0,0,0-2.61-.519q-.608-.049-1.216-.049a12.669,12.669,0,0,0-4.475.794,11.856,11.856,0,0,0-4.345,2.983,17.767,17.767,0,0,0-4.183,10.246,25.693,25.693,0,0,0,.081,6,27.2,27.2,0,0,0,1.475,6.015,21.959,21.959,0,0,0,2.886,5.35,17.945,17.945,0,0,0,4.312,4.2,15.523,15.523,0,0,0,5.609,2.351,16.565,16.565,0,0,0,3.388.34,21.663,21.663,0,0,0,3.6-.324,24.842,24.842,0,0,0,3.583-.924,32.3,32.3,0,0,0,.811,5.415,51.654,51.654,0,0,0,2.091,6.793,46.343,46.343,0,0,0,2.432,5.528,39.28,39.28,0,0,0,3,4.766,38.542,38.542,0,0,0,7.522,7.636,47.855,47.855,0,0,0,9.192,5.48,78,78,0,0,0,21.4,5.869c3.469.5,6.89.843,10.2,1.021,1.962.1,3.988.146,5.982.146,1.508,0,3-.032,4.507-.081,3.7-.13,7.425-.454,11.122-.957a99.185,99.185,0,0,0,11.105-2.14,69.106,69.106,0,0,0,10.424-3.534,47.6,47.6,0,0,0,9.111-5.091,39.264,39.264,0,0,0,3.875-3.178,28.848,28.848,0,0,0,3.615-4.134,32.2,32.2,0,0,0,4.718-10.279,57.884,57.884,0,0,0,1.783-11.543c.259-3.988.243-7.993.211-11.738l-.016-1.119c-.016-1.492-.032-2.983-.032-4.491,0-2.529-.016-5.074-.065-7.6-.1-4.8-.308-9.954-.632-15.758-.389-6.842-.908-13.78-1.41-20.492-.276-3.648-.551-7.279-.794-10.927-.276-3.842-.519-7.668-.713-11.511a1.3,1.3,0,0,0,.065-.292,15.77,15.77,0,0,0,0-1.751c-.032-.551-.113-1.086-.195-1.637a22.4,22.4,0,0,0-.811-3.113,30.029,30.029,0,0,0-1.637-3.988,28.313,28.313,0,0,0-4.523-6.55,29.266,29.266,0,0,0-5.966-4.847,36.122,36.122,0,0,0-7.15-3.323,49.774,49.774,0,0,0-7.976-2.01,75.524,75.524,0,0,0-8.641-.924c-1.67-.081-3.34-.113-4.929-.113" transform="translate(47.247 22.985)"></path><path id="Path_1248" data-name="Path 1248" class="cls-4" d="M159.543,37.652c-4.993.5-10.424,1.265-17.12,2.383-2.5.422-4.993.875-7.49,1.329l-6.955,1.216A101.162,101.162,0,0,0,108.15,47.8c-6.76,2.626-11.819,5.917-15.483,10.019a24.575,24.575,0,0,0-2.659,3.567,25.1,25.1,0,0,0-2.027,4.021,28,28,0,0,0-1.848,9.6,39.183,39.183,0,0,0,.324,5.755c.292,2.221.681,4.539,1.232,7.085,1.021,4.685,2.367,9.273,3.81,13.975l.47,1.556.065.195c1.329,4.394,2.707,8.917,3.777,13.472.438.924.827,1.848,1.184,2.8.6,1.589,1.1,3.194,1.556,4.831a6.3,6.3,0,0,0,.762.146,4.776,4.776,0,0,0,.681.016c.146-.016.276-.032.438-.065a5.4,5.4,0,0,0,.827-.259.05.05,0,0,0,.032-.016c-.016,0-.032,0-.032.016a.05.05,0,0,0,.032-.016c.016,0,.016,0,.032-.016a.05.05,0,0,0-.032.016.057.057,0,0,1,.032-.016,6.634,6.634,0,0,0,1.005-.648.285.285,0,0,1-.081.065,8.51,8.51,0,0,0,1.362-1.492c0,.016-.016.032-.032.049l.032-.065a.016.016,0,0,1,.016-.016,15.83,15.83,0,0,0,1.67-3.307,31.848,31.848,0,0,0,1.718-7.766.276.276,0,0,1-.016.113,43.519,43.519,0,0,0,.065-6.971,65.948,65.948,0,0,0-.843-6.679v-.049h0v0c-.648-3.648-1.524-7.263-2.432-10.862-.875-3.518-1.783-7.036-2.513-10.587h0c-.016-.032-.049-.049-.065-.081a.412.412,0,0,1-.032-.308.383.383,0,0,1,.195-.227.349.349,0,0,1,.308-.032c.47.211.957.438,1.443.616.357.13.73.259,1.1.357a24.053,24.053,0,0,0,2.432.551c-.032,0-.065-.016-.113-.016a30.15,30.15,0,0,0,7.733.292h-.1a21.031,21.031,0,0,0,5.35-1.151h.032a12.6,12.6,0,0,0,2.659-1.394,7.442,7.442,0,0,0,2.513-2.9l-.016.032c.016-.016.016-.032.032-.065h0v-.016h0v-.016a9.017,9.017,0,0,0,.535-1.7c.016-.1.032-.211.049-.308a.387.387,0,0,1,.405-.373h.032a.449.449,0,0,1,.211-.049.432.432,0,0,1,.195.049c1.346.616,2.707,1.2,4.085,1.735a60.543,60.543,0,0,0,8.074,2.529,66.5,66.5,0,0,0,8.187,1.427.206.206,0,0,1-.1-.016,63.231,63.231,0,0,0,8.22.308,65.238,65.238,0,0,0,8.139-.794h-.049a65.419,65.419,0,0,0,7.847-1.8,69.03,69.03,0,0,0,7.749-2.8.4.4,0,0,1,.308.032c.032.016.049.032.081.049A.38.38,0,0,1,179,70.3a9.206,9.206,0,0,0,.762.827c.276.259.584.5.892.746h-.016a17.932,17.932,0,0,0,3.94,2.075,50.832,50.832,0,0,0,8.479,2.172l2.043.389c.616.113,1.232.227,1.832.34,1.394.243,2.8.438,4.215.584h-.113a39.228,39.228,0,0,0,10.035-.113h-.016a23.071,23.071,0,0,0,2.594-.567c.486-.146.973-.308,1.459-.5-.243-3.534-.47-7.069-.648-10.619a1.881,1.881,0,0,0,.065-.292,15.755,15.755,0,0,0,0-1.751c-.032-.551-.113-1.086-.195-1.637a18.419,18.419,0,0,0-.827-3.129,29.167,29.167,0,0,0-1.637-3.988,27.731,27.731,0,0,0-4.523-6.566,29.318,29.318,0,0,0-5.982-4.831,36.122,36.122,0,0,0-7.15-3.323,50.386,50.386,0,0,0-7.993-2.027,77.974,77.974,0,0,0-8.641-.924c-1.621-.081-3.291-.13-4.945-.13a110.029,110.029,0,0,0-13.083.616M125.238,70.077v0m-21.643,52.317Z" transform="translate(53.502 22.998)"></path><path id="Path_1249" data-name="Path 1249" class="cls-21" d="M98.5,74.43h0v0h0" transform="translate(61.19 46.237)"></path><path id="Path_1250" data-name="Path 1250" class="cls-21" d="M109.91,58.54Z" transform="translate(68.278 36.366)"></path><path id="Path_1251" data-name="Path 1251" class="cls-21" d="M106.71,61.2h0" transform="translate(66.29 38.019)"></path><path id="Path_1252" data-name="Path 1252" class="cls-21" d="M98.5,74.462h0v0Z" transform="translate(61.19 46.237)"></path><path id="Path_1253" data-name="Path 1253" class="cls-21" d="M96.916,89.676l-.016.016.016-.032v.016" transform="translate(60.196 55.699)"></path><path id="Path_1254" data-name="Path 1254" class="cls-21" d="M109.91,58.546h0v0" transform="translate(68.278 36.36)"></path><path id="Path_1255" data-name="Path 1255" class="cls-22" d="M88.54,89.847a10.5,10.5,0,0,0-2.821,3.745,11.791,11.791,0,0,0-.989,4.766,13.921,13.921,0,0,0,.243,2.448,10.556,10.556,0,0,0,.73,2.335,10.944,10.944,0,0,0,2.9,3.956.826.826,0,0,0,.567.243.786.786,0,0,0,.567-.243.812.812,0,0,0,0-1.135,10.683,10.683,0,0,1-1.394-1.443,10.354,10.354,0,0,1-1.216-2.091l.049.1c-.016-.032-.032-.081-.049-.113s-.016-.049-.032-.065c0,.016.016.032.016.049a11.3,11.3,0,0,1-.7-2.61,11.462,11.462,0,0,1,0-2.788c0,.049-.016.113-.016.162a1.116,1.116,0,0,1,.032-.211h0a11.307,11.307,0,0,1,.681-2.513,9.6,9.6,0,0,1,1.232-2.075A9.717,9.717,0,0,1,89.691,91a.8.8,0,0,0,0-1.135.826.826,0,0,0-.567-.243.88.88,0,0,0-.584.227M87.1,94.419c-.016.049-.049.113-.065.162a.678.678,0,0,1,.065-.162m-.713,5.155c.016.065.016.13.032.195a.815.815,0,0,1-.032-.195m.746,2.821a.016.016,0,0,0,.016.016l-.016-.049c-.016.016-.016.032,0,.032m-.713-5.464v0Z" transform="translate(52.636 55.674)"></path><path id="Path_1256" data-name="Path 1256" class="cls-22" d="M83.951,87.486a6.73,6.73,0,0,0-3.178,1.054.8.8,0,1,0,.794,1.378c.276-.162.535-.308.811-.438a5.235,5.235,0,0,1,2.74-.373,6.623,6.623,0,0,1,1.232.34,7.133,7.133,0,0,1,1.07.632,5.641,5.641,0,0,1,.762.762,5.4,5.4,0,0,1,.567.989,6.352,6.352,0,0,1,.373,1.475.8.8,0,0,0,.373.486.892.892,0,0,0,.616.081A.851.851,0,0,0,90.6,93.5a.9.9,0,0,0,.081-.616,6.136,6.136,0,0,0-3.6-4.864,6.492,6.492,0,0,0-2.643-.551,4.861,4.861,0,0,0-.486.016m-.308,1.637h0m4.572,1.767c.016.016.016.032.032.049,0-.016-.016-.032-.032-.049" transform="translate(49.93 54.338)"></path><path id="Path_1257" data-name="Path 1257" class="cls-7" d="M166.435,106.946l-1.524.049-48.069,1.556a7.812,7.812,0,0,0,.065,1.362h0c0,.032.016.081.016.113l.032-.065a10.757,10.757,0,0,0,.94,3.324l.146.324a11.807,11.807,0,0,0,1.427,2.4c.178.227.357.438.535.648a21.8,21.8,0,0,0,2.027,2.043l.584.486-.016-.032-.081-.081c.016.016.049.032.065.049l-.016-.065c.259.195.519.389.794.584a26.2,26.2,0,0,0,4.734,2.61,37.1,37.1,0,0,0,9.711,2.562l.178.032c.648.1,1.281.162,1.913.227,1.086.1,2.156.146,3.178.146a26.449,26.449,0,0,0,4.085-.292,29.687,29.687,0,0,0,7.247-1.962l.162-.1a27.68,27.68,0,0,0,5.82-3.324,21.809,21.809,0,0,0,3.745-3.68,18.163,18.163,0,0,0,2.172-3.713,16.782,16.782,0,0,0,1.038-3.729,11.989,11.989,0,0,0,.065-1.492Z" transform="translate(72.581 66.427)"></path><path id="Path_1258" data-name="Path 1258" class="cls-23" d="M133.776,115.235a4.667,4.667,0,0,0-.811.243,5.16,5.16,0,0,0-.713.389c-.567.032-1.119.081-1.686.13a21.644,21.644,0,0,0-4.523.973.617.617,0,0,0-.308.227.792.792,0,0,0-.957.486.817.817,0,0,0,.47,1.038,34.581,34.581,0,0,0,4.62,1.216,35.568,35.568,0,0,0,4.734.551,53.066,53.066,0,0,0,9.484-.47.8.8,0,0,0,.34-1.427,12.215,12.215,0,0,0-2.562-1.378,16.576,16.576,0,0,0-2.367-1.119.645.645,0,0,0-.357-.259,17.867,17.867,0,0,0-3.55-.7c-.162-.016-.324-.016-.486-.016a5.889,5.889,0,0,0-1.329.114" transform="translate(77.485 71.514)"></path><path id="Path_1259" data-name="Path 1259" class="cls-16" d="M163.312,106.25c-1.3,0-2.578.1-3.761.211-.892.081-1.8.178-2.691.276-.7.081-1.394.162-2.108.227-1.216.113-2.432.13-3.55.13h-2.043c-2.626.016-5.237.032-7.847.1-2.48.065-5.091.178-7.766.357-1.475.1-2.934.113-4.556.113h-2.059a50.455,50.455,0,0,0-6.744.357,21.608,21.608,0,0,0-3.145.648.778.778,0,0,0-.535.616.738.738,0,0,0,.259.762c.211.162.438.308.665.454a.808.808,0,0,0,.648.762l.405.049a.9.9,0,0,0,.551.422,72.886,72.886,0,0,0,12.289,2.9,62.819,62.819,0,0,0,8.787.6q1.775,0,3.55-.1a68.619,68.619,0,0,0,12.37-1.881c2.027-.486,4.069-1.086,6.08-1.751a15.5,15.5,0,0,0,4.929-2.464.77.77,0,0,0,.308-.389.387.387,0,0,0,.146.032.847.847,0,0,0,.616-.276.829.829,0,0,0,.211-.6.76.76,0,0,0-.276-.551,4.543,4.543,0,0,0-.665-.405,7.063,7.063,0,0,0-.827-.276,9.683,9.683,0,0,0-2.091-.292c-.373-.032-.762-.032-1.151-.032" transform="translate(72.365 66.005)"></path><path id="Path_1260" data-name="Path 1260" class="cls-16" d="M118.714,109.715a.791.791,0,0,0,.13.6.832.832,0,0,0,.5.34,72.158,72.158,0,0,0,18.855,2.951h1.086v.081a.755.755,0,0,0,.276.535.777.777,0,0,0,.584.195,46.363,46.363,0,0,0,7.8-.308,38.434,38.434,0,0,0,7.506-1.589.8.8,0,0,0,.535-.778c.422-.13.827-.276,1.232-.422a.8.8,0,0,0,.535-.811.811.811,0,0,0-.859-.746c-3.6.34-7.133,1.038-10.7,1.573-1.783.276-3.583.486-5.382.6a45.037,45.037,0,0,1-5.334-.032,72.818,72.818,0,0,1-15.823-2.821.689.689,0,0,0-.178-.032.863.863,0,0,0-.762.665m35.78,2.8h0" transform="translate(73.741 67.744)"></path><path id="Path_1261" data-name="Path 1261" class="cls-16" d="M167.615,107.509a38.669,38.669,0,0,1-6.842,3.453,53.581,53.581,0,0,1-13.683,3.129c.065,0,.13-.016.211-.016a62.261,62.261,0,0,1-16.374-.519c.032,0,.065.016.113.016a52.011,52.011,0,0,1-12.386-3.518c.016,0,.016.016.032.016-.016-.016-.049-.016-.065-.032a.326.326,0,0,1-.13-.065c.016,0,.032.016.049.016-.389-.178-.762-.373-1.135-.551a.816.816,0,0,0-.616-.1.778.778,0,0,0-.486.357.808.808,0,0,0,.259,1.1,40.713,40.713,0,0,0,6.615,2.626,66.026,66.026,0,0,0,7.036,1.637,62.929,62.929,0,0,0,12.208.924,59.932,59.932,0,0,0,12.6-1.573,44.5,44.5,0,0,0,11.527-4.377q.948-.535,1.848-1.119a.806.806,0,0,0,.324-1.086.888.888,0,0,0-.73-.422.522.522,0,0,0-.373.1m-48.993,2.529c.016,0,.016.016.032.016a.957.957,0,0,1-.13-.065Z" transform="translate(72.18 66.724)"></path><path id="Path_1262" data-name="Path 1262" class="cls-23" d="M129.877,115.292a20.607,20.607,0,0,0-5.593,2.4.788.788,0,0,0-.211,1.1.822.822,0,0,0,1.119.211c.438-.259.875-.5,1.329-.746a20.84,20.84,0,0,1,4.864-1.686h-.049a.1.1,0,0,0,.065-.016c.049-.016.1-.016.162-.032-.032,0-.065.016-.1.016a17.93,17.93,0,0,1,4.264-.292h.081a15.631,15.631,0,0,1,3.761.746,15.023,15.023,0,0,1,3.34,1.686c-.065-.032-.113-.081-.178-.113a16.507,16.507,0,0,1,2.367,2.01.78.78,0,0,0,1.119-.081.762.762,0,0,0,.195-.567.88.88,0,0,0-.259-.551,15.418,15.418,0,0,0-10.392-4.685c-.324-.016-.665-.032-.989-.032a19.977,19.977,0,0,0-4.9.632m1.508,1.281h0a.123.123,0,0,0,.065-.016.123.123,0,0,1-.065.016m4.394-.292h-.065c.016-.016.032-.016.065,0" transform="translate(76.991 71.229)"></path><path id="Path_1263" data-name="Path 1263" class="cls-22" d="M138.214,83.069a.808.808,0,0,0-.551.989c1.119,3.777,2.61,7.425,4,11.089.681,1.8,1.346,3.6,1.929,5.415a24.269,24.269,0,0,1,.989,4.021,8.4,8.4,0,0,1,.032,1.686,4.233,4.233,0,0,1-.227.892,3.939,3.939,0,0,1-.324.567,2.792,2.792,0,0,1-.438.438,5.839,5.839,0,0,1-.811.47,10.043,10.043,0,0,1-2.189.535.949.949,0,0,0,.211-.032,47.419,47.419,0,0,1-6.436.162.806.806,0,0,0-.794.794.8.8,0,0,0,.794.794c1.735.016,3.469.081,5.2-.032a13.517,13.517,0,0,0,3.437-.6,5.062,5.062,0,0,0,2.221-1.475,4.355,4.355,0,0,0,.665-1.2,4.975,4.975,0,0,0,.292-1.524,9.227,9.227,0,0,0-.065-1.637,17.14,17.14,0,0,0-.373-2.027c-.211-.859-.47-1.7-.746-2.529-.373-1.151-.778-2.286-1.2-3.437-1.573-4.264-3.372-8.43-4.653-12.791a.817.817,0,0,0-.778-.584.4.4,0,0,0-.195.016m6.339,21.335v.065c.016-.016,0-.049,0-.065m.032,1.962v0m-.162.681a.355.355,0,0,1-.049.081.089.089,0,0,0,.049-.081m-.292.584c-.016.016-.032.049-.049.065a.224.224,0,0,0,.049-.065" transform="translate(83.001 51.59)"></path><path id="Path_1264" data-name="Path 1264" class="cls-22" d="M168.524,105.91l-41.746,1.346c-3.34.1-6.663.211-10,.324a.818.818,0,0,0-.794.794.8.8,0,0,0,.794.794q24.318-.778,48.669-1.573l3.08-.1a.794.794,0,0,0,.016-1.589Z" transform="translate(72.049 65.793)"></path><path id="Path_1265" data-name="Path 1265" class="cls-22" d="M167.995,106.917a11.7,11.7,0,0,1-.032,1.994,16.916,16.916,0,0,1-1.038,3.745,18.613,18.613,0,0,1-2.189,3.713,21.668,21.668,0,0,1-3.68,3.632c.016,0,.016-.016.032-.032-.016.016-.049.032-.065.049-.032.032-.065.049-.1.081a.285.285,0,0,0,.081-.065,28.745,28.745,0,0,1-5.853,3.372.06.06,0,0,0,.049-.016c-.032.016-.081.032-.113.049-.016.016-.049.016-.081.032a.05.05,0,0,0,.032-.016,30.788,30.788,0,0,1-7.409,2.027,1.117,1.117,0,0,0,.211-.032,36.894,36.894,0,0,1-9.452-.1c.065.016.146.016.211.032a39.374,39.374,0,0,1-9.906-2.626c.032.016.081.032.113.049a26.114,26.114,0,0,1-5.658-3.242c.049.049.113.081.162.13a18.429,18.429,0,0,1-3.161-3.1c0,.016.016.016.016.032-.016-.016-.032-.049-.049-.065-.032-.032-.049-.065-.081-.1l.049.049a14.4,14.4,0,0,1-1.7-2.951c.032.065.049.13.081.195a14.69,14.69,0,0,1-.924-3.356c0,.081.016.146.016.211a15.486,15.486,0,0,1-.13-2.108.794.794,0,1,0-1.589,0,15.234,15.234,0,0,0,.584,4.28,15.03,15.03,0,0,0,1.718,3.7,19.319,19.319,0,0,0,6.031,5.707,32.448,32.448,0,0,0,8.187,3.518,42.694,42.694,0,0,0,8.819,1.492,32.816,32.816,0,0,0,7.458-.292,31.26,31.26,0,0,0,9.581-3.226,27.238,27.238,0,0,0,4.377-2.886,21.086,21.086,0,0,0,3.6-3.713,17.59,17.59,0,0,0,2.5-4.523,13.587,13.587,0,0,0,.94-5.674.806.806,0,0,0-.794-.794.844.844,0,0,0-.843.827m-.049,2.108v0m-1.038,3.648-.032.081a.275.275,0,0,1,.032-.081m-11.884,10.765c.016,0,.032-.016.049-.016.016-.016.049-.016.081-.032-.049.016-.081.032-.13.049m5.982-3.4a.016.016,0,0,0,.016-.016l.032-.016c-.016,0-.032.016-.049.032m-40.887-3.486c0,.016.016.016.032.032a.285.285,0,0,0-.065-.081c0,.032.016.032.032.049" transform="translate(71.962 65.905)"></path><path id="Path_1266" data-name="Path 1266" class="cls-7" d="M118.688,88.31a.831.831,0,0,0-.567.989c.195.827.357,1.654.486,2.5a.949.949,0,0,0-.032-.211,17.2,17.2,0,0,1,.065,4.183v-.016a10.424,10.424,0,0,1-.648,2.513,8.312,8.312,0,0,1-.957,1.637,6.864,6.864,0,0,1-.908.908,7.413,7.413,0,0,1-1.151.681,5.471,5.471,0,0,1-1.248.34,6.136,6.136,0,0,1-1.443,0,6.474,6.474,0,0,1-1.427-.405,6.555,6.555,0,0,1-1.329-.794,8.078,8.078,0,0,1-1.281-1.3,9.452,9.452,0,0,1-1.086-1.881.23.23,0,0,1,.032.1.326.326,0,0,0-.065-.13c0-.016-.016-.032-.032-.049,0,.016.016.016.016.032a12.264,12.264,0,0,1-.778-3.032,1.116,1.116,0,0,0,.032.211,16.889,16.889,0,0,1-.081-3.388.8.8,0,0,0-.794-.794.785.785,0,0,0-.794.794,14.493,14.493,0,0,0,1.459,7.83,9.214,9.214,0,0,0,1.929,2.464,8.325,8.325,0,0,0,2.48,1.524,6.728,6.728,0,0,0,5.253-.162,6.7,6.7,0,0,0,2.172-1.621,8.44,8.44,0,0,0,1.621-2.724,11.812,11.812,0,0,0,.73-4.167,20.77,20.77,0,0,0-.681-5.464.8.8,0,0,0-.778-.584.271.271,0,0,0-.195.016m-.049,7.49c0,.049-.016.1-.016.146a.449.449,0,0,0,.016-.146m-2.529,4.993a.812.812,0,0,0-.13.113c.049-.049.1-.081.13-.113m-3.81,1.021a.69.69,0,0,1,.178.032.838.838,0,0,0-.178-.032m1.329.016a.146.146,0,0,0-.081.016.146.146,0,0,1,.081-.016m-6.485-4.426.016.049c-.016-.016-.016-.049-.032-.065Z" transform="translate(65.013 54.843)"></path><path id="Path_1267" data-name="Path 1267" class="cls-7" d="M163.47,84.322a.925.925,0,0,0-.486.373.892.892,0,0,0-.081.616c.065.357.114.73.162,1.086a.82.82,0,0,0-.032-.211,18.3,18.3,0,0,1,.065,4.8,11.46,11.46,0,0,1-.648,2.432.057.057,0,0,1,.016-.032c-.016.016-.016.049-.032.065-.016.032-.032.081-.049.113.016-.032.016-.049.032-.081a7.655,7.655,0,0,1-.827,1.41,6.223,6.223,0,0,1-.924.924,4.716,4.716,0,0,1-.957.551,4.353,4.353,0,0,1-2.221.308,6.452,6.452,0,0,1-1.329-.357,7.026,7.026,0,0,1-1.216-.713,8.7,8.7,0,0,1-1.167-1.151c.016.032.032.049.049.081-.016-.032-.049-.065-.065-.1-.016-.016-.032-.049-.049-.065l.049.049a8.359,8.359,0,0,1-.94-1.654,10.05,10.05,0,0,1-.648-2.464,14.46,14.46,0,0,1,.049-3.242c.049-.276.081-.567.146-.843a.821.821,0,0,0-.551-.989.8.8,0,0,0-.989.567,13.034,13.034,0,0,0,.486,7.506,8.336,8.336,0,0,0,3.777,4.28,6.023,6.023,0,0,0,7.247-1.1,8.3,8.3,0,0,0,1.654-2.61,12.514,12.514,0,0,0,.811-3.859,21.834,21.834,0,0,0-.357-5.139.79.79,0,0,0-.794-.584.835.835,0,0,0-.178.032M152.2,90.434v0m10.943.373a.206.206,0,0,1-.016.1.206.206,0,0,1,.016-.1m-1.524,4.1c-.016.016-.032.049-.049.065a.087.087,0,0,1,.049-.065m-.859.875c-.016.016-.032.016-.049.032.016-.016.032-.016.049-.032m-6.971-1.346.016.016a.016.016,0,0,1-.016-.016h0m8.657-.957a.057.057,0,0,1,.016-.032l.016-.032a.123.123,0,0,0-.032.065" transform="translate(93.494 52.363)"></path><path id="Path_1268" data-name="Path 1268" class="cls-19" d="M117.82,67.5c-.551,0-1.1.032-1.654.081a19.408,19.408,0,0,0-3.34.648,24.637,24.637,0,0,0-6.29,2.74,17.992,17.992,0,0,0-3.113,2.351,11.809,11.809,0,0,0-1.232,1.313,12.014,12.014,0,0,0-.989,1.459,5.657,5.657,0,0,0-.762,2.918,4.105,4.105,0,0,0,.259,1.378,3.894,3.894,0,0,0,.373.73,7.55,7.55,0,0,0,1.832,2.027.735.735,0,0,0,.486.162.829.829,0,0,0,.665-.324.617.617,0,0,0,.13-.276c.162-.195.34-.373.519-.567a22.392,22.392,0,0,1,4.1-3.161,25.973,25.973,0,0,1,6.225-2.675,20.321,20.321,0,0,1,4.815-.7,14.082,14.082,0,0,1,3.307.422,10.216,10.216,0,0,1,2.2.924.594.594,0,0,0,.292.065.608.608,0,0,0,.178.016.846.846,0,0,0,.665-.324.938.938,0,0,0,.162-.6A9.191,9.191,0,0,0,124.532,70a7.245,7.245,0,0,0-2.351-1.67,9.5,9.5,0,0,0-2.837-.762c-.5-.032-1.005-.065-1.524-.065" transform="translate(62.394 41.932)"></path><path id="Path_1269" data-name="Path 1269" class="cls-19" d="M154.605,64.741c.486-.081.989-.146,1.475-.178a15.485,15.485,0,0,1,3.064.113,20.682,20.682,0,0,1,5.982,1.718,16.081,16.081,0,0,1,3.1,1.832,11.783,11.783,0,0,1,1.281,1.1,8.812,8.812,0,0,1,1.086,1.281,6.137,6.137,0,0,1,1.1,2.772,5.225,5.225,0,0,1-.032,1.41,3.193,3.193,0,0,1-.227.778c-.113.292-.243.567-.373.843a8.127,8.127,0,0,1-.957,1.427.707.707,0,0,1-.405.243.672.672,0,0,1-.632-.211.641.641,0,0,1-.162-.243c-.178-.162-.357-.324-.551-.47a19.183,19.183,0,0,0-4.1-2.48,21.251,21.251,0,0,0-5.917-1.654,16.528,16.528,0,0,0-4.394.065,11.468,11.468,0,0,0-2.87.94,8.385,8.385,0,0,0-1.832,1.265.475.475,0,0,1-.259.113l-.146.049a.733.733,0,0,1-.632-.211.9.9,0,0,1-.227-.567A10.085,10.085,0,0,1,149,68.307a7.528,7.528,0,0,1,1.848-2.027,8.4,8.4,0,0,1,2.416-1.2,9.616,9.616,0,0,1,1.346-.34" transform="translate(91.853 40.088)"></path><path id="Path_1270" data-name="Path 1270" class="cls-19" d="M169.784,8.85a45.846,45.846,0,0,0-5.156.324,76.463,76.463,0,0,0-17.574,4.345,104.466,104.466,0,0,0-23.183,11.916,106.723,106.723,0,0,0-10.959,8.528c-1.621,1.443-3.242,2.967-4.945,4.669-.794.794-1.589,1.605-2.351,2.448-.243.276-.5.535-.746.811.113-1.767.13-3.388.1-4.929a31.891,31.891,0,0,0-.389-4.442,18.021,18.021,0,0,0-1.1-4.037,8.793,8.793,0,0,0-.875-1.605,6.739,6.739,0,0,0-1.232-1.378,5.413,5.413,0,0,0-3.242-1.248c-.113,0-.243-.016-.357-.016a4.535,4.535,0,0,0-2.691.843,4.633,4.633,0,0,0-1.021,1.005,7.105,7.105,0,0,0-.843,1.427,10.723,10.723,0,0,0-.616,1.783,18.145,18.145,0,0,0-.405,2.075,27.535,27.535,0,0,0-.211,4.361c.016,1.492.1,2.918.243,4.264l-.195-.259-.211-.243a31.733,31.733,0,0,0-3.242-3.015,18.841,18.841,0,0,0-3.745-2.351,7.789,7.789,0,0,0-3.21-.762c-.162,0-.34,0-.5.016a4.277,4.277,0,0,0-1.589.486,4.991,4.991,0,0,0-1.492,1.3,5.2,5.2,0,0,0-.875,1.686,5.994,5.994,0,0,0-.211,2.027,7.057,7.057,0,0,0,.405,1.881,9.816,9.816,0,0,0,.94,1.994,20.87,20.87,0,0,0,2.886,3.761,37.558,37.558,0,0,0,3.923,3.583,31.848,31.848,0,0,0,3.307,2.351,29.33,29.33,0,0,1-1.086,7.474c-.178.713-.373,1.427-.567,2.14L86.4,63.42c-.34,1.281-.632,2.562-.924,3.859a120.9,120.9,0,0,0-2.643,15.256,62.886,62.886,0,0,0-.259,7.62,55.786,55.786,0,0,0,.73,7.425,76.594,76.594,0,0,0,3.55,13.1c.762,2.189,1.573,4.345,2.4,6.5,1.038,2.756,2.108,5.593,3.048,8.43-.016.049-.032.1-.049.162a.922.922,0,0,0,.146.616l.146.259c.405.73.794,1.475,1.167,2.221l.243.47c.616,1.2,1.216,2.383,1.864,3.567a50.714,50.714,0,0,0,4.491,7.214,13.066,13.066,0,0,0,2.367,2.432,6.084,6.084,0,0,0,1.167.681,3.4,3.4,0,0,0,1.362.259h0a2.465,2.465,0,0,0,1.1-.276,3.778,3.778,0,0,0,1.184-.973,8.073,8.073,0,0,0,1.459-2.983,16.329,16.329,0,0,0,.567-3.875,37.227,37.227,0,0,0-.081-4.6,83.028,83.028,0,0,0-1.362-9.614c-.357-1.864-.762-3.713-1.151-5.561l-.438-2.01c-.292-1.329-.535-2.691-.778-4.037l-.308-1.7c-.243-1.362-.486-2.707-.73-4.053a84.677,84.677,0,0,0-2.562-10.424,33.257,33.257,0,0,0-2.87-6.55,35.121,35.121,0,0,0,6.5,2.756,25.039,25.039,0,0,0,7.441,1.265,16.114,16.114,0,0,0,3.6-.389,10.765,10.765,0,0,0,4.6-2.253,8,8,0,0,0,2.464-3.907,8.225,8.225,0,0,0-.081-4.556,9.781,9.781,0,0,0-1.086-2.383,121.625,121.625,0,0,0,26.037,7.2,77.223,77.223,0,0,0,11.057.811c1.183,0,2.367-.032,3.567-.081a64.074,64.074,0,0,0,14.672-2.5,62.493,62.493,0,0,0,6.225-2.2,40.029,40.029,0,0,0,4.1-1.994,5.434,5.434,0,0,0,0,1.621,6.293,6.293,0,0,0,1.313,2.918,9.728,9.728,0,0,0,2.594,2.237,20.347,20.347,0,0,0,3.469,1.67,36.4,36.4,0,0,0,3.923,1.167c1.183.292,2.432.535,3.842.746q1.7.268,3.356.389c.956.081,1.929.113,2.983.113h.486a40.094,40.094,0,0,0,11.073-1.816,36.715,36.715,0,0,0,10.262-4.977,27.232,27.232,0,0,0,7.652-8.025,18.781,18.781,0,0,0,2.156-4.993,18.484,18.484,0,0,0,.616-5.091,23.912,23.912,0,0,0-2.643-9.954,41.256,41.256,0,0,0-6.29-9.1,61.619,61.619,0,0,0-8.122-7.522c-1.329-1.021-2.74-2.01-4.183-2.934-1.67-1.07-3.437-2.027-4.928-2.837a97.215,97.215,0,0,0-18.3-7.458,94.784,94.784,0,0,0-9.419-2.221c-1.54-.276-3.113-.519-4.815-.73-1.2-.146-2.432-.276-3.648-.357a16.382,16.382,0,0,0,1.183-2.967,10.449,10.449,0,0,0,.34-1.751,7.276,7.276,0,0,0,0-1.686,5.8,5.8,0,0,0-.989-2.626,6.215,6.215,0,0,0-1.978-1.783,10.011,10.011,0,0,0-2.788-1.119A19.293,19.293,0,0,0,172.1,8.98a17.851,17.851,0,0,0-2.318-.13" transform="translate(47.8 5.498)"></path><path id="Path_1271" data-name="Path 1271" class="cls-19" d="M95.4,57.951a.823.823,0,0,0-.535,1.005c.195.794.438,1.589.681,2.383.438,1.524.875,3.032,1.3,4.556,1.248,4.442,2.448,8.9,3.55,13.375,1.167,4.734,2.2,9.484,3.032,14.283,0-.032-.016-.081-.016-.113.422,2.5.778,5.026.989,7.571a35.727,35.727,0,0,1,.049,6.177c0-.081.016-.146.016-.211a11.724,11.724,0,0,1-.6,2.886,6.125,6.125,0,0,1-.535,1.021,2.3,2.3,0,0,1-.389.405,1.841,1.841,0,0,1-.373.243,2.265,2.265,0,0,1-.47.146,2.752,2.752,0,0,1-.632.016,5.635,5.635,0,0,1-1.119-.276,7.51,7.51,0,0,1-1.492-.843,14.266,14.266,0,0,1-2.189-2.124,36.523,36.523,0,0,1-4.7-7.928.057.057,0,0,0,.016.032,110.684,110.684,0,0,1-5.674-15.92q-1.094-3.842-1.994-7.766-.73-3.137-1.265-6.323a.206.206,0,0,0,.016.1,29.862,29.862,0,0,1-.405-3.178.821.821,0,0,0-.827-.778.786.786,0,0,0-.762.827,48.779,48.779,0,0,0,.746,5.058c.454,2.448,1.005,4.88,1.605,7.3a133.952,133.952,0,0,0,5.4,17.266,67.228,67.228,0,0,0,3.6,7.749,25.654,25.654,0,0,0,4.069,5.69,8.453,8.453,0,0,0,4.458,2.626,4.2,4.2,0,0,0,1.848-.081,3.248,3.248,0,0,0,1.443-.875,4.5,4.5,0,0,0,.957-1.427,8.249,8.249,0,0,0,.616-1.978,18.043,18.043,0,0,0,.308-2.448c.065-.924.065-1.832.049-2.756a62.717,62.717,0,0,0-.551-6.517c-.324-2.5-.762-4.977-1.232-7.458-.989-5.107-2.189-10.165-3.5-15.191-1.038-4-2.156-7.993-3.291-11.965-.243-.859-.5-1.735-.746-2.594-.146-.486-.292-.989-.405-1.475a.8.8,0,0,0-.778-.567c-.113.049-.178.049-.259.081m-3.534,42.444a.485.485,0,0,0,.065.13.326.326,0,0,0-.065-.13m4.669,7.944c.016.016.032.049.049.065a.224.224,0,0,0-.049-.065m2.383,2.318a.224.224,0,0,0,.065.049c-.016-.016-.049-.032-.065-.049m4.507.081a.339.339,0,0,0-.065.1.207.207,0,0,1,.065-.1m-.794.746c-.016,0-.032.016-.049.016a.06.06,0,0,0,.049-.016m-1.362.195a.24.24,0,0,1,.113.016c-.032,0-.081-.016-.113-.016" transform="translate(50.361 35.95)"></path><path id="Path_1272" data-name="Path 1272" class="cls-19" d="M85.278,74.87a.81.81,0,0,0-.778.827,30.761,30.761,0,0,0,3.08,11.965,61.572,61.572,0,0,0,6.355,10.716.808.808,0,0,0,.908.34c.016,0,.032-.016.049-.016.535.6,1.1,1.167,1.686,1.718a.806.806,0,0,0,.973.1.794.794,0,0,0,.34-.908c-.324-.746-.681-1.475-1.038-2.2a21.382,21.382,0,0,0-1.427-2.335.831.831,0,0,0-.924-.34.706.706,0,0,0-.357.243c-1.038-2.3-2.108-4.572-3.161-6.858,0,.016.016.032.016.049-1.378-3-2.724-6.031-3.826-9.144a.838.838,0,0,0-.794-.567h-.049a22.823,22.823,0,0,1-.227-2.789.817.817,0,0,0-.811-.778h-.016ZM90.92,87.937a.954.954,0,0,1,.065.13.954.954,0,0,0-.065-.13" transform="translate(52.493 46.511)"></path><path id="Path_1273" data-name="Path 1273" class="cls-20" d="M89.423,75.6l-.016-.065a108.894,108.894,0,0,0,3.745,14.153c.811,2.4,1.7,4.783,2.691,7.117.632,1.508,1.3,3,1.994,4.491q-.705-4.28-1.54-8.56c0,.032.016.065.016.113a160.553,160.553,0,0,0-8.8-30.868c.438,4.572,1.054,9.127,1.913,13.618m0,0v.049c.016-.016,0-.016,0-.049" transform="translate(54.363 38.503)"></path><path id="Path_1274" data-name="Path 1274" class="cls-20" d="M118.413,41.735c2.821.7,5.658,1.313,8.511,1.8,2.756.47,5.512.843,8.3,1.1a.206.206,0,0,1-.1-.016,88.343,88.343,0,0,0,10.765.308,83.243,83.243,0,0,0,8.528-.73c-1.086-.113-2.156-.243-3.242-.373-2.059-.227-4.1-.486-6.144-.778-4.231-.567-8.447-1.232-12.662-1.9-8.414-1.313-16.844-2.643-25.323-3.421a.206.206,0,0,1,.1.016c-.957-.081-1.929-.162-2.886-.227,4.653,1.589,9.354,3.032,14.153,4.215" transform="translate(64.768 23.308)"></path><path id="Path_1275" data-name="Path 1275" class="cls-20" d="M149.193,23.489h.1a32.515,32.515,0,0,0-4.167.292q-1.556.219-3.064.584a38.458,38.458,0,0,1,5.285.389,46.79,46.79,0,0,1,7.62,1.751,56.809,56.809,0,0,1,11.446,5.172,70.949,70.949,0,0,1,10.538,7.555,78.515,78.515,0,0,1,14.607,16.634c-.551-1.7-1.151-3.372-1.8-5.042a53.989,53.989,0,0,0-3.21-6.7.162.162,0,0,0,.065.081,38.745,38.745,0,0,0-2.659-3.988,39.891,39.891,0,0,0-3.064-3.534,45.236,45.236,0,0,0-9.176-6.971l.1.049a48.778,48.778,0,0,0-5.836-2.886,49.9,49.9,0,0,0-6.209-2.091c.032,0,.065.016.113.016a44.342,44.342,0,0,0-5.415-1.054,38.682,38.682,0,0,0-4.929-.308,1.043,1.043,0,0,1-.34.049" transform="translate(88.251 14.561)"></path><path id="Path_1276" data-name="Path 1276" class="cls-20" d="M107.009,47.524c.032.016.049.032.081.032h.016a99.029,99.029,0,0,0,24.626,7.7c-.032,0-.065-.016-.1-.016a106.7,106.7,0,0,0,27.917,1.3.206.206,0,0,0-.1.016c2.594-.243,5.188-.567,7.766-1.038a46.691,46.691,0,0,0,4.685-1.086c1.54-.454,3.048-.957,4.572-1.492a.231.231,0,0,1-.1.032c.811-.292,1.621-.6,2.432-.892a62.574,62.574,0,0,1-11.819.178c-2.464-.146-4.912-.34-7.36-.454-2.545-.13-5.091-.276-7.636-.454a275.761,275.761,0,0,1-29.409-3.583A193.7,193.7,0,0,1,96.05,41.12a69.662,69.662,0,0,0,10.959,6.4" transform="translate(59.668 25.545)"></path><path id="Path_1277" data-name="Path 1277" class="cls-20" d="M102.876,45.1h0" transform="translate(63.899 28.017)"></path><path id="Path_1278" data-name="Path 1278" class="cls-24" d="M105.953,108.5a5.723,5.723,0,1,0-5.723-5.723,5.722,5.722,0,0,0,5.723,5.723" transform="translate(62.265 60.289)"></path><path id="Path_1279" data-name="Path 1279" class="cls-24" d="M163.623,103.536a5.723,5.723,0,1,0-5.723-5.723,5.722,5.722,0,0,0,5.723,5.723" transform="translate(98.091 57.208)"></path></g></g></svg>